<svg width="495" height="497" viewBox="0 0 495 497" fill="none" xmlns="http://www.w3.org/2000/svg">
<path d="M176.038 188.562C176.082 190.826 175.681 193.077 174.859 195.187C173.82 197.397 172.073 199.197 169.896 200.304C169.142 200.752 168.21 201.27 167.114 201.848C165.958 202.434 164.854 203.116 163.813 203.888C162.779 204.677 161.879 205.629 161.148 206.705C160.412 207.806 160.029 209.106 160.052 210.431C160.038 211.346 160.227 212.254 160.607 213.088C160.986 213.922 161.545 214.661 162.245 215.252C162.92 215.796 163.698 216.197 164.532 216.431C165.398 216.702 166.3 216.841 167.208 216.844C168.238 216.857 169.26 216.664 170.214 216.278C171.09 215.918 171.911 215.438 172.655 214.852C173.382 214.278 174.039 213.621 174.612 212.895C175.142 212.235 175.634 211.546 176.085 210.831L182.628 215.335C181.998 216.848 181.121 218.246 180.035 219.473C178.967 220.673 177.723 221.702 176.345 222.526C174.947 223.358 173.439 223.989 171.865 224.401C170.246 224.831 168.577 225.049 166.902 225.049C164.989 225.046 163.086 224.764 161.255 224.212C159.429 223.679 157.73 222.785 156.256 221.583C154.736 220.32 153.505 218.743 152.648 216.962C151.671 214.855 151.195 212.551 151.257 210.23C151.233 208.791 151.424 207.357 151.823 205.974C152.181 204.78 152.726 203.65 153.438 202.626C154.142 201.619 154.975 200.707 155.914 199.915C156.936 199.051 158.02 198.263 159.156 197.557C160.162 196.944 161.164 196.366 162.162 195.824C163.134 195.294 164.053 194.674 164.909 193.973C165.717 193.31 166.403 192.512 166.937 191.615C167.49 190.639 167.763 189.529 167.727 188.408L176.038 188.562ZM175.885 171.043V181.417H167.538V171.043H175.885Z" fill="#EBEBEB"/>
<path d="M318.995 173.236C318.951 170.971 319.352 168.72 320.174 166.61C321.214 164.401 322.96 162.6 325.137 161.494C325.891 161.046 326.823 160.527 327.919 159.949C329.075 159.364 330.179 158.681 331.22 157.91C332.254 157.12 333.154 156.169 333.885 155.092C334.621 153.991 335.004 152.691 334.981 151.367C334.995 150.451 334.806 149.543 334.426 148.709C334.047 147.876 333.488 147.136 332.788 146.545C332.119 145.98 331.34 145.559 330.501 145.307C329.635 145.036 328.733 144.897 327.825 144.894C326.795 144.882 325.773 145.074 324.819 145.46C323.943 145.82 323.122 146.3 322.378 146.887C321.651 147.46 320.994 148.117 320.421 148.844C319.891 149.503 319.399 150.192 318.948 150.907L312.357 146.415C312.988 144.903 313.865 143.504 314.951 142.277C316.022 141.081 317.265 140.052 318.641 139.224C320.039 138.392 321.547 137.761 323.121 137.349C324.74 136.919 326.409 136.701 328.084 136.701C329.997 136.704 331.9 136.986 333.731 137.538C335.556 138.072 337.256 138.965 338.73 140.167C340.25 141.431 341.481 143.007 342.337 144.788C343.314 146.895 343.791 149.199 343.729 151.52C343.753 152.959 343.562 154.393 343.163 155.776C342.805 156.97 342.26 158.1 341.548 159.124C340.844 160.132 340.011 161.043 339.072 161.836C338.05 162.699 336.966 163.487 335.83 164.193C334.824 164.806 333.822 165.384 332.824 165.926C331.852 166.456 330.933 167.076 330.077 167.777C329.269 168.44 328.583 169.238 328.049 170.135C327.496 171.111 327.223 172.221 327.259 173.342L318.995 173.236ZM319.148 190.755V180.38H327.495V190.755H319.148Z" fill="#EBEBEB"/>
<path d="M254.202 59.681C254.228 61.3512 253.924 63.0101 253.306 64.5618C252.541 66.1909 251.255 67.5185 249.651 68.3343C249.101 68.6644 248.417 69.0574 247.6 69.5133C246.773 69.9538 245.984 70.4625 245.242 71.0341C244.471 71.5826 243.798 72.256 243.249 73.0265C242.7 73.8356 242.416 74.7955 242.436 75.7734C242.425 76.4825 242.578 77.1846 242.884 77.8247C243.171 78.3988 243.572 78.9083 244.063 79.3219C244.56 79.7313 245.133 80.0397 245.749 80.2297C246.386 80.43 247.05 80.5333 247.718 80.5362C248.48 80.5441 249.237 80.4039 249.946 80.1236C250.588 79.8523 251.191 79.4954 251.738 79.0625C252.275 78.641 252.762 78.1583 253.188 77.6243C253.575 77.1386 253.933 76.6308 254.261 76.1035L259.094 79.428C258.628 80.5457 257.979 81.5776 257.173 82.4814C256.386 83.3595 255.472 84.1145 254.461 84.7214C253.431 85.3375 252.32 85.8058 251.16 86.1125C249.967 86.4244 248.739 86.5828 247.505 86.5841C246.096 86.5803 244.694 86.3738 243.344 85.971C241.997 85.5732 240.743 84.912 239.654 84.0258C238.529 83.0971 237.62 81.9344 236.989 80.6187C236.27 79.0652 235.919 77.3668 235.964 75.6555C235.949 74.5957 236.088 73.5395 236.376 72.5195C236.64 71.6422 237.037 70.8111 237.555 70.0556C238.069 69.3097 238.684 68.6391 239.383 68.0632C240.124 67.4309 240.912 66.8555 241.74 66.342C242.483 65.894 243.226 65.4696 243.957 65.0687C244.673 64.6764 245.352 64.2186 245.985 63.7012C246.587 63.239 247.105 62.6767 247.517 62.0389C247.921 61.3204 248.121 60.505 248.095 59.681H254.202ZM254.084 46.7129V54.3641H247.93V46.76L254.084 46.7129Z" fill="#EBEBEB"/>
<path d="M442.735 358.717L459.24 358.387L467.363 358.257C470.063 358.198 472.751 358.257 475.451 358.186L474.92 358.717L474.861 344.9L475.451 345.489L459.075 345.36C453.629 345.36 448.182 345.23 442.735 345.171L443.054 344.853C443.054 347.116 442.948 349.391 442.9 351.69L442.735 358.717ZM442.735 358.717L442.559 351.879C442.559 349.521 442.429 347.246 442.405 344.9V344.581H442.735C448.182 344.511 453.629 344.393 459.075 344.381L475.427 344.31H476.016V344.9L475.946 358.717V359.247H475.427C472.668 359.247 469.91 359.247 467.174 359.247L458.922 359.118L442.735 358.717Z" fill="#EBEBEB"/>
<path d="M460.973 376.127L477.478 375.809L485.6 375.667C488.3 375.667 490.988 375.667 493.688 375.667L493.157 376.186V362.381L493.747 362.959L477.395 362.888C471.948 362.888 466.502 362.758 461.055 362.699L461.374 362.381C461.374 364.633 461.267 366.908 461.22 369.219L460.973 376.127ZM460.973 376.127L460.796 369.289C460.796 366.991 460.666 364.656 460.643 362.322V362.004H460.973C466.419 361.945 471.866 361.815 477.313 361.815L493.664 361.744H494.254V362.346L494.195 376.151V376.681H493.676C490.917 376.681 488.159 376.681 485.424 376.611L477.171 376.481L460.973 376.127Z" fill="#EBEBEB"/>
<path d="M89.1641 193.7L105.669 193.37L113.792 193.24C116.492 193.24 119.179 193.24 121.879 193.181L121.349 193.7L121.29 179.883L121.879 180.473L105.528 180.402C100.081 180.402 94.6343 180.272 89.1877 180.213L89.506 179.883C89.506 182.147 89.3999 184.422 89.3527 186.721L89.1641 193.7ZM89.1641 193.7L88.999 186.862C88.9401 184.563 88.8576 182.229 88.834 179.883V179.565H89.1641C94.6107 179.506 100.057 179.376 105.504 179.376L121.856 179.294H122.445V179.883V193.7V194.231H121.926C119.168 194.231 116.409 194.231 113.674 194.16L105.421 194.03L89.1641 193.7Z" fill="#EBEBEB"/>
<path d="M107.697 211.125L124.202 210.795L132.325 210.665C135.025 210.606 137.713 210.665 140.412 210.595L139.882 211.125L139.823 197.308L140.412 197.898L124.061 197.827C118.614 197.827 113.167 197.697 107.709 197.627L108.039 197.308C108.039 199.572 107.933 201.847 107.886 204.146L107.697 211.125ZM107.697 211.125L107.532 204.287C107.532 201.93 107.402 199.654 107.379 197.308V196.99H107.697C113.156 196.931 118.602 196.801 124.049 196.789L140.401 196.719H140.99V197.308L140.919 211.125V211.656H140.401C137.642 211.656 134.883 211.656 132.148 211.585L123.896 211.455L107.697 211.125Z" fill="#EBEBEB"/>
<path d="M1.37007 376.127L17.875 375.809L25.9978 375.667C28.7093 375.667 31.3972 375.667 34.0852 375.667L33.5665 376.186L33.4957 362.381L34.0852 362.959L17.7453 362.888C12.2869 362.888 6.84027 362.758 1.39365 362.699L1.71196 362.381C1.71196 364.633 1.61764 366.908 1.5587 369.219L1.37007 376.127ZM1.37007 376.127L1.20502 369.289C1.20502 366.991 1.07534 364.656 1.05176 362.322V362.004H1.37007C6.81669 361.945 12.2633 361.815 17.7217 361.815L34.0616 361.744H34.6629V362.346V376.151V376.681H34.1324C31.3855 376.681 28.6268 376.681 25.8799 376.611L17.6274 376.481L1.37007 376.127Z" fill="#EBEBEB"/>
<path d="M19.6064 49.2709L36.1113 48.9408L44.2341 48.8112C46.9456 48.8112 49.6336 48.8112 52.3215 48.8112L51.8028 49.3299L51.7321 35.5129L52.3215 36.1024L35.9816 36.0316C30.535 36.0316 25.0766 35.902 19.63 35.8312L19.9483 35.5129C19.9483 37.7764 19.854 40.0518 19.795 42.3507L19.6064 49.2709ZM19.6064 49.2709L19.4413 42.4332C19.4413 40.0753 19.3117 37.8 19.2881 35.454V35.1357H19.6064C25.053 35.1357 30.5114 34.947 35.9581 34.947L52.2979 34.8645H52.8992V35.454V49.2709V49.8015H52.3687C49.6218 49.8015 46.8631 49.8015 44.1162 49.7307L35.8638 49.601L19.6064 49.2709Z" fill="#EBEBEB"/>
<path d="M1.37007 66.6938L17.875 66.3637L25.9978 66.234C28.7093 66.234 31.3972 66.234 34.0852 66.1633L33.5665 66.6938L33.4957 52.8768L34.0852 53.4663L17.7453 53.3955C12.2869 53.3955 6.84027 53.2541 1.39365 53.1951L1.71196 52.8768C1.71196 55.1403 1.61764 57.4157 1.5587 59.7146L1.37007 66.6938ZM1.37007 66.6938L1.20502 59.856C1.20502 57.4982 1.07534 55.2229 1.05176 52.8768V52.5585H1.37007C6.81669 52.4878 12.2633 52.3699 17.7217 52.3581L34.0616 52.2874H34.6629V52.8768V66.6938V67.2243H34.1324C31.3855 67.2243 28.6268 67.2243 25.8799 67.2243L17.6274 67.0946L1.37007 66.6938Z" fill="#EBEBEB"/>
<path d="M460.973 49.2709L477.478 48.9408L485.6 48.8112C488.3 48.8112 490.988 48.8112 493.688 48.8112L493.157 49.3299V35.5129L493.747 36.1024L477.395 36.0316C471.948 36.0316 466.502 35.902 461.055 35.8312L461.374 35.5129C461.374 37.7764 461.267 40.0518 461.22 42.3507L460.973 49.2709ZM460.973 49.2709L460.796 42.4332C460.796 40.0753 460.666 37.8 460.643 35.454V35.1357H460.973C466.419 35.1357 471.866 34.947 477.313 34.947L493.664 34.8645H494.254V35.454L494.195 49.2709V49.8015H493.676C490.917 49.8015 488.159 49.8015 485.424 49.7307L477.171 49.601L460.973 49.2709Z" fill="#EBEBEB"/>
<path d="M126.241 193.7L142.746 193.37L150.845 193.276C153.545 193.276 156.233 193.276 158.933 193.217L158.402 193.736V179.919L158.992 180.508L142.593 180.402C137.146 180.402 131.688 180.272 126.241 180.213L126.571 179.883C126.571 182.147 126.465 184.422 126.406 186.721L126.241 193.7ZM126.241 193.7L126.076 186.862C126.076 184.563 125.946 182.229 125.923 179.883V179.565H126.241C131.688 179.506 137.146 179.376 142.593 179.376L158.944 179.294H159.534V179.883L159.475 193.7V194.231H158.956C156.198 194.231 153.439 194.231 150.704 194.16L142.451 194.03L126.241 193.7Z" fill="#EBEBEB"/>
<path d="M111.197 460.42H17.249V480.627H111.197V460.42Z" fill="#C7C7C7"/>
<path d="M51.875 460.42H43.0566V480.627H51.875V460.42Z" fill="#DBDBDB"/>
<path d="M36.3369 460.42H33.0713V480.627H36.3369V460.42Z" fill="#DBDBDB"/>
<path d="M100.683 460.42H91.8643V480.627H100.683V460.42Z" fill="#DBDBDB"/>
<path d="M120.842 446.298H13.5361V460.422H120.842V446.298Z" fill="#DBDBDB"/>
<path d="M58.3236 449.186H22.3311V457.662H58.3236V449.186Z" fill="#EBEBEB"/>
<path d="M101.001 427.577H16.1895V446.31H101.001V427.577Z" fill="#A6A6A6"/>
<path d="M93.4556 427.577H86.8301V446.31H93.4556V427.577Z" fill="#C7C7C7"/>
<path d="M82.4802 427.577H79.9102V446.31H82.4802V427.577Z" fill="#C7C7C7"/>
<path d="M166.54 466.84L111.153 403.862L95.537 417.596L150.923 480.574L166.54 466.84Z" fill="#A6A6A6"/>
<path d="M160.652 460.154L155.49 454.285L139.874 468.019L145.036 473.888L160.652 460.154Z" fill="#C7C7C7"/>
<path d="M127.74 422.719L122.578 416.85L106.962 430.584L112.124 436.453L127.74 422.719Z" fill="#C7C7C7"/>
<path d="M133.245 428.984L131.244 426.708L115.628 440.442L117.629 442.717L133.245 428.984Z" fill="#C7C7C7"/>
<path d="M428.397 429.887C428.397 429.887 439.397 390.393 448.192 376.977C456.986 363.561 473.362 348.824 473.362 348.824C473.362 348.824 472.973 409.727 428.397 429.887Z" fill="#34A1D3"/>
<path d="M429.187 429.216C432.887 423.031 436.236 416.643 439.22 410.082C440.475 403.022 442.3 396.075 444.678 389.31C444.678 389.18 444.902 389.31 444.879 389.381C443.417 395.617 441.719 401.806 440.163 408.019C444.608 398.411 448.828 388.673 454.11 379.584C455.336 375.194 457.048 370.956 459.215 366.946C459.273 366.84 459.462 366.946 459.415 367.016C458.078 370.088 456.928 373.237 455.972 376.448C458.468 372.395 461.266 368.537 464.343 364.906C464.531 364.682 464.92 364.906 464.732 365.165C457.658 374.196 452.766 384.464 448.121 394.874C453.117 389.448 457.73 383.681 461.926 377.615C461.926 377.544 462.068 377.615 462.02 377.674C457.653 384.477 452.707 390.891 447.237 396.843C443.853 404.459 440.517 412.169 436.485 419.361C444.549 412.546 450.762 403.716 456.904 395.204C456.918 395.185 456.935 395.169 456.956 395.156C456.976 395.144 456.998 395.135 457.022 395.131C457.046 395.128 457.07 395.128 457.093 395.134C457.116 395.139 457.138 395.149 457.157 395.163C457.177 395.177 457.193 395.195 457.206 395.215C457.218 395.235 457.227 395.258 457.23 395.281C457.234 395.305 457.233 395.329 457.228 395.352C457.222 395.375 457.212 395.397 457.199 395.417C451.056 404.754 444.702 413.549 435.86 420.469C434.066 423.652 432.098 426.733 429.965 429.7C429.89 429.774 429.792 429.82 429.687 429.831C429.582 429.843 429.476 429.819 429.387 429.763C429.297 429.708 429.229 429.623 429.193 429.524C429.156 429.425 429.155 429.317 429.187 429.216Z" fill="#263238"/>
<path d="M424.978 433.448C424.978 433.448 444.761 397.031 439.019 361.722C433.278 326.413 427.124 313.834 427.124 313.834C427.124 313.834 396.059 368.748 424.978 433.448Z" fill="#34A1D3"/>
<path d="M416.868 376.189C418.536 386.219 421.089 396.082 424.495 405.662C424.554 392.694 424.802 379.726 425.144 366.758C422.921 358.896 421.67 350.791 421.418 342.625C421.418 342.389 421.76 342.401 421.784 342.625C422.41 349.624 423.568 356.564 425.25 363.386C425.548 352.705 425.894 342.02 426.287 331.331C426.287 331.294 426.302 331.258 426.329 331.231C426.355 331.205 426.391 331.19 426.429 331.19C426.466 331.19 426.502 331.205 426.529 331.231C426.555 331.258 426.57 331.294 426.57 331.331C426.57 348.025 426.57 364.73 426.464 381.435C428.868 374.977 430.771 368.344 432.158 361.594C432.158 361.523 432.276 361.594 432.276 361.594C431.687 369.399 429.305 376.92 426.382 384.171C426.299 394.852 426.181 405.521 425.945 416.19C429.293 404.849 432.866 393.849 433.832 381.86C433.832 381.825 433.846 381.792 433.87 381.768C433.895 381.744 433.928 381.73 433.962 381.73C433.996 381.73 434.029 381.744 434.054 381.768C434.078 381.792 434.092 381.825 434.092 381.86C433.821 395.076 430.413 408.503 426.051 420.941C426.011 421.061 425.937 421.168 425.839 421.248C425.733 425.15 425.627 429.052 425.497 432.954C425.497 433.07 425.451 433.181 425.37 433.263C425.288 433.345 425.177 433.391 425.061 433.391C424.945 433.391 424.834 433.345 424.753 433.263C424.671 433.181 424.625 433.07 424.625 432.954C424.476 424.969 424.409 416.988 424.425 409.01C420.121 398.559 417.491 387.495 416.632 376.225C416.679 376.118 416.844 376.095 416.868 376.189Z" fill="#263238"/>
<path d="M418.222 370.562C418.912 373.732 419.373 376.947 419.602 380.182C419.602 380.207 419.592 380.231 419.574 380.249C419.556 380.267 419.532 380.277 419.507 380.277C419.482 380.277 419.458 380.267 419.441 380.249C419.423 380.231 419.413 380.207 419.413 380.182C418.647 377.025 418.103 373.819 417.786 370.586C417.763 370.362 418.175 370.315 418.222 370.562Z" fill="#263238"/>
<path d="M429.788 343.932C429.788 343.826 429.977 343.861 429.977 343.932C429.942 346.178 429.609 348.41 428.986 350.569C428.975 350.605 428.951 350.635 428.917 350.653C428.884 350.67 428.845 350.674 428.809 350.663C428.773 350.652 428.743 350.628 428.726 350.594C428.708 350.561 428.704 350.522 428.715 350.487C429.14 348.329 429.411 346.136 429.788 343.932Z" fill="#263238"/>
<path d="M417.775 436.229C417.775 436.229 418.576 398.22 407.671 379.322C396.766 360.424 378.682 350.792 378.682 350.792C378.682 350.792 385.967 417.814 417.775 436.229Z" fill="#34A1D3"/>
<path d="M397.899 403.729C402.284 410.37 407.221 416.628 412.659 422.439C410.482 414.658 407.963 407.014 405.102 399.508C398.995 394.144 392.924 388.592 389.175 381.259C389.116 381.141 389.281 381.035 389.351 381.153C393.383 387.648 398.783 392.848 404.453 397.846C400.083 386.54 395.016 375.515 389.281 364.836C389.248 364.782 389.238 364.716 389.254 364.654C389.269 364.592 389.309 364.539 389.363 364.506C389.418 364.473 389.483 364.464 389.545 364.479C389.607 364.495 389.66 364.534 389.693 364.589C393.18 370.182 396.356 375.964 399.207 381.907C398.193 377.84 397.368 373.655 396.319 369.646C396.326 369.628 396.338 369.613 396.353 369.602C396.369 369.591 396.388 369.585 396.407 369.585C396.427 369.585 396.445 369.591 396.461 369.602C396.477 369.613 396.489 369.628 396.496 369.646C398.635 374.821 400.139 380.237 400.976 385.774C404.795 394.205 408.002 402.901 410.572 411.793C410.301 406.087 409.935 400.416 409.393 394.734C409.393 394.628 409.57 394.604 409.582 394.734C410.8 401.041 411.357 407.457 411.244 413.88C412.816 419.546 414.132 425.272 415.193 431.056C415.193 431.21 414.993 431.28 414.958 431.115C414.368 428.699 413.72 426.294 413.06 423.9C413.021 423.91 412.98 423.91 412.942 423.9C407.047 418.006 401.541 411.357 397.887 403.859L397.899 403.729Z" fill="#263238"/>
<path d="M385.259 372.79C386.438 374.098 387.617 375.477 388.796 376.833C389.939 377.969 390.987 379.195 391.932 380.5C391.94 380.511 391.944 380.525 391.943 380.539C391.942 380.553 391.936 380.567 391.926 380.577C391.916 380.587 391.903 380.593 391.889 380.594C391.875 380.595 391.861 380.591 391.849 380.582C390.487 379.574 389.269 378.384 388.23 377.045C387.08 375.771 386.039 374.403 385.118 372.955C385.023 372.813 385.177 372.695 385.259 372.79Z" fill="#263238"/>
<path d="M450.172 431.597L448.792 443.787L444.654 480.629H408.52L404.382 443.787L403.003 431.597H450.16H450.172Z" fill="#455A64"/>
<path d="M450.172 431.597L448.792 443.787H404.382L403.003 431.597H450.16H450.172Z" fill="#37474F"/>
<path d="M399.797 436.571H453.379V422.766H399.797V436.571Z" fill="#455A64"/>
<path d="M10.5312 480.933L69.7839 480.65L129.025 480.544L247.518 480.343L366.012 480.544L425.253 480.638L484.506 480.933L425.253 481.216L366.012 481.322L247.518 481.522L129.025 481.322L69.7839 481.216L10.5312 480.933Z" fill="#263238"/>
<path d="M174.104 78.8632V140.014H65.5013V154.385L12.5205 104.752L60.7503 59.8L65.5013 64.4922V74.1829H169.341L174.104 78.8632Z" fill="#34A1D3"/>
<g opacity="0.1">
<path d="M174.104 78.8623V140.013H65.5013V154.384L12.5205 104.751L60.7503 59.7991L65.5013 64.4912V74.1819H169.341L174.104 78.8623Z" fill="black"/>
</g>
<path d="M169.342 74.1826H60.751V135.333H169.342V74.1826Z" fill="#34A1D3"/>
<path d="M60.7503 149.693V59.8L12.5205 104.752L60.7503 149.693Z" fill="#34A1D3"/>
<path d="M434.293 154.385L429.53 149.693V140.014H325.691L320.939 135.322V74.1829H429.53V59.8L482.511 109.445L434.293 154.385Z" fill="#37474F"/>
<path d="M320.939 135.322H429.529V74.171L320.939 74.171V135.322Z" fill="#455A64"/>
<path d="M429.529 59.8V149.693L477.759 104.752L429.529 59.8Z" fill="#455A64"/>
<path d="M283.603 386.622V386.787C283.603 386.787 283.603 386.858 283.603 386.905C283.603 386.952 283.603 387.094 283.545 387.224V387.436C283.507 387.587 283.48 387.741 283.462 387.895C283.462 388.002 283.462 388.108 283.403 388.226C283.344 388.343 283.321 388.721 283.262 389.004C283.203 389.287 283.085 389.959 282.99 390.524L282.46 393.401C282.401 393.708 282.342 394.038 282.283 394.38C282.224 394.721 282.118 395.299 282.024 395.782C281.929 396.266 281.835 396.867 281.729 397.445C281.658 397.846 281.576 398.258 281.505 398.683C281.281 399.944 281.045 401.288 280.774 402.726C280.769 402.762 280.769 402.797 280.774 402.832C280.491 404.436 280.185 406.157 279.854 407.961C279.772 408.432 279.678 408.904 279.583 409.375C279.489 409.847 279.395 410.366 279.312 410.861C279.312 411.167 279.206 411.486 279.135 411.804C278.687 414.311 278.204 416.968 277.685 419.774C277.508 420.717 277.343 421.672 277.167 422.638C276.825 424.525 276.471 426.458 276.106 428.45C276.011 428.91 275.929 429.37 275.858 429.842C275.324 432.726 274.777 435.728 274.219 438.849C274.149 439.167 274.101 439.485 274.042 439.803C273.771 441.265 273.5 442.739 273.241 444.248C273.206 444.363 273.182 444.482 273.17 444.602L272.781 446.747C272.262 449.624 271.728 452.567 271.178 455.577C271.036 456.32 270.895 457.075 270.765 457.841C270.494 459.362 270.211 460.894 269.928 462.439C269.574 464.36 269.221 466.294 268.867 468.263C268.513 470.232 268.16 472.2 267.794 474.157C267.606 475.159 267.429 476.161 267.24 477.164C267.028 478.342 266.804 479.521 266.592 480.783H164.697C177.265 428.568 187.863 386.469 187.863 386.469L283.603 386.622Z" fill="#37474F"/>
<path d="M268.207 398.411C263.107 425.919 257.951 453.427 252.74 480.936H251.325C256.736 453.361 262.313 425.833 267.83 398.293C267.913 398.034 268.243 398.14 268.207 398.411Z" fill="#37474F"/>
<path d="M283.591 386.622C283.591 386.622 283.591 386.681 283.591 386.787C283.591 386.893 283.591 386.858 283.591 386.905C283.591 386.952 283.591 387.094 283.532 387.223V387.436C283.495 387.587 283.467 387.74 283.45 387.895C283.45 388.001 283.45 388.107 283.391 388.225C283.332 388.343 283.297 388.721 283.249 389.003C283.202 389.286 283.073 389.958 282.978 390.524C282.813 391.361 282.648 392.316 282.448 393.401C282.389 393.707 282.33 394.037 282.271 394.379C282.212 394.721 282.106 395.299 282.012 395.782C281.917 396.266 281.823 396.867 281.717 397.445C281.646 397.845 281.564 398.258 281.493 398.682C281.257 399.944 281.021 401.288 280.762 402.726C280.756 402.761 280.756 402.797 280.762 402.832C280.467 404.436 280.161 406.133 279.831 407.937C279.736 408.409 279.654 408.892 279.571 409.375C279.489 409.859 279.383 410.366 279.3 410.861C279.229 411.167 279.182 411.486 279.123 411.804C278.663 414.303 278.18 416.968 277.673 419.773C277.496 420.717 277.331 421.671 277.154 422.638C276.801 424.524 276.447 426.458 276.093 428.45C275.999 428.91 275.916 429.37 275.846 429.841C275.303 432.742 274.757 435.744 274.207 438.848C274.136 439.167 274.089 439.485 274.03 439.803C273.759 441.265 273.488 442.739 273.229 444.248C273.194 444.363 273.17 444.482 273.158 444.602L272.769 446.747C272.234 449.624 271.7 452.567 271.165 455.577C271.024 456.32 270.882 457.075 270.753 457.841C270.47 459.362 270.199 460.894 269.916 462.439C269.562 464.36 269.208 466.294 268.855 468.263C268.501 470.231 268.136 472.2 267.782 474.157C267.593 475.159 267.416 476.161 267.228 477.163C267.016 478.342 266.792 479.521 266.568 480.783H215.438L211.347 438.907L211.205 437.422L211.04 435.819L210.239 427.625L209.543 420.551L206.254 386.622H283.591Z" fill="#263238"/>
<path d="M341.489 480.934H231.601C231.413 470.819 231.212 461.034 230.965 451.803C230.965 451.579 230.965 451.355 230.965 451.131C230.965 451.131 218.138 443.539 211.23 437.585C210.055 436.619 208.974 435.546 207.999 434.379C203.578 428.743 199.146 407.075 189.974 386.691H324.371C346.205 429.062 344.672 463.109 341.489 480.934Z" fill="#37474F"/>
<path d="M204.794 432.883C211.337 435.559 217.219 439.673 223.02 443.646C229.044 447.761 234.573 452.524 240.373 456.944C240.597 457.121 240.373 457.487 240.138 457.322C234.031 453.42 227.629 449.989 221.581 445.969C215.687 442.066 209.604 438.27 204.499 433.354C204.298 433.166 204.522 432.765 204.794 432.883Z" fill="#263238"/>
<path d="M203.968 395.076C204.746 399.261 205.76 403.411 206.668 407.573C207.516 411.475 208.141 415.448 209.167 419.362C210.009 423.096 211.908 426.509 214.637 429.194C216.17 430.62 217.856 431.882 219.494 433.179C220.367 433.886 221.322 434.558 222.241 435.277C222.111 434.723 222.017 434.098 221.923 433.591C221.64 432 221.369 430.42 221.109 428.876C220.52 425.339 219.93 421.802 219.412 418.265C218.351 411.322 217.372 404.307 215.875 397.434C215.859 397.376 215.867 397.314 215.897 397.262C215.927 397.21 215.976 397.172 216.034 397.157C216.092 397.141 216.154 397.149 216.206 397.179C216.258 397.209 216.296 397.258 216.311 397.316C218.044 404.13 219.954 410.874 221.451 417.747C222.194 421.107 224.835 437.788 224.988 438.967C225.141 440.146 225.2 441.408 225.247 442.622C225.413 443.862 225.413 445.119 225.247 446.359C225.224 446.415 225.185 446.463 225.135 446.496C225.084 446.53 225.025 446.548 224.964 446.548C224.904 446.548 224.845 446.53 224.794 446.496C224.744 446.463 224.705 446.415 224.682 446.359C224.179 445.205 223.823 443.994 223.62 442.752C223.314 441.573 223.043 440.394 222.831 439.144C222.76 438.72 222.701 438.272 222.642 437.824C221.003 436.822 219.471 435.466 217.926 434.405C216.382 433.344 214.602 432.047 213.034 430.727C210.147 428.287 208.063 425.033 207.057 421.39C206.039 417.452 205.377 413.432 205.076 409.376C204.546 404.661 204.168 399.945 203.508 395.229C203.496 394.876 203.897 394.793 203.968 395.076Z" fill="#263238"/>
<path d="M316.992 429.063C315.235 428.144 308.445 429.771 296.078 427.649C293.653 427.338 291.35 426.403 289.393 424.937C286.175 422.308 283.734 418.076 281.789 414.456C279.455 410.385 277.664 406.025 276.46 401.488C276.401 401.217 276.001 401.347 276.048 401.606C276.508 404.164 276.767 406.723 277.439 409.257C278.106 411.636 278.962 413.958 279.997 416.201C281.86 420.398 284.053 424.902 287.813 427.743C291.763 430.714 297.245 431.28 302.055 431.61C304.825 431.798 315.671 431.504 317.133 429.959C317.188 429.893 317.229 429.817 317.252 429.734C317.275 429.651 317.28 429.564 317.267 429.479C317.253 429.394 317.222 429.313 317.174 429.241C317.127 429.17 317.065 429.109 316.992 429.063Z" fill="#263238"/>
<path d="M312.228 392.765C313.477 396.301 314.691 399.838 315.694 403.469C316.696 407.1 317.721 410.673 318.641 414.292C320.432 421.54 321.833 428.88 322.838 436.279C323.867 443.657 324.379 451.099 324.37 458.549L324.276 464.148C324.205 466.011 324.005 467.862 323.875 469.737L323.698 472.542C323.592 473.462 323.439 474.393 323.309 475.313C323.038 477.164 322.791 479.026 322.555 480.901C324.638 473.638 325.865 466.156 326.21 458.608C326.56 451.043 326.213 443.462 325.172 435.96C324.158 428.472 322.582 421.071 320.456 413.82C318.35 406.569 315.596 399.522 312.228 392.765Z" fill="#263238"/>
<path d="M195.421 222.224C149.443 261.836 116.527 296.131 116.539 312.105C116.539 347.897 135.249 356.091 138.632 355.041C174.424 343.901 198.686 276.985 214.637 236.524C230.47 196.394 208.613 210.883 195.421 222.224Z" fill="#EB9481"/>
<path d="M130.084 278.654L186 310.356C186 310.356 210.369 260.57 219.01 230.649C227.652 200.727 215.544 201.388 188.559 224.294C161.573 247.201 130.084 278.654 130.084 278.654Z" fill="#34A1D3"/>
<path d="M193.086 228.127C192.425 226.662 191.585 225.284 190.587 224.024L190.304 223.706C190.304 223.871 190.304 224.036 190.387 224.189C190.683 225.746 191.174 227.259 191.848 228.693C192.559 230.292 193.496 231.781 194.631 233.114C194.351 231.387 193.831 229.709 193.086 228.127ZM166.69 247.508C165.091 248.214 163.602 249.147 162.269 250.279C165.735 249.687 168.987 248.2 171.701 245.964C169.965 246.234 168.277 246.754 166.69 247.508ZM219.966 220.181C220.448 220.123 220.925 220.028 221.392 219.898C221.392 219.591 221.475 219.297 221.51 219.002C220.968 219.375 220.452 219.785 219.966 220.228V220.181ZM173.446 283.583C172.811 285.216 172.414 286.931 172.267 288.676C173.3 287.265 174.119 285.707 174.695 284.055C175.323 282.424 175.719 280.714 175.874 278.974C174.848 280.386 174.03 281.939 173.446 283.583ZM211.89 242.863C211.256 244.496 210.859 246.211 210.711 247.956C211.745 246.544 212.563 244.987 213.14 243.335C213.767 241.704 214.164 239.994 214.319 238.254C213.293 239.666 212.475 241.219 211.89 242.863ZM146 278.16C144.368 277.526 142.653 277.129 140.907 276.981C143.785 278.981 147.132 280.199 150.622 280.518C149.197 279.523 147.642 278.73 146 278.16ZM192.32 260.983C190.687 260.349 188.972 259.952 187.227 259.804C190.105 261.804 193.452 263.022 196.941 263.341C195.52 262.33 193.964 261.52 192.32 260.936V260.983ZM194.855 267.019C194.855 267.019 194.855 267.102 194.855 267.137H195.067C195 267.078 194.929 267.023 194.855 266.972V267.019Z" fill="white"/>
<path d="M141.863 270.202C163.378 285.328 184.304 295.278 188.489 297.789C188.678 297.907 188.854 297.577 188.642 297.459C184.41 295.219 161.527 280.376 142.039 269.849C141.815 269.731 141.662 270.061 141.863 270.202Z" fill="#263238"/>
<path opacity="0.1" d="M170.733 301.739L186 310.392C186 310.392 210.369 260.606 219.01 230.685C222.182 219.662 222.547 212.789 220.39 209.653L170.733 301.739Z" fill="black"/>
<path d="M177.748 409.211H336.785C336.785 409.211 312.487 257.46 253.871 205.563C246.632 199.15 230.293 200.612 219.682 205.905C215.874 207.803 202.211 226.914 198.308 244.998C194.406 263.083 177.324 408.668 177.748 409.211Z" fill="#34A1D3"/>
<path d="M267.146 248.17C270.018 250.19 273.365 251.429 276.86 251.765C273.989 249.745 270.641 248.506 267.146 248.17ZM194.843 267.091H195.055C194.991 267.04 194.924 266.993 194.854 266.95C194.854 266.95 194.843 267.056 194.843 267.091ZM231.095 289.739C233.966 291.759 237.314 292.998 240.809 293.334C239.388 292.314 237.833 291.497 236.188 290.906C234.554 290.275 232.839 289.882 231.095 289.739ZM252.704 355.64C254.122 356.668 255.678 357.49 257.326 358.081C258.958 358.715 260.673 359.112 262.419 359.26C259.551 357.229 256.202 355.985 252.704 355.652V355.64ZM289.098 309.662C291.969 311.683 295.317 312.922 298.812 313.258C297.392 312.238 295.836 311.421 294.191 310.829C292.556 310.211 290.841 309.83 289.098 309.698V309.662ZM321.789 401.335C324.657 403.366 328.006 404.61 331.503 404.943C328.629 402.926 325.283 401.683 321.789 401.335ZM251.537 395.594C254.405 397.624 257.754 398.868 261.251 399.202C259.834 398.177 258.278 397.36 256.63 396.773C254.98 396.128 253.244 395.73 251.478 395.594H251.537ZM178.255 404.094C179.206 404.609 180.19 405.058 181.203 405.438C182.835 406.071 184.55 406.468 186.296 406.617C184.876 405.595 183.321 404.777 181.674 404.188C180.597 403.785 179.489 403.469 178.361 403.245C178.255 403.528 178.232 403.823 178.196 404.094H178.255ZM206.149 353.848C209.02 355.869 212.368 357.108 215.863 357.444C214.445 356.42 212.889 355.602 211.242 355.016C209.591 354.374 207.855 353.981 206.09 353.848H206.149ZM254.685 229.826C256.705 226.954 257.944 223.606 258.281 220.111C257.256 221.529 256.439 223.085 255.852 224.733C255.216 226.364 254.823 228.08 254.685 229.826ZM289.687 407.843C291.707 404.971 292.947 401.624 293.283 398.129C292.256 399.545 291.438 401.101 290.854 402.75C290.218 404.382 289.825 406.098 289.687 407.843ZM296.666 363.527C297.699 362.113 298.521 360.556 299.107 358.906C299.74 357.277 300.137 355.566 300.286 353.825C298.254 356.687 297.01 360.033 296.678 363.527H296.666ZM236.152 337.19C238.152 334.313 239.37 330.965 239.689 327.476C238.667 328.895 237.849 330.451 237.26 332.097C236.648 333.741 236.275 335.464 236.152 337.214V337.19ZM257.561 280.378C259.592 277.51 260.836 274.161 261.169 270.664C260.141 272.081 259.319 273.637 258.729 275.285C258.096 276.926 257.703 278.649 257.561 280.401V280.378ZM227.122 409.211H228.536C229.013 407.828 229.311 406.39 229.421 404.931C228.468 406.249 227.695 407.688 227.122 409.211ZM183.183 377.014C184.216 375.6 185.038 374.043 185.624 372.393C186.251 370.762 186.648 369.052 186.802 367.312C184.774 370.176 183.531 373.521 183.195 377.014H183.183ZM210.723 247.957C211.756 246.546 212.575 244.988 213.151 243.336C213.779 241.705 214.176 239.995 214.33 238.255C212.299 241.117 211.055 244.463 210.723 247.957ZM219.966 220.229C223.432 219.638 226.683 218.15 229.397 215.914C227.669 216.187 225.989 216.707 224.41 217.459C222.805 218.167 221.308 219.1 219.966 220.229ZM272.003 339.371C273.73 339.093 275.409 338.573 276.99 337.827C278.593 337.117 280.086 336.18 281.423 335.045C277.959 335.652 274.711 337.142 271.991 339.371H272.003ZM313.148 380.81C316.614 380.219 319.865 378.731 322.579 376.495C319.113 377.087 315.862 378.575 313.148 380.81ZM205.606 391.138C209.072 390.546 212.324 389.059 215.038 386.823C213.31 387.095 211.63 387.615 210.051 388.367C208.446 389.076 206.949 390.008 205.606 391.138ZM209.025 325.425C210.752 325.143 212.431 324.619 214.012 323.868C215.614 323.167 217.103 322.233 218.433 321.098C214.964 321.687 211.711 323.179 209.002 325.425H209.025ZM219.966 269.626C223.432 269.034 226.683 267.547 229.397 265.311C225.931 265.903 222.68 267.39 219.966 269.626ZM287.164 277.879C287.761 281.343 289.247 284.593 291.479 287.31C290.883 283.845 289.396 280.595 287.164 277.879ZM234.337 369.469C234.614 371.196 235.134 372.874 235.881 374.456C236.591 376.056 237.528 377.545 238.663 378.877C238.06 375.412 236.57 372.163 234.337 369.446V369.469ZM201.999 288.63C202.271 290.358 202.791 292.038 203.543 293.617C204.252 295.219 205.184 296.711 206.314 298.05C205.724 294.583 204.236 291.332 201.999 288.619V288.63ZM274.29 374.173C274.887 377.638 276.374 380.888 278.605 383.604C278.333 381.876 277.813 380.197 277.061 378.618C276.352 377.013 275.419 375.516 274.29 374.173ZM315.694 329.904C315.966 331.632 316.487 333.312 317.239 334.891C317.947 336.493 318.88 337.985 320.009 339.324C319.737 337.592 319.216 335.909 318.465 334.325C317.752 332.73 316.819 331.242 315.694 329.904ZM259.365 305.147C259.643 306.874 260.163 308.552 260.91 310.134C261.623 311.733 262.555 313.225 263.68 314.567C263.413 312.834 262.893 311.149 262.136 309.568C261.424 307.983 260.491 306.506 259.365 305.182V305.147ZM238.64 240.554C238.918 242.28 239.437 243.959 240.184 245.541C240.894 247.14 241.831 248.629 242.966 249.962C242.377 246.493 240.885 243.24 238.64 240.53V240.554Z" fill="white"/>
<path d="M274.337 218.142C323.215 254.158 358.595 285.871 359.774 301.845C362.438 337.543 344.448 347.128 340.982 346.338C304.435 337.932 275.222 272.997 256.264 233.892C237.437 195.023 260.343 207.826 274.337 218.142Z" fill="#EB9481"/>
<path d="M343.741 269.472L290.382 305.276C290.382 305.276 262.336 257.47 251.478 228.292C240.62 199.114 252.739 198.819 281.375 219.651C310.012 240.482 343.741 269.472 343.741 269.472Z" fill="#34A1D3"/>
<path d="M272.275 249.336C270.642 248.702 268.927 248.305 267.182 248.157C270.054 250.178 273.401 251.417 276.896 251.753C275.479 250.731 273.923 249.917 272.275 249.336ZM255.888 224.779C255.248 226.41 254.851 228.126 254.709 229.872C256.729 227.001 257.968 223.653 258.305 220.158C257.272 221.574 256.447 223.13 255.853 224.779H255.888ZM330.856 270.451C330.216 272.082 329.819 273.798 329.677 275.544C331.697 272.672 332.936 269.325 333.272 265.829C332.24 267.246 331.414 268.802 330.82 270.451H330.856ZM289.346 225.557C289.122 226.053 288.91 226.548 288.721 227.043C288.087 228.675 287.69 230.391 287.542 232.136C288.568 230.704 289.382 229.132 289.959 227.467C290.1 227.082 290.23 226.689 290.348 226.288L289.346 225.557ZM305.167 256.327C303.568 257.033 302.079 257.966 300.746 259.098C304.212 258.506 307.463 257.019 310.177 254.783C308.429 255.05 306.729 255.57 305.132 256.327H305.167ZM289.971 282.264C289.265 280.661 288.332 279.168 287.2 277.831C287.796 281.296 289.283 284.546 291.515 287.262C291.237 285.545 290.713 283.878 289.959 282.311L289.971 282.264Z" fill="white"/>
<path d="M331.363 261.952C311.062 278.645 290.937 290.152 286.964 292.969C286.776 293.099 286.575 292.781 286.776 292.651C290.831 290.093 312.559 273.564 331.162 261.61C331.374 261.469 331.563 261.787 331.363 261.952Z" fill="#263238"/>
<path d="M293.802 302.919C292.688 303.439 291.605 304.026 290.56 304.675C284.394 294.43 285.55 296.8 279.289 286.602C276.224 281.611 273.159 276.617 270.094 271.618C266.911 266.419 263.999 261.008 260.533 255.962C260.438 255.809 260.238 255.962 260.309 256.103C262.466 261.09 265.248 265.865 267.901 270.64C267.335 269.909 266.805 269.154 266.192 268.459C264.836 266.902 263.504 265.334 262.278 263.672C262.089 263.413 261.665 263.672 261.853 263.931C263.032 265.511 264.081 267.162 265.119 268.836C266.156 270.51 267.312 272.101 268.479 273.693C269.646 275.285 270.837 276.687 272.015 278.149L272.463 278.692C274.161 281.663 275.812 284.669 277.568 287.616C283.746 297.92 289.9 305.925 290.088 305.866C291.445 305.084 292.737 304.197 293.955 303.213C294.12 303.025 293.955 302.836 293.802 302.919Z" fill="#263238"/>
<path d="M335.371 342.872C329.016 328.018 323.511 307.669 346.276 247.839C349.423 239.586 413.84 246.059 410.94 255.077C407.273 266.431 390.591 309.709 388.965 312.715C375.313 338.109 339.674 352.952 335.371 342.872Z" fill="#EB9481"/>
<path d="M331.314 330.73C330.866 325.884 330.772 321.051 330.796 316.217C330.796 313.859 330.89 311.395 330.996 308.99C331.102 306.585 331.421 304.275 331.751 301.834C332.458 297.119 333.33 292.309 334.285 287.557C335.24 282.806 336.254 278.067 337.504 273.41C335.701 277.939 334.201 282.583 333.012 287.31C331.833 292.026 330.784 296.741 330.041 301.634C329.631 304.059 329.375 306.509 329.275 308.967C329.169 311.407 329.204 313.859 329.275 316.3C329.454 321.167 330.138 326.003 331.314 330.73Z" fill="#263238"/>
<path d="M359.963 223.27C350.449 231.405 343.328 255.219 343.328 255.219L404.974 271.724C404.974 271.724 413.427 253.333 421.844 246.637C424.297 244.691 436.675 233.987 449.36 224.367C463.743 213.462 477.442 200.175 477.831 198.03C478.574 193.903 472.397 190.626 460.973 195.672C449.549 200.718 428.989 214.499 427.539 214.935C427.037 215.041 426.529 215.112 426.018 215.148C425.358 215.018 412.177 203.146 404.326 204.82C396.474 206.494 361.118 221.29 359.963 223.27Z" fill="#EB9481"/>
<path d="M410.668 232.429C410.668 232.429 440.483 226.334 444.857 221.736C449.231 217.138 479.6 193.572 480.425 189.457C481.25 185.343 474.99 182.053 463.566 187.099C452.143 192.145 431.594 205.88 430.132 206.375C428.67 206.87 401.897 207.907 399.48 208.733C397.063 209.558 410.668 232.429 410.668 232.429Z" fill="#EB9481"/>
<path d="M427.893 231.371C430.934 230.003 433.917 228.506 436.9 227.02C438.385 226.254 439.859 225.476 441.321 224.662C442.051 224.25 442.782 223.849 443.502 223.401C443.867 223.201 444.221 222.953 444.586 222.717C444.95 222.465 445.296 222.19 445.624 221.892C450.705 217.636 455.798 213.321 460.855 208.995C465.913 204.668 470.923 200.329 475.875 195.802C477.13 194.623 478.235 193.292 479.164 191.841C479.634 191.108 480.003 190.315 480.26 189.483C480.56 188.592 480.56 187.628 480.26 186.736C480.073 186.307 479.803 185.92 479.465 185.596C479.127 185.272 478.728 185.019 478.292 184.85C477.482 184.535 476.625 184.359 475.757 184.331C474.074 184.271 472.391 184.449 470.758 184.862C472.4 184.642 474.063 184.622 475.71 184.803C476.504 184.892 477.277 185.116 477.997 185.463C478.331 185.615 478.632 185.833 478.879 186.105C479.126 186.376 479.315 186.696 479.435 187.043C479.86 188.411 479.117 189.99 478.256 191.275C477.309 192.577 476.213 193.764 474.991 194.812C469.898 199.021 464.781 203.336 459.735 207.662C454.69 211.989 449.655 216.363 444.751 220.913C443.526 221.976 442.199 222.916 440.79 223.719C439.387 224.603 437.949 225.441 436.522 226.289L427.893 231.371Z" fill="#263238"/>
<path d="M404.797 228.86C404.797 228.86 437.442 222.046 441.804 217.46C446.166 212.874 476.535 189.284 477.372 185.181C478.209 181.078 471.925 177.766 460.513 182.823C449.101 187.881 428.529 201.592 427.067 202.099C425.605 202.606 399.869 206.284 397.429 207.121C394.989 207.958 404.797 228.86 404.797 228.86Z" fill="#EB9481"/>
<path d="M421.891 229.886C425.533 228.035 429.106 226.043 432.69 223.991C434.458 222.966 436.226 221.928 437.959 220.844C438.832 220.313 439.704 219.759 440.565 219.17C441.428 218.581 442.251 217.935 443.029 217.236C449.222 211.931 455.392 206.583 461.538 201.191L470.698 193.045L472.973 190.981C473.766 190.291 474.515 189.551 475.213 188.765C475.93 187.95 476.54 187.046 477.029 186.077C477.594 185.041 477.809 183.85 477.642 182.682C477.52 182.046 477.207 181.462 476.746 181.008C476.311 180.596 475.792 180.282 475.225 180.088C474.182 179.753 473.09 179.597 471.995 179.628C469.913 179.686 467.845 179.978 465.829 180.501C461.83 181.504 458.037 183.196 454.618 185.499C458.169 183.507 462.018 182.102 466.018 181.338C467.979 180.925 469.979 180.719 471.983 180.725C472.937 180.731 473.882 180.903 474.777 181.232C475.163 181.346 475.511 181.563 475.783 181.86C476.056 182.157 476.242 182.523 476.322 182.918C476.39 183.793 476.179 184.668 475.72 185.417C475.261 186.266 474.703 187.057 474.058 187.775C472.761 189.178 471.111 190.475 469.602 191.83L460.371 199.882C454.24 205.282 448.11 210.681 442.086 216.21C441.373 216.91 440.612 217.56 439.81 218.156C439.009 218.745 438.172 219.335 437.335 219.9C435.649 221.079 433.939 222.152 432.218 223.249L421.891 229.886Z" fill="#263238"/>
<path d="M405.246 229.826C405.246 229.826 432.208 217.283 436.264 213.003C440.319 208.724 462.07 193.928 462.848 190.108C463.626 186.289 457.779 183.212 447.145 187.916C436.511 192.62 423.908 198.243 422.553 198.715C421.197 199.186 399.705 206.342 397.43 207.12C395.154 207.898 405.246 229.826 405.246 229.826Z" fill="#EB9481"/>
<path d="M413.463 228.706C418.085 226.195 422.671 223.601 427.257 221.031C429.615 219.746 431.831 218.437 434.106 217.105L435.816 216.103C436.398 215.746 436.957 215.352 437.49 214.924C438.563 214.122 439.576 213.297 440.602 212.448C444.646 209.065 448.619 205.599 452.462 201.991C454.384 200.199 456.294 198.372 458.168 196.509C459.099 195.578 460.031 194.635 460.939 193.656C461.898 192.679 462.774 191.622 463.556 190.497C463.798 190.131 463.966 189.72 464.049 189.289C464.132 188.859 464.128 188.415 464.039 187.986C463.793 187.141 463.231 186.424 462.471 185.981C461.209 185.266 459.804 184.84 458.357 184.732C455.591 184.43 452.794 184.81 450.21 185.84C445.306 187.844 440.496 189.943 435.662 192.029C430.829 194.116 425.96 196.262 421.268 198.396C418.851 199.35 416.363 200.246 413.9 201.142C411.436 202.038 408.972 203.017 406.531 204.031C411.671 202.781 416.717 201.366 421.787 199.798L436.311 193.538C441.144 191.487 446.002 189.412 450.859 187.479C453.18 186.55 455.691 186.19 458.18 186.429C459.365 186.511 460.518 186.844 461.563 187.408C461.772 187.492 461.958 187.624 462.106 187.794C462.254 187.963 462.361 188.164 462.417 188.382C462.473 188.6 462.478 188.828 462.43 189.048C462.382 189.268 462.283 189.473 462.141 189.648C461.426 190.674 460.638 191.647 459.783 192.56C458.911 193.515 457.991 194.458 457.072 195.389C455.244 197.252 453.358 199.079 451.448 200.883C447.629 204.479 443.821 208.098 439.859 211.493C438.869 212.354 437.879 213.203 436.853 214.016C435.825 214.8 434.75 215.521 433.635 216.174L426.915 220.312L413.463 228.706Z" fill="#263238"/>
<path d="M141.062 352.269C148.135 337.78 154.749 317.75 135.167 256.776C132.455 248.347 67.7915 251.447 70.22 260.596C73.2734 272.137 87.6445 316.229 89.0828 319.318C101.414 345.36 136.228 362.101 141.062 352.269Z" fill="#EB9481"/>
<path d="M145.741 340.361C147.156 335.684 148.077 330.871 148.488 326.002C148.7 323.573 148.877 321.133 148.9 318.681C148.923 316.223 148.797 313.766 148.523 311.324C148.029 306.467 147.285 301.639 146.295 296.859C145.364 292.065 144.116 287.339 142.558 282.712C143.548 287.427 144.302 292.261 145.022 297.047C145.741 301.834 146.342 306.644 146.79 311.454C147.002 313.812 147.191 316.252 147.179 318.633C147.167 321.015 147.108 323.455 146.99 325.86C146.802 330.717 146.436 335.539 145.741 340.361Z" fill="#263238"/>
<path d="M126.266 230.591C134.047 240.435 136.699 261.655 136.699 261.655L72.7898 269.507C72.7898 269.507 68.0033 249.842 61.0005 241.661C58.9728 239.303 48.8576 226.417 38.2591 214.545C26.2223 201.082 15.3173 185.426 15.3526 183.245C15.4116 179.06 22.0961 177.02 32.3409 184.165C42.5858 191.309 60.1517 208.71 61.4721 209.476C61.947 209.676 62.4355 209.841 62.934 209.971C63.6178 209.971 78.8259 200.835 86.2059 203.982C93.586 207.13 125.523 228.433 126.266 230.591Z" fill="#EB9481"/>
<path d="M74.746 229.883C74.746 229.883 46.6522 218.2 43.2569 212.847C39.8616 207.495 14.5502 178.564 14.5148 174.414C14.4794 170.265 21.27 168.178 31.5149 175.322C41.7597 182.466 59.3139 199.867 60.6461 200.645C61.9782 201.424 88.0678 207.542 90.296 208.839C92.5241 210.136 74.746 229.883 74.746 229.883Z" fill="#EB9481"/>
<path d="M57.9928 225.546C55.2695 223.613 52.6405 221.573 49.9879 219.545C48.6793 218.52 47.3825 217.459 46.0975 216.386C45.4609 215.844 44.8242 215.301 44.1994 214.735C43.8811 214.464 43.5746 214.146 43.2681 213.851C42.963 213.533 42.6757 213.199 42.4075 212.849C38.2341 207.697 34.0607 202.486 29.9227 197.276C25.7846 192.065 21.6702 186.83 17.6972 181.443C16.7124 180.043 15.8972 178.531 15.2686 176.939C14.9444 176.12 14.738 175.258 14.6556 174.381C14.5367 173.446 14.7271 172.498 15.1979 171.681C15.471 171.289 15.8207 170.956 16.2259 170.703C16.6312 170.45 17.0836 170.281 17.5557 170.208C18.4101 170.06 19.2833 170.06 20.1376 170.208C21.7976 170.474 23.4125 170.97 24.9358 171.681C23.3659 171.157 21.7394 170.821 20.0904 170.679C19.2981 170.613 18.5003 170.685 17.7326 170.891C17.3745 170.972 17.0375 171.128 16.743 171.347C16.4486 171.566 16.2034 171.845 16.0231 172.165C15.3394 173.426 15.7638 175.124 16.3886 176.55C17.0291 178.005 17.8404 179.378 18.8054 180.641C22.9906 185.746 27.1876 190.968 31.3138 196.179C35.44 201.39 39.5663 206.636 43.4921 212.048C44.4842 213.334 45.6018 214.519 46.8284 215.584C48.0073 216.763 49.2924 217.812 50.5302 218.921L57.9928 225.546Z" fill="#263238"/>
<path d="M81.1947 227.468C81.1947 227.468 50.4484 214.5 47.006 209.195C43.5635 203.89 18.2992 174.9 18.2638 170.715C18.2284 166.53 25.019 164.478 35.2639 171.623C45.5087 178.767 63.0629 196.168 64.3951 196.934C65.7273 197.7 90.3314 206.248 92.536 207.544C94.7406 208.841 81.1947 227.468 81.1947 227.468Z" fill="#EB9481"/>
<path d="M64.2182 225.239C60.9879 222.716 57.8638 220.087 54.7868 217.446C53.2424 216.103 51.7098 214.747 50.2126 213.356C49.4581 212.648 48.7035 211.941 47.9726 211.21C47.2383 210.469 46.5531 209.682 45.9213 208.852C40.8676 202.455 35.8376 196.021 30.8311 189.553L23.3921 179.815L21.5529 177.351C20.9058 176.523 20.315 175.653 19.7846 174.746C19.2338 173.81 18.8059 172.808 18.5113 171.763C18.1408 170.642 18.1408 169.431 18.5113 168.309C18.7507 167.712 19.1608 167.2 19.6902 166.835C20.1993 166.516 20.7696 166.307 21.3643 166.222C22.4465 166.092 23.543 166.148 24.6063 166.387C26.6413 166.845 28.6186 167.529 30.501 168.427C34.2338 170.185 37.6326 172.578 40.5454 175.5C37.4447 172.866 33.937 170.751 30.1591 169.24C28.3128 168.456 26.3881 167.871 24.4177 167.495C23.4778 167.331 22.5165 167.331 21.5765 167.495C21.1744 167.534 20.7906 167.682 20.4665 167.923C20.1423 168.164 19.8902 168.489 19.7374 168.863C19.5093 169.706 19.5464 170.6 19.8435 171.421C20.1392 172.331 20.5346 173.204 21.0224 174.027C22.0245 175.654 23.3803 177.245 24.6299 178.86L32.1397 188.539C37.1265 195.012 42.1134 201.507 46.9705 208.062C47.5318 208.89 48.1503 209.678 48.8214 210.42C49.5052 211.163 50.2126 211.894 50.9317 212.613C52.3582 214.051 53.8319 215.466 55.3055 216.881L64.2182 225.239Z" fill="#263238"/>
<path d="M80.571 228.363C80.571 228.363 56.4974 210.891 53.3378 205.963C50.1783 201.035 31.6574 182.267 31.6339 178.365C31.6103 174.463 37.9175 172.553 47.455 179.214C56.9925 185.875 68.322 193.797 69.5009 194.516C70.6798 195.235 90.4857 206.305 92.5606 207.567C94.6355 208.828 80.571 228.363 80.571 228.363Z" fill="#EB9481"/>
<path d="M72.7188 225.699C68.6515 222.339 64.6549 218.92 60.6466 215.513C58.6424 213.815 56.65 212.098 54.6694 210.361L53.184 209.041C52.6997 208.593 52.243 208.117 51.8165 207.614C50.9205 206.624 50.0834 205.61 49.2464 204.584C45.9218 200.494 42.6798 196.332 39.6028 192.052C38.0584 189.919 36.5258 187.761 35.0522 185.58C34.3094 184.484 33.5785 183.376 32.8712 182.244C32.1159 181.1 31.4611 179.893 30.9141 178.636C30.7446 178.231 30.6572 177.796 30.6572 177.357C30.6572 176.918 30.7446 176.483 30.9141 176.078C31.3052 175.31 31.9698 174.717 32.7768 174.416C34.1537 173.957 35.6142 173.804 37.0563 173.968C39.8268 174.207 42.4974 175.118 44.8372 176.62C49.27 179.521 53.5848 182.515 57.9351 185.486C62.2853 188.457 66.6473 191.487 70.9032 194.481C73.096 195.884 75.3713 197.228 77.6113 198.596C79.8512 199.963 82.0912 201.366 84.284 202.828C79.4858 200.623 74.8526 198.277 70.1369 195.754L57.0745 186.83C52.7124 183.894 48.3504 180.935 43.953 178.094C41.8454 176.759 39.4477 175.95 36.962 175.736C35.7757 175.577 34.5688 175.677 33.4252 176.031C33.205 176.075 32.9981 176.169 32.821 176.307C32.6438 176.445 32.5015 176.622 32.4052 176.825C32.309 177.028 32.2615 177.25 32.2667 177.475C32.2718 177.699 32.3295 177.919 32.4349 178.118C32.9449 179.271 33.544 180.382 34.2269 181.442C34.9107 182.55 35.618 183.647 36.349 184.731C37.7873 186.912 39.2963 189.07 40.8171 191.204C43.8705 195.471 46.9239 199.751 50.1542 203.889C50.9558 204.915 51.7693 205.94 52.6181 206.931C53.475 207.881 54.3883 208.778 55.3532 209.618L61.1535 214.971L72.7188 225.699Z" fill="#263238"/>
<path d="M257.951 214.085C253.446 222.419 246.858 229.442 238.829 234.469C234.992 237.004 230.583 238.544 226.002 238.949C223.619 239.193 221.22 238.686 219.141 237.498C217.211 236.097 215.676 234.221 214.684 232.052C213.5 229.589 212.678 226.969 212.244 224.271C211.725 221.215 211.417 218.127 211.324 215.028C211.324 214.91 211.147 214.934 211.147 215.028C211.242 217.964 211.089 220.923 211.395 223.823C211.611 226.401 212.158 228.941 213.022 231.38C213.851 233.688 215.161 235.794 216.865 237.557C218.657 239.29 221.014 240.32 223.503 240.458C228.383 240.694 233.226 239.489 237.426 236.992C241.677 234.627 245.535 231.616 248.861 228.067C252.701 223.971 255.854 219.281 258.198 214.179C258.213 214.162 258.224 214.142 258.23 214.119C258.235 214.097 258.235 214.074 258.23 214.052C258.224 214.03 258.213 214.009 258.198 213.992C258.183 213.975 258.164 213.962 258.143 213.954C258.121 213.945 258.098 213.943 258.075 213.945C258.053 213.948 258.031 213.956 258.012 213.969C257.993 213.982 257.978 213.999 257.967 214.02C257.957 214.04 257.951 214.062 257.951 214.085Z" fill="#263238"/>
<path d="M221.971 232.444C231.049 234.979 247.342 221.61 254.014 210.504C254.462 209.738 253.602 201.497 253.024 191.417C252.706 185.299 252.482 178.449 252.729 172.248C252.788 170.975 213.247 180.182 213.247 180.182C213.247 180.182 216.572 193.398 216.065 204.268C216.023 205.127 215.897 205.98 215.687 206.814C215.687 206.932 215.687 207.073 215.617 207.238C214.626 212.072 213.2 229.992 221.971 232.444Z" fill="#EB9481"/>
<path d="M219.625 207.601C218.285 207.59 216.948 207.468 215.629 207.236C215.642 207.093 215.666 206.951 215.699 206.811C215.904 205.976 216.027 205.124 216.065 204.265C216.56 193.407 213.247 180.179 213.247 180.179C213.247 180.179 245.349 172.705 251.668 172.151C250.171 179.307 242.708 208.026 219.625 207.601Z" fill="#263238"/>
<path d="M261.665 128.178C264.294 142.443 252.469 181.43 241.623 189.199C225.931 200.446 202.518 199.02 193.535 180.688C184.822 162.909 201.127 112.369 213.01 105.543C230.494 95.4985 257.739 107.099 261.665 128.178Z" fill="#EB9481"/>
<path d="M225.695 146.004C225.695 145.909 225.86 146.204 225.824 146.298C224.869 148.88 224.233 151.993 226.296 153.643C226.367 153.643 226.296 153.82 226.225 153.773C223.49 152.417 224.386 148.303 225.695 146.004Z" fill="#263238"/>
<path d="M228.926 144.06C233.217 145.121 230.765 153.644 226.792 152.654C222.819 151.664 225.319 143.164 228.926 144.06Z" fill="#263238"/>
<path d="M209.792 140.853C209.792 140.747 209.556 140.924 209.521 141.03C208.849 143.694 207.623 146.63 204.994 146.818C204.911 146.818 204.876 146.96 204.994 146.972C207.941 147.396 209.521 143.482 209.792 140.853Z" fill="#263238"/>
<path d="M208.176 137.42C204.026 135.876 201.244 144.293 205.087 145.673C208.931 147.052 211.654 138.717 208.176 137.42Z" fill="#263238"/>
<path d="M232.71 144.764C231.569 144.354 230.452 143.881 229.362 143.35C228.111 143.015 227.005 142.277 226.214 141.251C226.03 140.881 225.974 140.46 226.055 140.054C226.136 139.649 226.35 139.282 226.662 139.011C228.054 137.915 229.798 138.209 231.378 138.822C232.976 139.382 234.308 140.517 235.115 142.006C235.284 142.357 235.345 142.749 235.293 143.135C235.241 143.521 235.076 143.883 234.821 144.176C234.565 144.47 234.229 144.682 233.853 144.786C233.478 144.891 233.081 144.883 232.71 144.764Z" fill="#263238"/>
<path d="M207.8 128.334C209.011 128.446 210.227 128.493 211.443 128.475C212.717 128.702 214.03 128.503 215.18 127.91C215.504 127.651 215.733 127.291 215.831 126.888C215.93 126.485 215.891 126.06 215.722 125.681C214.92 124.102 213.223 123.63 211.549 123.524C209.87 123.356 208.189 123.818 206.833 124.821C206.534 125.065 206.313 125.391 206.196 125.758C206.078 126.126 206.071 126.52 206.173 126.892C206.275 127.264 206.484 127.598 206.772 127.854C207.061 128.11 207.418 128.277 207.8 128.334Z" fill="#263238"/>
<path d="M215.133 172.978C214.377 173.568 213.439 173.876 212.48 173.85C211.522 173.534 210.639 173.025 209.886 172.353C209.816 172.294 209.698 172.353 209.733 172.447C209.959 173.061 210.344 173.603 210.85 174.018C211.356 174.433 211.963 174.704 212.61 174.805C213.182 174.824 213.748 174.675 214.236 174.375C214.725 174.075 215.114 173.638 215.357 173.119C215.439 173.037 215.25 172.919 215.133 172.978Z" fill="#263238"/>
<path d="M217.279 168.403C214.273 166.045 209.793 165.208 206.928 164.736C206.633 164.607 206.527 163.911 206.562 163.557C206.562 163.451 208.402 157.946 208.402 157.946C207.541 158.099 203.25 158.689 203.627 157.651C206.739 148.998 210.205 139.378 215.133 131.432C215.169 131.385 215.22 131.351 215.277 131.337C215.334 131.323 215.395 131.329 215.448 131.353C215.502 131.378 215.545 131.42 215.572 131.473C215.598 131.526 215.606 131.586 215.593 131.644C212.929 140.073 208.802 147.984 205.985 156.401C207.521 156.184 209.081 156.184 210.618 156.401C210.877 156.566 208.366 162.237 208.189 163.168C208.189 163.168 214.084 163.168 217.621 167.247C218.587 168.309 218.705 169.511 217.279 168.403Z" fill="#263238"/>
<path d="M203.897 113.772C215.192 127.459 238.64 118.393 238.64 118.393C238.958 121.81 240.369 125.032 242.666 127.581C244.962 130.13 248.02 131.869 251.384 132.54C251.384 132.54 247.317 157.156 253.601 158.913C263.185 161.601 275.47 129.97 274.291 122.72C273.112 115.47 265.461 111.508 265.461 111.508C265.461 111.508 266.286 106.38 261.665 100.167C256.572 93.2823 232.085 93.5417 232.085 93.5417C231.659 90.1649 230.448 86.9349 228.549 84.1103C228.097 83.4114 227.507 82.8115 226.817 82.3469C226.126 81.8823 225.348 81.5627 224.531 81.4073C223.713 81.2519 222.872 81.264 222.059 81.4429C221.246 81.6218 220.478 81.9637 219.801 82.448C220.497 84.5507 220.706 86.7838 220.414 88.9792C219.542 96.2768 213.848 94.6381 215.698 88.3308C216.31 85.9384 217.762 83.846 219.789 82.4362C218.174 77.4965 213.965 74.8322 210.547 76.2469C204.298 78.8051 194.466 102.395 203.897 113.772Z" fill="#263238"/>
<path d="M254.85 125.396C254.871 125.36 254.899 125.328 254.932 125.303C254.966 125.277 255.003 125.258 255.044 125.247C255.084 125.236 255.127 125.233 255.168 125.239C255.21 125.244 255.25 125.258 255.286 125.279C255.323 125.299 255.355 125.327 255.38 125.361C255.406 125.394 255.425 125.432 255.436 125.472C255.447 125.513 255.45 125.555 255.444 125.597C255.439 125.638 255.425 125.678 255.404 125.715C253.011 130.176 251.155 134.905 249.875 139.803C248.802 144.695 247.883 157.487 255.192 158.088C255.256 158.101 255.313 158.136 255.354 158.186C255.395 158.237 255.418 158.3 255.418 158.365C255.418 158.43 255.395 158.493 255.354 158.544C255.313 158.594 255.256 158.629 255.192 158.642C250.017 159.526 248.555 152.747 248.225 148.291C247.588 140.227 250.877 132.258 254.85 125.396Z" fill="#263238"/>
<path d="M210.97 76.0217V76.1043C201.008 83.2839 195.455 95.9691 199.24 108.1C203.956 123.356 223.431 119.984 235.185 117.437C235.763 117.308 236.034 118.18 235.456 118.321C223.938 121.116 204.333 124.027 198.91 109.833C194.029 97.1834 200.041 83.1424 210.97 76.0217Z" fill="#263238"/>
<path d="M263.397 110.897C272.51 114.598 277.957 120.976 276.023 131.198C274.942 136.33 272.806 141.181 269.749 145.443C266.693 149.705 262.783 153.285 258.269 155.955C258.182 155.994 258.084 156 257.994 155.972C257.903 155.944 257.826 155.884 257.776 155.802C257.727 155.721 257.709 155.625 257.726 155.531C257.743 155.438 257.793 155.354 257.868 155.295C264.399 150.579 269.893 144.885 273.053 137.34C275.41 131.763 276.589 125.126 273.784 119.467C271.791 115.388 267.028 113.184 263.173 111.215C262.996 111.121 263.173 110.814 263.397 110.897Z" fill="#263238"/>
<path d="M228.653 94.7554C242.447 90.9357 267.629 90.7942 265.353 111.343C265.353 111.508 265.047 111.484 265.059 111.343C266.238 90.4287 242.423 93.1403 228.748 95.3449C228.406 95.4274 228.335 94.8379 228.653 94.7554Z" fill="#263238"/>
<path d="M251.266 159.456C251.266 159.456 261.97 147.82 267.37 151.805C272.769 155.79 263.515 173.509 256.323 175.136C255.416 175.4 254.465 175.479 253.527 175.37C252.588 175.26 251.681 174.964 250.859 174.498C250.037 174.032 249.317 173.406 248.741 172.657C248.165 171.908 247.744 171.051 247.505 170.137L251.266 159.456Z" fill="#EB9481"/>
<path d="M264.588 156.815C264.613 156.815 264.637 156.825 264.655 156.843C264.673 156.86 264.682 156.884 264.682 156.909C264.682 156.934 264.673 156.958 264.655 156.976C264.637 156.994 264.613 157.004 264.588 157.004C259.531 158.3 256.406 162.415 253.978 166.789C255.652 165.209 257.727 164.49 259.872 166.518C259.99 166.624 259.872 166.801 259.707 166.753C258.899 166.373 257.993 166.252 257.113 166.406C256.233 166.56 255.422 166.982 254.791 167.614C253.747 168.69 252.822 169.876 252.033 171.151C251.75 171.552 251.007 171.221 251.231 170.75C251.246 170.712 251.266 170.677 251.29 170.644C252.033 164.478 257.939 156.556 264.588 156.815Z" fill="#263238"/>
<path d="M264.022 494.458C263.94 494.941 263.845 495.424 263.751 495.919C263.834 495.436 263.928 494.941 264.01 494.458H264.022Z" fill="#EBEBEB"/>
<path d="M300.073 88.7543C300.075 90.4569 299.572 92.122 298.628 93.5388C297.684 94.9556 296.34 96.0605 294.768 96.7137C293.196 97.3669 291.465 97.539 289.795 97.2083C288.125 96.8775 286.59 96.0588 285.385 94.8557C284.18 93.6526 283.36 92.1191 283.027 90.4494C282.694 88.7796 282.863 87.0486 283.514 85.4753C284.165 83.9021 285.268 82.5573 286.684 81.6111C288.099 80.6649 289.764 80.1599 291.466 80.1599C293.747 80.1599 295.934 81.065 297.548 82.6764C299.161 84.2878 300.069 86.4738 300.073 88.7543Z" fill="white"/>
<path d="M300.073 88.7553C300.075 90.5286 299.546 92.2618 298.556 93.7328C297.566 95.2038 296.159 96.3455 294.515 97.0115C292.872 97.6775 291.067 97.8374 289.332 97.4707C287.597 97.104 286.011 96.2275 284.778 94.9535C283.544 93.6795 282.719 92.0661 282.409 90.3202C282.099 88.5743 282.317 86.7754 283.035 85.1544C283.754 83.5333 284.941 82.1639 286.443 81.2217C287.945 80.2795 289.695 79.8075 291.467 79.8662C293.772 79.9485 295.956 80.9201 297.561 82.5773C299.165 84.2345 300.066 86.4486 300.073 88.7553ZM300.073 88.7553C300.072 86.8414 299.411 84.9864 298.201 83.5036C296.991 82.0208 295.306 81.0011 293.431 80.6166C291.556 80.2322 289.606 80.5066 287.91 81.3935C286.214 82.2804 284.876 83.7255 284.122 85.4846C283.368 87.2438 283.245 89.2092 283.772 91.049C284.3 92.8888 285.446 94.4902 287.017 95.5828C288.589 96.6753 290.489 97.1921 292.397 97.0457C294.306 96.8994 296.105 96.099 297.491 94.7796C298.305 94.0012 298.954 93.0663 299.397 92.0311C299.841 90.9958 300.071 89.8816 300.073 88.7553Z" fill="#263238"/>
<path d="M365.126 42.4581C365.129 50.5522 362.731 58.4653 358.237 65.1971C353.743 71.9289 347.354 77.1771 339.877 80.2784C332.401 83.3796 324.173 84.1946 316.233 82.6204C308.293 81.0462 300.999 77.1534 295.271 71.4341C289.544 65.7148 285.641 58.4258 284.055 50.4885C282.469 42.5512 283.272 34.322 286.363 26.8411C289.453 19.3602 294.692 12.9636 301.418 8.45968C308.143 3.9558 316.053 1.54695 324.147 1.53762C329.525 1.53143 334.852 2.58521 339.823 4.63873C344.793 6.69226 349.311 9.70527 353.117 13.5055C356.922 17.3058 359.942 21.8189 362.003 26.7867C364.063 31.7545 365.125 37.0798 365.126 42.4581Z" fill="white"/>
<path d="M365.127 42.4583C365.139 53.3224 360.85 63.7496 353.196 71.4598C348.413 76.3112 342.504 79.903 335.996 81.9146C329.487 83.9262 322.582 84.2951 315.896 82.9883C309.21 81.6815 302.952 78.7397 297.68 74.4255C292.408 70.1113 288.286 64.5588 285.682 58.2638C283.078 51.9687 282.073 45.1269 282.757 38.349C283.441 31.5711 285.793 25.068 289.602 19.4202C293.411 13.7723 298.56 9.15546 304.587 5.98166C310.615 2.80786 317.335 1.17587 324.147 1.23135C335.052 1.30452 345.482 5.70135 353.149 13.4568C356.945 17.2705 359.952 21.7946 361.999 26.7708C364.046 31.7469 365.093 37.0776 365.079 42.4583H365.127ZM365.127 42.4583C365.125 37.0938 364.062 31.7827 361.997 26.8313C359.933 21.8798 356.909 17.3861 353.099 13.6093C349.29 9.83255 344.77 6.84742 339.801 4.82615C334.832 2.80488 329.512 1.78747 324.147 1.8326C317.494 1.89223 310.958 3.58489 305.112 6.76184C299.267 9.9388 294.291 14.5028 290.622 20.0529C286.953 25.6029 284.703 31.9692 284.07 38.5922C283.437 45.2152 284.44 51.8923 286.992 58.0368C289.543 64.1813 293.565 69.6051 298.703 73.8316C303.841 78.0582 309.939 80.9581 316.46 82.2766C322.981 83.5951 329.727 83.2919 336.103 81.3935C342.48 79.4951 348.293 76.0597 353.031 71.3891C360.714 63.7416 365.047 53.3574 365.079 42.5173L365.127 42.4583Z" fill="#263238"/>
<path d="M280.162 102.936C280.162 103.882 279.881 104.808 279.355 105.595C278.829 106.382 278.082 106.995 277.207 107.358C276.332 107.72 275.37 107.815 274.441 107.63C273.513 107.445 272.66 106.99 271.991 106.32C271.321 105.651 270.866 104.798 270.681 103.869C270.496 102.941 270.591 101.979 270.953 101.104C271.315 100.229 271.929 99.4818 272.716 98.9558C273.503 98.4299 274.429 98.1492 275.375 98.1492C276.645 98.1492 277.862 98.6535 278.76 99.5511C279.657 100.449 280.162 101.666 280.162 102.936Z" fill="white"/>
<path d="M280.161 102.938C280.158 104.234 279.661 105.481 278.773 106.425C277.884 107.368 276.669 107.938 275.375 108.019C274.692 108.052 274.01 107.951 273.367 107.72C272.723 107.49 272.132 107.135 271.626 106.675C271.001 106.102 270.53 105.383 270.254 104.581C269.977 103.78 269.906 102.923 270.045 102.086C270.184 101.25 270.529 100.462 271.05 99.7935C271.57 99.1247 272.249 98.5964 273.026 98.2565C273.802 97.9165 274.651 97.7757 275.496 97.8468C276.34 97.9179 277.154 98.1986 277.862 98.6635C278.571 99.1284 279.152 99.7628 279.554 100.509C279.955 101.256 280.164 102.09 280.161 102.938ZM280.161 102.938C280.163 102.322 280.038 101.713 279.794 101.148C279.55 100.583 279.192 100.074 278.743 99.6529C278.295 99.2317 277.764 98.9073 277.185 98.6997C276.605 98.4921 275.989 98.4059 275.375 98.4462C274.498 98.5015 273.656 98.8121 272.954 99.3398C272.251 99.8675 271.718 100.589 271.42 101.416C271.123 102.243 271.074 103.139 271.279 103.993C271.485 104.848 271.935 105.623 272.576 106.225C273.217 106.826 274.02 107.227 274.886 107.378C275.751 107.528 276.642 107.422 277.449 107.073C278.255 106.724 278.941 106.146 279.423 105.411C279.905 104.676 280.162 103.817 280.161 102.938Z" fill="#263238"/>
<path d="M316.389 50.6283C316.361 48.6809 316.714 46.7467 317.426 44.9341C318.324 43.0305 319.83 41.4794 321.706 40.5249C322.354 40.1359 323.144 39.6879 324.064 39.1928C325.041 38.6823 325.973 38.0866 326.846 37.4126C327.743 36.7379 328.52 35.9169 329.145 34.984C329.777 34.0357 330.106 32.9172 330.088 31.7773C330.097 30.9621 329.92 30.1555 329.569 29.4195C329.238 28.7446 328.771 28.1458 328.196 27.6608C327.622 27.1758 326.953 26.8153 326.233 26.6018C325.489 26.3677 324.714 26.2484 323.934 26.2482C323.046 26.2379 322.165 26.4021 321.34 26.7315C320.592 27.0314 319.887 27.4277 319.242 27.9105C318.62 28.4088 318.054 28.9742 317.556 29.5963C317.101 30.1649 316.68 30.7593 316.294 31.3765L310.659 27.4978C311.2 26.2033 311.953 25.008 312.887 23.9611C313.812 22.9313 314.885 22.0452 316.07 21.3321C317.269 20.6153 318.563 20.0715 319.914 19.7169C321.31 19.3488 322.749 19.1625 324.193 19.1628C325.838 19.1631 327.474 19.4013 329.05 19.8702C330.621 20.3364 332.084 21.1098 333.353 22.1455C334.667 23.233 335.729 24.5926 336.466 26.1303C337.762 29.1031 338.015 32.4267 337.185 35.5617C336.874 36.5893 336.4 37.5605 335.782 38.4382C335.178 39.3147 334.46 40.1075 333.648 40.7961C332.769 41.5292 331.84 42.1989 330.866 42.8003C330.005 43.319 329.133 43.8141 328.272 44.2975C327.44 44.7509 326.65 45.2797 325.914 45.8772C325.219 46.4403 324.625 47.1181 324.158 47.8814C323.689 48.7235 323.457 49.6768 323.486 50.6401L316.389 50.6283ZM316.518 65.7185V56.8059H323.71V65.7421L316.518 65.7185Z" fill="#34A1D3"/>
</svg>
