<svg width="73" height="82" viewBox="0 0 73 82" fill="none" xmlns="http://www.w3.org/2000/svg">
<path d="M41.5181 26.564L34.7836 56.8696C34.6152 57.6441 33.9081 58.1829 33.1336 58.1829C32.9989 58.1829 32.8979 58.1829 32.7632 58.1492C31.854 57.9471 31.2816 57.038 31.4836 56.1288L38.2182 25.8232C38.4202 24.914 39.3294 24.3416 40.2386 24.5436C41.1477 24.7457 41.7202 25.6548 41.5181 26.564ZM26.1296 34.3424C26.8031 33.669 26.8031 32.6251 26.1296 31.9517C25.4562 31.2782 24.4123 31.2782 23.7388 31.9517L17.7451 37.9454C15.792 39.8985 15.792 43.0637 17.7451 45.0168L23.5705 50.8422C23.9072 51.1789 24.345 51.3473 24.749 51.3473C25.1531 51.3473 25.6245 51.1789 25.9276 50.8422C26.601 50.1687 26.601 49.1248 25.9276 48.4514L20.1022 42.626C19.4624 41.9862 19.4624 40.9423 20.1022 40.3025L26.0959 34.3088L26.1296 34.3424ZM49.2629 31.9517C48.5894 31.2782 47.5456 31.2782 46.8721 31.9517C46.1987 32.6251 46.1987 33.669 46.8721 34.3424L52.8659 40.3362C53.5057 40.976 53.5057 42.0199 52.8659 42.6597L47.0405 48.4851C46.367 49.1585 46.367 50.2024 47.0405 50.8758C47.3772 51.2126 47.815 51.3809 48.219 51.3809C48.6231 51.3809 49.0945 51.2126 49.3976 50.8758L55.223 45.0504C57.176 43.0974 57.176 39.9321 55.223 37.9791L49.2292 31.9853L49.2629 31.9517ZM70.9819 62.4593C69.5677 64.7491 67.3452 66.3654 64.7188 67.0052C62.0923 67.6449 59.3984 67.2072 57.075 65.7929L55.5934 64.8838C52.8996 67.0725 49.869 68.7561 46.6027 69.9347V71.652C46.6027 77.208 42.0569 81.7539 36.5009 81.7539C30.9448 81.7539 26.399 77.208 26.399 71.652V69.9347C23.1327 68.7898 20.1022 67.1062 17.4083 64.8838L15.9267 65.7929C13.637 67.2072 10.9095 67.6449 8.28298 67.0052C5.65649 66.3654 3.43408 64.7491 2.01982 62.4593C-0.876052 57.7114 0.605556 51.4819 5.35343 48.5524L6.83504 47.6432C6.39729 45.5892 6.16158 43.4678 6.16158 41.3127C6.16158 39.1577 6.39729 37.0699 6.83504 34.9822L5.35343 34.0731C0.605556 31.1772 -0.876052 24.9477 2.01982 20.1662C3.43408 17.8764 5.65649 16.2601 8.28298 15.6203C10.9095 14.9805 13.6033 15.4183 15.9267 16.8325L17.4083 17.7417C20.1022 15.553 23.1327 13.8693 26.399 12.6908V10.9735C26.399 5.41742 30.9448 0.871582 36.5009 0.871582C42.0569 0.871582 46.6027 5.41742 46.6027 10.9735V12.6908C49.869 13.8356 52.8996 15.5193 55.5934 17.7417L57.075 16.8325C59.3648 15.4183 62.0923 15.0142 64.7188 15.6203C67.3452 16.2601 69.5677 17.8764 70.9819 20.1662C73.8778 24.914 72.3962 31.1435 67.6483 34.0731L66.1667 34.9822C66.6044 37.0363 66.8401 39.1577 66.8401 41.3127C66.8401 43.4678 66.6044 45.5555 66.1667 47.6432L67.6483 48.5524C72.3962 51.4483 73.8778 57.6778 70.9819 62.4593ZM65.8973 51.4483L63.3718 49.8993C62.7321 49.5289 62.429 48.7544 62.631 48.0473C63.2035 45.8586 63.4729 43.6025 63.4729 41.3464C63.4729 39.0903 63.2035 36.8342 62.631 34.6455C62.4627 33.9384 62.7657 33.1639 63.3718 32.7935L65.8973 31.2445C69.0626 29.2915 70.0727 25.1497 68.1197 21.9845C66.1667 18.8192 62.0249 17.809 58.8597 19.7621L56.3342 21.311C55.6944 21.6814 54.8863 21.6141 54.3475 21.1427C51.4516 18.5835 48.118 16.7315 44.4477 15.5866C43.7405 15.3846 43.2691 14.7111 43.2691 13.9703V11.0408C43.2691 7.33678 40.2386 4.30622 36.5345 4.30622C32.8305 4.30622 29.8 7.33678 29.8 11.0408V13.9703C29.8 14.7111 29.3285 15.3509 28.6214 15.5866C24.9511 16.6978 21.6174 18.5835 18.7216 21.1427C18.1828 21.6478 17.3747 21.7151 16.7349 21.311L14.2094 19.7621C11.0442 17.809 6.90239 18.8192 4.94936 21.9845C2.99633 25.1497 4.00652 29.2915 7.17177 31.2445L9.69724 32.7935C10.337 33.1639 10.6401 33.9384 10.438 34.6455C9.8656 36.8342 9.59622 39.0903 9.59622 41.3464C9.59622 43.6025 9.8656 45.8586 10.438 48.0473C10.6064 48.7544 10.3034 49.5289 9.69724 49.8993L7.17177 51.4483C4.00652 53.4013 2.99633 57.5431 4.94936 60.7083C6.90239 63.8736 11.0442 64.8838 14.2094 62.9307L16.7349 61.3818C17.0043 61.2134 17.3073 61.1461 17.6104 61.1461C18.0144 61.1461 18.4185 61.2808 18.7216 61.5501C21.6174 64.1093 24.9511 65.9613 28.6214 67.1062C29.3285 67.3082 29.8 67.9817 29.8 68.7225V71.652C29.8 75.356 32.8305 78.3866 36.5345 78.3866C40.2386 78.3866 43.2691 75.356 43.2691 71.652V68.7225C43.2691 67.9817 43.7405 67.3419 44.4477 67.1062C48.118 65.995 51.4516 64.1093 54.3475 61.5501C54.9199 61.0451 55.7281 60.9777 56.3342 61.3818L58.8597 62.9307C62.0249 64.8838 66.1667 63.8736 68.1197 60.7083C70.0727 57.5431 69.0626 53.4013 65.8973 51.4483Z" fill="#323F49"/>
</svg>
