<svg width="83" height="83" viewBox="0 0 83 83" fill="none" xmlns="http://www.w3.org/2000/svg">
<g clip-path="url(#clip0_618_211)">
<path d="M40.9992 31.5281C44.7136 31.5281 47.7342 28.5074 47.7342 24.7931C47.7342 21.0787 44.7136 18.0581 40.9992 18.0581C37.2849 18.0581 34.2643 21.0787 34.2643 24.7931C34.2643 28.5074 37.2849 31.5281 40.9992 31.5281ZM40.9992 21.4256C42.8547 21.4256 44.3667 22.9376 44.3667 24.7931C44.3667 26.6486 42.8547 28.1606 40.9992 28.1606C39.1438 28.1606 37.6318 26.6486 37.6318 24.7931C37.6318 22.9376 39.1438 21.4256 40.9992 21.4256ZM20.1174 32.8481C19.7739 34.1547 19.9625 35.5152 20.6428 36.677C21.323 37.8421 22.4141 38.6739 23.7206 39.0174C25.0239 39.3575 26.3877 39.1756 27.5495 38.492L29.708 37.2326C31.5164 38.8793 33.6379 40.1017 35.948 40.8291V43.3143C35.948 46.0992 38.2143 48.3655 40.9992 48.3655C43.7842 48.3655 46.0505 46.0992 46.0505 43.3143V40.8291C48.3639 40.0983 50.4821 38.8759 52.2904 37.2326L54.4456 38.492C55.6108 39.1756 56.9713 39.3575 58.2778 39.0174C59.5844 38.6739 60.6755 37.8421 61.3557 36.6803C62.036 35.5152 62.2212 34.1547 61.8811 32.8515C61.5409 31.5483 60.7058 30.4505 59.5406 29.7702L57.3652 28.5007C57.6818 27.2042 57.8367 25.9852 57.8367 24.7965C57.8367 23.6077 57.6818 22.3887 57.3652 21.0888L59.5406 19.8193C60.7058 19.1391 61.5376 18.0446 61.8811 16.738C62.2245 15.4315 62.036 14.071 61.3557 12.9092C60.6755 11.7441 59.5844 10.9123 58.2778 10.5688C56.9679 10.2287 55.6108 10.4105 54.4456 11.0908L52.2871 12.3502C50.4787 10.7069 48.3572 9.48111 46.0471 8.75373V6.26852C46.0471 3.48361 43.7808 1.21729 40.9959 1.21729C38.211 1.21729 35.9446 3.48361 35.9446 6.26852V8.75373C33.6312 9.48111 31.513 10.7069 29.7047 12.3502L27.5461 11.0908C26.381 10.4105 25.0205 10.2287 23.7139 10.5688C22.4107 10.9123 21.3163 11.7441 20.636 12.9058C19.9558 14.071 19.7706 15.4315 20.1107 16.7347C20.4508 18.0379 21.286 19.1357 22.4511 19.8159L24.6265 21.0855C24.31 22.382 24.1551 23.6044 24.1551 24.7931C24.1551 25.9818 24.31 27.2008 24.6265 28.4973L22.4511 29.7669C21.286 30.4471 20.4542 31.5415 20.1107 32.8481H20.1174ZM23.3738 33.7035C23.4883 33.2691 23.7644 32.902 24.1517 32.6764L27.4485 30.7502C28.1287 30.3528 28.4419 29.5412 28.2061 28.7903C27.7414 27.312 27.5259 26.0391 27.5259 24.7897C27.5259 23.5404 27.7414 22.2708 28.2061 20.7891C28.4419 20.0382 28.1287 19.2266 27.4485 18.8326L24.1517 16.9098C23.7644 16.6842 23.4849 16.3171 23.3738 15.8827C23.2593 15.4483 23.3199 14.9971 23.5489 14.6064C23.7745 14.2192 24.1416 13.9397 24.576 13.8285C25.007 13.7107 25.4616 13.7747 25.8523 14.0003L29.1221 15.9096C29.799 16.307 30.6644 16.1824 31.1998 15.6099C33.0486 13.6366 35.4058 12.2795 38.0055 11.6868C38.7733 11.5117 39.3155 10.8315 39.3155 10.0468V6.27526C39.3155 5.34583 40.0698 4.59151 40.9992 4.59151C41.9287 4.59151 42.683 5.34583 42.683 6.27526V10.0468C42.683 10.8315 43.2252 11.5151 43.9929 11.6868C46.596 12.2795 48.9499 13.6366 50.7986 15.6099C51.3374 16.1824 52.1995 16.307 52.8764 15.9096L56.1462 14.0003C56.5368 13.7747 56.9881 13.7107 57.4225 13.8285C57.8569 13.943 58.2206 14.2192 58.4496 14.6098C58.6752 14.9971 58.7392 15.4517 58.6247 15.8827C58.5102 16.3171 58.2341 16.6842 57.8468 16.9098L54.55 18.8326C53.8698 19.2266 53.5566 20.0382 53.7923 20.7891C54.257 22.2708 54.4726 23.5437 54.4726 24.7897C54.4726 26.0357 54.257 27.3086 53.7923 28.7903C53.5566 29.5412 53.8698 30.3528 54.55 30.7502L57.8468 32.6764C58.2341 32.902 58.5136 33.2691 58.6247 33.7035C58.7392 34.1379 58.6786 34.5891 58.4496 34.9797C58.224 35.367 57.8569 35.6465 57.4225 35.7576C56.9881 35.8721 56.5301 35.8081 56.1462 35.5825L52.8764 33.6732C52.1995 33.2792 51.3374 33.4004 50.7986 33.9762C48.9499 35.9496 46.5926 37.3067 43.9929 37.8994C43.2252 38.0745 42.683 38.7547 42.683 39.5393V43.3109C42.683 44.2403 41.9287 44.9947 40.9992 44.9947C40.0698 44.9947 39.3155 44.2403 39.3155 43.3109V39.5393C39.3155 38.7547 38.7733 38.0711 38.0055 37.8994C35.4025 37.3067 33.0486 35.9496 31.1998 33.9762C30.8732 33.626 30.4253 33.4442 29.9707 33.4442C29.6811 33.4442 29.3881 33.5183 29.1221 33.6732L25.8523 35.5825C25.465 35.8081 25.0138 35.8721 24.576 35.7576C24.1416 35.6431 23.7779 35.367 23.5489 34.9764C23.3233 34.5891 23.2593 34.1345 23.3738 33.7035ZM71.3033 55.1005H10.6918C5.122 55.1005 0.589355 59.6331 0.589355 65.203V71.938C0.589355 77.5078 5.122 82.0404 10.6918 82.0404H71.3067C76.8765 82.0404 81.4091 77.5078 81.4091 71.938V65.203C81.4091 59.6331 76.8731 55.1005 71.3033 55.1005ZM3.95685 71.938V65.203C3.95685 61.4886 6.97748 58.468 10.6918 58.468H51.1017V78.6729H10.6918C6.97748 78.6729 3.95685 75.6523 3.95685 71.938ZM78.0416 71.938C78.0416 75.6523 75.021 78.6729 71.3067 78.6729H54.4692V58.468H71.3067C75.021 58.468 78.0416 61.4886 78.0416 65.203V71.938Z" fill="#323F49"/>
</g>
<defs>
<clipPath id="clip0_618_211">
<rect width="82" height="82" fill="white" transform="translate(0.261719 0.866699)"/>
</clipPath>
</defs>
</svg>
