<svg width="45" height="38" viewBox="0 0 45 38" fill="none" xmlns="http://www.w3.org/2000/svg">
<path fill-rule="evenodd" clip-rule="evenodd" d="M16.2083 0.832954C6.79581 6.87795 1.56706 13.913 0.520813 21.9417C-1.10794 34.438 10.0671 40.5542 15.7296 35.0592C21.3921 29.563 17.9983 22.588 13.8983 20.6805C9.79831 18.7742 7.29081 19.438 7.72831 16.8892C8.16581 14.3417 13.9983 7.2767 19.1233 3.9867C19.3049 3.83227 19.4208 3.61437 19.4473 3.37745C19.4737 3.14052 19.4089 2.90242 19.2658 2.7117L17.9983 1.06295C17.4483 0.347954 16.9208 0.375453 16.2083 0.831703V0.832954ZM40.9908 0.832954C31.5783 6.87795 26.3483 13.9142 25.3033 21.9417C23.6746 34.438 34.8496 40.5542 40.5121 35.0592C46.1746 29.563 42.7808 22.588 38.6796 20.6805C34.5796 18.7742 32.0721 19.438 32.5096 16.8892C32.9471 14.3417 38.7808 7.2767 43.9058 3.9867C44.0872 3.8321 44.2029 3.61411 44.2291 3.3772C44.2554 3.14028 44.1902 2.90227 44.0471 2.7117L42.7796 1.06295C42.2296 0.347954 41.7021 0.375453 40.9908 0.831703V0.832954Z" fill="#57B2E4"/>
</svg>
