<?xml version="1.0" encoding="UTF-8"?>
<!DOCTYPE svg PUBLIC "-//W3C//DTD SVG 1.1//EN" "http://www.w3.org/Graphics/SVG/1.1/DTD/svg11.dtd">
<svg xmlns="http://www.w3.org/2000/svg" version="1.1" width="220px" height="220px" style="shape-rendering:geometricPrecision; text-rendering:geometricPrecision; image-rendering:optimizeQuality; fill-rule:evenodd; clip-rule:evenodd" xmlns:xlink="http://www.w3.org/1999/xlink">
<g><path style="opacity:1" fill="#fbfbfb" d="M -0.5,-0.5 C 72.8333,-0.5 146.167,-0.5 219.5,-0.5C 219.5,49.1667 219.5,98.8333 219.5,148.5C 218.167,148.5 216.833,148.5 215.5,148.5C 215.899,144.012 216.233,139.512 216.5,135C 216.714,131.431 216.047,128.098 214.5,125C 204.466,120.518 194.466,120.351 184.5,124.5C 183.5,125.833 182.5,127.167 181.5,128.5C 178.065,129.192 176.065,131.192 175.5,134.5C 183.327,135.196 191.327,135.196 199.5,134.5C 201.144,134.286 202.644,134.62 204,135.5C 204.801,138.367 204.634,141.034 203.5,143.5C 198.053,147.717 196.72,146.717 199.5,140.5C 194.86,139.603 190.194,139.436 185.5,140C 182.786,141.794 179.786,142.96 176.5,143.5C 176.137,144.183 175.804,144.85 175.5,145.5C 170.833,146.5 166.167,147.5 161.5,148.5C 161.5,147.5 161.5,146.5 161.5,145.5C 158.15,145.335 154.817,145.502 151.5,146C 151.5,147 151.5,148 151.5,149C 145.056,149.915 138.723,149.581 132.5,148C 132.833,147.667 133.167,147.333 133.5,147C 115.868,145.237 98.2017,145.07 80.5,146.5C 96.1221,148.748 111.789,149.081 127.5,147.5C 127.5,148.833 127.5,150.167 127.5,151.5C 134.5,151.5 141.5,151.5 148.5,151.5C 120.138,157.418 91.8047,156.751 63.5,149.5C 66.7848,148.676 70.1182,148.176 73.5,148C 71.8302,146.025 69.6636,145.191 67,145.5C 63.8573,145.951 61.024,146.951 58.5,148.5C 57.5,148.333 56.5,148.167 55.5,148C 55.8333,147.667 56.1667,147.333 56.5,147C 53.5184,146.502 50.5184,146.335 47.5,146.5C 44.3273,145.958 41.3273,144.958 38.5,143.5C 36.8554,139.668 33.8554,137.835 29.5,138C 32.0571,136.881 34.5571,136.715 37,137.5C 37.1667,137.167 37.3333,136.833 37.5,136.5C 36.3349,135.416 35.0016,134.583 33.5,134C 34,133.833 34.5,133.667 35,133.5C 37.0466,134.609 39.2133,135.276 41.5,135.5C 41.719,134.325 41.3857,133.325 40.5,132.5C 35.9863,129.365 31.9863,129.865 28.5,134C 29.1667,134.667 29.8333,135.333 30.5,136C 27.208,136.936 24.208,136.436 21.5,134.5C 21.7093,133.914 22.0426,133.414 22.5,133C 16.9395,132.449 11.9395,130.449 7.5,127C 5.5273,126.505 3.5273,126.338 1.5,126.5C 1.66212,128.527 1.49546,130.527 1,132.5C 0.617425,133.056 0.117425,133.389 -0.5,133.5C -0.5,88.8333 -0.5,44.1667 -0.5,-0.5 Z"/></g>
<g><path style="opacity:1" fill="#232d3b" d="M 69.5,47.5 C 73.4367,47.2065 77.27,47.5399 81,48.5C 85.3382,64.5064 89.6715,80.5064 94,96.5C 97.6677,80.8309 101.334,65.1642 105,49.5C 105.5,49 106,48.5 106.5,48C 110.167,47.3333 113.833,47.3333 117.5,48C 122.054,64.382 126.221,80.882 130,97.5C 133.867,81.0317 138.2,64.6984 143,48.5C 146.73,47.5399 150.563,47.2065 154.5,47.5C 148.639,67.9159 142.473,88.2493 136,108.5C 133.925,109.134 131.759,109.468 129.5,109.5C 127.036,109.41 124.87,108.743 123,107.5C 119.163,92.151 115.329,76.8177 111.5,61.5C 107.657,77.2041 103.657,92.8708 99.5,108.5C 95.5,109.833 91.5,109.833 87.5,108.5C 80.4071,88.4564 74.4071,68.1231 69.5,47.5 Z"/></g>
<g><path style="opacity:1" fill="#232d3a" d="M 178.5,45.5 C 185.784,44.9652 192.784,46.1319 199.5,49C 202.186,51.5463 203.186,54.713 202.5,58.5C 198.951,58.5608 195.618,57.7275 192.5,56C 187.167,55.3333 181.833,55.3333 176.5,56C 170.347,60.2519 170.014,64.9186 175.5,70C 183.578,72.8035 191.578,75.8035 199.5,79C 207.814,88.8655 207.148,98.1988 197.5,107C 184.923,113.033 172.423,112.866 160,106.5C 159.503,103.854 159.336,101.187 159.5,98.5C 166.028,100.452 172.695,101.785 179.5,102.5C 184.808,102.899 189.308,101.232 193,97.5C 194.227,93.4087 193.394,89.9087 190.5,87C 182.722,84.2772 175.055,81.2772 167.5,78C 160.447,71.8625 158.614,64.3625 162,55.5C 166.443,50.2047 171.943,46.8714 178.5,45.5 Z"/></g>
<g><path style="opacity:1" fill="#232d3b" d="M 31.5,45.5 C 39.9442,44.7558 47.9442,46.2558 55.5,50C 58.4905,52.9904 60.6572,56.4904 62,60.5C 62.3333,72.5 62.6667,84.5 63,96.5C 63.8917,99.2837 65.0584,101.95 66.5,104.5C 64.1401,106.853 61.4735,108.853 58.5,110.5C 55.4503,108.451 53.117,105.784 51.5,102.5C 43.3204,110.637 33.6538,113.137 22.5,110C 13.1492,104.435 9.98251,96.2686 13,85.5C 15.6587,79.5082 20.1587,75.6748 26.5,74C 34.849,73.4268 43.1823,73.5935 51.5,74.5C 52.5152,57.9737 44.8485,51.807 28.5,56C 24.5701,57.4774 20.5701,58.6441 16.5,59.5C 15.9935,55.9929 16.6602,52.8263 18.5,50C 22.8456,48.164 27.179,46.664 31.5,45.5 Z"/></g>
<g><path style="opacity:1" fill="#f6f8f9" d="M 31.5,81.5 C 37.8627,81.407 44.1961,81.7403 50.5,82.5C 51.4583,97.3712 44.4583,103.871 29.5,102C 27.4299,101.052 25.9299,99.5524 25,97.5C 22.7203,90.0828 24.8869,84.7495 31.5,81.5 Z"/></g>
<g><path style="opacity:1" fill="#fcfae3" d="M 219.5,148.5 C 219.5,152.167 219.5,155.833 219.5,159.5C 216.235,157.166 214.735,153.832 215,149.5C 212.106,148.385 210.939,149.552 211.5,153C 212.336,155.49 213.002,157.99 213.5,160.5C 212.5,160.5 211.5,160.5 210.5,160.5C 210.5,159.167 210.5,157.833 210.5,156.5C 209.5,156.5 208.5,156.5 207.5,156.5C 209.746,152.436 211.412,148.102 212.5,143.5C 214.589,138.407 214.922,133.074 213.5,127.5C 212.817,127.137 212.15,126.804 211.5,126.5C 211.389,125.883 211.056,125.383 210.5,125C 201.84,124.5 193.173,124.334 184.5,124.5C 194.466,120.351 204.466,120.518 214.5,125C 216.047,128.098 216.714,131.431 216.5,135C 216.233,139.512 215.899,144.012 215.5,148.5C 216.833,148.5 218.167,148.5 219.5,148.5 Z"/></g>
<g><path style="opacity:1" fill="#fcecbd" d="M 184.5,124.5 C 193.173,124.334 201.84,124.5 210.5,125C 211.056,125.383 211.389,125.883 211.5,126.5C 204.704,125.226 198.037,125.226 191.5,126.5C 187.885,126.155 184.552,126.822 181.5,128.5C 182.5,127.167 183.5,125.833 184.5,124.5 Z"/></g>
<g><path style="opacity:1" fill="#e79d35" d="M 191.5,126.5 C 187.822,127.509 184.489,129.343 181.5,132C 189.244,132.103 196.911,132.769 204.5,134C 205.314,140.753 205.814,147.586 206,154.5C 208.437,151.624 209.77,148.29 210,144.5C 210.671,143.748 211.504,143.414 212.5,143.5C 211.412,148.102 209.746,152.436 207.5,156.5C 205.734,158.771 203.734,160.937 201.5,163C 200.552,163.483 199.552,163.649 198.5,163.5C 200.573,156.946 202.239,150.279 203.5,143.5C 204.634,141.034 204.801,138.367 204,135.5C 202.644,134.62 201.144,134.286 199.5,134.5C 191.662,133.48 183.662,133.48 175.5,134.5C 176.065,131.192 178.065,129.192 181.5,128.5C 184.552,126.822 187.885,126.155 191.5,126.5 Z"/></g>
<g><path style="opacity:1" fill="#e39a28" d="M 191.5,126.5 C 198.037,125.226 204.704,125.226 211.5,126.5C 212.15,126.804 212.817,127.137 213.5,127.5C 214.922,133.074 214.589,138.407 212.5,143.5C 212.5,138.5 212.5,133.5 212.5,128.5C 210.549,128.227 209.049,128.893 208,130.5C 207.51,129.207 207.343,127.873 207.5,126.5C 202.167,126.5 196.833,126.5 191.5,126.5 Z"/></g>
<g><path style="opacity:1" fill="#fff6bf" d="M 199.5,134.5 C 191.327,135.196 183.327,135.196 175.5,134.5C 183.662,133.48 191.662,133.48 199.5,134.5 Z"/></g>
<g><path style="opacity:1" fill="#f79806" d="M 191.5,126.5 C 196.833,126.5 202.167,126.5 207.5,126.5C 207.343,127.873 207.51,129.207 208,130.5C 209.049,128.893 210.549,128.227 212.5,128.5C 212.5,133.5 212.5,138.5 212.5,143.5C 211.504,143.414 210.671,143.748 210,144.5C 209.77,148.29 208.437,151.624 206,154.5C 205.814,147.586 205.314,140.753 204.5,134C 196.911,132.769 189.244,132.103 181.5,132C 184.489,129.343 187.822,127.509 191.5,126.5 Z"/></g>
<g><path style="opacity:1" fill="#ec9e29" d="M 38.5,143.5 C 41.3273,144.958 44.3273,145.958 47.5,146.5C 52.6283,149.065 57.9616,151.065 63.5,152.5C 57.6928,153.008 52.3594,151.674 47.5,148.5C 43.5575,149.6 39.5575,149.767 35.5,149C 32.972,147.983 32.972,146.816 35.5,145.5C 33.8647,144.319 32.198,144.319 30.5,145.5C 29.6143,144.675 29.281,143.675 29.5,142.5C 26.7557,141.795 24.089,141.795 21.5,142.5C 23.8907,144.553 25.8907,146.886 27.5,149.5C 23.7678,146.967 19.7678,144.967 15.5,143.5C 15.5,142.5 15.5,141.5 15.5,140.5C 11.0188,138.541 7.18544,135.541 4,131.5C 3.51722,130.552 3.35055,129.552 3.5,128.5C 10.1775,131.336 16.8442,134.502 23.5,138C 28.4408,139.925 33.4408,141.759 38.5,143.5 Z"/></g>
<g><path style="opacity:1" fill="#fbf9e8" d="M 38.5,143.5 C 33.4408,141.759 28.4408,139.925 23.5,138C 16.8442,134.502 10.1775,131.336 3.5,128.5C 3.35055,129.552 3.51722,130.552 4,131.5C 7.18544,135.541 11.0188,138.541 15.5,140.5C 15.5,141.5 15.5,142.5 15.5,143.5C 19.7678,144.967 23.7678,146.967 27.5,149.5C 32.1335,152.488 36.8002,155.488 41.5,158.5C 37.3802,158.876 33.3802,159.376 29.5,160C 29.0426,159.586 28.7093,159.086 28.5,158.5C 34.9054,156.568 34.9054,155.068 28.5,154C 27.152,151.487 25.152,149.653 22.5,148.5C 20.6471,147.24 18.8138,147.24 17,148.5C 16.5078,147.451 16.6744,146.451 17.5,145.5C 12.8432,143.839 8.17649,142.505 3.5,141.5C 3.5,142.5 3.5,143.5 3.5,144.5C 2.16667,144.5 0.833333,144.5 -0.5,144.5C -0.5,140.833 -0.5,137.167 -0.5,133.5C 0.117425,133.389 0.617425,133.056 1,132.5C 1.49546,130.527 1.66212,128.527 1.5,126.5C 3.5273,126.338 5.5273,126.505 7.5,127C 11.9395,130.449 16.9395,132.449 22.5,133C 22.0426,133.414 21.7093,133.914 21.5,134.5C 24.208,136.436 27.208,136.936 30.5,136C 29.8333,135.333 29.1667,134.667 28.5,134C 31.9863,129.865 35.9863,129.365 40.5,132.5C 41.3857,133.325 41.719,134.325 41.5,135.5C 39.2133,135.276 37.0466,134.609 35,133.5C 34.5,133.667 34,133.833 33.5,134C 35.0016,134.583 36.3349,135.416 37.5,136.5C 37.3333,136.833 37.1667,137.167 37,137.5C 34.5571,136.715 32.0571,136.881 29.5,138C 33.8554,137.835 36.8554,139.668 38.5,143.5 Z"/></g>
<g><path style="opacity:1" fill="#fcfcfc" d="M 41.5,158.5 C 45.624,159.399 49.2907,161.066 52.5,163.5C 53.0577,164.79 54.0577,165.623 55.5,166C 58.961,166.994 62.461,167.827 66,168.5C 67.1685,169.009 68.0019,169.842 68.5,171C 72.1516,171.499 75.8183,171.665 79.5,171.5C 84.8333,171.833 90.1667,172.167 95.5,172.5C 100.656,173.166 105.989,173.499 111.5,173.5C 117.211,173.495 122.544,172.828 127.5,171.5C 132.96,170.492 138.293,169.492 143.5,168.5C 143.5,168.167 143.5,167.833 143.5,167.5C 147.981,167.575 152.314,166.908 156.5,165.5C 160.591,164.915 164.591,163.915 168.5,162.5C 169.193,161.482 169.859,160.482 170.5,159.5C 177.193,156.153 183.86,152.82 190.5,149.5C 198.102,148.222 200.602,151.222 198,158.5C 195.016,160.309 194.849,162.476 197.5,165C 199.5,165.667 201.5,165.667 203.5,165C 205.31,162.408 206.644,159.574 207.5,156.5C 208.5,156.5 209.5,156.5 210.5,156.5C 210.5,157.833 210.5,159.167 210.5,160.5C 211.5,160.5 212.5,160.5 213.5,160.5C 213.002,157.99 212.336,155.49 211.5,153C 210.939,149.552 212.106,148.385 215,149.5C 214.735,153.832 216.235,157.166 219.5,159.5C 219.5,179.5 219.5,199.5 219.5,219.5C 146.167,219.5 72.8333,219.5 -0.5,219.5C -0.5,194.5 -0.5,169.5 -0.5,144.5C 0.833333,144.5 2.16667,144.5 3.5,144.5C 3.5,143.5 3.5,142.5 3.5,141.5C 8.17649,142.505 12.8432,143.839 17.5,145.5C 16.6744,146.451 16.5078,147.451 17,148.5C 18.8138,147.24 20.6471,147.24 22.5,148.5C 25.152,149.653 27.152,151.487 28.5,154C 34.9054,155.068 34.9054,156.568 28.5,158.5C 28.7093,159.086 29.0426,159.586 29.5,160C 33.3802,159.376 37.3802,158.876 41.5,158.5 Z"/></g>
<g><path style="opacity:1" fill="#df9728" d="M 190.5,149.5 C 183.86,152.82 177.193,156.153 170.5,159.5C 165.709,161.316 161.042,163.316 156.5,165.5C 152.314,166.908 147.981,167.575 143.5,167.5C 147.424,165.135 151.757,163.635 156.5,163C 155.5,162.667 154.5,162.333 153.5,162C 165.025,161.007 175.191,156.841 184,149.5C 184.333,149.833 184.667,150.167 185,150.5C 187.797,148.758 190.464,146.758 193,144.5C 193.483,143.552 193.649,142.552 193.5,141.5C 191.435,141.517 189.435,141.85 187.5,142.5C 188.312,141.007 189.645,140.34 191.5,140.5C 194.693,140.188 195.86,141.522 195,144.5C 193.293,146.037 191.793,147.704 190.5,149.5 Z"/></g>
<g><path style="opacity:1" fill="#eda133" d="M 27.5,149.5 C 28.8734,149.343 30.2068,149.51 31.5,150C 35.4678,152.32 39.4678,154.653 43.5,157C 44.7839,157.684 45.9505,157.517 47,156.5C 51.0468,159.385 55.2134,162.052 59.5,164.5C 57.139,164.326 54.8056,163.993 52.5,163.5C 49.2907,161.066 45.624,159.399 41.5,158.5C 36.8002,155.488 32.1335,152.488 27.5,149.5 Z"/></g>
<g><path style="opacity:1" fill="#fb9804" d="M 63.5,152.5 C 66.7296,154.297 70.2296,155.63 74,156.5C 97.331,159.017 120.498,159.017 143.5,156.5C 146.246,155.749 148.913,154.749 151.5,153.5C 156.58,153.75 161.58,153.25 166.5,152C 170.647,149.26 174.98,147.093 179.5,145.5C 181.684,143.415 184.351,142.415 187.5,142.5C 189.435,141.85 191.435,141.517 193.5,141.5C 193.649,142.552 193.483,143.552 193,144.5C 190.464,146.758 187.797,148.758 185,150.5C 184.667,150.167 184.333,149.833 184,149.5C 175.191,156.841 165.025,161.007 153.5,162C 154.5,162.333 155.5,162.667 156.5,163C 151.757,163.635 147.424,165.135 143.5,167.5C 143.5,167.833 143.5,168.167 143.5,168.5C 122.863,170.957 102.197,171.124 81.5,169C 74.4273,166.232 67.0939,164.732 59.5,164.5C 55.2134,162.052 51.0468,159.385 47,156.5C 45.9505,157.517 44.7839,157.684 43.5,157C 39.4678,154.653 35.4678,152.32 31.5,150C 30.2068,149.51 28.8734,149.343 27.5,149.5C 25.8907,146.886 23.8907,144.553 21.5,142.5C 24.089,141.795 26.7557,141.795 29.5,142.5C 29.281,143.675 29.6143,144.675 30.5,145.5C 32.198,144.319 33.8647,144.319 35.5,145.5C 32.972,146.816 32.972,147.983 35.5,149C 39.5575,149.767 43.5575,149.6 47.5,148.5C 52.3594,151.674 57.6928,153.008 63.5,152.5 Z"/></g>
<g><path style="opacity:1" fill="#e1aa40" d="M 151.5,153.5 C 148.913,154.749 146.246,155.749 143.5,156.5C 138.167,156.5 132.833,156.5 127.5,156.5C 135.336,155.276 143.336,154.276 151.5,153.5 Z"/></g>
<g><path style="opacity:1" fill="#fef1d3" d="M 148.5,151.5 C 151.962,150.518 155.629,150.185 159.5,150.5C 156.687,151.082 154.02,152.082 151.5,153.5C 143.336,154.276 135.336,155.276 127.5,156.5C 117.008,157.659 106.341,157.825 95.5,157C 84.7643,155.805 74.0976,154.305 63.5,152.5C 57.9616,151.065 52.6283,149.065 47.5,146.5C 50.5184,146.335 53.5184,146.502 56.5,147C 56.1667,147.333 55.8333,147.667 55.5,148C 56.5,148.167 57.5,148.333 58.5,148.5C 61.024,146.951 63.8573,145.951 67,145.5C 69.6636,145.191 71.8302,146.025 73.5,148C 70.1182,148.176 66.7848,148.676 63.5,149.5C 91.8047,156.751 120.138,157.418 148.5,151.5 Z"/></g>
<g><path style="opacity:1" fill="#e4a12e" d="M 175.5,145.5 C 176.833,145.5 178.167,145.5 179.5,145.5C 174.98,147.093 170.647,149.26 166.5,152C 161.58,153.25 156.58,153.75 151.5,153.5C 154.02,152.082 156.687,151.082 159.5,150.5C 165.267,149.935 170.6,148.269 175.5,145.5 Z"/></g>
<g><path style="opacity:1" fill="#fafdf2" d="M 175.5,145.5 C 170.6,148.269 165.267,149.935 159.5,150.5C 155.629,150.185 151.962,150.518 148.5,151.5C 141.5,151.5 134.5,151.5 127.5,151.5C 127.5,150.167 127.5,148.833 127.5,147.5C 111.789,149.081 96.1221,148.748 80.5,146.5C 98.2017,145.07 115.868,145.237 133.5,147C 133.167,147.333 132.833,147.667 132.5,148C 138.723,149.581 145.056,149.915 151.5,149C 151.5,148 151.5,147 151.5,146C 154.817,145.502 158.15,145.335 161.5,145.5C 161.5,146.5 161.5,147.5 161.5,148.5C 166.167,147.5 170.833,146.5 175.5,145.5 Z"/></g>
<g><path style="opacity:1" fill="#e69a1e" d="M 63.5,152.5 C 74.0976,154.305 84.7643,155.805 95.5,157C 106.341,157.825 117.008,157.659 127.5,156.5C 132.833,156.5 138.167,156.5 143.5,156.5C 120.498,159.017 97.331,159.017 74,156.5C 70.2296,155.63 66.7296,154.297 63.5,152.5 Z"/></g>
<g><path style="opacity:1" fill="#feefc0" d="M 170.5,159.5 C 169.859,160.482 169.193,161.482 168.5,162.5C 164.591,163.915 160.591,164.915 156.5,165.5C 161.042,163.316 165.709,161.316 170.5,159.5 Z"/></g>
<g><path style="opacity:1" fill="#fdf5d5" d="M 203.5,143.5 C 202.239,150.279 200.573,156.946 198.5,163.5C 199.552,163.649 200.552,163.483 201.5,163C 203.734,160.937 205.734,158.771 207.5,156.5C 206.644,159.574 205.31,162.408 203.5,165C 201.5,165.667 199.5,165.667 197.5,165C 194.849,162.476 195.016,160.309 198,158.5C 200.602,151.222 198.102,148.222 190.5,149.5C 191.793,147.704 193.293,146.037 195,144.5C 195.86,141.522 194.693,140.188 191.5,140.5C 189.645,140.34 188.312,141.007 187.5,142.5C 184.351,142.415 181.684,143.415 179.5,145.5C 178.167,145.5 176.833,145.5 175.5,145.5C 175.804,144.85 176.137,144.183 176.5,143.5C 179.786,142.96 182.786,141.794 185.5,140C 190.194,139.436 194.86,139.603 199.5,140.5C 196.72,146.717 198.053,147.717 203.5,143.5 Z"/></g>
<g><path style="opacity:1" fill="#fff6d3" d="M 52.5,163.5 C 54.8056,163.993 57.139,164.326 59.5,164.5C 66.377,166.592 73.0437,168.925 79.5,171.5C 75.8183,171.665 72.1516,171.499 68.5,171C 68.0019,169.842 67.1685,169.009 66,168.5C 62.461,167.827 58.961,166.994 55.5,166C 54.0577,165.623 53.0577,164.79 52.5,163.5 Z"/></g>
<g><path style="opacity:1" fill="#dfa13a" d="M 59.5,164.5 C 67.0939,164.732 74.4273,166.232 81.5,169C 102.197,171.124 122.863,170.957 143.5,168.5C 138.293,169.492 132.96,170.492 127.5,171.5C 116.86,172.375 106.194,172.709 95.5,172.5C 90.1667,172.167 84.8333,171.833 79.5,171.5C 73.0437,168.925 66.377,166.592 59.5,164.5 Z"/></g>
<g><path style="opacity:1" fill="#fff1b5" d="M 127.5,171.5 C 122.544,172.828 117.211,173.495 111.5,173.5C 105.989,173.499 100.656,173.166 95.5,172.5C 106.194,172.709 116.86,172.375 127.5,171.5 Z"/></g>
</svg>
