<svg width="81" height="82" viewBox="0 0 81 82" fill="none" xmlns="http://www.w3.org/2000/svg">
<path d="M80.8471 35.4309C81.0458 37.8991 80.1568 40.3168 78.4092 42.0644L66.9066 55.702C66.5833 56.0084 66.1691 56.1599 65.7549 56.1599C65.3071 56.1599 64.8592 55.9814 64.5293 55.6312C63.8928 54.9544 63.9265 53.887 64.6033 53.2506L75.9275 39.7949C77.0758 38.6365 77.6112 37.1852 77.49 35.7036C77.3687 34.2018 76.6178 32.8785 75.3686 31.9828C73.4054 30.5651 70.5096 30.9221 68.6306 32.7976L67.0716 34.7641C66.6271 35.3265 65.8762 35.542 65.1993 35.3029C64.5259 35.0672 64.0747 34.4308 64.0747 33.7136V14.2809C64.0747 12.4255 62.5628 10.9136 60.7074 10.9136C58.852 10.9136 57.3401 12.4255 57.3401 14.2809V26.0664C57.3401 26.9958 56.5858 27.7501 55.6564 27.7501C54.7271 27.7501 53.9728 26.9958 53.9728 26.0664V7.54298C53.9728 5.6876 52.4609 4.17569 50.6055 4.17569C48.7501 4.17569 47.2382 5.6876 47.2382 7.54298V19.3285C47.2382 20.2579 46.4839 21.0121 45.5546 21.0121C44.6252 21.0121 43.8709 20.2579 43.8709 19.3285V10.9103C43.8709 9.05489 42.359 7.54298 40.5036 7.54298C38.6483 7.54298 37.1363 9.05489 37.1363 10.9103V15.9612C37.1363 16.8906 36.3821 17.6448 35.4527 17.6448C35.4056 17.6448 35.3652 17.6213 35.3214 17.6179C35.2709 17.6213 35.5066 17.6448 35.4527 17.6448C34.759 17.6448 33.8229 17.2138 33.5771 16.5235C33.1023 15.1834 31.8228 14.2776 30.4018 14.2776C28.9808 14.2776 27.7012 15.18 27.2264 16.5235C26.9166 17.4024 25.9502 17.8604 25.0781 17.5506C24.1992 17.2408 23.7413 16.2811 24.0511 15.4022C25.0006 12.7151 27.553 10.9136 30.4018 10.9136C31.6241 10.9136 32.7589 11.3009 33.7691 11.8902V10.9136C33.7691 7.19952 36.7895 4.17906 40.5036 4.17906C41.9011 4.17906 43.1975 4.6067 44.275 5.3374C45.1943 2.71092 47.6692 0.811768 50.6055 0.811768C54.3196 0.811768 57.3401 3.83223 57.3401 7.54635V8.48245C58.3334 7.90328 59.4749 7.54635 60.7074 7.54635C64.4215 7.54635 67.442 10.5668 67.442 14.2809V29.4472C70.5096 27.3022 74.483 27.1911 77.3384 29.2485C79.3723 30.7133 80.6485 32.966 80.8471 35.4309ZM57.3367 37.8486V59.736C57.3367 72.0097 47.7231 81.6234 35.4493 81.6234H29.3949C23.2934 81.6234 17.5522 79.3841 13.6529 75.478L2.49368 62.1571C0.847071 60.5205 -0.0418931 58.1028 0.156777 55.6346C0.355447 53.1664 1.63502 50.917 3.66549 49.4523C6.55126 47.3679 10.5684 47.5026 13.5653 49.6139V34.4813C13.5653 30.7672 16.5858 27.7467 20.2999 27.7467C21.5323 27.7467 22.6738 28.1036 23.6672 28.6828V27.7467C23.6672 24.0326 26.6877 21.0121 30.4018 21.0121C33.338 21.0121 35.813 22.9113 36.7323 25.5378C37.8098 24.8071 39.1062 24.3794 40.5036 24.3794C44.2178 24.3794 47.2382 27.3999 47.2382 31.114V32.0501C48.2316 31.4709 49.3731 31.114 50.6055 31.114C54.3196 31.114 57.3367 34.1345 57.3367 37.8486ZM53.9694 37.8486C53.9694 35.9932 52.4575 34.4813 50.6021 34.4813C48.7468 34.4813 47.2349 35.9932 47.2349 37.8486V53.0014C47.2349 53.9308 46.4806 54.685 45.5512 54.685C44.6218 54.685 43.8676 53.9308 43.8676 53.0014V31.114C43.8676 29.2586 42.3556 27.7467 40.5003 27.7467C38.6449 27.7467 37.133 29.2586 37.133 31.114V53.0014C37.133 53.9308 36.3787 54.685 35.4493 54.685C34.52 54.685 33.7657 53.9308 33.7657 53.0014V27.7467C33.7657 25.8913 32.2538 24.3794 30.3984 24.3794C28.543 24.3794 27.0311 25.8913 27.0311 27.7467V53.0014C27.0311 53.9308 26.2768 54.685 25.3475 54.685C24.4181 54.685 23.6638 53.9308 23.6638 53.0014V34.4813C23.6638 32.6259 22.1519 31.114 20.2965 31.114C18.4412 31.114 16.9292 32.6259 16.9292 34.4813V53.9139C16.9292 54.6278 16.478 55.2642 15.8046 55.5033C15.1277 55.7424 14.3802 55.5269 13.9324 54.9679L12.2487 52.8633C10.4944 51.1191 7.59512 50.7756 5.63536 52.1865C4.38609 53.0889 3.63519 54.4089 3.51396 55.9074C3.39274 57.3856 3.92814 58.8369 4.97537 59.8875L16.1346 73.2085C19.3099 76.3771 24.1824 78.2594 29.3949 78.2594H35.4493C45.8341 78.2594 53.9694 70.1241 53.9694 59.7393V37.852V37.8486Z" fill="#323F49"/>
</svg>
