<svg xmlns="http://www.w3.org/2000/svg" fill="none" viewBox="45.62 54.54 641.03 379.04">
<path d="M120.345 256.191C120.835 243.742 120.665 231.275 119.839 218.843C117.997 193.206 114.085 167.759 108.14 142.753C104.874 128.666 100.857 114.822 96.6653 100.998C96.5483 100.579 95.8756 100.696 95.9926 101.135C108.939 149.879 119.556 200.184 118.825 250.859C118.62 265.044 116.982 278.975 115.637 293.062C115.637 293.442 116.222 293.588 116.309 293.198C118.981 281.139 119.848 268.504 120.345 256.191Z" fill="#EBEBEB"/>
<path d="M95.9918 101.135C95.9918 101.135 76.3769 150.913 80.7737 162.612C85.1705 174.31 94.2175 176.806 94.2175 176.806C94.2175 176.806 82.2165 193.896 90.6006 210.011C98.9847 226.126 117.615 225.317 118.873 243.537C118.853 243.537 119.896 167.359 95.9918 101.135Z" fill="#EBEBEB"/>
<path d="M116.719 212.077C116.752 211.993 116.752 211.899 116.719 211.814C113.97 177.966 107.945 144.225 97.6991 111.683C97.6991 111.585 97.5139 111.615 97.5431 111.683C101.443 126.248 104.874 140.887 107.838 155.602C105.204 153.108 101.986 151.314 98.479 150.386C98.4661 150.386 98.4537 150.391 98.4445 150.4C98.4354 150.409 98.4303 150.422 98.4303 150.435C98.4303 150.448 98.4354 150.46 98.4445 150.469C98.4537 150.478 98.4661 150.484 98.479 150.484C102.106 152.053 105.576 153.866 108.14 156.947C108.715 159.872 109.281 162.718 109.807 165.604C105.43 160.73 99.3467 158.273 93.2341 155.962C93.1561 155.962 93.1073 156.07 93.2341 156.099C99.5611 158.682 105.908 161.997 110.168 167.456C111.663 175.723 112.963 184.013 114.068 192.326C110.897 189.01 106.833 186.684 102.369 185.628C102.232 185.628 102.154 185.794 102.301 185.833C106.905 187.161 111.024 189.8 114.155 193.428C114.177 193.452 114.203 193.472 114.233 193.486C114.623 196.411 114.994 199.335 115.335 202.26C112.886 200.186 110.122 198.518 107.146 197.317C107.133 197.322 107.122 197.331 107.115 197.342C107.107 197.354 107.103 197.367 107.103 197.381C107.103 197.394 107.107 197.408 107.115 197.419C107.122 197.43 107.133 197.439 107.146 197.444C110.179 198.759 112.958 200.597 115.354 202.874C115.354 202.874 115.423 202.874 115.462 202.923C115.783 205.711 116.115 208.499 116.437 211.288C112.02 205.95 106.287 201.857 99.8049 199.413C99.7806 199.409 99.7556 199.413 99.734 199.425C99.7125 199.437 99.6957 199.456 99.6865 199.479C99.6774 199.502 99.6764 199.527 99.6837 199.551C99.6911 199.574 99.7063 199.595 99.7269 199.608C106.128 202.433 111.753 206.761 116.125 212.224C116.169 212.287 116.233 212.335 116.307 212.36C116.38 212.384 116.46 212.384 116.534 212.36C116.963 216.643 117.337 220.933 117.655 225.229C117.655 225.287 117.753 225.297 117.753 225.229C117.421 220.855 117.077 216.471 116.719 212.077Z" fill="white"/>
<path d="M100.964 145.462C97.5612 143.132 93.2424 142.128 89.1771 141.797C89.0796 141.797 89.0796 141.933 89.1771 141.943C93.3984 142.567 96.9763 144.098 100.827 145.745C100.964 145.823 101.11 145.57 100.964 145.462Z" fill="white"/>
<path d="M103.343 198.175C100.615 196.613 97.6143 195.584 94.5011 195.144C94.3939 195.144 94.3841 195.3 94.5011 195.309C97.5541 195.921 100.507 196.955 103.275 198.38C103.298 198.378 103.32 198.37 103.338 198.356C103.356 198.342 103.37 198.322 103.377 198.301C103.385 198.279 103.385 198.255 103.379 198.233C103.373 198.211 103.361 198.191 103.343 198.175Z" fill="white"/>
<path d="M171.908 163.421C163.613 169.157 155.996 175.816 149.203 183.269C142.2 191.154 136.794 200.321 133.283 210.264C125.839 230.99 121.838 252.794 121.438 274.812C121.186 287.012 122.361 299.199 124.937 311.127C124.954 311.216 125.006 311.295 125.081 311.346C125.156 311.397 125.248 311.416 125.337 311.4C125.426 311.383 125.505 311.331 125.556 311.256C125.608 311.181 125.627 311.089 125.61 311C122.41 289.953 122.532 268.534 125.971 247.525C129.344 226.935 134.628 204.532 147.721 187.793C154.847 178.678 163.738 171.512 172.522 164.103C172.97 163.733 172.385 163.089 171.908 163.421Z" fill="#EBEBEB"/>
<path d="M124.362 260.003C129.093 252.367 134.651 245.276 140.935 238.858C150.753 229.05 159.01 222.08 160.287 215.587C161.564 209.094 150.46 204.327 150.46 204.327C150.46 204.327 164.04 206.764 167.755 201.061C171.469 195.358 173.263 162.368 173.263 162.368C173.263 162.368 148.559 179.994 137.055 204.717C125.552 229.44 124.362 260.003 124.362 260.003Z" fill="#EBEBEB"/>
<path d="M164.634 170.82C154.242 181.027 143.781 191.907 137.659 205.321C135.569 209.953 133.749 214.702 132.209 219.545C131.897 220.52 131.576 221.495 131.235 222.47C131.208 222.518 131.192 222.571 131.186 222.626C128.284 232.652 125.944 242.833 124.176 253.12C124.176 253.179 124.254 253.218 124.274 253.12C125.336 247.973 126.506 242.767 127.822 237.59C127.871 237.599 127.92 237.599 127.969 237.59C130.03 236.704 132.218 236.148 134.452 235.943C134.598 235.943 134.588 235.67 134.452 235.679C132.27 235.779 130.113 236.172 128.037 236.849C129.236 232.17 130.533 227.51 131.995 222.918C136.785 221.745 141.688 221.092 146.618 220.968V220.88C141.799 220.687 136.976 221.119 132.268 222.167C132.521 221.378 132.785 220.598 133.048 219.808C136.258 219.045 139.514 218.495 142.797 218.161C142.855 218.161 142.855 218.053 142.797 218.053C139.584 218.117 136.387 218.505 133.253 219.213C134.588 215.236 136.041 211.317 137.659 207.515C138.991 204.387 140.548 201.36 142.319 198.458C144.92 197.814 147.562 197.346 150.225 197.054C150.303 197.054 150.294 196.927 150.225 196.918C147.738 196.731 145.238 196.978 142.836 197.649C144.132 195.553 145.497 193.496 146.96 191.507C152.497 190.279 158.112 189.138 163.786 190.201C163.884 190.201 163.913 190.054 163.786 190.035C158.395 188.611 153.062 189.43 147.671 190.493C148.256 189.713 148.861 188.943 149.465 188.183C152.818 187.15 156.301 186.602 159.809 186.554C159.824 186.554 159.839 186.548 159.85 186.537C159.861 186.526 159.867 186.512 159.867 186.496C159.867 186.48 159.861 186.466 159.85 186.455C159.839 186.444 159.824 186.437 159.809 186.437C156.569 186.141 153.303 186.431 150.167 187.295C154.739 181.612 159.799 176.269 164.79 170.976C165.063 170.722 164.878 170.586 164.634 170.82Z" fill="white"/>
<path d="M164.333 193.321C162.719 193.09 161.085 193.031 159.459 193.145C159.264 193.145 159.274 193.496 159.459 193.496C161.087 193.496 162.705 193.428 164.333 193.496C164.35 193.488 164.364 193.476 164.374 193.46C164.383 193.445 164.388 193.427 164.388 193.408C164.388 193.39 164.383 193.372 164.374 193.357C164.364 193.341 164.35 193.329 164.333 193.321Z" fill="white"/>
<path d="M146.58 225.336C143.972 225.395 141.394 225.914 138.966 226.867C138.907 226.867 138.966 226.984 138.966 226.974C141.481 226.37 144.026 226.126 146.56 225.707C146.585 225.708 146.609 225.704 146.632 225.696C146.655 225.688 146.676 225.676 146.694 225.659C146.712 225.643 146.727 225.623 146.738 225.601C146.748 225.579 146.754 225.555 146.755 225.531C146.757 225.507 146.753 225.482 146.745 225.46C146.737 225.437 146.724 225.415 146.708 225.397C146.692 225.379 146.672 225.365 146.65 225.354C146.628 225.344 146.604 225.337 146.58 225.336Z" fill="white"/>
<path d="M141.256 214.271C140.171 214.266 139.087 214.364 138.02 214.563C137.912 214.563 137.922 214.758 138.02 214.758C139.101 214.817 140.185 214.768 141.256 214.612C141.451 214.573 141.442 214.281 141.256 214.271Z" fill="white"/>
<path d="M51.9065 198.449C59.9436 201.173 67.6457 204.8 74.8652 209.26C82.3558 214.021 88.8489 220.192 93.9829 227.432C104.808 242.484 113.093 259.207 118.511 276.937C121.532 286.761 123.397 296.903 124.068 307.159C124.056 307.226 124.02 307.287 123.968 307.331C123.915 307.374 123.849 307.398 123.781 307.398C123.712 307.398 123.646 307.374 123.593 307.331C123.541 307.287 123.505 307.226 123.493 307.159C121.219 289.386 116.173 272.08 108.538 255.87C101.051 239.989 91.5847 223.084 77.127 212.565C69.2499 206.833 60.3978 203.089 51.575 199.121C51.1168 198.936 51.4483 198.283 51.9065 198.449Z" fill="#EBEBEB"/>
<path d="M112.751 265.609C107.163 260.521 101.033 256.062 94.4718 252.311C84.2647 246.647 75.9488 242.913 73.4336 237.961C70.9184 233.008 78.776 226.574 78.776 226.574C78.776 226.574 68.3544 231.683 64.0356 227.929C59.7169 224.176 50.6309 197.883 50.6309 197.883C50.6309 197.883 74.6912 206.443 89.7241 223.796C104.757 241.149 112.751 265.609 112.751 265.609Z" fill="#EBEBEB"/>
<path d="M111.493 260.188C99.4529 237.59 83.4159 217.157 61.3931 203.645C67.1397 207.361 72.5281 211.604 77.4886 216.318C73.0112 216.074 68.5486 217.015 64.5517 219.048C64.5393 219.059 64.5306 219.073 64.5269 219.089C64.5232 219.105 64.5247 219.122 64.5312 219.137C64.5377 219.153 64.5489 219.165 64.5631 219.174C64.5773 219.182 64.5938 219.186 64.6102 219.184C68.8643 217.589 73.3851 216.824 77.9273 216.932C77.9815 216.931 78.0334 216.91 78.0735 216.874C78.8632 217.615 79.6333 218.365 80.3937 219.126C78.0679 219.235 75.7556 219.541 73.4817 220.042C73.4688 220.042 73.4564 220.047 73.4473 220.057C73.4381 220.066 73.433 220.078 73.433 220.091C73.433 220.104 73.4381 220.116 73.4473 220.125C73.4564 220.135 73.4688 220.14 73.4817 220.14C75.8888 219.69 78.3355 219.487 80.7837 219.535C84.8231 223.605 88.6311 227.898 92.19 232.394C90.5587 232.162 88.8967 232.282 87.3155 232.745C87.296 232.752 87.279 232.764 87.267 232.781C87.2549 232.797 87.2484 232.817 87.2484 232.838C87.2484 232.858 87.2549 232.878 87.267 232.895C87.279 232.912 87.296 232.924 87.3155 232.93C89.0278 232.732 90.7558 232.709 92.4727 232.862C93.1356 233.7 93.7985 234.529 94.4225 235.377C89.5035 235.082 84.5687 235.562 79.7991 236.801C79.7308 236.801 79.7503 236.927 79.7991 236.918C84.7378 235.951 89.7803 235.623 94.8027 235.943C95.4168 236.752 96.0018 237.59 96.5965 238.419C93.6664 238.334 90.7389 238.662 87.9004 239.394C87.8872 239.389 87.8731 239.388 87.8592 239.39C87.8453 239.392 87.8322 239.397 87.8208 239.405C87.8093 239.413 87.8 239.424 87.7936 239.437C87.7872 239.449 87.7838 239.463 87.7838 239.477C87.7838 239.491 87.7872 239.505 87.7936 239.517C87.8 239.529 87.8093 239.54 87.8208 239.548C87.8322 239.556 87.8453 239.562 87.8592 239.564C87.8731 239.566 87.8872 239.564 87.9004 239.56C90.8543 238.92 93.8817 238.687 96.8987 238.867C99.4919 242.426 101.968 246.072 104.357 249.767C103.082 249.536 101.772 249.617 100.535 250.001C100.522 250.001 100.51 250.006 100.501 250.015C100.491 250.024 100.486 250.037 100.486 250.049C100.486 250.062 100.491 250.075 100.501 250.084C100.51 250.093 100.522 250.098 100.535 250.098C101.916 249.992 103.304 250.058 104.669 250.293C106.813 253.634 108.88 257 110.869 260.393C111.191 260.695 111.688 260.481 111.493 260.188Z" fill="white"/>
<path d="M92.7762 241.441C90.4098 241.286 88.0354 241.577 85.7765 242.299C85.718 242.299 85.7765 242.416 85.7765 242.406C88.0788 242.018 90.404 241.781 92.7372 241.695C92.903 241.665 92.9322 241.461 92.7762 241.441Z" fill="white"/>
<path d="M71.7764 213.91C70.7001 213.829 69.6178 213.894 68.5592 214.105C68.5397 214.112 68.5227 214.124 68.5107 214.141C68.4987 214.157 68.4922 214.177 68.4922 214.198C68.4922 214.218 68.4987 214.238 68.5107 214.255C68.5227 214.272 68.5397 214.284 68.5592 214.29C69.6219 214.183 70.665 214.222 71.7276 214.183C71.7638 214.19 71.8011 214.181 71.8313 214.16C71.8615 214.139 71.882 214.107 71.8885 214.071C71.895 214.035 71.8868 213.998 71.8658 213.967C71.8447 213.937 71.8126 213.917 71.7764 213.91Z" fill="white"/>
<path d="M143.792 340.315H89.4609L97.2113 283.576L99.1904 269.031H134.062L136.041 283.576L143.792 340.315Z" fill="#DBDBDB"/>
<path d="M136.042 283.576H97.2119L99.1909 269.031H134.063L136.042 283.576Z" fill="#C7C7C7"/>
<path d="M139.044 263.981H94.1992V276.303H139.044V263.981Z" fill="#DBDBDB"/>
<path d="M557.126 81.4417C554.547 88.0066 553.03 94.9405 552.632 101.983H534.674H534.45V101.485L534.596 100.091C534.815 97.6716 535.206 95.2705 535.766 92.9064C536.708 89.0379 538.064 85.2823 539.812 81.7049C539.844 81.6177 539.906 81.5442 539.985 81.4963C540.065 81.4485 540.159 81.4292 540.251 81.4417H557.097H557.126Z" fill="#EBEBEB"/>
<path d="M556.58 127.31H539.871C539.783 127.319 539.694 127.298 539.62 127.251C539.545 127.203 539.489 127.131 539.461 127.047C537.532 123.022 536.139 118.761 535.318 114.374C534.904 112.262 534.63 110.126 534.499 107.978C534.499 107.91 534.499 107.832 534.45 107.764V107.257H534.723H552.339C552.661 107.257 552.651 107.257 552.671 107.588C552.788 109.041 552.885 110.513 553.022 111.966C553.254 114.281 553.628 116.579 554.143 118.848C554.747 121.625 555.538 124.358 556.512 127.028C556.522 127.125 556.541 127.213 556.58 127.31Z" fill="#EBEBEB"/>
<path d="M626.851 132.614C626.851 132.712 626.753 132.79 626.714 132.858C625.294 135.023 623.71 137.076 621.976 139C619.886 141.362 617.56 143.505 615.035 145.395C612.558 147.263 609.911 148.895 607.129 150.27C604.449 151.607 601.652 152.697 598.774 153.526C596.49 154.176 594.164 154.671 591.813 155.008L591.13 155.124H590.731L590.36 154.9L590.809 154.588C595.914 151.119 600.381 146.792 604.009 141.798C606.061 138.983 607.865 135.995 609.4 132.868C609.427 132.783 609.482 132.71 609.557 132.662C609.632 132.614 609.721 132.594 609.809 132.604H626.899L626.851 132.614Z" fill="#EBEBEB"/>
<path d="M610.141 101.963H586.666V81.4903H586.939H604.984C605.064 81.4805 605.144 81.4998 605.21 81.5446C605.277 81.5894 605.324 81.6567 605.345 81.734C607.035 85.5888 608.287 89.6207 609.079 93.7544C609.502 95.9033 609.805 98.0742 609.985 100.257C610.044 100.783 610.093 101.359 610.141 101.963Z" fill="#EBEBEB"/>
<path d="M609.994 107.442C609.994 107.92 609.994 108.417 609.925 108.885C609.828 110.025 609.74 111.176 609.584 112.307C609.36 113.876 609.126 115.456 608.804 117.015C608.108 120.438 607.09 123.787 605.762 127.018C605.741 127.112 605.686 127.196 605.606 127.252C605.527 127.308 605.43 127.332 605.334 127.32H586.528V107.442H609.994Z" fill="#EBEBEB"/>
<path d="M581.371 81.5785V102.12H558.452C558.452 101.593 558.5 101.086 558.559 100.579C558.676 99.4288 558.764 98.2784 558.949 97.1378C559.232 95.4025 559.524 93.6574 559.924 91.9319C560.678 88.4481 561.779 85.0483 563.209 81.7832C563.235 81.7028 563.288 81.6338 563.359 81.5877C563.43 81.5416 563.515 81.5211 563.599 81.5298H581.371V81.5785Z" fill="#EBEBEB"/>
<path d="M581.401 107.715C581.401 114.15 581.401 120.587 581.401 127.028V127.311H563.063C562.973 127.323 562.882 127.302 562.807 127.252C562.731 127.202 562.677 127.125 562.654 127.038C561.262 123.706 560.217 120.24 559.534 116.694C559.193 114.871 558.93 113.028 558.706 111.186C558.55 109.987 558.511 108.768 558.433 107.55C558.429 107.507 558.429 107.465 558.433 107.423H581.079C581.343 107.413 581.401 107.481 581.401 107.715Z" fill="#EBEBEB"/>
<path d="M635.029 102.109H615.795C615.406 95.0258 613.892 88.0492 611.31 81.4416H629.238C629.327 81.4295 629.416 81.4481 629.493 81.4942C629.569 81.5404 629.627 81.6112 629.658 81.695C631.711 85.761 633.203 90.0867 634.093 94.5539C634.574 96.9317 634.9 99.3383 635.068 101.758L635.029 102.109Z" fill="#EBEBEB"/>
<path d="M635.04 107.286C635.04 107.754 635.04 108.193 634.981 108.631C634.858 110.367 634.646 112.094 634.348 113.808C633.635 117.787 632.447 121.666 630.809 125.361C630.555 125.955 630.263 126.54 630 127.135C629.982 127.194 629.944 127.245 629.892 127.279C629.84 127.313 629.778 127.327 629.717 127.32H611.808C612.023 126.706 612.237 126.111 612.442 125.507C613.479 122.451 614.274 119.319 614.821 116.138C615.233 113.833 615.509 111.505 615.649 109.168C615.649 108.612 615.717 108.056 615.737 107.51C615.737 107.364 615.737 107.286 615.942 107.306C616 107.311 616.059 107.311 616.117 107.306L635.04 107.286Z" fill="#EBEBEB"/>
<path d="M626.323 76.2066V76.2943H626.07C620.464 76.2943 614.858 76.2943 609.253 76.2943C609.167 76.3047 609.081 76.2864 609.007 76.2423C608.932 76.1982 608.875 76.1308 608.843 76.0506C606.609 71.5828 603.804 67.4242 600.498 63.6792C598.548 61.5189 596.404 59.5414 594.093 57.7713C592.943 56.8939 591.753 56.0653 590.584 55.2171L590.389 55.0709L590.623 54.9051C590.623 54.8077 590.554 54.6907 590.506 54.5444C596.437 55.2102 602.2 56.9408 607.517 59.6529C615.115 63.4471 621.596 69.1516 626.323 76.2066Z" fill="#EBEBEB"/>
<path d="M578.116 154.9C577.958 154.949 577.794 154.975 577.629 154.978C575.782 154.737 573.952 154.382 572.15 153.915C568.782 153.055 565.515 151.842 562.401 150.298C558.836 148.523 555.494 146.331 552.447 143.767C550.281 141.953 548.281 139.95 546.471 137.781C545.118 136.139 543.871 134.414 542.737 132.614C542.704 132.562 542.677 132.507 542.659 132.448H542.932C548.158 132.448 553.373 132.448 558.599 132.448C558.683 132.441 558.766 132.462 558.837 132.508C558.907 132.554 558.961 132.622 558.989 132.702C560.622 135.995 562.55 139.134 564.75 142.08C566.785 144.758 569.042 147.259 571.497 149.557C573.516 151.469 575.687 153.213 577.989 154.773L578.116 154.9Z" fill="#EBEBEB"/>
<path d="M577.911 55.0414C577.19 55.5678 576.351 56.1625 575.532 56.7865C572.799 58.9154 570.257 61.2804 567.938 63.8544C564.798 67.2762 562.121 71.0945 559.973 75.212C559.837 75.4752 559.72 75.7481 559.564 75.9919C559.536 76.0337 559.501 76.0692 559.459 76.0961C559.417 76.123 559.369 76.1407 559.32 76.1479C559.037 76.1479 558.755 76.1479 558.472 76.1479H543.166C551.696 64.1079 563.151 56.8645 577.736 54.7002C577.736 54.7684 577.667 54.8367 577.628 54.8952L577.911 55.0414Z" fill="#EBEBEB"/>
<path d="M603.132 132.624C600.958 136.417 598.339 139.939 595.332 143.113C592.691 145.959 589.72 148.479 586.48 150.62V132.624H603.132Z" fill="#EBEBEB"/>
<path d="M581.372 132.633V150.279C574.745 145.736 569.286 139.689 565.442 132.633H581.372Z" fill="#EBEBEB"/>
<path d="M602.615 76.1383H586.666V59.3604C589.938 61.4934 592.942 64.0103 595.616 66.8573C598.26 69.7031 600.606 72.8131 602.615 76.1383Z" fill="#EBEBEB"/>
<path d="M581.372 59.8384V76.2751H566.066C569.811 69.673 575.053 64.0429 581.372 59.8384Z" fill="#EBEBEB"/>
<path d="M277.654 144.176H143.674V56.9229H277.654V144.176ZM144.649 143.201H276.679V57.8977H144.649V143.201Z" fill="#EBEBEB"/>
<path d="M277.654 69.3625H143.674V56.9229H277.654V69.3625ZM144.649 68.3876H276.679V57.8977H144.649V68.3876Z" fill="#EBEBEB"/>
<path d="M154.925 63.2596C154.925 63.8381 154.753 64.4035 154.432 64.8845C154.11 65.3655 153.654 65.7403 153.119 65.9617C152.585 66.1831 151.997 66.241 151.429 66.1281C150.862 66.0153 150.341 65.7367 149.932 65.3277C149.523 64.9187 149.244 64.3976 149.131 63.8302C149.019 63.2629 149.076 62.6748 149.298 62.1404C149.519 61.606 149.894 61.1492 150.375 60.8279C150.856 60.5065 151.421 60.335 152 60.335C152.776 60.335 153.519 60.6431 154.068 61.1916C154.616 61.7401 154.925 62.484 154.925 63.2596Z" fill="#C7C7C7"/>
<path d="M166.693 63.26C166.693 63.8406 166.52 64.4079 166.196 64.8899C165.873 65.3718 165.413 65.7466 164.876 65.9664C164.338 66.1863 163.748 66.2413 163.179 66.1245C162.611 66.0076 162.09 65.7242 161.683 65.3103C161.276 64.8963 161.001 64.3707 160.894 63.8002C160.786 63.2296 160.851 62.6401 161.08 62.1066C161.309 61.5731 161.691 61.1198 162.179 60.8044C162.666 60.489 163.236 60.3257 163.817 60.3354C164.198 60.3353 164.576 60.4113 164.929 60.5589C165.281 60.7064 165.6 60.9226 165.868 61.1949C166.135 61.4671 166.346 61.7899 166.488 62.1445C166.629 62.4991 166.699 62.8783 166.693 63.26Z" fill="#EBEBEB"/>
<path d="M178.468 63.2596C178.468 63.8381 178.297 64.4035 177.976 64.8845C177.654 65.3655 177.197 65.7403 176.663 65.9617C176.129 66.1831 175.541 66.241 174.973 66.1281C174.406 66.0153 173.885 65.7367 173.476 65.3277C173.067 64.9187 172.788 64.3976 172.675 63.8302C172.562 63.2629 172.62 62.6748 172.842 62.1404C173.063 61.606 173.438 61.1492 173.919 60.8279C174.4 60.5065 174.965 60.335 175.544 60.335C176.319 60.335 177.063 60.6431 177.612 61.1916C178.16 61.7401 178.468 62.484 178.468 63.2596Z" fill="#34A1D3"/>
<path d="M366.136 433.583C543.152 433.583 686.652 415.548 686.652 393.3C686.652 371.053 543.152 353.018 366.136 353.018C189.12 353.018 45.6201 371.053 45.6201 393.3C45.6201 415.548 189.12 433.583 366.136 433.583Z" fill="#EBEBEB"/>
<path d="M49.9956 340.315L129.03 340.081L208.065 339.993L366.134 339.827L524.203 339.993L603.238 340.081L682.273 340.315L603.238 340.559L524.203 340.637L366.134 340.802L208.065 340.637L129.03 340.549L49.9956 340.315Z" fill="#263238"/>
<path d="M554.991 100.734H176.547V353.885H554.991V100.734Z" fill="#DBDBDB"/>
<path d="M552.242 103.825H179.296V350.794H552.242V103.825Z" fill="#263238"/>
<path d="M604.282 372.866H127.257V390.239H604.282V372.866Z" fill="#C7C7C7"/>
<path d="M127.257 372.866L176.548 353.885H554.992L604.282 372.866H127.257Z" fill="#DBDBDB"/>
<path d="M180.954 366.139L212.765 353.885H518.784L550.595 366.139H180.954Z" fill="#263238"/>
<path d="M531.166 122.592H200.375V332.038H531.166V122.592Z" fill="white"/>
<path d="M531.175 122.592H200.101V130.654H531.175V122.592Z" fill="#455A64"/>
<path d="M206.506 126.628C206.506 127.025 206.387 127.413 206.165 127.743C205.944 128.072 205.628 128.328 205.26 128.478C204.892 128.628 204.488 128.665 204.099 128.583C203.71 128.502 203.354 128.307 203.077 128.023C202.799 127.738 202.613 127.378 202.541 126.987C202.47 126.596 202.517 126.193 202.675 125.828C202.834 125.464 203.098 125.156 203.433 124.942C203.768 124.728 204.159 124.619 204.556 124.629C205.078 124.642 205.574 124.858 205.938 125.231C206.302 125.605 206.506 126.106 206.506 126.628Z" fill="#C7C7C7"/>
<path d="M214.666 126.628C214.665 127.025 214.547 127.413 214.325 127.743C214.103 128.072 213.788 128.328 213.42 128.478C213.052 128.628 212.648 128.665 212.259 128.583C211.87 128.502 211.514 128.307 211.236 128.023C210.959 127.738 210.773 127.378 210.701 126.987C210.63 126.596 210.676 126.193 210.835 125.828C210.994 125.464 211.257 125.156 211.592 124.942C211.927 124.728 212.319 124.619 212.716 124.629C213.237 124.642 213.733 124.858 214.097 125.231C214.462 125.605 214.666 126.106 214.666 126.628Z" fill="white"/>
<path d="M222.826 126.628C222.826 127.023 222.709 127.41 222.489 127.738C222.27 128.067 221.958 128.323 221.592 128.474C221.227 128.626 220.825 128.665 220.438 128.588C220.05 128.511 219.694 128.321 219.414 128.041C219.135 127.762 218.945 127.405 218.868 127.018C218.79 126.63 218.83 126.228 218.981 125.863C219.132 125.498 219.389 125.186 219.717 124.966C220.046 124.747 220.432 124.629 220.828 124.629C221.358 124.629 221.866 124.84 222.241 125.215C222.616 125.59 222.826 126.098 222.826 126.628Z" fill="#34A1D3"/>
<path d="M216.265 237.677L344.902 237.677V147.588H216.265V237.677Z" fill="#EBEBEB"/>
<path d="M231.297 173.198C231.297 175.306 231.922 177.366 233.093 179.118C234.264 180.87 235.928 182.236 237.875 183.043C239.822 183.849 241.965 184.06 244.032 183.649C246.099 183.238 247.997 182.223 249.488 180.733C250.978 179.242 251.993 177.344 252.404 175.277C252.815 173.21 252.604 171.067 251.797 169.12C250.991 167.173 249.625 165.509 247.873 164.338C246.121 163.167 244.06 162.542 241.953 162.542C239.127 162.542 236.417 163.665 234.418 165.663C232.42 167.662 231.297 170.372 231.297 173.198Z" fill="#DBDBDB"/>
<path d="M273.365 218.268H344.913L309.134 169.786L273.365 218.268Z" fill="#C7C7C7"/>
<path d="M245.345 218.316H304.404L274.874 186.74L245.345 218.316Z" fill="#DBDBDB"/>
<path d="M344.902 218.268H216.265V237.678H344.902V218.268Z" fill="#DBDBDB"/>
<path d="M363.201 314.782H435.08V249.747H363.201V314.782Z" fill="#EBEBEB"/>
<path d="M372.491 263.961C372.167 265.582 372.374 267.263 373.079 268.758C373.785 270.252 374.953 271.48 376.41 272.26C377.868 273.04 379.537 273.33 381.172 273.087C382.807 272.845 384.321 272.084 385.489 270.915C386.658 269.746 387.42 268.233 387.662 266.598C387.904 264.963 387.614 263.293 386.834 261.836C386.055 260.379 384.827 259.211 383.332 258.505C381.838 257.799 380.156 257.593 378.535 257.916C377.043 258.214 375.673 258.947 374.598 260.023C373.522 261.099 372.789 262.469 372.491 263.961Z" fill="#DBDBDB"/>
<path d="M383.439 300.763H435.089L409.264 265.764L383.439 300.763Z" fill="#C7C7C7"/>
<path d="M363.21 300.792H405.852L384.531 277.999L363.21 300.792Z" fill="#DBDBDB"/>
<path d="M435.089 300.763H363.21V314.772H435.089V300.763Z" fill="#DBDBDB"/>
<path d="M478.511 147.598H363.21V153.418H478.511V147.598Z" fill="#A6A6A6"/>
<path d="M503.585 159.638H363.21V165.458H503.585V159.638Z" fill="#DBDBDB"/>
<path d="M503.585 171.678H363.21V177.498H503.585V171.678Z" fill="#DBDBDB"/>
<path d="M503.585 183.727H363.21V189.547H503.585V183.727Z" fill="#DBDBDB"/>
<path d="M503.585 195.767H363.21V201.587H503.585V195.767Z" fill="#DBDBDB"/>
<path d="M456.401 207.807H363.21V213.627H456.401V207.807Z" fill="#DBDBDB"/>
<path d="M492.491 249.737H441.494V255.47H492.491V249.737Z" fill="#A6A6A6"/>
<path d="M503.575 261.602H441.494V267.334H503.575V261.602Z" fill="#DBDBDB"/>
<path d="M503.575 273.466H441.494V279.198H503.575V273.466Z" fill="#DBDBDB"/>
<path d="M503.575 285.321H441.494V291.053H503.575V285.321Z" fill="#DBDBDB"/>
<path d="M503.575 297.186H441.494V302.918H503.575V297.186Z" fill="#DBDBDB"/>
<path d="M483.629 309.05H441.494V314.782H483.629V309.05Z" fill="#DBDBDB"/>
<path d="M503.585 220.578H363.21V237.678H503.585V220.578Z" fill="#34A1D3"/>
<path d="M344.902 249.737H216.265V266.837H344.902V249.737Z" fill="#A6A6A6"/>
<path d="M344.902 273.066H216.265V278.848H344.902V273.066Z" fill="#DBDBDB"/>
<path d="M344.902 285.038H216.265V290.819H344.902V285.038Z" fill="#DBDBDB"/>
<path d="M344.902 297.019H216.265V302.8H344.902V297.019Z" fill="#DBDBDB"/>
<path d="M304.405 308.991H216.265V314.772H304.405V308.991Z" fill="#DBDBDB"/>
<path d="M531.166 130.644H522.323V332.028H531.166V130.644Z" fill="#DBDBDB"/>
<path d="M526.739 236.04C526.134 236.04 525.554 235.8 525.126 235.372C524.698 234.944 524.458 234.364 524.458 233.759V134.924C524.458 134.319 524.698 133.739 525.126 133.311C525.554 132.883 526.134 132.643 526.739 132.643C527.344 132.643 527.925 132.883 528.352 133.311C528.78 133.739 529.021 134.319 529.021 134.924V233.759C529.021 234.364 528.78 234.944 528.352 235.372C527.925 235.8 527.344 236.04 526.739 236.04Z" fill="#A6A6A6"/>
<path d="M327.198 235.816V378.716C327.17 381.794 325.923 384.735 323.73 386.895C321.537 389.054 318.578 390.257 315.5 390.239H90.8843C87.8064 390.257 84.8467 389.054 82.6539 386.895C80.4611 384.735 79.2139 381.794 79.1855 378.716V235.816C79.2139 232.739 80.4614 229.799 82.6545 227.64C84.8476 225.482 87.8073 224.282 90.8843 224.302H315.441C316.97 224.284 318.487 224.568 319.905 225.137C321.324 225.706 322.617 226.55 323.709 227.62C324.801 228.689 325.671 229.964 326.27 231.37C326.869 232.776 327.184 234.287 327.198 235.816Z" fill="#455A64"/>
<path d="M310.166 231.273H96.6743V383.045H310.166V231.273Z" fill="white"/>
<path d="M109.377 308.172H204.088V241.85H109.377L109.377 308.172Z" fill="#EBEBEB"/>
<path d="M120.463 260.715C120.472 262.255 120.938 263.758 121.801 265.034C122.663 266.31 123.885 267.302 125.311 267.885C126.737 268.468 128.303 268.616 129.813 268.309C131.323 268.003 132.708 267.256 133.794 266.163C134.879 265.071 135.617 263.681 135.914 262.17C136.211 260.658 136.054 259.092 135.462 257.67C134.871 256.248 133.871 255.033 132.59 254.178C131.308 253.323 129.802 252.867 128.262 252.867C127.233 252.867 126.215 253.07 125.266 253.465C124.316 253.86 123.454 254.439 122.73 255.168C122.005 255.898 121.431 256.763 121.042 257.715C120.653 258.667 120.456 259.686 120.463 260.715Z" fill="#DBDBDB"/>
<path d="M151.415 293.89H204.089L177.747 258.199L151.415 293.89Z" fill="#C7C7C7"/>
<path d="M130.787 293.92H174.267L152.527 270.678L130.787 293.92Z" fill="#DBDBDB"/>
<path d="M204.088 293.89H109.377V308.182H204.088V293.89Z" fill="#DBDBDB"/>
<path d="M234.135 371.19H297.464V326.842H234.135V371.19Z" fill="#EBEBEB"/>
<path d="M241.535 339.457C241.533 340.497 241.839 341.514 242.416 342.379C242.992 343.245 243.812 343.92 244.772 344.319C245.732 344.718 246.789 344.823 247.809 344.622C248.828 344.42 249.766 343.92 250.502 343.186C251.237 342.451 251.739 341.515 251.942 340.496C252.146 339.476 252.042 338.419 251.645 337.458C251.248 336.497 250.574 335.676 249.71 335.098C248.845 334.521 247.829 334.212 246.789 334.212C246.1 334.211 245.417 334.346 244.779 334.609C244.142 334.872 243.562 335.258 243.074 335.745C242.586 336.232 242.199 336.811 241.935 337.448C241.671 338.085 241.535 338.768 241.535 339.457Z" fill="#DBDBDB"/>
<path d="M262.251 361.636H297.464L279.858 337.771L262.251 361.636Z" fill="#C7C7C7"/>
<path d="M248.457 361.665H277.528L262.993 346.115L248.457 361.665Z" fill="#DBDBDB"/>
<path d="M297.465 361.646H234.136V371.199H297.465V361.646Z" fill="#DBDBDB"/>
<path d="M297.474 241.86H212.258V258.063H297.474V241.86Z" fill="#34A1D3"/>
<path d="M297.474 264.215H212.258V266.486H297.474V264.215Z" fill="#DBDBDB"/>
<path d="M297.474 269.547H212.258V271.819H297.474V269.547Z" fill="#DBDBDB"/>
<path d="M297.474 274.88H212.258V277.152H297.474V274.88Z" fill="#DBDBDB"/>
<path d="M297.474 280.213H212.258V282.484H297.474V280.213Z" fill="#DBDBDB"/>
<path d="M297.474 285.545H212.258V287.817H297.474V285.545Z" fill="#DBDBDB"/>
<path d="M297.474 290.878H212.258V293.149H297.474V290.878Z" fill="#DBDBDB"/>
<path d="M261.247 296.21H212.258V298.482H261.247V296.21Z" fill="#DBDBDB"/>
<path d="M225.128 358.848H139.912V361.119H225.128V358.848Z" fill="#DBDBDB"/>
<path d="M225.128 326.852H139.912V329.123H225.128V326.852Z" fill="#DBDBDB"/>
<path d="M225.128 332.184H139.912V334.456H225.128V332.184Z" fill="#DBDBDB"/>
<path d="M225.128 337.517H139.912V339.788H225.128V337.517Z" fill="#DBDBDB"/>
<path d="M198.026 342.85H139.912V345.121H198.026V342.85Z" fill="#DBDBDB"/>
<path d="M225.128 353.515H139.912V355.786H225.128V353.515Z" fill="#DBDBDB"/>
<path d="M198.026 364.18H139.912V366.452H198.026V364.18Z" fill="#DBDBDB"/>
<path d="M297.473 315.582H109.377V320.944H297.473V315.582Z" fill="#455A64"/>
<path d="M133.73 326.852H109.377V371.199H133.73V326.852Z" fill="#34A1D3"/>
<path d="M89.4601 289.201H89.3138C88.6408 289.201 88.0952 289.747 88.0952 290.42V324.102C88.0952 324.775 88.6408 325.321 89.3138 325.321H89.4601C90.1331 325.321 90.6787 324.775 90.6787 324.102V290.42C90.6787 289.747 90.1331 289.201 89.4601 289.201Z" fill="#37474F"/>
<path d="M324.215 307.256C324.217 308.183 323.944 309.089 323.43 309.86C322.917 310.631 322.186 311.232 321.331 311.587C320.475 311.943 319.534 312.036 318.625 311.856C317.716 311.676 316.882 311.23 316.227 310.575C315.572 309.92 315.126 309.085 314.945 308.176C314.765 307.268 314.859 306.326 315.214 305.471C315.569 304.615 316.171 303.884 316.942 303.371C317.713 302.858 318.619 302.585 319.545 302.586C320.783 302.589 321.969 303.082 322.844 303.957C323.72 304.832 324.212 306.018 324.215 307.256Z" fill="#37474F"/>
<path d="M638.238 193.701H551.365C549.016 193.726 546.772 194.683 545.127 196.361C543.482 198.039 542.57 200.301 542.591 202.65V381.446C542.573 383.794 543.486 386.055 545.13 387.732C546.775 389.409 549.017 390.367 551.365 390.395H638.218C640.567 390.367 642.809 389.409 644.453 387.732C646.098 386.055 647.011 383.794 646.993 381.446V202.67C647.019 200.32 646.111 198.056 644.47 196.375C642.829 194.693 640.587 193.732 638.238 193.701ZM641.543 375.918C641.543 380.627 638.014 384.429 633.666 384.429H555.967C551.609 384.429 548.09 380.627 548.09 375.918V209.426C548.09 199.843 551.609 199.375 555.967 199.375H571.565C572.472 199.375 573.213 200.349 573.213 201.675V202.221C573.213 205.214 574.85 205.224 576.859 205.224H612.784C614.802 205.224 616.42 205.224 616.42 202.221V201.695C616.42 200.418 617.151 199.394 618.077 199.394H633.675C638.023 199.394 641.553 200.671 641.553 209.445L641.543 375.918Z" fill="#455A64"/>
<path d="M599.719 201.49H589.902C589.742 201.49 589.588 201.426 589.475 201.313C589.362 201.2 589.298 201.046 589.298 200.886C589.298 200.725 589.362 200.572 589.475 200.458C589.588 200.345 589.742 200.281 589.902 200.281H599.719C599.881 200.281 600.035 200.345 600.15 200.458C600.265 200.571 600.331 200.724 600.334 200.886C600.331 201.047 600.265 201.201 600.15 201.314C600.035 201.427 599.881 201.49 599.719 201.49Z" fill="white"/>
<path d="M641.542 209.426V375.918C641.542 380.627 638.013 384.429 633.664 384.429H555.965C551.608 384.429 548.088 380.627 548.088 375.918V209.426C548.088 199.842 551.608 199.375 555.965 199.375H571.564C572.47 199.375 573.211 200.349 573.211 201.675V202.221C573.211 205.214 574.849 205.224 576.857 205.224H612.782C614.8 205.224 616.419 205.224 616.419 202.221V201.695C616.419 200.418 617.15 199.394 618.076 199.394H633.674C638.013 199.375 641.542 200.652 641.542 209.426Z" fill="white"/>
<path d="M641.542 209.426V221.846H548.079V209.426C548.079 199.842 551.608 199.375 555.966 199.375H571.564C572.461 199.375 573.202 200.349 573.202 201.675V202.221C573.202 205.214 574.84 205.224 576.838 205.224H612.783C614.801 205.224 616.429 205.224 616.429 202.221V201.695C616.429 200.418 617.16 199.394 618.076 199.394H633.675C638.013 199.375 641.542 200.652 641.542 209.426Z" fill="#34A1D3"/>
<path d="M556.942 215.782L554.183 213.198L556.942 210.615L557.37 211.063L555.099 213.198L557.37 215.333L556.942 215.782Z" fill="white"/>
<path d="M633.11 216.016H631.16V215.343C631.16 215.324 631.154 215.306 631.144 215.291C631.134 215.275 631.119 215.263 631.102 215.255L630.887 215.129C630.87 215.121 630.852 215.118 630.834 215.118C630.815 215.118 630.797 215.121 630.78 215.129L630.185 215.48L629.21 213.793L629.805 213.452C629.817 213.436 629.823 213.418 629.823 213.398C629.823 213.379 629.817 213.36 629.805 213.345V213.111C629.817 213.095 629.823 213.076 629.823 213.057C629.823 213.038 629.817 213.019 629.805 213.003L629.21 212.662L630.185 210.976L630.78 211.317C630.796 211.326 630.815 211.331 630.834 211.331C630.853 211.331 630.871 211.326 630.887 211.317L631.102 211.19C631.119 211.183 631.134 211.17 631.144 211.155C631.154 211.139 631.16 211.121 631.16 211.102V210.41H633.11V211.102C633.11 211.121 633.116 211.139 633.126 211.155C633.137 211.17 633.151 211.183 633.169 211.19L633.383 211.317C633.399 211.326 633.418 211.331 633.437 211.331C633.455 211.331 633.474 211.326 633.49 211.317L634.085 210.976L635.06 212.662L634.465 213.003C634.453 213.019 634.447 213.038 634.447 213.057C634.447 213.076 634.453 213.095 634.465 213.111V213.345C634.453 213.36 634.447 213.379 634.447 213.398C634.447 213.418 634.453 213.436 634.465 213.452L635.06 213.793L634.085 215.48L633.49 215.138C633.474 215.129 633.455 215.124 633.437 215.124C633.418 215.124 633.399 215.129 633.383 215.138L633.169 215.265C633.151 215.273 633.137 215.285 633.126 215.3C633.116 215.316 633.11 215.334 633.11 215.353V216.016ZM631.648 215.528H632.623V215.343C632.624 215.235 632.655 215.128 632.711 215.036C632.768 214.943 632.848 214.867 632.944 214.817C633.003 214.79 633.058 214.757 633.11 214.719C633.205 214.664 633.312 214.636 633.422 214.636C633.532 214.636 633.639 214.664 633.734 214.719L633.909 214.826L634.397 213.978L634.221 213.871C634.127 213.818 634.05 213.74 633.998 213.645C633.946 213.55 633.922 213.443 633.929 213.335V213.14C633.923 213.031 633.947 212.922 633.999 212.826C634.05 212.729 634.127 212.649 634.221 212.594L634.397 212.496L633.909 211.648L633.734 211.756C633.641 211.81 633.535 211.839 633.427 211.839C633.319 211.839 633.213 211.81 633.12 211.756L632.944 211.658C632.848 211.607 632.768 211.532 632.711 211.439C632.655 211.346 632.624 211.24 632.623 211.132V210.927H631.648V211.132C631.646 211.24 631.616 211.346 631.559 211.439C631.502 211.532 631.422 211.607 631.326 211.658C631.268 211.685 631.212 211.718 631.16 211.756C631.065 211.81 630.958 211.839 630.848 211.839C630.739 211.839 630.631 211.81 630.536 211.756L630.361 211.648L629.873 212.496L630.049 212.594C630.143 212.649 630.22 212.729 630.272 212.826C630.323 212.922 630.347 213.031 630.341 213.14V213.335C630.347 213.444 630.323 213.553 630.272 213.649C630.22 213.745 630.143 213.825 630.049 213.881L629.873 213.978L630.361 214.826L630.536 214.719C630.631 214.664 630.739 214.636 630.848 214.636C630.958 214.636 631.065 214.664 631.16 214.719C631.212 214.757 631.268 214.79 631.326 214.817C631.422 214.867 631.502 214.943 631.559 215.036C631.616 215.128 631.646 215.235 631.648 215.343V215.528ZM632.135 214.641C631.85 214.641 631.571 214.557 631.334 214.398C631.096 214.239 630.911 214.014 630.802 213.751C630.693 213.487 630.664 213.197 630.72 212.917C630.776 212.637 630.913 212.38 631.115 212.178C631.317 211.976 631.574 211.839 631.854 211.783C632.134 211.728 632.424 211.756 632.687 211.865C632.951 211.975 633.176 212.159 633.335 212.397C633.493 212.634 633.578 212.913 633.578 213.198C633.575 213.58 633.423 213.946 633.153 214.216C632.883 214.486 632.517 214.639 632.135 214.641ZM632.135 212.243C631.942 212.243 631.754 212.3 631.594 212.407C631.433 212.514 631.308 212.667 631.234 212.845C631.161 213.023 631.141 213.219 631.179 213.408C631.217 213.597 631.309 213.771 631.446 213.907C631.582 214.044 631.756 214.136 631.945 214.174C632.134 214.212 632.33 214.192 632.508 214.119C632.686 214.045 632.839 213.92 632.946 213.759C633.053 213.599 633.11 213.411 633.11 213.218C633.11 212.959 633.007 212.711 632.825 212.528C632.642 212.346 632.394 212.243 632.135 212.243Z" fill="white"/>
<path d="M568.845 203.109L568.699 203.265L568.611 203.352C568.42 203.158 568.193 203.003 567.942 202.898C567.69 202.792 567.421 202.738 567.148 202.738C566.876 202.738 566.606 202.792 566.355 202.898C566.104 203.003 565.877 203.158 565.686 203.352L565.608 203.265L565.462 203.119C565.519 203.058 565.581 203.003 565.647 202.953C565.781 202.841 565.928 202.746 566.086 202.67C566.272 202.58 566.468 202.515 566.671 202.475H566.963H567.412C567.595 202.498 567.774 202.54 567.948 202.602C568.073 202.65 568.193 202.709 568.309 202.777C568.433 202.844 568.55 202.922 568.66 203.011L568.816 203.158L568.845 203.109Z" fill="white"/>
<path d="M566.183 203.82L565.949 203.586C566.108 203.427 566.296 203.301 566.504 203.215C566.711 203.128 566.933 203.084 567.158 203.084C567.383 203.084 567.605 203.128 567.813 203.215C568.02 203.301 568.208 203.427 568.367 203.586L568.133 203.83C567.874 203.573 567.523 203.428 567.158 203.428C566.793 203.428 566.442 203.573 566.183 203.83V203.82Z" fill="white"/>
<path d="M567.939 204.054L567.705 204.298C567.641 204.233 567.566 204.182 567.482 204.146C567.398 204.111 567.308 204.093 567.218 204.093C567.127 204.093 567.037 204.111 566.953 204.146C566.869 204.182 566.794 204.233 566.73 204.298L566.496 204.054C566.689 203.866 566.948 203.761 567.218 203.761C567.487 203.761 567.746 203.866 567.939 204.054Z" fill="white"/>
<path d="M567.374 204.513C567.374 204.555 567.361 204.597 567.338 204.632C567.314 204.667 567.281 204.695 567.241 204.711C567.202 204.727 567.159 204.732 567.117 204.723C567.076 204.715 567.037 204.695 567.007 204.665C566.977 204.635 566.957 204.596 566.948 204.555C566.94 204.513 566.944 204.47 566.961 204.43C566.977 204.391 567.004 204.358 567.04 204.334C567.075 204.31 567.117 204.298 567.159 204.298C567.188 204.296 567.216 204.301 567.243 204.311C567.27 204.322 567.294 204.337 567.314 204.358C567.334 204.378 567.35 204.402 567.36 204.429C567.371 204.456 567.375 204.484 567.374 204.513Z" fill="white"/>
<path d="M554.183 203.567C554.183 203.404 554.247 203.247 554.362 203.132C554.478 203.017 554.634 202.952 554.797 202.952C554.961 202.952 555.118 203.017 555.235 203.132C555.351 203.247 555.418 203.403 555.421 203.567C555.421 203.732 555.355 203.891 555.238 204.008C555.121 204.125 554.962 204.191 554.797 204.191C554.633 204.188 554.477 204.121 554.362 204.004C554.247 203.888 554.183 203.73 554.183 203.567Z" fill="white"/>
<path d="M556.132 203.567C556.132 203.404 556.197 203.247 556.312 203.132C556.427 203.017 556.584 202.952 556.747 202.952C556.91 202.952 557.068 203.017 557.184 203.132C557.301 203.247 557.368 203.403 557.37 203.567C557.37 203.732 557.305 203.891 557.188 204.008C557.071 204.125 556.912 204.191 556.747 204.191C556.583 204.188 556.427 204.121 556.312 204.004C556.197 203.888 556.132 203.73 556.132 203.567Z" fill="white"/>
<path d="M558.081 203.566C558.1 203.416 558.173 203.277 558.287 203.176C558.401 203.076 558.548 203.02 558.7 203.02C558.852 203.02 558.999 203.076 559.113 203.176C559.227 203.277 559.3 203.416 559.319 203.566C559.33 203.654 559.322 203.743 559.296 203.828C559.27 203.912 559.227 203.991 559.168 204.057C559.109 204.123 559.037 204.176 558.957 204.213C558.876 204.249 558.789 204.268 558.7 204.268C558.612 204.268 558.524 204.249 558.443 204.213C558.363 204.176 558.291 204.123 558.232 204.057C558.174 203.991 558.13 203.912 558.104 203.828C558.078 203.743 558.07 203.654 558.081 203.566Z" fill="white"/>
<path d="M560.031 203.567C560.031 203.443 560.067 203.323 560.136 203.22C560.204 203.117 560.302 203.037 560.416 202.99C560.53 202.943 560.655 202.931 560.776 202.955C560.897 202.979 561.009 203.038 561.096 203.125C561.183 203.213 561.243 203.324 561.267 203.445C561.291 203.566 561.278 203.691 561.231 203.805C561.184 203.919 561.104 204.017 561.001 204.085C560.899 204.154 560.778 204.19 560.655 204.19C560.489 204.19 560.331 204.125 560.213 204.008C560.096 203.891 560.031 203.732 560.031 203.567Z" fill="white"/>
<path d="M561.981 203.567C561.984 203.403 562.051 203.247 562.168 203.132C562.284 203.017 562.442 202.952 562.605 202.952C562.768 202.952 562.924 203.017 563.04 203.132C563.155 203.247 563.22 203.404 563.22 203.567C563.22 203.73 563.155 203.888 563.04 204.004C562.925 204.121 562.769 204.188 562.605 204.191C562.44 204.191 562.281 204.125 562.164 204.008C562.047 203.891 561.981 203.732 561.981 203.567Z" fill="white"/>
<path d="M634.523 204.912H629.492V202.592H634.523V204.912ZM629.736 204.668H634.279V202.836H629.736V204.668Z" fill="white"/>
<path d="M633.148 202.981H629.901V204.522H633.148V202.981Z" fill="white"/>
<path d="M634.982 203.128H634.534V204.376H634.982V203.128Z" fill="white"/>
<path d="M562.283 374.251H561.571V377.517H560.245V375.85H557.896V377.517H556.57V374.251H555.858L559.076 370.936L562.283 374.251Z" fill="#EBEBEB"/>
<path d="M633.782 370.936H626.031V372.048H633.782V370.936Z" fill="#EBEBEB"/>
<path d="M633.782 373.666H626.031V374.777H633.782V373.666Z" fill="#EBEBEB"/>
<path d="M633.782 376.406H626.031V377.517H633.782V376.406Z" fill="#EBEBEB"/>
<path d="M562.136 238.195C561.313 238.708 560.362 238.98 559.392 238.98C558.422 238.98 557.471 238.708 556.648 238.195C555.683 237.598 554.939 236.702 554.529 235.645C554.119 234.587 554.065 233.424 554.375 232.333C554.685 231.242 555.343 230.281 556.248 229.597C557.154 228.914 558.257 228.544 559.392 228.544C560.526 228.544 561.63 228.914 562.535 229.597C563.441 230.281 564.098 231.242 564.409 232.333C564.719 233.424 564.665 234.587 564.255 235.645C563.845 236.702 563.101 237.598 562.136 238.195Z" fill="#DBDBDB"/>
<path d="M560.978 233.164C560.978 233.479 560.884 233.787 560.709 234.048C560.534 234.31 560.286 234.513 559.995 234.633C559.704 234.753 559.384 234.784 559.075 234.722C558.767 234.66 558.484 234.508 558.262 234.284C558.04 234.061 557.889 233.777 557.829 233.468C557.769 233.159 557.802 232.84 557.924 232.549C558.045 232.259 558.251 232.012 558.513 231.838C558.776 231.665 559.084 231.573 559.399 231.575C559.818 231.578 560.22 231.746 560.516 232.044C560.812 232.342 560.978 232.745 560.978 233.164Z" fill="white"/>
<path d="M562.136 237.542V238.195C561.313 238.708 560.362 238.98 559.392 238.98C558.422 238.98 557.471 238.708 556.647 238.195V237.542C556.689 236.842 556.996 236.185 557.507 235.704C558.017 235.224 558.691 234.956 559.392 234.956C560.093 234.956 560.767 235.224 561.277 235.704C561.787 236.185 562.094 236.842 562.136 237.542Z" fill="white"/>
<path d="M604.292 228.845H571.146V231.575H604.292V228.845Z" fill="#EBEBEB"/>
<path d="M600.08 233.398H571.146V235.211H600.08V233.398Z" fill="#EBEBEB"/>
<path d="M618.984 236.888H571.146V238.702H618.984V236.888Z" fill="#EBEBEB"/>
<path d="M548.089 308.728H641.542V243.293H548.089V308.728Z" fill="#EBEBEB"/>
<path d="M559.006 261.894C559.006 263.425 559.46 264.922 560.311 266.195C561.161 267.468 562.37 268.46 563.785 269.046C565.199 269.632 566.756 269.785 568.257 269.486C569.759 269.188 571.138 268.45 572.22 267.368C573.303 266.285 574.04 264.906 574.339 263.405C574.638 261.903 574.484 260.347 573.898 258.932C573.313 257.518 572.32 256.309 571.047 255.458C569.775 254.608 568.278 254.154 566.747 254.154C564.694 254.154 562.725 254.969 561.274 256.421C559.822 257.873 559.006 259.842 559.006 261.894Z" fill="#DBDBDB"/>
<path d="M589.58 294.631H641.542L615.561 259.408L589.58 294.631Z" fill="#C7C7C7"/>
<path d="M569.206 294.661H612.111L590.653 271.731L569.206 294.661Z" fill="#DBDBDB"/>
<path d="M641.542 294.631H548.088V308.728H641.542V294.631Z" fill="#DBDBDB"/>
<path d="M562.136 343.23C561.313 343.743 560.362 344.015 559.392 344.015C558.422 344.015 557.471 343.743 556.648 343.23C555.683 342.633 554.939 341.738 554.529 340.68C554.119 339.622 554.065 338.459 554.375 337.368C554.685 336.277 555.343 335.316 556.248 334.633C557.154 333.949 558.257 333.579 559.392 333.579C560.526 333.579 561.63 333.949 562.535 334.633C563.441 335.316 564.098 336.277 564.409 337.368C564.719 338.459 564.665 339.622 564.255 340.68C563.845 341.738 563.101 342.633 562.136 343.23Z" fill="#DBDBDB"/>
<path d="M559.398 339.788C560.276 339.788 560.987 339.077 560.987 338.199C560.987 337.322 560.276 336.61 559.398 336.61C558.521 336.61 557.809 337.322 557.809 338.199C557.809 339.077 558.521 339.788 559.398 339.788Z" fill="white"/>
<path d="M562.136 342.577V343.23C561.313 343.743 560.362 344.016 559.392 344.016C558.422 344.016 557.471 343.743 556.647 343.23V342.577C556.689 341.877 556.996 341.22 557.507 340.739C558.017 340.259 558.691 339.991 559.392 339.991C560.093 339.991 560.767 340.259 561.277 340.739C561.787 341.22 562.094 341.877 562.136 342.577Z" fill="white"/>
<path d="M613.768 333.881H571.146V336.61H613.768V333.881Z" fill="#EBEBEB"/>
<path d="M625.564 338.433H571.146V340.246H625.564V338.433Z" fill="#EBEBEB"/>
<path d="M589.678 341.923H571.146V343.737H589.678V341.923Z" fill="#EBEBEB"/>
<path d="M641.522 348.328H548.088V364.307H641.522V348.328Z" fill="#EBEBEB"/>
<path d="M574.031 364.317H559.466C560.001 362.814 560.989 361.513 562.293 360.594C563.596 359.674 565.153 359.181 566.748 359.181C568.344 359.181 569.9 359.674 571.204 360.594C572.508 361.513 573.495 362.814 574.031 364.317Z" fill="#DBDBDB"/>
<path d="M554.366 316.391C554.221 315.797 554.256 315.174 554.466 314.6C554.676 314.025 555.051 313.526 555.544 313.165C556.037 312.805 556.627 312.598 557.237 312.572C557.848 312.546 558.453 312.702 558.975 313.02C559.497 313.337 559.913 313.803 560.171 314.357C560.429 314.911 560.516 315.529 560.423 316.133C560.329 316.737 560.058 317.3 559.645 317.75C559.231 318.2 558.694 318.518 558.1 318.662C557.706 318.76 557.296 318.778 556.894 318.717C556.493 318.655 556.107 318.515 555.76 318.303C555.413 318.092 555.112 317.815 554.872 317.486C554.633 317.158 554.461 316.786 554.366 316.391Z" fill="#EBEBEB"/>
<path fill-rule="evenodd" clip-rule="evenodd" d="M556.95 316.888C556.862 316.839 556.794 316.761 556.687 316.771C556.58 316.781 556.687 316.771 556.687 316.722V315.484C556.68 315.474 556.676 315.462 556.676 315.45C556.676 315.438 556.68 315.426 556.687 315.416C556.999 315.26 557.135 314.948 557.33 314.675C557.433 314.537 557.507 314.379 557.545 314.211C557.584 314.044 557.587 313.869 557.554 313.7C557.554 313.613 557.554 313.574 557.671 313.554C557.712 313.537 557.758 313.535 557.8 313.547C557.843 313.56 557.88 313.586 557.905 313.622C557.997 313.792 558.057 313.977 558.081 314.168C558.1 314.32 558.1 314.474 558.081 314.626C558.081 314.743 558.032 314.851 558.013 314.968C557.993 315.085 558.071 314.968 558.1 314.968H559.144C559.29 314.968 559.368 314.968 559.387 315.104C559.398 315.165 559.388 315.227 559.36 315.281C559.332 315.336 559.287 315.38 559.231 315.406C559.231 315.406 559.163 315.406 559.163 315.455C559.163 315.504 559.163 315.455 559.231 315.504C559.3 315.553 559.329 315.767 559.231 315.874C559.134 315.982 559.134 315.874 559.134 315.933C559.134 315.991 559.192 315.933 559.222 316.011C559.244 316.039 559.259 316.073 559.266 316.108C559.273 316.144 559.272 316.18 559.263 316.215C559.253 316.25 559.236 316.283 559.212 316.31C559.188 316.337 559.158 316.358 559.124 316.371H559.056C559.056 316.371 559.056 316.371 559.056 316.42C559.091 316.437 559.121 316.463 559.141 316.496C559.162 316.529 559.173 316.567 559.173 316.605C559.173 316.644 559.162 316.682 559.141 316.715C559.121 316.748 559.091 316.774 559.056 316.791C558.996 316.81 558.931 316.81 558.871 316.791H557.233C557.226 316.82 557.212 316.847 557.192 316.869C557.172 316.892 557.147 316.909 557.119 316.919C557.09 316.928 557.06 316.931 557.03 316.925C557.001 316.92 556.973 316.907 556.95 316.888Z" fill="white"/>
<path fill-rule="evenodd" clip-rule="evenodd" d="M555.391 316.167C555.391 315.904 555.391 315.64 555.391 315.377C555.391 315.328 555.391 315.299 555.469 315.299C555.781 315.299 556.102 315.299 556.444 315.299C556.502 315.299 556.512 315.299 556.512 315.377V316.956C556.512 317.025 556.512 317.044 556.424 317.044H555.498C555.42 317.044 555.41 317.044 555.41 316.947C555.4 316.732 555.391 316.43 555.391 316.167Z" fill="white"/>
<path d="M560.86 316.391C560.716 315.797 560.751 315.175 560.96 314.601C561.17 314.027 561.545 313.529 562.038 313.168C562.531 312.807 563.119 312.601 563.729 312.574C564.34 312.548 564.944 312.703 565.466 313.02C565.988 313.337 566.405 313.801 566.663 314.354C566.921 314.908 567.01 315.525 566.918 316.129C566.825 316.733 566.556 317.296 566.144 317.746C565.733 318.197 565.196 318.516 564.603 318.662C564.208 318.761 563.797 318.781 563.395 318.72C562.992 318.659 562.606 318.519 562.258 318.308C561.909 318.096 561.607 317.818 561.367 317.489C561.127 317.16 560.954 316.787 560.86 316.391Z" fill="#34A1D3"/>
<path d="M565.442 316.05C565.442 316.469 565.275 316.87 564.979 317.167C564.683 317.463 564.281 317.629 563.862 317.629C563.444 317.629 563.042 317.463 562.746 317.167C562.449 316.87 562.283 316.469 562.283 316.05C562.182 315.902 562.114 315.735 562.084 315.559C562.053 315.383 562.061 315.202 562.106 315.029C562.151 314.856 562.233 314.695 562.346 314.557C562.459 314.418 562.601 314.306 562.761 314.227C563.638 313.964 563.862 315.494 563.862 315.494C563.862 315.494 564.087 313.964 564.974 314.227C565.588 314.412 565.832 315.26 565.442 316.05Z" fill="white"/>
<path d="M615.562 315.26H571.662V317.044H615.562V315.26Z" fill="#EBEBEB"/>
<path d="M548.088 325.916L559.768 325.74L571.447 325.643L594.805 325.555L618.164 325.643L629.843 325.74L641.522 325.916L629.843 326.101L618.164 326.199L594.805 326.286L571.447 326.199L559.768 326.101L548.088 325.916Z" fill="#EBEBEB"/>
<path d="M407.734 410.371C407.002 408.304 369.264 360.534 366.729 359.676C366.447 359.559 350.273 371.589 350.273 371.589C349.61 372.506 318.258 366.559 318.258 366.559L318.736 404.219L375.562 401.821C375.562 401.821 383.361 406.179 390.439 409.708C393.46 411.331 396.579 412.763 399.778 413.997C402.654 414.65 408.474 412.418 407.734 410.371Z" fill="#EB9481"/>
<path d="M399.798 413.977C396.601 412.745 393.485 411.312 390.468 409.688C383.371 406.159 375.591 401.801 375.591 401.801L362.918 402.337L342.445 370.78C346.812 371.462 350.059 371.852 350.244 371.56C350.244 371.56 366.408 359.539 366.7 359.656C369.235 360.534 406.973 408.304 407.704 410.351C408.435 412.398 402.654 414.66 399.798 413.977Z" fill="white"/>
<path d="M408.055 410.419C407.285 408.314 369.381 360.573 366.778 359.666C365.803 359.315 357.868 364.443 350.254 371.57L374.724 402.308C374.724 402.308 396.951 413.5 399.905 414.192C402.859 414.884 408.835 412.535 408.055 410.419Z" fill="#34A1D3"/>
<path d="M405.619 411.297C399.067 403.497 373.389 371.18 367.51 362.932C367.461 362.864 367.51 362.825 367.51 362.932C374.168 370.565 399.594 403.039 405.697 411.228C405.882 411.297 405.755 411.423 405.619 411.297Z" fill="#263238"/>
<path d="M395.773 412.486C395.041 411.614 394.498 410.6 394.179 409.507C393.86 408.415 393.772 407.268 393.92 406.139C394.169 404.11 395.193 402.255 396.777 400.963C396.826 400.963 396.894 401.011 396.845 401.06C395.475 402.589 394.64 404.521 394.464 406.566C394.288 408.611 394.781 410.658 395.87 412.398C395.919 412.466 395.821 412.544 395.773 412.486Z" fill="#263238"/>
<path d="M377.542 404.19C374.949 401.021 373.136 396.39 374.179 392.335C374.179 392.179 374.442 392.237 374.461 392.335C375.219 396.3 376.399 400.173 377.981 403.887C378.021 403.945 378.036 404.017 378.023 404.087C378.011 404.156 377.971 404.218 377.913 404.258C377.854 404.298 377.783 404.313 377.713 404.3C377.644 404.288 377.582 404.248 377.542 404.19Z" fill="#263238"/>
<path d="M380.466 405.896C377.883 402.727 376.059 398.096 377.103 394.041C377.103 393.885 377.366 393.943 377.395 394.041C378.145 398.007 379.322 401.88 380.905 405.593C380.945 405.652 380.96 405.723 380.947 405.793C380.934 405.862 380.895 405.924 380.836 405.964C380.808 405.984 380.775 405.998 380.741 406.005C380.707 406.012 380.671 406.013 380.637 406.006C380.568 405.994 380.506 405.954 380.466 405.896Z" fill="#263238"/>
<path d="M383.39 407.602C380.807 404.433 378.993 399.802 380.027 395.747C380.027 395.591 380.29 395.649 380.319 395.747C381.076 399.711 382.252 403.584 383.829 407.299C383.869 407.358 383.884 407.429 383.871 407.499C383.859 407.568 383.819 407.63 383.76 407.67C383.702 407.71 383.631 407.725 383.561 407.712C383.492 407.7 383.43 407.66 383.39 407.602Z" fill="#263238"/>
<path d="M386.325 409.347C383.732 406.178 381.919 401.548 382.952 397.492C382.952 397.336 383.216 397.395 383.245 397.492C384 401.458 385.18 405.331 386.764 409.045C386.804 409.103 386.82 409.174 386.807 409.244C386.794 409.313 386.754 409.375 386.696 409.415C386.667 409.435 386.635 409.449 386.6 409.456C386.566 409.463 386.531 409.464 386.497 409.458C386.427 409.445 386.366 409.405 386.325 409.347Z" fill="#263238"/>
<path d="M361.523 370.965C358.676 367.358 364.272 362.942 367.118 366.549C369.965 370.156 364.369 374.572 361.523 370.965Z" fill="#263238"/>
<path d="M376.234 410.448C377.092 406.948 376.4 403.205 376.166 399.666C376.154 399.589 376.125 399.515 376.079 399.452C376.034 399.388 375.974 399.336 375.904 399.3C375.835 399.264 375.758 399.245 375.68 399.244C375.602 399.243 375.525 399.261 375.455 399.296C375.444 399.283 375.43 399.273 375.415 399.266C375.4 399.26 375.383 399.256 375.367 399.256C375.35 399.256 375.334 399.26 375.319 399.266C375.304 399.273 375.29 399.283 375.279 399.296C372.539 401.865 370.522 405.109 369.43 408.703C368.835 410.809 369.137 413.899 371.769 414.455C374.402 415.011 375.737 412.496 376.234 410.448ZM373.7 412.7C369.956 415.157 370.141 409.883 370.648 408.352C370.985 407.349 371.396 406.371 371.877 405.428C372.887 403.514 373.993 401.653 375.191 399.851C375.191 401.596 375.357 403.322 375.425 405.057C375.513 407.173 375.757 411.355 373.7 412.7Z" fill="#263238"/>
<path d="M364.186 389.518C362.294 391.467 363.737 394.178 365.404 395.601C368.302 398.003 371.783 399.597 375.494 400.222C375.582 400.222 375.621 400.173 375.621 400.105C375.7 400.097 375.775 400.07 375.841 400.027C375.907 399.984 375.962 399.925 376.001 399.857C376.04 399.788 376.062 399.711 376.066 399.632C376.069 399.553 376.054 399.475 376.021 399.403C374.266 396.322 372.775 392.823 370.172 390.376C368.612 388.943 365.999 387.714 364.186 389.518ZM372.404 395.279C373.311 396.771 374.13 398.301 375.075 399.764C373.125 398.857 371.117 398.038 369.226 396.937C368.314 396.417 367.438 395.838 366.603 395.201C365.336 394.226 362.285 389.898 366.759 389.888C369.255 389.849 371.361 393.505 372.424 395.279H372.404Z" fill="#263238"/>
<path d="M316.415 357.58L290.785 355.562C290.785 355.562 253.739 344.838 232.369 350.444C207.841 356.888 204.38 385.54 229.318 397.024C254.022 408.372 362.596 404.2 362.596 404.2L339.315 369.718C339.315 369.718 303.556 361.324 272.252 363.03L316.571 368.129L316.415 357.58Z" fill="#37474F"/>
<path d="M316.151 364.872C312.339 364.248 308.479 363.897 304.638 363.576C300.797 363.254 296.839 362.932 292.939 362.688C285.18 362.182 277.4 362.064 269.629 362.337C268.898 362.337 268.177 362.406 267.445 362.454C267.288 362.409 267.129 362.374 266.968 362.347C266.597 362.259 266.217 362.172 265.847 362.113C265.135 361.996 264.433 361.909 263.721 361.811C262.249 361.616 260.797 361.489 259.305 361.246C259.217 361.246 259.178 361.372 259.305 361.382C260.787 361.684 262.23 362.074 263.721 362.357L264.999 362.601C262.152 362.805 259.315 363.088 256.478 363.41C256.39 363.41 256.39 363.556 256.478 363.546C260.377 363.234 264.277 363.127 268.118 363.117C271.959 363.108 275.81 363.117 279.661 363.244C287.46 363.527 295.259 364.063 302.98 364.716C307.328 365.077 311.696 365.525 316.063 365.613C316.492 365.633 316.58 364.94 316.151 364.872Z" fill="#263238"/>
<path d="M351.512 403.41C350.079 401.216 348.841 398.867 347.524 396.586L343.547 389.761C340.895 385.228 331.4 370 330.474 368.938C330.415 368.869 330.298 368.938 330.327 369.035C330.786 370.215 336.723 380.305 338.127 382.557C340.856 387.051 343.722 391.458 346.54 395.894C347.349 397.161 348.178 398.419 348.997 399.676C349.816 400.934 350.683 402.172 351.434 403.468C351.405 403.566 351.512 403.498 351.512 403.41Z" fill="#263238"/>
<path d="M223.966 417.312C224.6 415.216 260.037 365.72 262.523 364.716C262.806 364.589 279.535 375.83 279.535 375.83C280.237 376.717 311.268 369.298 311.268 369.298L312.574 406.939L255.699 407.231C255.699 407.231 248.143 411.95 241.212 415.82C238.27 417.582 235.223 419.161 232.087 420.548C229.24 421.357 223.323 419.398 223.966 417.312Z" fill="#EB9481"/>
<path d="M232.068 420.548C235.202 419.165 238.247 417.586 241.183 415.82C248.105 411.921 255.67 407.231 255.67 407.231L268.344 407.173L287.305 374.68C282.977 375.567 279.75 376.113 279.506 375.83C279.506 375.83 262.777 364.58 262.494 364.716C260.008 365.691 224.571 415.216 223.937 417.312C223.303 419.408 229.241 421.358 232.068 420.548Z" fill="white"/>
<path d="M223.635 417.39C224.298 415.245 259.911 365.72 262.456 364.745C263.43 364.346 271.59 369.093 279.536 375.84L256.538 407.719C256.538 407.719 234.876 419.944 231.951 420.773C229.026 421.601 222.972 419.534 223.635 417.39Z" fill="#34A1D3"/>
<path d="M226.132 418.121C232.303 409.971 256.422 376.532 261.91 368.002C261.91 367.933 261.91 367.904 261.852 368.002C255.564 375.937 231.708 409.581 225.995 418.053C225.868 418.179 225.995 418.277 226.132 418.121Z" fill="#263238"/>
<path d="M236.026 418.862C236.713 417.955 237.204 416.917 237.47 415.811C237.735 414.705 237.768 413.556 237.567 412.437C237.238 410.429 236.149 408.624 234.525 407.397C234.525 407.397 234.408 407.455 234.447 407.504C235.888 408.966 236.815 410.856 237.089 412.89C237.364 414.924 236.97 416.993 235.968 418.784C235.966 418.793 235.967 418.802 235.969 418.811C235.971 418.819 235.975 418.828 235.981 418.835C235.986 418.842 235.993 418.848 236.001 418.853C236.009 418.858 236.017 418.861 236.026 418.862Z" fill="#263238"/>
<path d="M253.836 409.707C256.274 406.422 257.872 401.733 256.634 397.716C256.634 397.56 256.371 397.629 256.352 397.765C255.796 401.758 254.816 405.68 253.427 409.464C253.417 409.515 253.423 409.568 253.445 409.615C253.466 409.663 253.501 409.702 253.546 409.729C253.591 409.756 253.643 409.768 253.695 409.764C253.747 409.76 253.796 409.74 253.836 409.707Z" fill="#263238"/>
<path d="M250.991 411.55C253.428 408.265 255.027 403.576 253.798 399.559C253.798 399.403 253.525 399.471 253.506 399.608C252.951 403.6 251.97 407.522 250.581 411.307C250.571 411.358 250.578 411.411 250.599 411.458C250.62 411.505 250.656 411.545 250.7 411.572C250.745 411.598 250.797 411.611 250.849 411.607C250.901 411.603 250.95 411.583 250.991 411.55Z" fill="#263238"/>
<path d="M248.172 413.393C250.6 410.108 252.199 405.418 250.97 401.402C250.921 401.246 250.707 401.314 250.687 401.402C250.128 405.394 249.148 409.315 247.763 413.1C247.733 413.155 247.725 413.218 247.738 413.278C247.752 413.339 247.788 413.392 247.838 413.428C247.888 413.464 247.95 413.48 248.012 413.474C248.073 413.467 248.13 413.439 248.172 413.393Z" fill="#263238"/>
<path d="M245.307 415.245C247.744 411.95 249.343 407.261 248.105 403.244C248.105 403.088 247.842 403.156 247.822 403.293C247.267 407.286 246.287 411.207 244.898 414.992C244.885 415.043 244.889 415.098 244.91 415.147C244.93 415.197 244.965 415.238 245.011 415.266C245.056 415.295 245.109 415.308 245.162 415.304C245.216 415.3 245.266 415.279 245.307 415.245Z" fill="#263238"/>
<path d="M268.265 375.771C270.937 372.038 265.136 367.885 262.465 371.618C259.794 375.352 265.584 379.505 268.265 375.771Z" fill="#263238"/>
<path d="M260.116 419.671C262.719 418.998 262.875 415.898 262.173 413.822C260.906 410.277 258.727 407.129 255.855 404.697C255.787 404.638 255.729 404.697 255.69 404.697C255.617 404.666 255.538 404.652 255.459 404.657C255.381 404.662 255.304 404.686 255.236 404.725C255.168 404.765 255.11 404.82 255.067 404.886C255.024 404.952 254.997 405.028 254.988 405.106C254.929 408.645 254.412 412.418 255.436 415.879C256.031 417.926 257.649 420.314 260.116 419.671ZM255.972 410.517C255.972 408.781 256.031 407.046 255.972 405.311C257.255 407.051 258.446 408.857 259.54 410.721C260.061 411.629 260.52 412.57 260.915 413.539C261.49 415.05 261.89 420.305 258.068 418.043C255.972 416.785 255.972 412.593 255.972 410.517Z" fill="#263238"/>
<path d="M260.564 395.562C258.039 398.136 256.713 401.704 255.114 404.862C255.085 404.935 255.073 405.014 255.08 405.093C255.087 405.171 255.112 405.247 255.154 405.313C255.196 405.38 255.253 405.436 255.321 405.476C255.389 405.516 255.465 405.54 255.543 405.545C255.541 405.562 255.544 405.578 255.549 405.594C255.555 405.61 255.565 405.624 255.577 405.635C255.589 405.647 255.604 405.655 255.62 405.66C255.637 405.664 255.654 405.665 255.67 405.662C259.347 404.858 262.749 403.103 265.536 400.573C267.125 399.072 268.461 396.264 266.462 394.441C264.464 392.618 262.036 394.061 260.564 395.562ZM263.898 394.919C268.363 394.724 265.516 399.159 264.298 400.222C263.495 400.895 262.649 401.514 261.763 402.074C259.919 403.203 258.018 404.237 256.07 405.174C256.947 403.673 257.698 402.104 258.526 400.573C259.511 398.75 261.432 395.026 263.898 394.919Z" fill="#263238"/>
<path d="M312.682 357.678L338.195 357.005C338.195 357.005 364.517 343.464 386.179 348.065C410.981 353.33 414.958 384.205 396.825 395.64C373.857 410.127 269.923 410.195 269.923 410.195L291.371 371.55C291.371 371.55 325.717 363.361 357.069 363.586L313.033 370.78L312.682 357.678Z" fill="#37474F"/>
<path d="M289.928 374.075C289.953 374.013 289.97 373.947 289.977 373.88V373.714L290.065 373.344C290.133 373.091 290.221 372.847 290.308 372.593C290.396 372.34 290.503 372.106 290.601 371.862C290.72 371.625 290.857 371.397 291.01 371.18C291.01 371.18 291.01 371.18 291.069 371.131H291.117H291.176C294.958 370.322 320.666 365.945 324.498 365.408C328.329 364.872 332.219 364.433 336.099 363.975C343.823 363.098 351.587 362.61 359.36 362.513C360.091 362.513 360.822 362.513 361.553 362.513C361.706 362.46 361.863 362.418 362.021 362.386C362.392 362.289 362.762 362.181 363.133 362.103C363.835 361.947 364.537 361.821 365.239 361.694C366.701 361.431 368.163 361.236 369.626 360.924C369.713 360.924 369.752 361.041 369.626 361.06C368.163 361.431 366.701 361.889 365.268 362.25L364 362.552C366.857 362.63 369.704 362.776 372.56 362.961C372.578 362.961 372.595 362.969 372.608 362.981C372.621 362.994 372.628 363.012 372.628 363.03C372.628 363.048 372.621 363.065 372.608 363.078C372.595 363.091 372.578 363.098 372.56 363.098C368.66 362.971 364.761 363.049 360.91 363.215C357.059 363.381 353.228 363.566 349.387 363.897C341.588 364.541 333.886 365.447 326.165 366.461C321.836 367.036 295.621 371.57 291.264 371.872H291.205C291.178 371.976 291.142 372.077 291.098 372.174L290.747 372.886C290.63 373.11 290.513 373.334 290.376 373.558L290.172 373.88L290.065 374.036C290.065 374.085 289.967 374.153 289.957 374.202C289.948 374.251 289.879 374.163 289.928 374.075Z" fill="#263238"/>
<path d="M277.955 407.699C279.29 405.438 280.411 403.039 281.62 400.709L285.266 393.71C287.704 389.059 296.468 373.393 297.345 372.262C297.394 372.194 297.521 372.262 297.492 372.35C297.092 373.559 291.642 383.912 290.385 386.222C287.869 390.843 285.218 395.386 282.585 399.949C281.844 401.255 281.065 402.542 280.314 403.848C279.563 405.155 278.754 406.422 278.062 407.748C278.063 407.76 278.061 407.772 278.056 407.783C278.051 407.794 278.044 407.803 278.034 407.81C278.024 407.817 278.013 407.822 278.001 407.823C277.989 407.824 277.977 407.822 277.966 407.817C277.955 407.812 277.945 407.804 277.938 407.795C277.931 407.785 277.927 407.773 277.926 407.761C277.925 407.75 277.927 407.737 277.932 407.727C277.937 407.716 277.945 407.706 277.955 407.699Z" fill="#263238"/>
<path d="M363.806 254.222L358.434 283.303C358.181 284.161 358.649 284.824 359.477 284.765L374.247 283.79C374.695 283.725 375.115 283.535 375.46 283.242C375.805 282.949 376.06 282.565 376.197 282.133L381.568 253.052C381.822 252.194 381.354 251.541 380.525 251.59L365.765 252.565C365.316 252.629 364.894 252.819 364.547 253.112C364.201 253.405 363.944 253.79 363.806 254.222Z" fill="#37474F"/>
<path d="M365.56 254.095L360.189 283.176C359.935 284.034 360.403 284.697 361.222 284.638L375.992 283.664C376.44 283.6 376.861 283.41 377.206 283.117C377.551 282.823 377.806 282.438 377.941 282.006L383.323 252.925C383.576 252.067 383.108 251.404 382.28 251.463L367.51 252.438C367.063 252.504 366.643 252.694 366.298 252.987C365.953 253.28 365.698 253.664 365.56 254.095Z" fill="#455A64"/>
<path d="M369.694 255.138C369.705 255.387 369.642 255.633 369.513 255.846C369.384 256.059 369.195 256.229 368.97 256.335C368.744 256.44 368.492 256.476 368.246 256.438C368 256.4 367.77 256.29 367.587 256.122C367.403 255.953 367.274 255.734 367.215 255.492C367.156 255.25 367.171 254.996 367.257 254.762C367.342 254.529 367.496 254.326 367.697 254.179C367.898 254.032 368.138 253.949 368.387 253.939C368.719 253.926 369.043 254.044 369.288 254.269C369.532 254.494 369.678 254.806 369.694 255.138Z" fill="#263238"/>
<path d="M318.979 300.617C328.328 317.96 348.382 340.051 356.162 339.72C359.856 339.564 366.505 340.081 371.116 335.567C381.187 325.72 389.054 307.5 390.302 297.253C390.741 293.617 372.754 286.764 370.327 289.844C364.633 297.068 358.326 310.96 357.244 310.941C353.247 310.853 336.985 298.765 325.628 290.254C311.843 279.91 315.255 293.705 318.979 300.617Z" fill="#EB9481"/>
<path d="M389.699 278.584C387.437 271.361 385.75 269.81 387.076 262.742C387.944 258.073 385.341 255.518 382.28 259.389C377.279 265.726 378.244 275.66 379.57 279.013L389.699 278.584Z" fill="#EB9481"/>
<path d="M389.62 300.451C389.62 300.451 392.321 290.059 390.673 282.123C389.532 276.635 385.721 264.965 369.879 259.574C366.115 258.297 359.857 259.145 365.238 263.474C369.06 266.545 372.403 267.373 374.305 269.528C374.305 269.528 366.505 271.536 365.335 275.377C364.342 278.705 363.589 282.1 363.083 285.535C363.691 285.771 364.313 285.966 364.946 286.12C364.946 286.12 363.971 289.727 366.895 294.602L389.62 300.451Z" fill="#EB9481"/>
<path d="M388.743 277.054C386.403 275.279 381.373 271.604 376.216 270.025C370.483 268.28 358.98 266.447 357.693 270.687C356.776 273.807 361.105 274.889 361.105 274.889C361.105 274.889 356.23 275.133 355.977 278.126C355.782 280.856 359.184 281.489 359.184 281.489C359.184 281.489 356.26 282.152 356.552 284.814C356.932 288.011 363.064 286.101 366.301 289.006C367.013 289.659 388.743 277.054 388.743 277.054Z" fill="#EB9481"/>
<path d="M375.377 276.391C370.94 274.446 366.017 273.896 361.26 274.812C361.143 274.812 361.104 274.948 361.211 274.938C365.98 274.869 370.74 275.379 375.386 276.459L375.377 276.391Z" fill="#263238"/>
<path d="M373.436 282.123C371.184 281.217 364.535 279.94 359.232 281.382C359.105 281.382 359.076 281.519 359.232 281.509C363.986 281.194 368.761 281.419 373.465 282.182L373.436 282.123Z" fill="#263238"/>
<path d="M390.878 304.682C390.878 304.682 378.039 333.881 369.859 337.624C361.68 341.368 356.63 340.919 353.501 340.617C352.284 340.402 351.129 339.922 350.118 339.213C341.344 333.656 325.102 313.193 318.317 301.563C313.228 292.789 313.296 284.648 320.403 286.891C322.815 287.768 325.065 289.04 327.061 290.654C340.457 300.685 355.889 310.093 356.581 309.684C357.273 309.274 363.99 297.205 363.99 297.205L390.878 304.682Z" fill="#34A1D3"/>
<path d="M357.75 315.757C357.659 316.404 357.659 317.06 357.75 317.707C357.846 318.383 358.043 319.04 358.335 319.657C358.431 319.01 358.431 318.353 358.335 317.707C358.24 317.031 358.043 316.374 357.75 315.757Z" fill="white"/>
<path d="M374.509 323.02C374.418 323.667 374.418 324.323 374.509 324.97C374.599 325.621 374.776 326.257 375.036 326.861C375.132 326.215 375.132 325.558 375.036 324.911C374.954 324.258 374.777 323.621 374.509 323.02Z" fill="white"/>
<path d="M344.971 330.068C344.88 330.715 344.88 331.371 344.971 332.018C345.051 332.671 345.228 333.309 345.497 333.909C345.588 333.263 345.588 332.606 345.497 331.96C345.406 331.309 345.229 330.673 344.971 330.068Z" fill="white"/>
<path d="M336.887 301.387C336.722 302.712 336.91 304.058 337.433 305.287C337.524 304.64 337.524 303.984 337.433 303.337C337.343 302.665 337.159 302.009 336.887 301.387Z" fill="white"/>
<path d="M334.237 313.135C334.884 313.226 335.54 313.226 336.187 313.135C336.84 313.054 337.478 312.877 338.078 312.608C337.432 312.517 336.775 312.517 336.129 312.608C335.478 312.699 334.842 312.876 334.237 313.135Z" fill="white"/>
<path d="M368.436 316.537C369.083 316.628 369.739 316.628 370.386 316.537C371.037 316.447 371.673 316.27 372.277 316.01C371.631 315.914 370.974 315.914 370.327 316.01C369.674 316.092 369.037 316.269 368.436 316.537Z" fill="white"/>
<path d="M351.062 326.793C351.709 326.884 352.365 326.884 353.012 326.793C353.665 326.713 354.303 326.535 354.903 326.266C353.577 326.109 352.233 326.301 351.004 326.822L351.062 326.793Z" fill="white"/>
<path d="M384.101 306.466C384.748 306.557 385.404 306.557 386.051 306.466C386.704 306.386 387.341 306.209 387.942 305.94C386.616 305.783 385.272 305.975 384.042 306.496L384.101 306.466Z" fill="white"/>
<path d="M367.179 336.357C367.825 336.448 368.482 336.448 369.128 336.357C369.782 336.277 370.419 336.099 371.02 335.83C370.373 335.734 369.716 335.734 369.07 335.83C368.417 335.912 367.78 336.089 367.179 336.357Z" fill="white"/>
<path d="M316.913 287.856C316.375 288.093 315.808 288.257 315.226 288.343C315.309 288.156 315.414 287.979 315.538 287.817C315.996 287.771 316.458 287.784 316.913 287.856Z" fill="white"/>
<path d="M349.416 308.631C348.896 309.034 348.433 309.506 348.041 310.034C347.637 310.558 347.309 311.135 347.066 311.75C348.107 310.934 348.914 309.858 349.406 308.631H349.416Z" fill="white"/>
<path d="M365.492 324.95C364.969 325.354 364.506 325.83 364.117 326.364C363.715 326.885 363.387 327.459 363.142 328.07C363.665 327.67 364.127 327.197 364.517 326.666C364.921 326.143 365.249 325.565 365.492 324.95Z" fill="white"/>
<path d="M374.626 303.317C374.104 303.718 373.641 304.19 373.252 304.721C372.848 305.244 372.519 305.822 372.277 306.437C372.8 306.033 373.262 305.557 373.651 305.023C374.053 304.502 374.381 303.928 374.626 303.317Z" fill="white"/>
<path d="M339.267 322.913C338.747 323.319 338.284 323.795 337.892 324.326C337.49 324.848 337.162 325.422 336.917 326.033C337.44 325.632 337.903 325.159 338.292 324.629C338.7 324.108 339.028 323.53 339.267 322.913Z" fill="white"/>
<path d="M327.14 295.46C326.617 295.86 326.154 296.333 325.765 296.864C325.357 297.384 325.029 297.963 324.79 298.579C325.831 297.763 326.638 296.687 327.13 295.46H327.14Z" fill="white"/>
<path d="M326.388 308.933C325.984 308.41 325.508 307.947 324.975 307.558C324.456 307.153 323.881 306.824 323.269 306.583C323.664 307.11 324.137 307.574 324.672 307.958C325.193 308.365 325.772 308.694 326.388 308.933Z" fill="white"/>
<path d="M383.196 315.309C382.793 314.789 382.321 314.326 381.792 313.934C381.269 313.53 380.692 313.202 380.077 312.959C380.48 313.479 380.952 313.942 381.481 314.334C382.004 314.738 382.581 315.066 383.196 315.309Z" fill="white"/>
<path d="M365.716 310.054C365.313 309.534 364.841 309.071 364.312 308.679C363.791 308.272 363.213 307.943 362.596 307.704C363.412 308.745 364.488 309.552 365.716 310.044V310.054Z" fill="white"/>
<path d="M346.462 320.836C346.064 320.311 345.591 319.848 345.058 319.461C344.54 319.05 343.961 318.721 343.342 318.487C343.749 319.007 344.224 319.469 344.756 319.861C345.277 320.263 345.851 320.591 346.462 320.836Z" fill="white"/>
<path d="M358.043 336.912C357.643 336.39 357.17 335.927 356.64 335.538C356.116 335.134 355.539 334.806 354.924 334.563C355.328 335.086 355.804 335.548 356.337 335.938C356.859 336.34 357.433 336.668 358.043 336.912Z" fill="white"/>
<path d="M350.118 339.213C341.344 333.656 325.102 313.193 318.317 301.563C313.228 292.789 313.296 284.648 320.403 286.891C324.351 293.764 341.587 323.829 350.118 339.213Z" fill="#263238"/>
<path d="M387.584 310.054C386.609 309.576 377.386 306.554 375.368 305.94C373.35 305.326 365.142 302.752 363.007 302.294C362.998 302.291 362.988 302.289 362.979 302.29C362.969 302.29 362.96 302.292 362.951 302.297C362.943 302.301 362.935 302.306 362.928 302.313C362.922 302.32 362.917 302.329 362.914 302.338C362.911 302.347 362.909 302.356 362.91 302.366C362.91 302.375 362.913 302.384 362.917 302.393C362.921 302.402 362.926 302.409 362.933 302.416C362.941 302.422 362.949 302.427 362.958 302.43C364.966 303.278 373.243 305.911 375.29 306.574C377.337 307.236 386.511 310.025 387.554 310.19C387.662 310.2 387.671 310.083 387.584 310.054Z" fill="#263238"/>
<path d="M340.837 358.487C339.911 359.462 280.277 361.411 279.974 361.041C279.146 360.066 286.487 322.104 292.59 307.578C300.389 288.957 304.873 287.241 307.544 286.13C310.947 284.687 317.176 284.96 318.687 285.574C320.403 286.257 327.89 294.495 330.172 301.173C334.754 314.607 341.646 357.6 340.837 358.487Z" fill="#34A1D3"/>
<path d="M314.572 296.786C314.415 298.112 314.607 299.456 315.128 300.685C315.22 300.039 315.22 299.382 315.128 298.735C315.043 298.061 314.856 297.403 314.572 296.786Z" fill="white"/>
<path d="M315.08 325.252C314.915 326.578 315.103 327.923 315.626 329.152C315.717 328.505 315.717 327.849 315.626 327.202C315.535 326.53 315.352 325.874 315.08 325.252Z" fill="white"/>
<path d="M281.173 355.026C281.019 356.352 281.21 357.695 281.729 358.925C281.82 358.279 281.82 357.622 281.729 356.976C281.642 356.301 281.455 355.644 281.173 355.026Z" fill="white"/>
<path d="M305.604 356.205C305.512 356.852 305.512 357.508 305.604 358.155C305.692 358.811 305.873 359.451 306.14 360.056C306.231 359.409 306.231 358.753 306.14 358.106C306.058 357.449 305.877 356.809 305.604 356.205Z" fill="white"/>
<path d="M325.716 343.054C325.625 343.701 325.625 344.357 325.716 345.004C325.796 345.657 325.973 346.294 326.242 346.895C326.334 346.248 326.334 345.592 326.242 344.945C326.156 344.293 325.979 343.657 325.716 343.054Z" fill="white"/>
<path d="M297.035 313.807C296.944 314.454 296.944 315.11 297.035 315.757C297.115 316.41 297.292 317.048 297.561 317.648C297.658 317.002 297.658 316.345 297.561 315.699C297.48 315.046 297.302 314.408 297.035 313.807Z" fill="white"/>
<path d="M294.149 338.881C294.058 339.528 294.058 340.184 294.149 340.831C294.238 341.482 294.415 342.119 294.675 342.722C294.842 341.397 294.654 340.051 294.129 338.823L294.149 338.881Z" fill="white"/>
<path d="M329.976 319.013C329.885 319.66 329.885 320.316 329.976 320.963C330.066 321.614 330.243 322.25 330.503 322.854C330.6 322.208 330.6 321.551 330.503 320.904C330.422 320.252 330.244 319.614 329.976 319.013Z" fill="white"/>
<path d="M308.802 308.826C309.448 308.917 310.105 308.917 310.751 308.826C311.408 308.745 312.048 308.568 312.653 308.299C311.326 308.129 309.979 308.321 308.753 308.855L308.802 308.826Z" fill="white"/>
<path d="M294.421 327.602C295.747 327.759 297.091 327.567 298.321 327.046C297.674 326.954 297.018 326.954 296.371 327.046C295.697 327.131 295.039 327.318 294.421 327.602Z" fill="white"/>
<path d="M317.185 338.248C317.832 338.339 318.488 338.339 319.135 338.248C319.787 338.163 320.424 337.986 321.026 337.721C320.379 337.631 319.723 337.631 319.076 337.721C318.425 337.811 317.789 337.988 317.185 338.248Z" fill="white"/>
<path d="M300.291 350.317C300.937 350.408 301.594 350.408 302.24 350.317C302.892 350.228 303.528 350.051 304.132 349.791C303.485 349.7 302.829 349.7 302.182 349.791C301.531 349.881 300.895 350.059 300.291 350.317Z" fill="white"/>
<path d="M333.603 349.986C334.249 350.077 334.906 350.077 335.552 349.986C336.205 349.905 336.843 349.728 337.444 349.459C336.797 349.363 336.14 349.363 335.494 349.459C334.841 349.54 334.204 349.718 333.603 349.986Z" fill="white"/>
<path d="M313.053 288.401C313.699 288.493 314.356 288.493 315.003 288.401C315.657 288.312 316.296 288.135 316.904 287.875C316.257 287.784 315.601 287.784 314.954 287.875C314.298 287.959 313.658 288.136 313.053 288.401Z" fill="white"/>
<path d="M307.057 293.422C306.529 293.824 306.063 294.3 305.673 294.836C305.269 295.356 304.94 295.93 304.698 296.542C305.223 296.144 305.686 295.671 306.072 295.138C306.48 294.615 306.811 294.038 307.057 293.422Z" fill="white"/>
<path d="M320.959 314.704C319.919 315.523 319.11 316.598 318.609 317.824C319.137 317.425 319.6 316.948 319.984 316.41C320.39 315.891 320.718 315.317 320.959 314.704Z" fill="white"/>
<path d="M334.774 336.074C334.253 336.48 333.791 336.956 333.399 337.488C332.995 338.011 332.667 338.588 332.424 339.203C332.947 338.8 333.41 338.324 333.799 337.79C334.207 337.269 334.535 336.691 334.774 336.074Z" fill="white"/>
<path d="M319.408 352.325C318.886 352.726 318.423 353.198 318.033 353.729C317.626 354.25 317.298 354.828 317.059 355.445C317.586 355.05 318.049 354.576 318.433 354.041C318.841 353.52 319.169 352.942 319.408 352.325Z" fill="white"/>
<path d="M287.598 347.256C287.072 347.657 286.609 348.133 286.223 348.669C285.817 349.188 285.489 349.763 285.248 350.376C285.775 349.98 286.239 349.507 286.623 348.972C287.03 348.451 287.358 347.872 287.598 347.256Z" fill="white"/>
<path d="M305.876 332.174C305.356 332.577 304.894 333.05 304.502 333.578C304.098 334.101 303.769 334.679 303.527 335.294C304.047 334.891 304.51 334.419 304.901 333.89C305.307 333.368 305.635 332.79 305.876 332.174Z" fill="white"/>
<path d="M327.14 295.46C326.617 295.86 326.154 296.333 325.765 296.864C325.357 297.384 325.029 297.963 324.79 298.579C325.831 297.763 326.638 296.687 327.13 295.46H327.14Z" fill="white"/>
<path d="M326.388 308.933C325.984 308.41 325.508 307.947 324.975 307.558C324.456 307.153 323.881 306.824 323.269 306.583C323.664 307.11 324.137 307.574 324.672 307.958C325.193 308.365 325.772 308.694 326.388 308.933Z" fill="white"/>
<path d="M287.228 331.999C286.641 331.772 286.09 331.463 285.59 331.083L285.707 330.546L285.814 330.624C286.348 331.013 286.824 331.476 287.228 331.999Z" fill="white"/>
<path d="M328.387 331.541C327.987 331.018 327.514 330.556 326.983 330.166C326.46 329.762 325.883 329.434 325.268 329.191C325.671 329.714 326.147 330.177 326.681 330.566C327.202 330.968 327.776 331.296 328.387 331.541Z" fill="white"/>
<path d="M330.668 359.306C330.262 358.785 329.786 358.323 329.255 357.931C328.734 357.523 328.156 357.195 327.539 356.956C327.945 357.476 328.421 357.939 328.953 358.331C329.476 358.735 330.053 359.063 330.668 359.306Z" fill="white"/>
<path d="M300.291 304.487C299.886 303.953 299.407 303.48 298.867 303.083C298.346 302.676 297.768 302.348 297.151 302.108C297.549 302.633 298.022 303.096 298.555 303.483C299.082 303.9 299.666 304.238 300.291 304.487Z" fill="white"/>
<path d="M312.292 345.004C311.888 344.481 311.412 344.019 310.878 343.629C310.357 343.227 309.783 342.899 309.172 342.655C309.569 343.176 310.039 343.639 310.566 344.029C311.092 344.434 311.673 344.762 312.292 345.004Z" fill="white"/>
<path d="M294.87 358.136C294.47 357.613 293.997 357.15 293.466 356.761C292.945 356.354 292.367 356.025 291.75 355.786C292.148 356.311 292.621 356.774 293.154 357.161C293.677 357.566 294.255 357.895 294.87 358.136Z" fill="white"/>
<path d="M308.724 320.076C308.321 319.556 307.849 319.093 307.32 318.701C306.799 318.294 306.221 317.965 305.604 317.727C306.007 318.247 306.48 318.709 307.008 319.101C307.532 319.505 308.109 319.834 308.724 320.076Z" fill="white"/>
<path d="M297.708 291.229C272.175 310.804 250.191 337.838 252.404 346.31C254.744 355.26 272.624 365.145 288.339 367.046C291.556 367.436 301.285 343.766 297.981 342.674C295.407 341.855 283.708 338.647 282.295 337.058C281.32 335.957 299.18 310.307 304.941 296.951C310.976 283.02 304.542 285.993 297.708 291.229Z" fill="#EB9481"/>
<path d="M291.341 342.079C291.341 342.079 301.168 342.967 307.563 343.854C311.131 344.351 317.176 345.745 319.632 347.305C323.298 349.645 337.181 361.772 334.305 365.194C331.711 368.294 327.705 363.459 327.705 363.459C327.705 363.459 332.579 368.333 329.06 370.614C325.54 372.896 320.9 366.12 320.9 366.12C320.9 366.12 326.437 370.926 322.45 373.013C318.979 374.816 312.828 367.563 312.828 367.563C312.828 367.563 319.194 371.97 315.821 374.173C312.106 376.6 301.509 366.881 301.509 366.881C293.115 367.856 287.939 367.378 282.011 365.769C280.919 365.477 291.341 342.079 291.341 342.079Z" fill="#EB9481"/>
<path d="M322.391 367.729C322.011 367.212 321.611 366.705 321.221 366.188C320.493 365.162 319.699 364.185 318.842 363.264C318.004 362.367 317.126 361.519 316.21 360.7C315.294 359.881 314.202 359.052 313.285 358.155C313.278 358.149 313.27 358.144 313.261 358.141C313.252 358.138 313.243 358.136 313.233 358.137C313.224 358.137 313.214 358.139 313.206 358.143C313.197 358.147 313.189 358.153 313.183 358.16C313.177 358.167 313.172 358.175 313.168 358.184C313.165 358.193 313.164 358.203 313.164 358.212C313.165 358.222 313.167 358.231 313.171 358.24C313.175 358.248 313.181 358.256 313.188 358.263C314.126 359.136 315.011 360.063 315.84 361.041C316.688 361.967 317.516 362.903 318.355 363.839C319.193 364.775 320.041 365.603 320.88 366.5C321.299 366.939 321.699 367.407 322.098 367.865C322.448 368.329 322.836 368.763 323.258 369.162C323.307 369.162 323.356 369.162 323.336 369.094C323.069 368.607 322.752 368.15 322.391 367.729Z" fill="#263238"/>
<path d="M328.699 364.502C327.399 362.566 325.965 360.722 324.41 358.984C322.826 357.259 321.076 355.694 319.184 354.314C319.177 354.308 319.169 354.303 319.16 354.3C319.151 354.296 319.142 354.295 319.132 354.295C319.122 354.296 319.113 354.298 319.105 354.302C319.096 354.306 319.088 354.312 319.082 354.319C319.075 354.326 319.07 354.334 319.067 354.343C319.064 354.352 319.063 354.362 319.063 354.371C319.064 354.381 319.066 354.39 319.07 354.399C319.074 354.407 319.08 354.415 319.087 354.421C320.666 356.147 322.275 357.853 323.873 359.569C324.653 360.398 328.095 364.307 328.514 364.668C328.611 364.726 328.748 364.58 328.699 364.502Z" fill="#263238"/>
<path d="M316.541 370.936C315.281 369.141 313.903 367.431 312.418 365.818C310.749 364.313 308.973 362.932 307.104 361.684C307.036 361.684 306.948 361.743 307.007 361.792C308.664 363.303 310.351 364.775 311.881 366.354C312.661 367.134 315.557 370.39 316.356 371.063C316.373 371.087 316.399 371.104 316.428 371.11C316.457 371.115 316.488 371.109 316.512 371.092C316.537 371.075 316.554 371.049 316.559 371.02C316.565 370.991 316.558 370.961 316.541 370.936Z" fill="#263238"/>
<path d="M299.053 341.728L285.307 368.002C285.307 368.002 254.335 359.822 251.664 345.794C248.992 331.765 284.478 299.515 295.427 291.892C306.375 284.268 313.053 283.244 304.415 300.607C295.778 317.97 282.412 335.83 283.504 336.727C284.43 337.478 299.053 341.728 299.053 341.728Z" fill="#34A1D3"/>
<path d="M277.255 322.582C277.164 323.228 277.164 323.885 277.255 324.531C277.336 325.187 277.514 325.828 277.781 326.432C277.872 325.786 277.872 325.129 277.781 324.483C277.691 323.828 277.514 323.189 277.255 322.582Z" fill="white"/>
<path d="M281.173 355.026C281.019 356.352 281.21 357.695 281.729 358.925C281.82 358.279 281.82 357.622 281.729 356.976C281.642 356.301 281.455 355.644 281.173 355.026Z" fill="white"/>
<path d="M265.185 339.213C265.094 339.86 265.094 340.516 265.185 341.163C265.269 341.816 265.45 342.454 265.721 343.054C265.817 342.408 265.817 341.751 265.721 341.104C265.636 340.451 265.455 339.814 265.185 339.213Z" fill="white"/>
<path d="M297.074 313.915L297.015 314.013C297.011 313.948 297.011 313.882 297.015 313.817C297.039 313.847 297.059 313.88 297.074 313.915Z" fill="white"/>
<path d="M289.644 296.649C289.487 297.975 289.679 299.319 290.2 300.549C290.291 299.902 290.291 299.246 290.2 298.599C290.116 297.924 289.929 297.267 289.644 296.649Z" fill="white"/>
<path d="M294.695 342.742C294.435 342.138 294.258 341.502 294.168 340.851C294.168 340.656 294.149 340.461 294.11 340.266L294.607 340.412C294.607 340.529 294.656 340.656 294.675 340.773C294.774 341.425 294.781 342.088 294.695 342.742Z" fill="white"/>
<path d="M296.625 291.151C297.272 291.243 297.929 291.243 298.575 291.151C299.246 291.066 299.902 290.889 300.525 290.624C299.2 290.458 297.854 290.646 296.625 291.17V291.151Z" fill="white"/>
<path d="M264.385 324.414C265.032 324.505 265.688 324.505 266.335 324.414C266.988 324.334 267.626 324.157 268.226 323.888C267.58 323.797 266.923 323.797 266.277 323.888C265.625 323.977 264.989 324.154 264.385 324.414Z" fill="white"/>
<path d="M278.014 341.104C278.661 341.196 279.317 341.196 279.964 341.104C280.62 341.024 281.261 340.847 281.865 340.578C281.218 340.487 280.562 340.487 279.915 340.578C279.261 340.667 278.621 340.844 278.014 341.104Z" fill="white"/>
<path d="M269.923 360.29C270.569 360.382 271.226 360.382 271.873 360.29C272.529 360.21 273.17 360.033 273.774 359.764C272.448 359.607 271.103 359.799 269.874 360.32L269.923 360.29Z" fill="white"/>
<path d="M255.134 346.953C255.78 347.044 256.437 347.044 257.084 346.953C257.737 346.873 258.374 346.696 258.975 346.427C257.649 346.27 256.305 346.462 255.075 346.983L255.134 346.953Z" fill="white"/>
<path d="M283.739 307.539C284.385 307.63 285.042 307.63 285.688 307.539C286.345 307.458 286.985 307.281 287.59 307.012C286.263 306.855 284.919 307.047 283.69 307.568L283.739 307.539Z" fill="white"/>
<path d="M307.057 293.422C306.529 293.824 306.063 294.3 305.673 294.836C305.269 295.356 304.94 295.93 304.698 296.542C305.223 296.144 305.686 295.671 306.072 295.138C306.48 294.615 306.811 294.038 307.057 293.422Z" fill="white"/>
<path d="M287.598 316.118C287.072 316.519 286.609 316.995 286.223 317.532C285.817 318.05 285.489 318.625 285.248 319.238C285.775 318.842 286.239 318.369 286.623 317.834C287.03 317.313 287.358 316.735 287.598 316.118Z" fill="white"/>
<path d="M287.598 347.256C287.072 347.657 286.609 348.133 286.223 348.669C285.817 349.188 285.489 349.763 285.248 350.376C285.775 349.98 286.239 349.507 286.623 348.972C287.03 348.451 287.358 347.872 287.598 347.256Z" fill="white"/>
<path d="M267.309 351.458C266.27 352.277 265.46 353.352 264.96 354.577C265.487 354.179 265.951 353.702 266.335 353.164C266.74 352.645 267.068 352.07 267.309 351.458Z" fill="white"/>
<path d="M272.263 331.541C271.743 331.944 271.28 332.416 270.888 332.944C270.483 333.467 270.154 334.044 269.914 334.66C270.436 334.26 270.899 333.787 271.288 333.256C271.692 332.733 272.021 332.156 272.263 331.541Z" fill="white"/>
<path d="M286.418 363.644C285.383 364.465 284.577 365.54 284.078 366.763C285.119 365.948 285.926 364.871 286.418 363.644Z" fill="white"/>
<path d="M286.359 331.073L286.135 331.443C285.921 331.316 285.716 331.17 285.511 331.024C284.981 330.634 284.508 330.172 284.107 329.649C284.718 329.894 285.292 330.222 285.813 330.624C285.999 330.77 286.194 330.917 286.359 331.073Z" fill="white"/>
<path d="M259.56 335.83C259.157 335.31 258.685 334.848 258.156 334.456C257.633 334.051 257.055 333.723 256.44 333.481C256.841 334.003 257.314 334.466 257.844 334.855C258.367 335.259 258.945 335.588 259.56 335.83Z" fill="white"/>
<path d="M276.445 350.541C276.045 350.019 275.572 349.556 275.042 349.167C274.518 348.763 273.941 348.434 273.326 348.192C273.73 348.715 274.206 349.177 274.739 349.566C275.26 349.968 275.834 350.297 276.445 350.541Z" fill="white"/>
<path d="M300.291 304.487C299.886 303.953 299.407 303.48 298.867 303.083C298.346 302.676 297.768 302.348 297.151 302.108C297.549 302.633 298.022 303.096 298.555 303.483C299.082 303.9 299.666 304.238 300.291 304.487Z" fill="white"/>
<path d="M277.157 315.309C276.336 314.273 275.261 313.468 274.038 312.969C274.438 313.491 274.911 313.954 275.441 314.344C275.965 314.744 276.543 315.069 277.157 315.309Z" fill="white"/>
<path d="M280.92 364.355C281.573 363.488 286.321 355.035 287.315 353.173C288.31 351.311 292.443 343.756 293.301 341.757C293.305 341.741 293.304 341.724 293.298 341.709C293.291 341.693 293.28 341.68 293.266 341.672C293.252 341.663 293.236 341.659 293.219 341.66C293.203 341.662 293.187 341.668 293.174 341.679C291.956 343.483 287.764 351.097 286.711 352.969C285.658 354.84 281.154 363.302 280.783 364.297C280.754 364.385 280.871 364.414 280.92 364.355Z" fill="#263238"/>
<path d="M299.219 341.641L298.576 342.713C298.663 342.596 299.014 341.797 299.014 341.797C294.822 340.822 290.65 339.779 286.526 338.501C286.009 338.336 285.493 338.17 284.976 337.975C284.422 337.788 283.891 337.536 283.396 337.224C283.355 337.192 283.316 337.156 283.28 337.117C283.218 337.044 283.169 336.962 283.133 336.873C283.097 336.723 283.097 336.566 283.133 336.415C283.182 336.279 283.241 336.123 283.299 335.996C283.357 335.869 283.533 335.489 283.65 335.245C283.894 334.758 284.157 334.27 284.41 333.802C285.444 331.853 286.516 330.02 287.618 328.158C289.85 324.453 292.073 320.749 294.384 317.112C296.567 313.661 298.839 309.762 301.13 306.388C301.266 306.184 301.617 305.999 301.198 306.739C299.092 310.512 297.191 313.768 295.017 317.463L288.446 328.616C287.355 330.478 286.243 332.321 285.2 334.202C284.937 334.67 284.674 335.177 284.43 335.616C284.303 335.85 284.196 336.084 284.079 336.318L283.981 336.581L283.913 336.532C283.919 336.555 283.919 336.578 283.913 336.6C283.913 336.6 283.913 336.688 283.913 336.659V336.591C284.32 336.821 284.743 337.02 285.181 337.185L286.682 337.741C288.7 338.472 290.757 339.125 292.824 339.759L299.219 341.641Z" fill="#263238"/>
<path d="M283.981 336.591V336.66C283.981 336.66 283.981 336.611 283.981 336.601C283.987 336.578 283.987 336.555 283.981 336.532V336.591Z" fill="#263238"/>
<path d="M300.554 311.273C300.847 311.049 300.817 311.273 300.681 311.399C299.93 312.374 298.78 313.398 297.941 314.256C296.959 315.276 295.91 316.23 294.802 317.112C295.667 315.989 296.601 314.921 297.6 313.915C298.522 312.966 299.509 312.083 300.554 311.273Z" fill="#263238"/>
<path d="M317.391 295.908C314.037 296.883 307.993 292.009 305.507 287.885C305.331 287.602 305.634 284.551 305.819 280.827C305.926 278.575 305.994 276.05 305.887 273.749C305.887 273.281 320.511 276.586 320.511 276.586C319.822 279.505 319.494 282.498 319.536 285.496C319.552 285.825 319.598 286.151 319.672 286.471C319.672 286.471 319.672 286.569 319.672 286.627C320.062 288.372 320.628 294.982 317.391 295.908Z" fill="#EB9481"/>
<path d="M306.784 273.768C307.632 277.668 310.498 286.92 318.209 286.734C318.703 286.729 319.196 286.68 319.682 286.588C319.688 286.536 319.688 286.484 319.682 286.432C319.61 286.111 319.561 285.785 319.535 285.457C319.497 282.459 319.824 279.466 320.51 276.547C320.51 276.547 309.942 274.197 306.784 273.768Z" fill="#263238"/>
<path d="M323.894 250.722C323.894 250.722 328.593 252.672 329.46 257.429C330.328 262.187 329.246 267.178 328.836 267.441C328.427 267.705 323.894 250.722 323.894 250.722Z" fill="#263238"/>
<path d="M304.131 256.747C302.766 261.923 306.081 276.615 309.795 279.774C315.265 284.356 323.922 284.482 327.743 277.98C331.448 271.682 326.856 252.633 322.674 249.766C316.512 245.565 306.149 249.094 304.131 256.747Z" fill="#EB9481"/>
<path d="M319.173 266.417C319.173 266.417 319.105 266.486 319.115 266.525C319.368 267.5 319.485 268.679 318.657 269.196C318.657 269.196 318.657 269.264 318.657 269.254C319.739 268.864 319.563 267.314 319.173 266.417Z" fill="#263238"/>
<path d="M318.063 265.579C316.445 265.803 317.02 269.03 318.522 268.816C320.023 268.601 319.428 265.394 318.063 265.579Z" fill="#263238"/>
<path d="M324.77 265.462C324.77 265.462 324.858 265.462 324.858 265.54C325.004 266.515 325.346 267.665 326.301 267.841V267.899C325.19 267.987 324.741 266.437 324.77 265.462Z" fill="#263238"/>
<path d="M325.473 264.263C327.062 263.854 327.754 267.051 326.292 267.432C324.829 267.812 324.147 264.604 325.473 264.263Z" fill="#263238"/>
<path d="M316.133 263.288C316.564 263.167 316.987 263.021 317.4 262.85C317.87 262.757 318.296 262.51 318.609 262.148C318.683 262.015 318.713 261.862 318.694 261.711C318.674 261.56 318.607 261.419 318.502 261.309C318.255 261.127 317.964 261.014 317.658 260.983C317.353 260.952 317.045 261.004 316.767 261.134C316.164 261.301 315.646 261.687 315.314 262.216C315.247 262.341 315.217 262.483 315.228 262.625C315.24 262.767 315.292 262.903 315.378 263.016C315.465 263.129 315.582 263.215 315.716 263.263C315.849 263.311 315.994 263.32 316.133 263.288Z" fill="#263238"/>
<path d="M326.535 261.65C326.088 261.639 325.642 261.603 325.199 261.543C324.722 261.572 324.249 261.441 323.854 261.173C323.746 261.064 323.677 260.923 323.657 260.772C323.638 260.62 323.669 260.466 323.747 260.334C323.939 260.096 324.191 259.914 324.477 259.806C324.763 259.698 325.073 259.668 325.375 259.72C326.001 259.736 326.6 259.978 327.061 260.403C327.159 260.507 327.225 260.638 327.25 260.779C327.276 260.92 327.259 261.066 327.204 261.198C327.148 261.33 327.055 261.443 326.936 261.523C326.818 261.604 326.678 261.648 326.535 261.65Z" fill="#263238"/>
<path d="M319.145 275.991C319.408 276.248 319.754 276.404 320.12 276.43C320.49 276.352 320.841 276.203 321.154 275.991C321.154 275.991 321.222 275.991 321.202 275.991C321.095 276.213 320.93 276.402 320.724 276.538C320.518 276.673 320.279 276.751 320.033 276.761C319.813 276.75 319.602 276.672 319.428 276.538C319.254 276.404 319.125 276.22 319.058 276.011C319.058 276.011 319.106 275.962 319.145 275.991Z" fill="#263238"/>
<path d="M319.672 272.861C319.994 273.213 320.386 273.493 320.822 273.685C321.258 273.876 321.73 273.974 322.207 273.973C322.622 273.979 323.035 273.927 323.435 273.817L323.669 273.749L323.884 273.68C323.934 273.658 323.976 273.621 324.004 273.574C324.032 273.527 324.044 273.472 324.04 273.417C324.043 273.385 324.043 273.352 324.04 273.32V273.232C323.932 272.462 323.65 271.282 323.65 271.282C323.952 271.38 325.502 271.77 325.404 271.37C324.704 267.905 323.652 264.521 322.265 261.27C322.253 261.254 322.236 261.241 322.216 261.235C322.197 261.229 322.176 261.229 322.156 261.236C322.137 261.242 322.12 261.255 322.108 261.271C322.096 261.288 322.09 261.308 322.09 261.328C322.723 264.516 323.903 267.577 324.595 270.775C324.043 270.626 323.471 270.557 322.899 270.57C322.801 270.619 323.484 272.793 323.503 273.144C322.886 273.319 322.239 273.366 321.602 273.284C320.966 273.202 320.352 272.992 319.799 272.666C319.662 272.666 319.594 272.744 319.672 272.861Z" fill="#263238"/>
<path d="M322.917 273.457C322.593 274.082 322.113 274.613 321.523 274.997C321.194 275.194 320.813 275.286 320.431 275.26C319.602 275.192 319.456 274.461 319.456 273.808C319.479 273.46 319.541 273.117 319.641 272.784C320.632 273.356 321.781 273.592 322.917 273.457Z" fill="#263238"/>
<path d="M321.523 274.997C321.194 275.193 320.813 275.285 320.431 275.26C319.602 275.192 319.456 274.46 319.456 273.807C319.884 273.749 320.318 273.834 320.692 274.049C321.066 274.264 321.359 274.598 321.523 274.997Z" fill="#FF98B9"/>
<path d="M306.062 270.678C307.797 270.912 308.87 265.638 309.084 263.649C309.279 261.894 308.938 256.474 308.957 256.103C308.977 255.733 316.922 259.613 320.871 257.712C324.819 255.811 326.973 251.619 326.72 249.913C326.466 248.207 320.598 244.61 316.094 245.126C311.59 245.643 306.51 252.311 306.51 252.311C307.097 251.377 307.612 250.399 308.051 249.386C307.943 249.191 305.253 250.829 305.067 252.964C305.067 252.964 305.204 250.293 304.98 250.283C304.756 250.274 302.884 252.857 303.664 254.436C303.664 254.436 301.451 257.117 301.626 259.613C301.802 262.109 304.034 270.405 306.062 270.678Z" fill="#263238"/>
<path d="M323.669 256.347C322.555 257.22 321.312 257.914 319.984 258.404C318.477 258.789 316.898 258.789 315.392 258.404C313.873 258.091 312.417 257.527 311.083 256.737C309.893 256.054 308.801 255.177 307.573 254.601C307.261 254.455 307.008 254.913 307.222 255.138C309.507 257.436 312.47 258.94 315.674 259.427C317.163 259.655 318.686 259.491 320.092 258.953C321.499 258.415 322.742 257.52 323.698 256.356C323.698 256.356 323.688 256.337 323.669 256.347Z" fill="#263238"/>
<path d="M307.748 268.679C307.748 268.679 304.131 264.097 302.035 265.414C299.939 266.73 302.854 273.515 305.447 274.314C305.775 274.439 306.124 274.496 306.474 274.483C306.823 274.47 307.167 274.386 307.484 274.237C307.801 274.087 308.084 273.876 308.317 273.614C308.55 273.353 308.728 273.047 308.84 272.716L307.748 268.679Z" fill="#EB9481"/>
<path d="M302.914 267.334C302.914 267.334 302.914 267.393 302.914 267.402C304.746 268.026 305.78 269.625 306.54 271.302C306.426 271.129 306.275 270.983 306.099 270.875C305.922 270.766 305.724 270.696 305.519 270.671C305.313 270.646 305.104 270.666 304.907 270.73C304.71 270.793 304.529 270.899 304.376 271.039C304.376 271.039 304.376 271.146 304.434 271.127C304.743 271.01 305.08 270.991 305.399 271.073C305.718 271.155 306.005 271.334 306.218 271.585C306.572 272.005 306.88 272.463 307.135 272.95C307.232 273.106 307.515 273.008 307.447 272.823C307.33 270.503 305.37 267.422 302.914 267.334Z" fill="#263238"/>
<path d="M303.742 288.967C305.339 290.914 307.044 292.769 308.85 294.524C310.506 296.242 312.675 297.378 315.031 297.761C317.322 297.965 319.613 297.497 320.451 294.699C321.046 292.291 321.102 289.781 320.617 287.349C320.612 287.336 320.611 287.321 320.613 287.308C320.615 287.294 320.62 287.281 320.628 287.269C320.636 287.258 320.647 287.248 320.66 287.242C320.672 287.236 320.686 287.232 320.7 287.232C320.714 287.232 320.728 287.236 320.74 287.242C320.753 287.248 320.763 287.258 320.771 287.269C320.779 287.281 320.785 287.294 320.787 287.308C320.789 287.321 320.787 287.336 320.783 287.349C321.309 291.005 321.855 296.678 318.531 297.946C314.807 299.369 311.151 297.449 308.528 294.875C306.693 293.111 305.058 291.149 303.654 289.026C303.683 288.977 303.742 288.928 303.742 288.967Z" fill="#263238"/>
</svg>