<svg version="1.2" xmlns="http://www.w3.org/2000/svg" viewBox="0 0 629 592" width="629" height="592"><style>.a{fill:#ebebeb}.b{fill:#fff}.c{fill:#c7c7c7}.d{fill:#34a1d3}.e{fill:#263238}.f{fill:#37474f}.g{fill:#a6a6a6}.h{fill:#dbdbdb}.i{fill:#f7a9a0}.j{fill:#455a64}.k{fill:#dd6a57}.l{fill:#ff99ba}</style><path class="a" d="m586.1 243.7c18.9-1 33.4-17 32.4-35.9-0.9-18.8-16.9-33.3-35.8-32.4-18.8 0.9-33.4 17-32.4 35.8 0.9 18.9 17 33.4 35.8 32.5z"/><path fill-rule="evenodd" class="b" d="m579.8 223.1c-0.9-0.6-1.7-1.4-2.9-1.3-0.5 0-0.4-0.3-0.4-0.6q0-6.8 0-13.6c0-0.4 0-0.6 0.4-0.8 3.5-1.8 5-5.2 7.1-8.2 1.1-1.4 1.9-3.1 2.3-4.9 0.4-1.8 0.5-3.6 0.2-5.4-0.1-1 0.4-1.5 1.3-1.7 0.4-0.2 1-0.2 1.4 0 0.5 0.1 0.9 0.4 1.2 0.8 1 1.9 1.6 3.9 2 6q-0.1 2.6-0.7 5.1c-0.1 1.2-0.4 2.5-0.7 3.8 0.4 0.2 0.7 0.1 1 0.1h11.6c1.6 0 2.4 0.4 2.6 1.5 0.1 0.7 0 1.4-0.3 2-0.3 0.6-0.8 1-1.4 1.3-0.3 0.2-0.8 0-0.8 0.5-0.1 0.5 0.5 0.4 0.8 0.6 1.3 1 1.1 2.9-0.5 4.1-0.4 0.3-1.2 0.2-1.2 0.7 0 0.6 0.7 0.5 1 0.8q0.4 0.5 0.5 1.1 0.1 0.6 0 1.2-0.2 0.6-0.6 1-0.4 0.5-1 0.7-0.3 0.1-0.7 0.3c-0.2 0.1-0.3 0.3 0 0.5q0.6 0.3 1 0.9 0.4 0.5 0.4 1.2 0 0.6-0.4 1.2-0.4 0.6-1 0.8l-0.5 0.4c-0.6 0.4-1.3 0.5-2 0.4h-18.1q-0.5 0.1-0.9-0.1-0.4-0.1-0.7-0.4z"/><path fill-rule="evenodd" class="b" d="m562.6 215.1q0-4.4 0-8.7c0-0.6 0-0.9 0.8-0.9q5.3 0 10.6 0c0.7 0 0.8 0.2 0.8 0.9q0 8.7 0 17.4c0 0.8-0.2 1-1 1q-5.1 0-10.2 0c-0.9 0-1-0.3-1-1.1 0-2.8 0-5.7 0-8.6z"/><path fill-rule="evenodd" class="a" d="m191.9 146.6h-156.6v-100.4h156.6zm-155.2-1.4h153.9v-97.7h-153.9z"/><path fill-rule="evenodd" class="a" d="m191.9 60.7h-156.6v-14.5h156.6zm-155.2-1.4h153.9v-11.8h-153.9z"/><path class="c" d="m48.3 53.5c0 0.6-0.2 1.3-0.5 1.8-0.4 0.6-0.9 1-1.5 1.3-0.6 0.2-1.3 0.3-1.9 0.1-0.7-0.1-1.3-0.4-1.7-0.9-0.5-0.4-0.8-1-0.9-1.7-0.2-0.6-0.1-1.3 0.2-1.9 0.2-0.6 0.6-1.1 1.2-1.5 0.5-0.3 1.2-0.5 1.8-0.5q0.7 0 1.3 0.2 0.6 0.3 1.1 0.7 0.4 0.5 0.7 1.1 0.2 0.6 0.2 1.3z"/><path class="a" d="m61.9 53.5c0 0.6-0.2 1.3-0.6 1.8-0.4 0.6-0.9 1-1.5 1.2-0.6 0.3-1.3 0.3-1.9 0.2-0.6-0.1-1.2-0.4-1.7-0.9-0.5-0.5-0.8-1-0.9-1.7-0.1-0.6-0.1-1.3 0.2-1.9 0.2-0.6 0.7-1.1 1.2-1.5 0.6-0.3 1.2-0.5 1.8-0.5q0.7 0 1.3 0.2 0.6 0.3 1.1 0.7 0.5 0.5 0.7 1.1 0.3 0.6 0.3 1.3z"/><path class="d" d="m72.1 56.8c1.8 0 3.3-1.4 3.3-3.3 0-1.8-1.5-3.3-3.3-3.3-1.8 0-3.3 1.5-3.3 3.3 0 1.9 1.5 3.3 3.3 3.3z"/><path class="a" d="m23 269.6c-1.6-6.6-1.2-13.5 1.1-19.8 2.3-6.4 6.5-11.9 11.9-15.9 5.5-4 12-6.3 18.7-6.6 6.8-0.3 13.5 1.5 19.3 5 5.7 3.5 10.3 8.6 13.2 14.7 2.8 6.2 3.8 13 2.8 19.7-1 6.7-4 12.9-8.6 17.9-4.6 5-10.5 8.5-17.1 10.1-4.3 1-8.9 1.2-13.3 0.6-4.4-0.7-8.7-2.3-12.5-4.6-3.9-2.3-7.2-5.4-9.9-9-2.6-3.6-4.5-7.8-5.6-12.1z"/><path class="b" d="m73.7 265.7c-5.2 10.5-17.5 16.6-17.5 16.6 0 0-12.3-6.1-17.4-16.6-4.3-8.6-1.6-18 5.2-20.1 9.7-2.9 12.2 14 12.2 14 0 0 2.5-16.9 12.2-14 6.8 2.1 9.5 11.5 5.3 20.1z"/><path class="a" d="m500.2 69.1c-5.4 3.3-11.6 5.1-17.9 5.1-6.4 0-12.6-1.8-18-5.1-6.3-3.9-11.2-9.8-13.9-16.7-2.7-6.9-3-14.5-1-21.7 2-7.1 6.3-13.4 12.3-17.9 5.9-4.5 13.1-6.9 20.6-6.9 7.4 0 14.6 2.4 20.6 6.9 5.9 4.5 10.2 10.8 12.2 17.9 2.1 7.2 1.7 14.8-1 21.7-2.7 6.9-7.5 12.8-13.9 16.7z"/><path class="b" d="m482.3 46.5c5.7 0 10.4-4.6 10.4-10.4 0-5.7-4.7-10.4-10.4-10.4-5.8 0-10.4 4.7-10.4 10.4 0 5.8 4.6 10.4 10.4 10.4z"/><path class="b" d="m500.2 64.8v4.3c-5.4 3.3-11.6 5.1-17.9 5.1-6.4 0-12.6-1.8-18-5.1v-4.3c0-4.7 1.9-9.3 5.3-12.7 3.3-3.4 7.9-5.2 12.7-5.2 4.7 0 9.3 1.8 12.7 5.2 3.3 3.4 5.2 8 5.2 12.7z"/><path class="e" d="m52.8 501.9l63.8-0.3 63.8-0.2 127.6-0.2 127.6 0.2 63.8 0.2 63.8 0.3-63.8 0.3-63.8 0.1-127.6 0.3-127.6-0.3-63.8-0.1z"/><path class="a" d="m166.2 580.9c86.3 0 156.2-10 156.2-22.5 0-12.4-69.9-22.4-156.2-22.4-86.2 0-156.1 10-156.1 22.4 0 12.5 69.9 22.5 156.1 22.5z"/><path class="a" d="m464.1 580.9c86.3 0 156.2-10 156.2-22.5 0-12.4-69.9-22.4-156.2-22.4-86.2 0-156.1 10-156.1 22.4 0 12.5 69.9 22.5 156.1 22.5z"/><path class="f" d="m541.1 89h-460.4v342.6h460.4z"/><path class="b" d="m517.8 111.3h-413.8v246h413.8z"/><path class="c" d="m541.1 381.1h-460.4v50.5h460.4z"/><path class="f" d="m409.1 493.3h-196.4v16.4h196.4z"/><path class="c" d="m385.7 493.4h-149.6l3.8-28.5 0.2-1.4 0.3-2.6 0.2-1.4 0.4-2.7v-0.4l0.1-0.9 0.4-2.7 0.2-1.3 2.6-19.9h133.1l2.5 18.8 0.2 0.9 0.4 3.1 0.1 0.9 0.1 1.1 0.3 2 0.1 0.9 0.4 3.1 0.2 0.9z"/><path class="e" d="m517.8 111.3h-413.8v13.3h413.8z"/><path class="c" d="m114.6 118c0 0.6-0.2 1.3-0.6 1.8-0.3 0.6-0.9 1-1.5 1.2-0.6 0.3-1.2 0.3-1.9 0.2-0.6-0.1-1.2-0.4-1.7-0.9-0.4-0.5-0.7-1-0.9-1.7-0.1-0.6 0-1.3 0.2-1.9 0.3-0.6 0.7-1.1 1.2-1.5 0.6-0.3 1.2-0.5 1.9-0.5q0.6 0 1.3 0.2 0.6 0.3 1 0.7 0.5 0.5 0.7 1.1 0.3 0.6 0.3 1.3z"/><path class="b" d="m128 118c0 0.6-0.2 1.3-0.5 1.8-0.4 0.6-0.9 1-1.5 1.2-0.6 0.3-1.3 0.3-1.9 0.2-0.7-0.1-1.3-0.4-1.7-0.9-0.5-0.5-0.8-1-0.9-1.7-0.2-0.6-0.1-1.3 0.2-1.9 0.2-0.6 0.6-1.1 1.2-1.5 0.5-0.3 1.2-0.5 1.8-0.5q0.7 0 1.3 0.2 0.6 0.3 1.1 0.7 0.4 0.5 0.7 1.1 0.2 0.6 0.2 1.3z"/><path class="d" d="m141.5 118c0 0.6-0.2 1.3-0.6 1.8-0.3 0.6-0.8 1-1.4 1.2-0.6 0.3-1.3 0.3-2 0.2-0.6-0.1-1.2-0.4-1.6-0.9-0.5-0.4-0.8-1-0.9-1.7-0.2-0.6-0.1-1.3 0.1-1.9 0.3-0.6 0.7-1.1 1.3-1.5 0.5-0.3 1.1-0.5 1.8-0.5 0.9 0 1.7 0.3 2.3 0.9 0.7 0.7 1 1.5 1 2.4z"/><path class="f" d="m319.1 402.9c0 1.7-0.5 3.3-1.4 4.7-1 1.3-2.3 2.4-3.8 3-1.5 0.7-3.2 0.8-4.8 0.5-1.6-0.3-3.1-1.1-4.3-2.3-1.1-1.2-1.9-2.7-2.3-4.3-0.3-1.6-0.1-3.3 0.5-4.8 0.7-1.5 1.8-2.8 3.1-3.7 1.4-1 3-1.4 4.7-1.4 2.2 0 4.3 0.9 5.9 2.4 1.5 1.6 2.4 3.7 2.4 5.9z"/><path class="g" d="m380.7 456.4h-139.7l0.1-0.9 0.4-2.7 0.2-1.3 2.6-19.9h133.1l2.5 18.8 0.2 0.9 0.4 3.1 0.1 0.9z"/><path class="d" d="m517.8 124.6h-413.8v55.1h413.8z"/><path fill-rule="evenodd" class="a" d="m493.9 335.6h-167.3v-117.5h167.3zm-165.9-1.3h164.5v-114.8h-164.5z"/><path class="a" d="m326.3 217.1l-0.8 1.1 166 115.4 0.8-1.1z"/><path class="a" d="m327.7 335.5l-0.8-1.1c1.6-1.1 159.3-111.2 165.9-116.1l0.8 1.1c-6.5 4.9-164.3 115-165.9 116.1z"/><path class="e" d="m389.4 124.6h-157v48.1h157z"/><path class="a" d="m297 194.9h-109v2.2h109z"/><path class="a" d="m272.2 200.5h-84.2v2.2h84.2z"/><path class="a" d="m290.4 206.1h-102.4v2.2h102.4z"/><path class="a" d="m299.4 211.7h-111.4v2.2h111.4z"/><path class="a" d="m245.8 217.3h-57.8v2.2h57.8z"/><path class="a" d="m297.3 222.9h-109.3v2.2h109.3z"/><path class="a" d="m279 228.5h-91v2.2h91z"/><path class="a" d="m302.4 234.1h-114.4v2.2h114.4z"/><path class="a" d="m297.3 239.7h-109.3v2.2h109.3z"/><path class="a" d="m302.4 245.3h-114.4v2.2h114.4z"/><path class="b" d="m144.7 139.7h-16.1v2.2h16.1z"/><path class="b" d="m144.7 145.3h-16.1v2.2h16.1z"/><path class="b" d="m144.7 150.9h-16.1v2.2h16.1z"/><path class="d" d="m493.2 194.9h-165.9v12.3h165.9z"/><path class="g" d="m181.2 194.9h-52.6v52.6h52.6z"/><path class="b" d="m154.9 221.2c5.3 0 9.5-4.3 9.5-9.5 0-5.3-4.2-9.5-9.5-9.5-5.2 0-9.5 4.2-9.5 9.5 0 5.2 4.3 9.5 9.5 9.5z"/><path class="b" d="m171.4 237.9v9.6h-33v-9.6c0-4.3 1.8-8.5 4.8-11.6 3.1-3.1 7.3-4.8 11.7-4.8 4.4 0 8.5 1.7 11.6 4.8 3.1 3.1 4.9 7.3 4.9 11.6z"/><path fill-rule="evenodd" class="b" d="m265.2 161.7v-9.6q0-0.2 0.1-0.4 0.1-0.1 0.2-0.3 0.1-0.1 0.3-0.2 0.1 0 0.3 0h2.3c0.9 0 1.6 0.3 2.2 0.9 0.6 0.6 0.9 1.3 0.9 2.2 0 0.6-0.2 1.3-0.6 1.8 0.7 0.4 1.1 1 1.4 1.7 0.3 0.7 0.3 1.5 0.1 2.2-0.2 0.8-0.6 1.4-1.2 1.9-0.6 0.4-1.4 0.7-2.1 0.7h-3q-0.2 0-0.3-0.1-0.2-0.1-0.3-0.2-0.1-0.1-0.2-0.3-0.1-0.1-0.1-0.3zm1.8-6.1h1.4c0.3-0.1 0.7-0.2 0.9-0.5 0.3-0.2 0.4-0.6 0.4-0.9 0-0.3-0.1-0.7-0.4-0.9-0.2-0.3-0.6-0.4-0.9-0.4h-1.4zm0 5.2h2.1q0.3 0 0.6-0.1 0.3-0.2 0.6-0.4 0.2-0.2 0.3-0.6 0.1-0.3 0.1-0.6c0-0.4-0.1-0.9-0.4-1.2-0.4-0.3-0.8-0.5-1.2-0.5h-2.1z"/><path class="b" d="m274.9 161.7v-9.6q0-0.2 0.1-0.4 0-0.1 0.2-0.3 0.1-0.1 0.3-0.2 0.1 0 0.3 0 0.4 0 0.6 0.2 0.3 0.3 0.3 0.7v8.7h4.4q0.4 0 0.7 0.2 0.2 0.3 0.2 0.7 0 0.4-0.2 0.6-0.3 0.3-0.7 0.3h-5.3q-0.2 0-0.3-0.1-0.2-0.1-0.3-0.2-0.2-0.1-0.2-0.3-0.1-0.1-0.1-0.3z"/><path fill-rule="evenodd" class="b" d="m292.4 152.6c1.1 1.1 1.7 2.6 1.7 4.1 0 1.5-0.6 3-1.7 4.1q-0.7 0.8-1.7 1.3-1 0.4-2.2 0.5-1.1-0.1-2.1-0.5-1.1-0.5-1.9-1.3c-1-1.1-1.6-2.6-1.6-4.1 0-1.5 0.6-3 1.6-4.1q0.8-0.9 1.9-1.3 1-0.5 2.1-0.5 1.2 0 2.2 0.5 1 0.4 1.7 1.3zm-0.2 4.1c0-1.1-0.4-2.1-1.1-2.9q-0.5-0.5-1.2-0.8-0.6-0.3-1.4-0.3-0.7 0-1.4 0.3-0.7 0.3-1.2 0.8c-0.7 0.8-1.1 1.8-1.1 2.9 0 1 0.4 2.1 1.1 2.8q0.5 0.6 1.2 0.9 0.7 0.3 1.4 0.3 0.8 0 1.4-0.3 0.7-0.3 1.2-0.9c0.7-0.7 1.1-1.8 1.1-2.8z"/><path class="b" d="m296.8 156.7q0-1.2 0.5-2.3 0.4-1 1.3-1.9 0.8-0.8 1.9-1.2 1.1-0.5 2.3-0.5c1.4 0 2.7 0.5 3.7 1.3q0.2 0.1 0.3 0.3 0.1 0.1 0.1 0.3 0.1 0.2 0 0.4 0 0.2-0.1 0.4-0.2 0.1-0.3 0.2-0.2 0.1-0.4 0.1-0.2 0-0.4 0-0.2-0.1-0.3-0.2c-0.8-0.6-1.7-0.9-2.6-0.9q-0.8 0-1.6 0.3-0.7 0.3-1.3 0.9-0.6 0.5-0.9 1.3-0.3 0.7-0.4 1.5 0.1 0.8 0.4 1.5 0.3 0.8 0.9 1.3 0.6 0.6 1.3 0.9 0.8 0.3 1.6 0.3c0.8 0 1.6-0.2 2.2-0.6v-2.2h-2.3q-0.4-0.1-0.6-0.3-0.3-0.3-0.3-0.7 0-0.2 0-0.3 0.1-0.2 0.3-0.3 0.1-0.2 0.3-0.2 0.1-0.1 0.3-0.1h3.3q0.1 0 0.3 0.1 0.2 0 0.3 0.2 0.2 0.1 0.2 0.3 0.1 0.1 0.1 0.3v3.6q0 0.1 0 0.3v0.1q-0.1 0.2-0.3 0.4c-1.1 0.8-2.4 1.2-3.7 1.2q-1.2 0.1-2.3-0.4-1.1-0.4-2-1.2-0.8-0.8-1.3-1.9-0.5-1.1-0.5-2.3z"/><path fill-rule="evenodd" class="b" d="m319.3 158.1h-2v3.6q0 0.3-0.3 0.6-0.3 0.3-0.6 0.3-0.4 0-0.7-0.3-0.2-0.3-0.2-0.6v-9.6q0-0.4 0.2-0.7 0.3-0.2 0.7-0.2h2.9q0.7-0.1 1.4 0.2 0.7 0.2 1.2 0.7 0.5 0.5 0.8 1.2 0.3 0.6 0.3 1.4 0 0.7-0.3 1.3-0.3 0.7-0.8 1.2-0.5 0.5-1.2 0.7-0.7 0.3-1.4 0.2zm-2-1.7h2q0.3 0 0.7-0.1 0.3-0.1 0.6-0.3 0.2-0.3 0.4-0.6 0.1-0.3 0.1-0.7 0-0.3-0.1-0.7-0.2-0.3-0.4-0.5-0.3-0.3-0.6-0.4-0.4-0.1-0.7-0.1h-2z"/><path fill-rule="evenodd" class="b" d="m334 152.6c1 1.1 1.6 2.6 1.6 4.1 0 1.5-0.6 3-1.6 4.1q-0.8 0.8-1.8 1.3-1 0.4-2.1 0.5-1.2-0.1-2.2-0.5-1-0.5-1.8-1.3c-1.1-1.1-1.6-2.6-1.6-4.1 0-1.5 0.5-3 1.6-4.1q0.8-0.9 1.8-1.3 1-0.5 2.2-0.5 1.1 0 2.1 0.5 1 0.4 1.8 1.3zm-0.2 4.1c0-1.1-0.4-2.1-1.2-2.9q-0.5-0.5-1.1-0.8-0.7-0.3-1.5-0.3-0.7 0-1.4 0.3-0.7 0.3-1.2 0.8c-0.7 0.8-1.1 1.8-1.1 2.9 0 1 0.4 2.1 1.1 2.8q0.5 0.6 1.2 0.9 0.7 0.3 1.4 0.3 0.8 0 1.5-0.3 0.7-0.3 1.1-0.9c0.8-0.7 1.2-1.8 1.2-2.8z"/><path class="b" d="m338.4 159.7q0.2-0.2 0.6-0.3 0.3 0 0.6 0.2c0.9 0.8 1.9 1.2 3.1 1.3 0.7 0 1.4-0.2 2-0.6q0.3-0.2 0.5-0.5 0.2-0.3 0.2-0.7 0-0.3-0.1-0.5-0.2-0.3-0.5-0.5-1-0.6-2.2-0.8-1.1-0.2-2.1-0.6c-0.6-0.3-1.2-0.7-1.6-1.3q-0.3-0.6-0.3-1.4 0-0.7 0.3-1.3 0.4-0.6 1-1c0.8-0.6 1.8-0.9 2.8-0.9 1.3 0.1 2.5 0.6 3.6 1.4q0.2 0.2 0.3 0.5 0.1 0.3-0.1 0.6-0.1 0.2-0.2 0.3-0.2 0.1-0.3 0.1-0.2 0-0.4 0-0.1 0-0.3-0.1c-0.7-0.6-1.6-1-2.6-1.1-0.6 0-1.3 0.2-1.8 0.6q-0.3 0.2-0.4 0.4-0.2 0.3-0.2 0.6-0.1 0.3 0.1 0.5 0.1 0.2 0.4 0.4 1 0.6 2.1 0.7 1.1 0.2 2.2 0.7c0.7 0.3 1.2 0.8 1.6 1.4q0.4 0.6 0.4 1.3 0 0.8-0.4 1.5-0.3 0.6-0.9 1.1c-0.9 0.6-2 0.9-3.1 0.9-1.5-0.1-2.9-0.6-4.1-1.6q-0.1-0.1-0.2-0.3-0.1-0.1-0.2-0.3 0-0.2 0-0.3 0.1-0.2 0.2-0.4z"/><path class="b" d="m356.4 153h-2.6v8.7q0 0.3-0.3 0.6-0.3 0.3-0.6 0.3-0.4 0-0.7-0.3-0.2-0.3-0.2-0.6v-8.7h-2.6q-0.4 0-0.6-0.3-0.3-0.3-0.3-0.6 0-0.2 0.1-0.4 0-0.2 0.2-0.3 0.1-0.1 0.3-0.2 0.1-0.1 0.3 0h7q0.3 0 0.6 0.2 0.3 0.3 0.3 0.7 0 0.3-0.3 0.6-0.3 0.3-0.6 0.3z"/><path class="b" d="m373.5 166h-125.3v1.6h125.3z"/><path class="a" d="m209.1 255.1h-80.5v80.5h80.5z"/><path class="a" d="m128.6 311.5h80.5v-56.4h-80.5z"/><path class="h" d="m138 271.2c0 1.3 0.4 2.6 1.1 3.7 0.8 1.1 1.8 1.9 3 2.4 1.2 0.5 2.6 0.7 3.9 0.4 1.3-0.3 2.5-0.9 3.4-1.8 0.9-1 1.6-2.1 1.8-3.4 0.3-1.3 0.1-2.7-0.4-3.9-0.5-1.2-1.3-2.3-2.4-3-1.1-0.7-2.4-1.1-3.7-1.1q-1.3 0-2.6 0.5-1.2 0.5-2.1 1.4-1 1-1.5 2.2-0.5 1.2-0.5 2.6z"/><path class="c" d="m164.3 299.2h44.8l-22.4-30.3z"/><path class="h" d="m146.8 299.4h36.9l-18.4-19.8z"/><path class="h" d="m209.1 299.4h-80.5v12.1h80.5z"/><path class="b" d="m203.4 317.1h-69.1v2.2h69.1z"/><path class="b" d="m182.2 322.7h-47.9v2.2h47.9z"/><path class="b" d="m192.5 328.3h-58.2v2.2h58.2z"/><path class="a" d="m302.4 255.1h-80.5v80.5h80.5z"/><path class="h" d="m221.9 311.5h80.5v-56.4h-80.5z"/><path class="a" d="m262.1 299.4c8.5 0 15.3-6.9 15.3-15.3 0-8.5-6.8-15.3-15.3-15.3-8.4 0-15.3 6.8-15.3 15.3 0 8.4 6.9 15.3 15.3 15.3z"/><path class="b" d="m254.8 275.8v16.6l17.6-8.3z"/><path class="b" d="m296.7 317.1h-69.1v2.2h69.1z"/><path class="b" d="m275.5 322.7h-47.9v2.2h47.9z"/><path class="b" d="m285.8 328.3h-58.2v2.2h58.2z"/><path class="b" d="m493.2 139.7h-82.5v13.4h82.5z"/><path class="e" d="m493.2 139.7h-13.4v13.4h13.4z"/><path class="b" d="m487 145.1l-1.3 0.9 3.8 5 1.3-0.9z"/><path class="b" d="m488.3 143c0.4 0.5 0.7 1.2 0.7 1.8 0.1 0.7-0.1 1.4-0.4 1.9-0.4 0.6-0.9 1.1-1.5 1.4-0.6 0.3-1.2 0.4-1.9 0.3-0.7-0.1-1.3-0.4-1.8-0.8-0.5-0.5-0.8-1-1-1.7-0.2-0.6-0.2-1.3 0.1-1.9 0.2-0.7 0.6-1.2 1.1-1.6 0.7-0.6 1.6-0.8 2.5-0.7 0.9 0.1 1.7 0.6 2.2 1.3z"/><path class="e" d="m487.3 143.8q0.3 0.5 0.4 1.1 0 0.6-0.3 1.2-0.3 0.5-0.8 0.8-0.6 0.3-1.2 0.2-0.6-0.1-1.1-0.5-0.4-0.4-0.6-1-0.2-0.6 0-1.2 0.2-0.6 0.7-0.9c0.5-0.4 1-0.5 1.5-0.4 0.6 0 1 0.3 1.4 0.7z"/><path class="i" d="m266.6 560.3c-2.6 0.8-76.8 0.6-79.7-1.2-1-0.6-1.6-11.5-2-24.6q-0.1-4.2-0.2-8.7c0-3.5-0.1-7-0.1-10.5-0.1-15.5 0.1-29.2 0.1-29.2h48.4v29.2 10.5l-0.3 8.7c0 0 28.4 12.9 31.3 15.1 2.9 2.3 5.1 9.8 2.5 10.7z"/><path class="b" d="m266.6 560.3c-2.6 0.8-76.8 0.6-79.7-1.2-1-0.6-1.6-11.5-2-24.6q-0.1-4.2-0.2-8.7c0-3.5-0.1-7-0.1-10.5h48.5v10.5l-0.3 8.7c0 0 28.4 12.9 31.3 15.1 2.9 2.3 5.1 9.8 2.5 10.7z"/><path class="d" d="m266.9 560.4c-1.7 0.6-33.4 0.7-56.4 0.2-5.3-0.1-10.2-0.3-14.1-0.4-5.5-0.3-9.1-0.6-9.6-1-1.3-0.8-2-16.7-2.3-33.5h48.6l-0.2 8.8c0 0 28.5 12.9 31.4 15.2 2.9 2.3 5.2 9.8 2.6 10.7z"/><path class="e" d="m265.8 557.4c-12.5-0.3-63.1-0.5-75.5 0.1-0.1 0-0.1 0 0 0 12.4 0.7 63 0.4 75.5 0 0.3 0.1 0.3-0.1 0-0.1z"/><path class="e" d="m234.6 531.7c-4.9-0.9-11-0.2-14.7 3.3-0.2 0.2 0 0.4 0.2 0.3 4.7-1.5 9.6-2.5 14.5-3q0.1 0 0.1-0.1 0.1-0.1 0.1-0.2 0-0.1-0.1-0.1 0-0.1-0.1-0.2z"/><path class="e" d="m238.2 533.9c-5-0.9-11-0.2-14.8 3.3-0.1 0.1 0 0.3 0.2 0.3 4.7-1.5 9.6-2.5 14.5-3q0.1 0 0.2 0 0 0 0.1-0.1 0 0 0-0.1 0.1 0 0.1-0.1 0-0.1-0.1-0.1 0-0.1 0-0.1-0.1-0.1-0.1-0.1-0.1 0-0.1 0z"/><path class="e" d="m241.7 536c-4.9-0.9-11-0.2-14.7 3.3-0.2 0.2 0 0.4 0.2 0.3 4.7-1.5 9.6-2.5 14.5-2.9q0.1 0 0.2-0.1 0.1-0.1 0.1-0.2 0-0.2-0.1-0.3-0.1-0.1-0.2-0.1z"/><path class="e" d="m245.3 538.2c-5-0.9-11-0.2-14.8 3.3-0.1 0.1 0 0.3 0.2 0.3 4.7-1.5 9.6-2.5 14.5-3q0.1 0 0.2-0.1 0.1-0.1 0.1-0.2 0-0.1-0.1-0.2 0-0.1-0.1-0.1z"/><path fill-rule="evenodd" class="e" d="m241.5 527.4c-3.5 2.7-8 3.8-12.1 5.3q-0.1 0-0.3 0-0.1-0.1-0.2-0.2-0.1 0-0.2-0.2-0.1-0.1-0.1-0.3 0 0 0 0-0.1 0-0.1 0 0 0 0-0.1 0 0 0 0c1.5-4.4 4.2-8.3 7.6-11.3 2.1-1.7 5.7-3 7.6-0.2 1.9 2.5-0.2 5.4-2.2 7zm1.3-3.9c0.9-5.4-5-2.6-6.4-1.3q-1.4 1.3-2.6 2.8-2.5 3.1-4.6 6.5c1.9-0.9 3.9-1.6 5.9-2.4 2.4-0.9 7.2-2.7 7.7-5.6z"/><path fill-rule="evenodd" class="e" d="m212.1 524.3c1.2-3 5-2.8 7.4-1.7 4.1 2.1 7.6 5.2 10.2 9q0 0.1 0 0.1 0 0 0 0.1 0 0 0 0 0 0-0.1 0.1 0.1 0.1 0 0.2 0 0.2-0.1 0.3-0.1 0.1-0.2 0.2-0.1 0-0.3 0c-4.3-0.4-8.9-0.3-13-2.1-2.4-0.9-5.1-3.2-3.9-6.2zm10.6 6.4c2.1 0.2 4.2 0.4 6.3 0.7-1.9-1.7-3.9-3.6-6-5.1q-1.6-1.2-3.3-2.1c-1.8-0.9-8.1-2.2-5.9 2.8 1.2 2.8 6.3 3.3 8.9 3.7z"/><path class="j" d="m168.6 280.1c0 0 13.1 129.2 13.4 130.9 0 0.2 0.1 2.7 0.2 6.7 0.7 22.3 2.5 91.7 2.5 91.7h53.4c0 0-3.5-82.2-5.5-101.4-2.6-24.4-18.6-127.9-18.6-127.9z"/><path class="e" d="m188.3 415.5q-2.4-42-7.4-83.8c-1.9-15.7-4.1-31.4-6.3-47 0-0.2-0.3-0.2-0.3 0 4.1 27.9 7.1 55.9 9.6 84 2.6 28 4.3 56.1 5.5 84.2 0.6 15.9 1.1 31.8 1.6 47.8q0 0.1 0.1 0.1 0.1 0.1 0.2 0.1 0.1 0 0.2-0.1 0.1 0 0.1-0.1c-0.8-28.4-1.6-56.8-3.3-85.2z"/><path class="e" d="m234.6 500.8q-2.1-0.2-4.3-0.2c-1.6 0-3.2-0.1-4.8-0.2q-4.6-0.1-9.3-0.2-9.3-0.2-18.7 0.1l-5.1 0.2c-1.8 0.1-3.6 0.2-5.5 0.2-0.1 0-0.1 0.2 0 0.2 3.2 0 6.3 0.3 9.5 0.4 3.1 0.1 6.1 0.2 9.2 0.2 6.2 0.1 12.5 0 18.7-0.2 1.7 0 3.4-0.1 5.1-0.1l2.8-0.1q1.2 0 2.4-0.1 0 0 0.1 0 0 0 0 0 0-0.1 0.1-0.1 0 0 0 0 0-0.1 0-0.1 0 0-0.1 0 0 0 0 0 0 0-0.1 0z"/><path class="e" d="m168.6 280.1c0 0 13.1 129.2 13.4 130.9 0 0.2 0.1 2.7 0.2 6.7l25.2-137.6z"/><path class="i" d="m78.7 525.5c-2.4-1.4-50.8-57.8-51.2-61.1-0.2-1.3 7.6-8.8 17.3-17.6 2.1-1.9 4.1-4 6.4-5.9 2.9-2.3 5.9-4.6 8.7-6.8 12.3-9.6 23-17.2 23-17.2l30.7 35.6-21.8 17.7-9 7.3-6.7 5.5c0 0 8.8 29.9 9 33.6 0.1 3.7-4.1 10.2-6.4 8.9z"/><path class="b" d="m78.7 525.5c-2.4-1.4-50.8-57.8-51.2-61.1-0.2-1.3 7.6-8.8 17.3-17.6 2.1-1.9 4.1-4 6.4-5.9 2.9-2.3 5.9-4.6 8.7-6.8 9.5 10.9 23.3 26.5 31.9 36.1l-9 7.3-6.7 5.5c0 0 8.8 29.9 9 33.6 0.1 3.7-4.1 10.2-6.4 8.9z"/><path class="d" d="m78.7 525.7c-2.3-1.4-51-58.1-51.4-61.4-0.3-1.6 11.4-12.4 23.9-23.6l31.7 36.7-6.9 5.5c0 0 8.9 30.1 9.1 33.8 0.1 3.7-4 10.4-6.4 9z"/><path class="e" d="m80.3 523c-7.9-9.8-40.8-48.1-49.4-57.1-0.1 0-0.1-0.1 0 0 7.6 9.8 40.8 47.9 49.2 57.1 0.2 0.3 0.4 0.2 0.2 0z"/><path class="e" d="m79.4 482.6c-2.5-4.4-7-8.5-12.2-9-0.2 0-0.2 0.2 0 0.3 4.2 2.6 8.1 5.6 11.7 9q0.1 0.1 0.2 0.1 0.1 0 0.2-0.1 0-0.1 0.1-0.2 0 0 0-0.1z"/><path class="e" d="m80.1 486.7c-2.5-4.4-7-8.5-12.2-9-0.2 0-0.2 0.2 0 0.3 4.2 2.6 8.1 5.6 11.7 9q0.1 0.1 0.2 0.1 0.1 0 0.2 0 0.1-0.1 0.1-0.2 0-0.1 0-0.2z"/><path class="e" d="m80.7 490.8c-2.5-4.4-7-8.5-12.1-9-0.2 0-0.2 0.2-0.1 0.3 4.3 2.6 8.2 5.6 11.8 9.1q0.1 0 0.2 0 0.1 0 0.2-0.1 0.1 0 0.1-0.1 0-0.1-0.1-0.2z"/><path class="e" d="m81.4 494.9c-2.5-4.4-7-8.5-12.1-9-0.2 0-0.2 0.2-0.1 0.3 4.2 2.6 8.2 5.6 11.8 9.1q0 0 0.1 0.1 0 0 0.1 0 0 0 0.1 0 0.1-0.1 0.1-0.1 0.1 0 0.1-0.1 0-0.1 0-0.1 0-0.1 0-0.1 0-0.1-0.1-0.1z"/><path fill-rule="evenodd" class="e" d="m87.3 484.9c-4.4-0.8-8.2-3.6-12-5.7q-0.1-0.1-0.1-0.2-0.1-0.1-0.1-0.3 0-0.1 0.1-0.2 0-0.2 0.1-0.3 0 0 0 0 0 0 0-0.1 0 0 0 0 0 0 0-0.1c4.3-1.7 9-2.2 13.6-1.5 2.6 0.4 5.9 2.4 5.1 5.5-0.8 3.1-4.3 3.5-6.7 2.9zm3.7-1.6c4.7-2.9-1.3-5.4-3.2-5.6q-2-0.3-3.9-0.2c-2.6 0-5.3 0.5-7.9 0.8 1.9 0.9 3.8 2 5.7 3 2.2 1.1 6.7 3.6 9.3 2z"/><path fill-rule="evenodd" class="e" d="m70.2 460.7c3.1-1.1 5.4 1.9 6.1 4.5 1.2 4.5 1.1 9.2-0.1 13.6q-0.1 0-0.1 0.1 0 0-0.1 0-0.1 0.1-0.2 0.2-0.1 0.1-0.2 0.1-0.2 0-0.3-0.1-0.2 0-0.3-0.2c-2.5-3.5-5.5-7-6.9-11.2-0.8-2.5-1-5.9 2.1-7zm2.1 12.1c1.2 1.8 2.5 3.5 3.6 5.3q0.2-4-0.1-8-0.1-1.9-0.5-3.8c-0.5-1.9-3.6-7.5-6-2.6-1.3 2.8 1.7 7 3 9.1z"/><path class="j" d="m213.9 280.1c0 0-3.3 19.5-15.8 29.6 0 0-29.5 89.4-36.1 99-11 15.8-65.6 57.9-65.6 57.9l-35.2-40.9c0 0 52.9-37.6 57-43.3 2.8-3.8 23.4-61.3 23.1-63.3-4.3-23.7 6.4-39.1 6.4-39.1z"/><path class="e" d="m151.9 283.5c-2.4 4.8-4 9.8-5 15q-0.7 3.9-0.7 7.9c0 2.8 0.3 5.7 0.4 8.5 0.1 2.9-0.2 5.8-0.9 8.7-0.6 2.7-1.5 5.4-2.3 8.1q-2.5 8.2-5.3 16.5-5.6 16.3-12.4 32.2c-0.9 2.5-2.2 4.8-3.9 6.9q-3 2.9-6.4 5.2l-14.3 10.7-28.6 21.5v0.1c-0.3 0.2 0 0.7 0.3 0.5 9.6-7.2 15.7-11.7 25.3-18.9l14.5-10.9c2.3-1.7 4.6-3.4 6.9-5.1 2-1.5 3.6-3.4 4.9-5.5q1.9-3.5 3.3-7.3c1.1-2.7 2.2-5.4 3.3-8.1q3.2-7.9 6-16 2.9-8 5.5-16.4c0.9-2.8 1.7-5.6 2.6-8.4q1.2-4 2-8.1c0.8-5.7-0.4-11.4-0.1-17 0.2-5.5 1.3-10.9 3.3-16q0.7-2 1.7-4c0.1-0.1-0.1-0.2-0.1-0.1z"/><path class="e" d="m170.2 284.2c-0.9 3.8-3 7.2-6 9.6-3.4 2.7-7.4 4.3-11.7 4.6-0.7 0.1-0.7 1.2 0 1.2 8.7-0.4 17.2-6.3 18.1-15.4 0-0.2-0.3-0.2-0.4 0z"/><path class="e" d="m206.1 303.4q-4.6 2.1-8.7 5.2c-2.9 2-5.6 4.2-8.4 6.4q0 0 0 0 0 0.1 0 0.1 0 0 0.1 0.1 0 0 0.1-0.1c2.9-1.8 6-3.5 8.9-5.4q4.4-2.7 8.2-6.1 0 0 0-0.1 0 0 0-0.1-0.1 0-0.1 0 0 0-0.1 0z"/><path class="e" d="m206.5 285.2c-0.4 2.1-0.9 4-1.3 6-0.4 2-0.7 3.8-1.2 5.7-0.4 1.8-1.3 3.4-2.6 4.7-0.8 0.7-1.6 1.3-2.3 1.9q-0.7 0.5-1.4 1c0-0.2 0.1-0.5 0.1-0.8q0.2-1.1 0.4-2.3 0.5-2.5 0.8-5.1c0.5-3.3 1-6.7 1.7-10 0-0.1-0.2-0.1-0.2 0-0.8 3.3-1.7 6.5-2.5 9.8-0.3 1.7-1.6 9.6-1.6 10.2q-0.1 0.9-0.2 1.8-0.1 0.9 0 1.8c0 0.1 0.2 0.1 0.3 0q0.3-0.9 0.5-1.8 0.2-0.8 0.4-1.7c0-0.2 0-0.4 0.1-0.6 0.8-0.5 1.5-1.2 2.2-1.7 0.8-0.5 1.6-1.1 2.4-1.7 1.4-1.2 2.4-2.8 2.9-4.5q0.7-2.9 0.9-5.8c0.2-2.2 0.4-4.5 0.7-6.8q0-0.1 0-0.1-0.1 0-0.1 0z"/><path class="e" d="m101.4 458.7c-0.8-1.2-1.8-2.3-2.8-3.4-0.9-1.1-2-2.5-3-3.7q-2.9-3.6-5.9-7.2c-3.9-4.8-8-9.5-12.3-14q-1.8-1.9-3.5-3.8c-1.2-1.2-2.6-2.6-3.8-4-0.1-0.1-0.2 0-0.1 0.2 2.1 2.3 3.9 4.9 5.9 7.3 2 2.4 3.9 4.8 5.9 7.2 4 4.7 8.2 9.4 12.4 13.9 1.1 1.3 2.3 2.6 3.5 3.8 0.6 0.7 1.2 1.4 1.8 2 0.7 0.6 1.1 1.3 1.7 1.8q0 0 0.1 0.1 0 0 0.1-0.1 0 0 0-0.1 0 0 0 0z"/><path class="e" d="m197.8 250.6c-3.4 1.5-7 2.7-10.7 3.5 7.1-7.3 11.1-26.7 9.8-24.1-6.2 12.3-17.9 24.7-21.3 24.7-8-1.1-15.4-4.7-21.2-10.4 8.8-8 13.4-27.6 12.6-26.5-7.9 11.6-19.6 16.6-21.3 16.1-4.8-7.6-6.7-14.4-5.6-14.8 7.6-2.9 16.1-13 24.1-23.9 7.9-10.8 13.2-21.5 22.9-30.5 8.8-8.2 22.1-6.9 28.1-0.1 15.7 17.7-12.6 83.7-17.4 86z"/><path class="e" d="m198.8 161.1c-5.6 0-11.1 3.7-15 7.5-5.1 5-9.2 11.1-13.8 16.7-8.9 10.9-19.4 20.4-31.3 28.1q0 0.1-0.1 0.2 0 0.1 0.1 0.1 0 0.1 0.1 0.2 0.1 0 0.2-0.1c12.1-5.2 21.8-14.5 30.4-24.5 4.4-5.1 8.2-10.6 12.3-15.8 2.3-2.9 4.9-5.5 7.9-7.7 2.8-1.8 5.9-3.1 9.3-3.8q0.1 0 0.2-0.2 0.1-0.1 0.1-0.3 0-0.2-0.1-0.3-0.1-0.1-0.3-0.1z"/><path class="i" d="m198.7 219.4c3.7 7.7 29.6 32.4 51 40.1 7.8 2.8 41.5-5.3 49.5-8.7 9.3-4 3.1-27.3-2.9-27.2-7.4 0-39.4 7.7-46.2 7.5-8.3-0.2-27.6-12.9-44-19.3-8.5-3.3-10.3 1.6-7.4 7.6z"/><path class="i" d="m299.2 250.8c3-1.1 16.3-7.3 19.6-9.9 3.4-2.6 12.4-10.7 10.7-13.4-1.7-2.7-4.6-0.6-4.6-0.6 0 0 3.3-4 1.3-6.6-1.9-2.6-6.2 0.9-6.2 0.9 0 0 3-4.4 0.9-6.9-2.2-2.5-5.9 1.8-5.9 1.8 0 0 3-3.9 0.4-5.1-3.2-1.6-7.9 6.2-11.8 8.7-0.8 0.6-18.7 10.5-18.7 10.5z"/><path class="e" d="m315.3 215.8c-3.4 5.7-5.9 7.6-11.8 10.5-0.1 0 0 0.2 0.1 0.2 6-2.4 9.5-4.3 12-10.6 0.1-0.3-0.1-0.4-0.3-0.1z"/><path class="e" d="m320.2 220.7c-4.1 5.6-6.8 7.7-12.7 11.2-0.1 0 0 0.2 0.1 0.2 6.1-3 9.5-5 12.9-11.1 0.1-0.3-0.1-0.5-0.3-0.3z"/><path class="e" d="m324.6 227.1c-4.3 5.1-7.2 7.5-13.4 10.2q0 0 0 0 0 0-0.1 0 0 0.1 0 0.1 0 0 0 0 0 0.1 0.1 0.1 0 0 0 0 0 0 0.1 0 0 0 0 0c5.7-1.5 10.5-5.2 13.5-10.3 0.2-0.3 0.1-0.4-0.2-0.1z"/><path class="i" d="m279.6 229.3q3.8-4.8 8.3-8.9c2.9-2.3 17.1-7 18.3-4.1 1.5 3.9-6.1 8.3-10.2 9.8 0 0 3.6 9-1.2 13.3-4.8 4.3-15.2-10.1-15.2-10.1z"/><path class="e" d="m306.2 217.6c-1.2 4.5-6.6 6.3-10.3 8.2q-0.1 0.1-0.2 0.1-0.1 0.1-0.1 0.2 0 0.1 0 0.2 0.1 0.1 0.1 0.1c1.3 3.9 1.9 9.6-0.7 13.1-0.1 0.1 0 0.2 0.1 0.1 3.3-3.3 3.2-9 1.5-13.1 3.9-1.9 9.3-3.9 9.6-8.9 0 0 0 0 0 0z"/><path class="b" d="m265.1 228.9c0 0 5-1.5 5.4-0.1 0.5 1.3-2 3.3-2 3.3 0 0 3.4 0 3.8 2.2 0.5 2.2-3.1 3.6-3.1 3.6 0 0 3.7 1 3.8 2.6 0.2 2.1-3 3.2-3 3.2 0 0 3.6 0.3 3.8 2.3 0.1 2.1-3.2 3.1-3.2 3.1 0 0 3.8 0.4 4.2 2 0.4 1.8-3.3 3.4-3.3 3.4 0 0 3.6 0.6 3.8 2.2 0.2 1.6-3.3 2.9-5.2 2.9z"/><path class="d" d="m270.7 259.9c0 0-18.3 1-20.9 0.1q-4.2-1.5-8.2-3.5c-20.3-9.9-36.4-27.3-41.3-33.6-5.2-6.7-5.2-14.8 3.5-12.3 0.7 0.2 1.4 0.5 2.1 0.8 10.8 4.4 40.4 19 43.5 19.2 3 0.3 16.7-2.4 16.7-2.4z"/><path class="e" d="m241.6 256.5c-20.3-9.8-36.4-27.2-41.3-33.5-5.2-6.7-5.2-14.8 3.5-12.3z"/><path class="d" d="m216.5 262.4l0.4 31.5q-5.8 0.3-11.5 0-15.2-0.7-30.2-3.1c-9.9-1.6-21.5-3.8-34.9-7.1 0 0 23.8-55.7 42.5-72.3q0.7-0.6 1.3-1.1l0.2-0.2c8.6-6.7 17.3-3 22.6 3 1.4 1.5 15.1 25.9 15.5 34.5 0.3 7.6-5.9 14.8-5.9 14.8z"/><path class="e" d="m205.4 293.9q-15.2-0.7-30.2-3.1c1.4-14.7 6.1-64.5 7.6-79.4q0.6-0.5 1.3-1z"/><path class="i" d="m179.3 223.1c2.6 18 9.1 54.3 19.2 63.1 13.3 11.7 44 13.8 53.1 14.4 4 0.3 7.4-25.9 4.5-29-3-3-34.5-4.1-37.2-5.5-2.8-1.5-16.5-28.7-23.3-42.6-8.5-17.4-17.3-7.5-16.3-0.4z"/><path class="i" d="m280.2 276.2c5 0.1 11.6-3.9 12.6-0.4 1 3.2-3.9 5.5-3.9 5.5 0 0 6.3-0.8 6.3 2.9 0 3.7-5.8 5.1-5.8 5.1 0 0 5.8-0.5 5.6 3.2-0.3 3.7-5.7 5.4-5.7 5.4 0 0 1.7 0.7 0.4 3.2-2 3.6-10.6 5.1-15.4 4.9-4.7-0.3-21.8-4.8-24.4-5.5l1.6-30.4c0 0 8.6-3.3 13.2-4.5 4.6-1.2 20.8-0.9 21 3.1 0.1 4.1-11.3 3.6-14.1 4.1-2.8 0.6-3.2 1.3-1.7 2.1q5.1 1.1 10.3 1.3z"/><path class="e" d="m288.6 281.3c-7 2.8-10.5 2.8-17.8 1.4-0.2 0-0.2 0.2 0 0.2 7 2 11.4 2.7 18-1.2 0.3-0.3 0.1-0.5-0.2-0.4z"/><path class="e" d="m289.6 289.1c-7.5 2.2-11.3 2.2-19 1.4-0.1 0-0.1 0.1 0 0.2 7.5 1.5 11.9 2 19.1-1.2 0.3-0.1 0.3-0.5-0.1-0.4z"/><path class="e" d="m289.3 297.8c-7.5 1.6-11.7 1.8-19.1 0q0 0-0.1 0 0 0 0 0.1 0 0.1 0 0.1 0 0.1 0.1 0.1c6.1 2.5 13 2.5 19.1 0 0.4-0.2 0.4-0.4 0-0.3z"/><path class="b" d="m231.7 265.7c0 0 5.6 0.2 5.6 1.7 0 1.6-3.3 2.8-3.3 2.8 0 0 3.6 1.2 3.3 3.6-0.3 2.3-4.5 2.6-4.5 2.6 0 0 3.5 2.4 3.1 4-0.5 2.2-4.2 2.3-4.2 2.3 0 0 3.7 1.5 3.1 3.7-0.5 2.2-4.3 2.1-4.3 2.1 0 0 3.8 1.8 3.7 3.5-0.2 2-4.6 2.4-4.6 2.4 0 0 3.5 1.9 3.2 3.6-0.3 1.7-4.4 1.8-6.4 1.2z"/><path class="d" d="m234 265.5l-6.2 34.3c0 0-25.9-6.6-31.4-14.9-6.8-10.2-15.8-42.5-17.7-59.7-2-17.2 10.2-17.7 17.2-3.6 6.9 13.7 21.5 40.8 22.6 41.9 1.5 1.6 15.5 2 15.5 2z"/><path class="e" d="m216.7 260c-0.7-1.3-2.1-4.2-2.7-5.4-1.4-2.6-2.9-5.1-4.3-7.6-1.4-2.5-2.9-5-4.3-7.5-0.3-0.4-0.5-0.9-0.8-1.3 0-0.3-1.1-3.8-1.2-4.7 0-0.1-0.3-0.1-0.3 0q0.4 1.3 0.5 2.7c0 0.1 0 0.3 0.1 0.5-0.9-1.7-1.9-3.3-2.8-4.9-0.1-0.1-0.3 0-0.2 0.1 1.9 3.4 2.9 5.6 4.4 8.4 1.4 2.8 2.9 5.4 4.3 8.1 1.5 2.7 3 5.3 4.6 8q1.3 2.4 2.8 4.6c0.7 0.9 0.7 0.4-0.1-1z"/><path class="i" d="m191.7 209.1c0.3 1.2 6.1 8.8 11.5 8.5 1.8-0.2 1.6-9.8 1.6-9.8l0.1-0.8 2.1-10-11.9-7.4-1.7-1c0 0-0.4 2.8-0.8 6.3q0 0.3 0 0.5-0.1 0.3-0.1 0.6-0.1 0.8-0.2 1.6c-0.1 0.5-0.1 0.7-0.2 1.2q0 0.6-0.1 1.2-0.5 4.6-0.3 9.1z"/><path class="e" d="m192.6 194.9c1 2.8 2.7 5.3 4.8 7.4 2.1 2.1 4.7 3.7 7.5 4.7l2.1-10-11.9-7.4-1.7-1c0 0-0.4 2.8-0.8 6.3z"/><path class="i" d="m191.7 186.9c0 0-4.2-5.5-6.6-4.1-2.5 1.4 0.6 9.6 3.6 10.6q0.6 0.2 1.2 0.2 0.6 0 1.2-0.2 0.6-0.3 1-0.7 0.4-0.5 0.7-1z"/><path class="e" d="m186 185.1c0 0 0 0 0 0.1 1 0.4 1.9 1.1 2.6 1.9 0.7 0.8 1.2 1.8 1.6 2.8q-0.2-0.3-0.5-0.5-0.3-0.2-0.7-0.3-0.4 0-0.7 0.1-0.4 0.1-0.7 0.3c0 0 0 0.1 0 0.1q0.6-0.2 1.2 0 0.5 0.2 0.9 0.6 0.6 0.8 1 1.7c0.1 0.2 0.5 0.1 0.4-0.2 0-2.7-2.2-6.4-5.1-6.6z"/><path class="i" d="m220.4 180.8c1.9 17.9-8.6 21.1-12.5 21.5-3.5 0.3-15.5 1.2-19.2-16.5-3.7-17.7 4-24.2 11.9-25.5 8-1.2 17.9 2.5 19.8 20.5z"/><path class="e" d="m216.8 178.3q-0.6 0-1.2-0.2c-0.5 0-0.9-0.1-1.2-0.4q-0.2-0.2-0.2-0.4 0-0.2 0.2-0.4 0.3-0.3 0.7-0.4 0.4-0.1 0.8 0c0.6 0 1.1 0.3 1.5 0.7q0.1 0.2 0.2 0.4 0 0.2-0.1 0.4-0.1 0.2-0.3 0.3-0.2 0.1-0.4 0z"/><path class="e" d="m204.3 179.2c0.5 0 0.8-0.2 1.2-0.3 0.5 0 0.9-0.2 1.2-0.5q0.2-0.2 0.2-0.4 0-0.2-0.2-0.4-0.3-0.3-0.7-0.4-0.4-0.1-0.9 0.1c-0.5 0.1-1 0.4-1.3 0.9q-0.1 0.1-0.1 0.3-0.1 0.2 0 0.4 0.1 0.1 0.3 0.2 0.1 0.1 0.3 0.1z"/><path class="e" d="m206.9 183.7c0 0-0.1 0-0.1 0.1 0.1 1.2 0 2.6-1 3.1v0.1c1.3-0.3 1.4-2.2 1.1-3.3z"/><path class="e" d="m205.7 182.5c-1.9 0-1.9 3.9 0 3.9 1.8 0 1.7-3.9 0-3.9z"/><path class="e" d="m205 182.7c-0.4 0.2-0.7 0.6-1.1 0.7-0.5 0-0.9-0.4-1.2-0.8h-0.1c0 0.8 0.3 1.6 1.2 1.7 0.8 0.1 1.2-0.6 1.3-1.4 0.1-0.1 0-0.3-0.1-0.2z"/><path class="e" d="m214.6 183c0 0 0.1 0 0.1 0.1 0 1.2 0.1 2.6 1.2 3-1.3-0.1-1.5-2-1.3-3.1z"/><path class="e" d="m215.7 181.7c1.9-0.2 2.1 3.8 0.3 3.9-1.8 0.2-2-3.8-0.3-3.9z"/><path class="e" d="m216.5 181.9c0.3 0.2 0.7 0.5 1 0.5 0.4 0 0.8-0.4 1-0.8 0 0 0 0 0.1 0 0 0.7-0.2 1.5-0.9 1.7-0.7 0.2-1.2-0.4-1.4-1.2 0-0.1 0.1-0.3 0.2-0.2z"/><path class="e" d="m207.7 193.1c0.3 0.3 0.6 0.7 1 0.7q0.7 0 1.4-0.2-0.3 0.3-0.7 0.5-0.4 0.2-0.9 0.1-0.3-0.1-0.6-0.4-0.3-0.3-0.3-0.7c0 0 0.1-0.1 0.1 0z"/><path class="e" d="m212.7 188.5c0 0 0.3 1.8 0.3 2.7 0 0.1-0.2 0.1-0.5 0.2-0.7 0.2-1.5 0.1-2.2-0.1-0.8-0.3-1.4-0.7-1.9-1.3 0-0.1 0-0.2 0.1-0.1 1.2 0.7 2.5 1 3.8 0.9 0-0.2-0.6-3.1-0.5-3.1q1 0.1 2 0.4c-0.5-3.8-1.7-7.5-2.2-11.3q0-0.1 0.1-0.1 0 0 0 0 0.1 0 0.1 0 0 0 0.1 0.1 2 5.9 2.8 12.1c0.1 0.3-1.7-0.3-2-0.4z"/><path class="e" d="m189.8 187c2.9 0 3.1-6.3 3.1-6.3 0 0 6-0.4 7.3-9.2 0.1 2.6-0.7 5.2-2.1 7.4 0 0 10.5-2 14.3-11.1 0 0-1.4 4.6-3 6.3 2.6-1 4.8-2.9 6.2-5.3 0 0 2.3 4.9 3.8 6.2 0 0-1.9-18.4-18.8-15.1 0 0-10.7 1.5-13.9 10.3-3.2 8.8 3.1 16.8 3.1 16.8z"/><path class="i" d="m192.8 206.6c-2.2 0.2-5.9 1-10.4 5.3 0 0 11.2 7.2 20.9 6.3 3.4-0.4 4.1-6.2 4.1-6.2-1.9-1.9-4.2-3.4-6.7-4.3-2.5-1-5.2-1.4-7.9-1.1z"/><path class="k" d="m414.8 560.6c2.6 0.9 77.2 1.1 80-0.7 1.1-0.6 1.8-11.5 2.2-24.7q0.2-4.2 0.3-8.7l6-39.8-49.8-0.3-4.7 39.8 0.2 8.7c0 0-28.7 12.7-31.6 15-2.9 2.3-5.2 9.9-2.6 10.7z"/><path class="b" d="m414.8 560.6c2.6 0.9 77.2 1.1 80-0.7 1.4-0.8 2.1-16.7 2.5-33.4l-48.6-0.3 0.2 8.7c0 0-28.6 12.7-31.5 15-3 2.3-5.2 9.9-2.6 10.7z"/><path class="d" d="m414.8 560.6c2.6 0.9 77.2 1.1 80-0.7 1.1-0.6 1.8-11.5 2.2-24.7l-48.1-0.3c0 0-28.6 12.7-31.5 15-3 2.3-5.2 9.9-2.6 10.7z"/><path class="e" d="m415.8 557.6c12.5-0.3 63-0.1 75.4 0.5 0.1 0 0.1 0.1 0 0.1-12.3 0.6-62.9 0-75.4-0.4-0.2 0-0.2-0.2 0-0.2z"/><path class="e" d="m422.2 547.2c1.4 0 2.8 0.3 4.1 0.8 1.2 0.5 2.4 1.3 3.4 2.3 1.7 1.8 2.7 4.2 2.7 6.7 0 0.1-0.1 0.1-0.1 0-0.5-2.5-1.7-4.7-3.5-6.5-1.8-1.7-4.1-2.8-6.6-3.1q-0.1 0-0.1 0 0-0.1 0-0.1 0 0 0 0 0.1-0.1 0.1-0.1z"/><path class="e" d="m444.1 536.2c5 0 10.8 1.7 13.9 5.8 0.1 0.2-0.1 0.3-0.3 0.3-4.3-2.4-8.9-4.2-13.7-5.5q-0.1-0.1-0.2-0.2 0-0.1 0-0.2 0-0.1 0.1-0.1 0.1-0.1 0.2-0.1z"/><path class="e" d="m440.2 537.7c5 0 10.8 1.7 13.9 5.8 0.1 0.2-0.1 0.3-0.2 0.2-4.4-2.3-9-4.1-13.8-5.4q-0.1-0.1-0.1-0.2-0.1-0.1-0.1-0.2 0-0.1 0.1-0.2 0.1 0 0.2 0z"/><path class="e" d="m436.3 539.2c5 0 10.8 1.7 13.9 5.8 0.2 0.2-0.1 0.3-0.2 0.3-4.4-2.3-9-4.2-13.8-5.5q-0.1-0.1-0.1-0.2-0.1 0 0-0.1 0-0.2 0-0.2 0.1-0.1 0.2-0.1z"/><path class="e" d="m432.5 540.6c5 0 10.8 1.8 13.9 5.9 0.1 0.1-0.2 0.3-0.3 0.2-4.4-2.3-9-4.1-13.7-5.4q-0.1-0.1-0.2-0.2 0-0.1 0-0.2 0-0.1 0.1-0.2 0.1 0 0.2-0.1z"/><path class="e" d="m488.1 546.3c5.6 0 5.6 8.7-0.1 8.7-5.6 0-5.6-8.8 0.1-8.7z"/><path fill-rule="evenodd" class="e" d="m438.7 522.8c2.5-2.1 5.7 0 7.3 2.2 2.6 3.8 4.1 8.2 4.5 12.8q0 0.1 0 0.1 0 0-0.1 0 0 0.1 0 0.1 0 0-0.1 0 0 0.1-0.1 0.2-0.1 0.1-0.2 0.2-0.1 0-0.3 0-0.1 0-0.3 0c-3.5-2.6-7.6-4.8-10.3-8.3-1.6-2-2.9-5.2-0.4-7.3zm0.2 3.2c-0.3 3 3.9 5.9 5.9 7.5 1.7 1.2 3.5 2.4 5.1 3.7-0.8-2.5-1.6-5-2.7-7.4q-0.8-1.8-1.8-3.4c-1.1-1.6-6-5.9-6.5-0.4z"/><path fill-rule="evenodd" class="e" d="m462.9 539.7c-4.4 0.6-8.9-0.6-13.2-1.3q-0.1-0.1-0.2-0.2-0.1 0-0.2-0.2-0.1-0.1 0-0.3 0-0.1 0.1-0.2-0.1-0.1-0.1-0.1 0 0 0 0 0-0.1 0-0.1 0 0 0.1 0c3.4-3.1 7.6-5.2 12.1-6.2 2.7-0.5 6.4 0.3 6.8 3.5 0.3 3.1-2.8 4.7-5.4 5.1zm3.1-2.9c3.4-4.3-3.1-4.6-5-4.2q-1.9 0.5-3.7 1.2c-2.5 0.9-4.8 2.2-7.1 3.4 2.1 0.2 4.2 0.6 6.3 0.9 2.5 0.3 7.6 1.1 9.5-1.3z"/><path class="d" d="m576.6 302.7c0 0-57.9 98.6-59.4 105.5-2.4 10.6-15.1 115.6-15.1 115.6l-60.3-1.1c0 0 10.4-92.6 20.3-123.1 7.1-21.9 58.2-94.8 58.2-94.8z"/><path class="e" d="m447.3 513.5c8.7 0 39.4-0.4 50.9 0.7q0 0 0.1 0 0 0 0 0 0 0.1 0 0.1-0.1 0-0.1 0c-4 0.6-42.2-0.3-50.9-0.6q0 0 0 0-0.1 0-0.1 0 0 0 0 0 0-0.1 0-0.1 0 0 0 0 0-0.1 0-0.1 0 0 0.1 0 0 0 0 0z"/><path class="e" d="m566.8 311.7c-3.8 6-7.9 11.8-11.7 17.7-3.9 6-7.8 11.9-11.6 17.8q-11.5 17.8-22.4 36c-3.5 5.6-6.5 11.4-9 17.5-2.3 6.2-4 12.5-5.1 19-1.2 6.4-2 13-2.8 19.5q-1.1 10.4-2.3 20.9l-4.8 42.6q-0.3 2.6-0.5 5.3c0 0.2 0.4 0.3 0.4 0 1.8-14.2 3.3-28.3 4.9-42.6q1.2-10.5 2.4-21.1c0.7-6.6 1.5-13.1 2.5-19.6q1.4-9.7 4.2-19c2.1-6.5 4.9-12.6 8.3-18.5 7-12 14.4-23.8 21.8-35.6 7.4-11.8 15-23.8 22.8-35.5q1.4-2.2 2.9-4.3c0.2-0.1 0-0.2 0-0.1z"/><path class="k" d="m525.4 568.9c2.8 0.1 76.8-19.4 79.1-21.8q0.2-0.3 0.2-0.5c0.3-2.5-3.5-11.6-6.2-23.2-0.1-0.7-1.5-4.3-3.5-9-5.3-13.1-14.9-35.6-14.9-35.6l-48.4 12.4 17.8 35.7 2.4 8.5c0 0-24.3 19.5-26.7 22.5-2.3 2.9-2.5 10.8 0.2 11z"/><path class="b" d="m525.4 568.9c2.8 0.1 76.8-19.4 79.1-21.8q0.2-0.3 0.2-0.5c0.3-2.5-3.5-11.6-6.2-23.2-0.1-0.7-1.5-4.3-3.5-9l-45.5 12.5 2.4 8.5c0 0-24.3 19.5-26.7 22.5-2.3 2.9-2.5 10.8 0.2 11z"/><path class="d" d="m525.4 568.9c2.8 0.1 76.9-19.4 79.1-21.8 0.9-1-1-11-6-23.7l-46.6 12c0 0-24.3 19.5-26.7 22.5-2.3 2.9-2.5 10.8 0.2 11z"/><path class="e" d="m525.7 565.7c12-3.4 60.9-16.2 73-18.7 0.1 0 0.2 0 0 0.1-11.8 3.7-60.7 16-73 18.8-0.2 0.1-0.2-0.1 0-0.2z"/><path class="e" d="m529.2 554.1c1.4-0.4 2.8-0.5 4.1-0.3 1.4 0.2 2.8 0.6 3.9 1.3 2.2 1.3 3.8 3.4 4.4 5.8 0 0.1-0.1 0.1-0.1 0-1.1-2.3-2.8-4.2-5-5.4-2.2-1.2-4.7-1.7-7.2-1.3-0.1 0.1-0.2-0.1-0.1-0.1z"/><path class="e" d="m547.5 537.8c4.9-1.4 10.9-1.1 15 2.1 0.1 0.1 0 0.4-0.2 0.3-4.8-1.1-9.7-1.7-14.7-1.8q-0.1 0-0.2-0.1-0.1 0-0.1-0.1 0-0.2 0.1-0.3 0-0.1 0.1-0.1z"/><path class="e" d="m544.2 540.2c4.8-1.4 10.9-1 14.9 2.1 0.2 0.1 0 0.4-0.2 0.3-4.8-1.1-9.7-1.7-14.6-1.8q-0.2 0-0.2 0-0.1-0.1-0.1-0.2-0.1-0.1 0-0.2 0.1-0.1 0.2-0.2z"/><path class="e" d="m540.8 542.6c4.9-1.3 10.9-1 15 2.2 0.1 0.1 0 0.3-0.2 0.3-4.8-1.2-9.8-1.8-14.7-1.8q-0.1 0-0.2-0.1-0.1-0.1-0.1-0.2 0-0.1 0-0.2 0.1-0.1 0.2-0.2z"/><path class="e" d="m537.5 545.1c4.8-1.4 10.9-1.1 14.9 2.1 0.2 0.1 0 0.3-0.2 0.3-4.8-1.1-9.7-1.7-14.7-1.8q-0.1 0-0.2-0.1-0.1-0.1-0.1-0.2 0-0.1 0.1-0.2 0.1-0.1 0.2-0.1z"/><path class="e" d="m592.7 536.3c5.5-1.3 7.6 7.1 2.1 8.5-5.4 1.4-7.6-7-2.1-8.5z"/><path fill-rule="evenodd" class="e" d="m539 526.2c1.9-2.7 5.5-1.5 7.6 0.2 3.4 3.1 6.1 6.9 7.6 11.3q0 0 0 0.1 0 0 0 0-0.1 0-0.1 0.1 0 0-0.1 0 0.1 0.1 0 0.3-0.1 0.1-0.2 0.2-0.1 0.1-0.2 0.1-0.2 0-0.3 0c-4.1-1.5-8.6-2.5-12.1-5.3-2.1-1.6-4.2-4.3-2.2-7zm0.9 3.1c0.5 2.9 5.3 4.7 7.7 5.7 2 0.7 4 1.4 5.9 2.3q-2.1-3.4-4.6-6.5-1.2-1.5-2.6-2.8c-1.5-1.3-7.3-4.1-6.4 1.3z"/><path fill-rule="evenodd" class="e" d="m566.6 536.4c-4 1.7-8.7 1.6-13 2.1q-0.2 0-0.3-0.1-0.1-0.1-0.2-0.2-0.1-0.1-0.1-0.2-0.1-0.2 0-0.3 0 0 0-0.1-0.1 0-0.1 0 0 0 0.1-0.1 0 0 0 0c2.5-3.9 6-7 10.2-9 2.4-1.2 6.2-1.4 7.4 1.6 1.1 2.9-1.6 5.3-4 6.3zm2.3-3.6c2.2-5-4.1-3.7-5.9-2.8q-1.7 0.9-3.2 2.1c-2.2 1.5-4.1 3.4-6.1 5.1 2.1-0.3 4.2-0.5 6.4-0.8 2.5-0.2 7.6-0.8 8.8-3.6z"/><path class="d" d="m546.2 524.6l54.2-14.2c0 0-51.9-102-51.5-109.1 0.4-6.2 38-61 40.1-71.2 3.4-16.8-4.8-31.8-12.7-41.1l-56 15.8c3 6.1 7.3 11.5 12.6 15.8 0 0-35.2 58.8-36.1 78.1-0.8 19.4 49.4 125.9 49.4 125.9z"/><path class="e" d="m545.2 514.6c7.8-2.3 5.5-1.8 13.4-3.9 3.9-1.1 29.2-8 33-8.4 0 0 0.1 0.2 0 0.2-3.5 1.6-29 8-32.8 9-8 2-5.7 1.4-13.7 3.3 0 0-0.1-0.2 0.1-0.2z"/><path class="e" d="m524.3 318.4c5.4 2 10.6 4.4 15.6 7.3q0.1 0 0.1 0.1 0 0 0 0.1-0.1 0.1-0.1 0.1-0.1 0-0.1 0c-5.3-2.3-10.6-4.5-15.7-7q-0.1-0.1-0.1-0.2-0.1-0.1 0-0.2 0-0.1 0.1-0.2 0.1-0.1 0.2 0z"/><path class="e" d="m530.9 317q0.6 1.5 1 3 0.5 1.2 0.4 2.5c0 0.1-0.2 0.1-0.3 0q-0.7-1.1-1-2.4c-0.4-1-0.8-1.9-1.1-2.8q0-0.2 0.1-0.4 0.1-0.2 0.3-0.2 0.2-0.1 0.4 0 0.2 0.1 0.2 0.3z"/><path class="e" d="m530.9 311.9q-0.3-1.3-0.7-2.6c-0.2-0.8-0.5-1.7-0.7-2.6 0-0.2-0.2-0.1-0.2 0 0.2 0.8 0.3 1.8 0.5 2.6q0.2 1.3 0.5 2.6 0.5 2.5 1.2 4.9c-0.9-0.1-1.7-0.3-2.5-0.8-0.7-0.6-1.3-1.4-1.5-2.4-0.4-0.9-0.7-1.9-1.1-2.9q-0.6-1.6-1-3.3c0-0.1-0.3 0-0.3 0q0.7 3.6 2 6.9c0.4 0.9 0.7 1.8 1.6 2.2 0.9 0.4 2 0.6 3 0.6 0.1 0 0.3 0 0.2-0.2q-0.3-2.5-1-5z"/><path class="e" d="m531.9 322.5c-2.2 3.9-4.6 7.6-6.9 11.3-2.3 3.8-4.3 7.5-6.4 11.2q-6.3 11.4-11.6 23.4-2.7 5.8-5 11.8-2.5 6.1-4.1 12.4c-1 4.2-1.2 8.5-0.6 12.8q1.2 6.5 3.3 12.7c3 9.6 6.5 19 10.6 28.1 0.2 0.3 0.7 0.1 0.6-0.2-3-8.4-6.1-16.7-8.7-25.2-2.6-8.2-5.7-16.7-4.2-25.4 0.7-4.1 1.9-8.2 3.5-12.2 1.5-4.1 3.2-8.1 4.9-12 3.4-7.9 7.2-15.5 11.1-23 2.2-4.3 4.5-8.5 6.7-12.7 2.2-4.3 4.4-8.7 6.9-12.8 0.1-0.2-0.1-0.3-0.1-0.2z"/><path class="e" d="m572.7 314.3c-0.9-0.4-2.3 0-3.2 0q-1.9 0.1-3.7-0.1-1.9-0.2-3.6-0.6c-1.3-0.2-2.4-0.6-3.4-1.3-1.6-1.5-2.9-3.3-3.8-5.3q-1.8-3.1-2.7-6.5c0-0.1-0.2 0-0.2 0.1 0.2 1.3 0.4 2.5 0.7 3.8q0.5 1.8 1.3 3.5c0.8 2.2 2.1 4.2 3.9 5.8 2 1.5 4.8 1.7 7.2 1.9q2 0.2 4.1 0c1-0.1 2.6 0 3.4-0.8q0 0 0.1-0.1 0-0.1 0-0.1 0-0.1 0-0.2-0.1 0-0.1-0.1z"/><path class="e" d="m586.9 498.7q-10.2-20.8-20-41.9-9.7-21.1-19-42.5-2.6-5-4.1-10.5c-0.8-3.9 0.4-7.5 2.1-11.1q4.7-9.8 10.5-18.9c3.8-6.2 7.8-12.2 11.8-18.3q6.2-8.9 11.3-18.4c3.2-6 4.6-12.9 3.9-19.7-0.9-6.8-3.8-13.2-7-19.3l-2.6-4.7c0-0.2-0.2 0-0.1 0.1 3.5 6.3 6.9 13 8.5 20.1 0.9 3.5 1.2 7.1 0.8 10.7-0.4 3.7-1.4 7.2-3 10.5-3 6.5-7.1 12.5-11 18.4-3.9 5.9-8 12.1-11.9 18.2q-5.8 9.2-10.7 19c-1.7 2.9-2.8 6-3.4 9.3-0.4 3.6 0.9 7 2.3 10.2 6 14.2 12.4 28.1 18.8 42.1 6.5 13.9 13.1 27.9 19.9 41.7l2.6 5.2c0.1 0.3 0.4 0.1 0.3-0.2z"/><path class="k" d="m529.2 241c-5 7-32.4 30.1-56.8 31.4-8.3 0.5-46.9-23.9-54.2-28.6-8.6-5.4 8.5-28 14.4-27 7.3 1.3 37.6 27.1 42.7 27.2 8.3 0.2 30.6-8 47.8-11.6 8.9-1.9 9.9 3.2 6.1 8.6z"/><path class="a" d="m529.2 243.5c-6 9.1-26.3 24-26.3 24l-2.8-6.2-9.5-20.6c0 0 18.7-6 31-8.7q2.1-0.5 4.4-0.6c7.7-0.5 8.4 4.3 3.2 12.1z"/><path class="b" d="m506.1 237.2q0.3 1.3 0.3 2.7 0.1 1.3-0.3 2.6c-0.5-1.7-0.5-3.6 0-5.3z"/><path class="b" d="m503.6 247.9c-1.8 0.4-3.6 0.4-5.3 0 1.7-0.5 3.5-0.5 5.3 0z"/><path class="b" d="m530.2 233.1q-1.3 0.4-2.6 0.4-1.4 0-2.7-0.4c1.7-0.4 3.6-0.4 5.3 0z"/><path class="b" d="m515.7 243.8q1.1 0.7 2.1 1.6 0.9 1 1.6 2.1c-1.5-0.9-2.8-2.1-3.7-3.7z"/><path class="b" d="m505.6 256.4q1.2 0.6 2.1 1.6 1 0.9 1.6 2.1-1.1-0.7-2.1-1.6-0.9-1-1.6-2.1z"/><path class="c" d="m529.2 243.5c-6 9.1-26.3 24-26.3 24l-2.8-6.2c7.5-8.8 19.2-22.3 25.9-30 7.7-0.5 8.4 4.4 3.2 12.2z"/><path class="e" d="m506.5 263.4c-1.5-3.8-8.5-19.1-10.3-22.3-0.1-0.2-0.3-0.2-0.2 0q4.6 11.4 10.4 22.3c0.1 0.1 0.2 0 0.1 0z"/><path class="a" d="m517.3 307.7c2.8 1.9 6.2 4.8 23.9 3.8q1.6-0.1 3.3-0.3c16.7-2.6 38.7-18.9 39.9-20.1 0 0-19.7-44.9-50.6-62.5-3.8-2.1-11 0-15.2 3.4-1.5 1.2-5.8 11-5.8 19.3 0 8.4 1.8 54.4 4.5 56.4z"/><path class="b" d="m527.3 252.5q0.4 1.3 0.4 2.6 0 1.4-0.4 2.7-0.3-1.3-0.3-2.7 0-1.3 0.3-2.6z"/><path class="b" d="m534.4 282.7c0.5 1.7 0.5 3.5 0 5.3-0.4-1.8-0.4-3.6 0-5.3z"/><path class="b" d="m556.4 264c0.4 1.7 0.4 3.6 0 5.3-0.5-1.7-0.5-3.6 0-5.3z"/><path class="b" d="m516.2 278.7q0.4 1.3 0.4 2.6 0 1.4-0.4 2.6-0.3-1.2-0.3-2.6 0-1.3 0.3-2.6z"/><path class="b" d="m543.8 258.5q-1.3 0.4-2.6 0.4-1.3 0-2.6-0.4 1.3-0.3 2.6-0.3 1.3 0 2.6 0.3z"/><path class="b" d="m562.5 281.9c-1.8 0.5-3.6 0.5-5.3 0 1.7-0.5 3.5-0.5 5.3 0z"/><path class="b" d="m534.1 300.5c-1.7 0.4-3.5 0.4-5.2 0 1.7-0.5 3.5-0.5 5.2 0z"/><path class="b" d="m567.1 296.9q-1.3 0.3-2.6 0.3-1.3 0-2.6-0.3 1.3-0.4 2.6-0.4 1.4 0 2.6 0.4z"/><path class="b" d="m530.2 233.1q-1.3 0.4-2.6 0.4-1.4 0-2.7-0.4c1.7-0.4 3.6-0.4 5.3 0z"/><path class="b" d="m539.3 236.6c1.6 0.9 2.9 2.1 3.8 3.7q-1.2-0.7-2.1-1.6-1-1-1.7-2.1z"/><path class="b" d="m566.7 265.9c1.6 0.9 2.8 2.1 3.7 3.7-1.5-0.9-2.8-2.2-3.7-3.7z"/><path class="b" d="m522.9 269c1.6 0.9 2.9 2.2 3.7 3.7q-1.1-0.6-2.1-1.6-0.9-0.9-1.6-2.1z"/><path class="b" d="m548.1 290.2q1.1 0.6 2 1.6 1 0.9 1.7 2.1-1.2-0.7-2.1-1.6-1-1-1.6-2.1z"/><path class="b" d="m515.7 243.8q1.1 0.7 2.1 1.6 0.9 1 1.6 2.1c-1.5-0.9-2.8-2.1-3.7-3.7z"/><path class="b" d="m513.5 264q0.6-1.2 1.6-2.1 0.9-0.9 2.1-1.6-0.7 1.2-1.7 2.1-0.9 1-2 1.6z"/><path class="b" d="m572.9 286.4q0.7-1.2 1.6-2.1 1-0.9 2.1-1.6-0.6 1.2-1.6 2.1-0.9 0.9-2.1 1.6z"/><path class="b" d="m516.7 295.4c0.9-1.6 2.2-2.8 3.7-3.7q-0.6 1.1-1.6 2.1-0.9 0.9-2.1 1.6z"/><path class="b" d="m550.3 252.2q0.6-1.2 1.6-2.1 0.9-1 2.1-1.6c-0.9 1.5-2.2 2.8-3.7 3.7z"/><path class="b" d="m541.9 308.4q0.7-1.1 1.7-2 0.9-1 2-1.7-0.6 1.2-1.6 2.1-0.9 1-2.1 1.7z"/><path class="b" d="m542 274.6c0.9-1.6 2.1-2.8 3.7-3.7-0.9 1.5-2.2 2.8-3.7 3.7z"/><path class="k" d="m523.1 243.8c4.3-0.2 9.4-8.2 10.7-14q-1.4-4.1-3.1-8c-1-2.6-2.1-5.5-2.9-8.3-0.1-0.5-1.7 1-1.7 1l-3.3 1.9-10.9 6.1c2 3.2 3.5 6.5 4.7 10q0.1 0.6 0.2 1.2c0 0 0 0.1 0 0.2 0.3 2.2 2.2 10.1 6.3 9.9z"/><path class="e" d="m516.8 233.7c0 0 0 0.1 0 0.2q0.9-0.2 1.8-0.4c11.4-3.6 8.6-18.6 8.6-18.6l-4.4 1.5-10.9 6.1c2 3.2 3.5 6.5 4.6 10q0.2 0.6 0.3 1.2z"/><path class="k" d="m528.9 196.6c2.2 6.2-0.5 24.5-4.9 28.7-6.3 6.1-16.8 7.1-22.1-0.6-5.1-7.4-1.2-31.1 3.7-35 7.1-5.6 20.1-2.3 23.3 6.9z"/><path class="e" d="m512 209c0 0 0 0.1 0 0.1-0.2 1.3-0.2 2.8 0.8 3.3 0 0 0 0.1 0 0.1-1.3-0.4-1.2-2.3-0.8-3.5z"/><path class="e" d="m513.2 207.9c2 0.1 1.6 4.1-0.2 4-1.9-0.1-1.4-4.1 0.2-4z"/><path class="e" d="m504.4 208.1c0 0-0.1 0-0.1 0.1-0.1 1.2-0.4 2.6-1.6 2.9v0.1c1.4-0.1 1.8-1.9 1.7-3.1z"/><path class="e" d="m503.4 206.7c-2-0.4-2.5 3.6-0.7 3.9 1.8 0.4 2.4-3.6 0.7-3.9z"/><path class="e" d="m515 206.2q-0.8-0.3-1.5-0.7c-0.5-0.2-1-0.5-1.4-1q-0.1-0.2 0-0.5 0.1-0.3 0.3-0.5 0.5-0.3 1.1-0.3 0.5 0 1 0.3c0.7 0.3 1.3 0.8 1.7 1.5q0.1 0.3 0 0.5 0 0.3-0.2 0.5-0.2 0.2-0.5 0.3-0.2 0-0.5-0.1z"/><path class="e" d="m502.1 204.5q0.8-0.1 1.6-0.3c0.6 0 1.2-0.2 1.6-0.5q0.2-0.2 0.2-0.5 0-0.3-0.2-0.6-0.4-0.4-0.9-0.5-0.6-0.2-1.1-0.1c-0.8 0.1-1.5 0.4-2 1q-0.2 0.2-0.2 0.5-0.1 0.3 0.1 0.5 0.1 0.3 0.3 0.4 0.3 0.1 0.6 0.1z"/><path class="e" d="m511.9 220.2c-0.4 0.3-0.7 0.6-1.1 0.6q-0.7 0-1.3-0.4 0.2 0.4 0.6 0.6 0.4 0.2 0.9 0.2 0.3 0 0.6-0.3 0.3-0.3 0.4-0.7c0 0-0.1 0-0.1 0z"/><path class="e" d="m511 216.4q-0.6 0.7-1.4 1.1-0.8 0.4-1.7 0.5-0.7 0-1.5-0.1h-0.3l-0.2-0.1q-0.1 0-0.2-0.1-0.1-0.1-0.1-0.2 0 0 0-0.1v-0.1c0.1-1 0.4-2.4 0.4-2.4-0.4 0.1-2.3 0.7-2.2 0.3 0.6-4.3 1.6-8.6 3-12.6q0-0.1 0-0.1 0-0.1 0.1-0.1 0 0 0.1 0.1 0 0 0 0.1c-0.5 3.9-1.7 7.8-2.2 11.7q1-0.3 2-0.4c0.1 0-0.5 2.8-0.5 3.3q1.2 0.2 2.3 0 1.2-0.3 2.2-0.9c0.2-0.1 0.3 0 0.2 0.1z"/><path class="e" d="m507 217.5c0.4 0.7 1.1 1.3 1.8 1.7 0.4 0.2 0.9 0.3 1.4 0.2 1-0.1 1.1-1 1-1.8q-0.1-0.7-0.3-1.3c-1.1 0.8-2.5 1.2-3.9 1.2z"/><path class="l" d="m508.9 219.2c0.4 0.2 0.9 0.3 1.4 0.2 1-0.1 1.1-1 1-1.8-0.5-0.1-1.1 0.1-1.5 0.4-0.4 0.3-0.8 0.7-0.9 1.2z"/><path class="e" d="m527.3 211.9c-3.2-0.3-2.6-8-2.6-8 0 0-4.8-1-7-7.7 0 0-6.3 3.7-11.5 2.6-8.1-1.7-7.6-12.3-4.4-14.3 4.4-3 11.9 1.7 11.9 1.7 0 0 11.8-2.9 15 5.1 1.5 0.1 2.9 0.8 3.9 2 1 1.1 1.5 2.6 1.5 4.1 0.2 5.7-4.5 14.7-6.8 14.5z"/><path class="e" d="m525.8 204.8c-2.4-0.4-4.5-1.7-6-3.5-0.9-1-1.4-2.1-1.7-3.4-0.3-1.2-0.3-2.5 0-3.8q0 0 0 0 0 0-0.1 0 0 0 0 0-0.1 0-0.1 0c-0.4 1.3-0.5 2.7-0.3 4.1 0.2 1.3 0.7 2.6 1.4 3.7 0.7 1.1 1.8 2 2.9 2.5 1.2 0.6 2.5 0.8 3.8 0.7q0.1 0 0.1 0 0.1-0.1 0.1-0.1 0-0.1 0-0.1-0.1-0.1-0.1-0.1z"/><path class="e" d="m534.6 194.1c-1.5-2.1-4-2.5-6.4-2.5-0.1 0-0.1 0.2 0 0.2 1.2 0 2.4 0.3 3.4 0.9 1.1 0.6 1.9 1.5 2.5 2.6 0.5 1 0.8 2 0.8 3.1 0.1 1.1-0.1 2.2-0.5 3.3-1 4-3.5 7.5-7 9.8 0 0 0 0.2 0 0.1 2-1.1 3.7-2.7 5-4.5 1.4-1.9 2.4-4 2.9-6.3 0.5-2.2 0.7-4.8-0.7-6.7z"/><path class="e" d="m514 186.6c-0.9-1.7-2.5-3-4.3-3.6-2.3-0.7-4.7-0.5-6.8 0.5-0.9 0.4-1.6 1.1-2.1 1.9-0.5 0.7-0.8 1.7-0.9 2.6 0 2.2 0.7 4.3 2 6.1 0 0 0.1 0 0.1 0-1.1-1.7-1.6-3.6-1.5-5.5 0-0.9 0.3-1.8 0.9-2.6 0.5-0.8 1.2-1.3 2.1-1.7 3.4-1.4 8.2-1 10.4 2.5 0 0 0.2-0.1 0.1-0.2z"/><path class="k" d="m525.5 211.6c0 0 4-6 6.7-4.5 2.7 1.4-0.3 9.9-3.4 11.2q-0.6 0.2-1.2 0.3-0.7 0-1.3-0.3-0.6-0.2-1.1-0.6-0.4-0.5-0.7-1.1z"/><path class="e" d="m319.7 335.7h166.7v-116.7h-166.7z"/><path class="d" d="m353 266c7.6 0 13.8-6.2 13.8-13.8 0-7.6-6.2-13.8-13.8-13.8-7.7 0-13.9 6.2-13.9 13.8 0 7.6 6.2 13.8 13.9 13.8z"/><path class="c" d="m393.7 310.3h92.7l-46.4-62.8z"/><path class="b" d="m357.4 310.6h76.5l-38.3-40.9z"/><path class="d" d="m486.4 310.6h-166.7v25.1h166.7z"/><path class="k" d="m544.6 242.8c4.3 12.1-1.9 56.5-9.2 65.8-10.8 13.9-32.3 26.7-40.5 30.7-3.6 1.7-19.6-23.9-16.1-26.3 7.5-5.2 31.5-17.5 33.5-19.9 2-2.5 12.9-25.9 17.3-39.1 5.9-17.8 12.8-17.3 15-11.2z"/><path class="k" d="m494.9 339.4c-11.4 6.5-34 5.5-37 4.6-2.7-0.8-4-1.3-4-1.3-4.8-1.3-6-3.9-6-3.9 0 0-6 0.1-6.6-3.5-0.8-4 7.7-3.4 12.6-5.9 11.2-5.6 25.6-16.9 28.7-18.8z"/><path class="e" d="m469.8 331.7q-4.9 2.6-10.1 4.5-5.8 1.7-11.8 2.5 0 0-0.1 0 0 0 0 0.1 0 0 0 0 0.1 0.1 0.1 0.1c7.8-0.3 15.4-2.6 22-6.9q0.1 0 0.1-0.1 0 0 0 0-0.1-0.1-0.1-0.1 0 0-0.1-0.1z"/><path class="e" d="m474.2 338c-6.4 2.8-13.3 4.3-20.4 4.6 7.2 0.5 14.3-1 20.6-4.3 0.2 0 0.1-0.4-0.2-0.3z"/><path class="k" d="m467 321.7c1.1-1.3 0.5-1.9-2.6-1.3-3.1 0.5-14.8 5.4-16.2 1.1-1.3-4.2 15.3-10.8 20.5-11.3q7.1-0.4 14.1 0.4c-3 1.9-10 7.3-15.8 11.1z"/><path class="a" d="m532.5 245.8c7.6-15.9 14.5-11.7 15.1 4.2 0.2 10.9-0.3 21.9-1.5 32.8l-27.4-7.9z"/><path class="b" d="m527.3 252.5q0.4 1.3 0.4 2.6 0 1.4-0.4 2.7-0.3-1.3-0.3-2.7 0-1.3 0.3-2.6z"/><path class="b" d="m543.8 258.5q-1.3 0.4-2.6 0.4-1.3 0-2.6-0.4 1.3-0.3 2.6-0.3 1.3 0 2.6 0.3z"/><path class="b" d="m539.3 236.6c1.6 0.9 2.9 2.1 3.8 3.7q-1.2-0.7-2.1-1.6-1-1-1.7-2.1z"/><path class="b" d="m522.9 269c1.6 0.9 2.9 2.2 3.7 3.7q-1.1-0.6-2.1-1.6-0.9-0.9-1.6-2.1z"/><path class="b" d="m542 274.6c0.9-1.6 2.1-2.8 3.7-3.7-0.9 1.5-2.2 2.8-3.7 3.7z"/><path class="e" d="m529.9 250.7c-1.1 2.1-2.1 4.1-3.2 6.2q0.3-1.4 0.4-2.9-0.3 1.1-0.5 2.3l-0.2 1.1q0 0.1 0 0.3-1.3 2.4-2.5 4.8c-0.9 2-1.8 3.9-2.7 5.9-0.9 2-1.8 4.4-2.8 6.4q1.3 0.5 2.7 0.8c0.2 0.1 0.4-0.2 0.1-0.2-0.3 0-2.3-0.9-2.3-0.9 0.9-2 2-3.8 3-5.8 0.9-1.9 1.9-3.9 2.8-5.9 1.9-3.9 3.5-8 5.3-12 0-0.1-0.1-0.1-0.1-0.1z"/><path class="e" d="m548.8 260.2c-0.3 0.8-0.5 1.6-0.7 2.5l-0.3 1q0.2-4.3 0.3-8.5c-0.4 4.6-0.8 9.3-1.1 13.9q-0.7 6.7-0.6 13.5-1.3-0.3-2.5-0.4 1.3 0.6 2.8 0.8 0.8-7 1-14.1c0-1.2 0.1-2.5 0.1-3.8 0.2-0.8 0.4-1.6 0.6-2.4 0.2-0.7 0.4-1.6 0.5-2.5 0 0-0.1 0-0.1 0z"/><path class="e" d="m545.1 278.5c-3.9-1.4-19.9-6.4-23.5-7.3-0.2-0.1-0.3 0-0.1 0.2q11.6 4.2 23.5 7.2 0 0.1 0.1 0 0 0 0 0 0 0 0-0.1 0 0 0 0z"/><path class="k" d="m402.8 238.6c3.8 1.1 3-4 3-4 0 0 3 7.1 7.3 6.9 4.4-0.3 3-6.5 3-7 0.1 0.4 3 6.9 7.4 6.1 4.3-0.8 2.3-6.9 2.1-7.2 0.3 0.3 3.8 4.3 7 3 5.4-2.3-3.3-12.8-2.7-17.6l7.7 0.3c0.3 0 0.5 0 0.8-0.1l0.3-4q-3.7-1.5-7.1-3.5c-2.9-1.7-5.7-3.1-7.8-3.2-0.9 0-1.9 0.2-2.6 0.7-0.8 0.6-1.4 1.3-1.7 2.2 0 0-2.3-3.6-5.7-3.1-1.8 0.3-3 3.4-3 3.4-0.5-0.8-1.3-1.4-2.1-1.8-0.9-0.4-1.9-0.5-2.8-0.4-2.5 0.5-3.3 3.5-3.3 3.5 0 0-3-1.8-5.3-0.5-4.7 2.6-2.6 23.8 5.5 26.3z"/><path class="k" d="m430.9 218.4l6.7 0.6c0.3 0 0.5 0 0.8-0.1 8.4-1.6 13.7-11.2 7.6-11.9-4.7-0.5-9.7 5.6-14.4 4.4z"/><path class="e" d="m410.8 211.3c0-0.1-0.2-0.1-0.2 0-1.1 8.2 0.8 16.5 5.3 23.4 0.2 0.2 0.5 0.3 0.4 0-2.9-4.8-5.4-16.6-5.5-23.4z"/><path class="e" d="m426.1 233.7c-4.3-6.8-6-14.3-6.7-22.3 0-0.1-0.1-0.1-0.2 0-0.7 4 0.2 9.1 1.3 12.9 0.9 3.6 2.8 6.9 5.4 9.6 0.1 0.1 0.3 0 0.2-0.2z"/></svg>