<?xml version="1.0" encoding="UTF-8"?>
<!DOCTYPE svg PUBLIC "-//W3C//DTD SVG 1.1//EN" "http://www.w3.org/Graphics/SVG/1.1/DTD/svg11.dtd">
<svg xmlns="http://www.w3.org/2000/svg" version="1.1" width="220px" height="220px" style="shape-rendering:geometricPrecision; text-rendering:geometricPrecision; image-rendering:optimizeQuality; fill-rule:evenodd; clip-rule:evenodd" xmlns:xlink="http://www.w3.org/1999/xlink">
<g><path style="opacity:1" fill="#fcfcfc" d="M -0.5,-0.5 C 72.8333,-0.5 146.167,-0.5 219.5,-0.5C 219.5,72.8333 219.5,146.167 219.5,219.5C 146.167,219.5 72.8333,219.5 -0.5,219.5C -0.5,146.167 -0.5,72.8333 -0.5,-0.5 Z"/></g>
<g><path style="opacity:1" fill="#5c4975" d="M 156.5,22.5 C 127.831,22.3334 99.1647,22.5 70.5,23C 63.9798,23.8485 59.4798,27.3485 57,33.5C 56.3333,61.1667 56.3333,88.8333 57,116.5C 56.8901,123.291 59.3901,128.791 64.5,133C 66.4357,133.813 68.4357,134.313 70.5,134.5C 99.1245,135.65 127.791,135.817 156.5,135C 158.119,134.764 159.119,133.931 159.5,132.5C 161.39,132.703 162.89,132.037 164,130.5C 165.875,127.412 167.208,124.079 168,120.5C 168.168,91.997 168.668,63.6637 169.5,35.5C 170.658,64.0948 170.824,92.7614 170,121.5C 169.119,124.647 167.953,127.647 166.5,130.5C 163.674,133.415 160.34,135.582 156.5,137C 127.167,137.667 97.8333,137.667 68.5,137C 61.72,135.046 57.0533,130.88 54.5,124.5C 54.3334,94.1648 54.5,63.8315 55,33.5C 57.5864,27.9122 61.7531,24.0789 67.5,22C 97.3362,21.1695 127.003,21.3362 156.5,22.5 Z"/></g>
<g><path style="opacity:1" fill="#604687" d="M 156.5,22.5 C 163.131,24.4644 167.464,28.7978 169.5,35.5C 168.668,63.6637 168.168,91.997 168,120.5C 167.208,124.079 165.875,127.412 164,130.5C 162.89,132.037 161.39,132.703 159.5,132.5C 160.174,130.976 161.174,129.642 162.5,128.5C 161.045,127.255 159.711,127.422 158.5,129C 130.159,129.227 101.825,129.727 73.5,130.5C 70.777,130.449 68.1104,130.116 65.5,129.5C 65.1667,129.833 64.8333,130.167 64.5,130.5C 66.8072,131.492 68.8072,132.825 70.5,134.5C 68.4357,134.313 66.4357,133.813 64.5,133C 59.3901,128.791 56.8901,123.291 57,116.5C 56.3333,88.8333 56.3333,61.1667 57,33.5C 59.4798,27.3485 63.9798,23.8485 70.5,23C 99.1647,22.5 127.831,22.3334 156.5,22.5 Z"/></g>
<g><path style="opacity:1" fill="#faf9fb" d="M 132.5,46.5 C 140.095,51.8959 142.595,59.2292 140,68.5C 139.487,69.5266 138.987,70.5266 138.5,71.5C 136.519,73.1436 134.519,74.8103 132.5,76.5C 143.45,83.0124 146.617,92.3457 142,104.5C 137.226,110.996 130.726,114.496 122.5,115C 109.504,115.5 96.5043,115.667 83.5,115.5C 83.5,91.5 83.5,67.5 83.5,43.5C 96.5043,43.3334 109.504,43.5001 122.5,44C 125.947,44.5285 129.281,45.3618 132.5,46.5 Z"/></g>
<g><path style="opacity:1" fill="#685880" d="M 132.5,46.5 C 138.05,46.2155 140.883,48.8821 141,54.5C 141.667,59.8333 141.667,65.1667 141,70.5C 140.329,71.2524 139.496,71.5858 138.5,71.5C 138.987,70.5266 139.487,69.5266 140,68.5C 142.595,59.2292 140.095,51.8959 132.5,46.5 Z"/></g>
<g><path style="opacity:1" fill="#897f9d" d="M 115.5,56.5 C 111.5,56.5 107.5,56.5 103.5,56.5C 103.5,61.1667 103.5,65.8333 103.5,70.5C 107.5,70.5 111.5,70.5 115.5,70.5C 111.366,71.4849 107.032,71.8182 102.5,71.5C 102.5,66.1667 102.5,60.8333 102.5,55.5C 107.032,55.1818 111.366,55.5151 115.5,56.5 Z"/></g>
<g><path style="opacity:1" fill="#59447c" d="M 115.5,56.5 C 121.192,58.0017 123.025,61.6684 121,67.5C 119.512,69.16 117.679,70.16 115.5,70.5C 111.5,70.5 107.5,70.5 103.5,70.5C 103.5,65.8333 103.5,61.1667 103.5,56.5C 107.5,56.5 111.5,56.5 115.5,56.5 Z"/></g>
<g><path style="opacity:1" fill="#61438d" d="M 108.5,58.5 C 109.5,58.5 110.5,58.5 111.5,58.5C 111.5,59.5 111.5,60.5 111.5,61.5C 113.604,61.2011 115.604,61.5344 117.5,62.5C 118.645,63.891 118.645,65.2243 117.5,66.5C 116.914,66.2907 116.414,65.9574 116,65.5C 111.96,65.9846 108.793,66.9846 106.5,68.5C 106.54,65.0124 107.207,61.6791 108.5,58.5 Z"/></g>
<g><path style="opacity:1" fill="#5b4a77" d="M 102.5,83.5 C 108.262,83.1493 113.928,83.6493 119.5,85C 123.238,86.3989 124.904,89.0655 124.5,93C 124.902,97.2003 123.235,100.2 119.5,102C 113.843,102.499 108.176,102.666 102.5,102.5C 102.5,96.1667 102.5,89.8333 102.5,83.5 Z"/></g>
<g><path style="opacity:1" fill="#61458a" d="M 105.5,86.5 C 110.461,87.3525 115.461,87.3525 120.5,86.5C 121.19,90.4896 121.357,94.4896 121,98.5C 119.004,100.059 116.671,100.726 114,100.5C 111.906,100.464 109.906,100.131 108,99.5C 106.85,96.3417 105.683,93.175 104.5,90C 104.648,88.7441 104.982,87.5774 105.5,86.5 Z"/></g>
<g><path style="opacity:1" fill="#62458c" d="M 159.5,132.5 C 159.119,133.931 158.119,134.764 156.5,135C 127.791,135.817 99.1245,135.65 70.5,134.5C 68.8072,132.825 66.8072,131.492 64.5,130.5C 64.8333,130.167 65.1667,129.833 65.5,129.5C 68.1104,130.116 70.777,130.449 73.5,130.5C 101.825,129.727 130.159,129.227 158.5,129C 159.711,127.422 161.045,127.255 162.5,128.5C 161.174,129.642 160.174,130.976 159.5,132.5 Z"/></g>
<g><path style="opacity:1" fill="#fcf4fd" d="M 54.5,124.5 C 57.0533,130.88 61.72,135.046 68.5,137C 97.8333,137.667 127.167,137.667 156.5,137C 160.34,135.582 163.674,133.415 166.5,130.5C 166.985,132.085 166.319,133.585 164.5,135C 160.482,137.363 156.315,139.196 152,140.5C 125.895,139.792 99.7281,139.126 73.5,138.5C 61.1672,141.842 54.8339,137.175 54.5,124.5 Z"/></g>
<g><path style="opacity:1" fill="#f3edf8" d="M 129.5,169.5 C 133.433,171.723 137.599,172.056 142,170.5C 142.388,171.428 143.055,172.095 144,172.5C 147.528,170.575 150.861,170.575 154,172.5C 156.4,171.956 158.733,171.289 161,170.5C 161.236,172.119 162.069,173.119 163.5,173.5C 163.5,180.5 163.5,187.5 163.5,194.5C 162.676,190.688 162.176,186.688 162,182.5C 160.981,184.502 160.148,186.502 159.5,188.5C 159.631,189.239 159.464,189.906 159,190.5C 155.832,189.32 152.666,189.654 149.5,191.5C 146.972,189.126 143.972,188.126 140.5,188.5C 140.585,189.995 139.919,190.995 138.5,191.5C 137.575,190.359 136.741,190.359 136,191.5C 135.28,189.944 134.113,188.944 132.5,188.5C 132.5,187.5 132.5,186.5 132.5,185.5C 131.5,185.5 130.5,185.5 129.5,185.5C 129.5,182.5 129.5,179.5 129.5,176.5C 130.833,176.5 132.167,176.5 133.5,176.5C 133.5,175.5 133.5,174.5 133.5,173.5C 132.167,173.5 130.833,173.5 129.5,173.5C 129.5,172.167 129.5,170.833 129.5,169.5 Z"/></g>
<g><path style="opacity:1" fill="#574574" d="M 129.5,169.5 C 129.5,170.833 129.5,172.167 129.5,173.5C 130.833,173.5 132.167,173.5 133.5,173.5C 133.5,174.5 133.5,175.5 133.5,176.5C 132.167,176.5 130.833,176.5 129.5,176.5C 129.5,179.5 129.5,182.5 129.5,185.5C 130.5,185.5 131.5,185.5 132.5,185.5C 132.5,186.5 132.5,187.5 132.5,188.5C 130.473,188.662 128.473,188.495 126.5,188C 125.748,187.329 125.414,186.496 125.5,185.5C 125.894,181.776 125.227,178.276 123.5,175C 124.707,173.7 125.374,172.2 125.5,170.5C 126.568,169.566 127.901,169.232 129.5,169.5 Z"/></g>
<g><path style="opacity:1" fill="#5a4973" d="M 159.5,188.5 C 155.644,188.145 151.644,187.978 147.5,188C 145.492,181.813 147.825,178.313 154.5,177.5C 152.257,176.526 149.924,176.192 147.5,176.5C 147.5,175.5 147.5,174.5 147.5,173.5C 150.85,173.335 154.183,173.502 157.5,174C 158,174.5 158.5,175 159,175.5C 159.499,179.821 159.666,184.154 159.5,188.5 Z"/></g>
<g><path style="opacity:1" fill="#5a4a76" d="M 92.5,173.5 C 96.1705,176.249 97.3372,179.916 96,184.5C 95.5,186.333 94.3333,187.5 92.5,188C 90.1902,188.497 87.8568,188.663 85.5,188.5C 83.9256,188.063 82.7589,187.063 82,185.5C 79.7492,176.3 83.2492,172.3 92.5,173.5 Z"/></g>
<g><path style="opacity:1" fill="#5c4a7d" d="M 105.5,184.5 C 106.209,185.404 107.209,185.737 108.5,185.5C 108.5,186.5 108.5,187.5 108.5,188.5C 105.635,188.945 103.135,188.278 101,186.5C 100.974,182.517 100.14,178.85 98.5,175.5C 99.4728,171.861 101.806,169.861 105.5,169.5C 105.5,170.833 105.5,172.167 105.5,173.5C 106.5,173.5 107.5,173.5 108.5,173.5C 108.5,174.833 108.5,176.167 108.5,177.5C 107.5,177.5 106.5,177.5 105.5,177.5C 105.5,179.833 105.5,182.167 105.5,184.5 Z"/></g>
<g><path style="opacity:1" fill="#f1e6f4" d="M 125.5,170.5 C 125.374,172.2 124.707,173.7 123.5,175C 125.227,178.276 125.894,181.776 125.5,185.5C 123.678,185.831 122.011,186.498 120.5,187.5C 121.511,185.598 121.678,183.598 121,181.5C 118.863,180.521 117.029,179.188 115.5,177.5C 117.045,176.548 118.712,176.215 120.5,176.5C 120.5,175.5 120.5,174.5 120.5,173.5C 118.5,173.5 116.5,173.5 114.5,173.5C 118.083,172.614 121.75,171.614 125.5,170.5 Z"/></g>
<g><path style="opacity:1" fill="#5a487a" d="M 45.5,167.5 C 50.4847,166.771 54.9847,167.771 59,170.5C 59.839,173.14 59.339,175.473 57.5,177.5C 61.7852,181.546 61.4519,185.046 56.5,188C 52.8484,188.499 49.1817,188.665 45.5,188.5C 45.5,181.5 45.5,174.5 45.5,167.5 Z"/></g>
<g><path style="opacity:1" fill="#c7afea" d="M 50.5,171.5 C 50.5,172.833 50.5,174.167 50.5,175.5C 51.5,175.5 52.5,175.5 53.5,175.5C 52.4324,176.434 51.099,176.768 49.5,176.5C 49.2155,174.585 49.5489,172.919 50.5,171.5 Z"/></g>
<g><path style="opacity:1" fill="#fcf1fe" d="M 50.5,171.5 C 51.8333,171.5 53.1667,171.5 54.5,171.5C 54.7678,173.099 54.4345,174.432 53.5,175.5C 52.5,175.5 51.5,175.5 50.5,175.5C 50.5,174.167 50.5,172.833 50.5,171.5 Z"/></g>
<g><path style="opacity:1" fill="#f2e7f5" d="M 87.5,176.5 C 88.8221,176.33 89.9887,176.663 91,177.5C 91.6667,179.833 91.6667,182.167 91,184.5C 87.7175,185.911 85.8842,184.745 85.5,181C 85.5186,179.167 86.1852,177.667 87.5,176.5 Z"/></g>
<g><path style="opacity:1" fill="#5b4b75" d="M 114.5,173.5 C 116.5,173.5 118.5,173.5 120.5,173.5C 120.5,174.5 120.5,175.5 120.5,176.5C 118.712,176.215 117.045,176.548 115.5,177.5C 117.029,179.188 118.863,180.521 121,181.5C 121.678,183.598 121.511,185.598 120.5,187.5C 119.833,187.5 119.5,187.833 119.5,188.5C 116.5,188.5 113.5,188.5 110.5,188.5C 110.5,187.5 110.5,186.5 110.5,185.5C 112.604,185.799 114.604,185.466 116.5,184.5C 115.995,183.081 114.995,182.415 113.5,182.5C 109.161,178.879 109.495,175.879 114.5,173.5 Z"/></g>
<g><path style="opacity:1" fill="#5d4875" d="M 140.5,188.5 C 138.833,188.5 137.167,188.5 135.5,188.5C 135.5,183.5 135.5,178.5 135.5,173.5C 137.451,173.227 138.951,173.893 140,175.5C 141.444,173.845 143.278,173.178 145.5,173.5C 145.5,174.833 145.5,176.167 145.5,177.5C 143.856,177.286 142.356,177.62 141,178.5C 140.502,181.817 140.335,185.15 140.5,188.5 Z"/></g>
<g><path style="opacity:1" fill="#f0e4f4" d="M 49.5,179.5 C 54.6673,178.492 56.334,180.325 54.5,185C 52.8659,185.494 51.1992,185.66 49.5,185.5C 49.5,183.5 49.5,181.5 49.5,179.5 Z"/></g>
<g><path style="opacity:1" fill="#eddbf8" d="M 151.5,181.5 C 152.833,181.5 154.167,181.5 155.5,181.5C 155.616,184.91 153.95,186.244 150.5,185.5C 150.433,184.041 150.766,182.708 151.5,181.5 Z"/></g>
<g><path style="opacity:1" fill="#5b4a7e" d="M 67.5,173.5 C 78.3135,172.812 81.3135,177.312 76.5,187C 66.2507,190.751 62.084,187.251 64,176.5C 65.1451,175.364 66.3117,174.364 67.5,173.5 Z"/></g>
<g><path style="opacity:1" fill="#f4ebf3" d="M 69.5,176.5 C 70.8221,176.33 71.9887,176.663 73,177.5C 73.6667,179.833 73.6667,182.167 73,184.5C 69.8838,186.024 68.0505,185.024 67.5,181.5C 67.4365,179.486 68.1032,177.819 69.5,176.5 Z"/></g>
<g><path style="opacity:1" fill="#59487b" d="M 163.5,173.5 C 167.356,173.855 171.356,174.022 175.5,174C 177.141,175.129 178.141,176.629 178.5,178.5C 179.803,186.868 176.47,189.868 168.5,187.5C 167.526,189.743 167.192,192.076 167.5,194.5C 166.167,194.5 164.833,194.5 163.5,194.5C 163.5,187.5 163.5,180.5 163.5,173.5 Z"/></g>
<g><path style="opacity:1" fill="#f2e9f5" d="M 169.5,176.5 C 173.976,176.822 175.476,179.156 174,183.5C 170.509,186.446 168.342,185.612 167.5,181C 167.519,179.167 168.185,177.667 169.5,176.5 Z"/></g>
<g><path style="opacity:1" fill="#f0eaf5" d="M 92.5,173.5 C 94.9115,173.137 96.4115,174.137 97,176.5C 97.3826,175.944 97.8826,175.611 98.5,175.5C 100.14,178.85 100.974,182.517 101,186.5C 103.135,188.278 105.635,188.945 108.5,188.5C 108.5,187.5 108.5,186.5 108.5,185.5C 107.209,185.737 106.209,185.404 105.5,184.5C 107.617,183.227 109.784,183.227 112,184.5C 113.03,184.164 113.53,183.497 113.5,182.5C 114.995,182.415 115.995,183.081 116.5,184.5C 114.604,185.466 112.604,185.799 110.5,185.5C 110.5,186.5 110.5,187.5 110.5,188.5C 113.5,188.5 116.5,188.5 119.5,188.5C 119.013,189.473 118.513,190.473 118,191.5C 115.065,190.9 112.398,190.9 110,191.5C 109.5,191 109,190.5 108.5,190C 103.342,188.548 98.342,188.714 93.5,190.5C 90.6894,189.92 88.0227,189.254 85.5,188.5C 87.8568,188.663 90.1902,188.497 92.5,188C 94.3333,187.5 95.5,186.333 96,184.5C 97.3372,179.916 96.1705,176.249 92.5,173.5 Z"/></g>
<g><path style="opacity:1" fill="#e2d8e8" d="M 178.5,178.5 C 181.233,182.761 180.9,186.761 177.5,190.5C 173.141,189.417 169.808,190.75 167.5,194.5C 167.192,192.076 167.526,189.743 168.5,187.5C 176.47,189.868 179.803,186.868 178.5,178.5 Z"/></g>
</svg>
