<svg width="463" height="13" viewBox="0 0 463 13" fill="none" xmlns="http://www.w3.org/2000/svg">
<mask id="mask0_618_1501" style="mask-type:alpha" maskUnits="userSpaceOnUse" x="0" y="0" width="463" height="13">
<rect y="0.866699" width="462.536" height="12" fill="#C4C4C4"/>
</mask>
<g mask="url(#mask0_618_1501)">
<path d="M69.4742 -1.672L70.6046 -1.83017L68.4048 -2.05695L69.4593 -2.22295C70.5168 -2.22143 71.8868 -1.9727 72.6323 -2.10486C72.7234 -2.23282 71.572 -2.27389 71.2781 -2.37584C71.0182 -2.48034 70.806 -2.58416 70.6441 -2.68606C71.22 -2.68496 71.8531 -2.66031 72.5058 -2.61357C73.3839 -2.53722 74.245 -2.5001 74.9944 -2.50632C76.5267 -2.4857 78.0071 -2.50627 79.6731 -2.50174L79.1188 -2.8097L81.2659 -2.73765C81.4935 -2.71419 81.7647 -2.75192 81.9883 -2.7229C83.8491 -2.47733 84.6364 -2.61115 85.5297 -2.72211C85.7128 -2.75081 85.9335 -2.77225 86.1857 -2.78585C88.668 -2.72703 90.9063 -2.38281 93.1418 -2.2061C93.5626 -2.16098 93.9661 -2.10307 94.3238 -2.03647C95.1014 -1.90699 95.9663 -1.80127 96.8394 -1.729C97.7125 -1.65672 98.566 -1.6202 99.3218 -1.62274C100.993 -1.62561 102.881 -1.53996 104.804 -1.37411C105.376 -1.31948 105.948 -1.28344 106.484 -1.26829C107.02 -1.25314 107.508 -1.2592 107.917 -1.2861L109.216 -1.11031C109.78 -1.18164 110.494 -1.22078 111.316 -1.22534C112.138 -1.22991 113.051 -1.19981 113.999 -1.13687C115.009 -1.06859 116.034 -1.02256 117.082 -0.950367C119.247 -0.812357 121.353 -0.727954 123.336 -0.699779C126.289 -0.616288 129.175 -0.551733 132.154 -0.447641C134.018 -0.397397 135.834 -0.369762 137.591 -0.36488C139.696 -0.345228 141.973 -0.250086 144.312 -0.0840524C144.201 0.0717274 143.176 0.0257066 142.487 0.0204333C140.267 -0.00545785 137.994 -0.0725526 135.709 -0.122955C134.68 -0.142628 133.679 -0.150082 132.712 -0.145255C131.096 -0.151714 129.392 -0.193221 127.63 -0.26907C124.846 -0.352528 122.151 -0.392647 119.573 -0.389016C119.371 -0.382845 119.186 -0.371911 119.02 -0.356395C118.986 -0.342958 118.979 -0.326012 119.001 -0.307185C119.022 -0.28836 119.071 -0.268277 119.143 -0.24887C119.215 -0.229463 119.308 -0.211381 119.412 -0.196346C119.516 -0.181312 119.628 -0.169828 119.738 -0.163004C120.762 -0.0574335 121.862 0.0559539 122.827 0.071906C122.865 0.0730963 122.905 0.0758195 122.944 0.0798769C122.983 0.0839343 123.021 0.0892242 123.055 0.0953647C125.217 0.318238 126.994 0.280521 128.679 0.316782C131.475 0.414782 134.17 0.460559 136.724 0.453419C137.11 0.453904 137.526 0.466643 137.959 0.491178C140.634 0.590627 143.135 0.601748 145.345 0.524043C146.255 0.504356 147.1 0.460163 148.078 0.459423C148.68 0.456379 149.204 0.428178 149.619 0.376504C150.034 0.324827 150.33 0.250748 150.491 0.15872C150.903 0.207173 151.322 0.250354 151.742 0.287747C151.993 0.309128 152.234 0.314808 152.416 0.303618C152.597 0.29243 152.707 0.26521 152.722 0.227466C152.797 0.121759 152.224 0.0686714 151.727 0.023406C152.027 0.000734292 152.364 -0.0126011 152.732 -0.0162838C154.803 -0.040438 157.025 -0.0119293 159.349 0.0686142C161.153 0.165023 162.593 0.0865527 164.491 0.222511C164.719 0.245971 164.906 0.211536 165.115 0.203269C165.662 0.15973 166.342 0.149944 167.097 0.174766C167.853 0.199589 168.661 0.25827 169.451 0.345721C170.436 0.106801 172.562 0.379747 174.132 0.404277C174.616 0.52578 174.061 0.504421 174.037 0.537802C174.014 0.571183 174.037 0.537794 173.848 0.518244C172.28 0.690314 170.132 0.727834 167.705 0.625531C167.256 0.625956 166.829 0.633796 166.426 0.648973C165.817 0.670454 165.13 0.668311 164.395 0.642633C163.593 0.623773 162.855 0.632729 162.219 0.669071C161.853 0.668478 161.543 0.686683 161.318 0.72201C161.094 0.757336 160.962 0.808638 160.935 0.871147C161.179 0.919335 161.451 0.96343 161.738 1.00168C163.237 1.1527 164.732 1.21521 165.928 1.17691C168.011 1.11092 170.489 1.17532 172.704 1.15279C174.201 1.14366 175.794 1.16966 177.453 1.23028C177.453 1.23028 177.409 1.29148 177.405 1.29705C177.601 1.32354 177.807 1.3448 178.012 1.35961C178.012 1.35961 178.012 1.35961 178.032 1.33179C177.941 1.30508 177.818 1.27995 177.676 1.25931L177.183 1.20848C177.518 1.19525 177.831 1.15586 178.181 1.17993C178.917 1.22463 179.62 1.24351 180.248 1.23543C180.877 1.22735 181.417 1.19247 181.837 1.1329C182.582 1.05656 183.508 1.02184 184.556 1.03099C185.359 1.02265 186.133 1.00474 186.874 0.977333C186.874 0.977333 186.922 0.910577 187.273 0.875094C186.94 0.831331 186.594 0.795596 186.249 0.769528C184.748 0.704399 183.244 0.644833 181.769 0.600305C181.226 0.595495 180.715 0.602955 180.247 0.622542C178.949 0.645462 177.492 0.612932 175.959 0.526851C175.959 0.526851 175.655 0.495573 175.503 0.479932C175.934 0.333179 177.417 0.480096 178.017 0.380711C178.382 0.382521 179.024 0.395017 179.002 0.368853C178.952 0.333938 178.946 0.301503 178.985 0.273875C179.023 0.246245 179.105 0.224104 179.225 0.209044C179.345 0.193983 179.499 0.18637 179.677 0.186756C179.855 0.187143 180.052 0.195522 180.254 0.211283C181.943 0.296546 183.533 0.320258 184.928 0.280965C185.456 0.281722 186.049 0.306994 186.574 0.313317C186.895 0.32093 187.188 0.316695 187.437 0.300844C188.705 0.184102 190.411 0.175577 192.3 0.276548C193.212 0.312849 194.065 0.317703 194.813 0.290863C195.346 0.286058 195.572 0.369058 195.951 0.40816L197.562 0.490584L195.493 0.593862C195.936 0.830547 196.287 0.908589 197.009 0.923335C198.063 0.945602 199.089 0.955663 200.082 0.953452C200.816 0.951507 201.423 0.900535 202.417 0.99107C202.592 1.00584 202.761 1.01062 202.895 1.00461C204.06 0.924232 205.461 0.905785 207.005 0.950527C207.804 0.800019 209.166 0.946352 210.426 1.06426C210.832 0.950885 210.095 0.898841 209.656 0.829668C210.71 0.836748 211.771 0.832705 212.858 0.849259C213.186 0.843233 213.559 0.853542 213.951 0.879374C214.342 0.905208 214.74 0.945859 215.114 0.998147C215.296 1.03193 215.515 1.05736 215.727 1.06915C215.938 1.08094 216.125 1.07819 216.249 1.06147C216.814 1.01216 217.718 1.05758 218.184 0.974279C218.35 0.955122 218.587 0.952448 218.853 0.966723C219.119 0.980998 219.396 1.0113 219.635 1.0522C219.373 1.06496 219.14 1.08505 218.941 1.11203C218.227 1.19969 218.489 1.34615 219.396 1.55908C220.789 1.54737 222.211 1.5507 223.502 1.51057C224.221 1.47454 225.103 1.4858 226.048 1.54309C226.992 1.60037 227.962 1.70141 228.849 1.83483C229.17 1.88613 229.535 1.92167 229.873 1.93438C230.211 1.94708 230.497 1.93603 230.673 1.90342C230.782 1.86569 230.816 1.81795 230.772 1.76433L229.861 1.67049C229.861 1.67049 229.897 1.62042 229.905 1.60929L231.214 1.60088C231.906 1.60058 232.628 1.61533 233.283 1.61113C234.244 1.58319 235.341 1.59876 236.507 1.65689C237.582 1.7165 238.639 1.76155 239.668 1.79166C240.664 1.82265 241.386 1.72386 242.333 1.70808C243.05 1.69619 243.838 1.7089 244.668 1.74571C246.101 1.811 247.417 1.81112 248.494 1.74606C249.751 2.09658 250.362 2.15358 251.529 2.05886L252.077 2.0318L252.227 2.10698L252.646 2.09045C253.43 2.07573 254.214 2.06101 255.032 2.05575C256.17 2.08828 257.398 2.1758 258.597 2.30977C258.824 2.33323 259.134 2.41293 259.334 2.47534C259.534 2.53774 259.97 2.726 260.29 2.84856C259.941 2.93802 259.554 3.02357 259.277 3.12642C259.25 3.14399 259.252 3.16494 259.285 3.18759C259.318 3.21024 259.381 3.23396 259.467 3.25683C259.554 3.27971 259.663 3.3011 259.784 3.31929C259.906 3.33749 260.038 3.35199 260.168 3.36161C260.423 3.38235 260.675 3.39618 260.913 3.40252C262.085 3.41346 263.207 3.40533 264.269 3.37821C264.656 3.33995 265.187 3.33631 265.777 3.36788C266.366 3.39946 266.981 3.46444 267.524 3.55252C268.913 3.49964 270.527 3.51526 272.254 3.5983C274.082 3.5478 276.289 3.64992 277.996 3.53927C277.956 3.59491 278.133 3.6907 278.378 3.74589C278.767 3.82971 279.207 3.9074 279.68 3.97566L283.29 4.10893C283.425 4.17746 283.594 4.24683 283.794 4.31615C283.931 4.3709 284.17 4.42447 284.46 4.46551C284.75 4.50656 285.068 4.53185 285.347 4.53601C286.066 4.55632 286.668 4.51091 287.525 4.6231C286.206 4.72914 284.426 4.71505 282.505 4.58334C280.699 4.48316 278.962 4.4331 277.358 4.43501C276.83 4.43425 276.133 4.4401 275.968 4.50069C275.602 4.67196 274.644 4.64488 273.527 4.61329C272.649 4.57871 271.847 4.58259 271.187 4.62462C270.527 4.66664 270.028 4.74561 269.731 4.85503C269.656 4.96074 269.836 5.05096 270.606 5.11247L273.81 5.35912C274.282 5.32741 274.73 5.28987 275.152 5.24667C275.863 5.18928 276.741 5.17352 277.717 5.20063C278.693 5.22774 279.742 5.29699 280.781 5.40297C281.312 5.45771 281.843 5.51245 282.228 5.48644C282.566 5.45656 282.877 5.42079 283.159 5.37939C283.216 5.35164 283.239 5.31971 283.226 5.28481C283.431 5.30104 283.635 5.32213 283.833 5.34737C285.415 5.64181 286.64 5.63671 287.753 5.56034C288.054 5.53764 288.283 5.50155 288.588 5.47329C288.893 5.44502 289.001 5.40834 289.278 5.41902C291.49 5.51558 292.126 5.19305 293.99 5.20601C294.081 5.19341 294.137 5.17457 294.154 5.15123C294.17 5.1279 294.147 5.10082 294.085 5.07248C293.953 5.04689 293.801 5.02489 293.642 5.00849C293.483 4.99209 293.322 4.98183 293.175 4.97864C292.317 4.93726 291.56 4.94994 291.032 5.01455C290.658 5.04095 290.263 5.06198 289.847 5.07754L287.981 4.61047C289.789 4.65328 291.499 4.653 293.071 4.60963C293.414 4.58527 293.995 4.62724 294.478 4.63521L298.029 4.67887C298.759 4.68249 299.382 4.60927 300.4 4.77995C300.4 4.77995 301.073 4.80747 301.252 4.78416C301.431 4.76086 302.227 4.61592 302.701 4.52149C303.252 4.54841 304.014 4.62106 304.357 4.5967C304.957 4.53688 305.475 4.46019 305.904 4.36801L308.05 4.4996C308.047 4.6165 307.969 4.72648 307.816 4.82785C307.649 4.92562 307.655 5.04298 307.833 5.17034C308.011 5.29769 308.357 5.43142 308.842 5.56061L310.96 6.24482C311.306 6.29064 311.674 6.32147 312.015 6.33315C312.357 6.34484 312.654 6.33678 312.868 6.31009C313.779 6.23086 314.8 6.16893 315.712 6.08969C316.887 6.2109 316.585 6.40668 317.44 6.57841L320.209 6.86384C320.631 7.12834 321.061 7.38172 319.777 7.47027C319.522 7.48575 319.694 7.58711 319.46 7.62875C320.459 7.82725 321.557 7.88667 322.569 8.00893C322.968 8.09686 323.302 8.18993 323.554 8.28366C323.831 8.42478 324.393 8.56894 325.117 8.685C325.842 8.80106 326.672 8.87971 327.428 8.90397C328.696 8.97828 329.994 9.08988 331.264 9.23378C331.698 9.28382 332.144 9.32028 332.572 9.3407C333 9.36111 333.4 9.36502 333.745 9.35215C334.974 9.32949 336.014 9.25158 336.798 9.12348C337.573 9.01477 338.618 8.96238 339.838 8.97105C341.924 9.1861 342.345 9.51015 343.607 9.79556L341.427 9.82756C341.347 9.93883 341.492 10.0791 340.598 10.0766C339.704 10.074 340.157 10.1805 340.447 10.288C340.549 10.3421 340.749 10.3977 341.012 10.4455C341.274 10.4932 341.584 10.5302 341.889 10.5501L343.745 10.6877C344.404 10.7401 345.041 10.7624 345.586 10.7523C346.132 10.7422 346.566 10.7001 346.84 10.6304C347.154 10.5643 347.587 10.5196 348.114 10.499C348.785 10.4451 349.336 10.3649 349.749 10.2615L352.369 10.4122C352.481 10.3082 352.841 10.2354 353.388 10.2059C353.936 10.1764 354.638 10.192 355.375 10.2503L357.141 10.3428C359.105 10.4437 359.536 10.4105 360.111 10.1174L357.756 9.59395C358.098 9.45607 358.429 9.33488 358.759 9.21368C358.172 9.04123 357.39 8.87811 356.49 8.7409C355.651 8.59347 354.788 8.45068 353.904 8.31308C352.946 8.17247 351.934 8.05021 350.744 7.8917C350.536 7.84043 350.234 7.7496 349.849 7.66208C349.463 7.57703 349.06 7.49366 348.642 7.4123C348.722 7.30103 348.793 7.20089 348.641 7.07172C349.373 7.11293 350.131 7.18502 350.844 7.28147C351.557 7.37793 352.204 7.49572 352.726 7.62423C352.813 7.64702 352.921 7.66842 353.041 7.687C353.161 7.70557 353.291 7.72089 353.422 7.7319C354.71 7.81086 355.325 7.97581 355.955 8.17807C356.378 8.28145 356.925 8.37327 357.518 8.44078C358.656 8.55808 359.77 8.70876 360.858 8.83885C361.191 8.88219 361.537 8.91788 361.882 8.94441C363.019 9.0288 364.164 9.1468 365.258 9.29241C365.615 9.32942 365.957 9.3784 366.257 9.43524C366.556 9.49209 366.804 9.55515 366.979 9.61918C366.708 9.68932 366.562 9.77786 366.55 9.87946C366.502 9.94622 367.301 10.0823 367.679 10.181C368.056 10.2796 367.316 10.2331 367.064 10.2431C366.033 10.2621 365.842 10.3021 366.459 10.5211C366.666 10.5899 366.803 10.6588 366.862 10.7235C366.921 10.7881 366.9 10.8471 366.802 10.8969C366.656 11.1027 366.21 11.2717 365.904 11.4731C366.379 11.6057 367.174 11.7473 367.261 11.9115C367.302 11.948 367.39 11.9866 367.518 12.0245C367.646 12.0625 367.81 12.0989 368 12.1311C368.499 12.2006 368.953 12.2837 369.327 12.374C369.7 12.4642 369.983 12.5593 370.153 12.6517C370.209 12.6899 370.344 12.7305 370.531 12.7652C370.717 12.8 370.942 12.8264 371.16 12.8391C371.42 12.8547 371.653 12.8526 371.811 12.8333C371.969 12.814 372.039 12.7789 372.007 12.7353C372.014 12.6534 371.979 12.568 371.904 12.4798C371.948 12.4186 371.991 12.3574 371.819 12.2561C372.597 12.2931 373.413 12.3672 374.179 12.4704C374.945 12.5736 375.633 12.702 376.166 12.8415C376.755 12.9859 377.299 13.1375 377.952 13.3063C377.817 13.4955 377.817 13.4955 379.208 13.8299L386.582 13.993L388.094 14.2145C389.503 14.4076 389.839 14.3944 390.724 14.2946L391.32 14.2007C392.572 14.3298 394.013 14.4784 394.796 14.2366C395.05 14.3942 395.216 14.4471 395.158 14.471C394.784 14.7036 394.135 14.9009 393.236 15.0552C393.007 15.0913 392.845 15.1463 392.578 15.1785C391.717 15.3601 391.517 15.6407 392.019 15.9629C392.269 16.1055 392.631 16.2515 393.095 16.3963C392.416 16.5972 391.517 16.7636 390.422 16.8911C389.493 16.9898 388.727 17.1219 388.148 17.2837C387.628 17.4468 386.848 17.5695 385.855 17.6446C385.351 17.6765 384.984 17.7395 384.789 17.8272C384.731 18.0649 384.864 18.3193 385.186 18.5848C385.246 18.6656 385.418 18.7529 385.689 18.8398C385.959 18.9267 386.319 19.0108 386.743 19.0857C386.743 19.0857 386.946 19.1425 387.044 19.1765C387.126 19.4643 386.82 19.7179 386.148 19.9202C386.038 19.9776 385.813 20.0191 385.497 20.0402C385.18 20.0612 384.785 20.0611 384.353 20.0397C383.442 20.0055 382.59 20.0012 381.708 19.982C380.757 19.9547 379.92 19.9762 379.284 20.0441C378.648 20.112 378.237 20.2239 378.094 20.3679C378.085 20.4087 378.057 20.4477 378.011 20.4847C377.984 20.5038 377.97 20.5243 377.968 20.5459L379.993 21.0175L377.702 21.2053C377.567 21.3945 378.667 21.5079 379.218 21.6483L378.878 21.7266C378.439 21.771 377.848 21.6862 377.313 21.637L376.782 21.5823L376.718 21.6713C376.388 21.7925 375.182 21.6562 374.712 21.7451C374.241 21.834 374.577 21.9343 375.282 22.0308C375.772 22.1026 376.298 22.1598 376.821 22.1981C377.343 22.2365 377.849 22.255 378.3 22.2523C378.569 22.2428 378.792 22.2211 378.956 22.1886C379.907 22.05 380.958 21.9308 382.1 21.8319C382.976 21.7432 384.073 21.7054 385.314 21.7213C385.678 21.7146 386.117 21.7356 386.554 21.7807C386.991 21.8257 387.398 21.8919 387.703 21.9676L388.346 21.9801C388.346 21.9801 388.697 22.0582 388.648 22.071C388.403 22.3022 388.687 22.5849 389.458 22.8771L388.788 22.9036C387.83 22.8765 388.437 23.0526 388.294 23.1393C387.614 23.1229 386.729 23.0497 386.407 23.1598L385.924 23.1518L386.113 23.1713L386.343 23.1352L387.243 23.2998C386.817 23.3274 386.508 23.3612 386.131 23.3761C385.922 23.3891 385.757 23.4119 385.643 23.4434C385.53 23.4748 385.471 23.5141 385.471 23.559C385.472 23.628 385.36 23.6861 385.145 23.7277C384.93 23.7693 384.62 23.793 384.243 23.7967C383.794 23.7982 383.537 23.8732 383.274 23.8998L384.418 24.3521C384.418 24.3521 383.849 24.2935 384.159 24.3732L384.198 24.3176L384.891 24.4308C385.39 24.53 385.74 24.5541 386.034 24.483C386.329 24.4119 386.262 24.5064 386.404 24.4792C386.352 24.5516 386.031 24.6021 385.756 24.6454C385.438 24.6794 385.079 24.7044 384.685 24.7201C385.395 25.0381 385.429 25.0476 384.392 25.1318C383.355 25.216 383.713 25.3425 382.845 25.3605C381.977 25.3785 382.964 25.5937 383.545 25.6357C383.975 25.6633 384.414 25.7062 384.832 25.7616C385.249 25.817 385.635 25.8835 385.962 25.9566L385.788 26.2014C385.533 26.1811 385.277 26.1547 385.03 26.1232C384.189 25.9887 383.424 25.8621 382.676 25.9403L383.032 26.1263L380.422 26.0185C380.49 26.1579 380.888 26.3166 381.532 26.4613C381.435 26.5408 381.375 26.6244 381.354 26.7117C381.31 26.7729 381.052 26.7344 380.885 26.741C380.287 26.7512 379.796 26.7927 379.456 26.8618C379.116 26.9308 378.936 27.0253 378.934 27.137C378.866 27.2316 379.785 27.4279 380.36 27.4214C381.794 27.4403 383.346 27.513 384.93 27.6357C385.895 27.6517 386.032 27.403 387.621 27.5728C387.652 27.6876 387.449 27.7806 387.041 27.8376C386.633 27.8947 386.043 27.9128 385.36 27.8891C385.748 28.1441 387.899 28.2106 387.995 28.4772C387.459 28.4584 386.886 28.4141 386.333 28.3487C385.78 28.2833 385.265 28.199 384.84 28.1043C384.749 28.0809 384.634 28.0594 384.506 28.0417C384.378 28.024 384.241 28.0107 384.109 28.0029C383.976 27.9952 383.852 27.9934 383.747 27.9976C383.643 28.0018 383.562 28.0119 383.511 28.027C383.809 28.1233 384.137 28.2348 384.51 28.339C384.884 28.4432 384.974 28.4883 385.243 28.5101C387.254 28.7174 388.209 29.0906 389.948 29.3356C390.404 29.3825 390.46 29.5316 390.065 29.5148C389.689 29.4979 389.349 29.5001 389.082 29.5212C388.816 29.5422 388.633 29.5812 388.555 29.6339C388.264 29.6953 387.9 29.7442 387.475 29.7793C389.258 30.1623 391.385 30.5007 393.655 30.7627C394.085 30.8145 394.533 30.8461 394.934 30.8528C396.201 30.8532 397.546 30.8836 398.941 30.9434C399.436 30.9597 399.893 30.9582 400.288 30.9389C401.582 30.8932 402.61 30.9932 403.549 31.2752L405.104 31.7221C405.052 31.7944 404.792 31.875 404.591 31.9857L405.805 32.2243L415.071 31.6747L416.932 32.2069L419.599 32.1773C419.804 32.1927 420.009 32.2138 420.206 32.2398C420.745 32.397 421.167 32.548 421.753 32.6979C422.338 32.8478 423.383 32.866 424.113 33.0427C424.842 33.2194 425.572 33.223 426.474 33.328C426.559 33.4647 426.471 33.5879 426.217 33.6896C426.134 33.8064 425.675 33.8786 425.596 33.9899C425.605 34.1023 425.434 34.1978 425.1 34.2677C424.766 34.3375 424.279 34.3795 423.683 34.3898C422.013 34.6293 420 34.7998 417.704 34.8962C417.502 34.9032 417.335 34.9194 417.212 34.9437C417.09 34.9681 417.015 35.0001 416.992 35.0378C416.995 35.147 416.842 35.2413 416.544 35.3139C416.246 35.3865 415.81 35.4355 415.269 35.4573C415.124 35.4617 415.016 35.4754 414.956 35.4967C414.75 35.5105 414.601 35.5368 414.521 35.5731C414.442 35.6094 414.435 35.6546 414.503 35.7041C414.57 35.7536 414.708 35.8059 414.904 35.8559C415.1 35.9059 415.348 35.9519 415.623 35.9895C416.021 36.05 416.428 36.1079 416.843 36.163C416.819 36.1964 416.408 36.2018 416.468 36.2319C416.63 36.3279 416.668 36.4178 416.578 36.4946C416.488 36.5713 416.273 36.6328 415.949 36.6741L418.164 37.4519C419.508 37.5596 420.827 37.7423 421.87 37.9653C421.871 38.0018 421.811 38.0324 421.696 38.054C421.58 38.0757 421.413 38.0876 421.212 38.0886C420.671 38.1045 420.161 38.1355 419.578 38.153C419.222 38.1662 418.926 38.1951 418.707 38.2381C418.487 38.2811 418.349 38.3373 418.301 38.4035L419.601 38.6929C419.184 38.7634 418.875 38.7972 418.6 38.8405C418.756 38.9314 419.024 39.0255 419.384 39.1154C419.743 39.2052 420.185 39.2886 420.674 39.3589C420.805 39.3733 420.939 39.3839 421.067 39.39C421.196 39.3961 421.317 39.3975 421.422 39.3942C422.429 39.295 423.607 39.4702 424.751 39.6359C425.895 39.8016 426.517 39.9015 427.361 40.0303L428.977 40.0477C429.386 40.1087 429.751 40.1804 430.043 40.2572C430.335 40.3339 430.545 40.4135 430.658 40.4896C430.57 40.612 429.804 40.5449 429.347 40.5575C428.263 40.6337 426.838 40.6175 425.309 40.5115C424.929 40.4724 424.54 40.504 424.171 40.5077C423.375 40.5229 422.61 40.5477 421.879 40.582C421.398 40.6138 420.949 40.6533 420.533 40.7C420.422 40.8558 422.169 40.9761 421.178 41.0531C421.519 41.0883 421.647 41.1373 421.822 41.1195C422.947 41.2207 424.054 41.2707 425.017 41.2638C426.865 41.2423 428.963 41.3133 431.139 41.4709C433.489 41.6342 435.743 41.7028 437.715 41.671C438.466 41.6691 439.305 41.7026 440.169 41.7687C441.189 41.8604 442.202 41.9181 443.143 41.938C443.454 41.9387 443.801 41.9543 444.155 41.9835C444.509 42.0128 444.861 42.0548 445.181 42.1062C445.153 42.1452 444.848 42.1735 444.916 42.1924C445.889 42.4838 446.284 42.7873 447.781 43.085C448.805 43.1906 449.981 43.3118 450.651 43.1718C451.321 43.0318 451.081 42.9115 449.748 42.5532C450.037 42.548 450.385 42.5648 450.732 42.6005C451.079 42.6362 451.401 42.6887 451.644 42.7487L452.797 43.0168L453.836 43.2732C453.745 43.4012 453.673 43.5013 453.598 43.607C453.479 43.7193 453.61 43.856 453.971 43.9978C454.189 44.0753 454.379 44.1528 454.539 44.2296C455.188 44.5367 455.376 44.827 455.082 45.0679C454.518 45.4142 453.733 45.7329 452.735 46.0203C451.681 46.2998 451.104 46.6524 450.236 46.957C449.793 47.0957 449.255 47.2201 448.628 47.3287C447.438 47.5703 446.134 47.8002 444.94 48.0474C443.746 48.2946 442.399 48.4722 441.073 48.6759C439.099 48.9177 436.965 49.1265 434.684 49.3012C433.272 49.4543 431.822 49.6034 430.516 49.7793C428.974 49.9776 427.162 50.12 425.126 50.203C423.327 50.3023 421.72 50.4492 420.336 50.6408C420.19 50.6615 420.076 50.6879 419.995 50.7191C419.746 50.9145 419.047 51.0523 418.006 51.1113C418.069 51.1685 418.15 51.2266 418.248 51.2855C418.393 51.3557 418.423 51.4214 418.334 51.4741C418.246 51.5267 418.043 51.5639 417.753 51.5809C416.92 51.6293 416.228 51.7115 415.707 51.8238C415.516 51.852 415.397 51.8931 415.361 51.9435C415.325 51.9938 415.373 52.0521 415.501 52.1131C415.614 52.176 415.622 52.2338 415.525 52.2791C415.427 52.3244 415.228 52.3551 414.954 52.3672C414.249 52.4267 413.494 52.4746 412.694 52.5105C410.992 52.5897 409.012 52.5888 406.874 52.5077C406.647 52.4843 406.417 52.5204 406.152 52.493C404.64 52.4022 403.236 52.3881 402.109 52.4525C400.789 52.4776 399.408 52.4726 398.016 52.4843C396.004 52.4765 394.148 52.5242 392.5 52.6263C390.616 52.5277 389.557 52.6992 387.967 52.7025C386.499 52.7201 385.108 52.7624 383.806 52.8289C381.707 52.9172 379.617 52.9943 377.549 53.0976C375.608 53.1468 373.822 53.2409 372.219 53.3782C371.605 53.4403 370.493 53.3436 370.075 53.4737C369.656 53.6037 368.812 53.5884 368.13 53.6315L365.978 53.7381C365.608 53.7635 365.201 53.7796 364.763 53.7861C362.762 53.7948 361.376 53.9684 359.519 54.0039L359.329 53.9843C356.032 54.2425 352.258 54.3842 348.119 54.4052C345.701 54.4844 343.058 54.4806 340.492 54.5387C339.88 54.6547 338.435 54.5117 337.668 54.6177C336.9 54.7237 335.647 54.6542 334.657 54.6717C333.668 54.6891 332.7 54.7327 331.643 54.7312C330.724 54.7317 329.949 54.779 329.387 54.8689C328.104 55.0174 326.54 55.1048 324.766 55.127C322.418 55.1656 320.197 55.2532 317.809 55.234C317.843 55.3422 317.697 55.4344 317.385 55.5008C317.073 55.5673 316.606 55.6058 316.033 55.6123C313.48 55.6536 311.164 55.7612 308.576 55.7931L307.884 55.7934L300.145 55.8555C298.06 55.8675 296.051 55.8873 293.925 55.901C293.128 55.8189 293.109 55.9602 292.558 55.9333C292.404 55.8637 292.222 55.833 291.951 55.8707L291.892 55.9542L283.06 56.0649C279.602 56.1458 275.965 56.1701 272.179 56.1375C271.281 56.1457 270.442 56.1734 269.677 56.2201C268.968 56.2371 268.229 56.2446 267.463 56.2426C266.427 56.2216 265.416 56.211 264.432 56.2108C261.845 56.2427 259.129 56.2255 256.296 56.2021C253.463 56.1788 251.316 56.2203 248.794 56.2171C247.086 56.2142 245.386 56.2002 243.619 56.1673C242.774 56.1519 241.735 56.0686 240.86 56.0382C239.986 56.0078 239.701 56.0083 239.586 56.0561C239.205 56.19 238.249 56.1034 237.485 56.0903C235.994 56.0681 235.783 56.0223 235.378 55.676L237.207 55.566C237.655 55.5305 238.219 55.5242 238.844 55.5479C239.469 55.5715 240.134 55.6242 240.775 55.7009C241.027 55.7338 241.291 55.7598 241.551 55.7774C241.811 55.7949 242.062 55.8038 242.29 55.8033C244.135 55.7846 245.955 55.7452 247.728 55.713L247.987 55.692L248.004 55.3831C247.769 55.3528 247.526 55.3277 247.283 55.3089L238.388 55.1084C236.346 55.0592 234.227 54.9482 232.224 54.903C230.22 54.8577 229.141 54.83 227.586 54.7832C226.93 54.7565 226.261 54.7215 225.585 54.6784C225.624 54.6486 225.646 54.617 225.652 54.5838C225.688 54.5337 225.735 54.467 225.447 54.4134C225.134 54.3378 224.714 54.2733 224.273 54.2327C223.859 54.2058 223.457 54.1906 223.084 54.1877C221.28 54.1618 219.219 53.9987 217.342 53.7331L216.686 53.9103C213.867 53.8108 211.005 53.7128 208.06 53.6182C207.47 53.5924 206.851 53.5429 206.249 53.4734C205.604 53.4069 205.011 53.2681 204.333 53.1922C203.662 53.1375 202.996 53.0949 202.347 53.0651C202.522 53.0195 202.754 52.983 203.034 52.9568C203.31 52.9477 203.511 52.9192 203.608 52.8755C203.705 52.8318 203.693 52.7752 203.574 52.7138C203.364 52.6086 203.272 52.5095 203.728 52.4969C204.15 52.4729 204.452 52.4209 204.599 52.3471C204.745 52.2733 204.73 52.1807 204.554 52.0803C204.477 52.0217 204.423 51.9642 204.392 51.9083L204.202 51.8888C203.576 51.681 202.327 51.6059 201.43 51.4358C201.007 51.3865 200.569 51.3582 200.185 51.3552C199.193 51.3187 198.228 51.3027 197.202 51.2567C196.712 51.2355 196.199 51.1969 195.695 51.1431C194.974 51.0688 194.898 51.061 194.48 50.791C195.13 50.7957 195.645 50.7553 195.938 50.6768C196.231 50.5982 196.285 50.4862 196.09 50.3597C195.554 50.0835 194.988 49.7922 192.562 49.596C193.353 49.5863 194.114 49.5671 194.843 49.5384C195.054 49.5322 195.213 49.5119 195.297 49.4802C195.381 49.4486 195.387 49.407 195.313 49.3611C195.24 49.3152 195.09 49.2671 194.885 49.2234C194.68 49.1796 194.429 49.1423 194.166 49.1163C192.886 48.96 191.551 48.8555 190.31 48.8143C189.264 48.7961 188.321 48.8063 187.1 48.8059L185.658 48.6573C185.682 48.6239 185.47 48.5782 185.524 48.5598C185.89 48.3886 186.294 48.2212 186.71 48.0372C186.046 47.9378 185.47 47.8178 185.049 47.691C184.628 47.5642 184.379 47.4356 184.33 47.32C184.295 47.2852 184.304 47.2534 184.358 47.227C184.412 47.2006 184.509 47.1801 184.643 47.1671C185.022 47.1448 185.315 47.1021 185.499 47.0423C185.683 46.9826 185.752 46.9074 185.703 46.8225L184.582 46.5099C181.207 46.2868 177.893 46.1274 174.701 46.0347L171.82 45.9646C171.472 45.881 171.58 45.8443 171.907 45.8422C172.234 45.8401 173.154 45.8633 173.797 45.8758C174.351 45.8922 174.844 45.8814 175.227 45.8445C175.61 45.8076 175.87 45.7458 175.982 45.6651L175.015 45.3086C175.062 45.2419 175.129 45.1473 175.654 45.1536C176.013 45.1459 176.277 45.1122 176.404 45.0582C176.531 45.0041 176.514 44.9328 176.355 44.8556C176.331 44.7997 176.367 44.7489 176.462 44.7054C177.238 44.7018 178.01 44.7037 178.714 44.6867C179.042 44.6811 179.319 44.6604 179.526 44.6261C179.733 44.5918 179.866 44.5447 179.915 44.488C179.94 44.4326 179.878 44.3695 179.734 44.3038C179.59 44.2381 179.367 44.1716 179.084 44.1098C177.981 44.0332 176.971 44.0322 176.277 44.107C176.03 44.1656 175.633 44.1977 175.137 44.1989C174.642 44.2001 174.073 44.1704 173.504 44.1138C172.853 44.0485 172.203 44.0198 171.671 44.0328C171.14 44.0459 170.761 44.0999 170.604 44.185C169.935 44.1519 169.342 44.1266 168.758 44.0903C168.068 44.0443 167.416 44.0308 166.872 44.0511C166.002 44.0655 165.064 44.0571 164.081 44.0261C161.245 43.9488 158.406 43.877 155.66 43.8448C154.934 43.8357 154.305 43.8604 153.587 43.8401C152.869 43.8198 152.3 43.8747 151.402 43.7642C151.231 43.747 151.059 43.736 150.899 43.7319C150.739 43.7279 150.597 43.731 150.482 43.741C148.905 43.8284 147.055 43.8408 145.042 43.7773C142.284 43.7618 139.425 43.7179 136.664 43.7079C135.854 43.7165 135.088 43.7395 134.376 43.7766C133.833 43.799 133.265 43.8142 132.674 43.8221C132.221 43.8292 131.788 43.8084 131.864 43.9298C131.941 44.0511 131.262 43.9752 130.871 43.9528C129.527 43.8939 128.154 43.8143 126.766 43.7147C125.398 43.6065 124.058 43.5435 122.826 43.5295C121.937 43.5214 121.019 43.5522 119.875 43.3865C119.918 43.3253 119.962 43.2641 120.211 43.2002C119.278 43.0244 118.213 42.8731 117.105 42.7589C115.997 42.6446 114.878 42.5707 113.839 42.5433L112.407 42.2105C112.054 42.1715 111.694 42.143 111.349 42.1269C111.003 42.1108 110.679 42.1073 110.397 42.1168C110.179 42.1216 109.913 42.1093 109.648 42.082C109.384 42.0547 109.138 42.0143 108.956 41.9682C108.684 41.9096 108.352 41.8591 108.001 41.8229C107.65 41.7868 107.296 41.7666 106.984 41.7649C106 41.7287 104.949 41.6452 103.94 41.5228C103.678 41.451 103.514 41.3769 103.468 41.3096C103.422 41.2422 103.496 41.1845 103.681 41.1437C103.979 41.0716 104.146 40.9797 104.173 40.8736C104.199 40.7676 104.084 40.6495 103.835 40.5266C103.707 40.4511 103.665 40.3797 103.709 40.3166C103.754 40.2535 103.886 40.2 104.096 40.1594C104.881 39.9716 104.671 39.8664 103.387 39.5548C103.178 39.5028 102.927 39.4543 102.648 39.4122C102.37 39.3701 102.071 39.3355 101.77 39.3104C101.063 39.2596 100.366 39.2218 99.6921 39.1978C99.3128 39.1587 98.9238 39.1902 98.4868 39.175C96.3017 39.0991 95.9819 38.9765 95.2742 38.7125L94.7585 38.5219C93.802 38.3676 92.7559 38.2394 91.6956 38.1466C90.6353 38.0538 89.5872 37.9988 88.6267 37.9853C88.2449 37.9843 87.806 37.958 87.3773 37.9103C85.982 37.7645 84.569 37.6636 83.2318 37.6143C82.3985 37.5866 81.5003 37.5148 80.6451 37.4075C79.7898 37.3003 79.0138 37.1622 78.4104 37.0098C77.8683 36.8725 77.1591 36.7493 76.3815 36.6573C75.4712 36.5634 75.3869 36.4532 75.8952 36.3683C76.4035 36.2833 77.2549 36.174 78.0106 36.0847C78.2735 36.0544 78.4365 36.005 78.4812 35.9421C78.526 35.8793 78.4508 35.8053 78.2641 35.7286C78.1442 35.5974 78.1234 35.4728 78.2023 35.358C78.2444 35.3103 78.2153 35.2555 78.117 35.1975C78.0186 35.1395 77.8533 35.0795 77.6322 35.0216C77.411 34.9637 77.1392 34.9093 76.835 34.8619C76.5308 34.8146 76.2013 34.7754 75.8688 34.7472C74.4654 34.6025 73.1 34.4617 71.6689 34.356C71.0692 34.3062 70.4701 34.2444 69.8863 34.1722C68.6913 33.9937 67.4128 33.8457 66.1252 33.7367C65.514 33.688 64.9166 33.6028 64.4621 33.4996C63.0284 33.2215 61.7074 32.9291 60.523 32.6277C60.2375 32.5342 59.864 32.443 59.4258 32.3598C58.9876 32.2766 58.4943 32.2032 57.9767 32.1442C57.5595 32.1012 57.2199 32.0065 56.8983 31.9435C56.6646 31.7975 56.6396 31.6626 56.8258 31.5512C57.0119 31.4398 57.403 31.3557 57.9624 31.3067C58.4928 31.2479 58.9892 31.1796 59.4477 31.1074C60.0004 31.0491 60.6575 31.014 61.3945 31.0036C62.2673 30.9722 62.9128 30.8827 63.2466 30.7466C60.8572 30.5003 58.5849 30.1466 56.4904 30.2293L54.899 30.0055C54.9624 29.9165 55.0178 29.8386 55.0693 29.7663C55.4478 29.6346 55.566 29.4686 55.414 29.2822C55.2886 29.1921 55.2999 29.1101 55.4467 29.0444C55.5935 28.9788 55.8706 28.932 56.25 28.9086C58.4973 28.6685 61.0961 28.5064 63.2036 28.234C63.8644 28.1828 64.6379 28.1596 65.4916 28.1653C66.3175 28.1489 66.283 28.0259 65.3325 27.8742C64.799 27.7949 64.2553 27.7189 63.7033 27.6465C61.2691 27.6344 60.2775 27.998 57.4997 27.8968L56.2123 27.4177C55.8641 27.4103 55.5262 27.4073 55.2007 27.4089L50.5431 27.6036C50.1551 27.6134 49.8531 27.6467 49.6714 27.6997C49.4897 27.7528 49.4356 27.8234 49.5151 27.9037C49.5466 28.002 49.4825 28.092 49.325 28.1708C49.2234 28.2259 49.2884 28.2992 49.5057 28.3745C49.9954 28.5445 49.367 28.5693 48.9702 28.612C48.8688 28.6161 48.7518 28.6157 48.6261 28.6107C48.5004 28.6056 48.3685 28.5961 48.2379 28.5826C48.1074 28.5692 47.9809 28.5521 47.8657 28.5323C47.7505 28.5125 47.6489 28.4904 47.5669 28.4673C46.8677 28.3056 46.2563 28.1351 45.569 27.9568C46.0569 27.7861 45.4829 27.506 46.2442 27.3515C46.3294 27.3207 46.3634 27.2831 46.3443 27.2411C46.3253 27.1991 46.2534 27.1535 46.1332 27.1072C45.8231 26.9876 45.6755 26.8711 45.7051 26.7693C45.7347 26.6675 45.9405 26.584 46.3017 26.5274L46.3453 26.4662C45.3926 26.2605 45.645 26.0775 45.2708 25.8597L44.3543 25.7175C42.074 25.3749 42.0701 25.3805 40.1069 25.3931C39.7112 25.2627 40.214 25.2429 40.591 25.228L43.7485 25.0817C45.813 24.984 47.9374 24.9164 50.2436 24.8794C52.5498 24.8424 55.1209 24.7193 57.5046 24.6306C57.6252 24.6238 57.7174 24.6102 57.7735 24.591C57.8296 24.5719 57.848 24.5477 57.8273 24.5206C57.7325 24.4912 57.6085 24.4629 57.4644 24.4377C57.3202 24.4125 57.1597 24.3911 56.9945 24.375C56.2359 24.2968 55.4576 24.2464 54.6492 24.181L53.1423 24.0674L52.6787 23.9181C52.3769 23.8273 52.1708 23.7165 51.7694 23.6512C51.4386 23.6025 51.0796 23.5656 50.7296 23.5442C50.3797 23.5228 50.0516 23.5178 49.7797 23.5297C49.0257 23.5595 48.3435 23.6026 47.6235 23.6418C46.9035 23.6811 46.5066 23.7238 45.8822 23.743C44.6137 23.7518 43.3877 23.7749 42.2096 23.8123C41.2173 23.9008 40.2995 24.0056 39.4619 24.1262C38.9395 24.1739 38.4509 24.231 37.5587 24.1689C37.1354 24.1126 36.7704 24.0386 36.5282 23.96C36.286 23.8815 36.1824 23.8035 36.2357 23.7399C36.2836 23.69 36.4191 23.6505 36.6295 23.6252C36.8399 23.5999 37.1181 23.5895 37.438 23.5951C38.3335 23.5859 39.1616 23.5551 39.9056 23.5031C40.9412 23.409 42.2018 23.3684 43.6139 23.3837C44.0928 23.3973 44.4138 23.3468 44.8327 23.3302C45.2516 23.3137 45.6065 23.2727 46.0735 23.3029C47.5244 23.3808 48.2201 23.2614 49.0895 23.1838C49.3839 23.1495 49.5662 23.0939 49.6165 23.0232C49.6669 22.9525 49.5832 22.8695 49.3747 22.7833C48.9734 22.6115 48.4825 22.4388 47.9097 22.2679C47.6149 22.1839 47.2371 22.1041 46.8061 22.0348C46.3752 21.9655 45.9026 21.9086 45.4256 21.8685C45.1401 21.7634 44.9878 21.6599 44.9824 21.5676C44.9771 21.4753 45.1189 21.397 45.395 21.3398C46.0986 21.2093 46.7223 21.0765 48.2989 21.1495C49.0401 21.1774 49.7377 21.1827 50.3639 21.1653C51.7528 21.1415 53.355 21.1936 55.0194 21.3168C55.45 21.3483 55.8733 21.3699 56.2767 21.3807C59.1541 21.4564 61.8955 21.4942 64.645 21.5208C66.1015 21.5336 67.57 21.5297 69.0904 21.567C72.6562 21.648 75.9021 21.6064 79.3438 21.6327C81.1464 21.6463 82.7598 21.5918 84.0995 21.472C84.3604 21.4319 84.5844 21.3851 84.7691 21.3321C83.8813 21.193 82.9062 21.0828 81.9371 21.0122C80.968 20.9416 80.0374 20.9128 79.2344 20.9287C78.7931 20.9676 78.2225 20.9748 77.5865 20.9493C76.9505 20.9238 76.274 20.8667 75.6324 20.7843L77.4977 20.7377C78.7346 20.7159 80.0015 20.7092 81.2044 20.6779C83.1154 20.6241 84.8866 20.538 86.8656 20.5031C88.4634 20.471 89.8931 20.3891 91.11 20.2599C91.9891 20.1656 92.9932 20.0987 94.1017 20.0607C94.8897 20.0404 94.8897 20.0404 95.3935 19.8475C94.9938 19.7227 94.477 19.7052 93.9902 19.7028C91.0715 19.6243 88.294 19.6105 85.7141 19.6618C84.4124 19.6663 83.2576 19.7192 82.3052 19.818C82.072 19.8596 81.4753 19.8399 80.9964 19.8264C79.4951 19.8058 78.0602 19.8118 76.7089 19.8442C74.8407 19.8983 72.76 19.8855 70.5477 19.8062C70.1282 19.7092 70.611 19.7172 70.6348 19.6838C72.3483 19.6216 74.0279 19.5499 75.7754 19.4972C76.253 19.4784 76.7637 19.4691 77.3015 19.4694C79.3093 19.5021 80.9825 19.4115 82.0865 19.2102C82.142 19.1323 82.8683 19.1415 83.1892 19.091C83.3471 19.0472 83.4523 18.9958 83.5016 18.938C83.034 18.7943 82.5053 18.7935 82.0983 18.7934C80.9172 18.8094 79.781 18.8398 78.6951 18.8845C77.6857 18.9269 76.5683 18.9383 75.3733 18.9182C74.4913 18.899 73.7373 18.9287 72.8475 18.9206C72.3648 18.9035 71.8651 18.876 71.3586 18.8388C71.9226 18.7386 72.689 18.677 73.6043 18.6582C74.2983 18.5984 75.1661 18.5804 75.277 18.4246C74.9492 18.3132 74.584 18.3113 74.2908 18.3229C73.6805 18.3225 73.0909 18.3295 72.5253 18.3439C71.3258 18.3756 70.0272 18.3761 68.6566 18.3452C67.9349 18.3337 67.2501 18.3372 66.6137 18.3556C65.1713 18.3801 63.7889 18.4347 62.4683 18.4597C59.763 18.4854 57.2956 18.5774 54.6962 18.626C54.1176 18.638 53.599 18.6801 52.8365 18.6074C52.074 18.5348 52.0401 18.5253 51.95 18.4802C51.7366 18.405 51.672 18.332 51.7695 18.2765C51.9207 18.2246 52.2153 18.1957 52.6009 18.195C54.9246 18.1125 57.1287 17.9966 59.1991 17.848C60.1103 17.8183 60.9087 17.7576 61.5664 17.6681C62.088 17.6064 62.7068 17.5656 63.4033 17.5469C64.4163 17.5023 65.4723 17.4696 66.5671 17.449C67.0765 17.438 67.5096 17.4049 67.841 17.3519C68.1725 17.2989 68.3954 17.227 68.4967 17.1403L67.1546 16.8527C66.9437 16.8393 66.7345 16.8277 66.5279 16.8179L55.3881 17.0251L54.2848 17.0309C53.0757 17.0137 52.7802 16.9713 51.6332 16.6381C54.2508 16.5597 56.3084 16.3312 57.6013 15.9753C57.2906 15.937 56.972 15.9042 56.653 15.8776C54.5612 15.7934 52.5838 15.771 50.7969 15.8113C49.7355 15.8154 48.6442 15.8044 47.5488 15.799C47.8692 15.6349 49.0964 15.6838 49.8962 15.6468C51.8074 15.5889 53.4974 15.4694 54.9122 15.292C55.4 15.2229 56.0103 15.1786 56.7151 15.1614C57.4204 15.1554 58.0096 15.1136 58.4314 15.0394C58.8531 14.9653 59.0947 14.8611 59.1349 14.736C59.2014 14.6227 59.3446 14.5174 59.5623 14.4217C59.1771 14.286 58.5653 14.1559 57.8419 14.0561C57.1184 13.9562 56.3331 13.8934 55.6331 13.8793C54.1388 13.8234 52.5889 13.7319 51.0229 13.6071C50.2428 13.5441 49.4779 13.508 48.7778 13.501C48.1604 13.4957 47.4586 13.4502 46.7796 13.3716C46.1005 13.293 45.4814 13.1855 45.0167 13.0655C44.3894 12.9173 43.804 12.7673 43.2186 12.6174C42.6333 12.4675 41.954 12.278 41.2707 12.0941C40.6682 12.0654 40.0816 12.0469 39.5187 12.0389C39.0807 12.0456 38.5697 12.0256 38.0459 11.9811C37.5221 11.9366 37.0074 11.8696 36.5625 11.7879C36.8234 11.7073 37.1184 11.6362 37.4292 11.5428C37.0026 11.4195 36.6933 11.2938 36.5202 11.1732C36.347 11.0527 36.3136 10.9399 36.422 10.8418C36.4853 10.7528 36.0216 10.6034 35.8614 10.4854C35.6552 10.3836 35.6164 10.2887 35.7503 10.213C35.8841 10.1372 36.1843 10.0843 36.6114 10.0611C37.1413 10.0182 37.5724 9.9537 37.8873 9.87013C37.9915 9.84844 38.0445 9.81873 38.0415 9.78372C38.0386 9.74871 37.9797 9.70952 37.8704 9.66973C37.761 9.62994 37.6046 9.59083 37.4155 9.55596C37.2264 9.52109 37.0107 9.49158 36.7879 9.47014C36.1057 9.40934 35.4281 9.36993 34.7941 9.35417C33.702 9.32519 32.6564 9.30699 31.6575 9.29956C30.5527 9.28837 29.3237 9.21936 28.0951 9.09952C26.9952 8.98613 26.009 8.88446 25.4712 8.66777C24.9334 8.45109 24.0735 8.45799 23.4123 8.30025C23.7837 8.15805 24.4439 8.05926 25.3262 8.01383C25.9035 7.99761 26.3855 7.95505 26.7411 7.88886C27.0967 7.82268 27.3181 7.73434 27.3912 7.62951L25.3837 7.18966C23.7805 6.98258 22.8935 7.14196 21.1613 7.05894L22.9461 6.89656C22.982 6.88052 22.9954 6.86167 22.9858 6.84093C22.8125 6.51252 22.5368 6.4423 20.7122 6.26018L19.6882 6.15461L18.0675 6.02933C17.8079 5.96202 17.6284 5.89184 17.5468 5.82579C17.4652 5.75974 17.4845 5.70014 17.6027 5.65296C17.8401 5.5736 17.9123 5.4722 17.8126 5.35809C17.6554 5.28249 17.6424 5.21281 17.7759 5.16111C17.9094 5.10942 18.1809 5.07899 18.5434 5.07511C18.8326 5.0691 18.8541 4.98173 19.0115 4.93226C19.1678 4.86408 19.4354 4.81176 19.7961 4.77886C20.1567 4.74596 20.6018 4.73325 21.1013 4.74161C22.5739 4.74844 23.9573 4.72284 25.2269 4.66528L24.9993 4.64182C26.3226 4.69235 27.5598 4.69849 28.6505 4.65991C29.7436 4.61136 31.1464 4.6425 32.3074 4.61289C33.2526 4.61969 33.9722 4.55249 34.3135 4.42556C34.6441 4.30437 35.8453 4.33265 36.7652 4.35582C37.3101 4.37081 37.8368 4.37716 38.3395 4.3748C39.0143 4.34737 39.8581 4.37322 40.7301 4.44806C40.9917 4.47106 41.2495 4.48323 41.4785 4.4834C43.6952 4.51486 45.908 4.55187 48.0948 4.56829C48.5995 4.55883 49.1914 4.58049 49.8009 4.63071C50.0571 4.65251 50.3064 4.66155 50.5154 4.65659C53.9707 4.60671 57.8698 4.73397 61.2572 4.66515C61.6678 4.64889 62.1224 4.64551 62.608 4.65509C63.6992 4.69553 64.6468 4.66951 65.307 4.58099C65.6632 4.53392 66.1198 4.50797 66.6478 4.50482C67.1757 4.50167 67.7634 4.52138 68.3734 4.56269C69.3885 4.61739 70.3267 4.62332 71.0889 4.57986C72.575 4.5397 74.138 4.5232 75.7653 4.53046C76.2639 4.53748 76.7022 4.52188 77.0463 4.48485C77.3903 4.44783 77.6309 4.39038 77.7493 4.31695C77.3496 4.19214 76.9126 4.17695 76.4977 4.18792C74.8895 4.15948 73.2852 4.12548 71.7069 4.11208C70.2943 4.07379 68.9389 4.06209 67.6606 4.07714C67.0259 4.09412 66.2339 4.0554 65.4574 3.96945C64.5058 3.86059 63.5257 3.8065 62.7152 3.81814C62.1144 3.82103 61.4801 3.81165 60.8217 3.79015C60.4003 3.76421 59.9683 3.71968 59.5701 3.66112C59.4121 3.63568 59.2401 3.6143 59.0652 3.59833C58.8902 3.58236 58.7163 3.57217 58.5542 3.56839C58.3922 3.56461 58.2456 3.56732 58.124 3.57637C58.0024 3.58543 57.9085 3.60061 57.8481 3.62095C57.2385 3.79101 55.8753 3.70422 54.7081 3.68541C52.9588 3.39759 51.6569 3.56795 50.0221 3.40538C49.8928 3.3946 49.7654 3.38807 49.6477 3.38621C49.5301 3.38434 49.4246 3.38718 49.3376 3.39454C46.1738 3.49239 42.4864 3.41084 39.1647 3.44463C38.7983 3.44957 38.3731 3.43264 37.9374 3.39575C35.0898 3.15161 32.3519 3.08229 30.259 3.20137C30.0044 3.21209 29.7147 3.21255 29.4032 3.20272C27.9723 3.10569 26.6039 3.067 25.4123 3.08989C23.5448 3.0825 21.7492 3.08849 19.8517 3.06606C18.5437 3.03415 17.3962 3.06825 16.5242 3.16495C16.4965 3.2039 15.9157 3.16193 15.4707 3.15787C15.2148 3.05982 14.993 2.97127 14.7292 2.88435C14.4934 2.77682 14.1401 2.668 13.6934 2.56529C13.2468 2.46257 12.7172 2.36836 12.1404 2.28901C11.1543 2.18735 11.0557 2.03983 11.7457 1.98555C13.5243 1.80599 15.7607 1.73249 18.2907 1.77047C20.4055 1.7735 22.5584 1.78045 24.7033 1.79852C25.9543 1.81403 27.2732 1.84847 28.4903 1.8545C28.901 1.86774 29.3228 1.88727 29.7515 1.91286C30.2775 1.94996 30.7882 1.97018 31.2562 1.97243C32.7587 1.94118 34.4355 1.9684 36.2066 2.05279C36.8554 2.07119 37.4783 2.07739 38.0662 2.0713C39.4569 2.0484 40.9646 2.06525 42.5494 2.12143C43.5345 2.15311 44.4895 2.16967 45.4048 2.17095C45.7281 2.17441 45.9913 2.1478 46.3026 2.16795C49.0431 2.3788 50.9836 2.2265 53.45 2.30758C54.6487 2.33019 55.794 2.33025 56.8697 2.30778C58.9689 2.30886 61.1267 2.33198 63.3343 2.37703C66.2536 2.45105 68.9588 2.42537 71.7462 2.45593C72.2965 2.46235 72.8279 2.46126 73.3364 2.45265C75.81 2.39577 78.4968 2.40783 81.3311 2.48854C81.9747 2.5002 82.5527 2.48594 83.029 2.44667C83.5053 2.4074 83.8696 2.34395 84.0991 2.26031C84.1962 2.2029 84.1333 2.12834 83.9225 2.051C83.5727 1.95223 83.1776 1.85546 82.7439 1.76228L66.9665 1.4496C66.3039 1.43327 65.6577 1.42448 65.0312 1.42327C63.1886 1.42055 61.2892 1.39623 59.3426 1.35042C57.4191 1.30739 55.5816 1.31503 53.718 1.30207C53.1691 1.29773 52.6057 1.28749 52.03 1.27138C48.139 1.14388 44.3449 1.066 40.6744 1.03831C39.1301 1.03438 37.4619 0.975864 35.8876 0.956898C34.3133 0.937931 32.1605 0.930987 30.293 0.923595L24.5111 0.924729C23.3739 0.920955 22.2666 0.932215 21.1633 0.937915C19.8245 0.531153 19.3631 0.435811 17.5765 0.257603C16.9653 0.191866 16.3436 0.152636 15.7843 0.144508C14.0108 0.176665 11.7855 0.0428089 10.1037 0.0605309C9.08885 0.0517908 8.22772 0.0969763 7.60845 0.191468C7.07088 0.265624 6.45616 0.324304 5.77378 0.366616C3.90451 0.018643 3.73977 -0.207358 5.14589 -0.295306C5.52686 -0.315752 6.05161 -0.309426 6.32671 -0.352728C6.48456 -0.379101 6.7002 -0.394184 6.95644 -0.396789C7.21268 -0.399396 7.50244 -0.38946 7.80299 -0.367752C8.75154 -0.310808 9.6406 -0.297414 10.381 -0.328921C11.0778 -0.370618 11.9318 -0.368954 12.8609 -0.324081C13.5436 -0.2537 14.1437 -0.353081 14.7341 -0.381793C15.3245 -0.410505 15.809 -0.462083 16.7312 -0.384932C16.9 -0.369572 17.0677 -0.360347 17.2213 -0.357975C17.3748 -0.355601 17.5102 -0.360137 17.6171 -0.371236C18.6075 -0.420924 19.7894 -0.415703 21.0668 -0.356001C23.026 -0.297252 24.8642 -0.295049 26.5176 -0.349468C27.5073 -0.397083 28.3512 -0.481523 29.0162 -0.599492C29.1975 -0.63895 29.4666 -0.662609 29.7979 -0.668204C31.4615 -0.643588 33.2678 -0.550952 35.1005 -0.396268C35.7909 -0.334288 36.4804 -0.285261 37.1542 -0.250235C38.5392 -0.172423 39.8788 -0.128819 41.1332 -0.120718C42.956 -0.119434 44.8539 -0.0894945 46.8099 -0.0311737C48.017 0.00130025 49.1802 0.0132851 50.2856 0.00465287C51.4217 0.00058254 52.6348 0.0253545 53.8973 0.0783895C55.1527 0.121606 56.2591 0.096705 57.0831 0.00669888C57.3544 -0.0418028 57.573 -0.0993974 57.7346 -0.16501C55.8964 -0.378511 53.9952 -0.487018 52.4139 -0.468677C51.8133 -0.48282 51.3146 -0.468541 50.6817 -0.551704L50.6619 -0.523885C50.5359 -0.505836 50.3459 -0.501576 50.1281 -0.511924C49.9102 -0.522269 49.6797 -0.546493 49.4805 -0.579983C49.5558 -0.68569 49.6271 -0.785834 49.6786 -0.858161C50.8834 -0.845401 52.0532 -0.846434 53.1821 -0.861268C54.1337 -0.882608 55.4255 -0.695687 56.2491 -0.766049C57.8557 -0.678064 58.8785 -0.799547 60.3192 -0.764493C61.7599 -0.729439 63.3466 -0.613633 64.7873 -0.578579C66.0445 -0.559342 67.2651 -0.555161 68.4425 -0.566054C68.8488 -0.581345 69.3173 -0.577759 69.8192 -0.555514C70.5246 -0.513659 71.1808 -0.506646 71.7124 -0.535281C72.244 -0.563916 72.6295 -0.627045 72.825 -0.717425C72.641 -0.802084 72.3931 -0.911246 72.1072 -1.02433C72.6331 -1.11724 73.4319 -1.15637 74.385 -1.13588L75.7318 -1.14036C76.0886 -1.13791 76.3614 -1.16303 76.4937 -1.21052C76.6261 -1.25802 76.6078 -1.32425 76.4427 -1.39553C73.889 -1.75434 73.795 -1.79389 71.9208 -1.5631L69.4323 -1.67035L69.4742 -1.672ZM103.133 -0.686354L102.944 -0.7059L103.133 -0.686354ZM413.252 37.4889L413.209 37.5501L413.256 37.4834L413.673 37.5264L413.701 37.4874L413.252 37.4889ZM352.678 10.665C352.088 10.5982 351.492 10.5368 350.895 10.4812C350.739 10.4726 350.592 10.4706 350.468 10.4755C350.344 10.4804 350.246 10.492 350.183 10.5093C350.135 10.5761 350.469 10.6224 350.772 10.6537C351.155 10.6958 351.546 10.7225 351.904 10.7312C352.263 10.7398 352.577 10.73 352.813 10.7029L353.156 10.6785L352.678 10.665ZM48.9415 26.9369C49.3297 26.9481 49.6979 26.9499 50.0369 26.9423C51.541 26.8883 52.981 26.8098 54.5229 26.7598C56.4685 26.6327 58.7042 26.581 61.1461 26.6065C62.1 26.619 62.906 26.5778 63.4699 26.4877C63.8074 26.4394 64.2431 26.4112 64.7503 26.4048L71.2058 26.2581C71.6048 26.2276 71.9498 26.185 72.2327 26.131C71.6637 26.0724 71.2845 26.0333 71.0569 26.0098C70.5847 26.0032 70.1789 26.0211 69.88 26.0617C69.559 26.1305 69.0165 26.1577 68.3601 26.1379C67.6974 26.1216 67.0512 26.1128 66.4247 26.1116C65.2416 26.115 64.0505 26.1296 62.8634 26.1386C62.4015 26.3298 61.0384 26.2431 59.8711 26.2242L58.9694 26.2328C56.0217 26.332 53.2061 26.4684 50.536 26.6414C50.02 26.6707 49.5754 26.7174 49.216 26.78C49.0806 26.8289 49.0372 26.8899 49.0893 26.9581L48.8997 26.9385L48.9415 26.9369ZM180.571 45.2245C181.286 45.2375 182.03 45.2643 182.794 45.3043C183.382 45.3453 183.955 45.3701 184.492 45.3779C187.498 45.4208 190.631 45.5198 193.849 45.6736C194.269 45.6969 194.674 45.7084 195.046 45.7075L197.679 45.6684C198.509 45.6465 198.525 45.6242 197.921 45.329C197.42 45.2718 196.913 45.2195 196.404 45.1726C196.1 45.1414 195.607 45.0905 195.492 45.1384C194.788 45.2689 193.505 45.1843 192.426 45.1567C189.301 45.0853 186.078 44.9801 182.923 44.8937C182.256 44.8726 181.61 44.8619 180.992 44.8618C180.608 44.8574 180.258 44.8657 179.956 44.8864C179.868 44.8886 179.795 44.8947 179.74 44.9046C179.685 44.9144 179.651 44.9276 179.64 44.9434C179.629 44.9592 179.641 44.9772 179.675 44.9961C179.709 45.0151 179.764 45.0346 179.838 45.0533C180.096 45.1191 180.394 45.182 180.722 45.2401L180.571 45.2245ZM203.461 2.38274L206.54 2.34774C206.909 2.34399 207.222 2.3046 207.617 2.32144C209.725 2.37483 211.676 2.35996 213.389 2.27746C213.972 2.24379 214.654 2.23706 215.398 2.25764C217.675 2.3186 219.823 2.32111 221.784 2.26509C223.052 2.25385 224.238 2.21608 225.325 2.15236C225.409 2.13757 225.461 2.11749 225.478 2.09348C225.495 2.06948 225.477 2.04212 225.424 2.01327C225.41 1.99505 225.373 1.97544 225.315 1.9558C225.257 1.93617 225.179 1.91697 225.087 1.89953C224.995 1.88209 224.891 1.86683 224.782 1.8548C224.673 1.84276 224.561 1.83423 224.455 1.8298C223.082 1.74355 221.778 1.7135 220.65 1.7421C219.605 1.77631 218.479 1.78632 217.291 1.77197C216.153 1.7682 215.382 1.87976 213.977 1.79464C213.382 1.76661 212.858 1.77583 212.492 1.82078C211.756 1.89527 210.729 1.89941 209.594 1.83247C208.914 1.79859 208.265 1.78406 207.67 1.78944C206.228 1.81393 204.849 1.86293 203.513 1.91028C203.092 1.92123 202.64 1.92274 202.166 1.91478L195.474 1.82206C193.866 1.79362 192.261 1.75962 190.683 1.74622C189.392 1.71711 188.191 1.72623 187.122 1.77324C185.982 1.82265 184.739 1.84271 183.415 1.83304C181.36 1.86008 179.317 1.87042 177.081 1.86678C175.654 1.86902 174.194 1.86179 172.703 1.83952C171.949 1.81085 171.309 1.83419 170.906 1.90506C170.661 1.9634 170.084 1.91587 169.605 1.90233C167.051 1.77184 164.655 1.74092 162.586 1.81172C162.322 1.82326 162.031 1.82744 161.722 1.82418C159.729 1.82175 157.664 1.80593 155.75 1.80576C155.247 1.81126 154.773 1.82636 154.334 1.85085C154.381 1.89082 154.515 1.93414 154.708 1.97183C154.901 2.00952 155.138 2.03868 155.371 2.05327C157.18 2.16493 158.928 2.22392 160.539 2.22775C163.221 2.21353 166.031 2.24551 168.939 2.32335C171.195 2.40183 173.253 2.38531 174.958 2.27501C176.291 2.19271 178.025 2.22368 179.863 2.36259C180.649 2.42893 181.412 2.45546 182.048 2.43855C182.66 2.41636 183.362 2.42174 184.113 2.45437C185.697 2.51641 187.22 2.54519 188.652 2.54014C190.053 2.5173 191.359 2.45491 192.798 2.43598C194.236 2.41706 196.427 2.4279 198.2 2.39575C199.974 2.36359 201.727 2.35926 203.461 2.38274ZM75.9067 -0.871505C76.0692 -0.699483 76.6444 -0.592409 77.2632 -0.546539C79.3963 -0.342862 81.5053 -0.256191 83.2358 -0.301069C84.1707 -0.36367 85.4169 -0.339573 86.7297 -0.233512C88.2583 -0.12326 89.687 -0.104977 90.7641 -0.181882C91.028 -0.195321 91.2301 -0.223728 91.3523 -0.264577C91.376 -0.297958 91.4196 -0.359155 91.4275 -0.370283C91.3144 -0.398502 91.1756 -0.424647 91.0219 -0.446707C90.8682 -0.468766 90.7037 -0.486143 90.5411 -0.497502L83.4753 -0.694421L82.2439 -0.737754C79.995 -0.85128 77.8519 -0.896507 75.9067 -0.871505ZM89.8052 1.85124C90.9079 2.13214 90.9118 2.12656 91.4768 2.19078C94.2023 2.4575 96.926 2.60148 99.3238 2.60559C99.8567 2.60478 100.309 2.57766 100.642 2.52653C100.814 2.5196 100.923 2.49758 100.946 2.46527C100.969 2.43296 100.904 2.39298 100.765 2.35406L99.8882 2.15616C98.2956 2.07049 96.726 2.00241 95.1886 1.95235C93.3986 1.89323 91.8124 1.89095 89.9568 1.86687L89.8052 1.85124ZM180.438 43.9806C181.466 44.3672 181.47 44.3617 183.19 44.4614C184.389 44.5321 185.552 44.5735 186.645 44.5846C187.979 44.5968 189.348 44.6185 190.679 44.6362C191.004 44.6485 191.279 44.6383 191.452 44.6075C191.624 44.5767 191.681 44.5276 191.612 44.4696C191.437 44.4067 191.164 44.3458 190.837 44.2969C190.509 44.248 190.147 44.2139 189.809 44.2001L189.083 44.191C188.201 44.1717 187.285 44.143 186.433 44.1387C185.88 44.1548 185.24 44.1424 184.562 44.1025C183.884 44.0627 183.187 43.9965 182.525 43.9091L180.438 43.9806ZM95.2922 -0.366017C95.5666 -0.299065 95.8769 -0.234939 96.2149 -0.175348C97.5236 -0.0101743 98.9088 0.0836367 100.099 0.0876962C100.661 0.0979282 101.176 0.0613957 101.749 0.114484C102.776 0.185423 103.772 0.223212 104.682 0.225801C104.682 0.225801 104.938 0.210312 105.021 0.207004L105.196 -0.0377909C104.765 -0.0945017 104.315 -0.140831 103.868 -0.174645C102.368 -0.239774 100.893 -0.284301 99.4223 -0.334391C97.9516 -0.384482 97.4388 -0.407493 96.477 -0.429006C96.048 -0.417181 95.6511 -0.396081 95.2922 -0.366017ZM62.7942 30.0669L64.758 30.568C65.3935 30.6115 65.9872 30.6194 66.4488 30.5905C66.9103 30.5615 67.2144 30.4973 67.3149 30.4076C67.4766 30.3656 67.4928 30.3034 67.36 30.2341C67.2272 30.1647 66.9558 30.0936 66.6027 30.0356C66.2628 29.9668 65.8748 29.9052 65.4627 29.8545C65.0506 29.8038 64.6232 29.7651 64.207 29.7408L62.7942 30.0669ZM79.1453 27.5722C77.8608 27.4873 76.6323 27.4526 75.5535 27.4707C74.8739 27.5204 73.953 27.5045 72.9796 27.4263C71.2095 27.2704 69.5031 27.2273 68.2206 27.306C68.2206 27.306 68.173 27.3727 67.9556 27.3921C67.7382 27.4115 68.6004 27.4586 68.79 27.4781C70.1809 27.526 71.5797 27.5627 72.7888 27.5798C73.5395 27.5791 74.3336 27.5949 75.1573 27.6269C76.2906 27.6764 77.3655 27.6924 78.3398 27.6743C78.3398 27.6743 78.7168 27.6595 79.1413 27.5778L79.1453 27.5722ZM216.321 1.47498C215.708 1.38062 215.042 1.30393 214.375 1.25066C213.708 1.1974 213.056 1.16895 212.469 1.16743C212.019 1.16251 211.655 1.18742 211.435 1.23823C211.214 1.28905 211.15 1.36286 211.251 1.448C211.707 1.49492 212.313 1.55748 212.655 1.59267C213.838 1.58923 214.847 1.54398 216.321 1.47498ZM331.167 9.42685C330.675 9.35089 330.133 9.29281 329.602 9.25925C329.072 9.22569 328.575 9.218 328.168 9.23706C327.958 9.24533 328.1 9.33164 328.065 9.38171C328.042 9.39306 328.042 9.40718 328.066 9.42259C328.089 9.438 328.136 9.45413 328.2 9.46929C328.264 9.48445 328.344 9.49808 328.43 9.50876C328.517 9.51944 328.607 9.52677 328.692 9.52998C329.226 9.5627 329.73 9.57244 330.159 9.55833C330.589 9.54422 330.929 9.5067 331.152 9.44911L331.167 9.42685ZM338.862 10.5128C338.786 10.4679 338.624 10.4212 338.406 10.3812C338.188 10.3411 337.928 10.3104 337.674 10.2947C337.226 10.2926 336.818 10.305 336.467 10.3315C336.086 10.352 336.36 10.4818 336.875 10.5587C337.094 10.5897 337.327 10.6138 337.556 10.6292C337.786 10.6445 338.005 10.6508 338.197 10.6474C338.39 10.644 338.549 10.6311 338.663 10.6096C338.777 10.5882 338.843 10.5588 338.854 10.5239L338.862 10.5128ZM115.268 0.11075C114.12 -0.0494065 113.236 -0.0091152 112.264 -0.0734846C111.292 -0.137855 111.053 -0.144627 111.183 -0.041624C111.313 0.0613791 111.98 0.0404902 112.397 0.0835005C112.961 0.140571 113.528 0.173344 114.035 0.178156C114.542 0.18297 114.969 0.159632 115.268 0.11075ZM354.495 27.2095C353.887 27.1736 353.292 27.1482 352.717 27.1337C352.642 27.1486 352.595 27.1681 352.578 27.191C352.562 27.2139 352.577 27.2398 352.622 27.2672C352.622 27.2672 353.012 27.3492 353.239 27.3726C354.078 27.4531 354.119 27.3379 354.495 27.2095ZM440.44 42.1311C440.852 42.2393 441.044 42.3128 441.373 42.3647C441.525 42.3827 441.681 42.3958 441.831 42.403C441.981 42.4101 442.12 42.4112 442.239 42.4062C442.384 42.375 442.418 42.3274 442.334 42.2727C442.334 42.2727 441.915 42.1757 441.755 42.1712C441.3 42.1482 440.858 42.1348 440.44 42.1311ZM95.7269 -0.804937C94.8545 -0.894868 94.02 -0.980896 93.416 -0.875947C94.8013 -0.763003 94.8013 -0.762997 95.7269 -0.804937ZM109.856 0.221652C108.975 0.0293209 108.458 0.0118667 108.035 0.0339655C107.945 0.039532 107.886 0.0519379 107.866 0.0692989C107.846 0.0866606 107.866 0.108036 107.924 0.130192C107.982 0.152347 108.074 0.174077 108.186 0.192096C108.299 0.210114 108.425 0.22344 108.547 0.230055C109.006 0.235591 109.444 0.232779 109.856 0.221652ZM155.192 0.302981C155.212 0.275163 155.235 0.241781 155.008 0.218322C154.948 0.206412 154.878 0.196171 154.805 0.188621C154.732 0.181071 154.658 0.176485 154.591 0.175317C154.591 0.175317 154.567 0.2087 154.551 0.230953L155.192 0.302981ZM186.674 46.4867L186.168 46.5121L186.395 46.5356L186.996 46.5497L186.674 46.4867ZM365.064 10.0787C364.875 10.0591 364.685 10.0396 364.657 10.0785C364.617 10.0846 364.593 10.0933 364.585 10.1039C364.577 10.1146 364.587 10.1268 364.614 10.1397C364.614 10.1397 364.879 10.1671 364.993 10.1788L365.064 10.0787ZM335.53 10.3902C335.405 10.3879 335.292 10.3905 335.199 10.3978L335.175 10.4312L335.554 10.4703L335.53 10.3902ZM78.1436 18.3439C77.9971 18.3236 77.8419 18.3076 77.6885 18.2969L77.4988 18.2774C77.4988 18.2774 77.7026 18.3342 77.8163 18.346C77.9301 18.3577 78.0219 18.3433 78.1436 18.3439Z" fill="#34A1D3"/>
</g>
</svg>
