<svg width="13" height="13" viewBox="0 0 13 13" fill="none" xmlns="http://www.w3.org/2000/svg">
<path fill-rule="evenodd" clip-rule="evenodd" d="M4.29803 1.64673C4.50544 1.64673 4.67359 1.81487 4.67359 2.02229V2.85735C6.08956 2.73124 7.51395 2.73125 8.92992 2.85735V2.02229C8.92992 1.81487 9.09807 1.64673 9.30548 1.64673C9.5129 1.64673 9.68104 1.81487 9.68104 2.02229V2.93186C10.4287 3.03757 11.0193 3.62891 11.1193 4.38322L11.1626 4.71018C11.3449 6.0854 11.3292 7.47964 11.1159 8.85038C11.0102 9.52942 10.4586 10.051 9.77469 10.1184L9.1773 10.1773C7.59743 10.3331 6.00606 10.3331 4.42618 10.1773L3.82879 10.1184C3.1449 10.051 2.59325 9.52942 2.48759 8.85038C2.27429 7.47964 2.25855 6.0854 2.44084 4.71019L2.48418 4.38322C2.58416 3.62891 3.17482 3.03756 3.92247 2.93186V2.02229C3.92247 1.81487 4.09061 1.64673 4.29803 1.64673ZM4.52094 3.62608C6.03779 3.47649 7.56569 3.47649 9.08254 3.62608L9.53594 3.67079C9.96996 3.71359 10.3174 4.04958 10.3747 4.48192L10.418 4.80888C10.4332 4.92311 10.4469 5.03747 10.4591 5.15195H3.14434C3.1566 5.03747 3.1703 4.92311 3.18544 4.80889L3.22878 4.48192C3.28609 4.04958 3.63352 3.71359 4.06754 3.67079L4.52094 3.62608ZM3.08464 5.90307C3.03547 6.84851 3.08391 7.7975 3.22977 8.73489C3.28277 9.07549 3.55947 9.33709 3.9025 9.37092L4.4999 9.42983C6.03075 9.5808 7.57273 9.5808 9.10359 9.42983L9.70098 9.37092C10.044 9.33709 10.3207 9.07549 10.3737 8.73489C10.5196 7.7975 10.568 6.84851 10.5188 5.90307H3.08464Z" fill="#B6C3CD"/>
</svg>
