<svg width="500" height="501" viewBox="0 0 500 501" fill="none" xmlns="http://www.w3.org/2000/svg">
<path d="M97.93 59.8379H62.77V71.0279H97.93V59.8379Z" fill="#EBEBEB"/>
<path d="M339.92 192.358H304.76V203.548H339.92V192.358Z" fill="#EBEBEB"/>
<path d="M78.3199 45.7278C72.4799 45.8278 57.5099 46.0778 51.8699 46.1478H43.1599L43.6199 45.6878V56.8778L43.1199 56.3778C48.9599 56.3778 63.8499 56.4578 69.4899 56.5378L78.2799 56.6478L78.0399 56.8778L78.2799 45.6878L78.3199 45.7278ZM78.3199 45.7278L78.5499 56.9178V57.1578H78.3099C73.9199 57.2178 65.1099 57.3178 60.7299 57.3478L43.1499 57.4178H42.6499V56.9178V45.7278V45.2778H43.0999H51.9699C57.5699 45.3378 72.4699 45.5878 78.2599 45.6878L78.3199 45.7278Z" fill="#EBEBEB"/>
<path d="M177.81 286.798C171.97 286.898 157 287.148 151.36 287.208H142.65L143.11 286.758V297.948L142.61 297.448C148.45 297.448 163.34 297.518 168.98 297.598L177.77 297.708L177.53 297.948L177.77 286.758L177.81 286.798ZM177.81 286.798L178.05 297.988V298.218H177.81C173.42 298.218 164.62 298.378 160.23 298.408L142.65 298.478H142.15V297.978V286.788V286.328H142.6L151.47 286.378C157.07 286.438 171.98 286.688 177.76 286.788L177.81 286.798Z" fill="#EBEBEB"/>
<path d="M158.2 272.668C152.36 272.768 137.39 273.018 131.75 273.078H123.04L123.5 272.628V283.818L123 283.318C128.84 283.318 143.73 283.388 149.37 283.468L158.16 283.578L157.92 283.818L158.16 272.628L158.2 272.668ZM158.2 272.668L158.44 283.858V284.088H158.2C153.81 284.138 145 284.248 140.62 284.278L123.04 284.348H122.54V283.848V272.658V272.198H123H131.87C137.47 272.258 152.37 272.508 158.16 272.608L158.2 272.668Z" fill="#EBEBEB"/>
<path d="M138.67 286.778H103.51V297.968H138.67V286.778Z" fill="#EBEBEB"/>
<path d="M456.84 45.7278H421.68V56.9178H456.84V45.7278Z" fill="#EBEBEB"/>
<path d="M437.23 391.278H402.07V402.468H437.23V391.278Z" fill="#EBEBEB"/>
<path d="M456.84 377.168C451 377.268 436.03 377.518 430.39 377.588H421.68L422.14 377.128V388.318L421.64 387.818C427.48 387.818 442.37 387.898 448.01 387.978L456.8 388.088L456.56 388.318L456.8 377.128L456.84 377.168ZM456.84 377.168L457.08 388.358V388.598H456.84C452.45 388.658 443.65 388.758 439.26 388.798L421.68 388.858H421.18V388.348L421.23 377.158V376.708H421.68H430.55C436.15 376.768 451.06 377.028 456.84 377.118V377.168Z" fill="#EBEBEB"/>
<path d="M97.93 391.278C92.09 391.378 77.12 391.628 71.48 391.698H62.77L63.23 391.238V402.428L62.73 401.928L80.31 401.998C84.69 401.998 93.51 402.138 97.89 402.198L97.65 402.428L97.89 391.238L97.93 391.278ZM97.93 391.278L98.17 402.468V402.708H97.93C93.54 402.768 84.73 402.868 80.35 402.908L62.77 402.968H62.27V402.458V391.268V390.798H62.72H71.59C77.19 390.858 92.09 391.118 97.88 391.208L97.93 391.278Z" fill="#EBEBEB"/>
<path d="M202.07 120.948L200.25 133.948C200.1 135.248 199.687 136.505 199.036 137.641C198.386 138.777 197.511 139.77 196.466 140.558C195.421 141.346 194.226 141.914 192.955 142.227C191.683 142.54 190.362 142.591 189.07 142.378C186.476 142.006 184.134 140.622 182.556 138.53C180.979 136.437 180.293 133.804 180.65 131.208L183.56 110.408C183.56 110.208 183.79 110.238 183.82 110.038C183.65 109.808 183.65 109.808 183.67 109.608C184.104 107.042 185.502 104.74 187.579 103.172C189.656 101.605 192.254 100.891 194.84 101.178C197.8 101.629 200.819 101.488 203.724 100.763C206.629 100.039 209.361 98.7446 211.761 96.9562C214.162 95.1678 216.184 92.9206 217.71 90.3448C219.236 87.7691 220.235 84.9162 220.65 81.9513C221.065 78.9865 220.887 75.9688 220.127 73.0732C219.367 70.1775 218.04 67.4616 216.222 65.0828C214.405 62.704 212.133 60.7096 209.539 59.2153C206.945 57.7211 204.08 56.7566 201.11 56.3779C197.227 55.8217 193.266 56.2978 189.625 57.7583C185.984 59.2188 182.792 61.6122 180.37 64.6979C179.559 65.7392 178.549 66.6096 177.399 67.2588C176.25 67.908 174.983 68.3232 173.672 68.4803C172.361 68.6374 171.032 68.5334 169.762 68.1743C168.491 67.8151 167.305 67.208 166.27 66.3878C165.256 65.5798 164.411 64.579 163.785 63.4431C163.159 62.3072 162.764 61.0586 162.622 59.7693C162.481 58.48 162.596 57.1755 162.962 55.9309C163.327 54.6864 163.935 53.5264 164.75 52.5179C169.086 46.9829 174.728 42.6118 181.171 39.7973C187.614 36.9827 194.655 35.8129 201.662 36.393C208.669 36.973 215.422 39.2848 221.314 43.1204C227.206 46.9561 232.053 52.1956 235.42 58.3681C238.786 64.5406 240.566 71.4527 240.6 78.4834C240.634 85.5141 238.921 92.4431 235.614 98.6478C232.308 104.853 227.511 110.139 221.656 114.031C215.801 117.923 209.071 120.3 202.07 120.948ZM195.94 164.738L195.43 168.338C195.285 169.641 194.876 170.9 194.228 172.04C193.58 173.18 192.707 174.175 191.662 174.967C190.617 175.758 189.422 176.329 188.149 176.644C186.877 176.958 185.554 177.011 184.26 176.798C181.663 176.431 179.318 175.049 177.74 172.954C176.161 170.86 175.478 168.225 175.84 165.628L176.34 162.028C176.732 159.443 178.12 157.114 180.208 155.54C182.296 153.966 184.917 153.272 187.51 153.608C188.8 153.773 190.043 154.194 191.168 154.846C192.293 155.498 193.276 156.367 194.061 157.403C194.846 158.44 195.417 159.622 195.739 160.881C196.062 162.141 196.13 163.452 195.94 164.738Z" fill="#EBEBEB"/>
<path d="M105.19 183.188L108.1 193.798C108.417 194.846 108.517 195.948 108.395 197.037C108.273 198.126 107.931 199.178 107.389 200.13C106.847 201.082 106.118 201.914 105.245 202.576C104.372 203.237 103.373 203.714 102.31 203.978C100.194 204.558 97.9337 204.275 96.0254 203.192C94.1172 202.108 92.7164 200.312 92.13 198.198L87.46 181.198C87.46 181.048 87.59 180.998 87.54 180.828C87.33 180.718 87.33 180.718 87.28 180.548C86.761 178.433 87.0718 176.199 88.1486 174.305C89.2255 172.412 90.9866 171.003 93.07 170.368C95.5614 169.795 97.9111 168.724 99.9775 167.219C102.044 165.714 103.784 163.806 105.094 161.611C106.403 159.415 107.254 156.977 107.597 154.444C107.939 151.91 107.764 149.334 107.084 146.87C106.404 144.405 105.232 142.104 103.638 140.105C102.045 138.106 100.064 136.45 97.8135 135.237C95.5632 134.024 93.0906 133.279 90.5447 133.047C87.9989 132.816 85.4324 133.101 83 133.888C79.8316 134.746 76.9455 136.425 74.6332 138.755C72.3209 141.084 70.6641 143.983 69.83 147.158C69.5569 148.231 69.073 149.24 68.4063 150.125C67.7396 151.009 66.9035 151.753 65.9468 152.311C64.99 152.87 63.9317 153.232 62.8335 153.377C61.7353 153.523 60.6191 153.448 59.55 153.158C58.5025 152.872 57.5217 152.382 56.6642 151.716C55.8066 151.05 55.0891 150.222 54.5529 149.277C54.0167 148.333 53.6724 147.292 53.5397 146.215C53.4071 145.137 53.4888 144.044 53.78 142.998C55.2742 137.305 58.1595 132.072 62.1766 127.769C66.1937 123.467 71.2167 120.23 76.7943 118.35C82.372 116.469 88.3294 116.004 94.1315 116.995C99.9335 117.987 105.398 120.404 110.035 124.03C114.671 127.657 118.334 132.378 120.695 137.77C123.055 143.162 124.038 149.056 123.557 154.923C123.076 160.789 121.145 166.444 117.937 171.38C114.729 176.315 110.346 180.376 105.18 183.198L105.19 183.188ZM115.01 218.888L115.82 221.818C116.137 222.869 116.236 223.974 116.112 225.065C115.988 226.155 115.643 227.21 115.099 228.163C114.554 229.116 113.821 229.949 112.945 230.61C112.068 231.271 111.066 231.746 110 232.008C107.883 232.582 105.624 232.296 103.717 231.211C101.81 230.126 100.409 228.331 99.82 226.218L99 223.278C98.4527 221.161 98.751 218.915 99.8318 217.014C100.913 215.114 102.691 213.709 104.79 213.098C105.841 212.792 106.942 212.7 108.028 212.828C109.115 212.955 110.165 213.298 111.117 213.838C112.069 214.378 112.903 215.103 113.57 215.97C114.237 216.837 114.723 217.829 115 218.888H115.01Z" fill="#EBEBEB"/>
<path d="M156.92 230.888L156.49 239.028C156.462 239.839 156.269 240.637 155.924 241.371C155.578 242.106 155.087 242.763 154.48 243.302C153.874 243.842 153.164 244.253 152.394 244.51C151.623 244.767 150.809 244.865 150 244.798C148.376 244.71 146.854 243.982 145.766 242.772C144.679 241.563 144.116 239.972 144.2 238.348L144.88 225.348C144.88 225.228 145.02 225.238 145.03 225.108C145.04 224.978 144.9 224.978 144.91 224.848C145.04 223.239 145.78 221.741 146.98 220.66C148.179 219.58 149.746 219 151.36 219.038C153.199 219.136 155.038 218.871 156.774 218.257C158.51 217.644 160.109 216.695 161.478 215.464C162.847 214.233 163.96 212.745 164.754 211.084C165.548 209.423 166.007 207.621 166.105 205.783C166.203 203.944 165.938 202.105 165.325 200.369C164.711 198.633 163.762 197.034 162.531 195.665C161.301 194.296 159.812 193.183 158.151 192.389C156.49 191.595 154.689 191.136 152.85 191.038C150.42 190.902 147.996 191.408 145.823 192.505C143.65 193.602 141.804 195.251 140.47 197.288C140.027 197.978 139.45 198.574 138.774 199.039C138.098 199.504 137.336 199.83 136.533 199.997C135.729 200.165 134.9 200.171 134.095 200.015C133.289 199.859 132.523 199.544 131.84 199.088C131.17 198.643 130.595 198.069 130.148 197.401C129.701 196.732 129.39 195.982 129.234 195.193C129.078 194.403 129.079 193.591 129.238 192.803C129.397 192.014 129.71 191.265 130.16 190.598C132.544 186.942 135.799 183.936 139.632 181.849C143.466 179.763 147.758 178.662 152.122 178.645C156.487 178.628 160.787 179.696 164.637 181.753C168.486 183.809 171.764 186.79 174.176 190.428C176.588 194.065 178.059 198.245 178.455 202.592C178.852 206.938 178.162 211.315 176.448 215.329C174.734 219.343 172.049 222.868 168.635 225.587C165.222 228.306 161.186 230.135 156.89 230.908L156.92 230.888ZM155.47 258.298L155.35 260.548C155.327 261.36 155.139 262.159 154.798 262.896C154.456 263.633 153.969 264.294 153.365 264.837C152.761 265.38 152.053 265.795 151.284 266.057C150.514 266.318 149.7 266.421 148.89 266.358C147.264 266.27 145.74 265.54 144.653 264.329C143.565 263.117 143.003 261.524 143.09 259.898L143.21 257.648C143.318 256.031 144.052 254.519 145.257 253.435C146.461 252.35 148.04 251.777 149.66 251.838C150.469 251.871 151.263 252.065 151.996 252.41C152.728 252.754 153.385 253.242 153.926 253.844C154.468 254.446 154.883 255.15 155.148 255.915C155.413 256.68 155.523 257.49 155.47 258.298Z" fill="#DBDBDB"/>
<path d="M397.93 82.9778H317.91V162.998H397.93V82.9778Z" fill="white"/>
<path d="M313.74 78.7979V167.138H402.09V78.7979H313.74ZM397.93 162.978H317.93V82.9779H397.93V162.978Z" fill="#DBDBDB"/>
<path d="M392.16 147.488V119.828H329.79V147.488H392.16Z" fill="#EBEBEB"/>
<path d="M373.89 138.968V107.008H341.93V138.968H373.89Z" fill="#C7C7C7"/>
<path d="M405.5 78.8079H402.09V167.158H405.5V78.8079Z" fill="#C7C7C7"/>
<path d="M439.28 200.568H359.26V280.588H439.28V200.568Z" fill="white"/>
<path d="M393.91 213.368H373.02V273.728H393.91V213.368Z" fill="#C7C7C7"/>
<path d="M355.1 196.398V284.798H443.44V196.398H355.1ZM439.28 280.588H359.28V200.588H439.28V280.588Z" fill="#DBDBDB"/>
<path d="M415.25 224.598H383.3V256.548H415.25V224.598Z" fill="#EBEBEB"/>
<path d="M446.86 196.398H443.45V284.748H446.86V196.398Z" fill="#C7C7C7"/>
<path d="M47.4399 438.538L98.0799 438.298L148.72 438.208L250 438.038L351.28 438.208L401.92 438.298L452.56 438.538L401.92 438.778L351.28 438.868L250 439.038L148.72 438.868L98.0799 438.778L47.4399 438.538Z" fill="#263238"/>
<path d="M287.78 244.018C338.24 296.748 401.07 407.018 388.72 429.018C374.96 453.488 304.72 379.588 305.03 375.338C305.28 372.128 281.18 305.338 262.86 256.808C244.54 208.278 275.3 230.978 287.78 244.018Z" fill="#D3766A"/>
<path d="M304.55 375.358C302.47 368.228 269.64 280.188 260.29 252.358C250.94 224.528 260.12 216.098 287.63 241.878C315.14 267.658 375 353.268 388.26 398.428C401.04 441.928 378.75 441.588 349.64 421.188C325.8 404.478 304.55 375.358 304.55 375.358Z" fill="#34A1D3"/>
<path d="M258.08 230.478C257.89 230.408 257.7 230.338 257.5 230.248C257.578 230.001 257.682 229.763 257.81 229.538C258.19 229.688 258.58 229.828 258.97 229.958C262.12 230.958 265.97 231.288 268.74 229.118C269.053 228.873 269.341 228.598 269.6 228.298L270.36 228.678C267.54 232.058 262.12 231.958 258.08 230.478ZM279.83 235.078L279.06 234.468C278.62 234.681 278.18 234.881 277.74 235.068C271.44 237.838 263.66 240.628 258.21 245.308L258.45 246.308C261.345 243.811 264.594 241.755 268.09 240.208C271.94 238.348 276 236.878 279.83 235.078ZM286.83 253.838C288.687 251.462 290.748 249.254 292.99 247.238C292.79 247.018 292.58 246.808 292.38 246.598C286.63 251.598 282.51 259.238 277.04 264.088C274.032 266.878 270.417 268.932 266.48 270.088C266.57 270.348 266.66 270.608 266.76 270.868C269.488 270.088 272.062 268.847 274.37 267.198C279.54 263.688 283 258.638 286.84 253.798L286.83 253.838ZM315.24 273.638C306.92 284.928 291.83 287.638 278.59 289.638C276.99 289.878 275.39 290.138 273.79 290.458C273.9 290.748 274 291.048 274.11 291.348C279.7 290.208 285.45 289.728 291.01 288.458C300.28 286.338 310.01 281.948 315.82 274.388L315.24 273.638ZM326.57 370.968C320.85 369.538 315.65 371.438 310.62 374.098C308.97 374.978 307.3 375.908 305.62 376.778L306.19 377.518C312.97 374.028 319.5 369.678 327.31 372.218C329.86 373.048 332.31 374.678 333.31 377.218C334.61 380.528 333.15 383.978 330.84 386.428C327.61 389.838 323.2 391.198 318.93 392.808L319.67 393.638L323.36 392.198C328.45 390.198 334.43 386.478 334.8 380.358C335.07 375.428 331.05 372.078 326.58 370.968H326.57ZM306.67 309.968C310.67 304.278 314.42 298.368 318.45 292.668C320.19 290.198 322.02 287.668 324.02 285.298L323.45 284.528C322.38 285.788 321.37 287.078 320.39 288.378C316.33 293.768 312.69 299.458 308.91 305.038C303.21 313.448 296.52 322.918 287.74 328.748C287.85 329.058 287.96 329.358 288.08 329.668C295.6 324.678 301.65 317.028 306.68 309.958L306.67 309.968ZM308.67 324.968C308.36 327.41 308.717 329.89 309.702 332.146C310.688 334.401 312.267 336.347 314.27 337.778C318.93 340.978 324.14 339.008 327.45 334.908C329.45 332.488 330.82 329.708 332.57 327.148C334.594 324.137 337.105 321.484 340 319.298C341.701 318.038 343.573 317.028 345.56 316.298L344.99 315.428C343.752 315.9 342.56 316.485 341.43 317.178C335.78 320.618 332.34 325.928 328.88 331.378C327.1 334.158 324.96 337.118 321.67 338.168C320.266 338.56 318.783 338.568 317.375 338.19C315.968 337.811 314.688 337.061 313.67 336.018C308.87 331.538 308.56 324.648 312.18 319.378C316 313.798 322.61 310.798 328.86 308.798C332.06 307.798 335.36 306.938 338.59 305.908L338.04 305.098C331.54 307.188 324.61 308.648 319.04 311.948C314.25 314.798 309.6 319.238 308.72 324.988L308.67 324.968ZM361.67 342.278C358.967 345.539 355.76 348.348 352.17 350.598C346.312 354.488 339.574 356.853 332.57 357.478C325.641 358.105 318.736 356.038 313.29 351.708C308.54 347.888 304.29 343.148 297.99 342.108C296.205 341.811 294.386 341.774 292.59 341.998C292.72 342.348 292.84 342.688 292.97 342.998C295.443 342.723 297.946 342.982 300.31 343.758C303.63 344.868 306.37 347.138 308.97 349.388C311.386 351.667 314.042 353.679 316.89 355.388C319.692 356.889 322.74 357.874 325.89 358.298C332.176 359.063 338.552 358.202 344.41 355.798C350.74 353.298 357.65 348.998 362.25 343.298L361.67 342.278ZM361.72 428.668C362.65 429.168 363.57 429.668 364.47 430.068C367.556 430.768 370.521 431.92 373.27 433.488C374.43 433.813 375.609 434.067 376.8 434.248C373.758 432.344 370.498 430.813 367.09 429.688C365.343 429.171 363.546 428.835 361.73 428.688L361.72 428.668ZM366.72 351.138L366.28 350.358C357.84 352.168 349.96 358.208 346.82 365.898C344.34 371.968 345.82 377.898 348.44 383.658C350.087 386.879 351.533 390.198 352.77 393.598C353.756 396.724 354.304 399.971 354.4 403.248C354.619 409.57 353.008 415.82 349.76 421.248L350.54 421.788C353.043 417.677 354.607 413.064 355.12 408.278C355.791 402.215 354.928 396.08 352.61 390.438C349.88 383.798 345.24 377.258 346.61 369.718C348.37 360.698 357.3 353.128 366.76 351.158L366.72 351.138ZM388.78 400.368C386.049 401.246 383.249 401.892 380.41 402.298C377.01 402.718 372.91 402.568 370.91 399.298C369.47 396.938 369.73 393.908 370.51 391.368C372.22 385.828 376.7 382.648 380.93 379.138C380.82 378.858 380.69 378.578 380.56 378.298C378.43 380.048 376.19 381.698 374.27 383.538C370.83 386.838 368.27 392.078 369.08 396.938C370.08 403.038 376.28 403.888 381.43 403.088C383.991 402.615 386.517 401.966 388.99 401.148C389 400.928 388.9 400.658 388.82 400.388L388.78 400.368Z" fill="white"/>
<path opacity="0.1" d="M349.64 421.188C325.8 404.488 304.55 375.358 304.55 375.358C302.48 368.228 269.63 280.188 260.29 252.358C256.84 242.068 255.91 234.438 257.51 230.208L349.64 421.188Z" fill="black"/>
<path d="M302.93 438.358H108.06C108.06 438.358 147.92 283.458 213.77 219.358C222.6 210.758 256.99 212.208 264.92 225.158C294.63 273.728 303.47 437.668 302.93 438.358Z" fill="#34A1D3"/>
<path d="M278.15 351.578C270.49 362.458 278.82 377.278 291.03 379.838C293.538 380.349 296.131 380.263 298.6 379.588L298.69 380.588C296.41 381.21 294.027 381.352 291.69 381.008C280.83 379.318 271.69 367.748 274.6 356.728C276.84 348.138 285.6 342.158 294.28 341.888C294.28 342.248 294.37 342.598 294.42 342.958C293.673 342.968 292.928 343.028 292.19 343.138C289.403 343.532 286.725 344.483 284.313 345.933C281.901 347.382 279.805 349.302 278.15 351.578ZM116.43 410.798L116.13 410.548C116.02 410.878 115.92 411.208 115.82 411.548C123.43 417.838 125 429.168 127.44 438.378H128.44C125.84 428.728 124.42 417.598 116.43 410.798ZM149 354.798C154.95 354.418 161 352.428 164.62 347.438C167.42 343.588 168.88 338.168 166.81 333.668C164.41 328.458 158.55 327.078 153.31 327.208C151.04 327.258 148.8 327.478 146.57 327.728L146.15 328.728C149.785 328.128 153.483 328.004 157.15 328.358C160.37 328.798 163.54 330.208 165.34 333.028C166.055 334.251 166.52 335.604 166.709 337.008C166.897 338.412 166.806 339.839 166.44 341.208C164.92 347.758 159.58 351.888 153.22 353.268C147.59 354.488 141.86 353.828 136.22 353.018L135.86 353.928C140.201 354.65 144.602 354.941 149 354.798ZM157.39 427.688C151.71 426.688 142.59 432.108 139.53 424.688C137.23 419.128 140.53 412.918 144.05 408.738C148.34 403.668 153.88 399.878 159.35 396.188C169.45 389.358 193.92 368.448 182.24 359.588C171.35 351.338 157.36 375.408 149.17 382.958C141.93 389.618 131.33 395.648 120.97 395.498L120.67 396.388C131.14 396.568 141.49 390.608 149.27 384.158C159.51 375.678 169.6 353.628 181.43 360.388C191.25 365.998 172.94 385.668 162.8 392.658C157.69 396.188 152.38 399.498 147.72 403.658C143.6 407.318 139.56 411.838 138.31 417.358C137.39 421.438 137.86 426.678 142.01 428.818C144.65 430.188 147.64 429.668 150.43 429.138C153.94 428.458 157.23 428.048 160.49 429.818C162.117 430.715 163.543 431.937 164.678 433.408C165.813 434.878 166.634 436.567 167.09 438.368H168.16C168.16 438.368 168.16 438.368 168.16 438.318C166.79 433.248 162.63 428.668 157.36 427.698L157.39 427.688ZM228.68 304.258C226.219 302.839 223.401 302.159 220.564 302.299C217.726 302.439 214.989 303.394 212.68 305.048C207.68 308.588 204.61 314.308 202.26 319.828C199.64 325.998 197.26 332.828 192.16 337.398C189.4 339.888 185.05 342.068 181.66 339.398C179.45 337.658 178.66 334.588 178.53 331.878C178.34 326.078 181.8 320.598 185.26 316.218C188.84 311.668 193.02 307.638 196.63 303.108C199.98 298.908 202.92 294.108 203.71 288.708C204.1 286.038 203.71 283.148 201.52 281.358C199.628 280.018 197.293 279.459 195 279.798C189.32 280.348 184.47 284.478 181.05 288.798C179.143 291.246 177.469 293.868 176.05 296.628C174.5 299.578 173.35 302.728 171.78 305.628C169.96 309.028 166.83 310.678 163.05 309.518C160.564 308.697 158.408 307.098 156.9 304.958C156.76 305.248 156.62 305.538 156.49 305.828C159.27 309.238 163.43 311.898 167.86 310.458C170.67 309.538 172.18 306.998 173.34 304.458C174.68 301.458 175.98 298.528 177.56 295.688C180.73 289.978 185.14 284.128 191.4 281.598C194.03 280.538 197.4 280.108 200.01 281.478C203.64 283.388 203.18 287.848 202.23 291.218C199.05 302.388 188.54 309.448 182.23 318.738C179.35 322.998 176.96 328.138 177.64 333.408C178.26 338.148 181.64 342.558 186.89 341.408C193.06 340.068 197.08 333.558 199.59 328.298C202.45 322.298 204.37 315.888 208.44 310.568C212.51 305.248 218.76 301.688 225.53 303.998C232.78 306.468 236.93 313.628 237.2 320.998C237.7 334.468 228.2 345.618 218.52 353.748C209.2 361.558 198.67 367.918 190.05 376.568C180.5 386.192 174.286 398.623 172.32 412.038C171.11 420.268 171.12 430.168 174.45 438.338H175.71C174.724 435.917 173.993 433.4 173.53 430.828C170.97 417.088 174.09 402.208 180.97 390.158C187.6 378.548 198.02 370.598 208.57 362.768C217.85 355.878 227.57 348.698 233.44 338.488C239.72 327.718 241.21 311.248 228.65 304.268L228.68 304.258ZM261.15 367.848C261.043 364.793 260.226 361.805 258.762 359.121C257.299 356.438 255.23 354.132 252.72 352.388C250.445 350.825 247.759 349.97 245 349.929C242.24 349.888 239.53 350.663 237.21 352.158C232.4 355.238 229.29 360.688 228.1 366.158C226.37 374.108 227.81 382.268 227.97 390.288C228.235 405.664 224.081 420.794 216 433.878C215.05 435.408 214 436.878 212.92 438.358H214.28C217.534 433.91 220.247 429.089 222.36 423.998C225.286 417.209 227.274 410.053 228.27 402.728C229.32 395.008 228.83 387.438 228.42 379.728C228.03 372.308 228.27 364.538 232.6 358.198C236.41 352.618 243.07 349.198 249.68 351.978C256.29 354.758 260 361.798 260.14 368.798C260.54 383.268 250.14 395.418 243.01 407.068C239.61 412.608 236.56 418.468 235.13 424.848C234.14 429.294 233.991 433.887 234.69 438.388H235.69C234.88 433.281 235.18 428.059 236.57 423.078C240.24 410.078 249.81 399.868 255.92 388.078C259.13 381.798 261.56 374.918 261.12 367.858L261.15 367.848ZM290.2 411.848C286.48 407.408 281.09 404.458 275.2 405.038C269.8 405.568 265.06 409.038 263.9 414.488C262.57 420.788 265.9 427.328 269.35 432.378C270.69 434.378 272.21 436.308 273.66 438.328H274.79C272.07 434.428 269.02 430.728 266.95 426.418C263.95 420.178 262.95 411.618 269.95 407.608C275.86 404.198 283.14 406.178 287.85 410.658C292.95 415.518 295.34 422.458 296.76 429.188C297.39 432.188 297.87 435.188 298.35 438.328H299.3C297.84 428.898 296.42 419.328 290.17 411.878L290.2 411.848ZM228.7 214.208C228.153 214.261 227.613 214.321 227.08 214.388C224.799 217.048 222.169 219.385 219.26 221.338C215.257 224.065 210.821 226.094 206.14 227.338L204.92 228.718C206.051 228.488 207.17 228.198 208.27 227.848C215.6 225.488 223.62 220.738 228.7 214.208ZM230.1 241.938C228.897 239.544 228.589 236.799 229.23 234.198C230.35 229.118 234.41 224.198 239.73 223.348C246.62 222.228 252.06 228.288 258.08 230.478C261.14 231.598 264.98 231.928 267.9 230.558C267.79 230.318 267.67 230.088 267.56 229.868C264.95 231.188 261.69 230.868 258.97 229.958C252.85 227.958 247.97 222.328 241.16 222.408C232.16 222.528 225.26 233.978 229.16 242.048C230.53 244.848 233.16 246.748 235.41 248.748C237.761 250.698 239.644 253.152 240.92 255.928C242.069 258.533 242.677 261.344 242.706 264.191C242.735 267.037 242.185 269.86 241.09 272.488C240.049 275.035 238.299 277.229 236.048 278.81C233.796 280.391 231.138 281.293 228.39 281.408C225.767 281.473 223.164 280.939 220.78 279.845C218.395 278.752 216.292 277.128 214.63 275.098C213.034 273.105 212.126 270.65 212.04 268.098C211.95 264.678 213.24 261.358 214.04 258.098C215.31 253.248 215.5 246.888 209.95 244.668C205.5 242.878 200.23 245.108 196.75 247.938C192.1 251.708 190.22 257.658 187.62 262.838C184.84 268.368 180.78 273.618 174.17 274.218C173.75 274.218 173.34 274.278 172.93 274.278C172.75 274.598 172.57 274.928 172.38 275.278H172.64C177.98 275.328 182.44 272.548 185.53 268.278C189.17 263.278 190.73 257.078 194.25 251.978C197.25 247.648 203.68 243.648 209.1 245.358C216.99 247.848 213.03 257.608 211.73 263.068C210.55 267.998 211.1 272.648 214.59 276.508C221.02 283.598 233.16 284.508 239.44 276.808C245.88 268.868 244.5 256.108 237.19 249.198C234.83 246.908 231.73 245.008 230.1 241.938ZM258.83 270.728C264.14 272.728 270 270.278 274.38 267.248C276.238 265.948 277.954 264.457 279.5 262.798L279.26 261.938C278.55 262.698 277.81 263.428 277.05 264.108C272.44 268.198 265.42 272.308 259.1 269.908C252.59 267.438 251.21 259.838 253.27 253.908C255.59 247.178 261.96 243.098 268.09 240.218C269.23 239.685 270.38 239.175 271.54 238.688C271.45 238.428 271.34 238.178 271.23 237.918C261.85 241.988 252.03 247.258 251.46 258.498C251.2 263.678 253.74 268.798 258.83 270.728ZM292 325.548C288.004 329.083 283.279 331.695 278.16 333.198C271.01 335.198 263.76 333.458 259.22 327.368C257.267 324.637 255.793 321.593 254.86 318.368C253.63 314.368 252.74 310.058 253.86 305.948C255.68 299.048 262.3 294.728 268.74 292.708C274.26 290.968 280.06 290.388 285.74 289.458C285.67 289.138 285.61 288.818 285.55 288.458C283.21 288.878 280.88 289.248 278.61 289.588C271.86 290.588 264.93 291.988 259.43 296.288C256.929 298.129 254.969 300.609 253.757 303.468C252.544 306.327 252.124 309.46 252.54 312.538C253.33 318.718 255.8 325.538 260.23 329.998C264.66 334.458 270.86 335.728 276.9 334.448C282.553 333.118 287.791 330.415 292.15 326.578C292.08 326.268 292 325.908 292 325.548Z" fill="white"/>
<path d="M386.9 427.888C372.9 442.388 344.96 443.678 265.19 446.608C254.19 447.018 230.34 369.888 242.1 368.848C256.92 367.538 314.71 365.678 318.95 366.068C354.74 369.418 396.38 418.058 386.9 427.888Z" fill="#D3766A"/>
<path d="M267.77 370.708C267.77 370.708 236.34 363.708 218.69 365.158C195.06 367.088 175.45 378.488 167.52 383.758C150.97 394.758 118.52 432.758 127.89 444.048C136.34 454.228 167.5 413.668 167.5 413.668C167.5 413.668 128.9 449.778 141.32 460.168C153.74 470.558 187.24 421.408 187.24 421.408C187.24 421.408 148.42 459.408 162.92 468.088C173.92 474.658 206.73 431.858 206.73 431.858C206.73 431.858 173.58 464.798 184.56 471.978C196.7 479.978 229.5 442.368 229.5 442.368C260.5 456.068 280.88 449.908 294.84 443.798C298.22 442.318 267.77 370.708 267.77 370.708Z" fill="#D3766A"/>
<path d="M180.05 400.318C175.36 404.398 170.59 408.498 166.28 412.978C161.97 417.458 157.82 422.088 153.94 426.978C144.44 438.908 140.36 447.858 140.67 447.328C148.06 434.908 163.24 418.628 167.55 414.148C171.86 409.668 175.93 404.988 180.23 400.508C180.34 400.368 180.16 400.228 180.05 400.318Z" fill="#263238"/>
<path d="M196.51 415.588C190.75 421.048 184.83 426.268 179.31 431.988C173.79 437.708 169.1 443.568 164 449.628C163.61 450.088 164 450.148 164.4 449.698C169.72 443.848 175.1 438.848 180.49 433.068C185.88 427.288 191.05 421.278 196.63 415.718C196.74 415.628 196.6 415.508 196.51 415.588Z" fill="#263238"/>
<path d="M213 426.148C203.77 434.048 196 443.648 188.62 453.238C188.25 453.718 188.75 453.738 189.15 453.238C197.09 444.078 203.24 436.828 213.27 426.428C213.43 426.308 213.19 425.978 213 426.148Z" fill="#263238"/>
<path d="M251.3 366.688L307.16 452.888C307.16 452.888 376.16 446.528 389.02 430.538C397.5 420.018 355.27 366.608 315.44 365.908L251.3 366.688Z" fill="#34A1D3"/>
<path d="M261.12 367.858C261.311 371.775 260.779 375.694 259.55 379.418L258.88 378.418C259.788 375.298 260.213 372.057 260.14 368.808C260.12 368.075 260.06 367.344 259.96 366.618H260.96C261.04 367.018 261.093 367.431 261.12 367.858ZM276.12 405.008L276.72 405.928C280.87 406.098 284.812 407.793 287.79 410.688C292.89 415.548 295.28 422.488 296.7 429.218C297.41 432.548 297.92 435.998 298.45 439.468L299.69 441.388C298.08 430.978 297.08 420.128 290.16 411.878C286.66 407.688 281.66 404.798 276.13 405.008H276.12ZM352.64 390.488C350.64 385.698 347.71 380.968 346.73 375.868L345.8 375.318C346.289 378.217 347.188 381.032 348.47 383.678C350.117 386.899 351.563 390.218 352.8 393.618C353.786 396.744 354.334 399.992 354.43 403.268C354.83 416.438 347.62 429.348 334.48 433.048C322.66 436.378 309.25 431.268 305.94 418.738C304.477 413.403 305.074 407.714 307.61 402.798C310.96 396.588 317.16 394.678 323.34 392.228C328.43 390.228 334.41 386.508 334.78 380.388C335.07 375.388 331.05 372.068 326.58 370.958C320.86 369.528 315.66 371.428 310.63 374.088C304.52 377.318 298.25 381.348 291.03 379.828C287.605 379.044 284.437 377.397 281.829 375.043C279.221 372.688 277.259 369.705 276.13 366.378H274.92C276.148 370.092 278.351 373.407 281.299 375.978C284.248 378.548 287.833 380.279 291.68 380.988C304.68 382.988 314.23 367.988 327.3 372.198C329.85 373.028 332.3 374.658 333.3 377.198C334.6 380.508 333.14 383.958 330.83 386.408C325.77 391.748 317.83 392.048 312.03 396.218C303.8 402.138 302.31 414.168 306.49 422.938C311.42 433.288 323.78 436.808 334.32 434.018C346.25 430.858 353.85 420.258 355.17 408.268C355.828 402.224 354.961 396.111 352.65 390.488H352.64ZM378.2 403.378L377.47 402.478C374.9 402.408 372.38 401.678 370.94 399.338C370.046 397.772 369.694 395.954 369.94 394.168L369.07 393.298C368.881 394.517 368.881 395.759 369.07 396.978C369.91 401.798 374 403.348 378.21 403.378H378.2ZM367.1 429.708C362.38 428.308 356.84 428.058 352.28 430.168C347.42 432.408 345.36 437.168 346.03 442.388C346.272 443.933 346.606 445.462 347.03 446.968L347.87 446.808C346.87 442.708 346.04 438.618 348.27 434.888C351.15 430.088 357.57 429.188 362.66 429.778C369.04 430.518 374.33 434.098 379.81 437.148L380.9 436.598C376.36 434.088 372 431.158 367.1 429.708Z" fill="white"/>
<path d="M360.13 385.338C340.08 368.998 333.3 366.178 301.74 365.798C301.48 365.798 301.43 366.128 301.69 366.138C336.3 367.698 352.28 380.488 359.9 385.598C360.1 385.718 360.31 385.488 360.13 385.338Z" fill="#263238"/>
<path d="M327.69 443.178C322.06 433.368 315.9 423.868 309.69 414.388C303.48 404.908 297.34 395.388 290.92 386.078C287.29 380.798 283.69 375.508 279.92 370.358C279.82 370.228 279.57 370.358 279.66 370.508C285.28 380.308 291.4 389.838 297.51 399.338C303.62 408.838 309.85 418.338 316.16 427.748C319.73 433.058 323.39 438.308 327.16 443.458C327.39 443.708 327.86 443.458 327.69 443.178Z" fill="#263238"/>
<path opacity="0.1" d="M321.74 366.438L275.74 404.438L251.27 366.688L315.43 365.908C316.18 365.908 316.94 365.958 317.7 366.008L321.29 366.398L321.74 366.438Z" fill="black"/>
<path d="M190.25 272.638C182.06 365.098 194.86 438.748 233.68 444.058C259.46 447.578 253 369.398 252.94 367.728C252.74 362.008 249.77 314.298 231.49 262.398C211.38 205.308 193.91 231.328 190.25 272.638Z" fill="#D3766A"/>
<path d="M190.25 272.638C182.06 365.098 194.86 438.748 233.68 444.058C259.46 447.578 263.07 381.648 263.01 379.978C262.8 374.258 249.77 314.298 231.49 262.398C211.38 205.308 193.91 231.328 190.25 272.638Z" fill="#34A1D3"/>
<path d="M233.73 268.978C239.38 286.388 244.52 303.978 249.51 321.578C254.26 339.248 259.33 356.898 262.31 374.968C255.54 343.968 242.16 300.068 233.73 268.968V268.978Z" fill="#263238"/>
<path d="M238.51 273.298C239.79 278.298 240.75 283.628 239.57 288.688C239.72 283.618 238.78 278.358 238.51 273.298Z" fill="#263238"/>
<path d="M194.34 252.008C193.89 252.658 193.48 253.318 193.08 254.008C193.287 253.081 193.507 252.171 193.74 251.278C194.627 250.049 195.669 248.94 196.84 247.978C200.32 245.148 205.59 242.918 210.04 244.708C215.59 246.928 215.4 253.288 214.13 258.138C213.28 261.398 211.99 264.718 212.13 268.138C212.216 270.689 213.125 273.145 214.72 275.138C216.382 277.168 218.486 278.791 220.87 279.885C223.255 280.978 225.858 281.513 228.48 281.448C231.559 281.366 234.519 280.245 236.88 278.268C236.99 278.578 237.09 278.888 237.19 279.208C230.58 284.308 220.42 282.848 214.73 276.578C211.24 272.718 210.73 268.068 211.87 263.138C213.17 257.678 217.13 247.918 209.24 245.428C203.77 243.678 197.33 247.678 194.34 252.008ZM203.72 288.738C204.11 286.068 203.72 283.178 201.53 281.388C199.641 280.035 197.301 279.465 195 279.798C193.071 279.997 191.199 280.571 189.49 281.488C189.49 281.838 189.43 282.188 189.41 282.538C190.055 282.176 190.723 281.859 191.41 281.588C194.04 280.528 197.41 280.098 200.02 281.468C203.65 283.378 203.19 287.838 202.24 291.208C199.91 299.388 193.65 305.368 188.01 311.628C188.01 312.078 188.01 312.528 188.01 312.968C190.88 309.678 193.93 306.548 196.65 303.128C200 298.938 202.93 294.148 203.72 288.738ZM233.51 338.508C239.72 327.718 241.21 311.248 228.65 304.268C226.189 302.849 223.371 302.169 220.534 302.309C217.697 302.449 214.96 303.403 212.65 305.058C207.65 308.598 204.58 314.318 202.23 319.838C199.61 326.008 197.23 332.838 192.13 337.408C190.953 338.486 189.6 339.356 188.13 339.978C188.13 340.338 188.13 340.688 188.18 341.038C193.63 339.138 197.26 333.178 199.59 328.298C202.45 322.298 204.37 315.888 208.44 310.568C212.51 305.248 218.76 301.688 225.53 303.998C232.78 306.468 236.93 313.628 237.2 320.998C237.7 334.468 228.2 345.618 218.52 353.748C209.65 361.178 199.69 367.298 191.32 375.328C191.39 375.798 191.46 376.268 191.54 376.728C196.878 371.676 202.559 366.998 208.54 362.728C217.92 355.898 227.63 348.718 233.51 338.508ZM255.94 388.008C258.94 382.258 261.21 375.898 261.17 369.368C261.17 368.858 261.17 368.368 261.12 367.858C260.959 365.125 260.28 362.448 259.12 359.968C257.715 356.895 255.481 354.273 252.67 352.398C250.396 350.835 247.71 349.979 244.95 349.938C242.19 349.898 239.48 350.673 237.16 352.168C232.35 355.248 229.24 360.698 228.05 366.168C226.32 374.118 227.76 382.278 227.92 390.298C228.199 405.666 224.062 420.791 216 433.878C215.78 434.238 215.55 434.588 215.32 434.948C215.59 435.208 215.87 435.458 216.15 435.708C218.567 431.999 220.646 428.08 222.36 423.998C225.287 417.209 227.275 410.053 228.27 402.728C229.32 395.008 228.83 387.438 228.42 379.728C228.03 372.308 228.27 364.538 232.6 358.198C236.41 352.618 243.07 349.198 249.68 351.978C256.29 354.758 260 361.798 260.14 368.798C260.54 383.268 250.14 395.418 243.01 407.068C239.61 412.608 236.56 418.468 235.13 424.848C233.79 430.899 234 437.19 235.74 443.138C235.84 443.498 235.96 443.858 236.07 444.218C236.41 444.218 236.75 444.218 237.07 444.148C234.84 437.325 234.669 429.997 236.58 423.078C240.26 410.038 249.83 399.798 255.94 388.008Z" fill="white"/>
<path d="M188.49 285.318C188.38 307.888 188.96 330.488 190.83 352.968C193.2 381.098 199.83 440.398 235.83 443.198C241.47 443.538 246.67 442.438 251.23 438.908C258.06 434.018 263.77 427.728 269.23 421.368C280.1 408.528 289.96 394.278 299.1 380.428L296.91 378.198L299.18 380.348C296.3 385.228 293.25 389.998 290.18 394.738C281.03 408.388 259.92 439.738 244.41 444.228C225.41 448.438 211.13 435.388 203.41 419.288C186.41 383.358 187.41 325.108 188.46 285.288L188.49 285.318Z" fill="#263238"/>
<path d="M186.63 290.908C187.11 295.188 187.81 299.318 188.27 303.598C186.721 299.559 186.159 295.208 186.63 290.908Z" fill="#263238"/>
<path d="M254.48 268.798C254.48 268.798 221.21 238.358 200.36 239.798L183.17 256.098C183.17 256.098 177.42 258.198 175.49 254.568C170.74 245.568 169.12 223.568 187.6 208.648C204.53 194.958 240.26 196.448 264.19 201.908C287.19 207.148 300.19 220.138 293.68 235.228C287.17 250.318 254.48 268.798 254.48 268.798Z" fill="#34A1D3"/>
<path opacity="0.1" d="M256.53 261.738C256.53 261.738 282.03 242.208 284.36 231.048C286.69 219.888 264.19 210.048 249.75 206.398C227.4 200.728 212.37 202.658 200.36 214.888C188.35 227.118 256.53 261.738 256.53 261.738Z" fill="black"/>
<path d="M260.21 258.018C248.29 259.518 230.21 239.608 223.9 224.358C223.47 223.358 226.1 213.068 228.71 200.468C230.26 192.818 231.81 184.268 232.66 176.358C232.83 174.728 280.97 193.728 280.97 193.728C280.97 193.728 274.32 209.788 272.92 223.588C272.825 224.679 272.825 225.777 272.92 226.868C272.92 227.018 272.92 227.208 272.92 227.418C273.27 233.688 271.73 256.558 260.21 258.018Z" fill="#D3766A"/>
<path d="M267.81 227.128C269.502 227.373 271.212 227.467 272.92 227.408C272.92 227.198 272.92 227.018 272.92 226.858C272.815 225.767 272.815 224.669 272.92 223.578C274.31 209.798 280.92 193.738 280.92 193.738C280.92 193.738 241.84 178.308 233.92 176.438C234.58 185.738 238.62 223.348 267.81 227.128Z" fill="#263238"/>
<path d="M216.88 136.548C215.63 154.998 236.3 202.658 251.14 210.908C272.65 222.908 302.14 217.638 310.8 193.108C319.23 169.318 291.19 107.688 275.15 100.788C251.54 90.6179 218.73 109.288 216.88 136.548Z" fill="#D3766A"/>
<path d="M272.48 156.448C272.4 156.338 272.29 156.708 272.35 156.838C273.83 160.018 274.99 163.898 272.54 166.208C272.46 166.288 272.54 166.438 272.64 166.378C276 164.358 274.39 159.218 272.48 156.448Z" fill="#263238"/>
<path d="M268.17 154.318C262.83 156.148 266.86 166.698 271.81 165.008C276.76 163.318 272.65 152.798 268.17 154.318Z" fill="#263238"/>
<path d="M292.36 148.348C292.36 148.208 292.67 148.348 292.72 148.538C293.86 151.848 295.72 155.438 299.11 155.398C299.21 155.398 299.26 155.558 299.11 155.588C295.35 156.458 292.91 151.658 292.36 148.348Z" fill="#263238"/>
<path d="M294 143.798C299.1 141.388 303.55 151.798 298.82 153.998C294.09 156.198 289.69 145.798 294 143.798Z" fill="#263238"/>
<path d="M263.63 154.738C265.087 154.221 266.516 153.627 267.91 152.958C269.55 152.258 270.91 151.868 271.91 150.308C272.148 149.838 272.223 149.302 272.123 148.784C272.024 148.266 271.755 147.797 271.36 147.448C269.59 146.038 267.36 146.398 265.36 147.168C263.317 147.857 261.606 149.283 260.56 151.168C259.47 153.148 261.63 155.358 263.63 154.738Z" fill="#263238"/>
<path d="M294.24 135.068C292.713 135.321 291.175 135.494 289.63 135.588C287.86 135.768 286.46 136.088 284.83 135.218C284.394 134.922 284.067 134.49 283.901 133.989C283.734 133.488 283.738 132.947 283.91 132.448C284.79 130.358 286.91 129.598 289.02 129.298C291.152 128.921 293.349 129.352 295.18 130.508C297.1 131.668 296.28 134.648 294.24 135.068Z" fill="#263238"/>
<path d="M280.9 186.798C281.97 187.268 283.16 188.018 284.38 187.668C285.587 187.178 286.678 186.438 287.58 185.498C287.597 185.475 287.622 185.459 287.649 185.452C287.677 185.446 287.707 185.45 287.732 185.463C287.757 185.476 287.777 185.498 287.788 185.525C287.798 185.551 287.799 185.581 287.79 185.608C287.567 186.429 287.128 187.176 286.517 187.769C285.907 188.362 285.148 188.779 284.32 188.978C282.74 189.278 281.52 188.278 280.64 187.068C280.52 186.878 280.74 186.708 280.9 186.798Z" fill="#263238"/>
<path d="M282.92 181.628C286.42 178.378 291.92 176.838 295.49 175.948C295.84 175.748 295.9 174.868 295.82 174.488L292.93 167.668C294.02 167.768 299.46 168.048 298.88 166.778C294.06 156.278 288.7 144.598 281.69 135.158C281.647 135.084 281.577 135.029 281.495 135.007C281.412 134.984 281.324 134.995 281.25 135.038C281.176 135.08 281.121 135.15 281.099 135.233C281.076 135.316 281.087 135.404 281.13 135.478C285.36 145.748 291.37 155.218 295.79 165.478C294.09 165.478 291.28 165.388 289.99 165.928C289.67 166.158 293.42 172.988 293.73 174.148C293.73 174.148 286.37 174.738 282.32 180.258C281.26 181.658 281.24 183.178 282.92 181.628Z" fill="#263238"/>
<path d="M227.51 181.798C235.57 181.058 237.88 167.858 238.02 162.598C238.16 157.338 230.78 137.768 231.74 129.598C232.7 121.428 240.27 116.068 246.94 115.598C253.61 115.128 264.36 120.038 268.63 117.958C272.9 115.878 270.33 105.878 273.41 104.708C280.19 102.138 289.41 116.108 293.47 123.078C293.47 123.078 284.72 89.078 248.74 99.078C215.93 108.078 214.02 133.908 214.89 144.508C216.54 164.718 227.51 181.798 227.51 181.798Z" fill="#263238"/>
<path d="M275.68 178.028C273.004 178.799 270.165 178.803 267.486 178.041C264.808 177.278 262.397 175.779 260.528 173.714C258.659 171.649 257.408 169.101 256.915 166.359C256.423 163.618 256.71 160.794 257.744 158.207C258.777 155.621 260.516 153.377 262.762 151.73C265.008 150.083 267.671 149.099 270.448 148.891C273.225 148.683 276.005 149.258 278.472 150.552C280.938 151.845 282.992 153.805 284.4 156.208C286.389 159.615 286.946 163.671 285.949 167.488C284.952 171.304 282.482 174.57 279.08 176.568C278.011 177.192 276.869 177.682 275.68 178.028ZM268 151.338C266.97 151.633 265.981 152.06 265.06 152.608C262.244 154.268 260.167 156.939 259.251 160.078C258.335 163.216 258.65 166.585 260.131 169.5C261.612 172.414 264.148 174.654 267.223 175.764C270.298 176.874 273.681 176.77 276.682 175.474C279.683 174.177 282.077 171.786 283.377 168.786C284.677 165.787 284.784 162.404 283.678 159.328C282.571 156.252 280.334 153.713 277.421 152.229C274.508 150.744 271.14 150.426 268 151.338Z" fill="#EBEBEB"/>
<path d="M307.09 164.638C301.62 166.218 295.09 162.048 292.09 154.888C290.592 151.492 290.196 147.711 290.96 144.078C291.244 142.518 291.9 141.05 292.871 139.796C293.842 138.543 295.1 137.542 296.54 136.878C299.34 135.698 302.54 136.088 305.59 137.938C308.716 139.937 311.139 142.864 312.52 146.308C315.69 153.878 313.69 161.958 308.06 164.308C307.745 164.441 307.421 164.551 307.09 164.638ZM298 138.468C297.756 138.538 297.515 138.621 297.28 138.718C296.131 139.262 295.13 140.075 294.362 141.088C293.594 142.101 293.083 143.285 292.87 144.538C292.2 147.758 292.55 151.106 293.87 154.118C296.63 160.668 302.61 164.438 307.24 162.488C311.87 160.538 313.38 153.638 310.63 147.078C309.415 144.021 307.276 141.419 304.51 139.638C303.566 139.001 302.499 138.568 301.378 138.366C300.257 138.165 299.107 138.2 298 138.468Z" fill="#EBEBEB"/>
<path d="M284.6 157.988L282.83 157.078C284.18 154.458 288.01 150.078 292.83 152.268L292.02 154.078C287.7 152.118 284.73 157.798 284.6 157.988Z" fill="#EBEBEB"/>
<path d="M225 187.178L223 187.018C223.07 186.098 223.83 177.918 227.65 175.538C231.22 173.318 256.77 165.298 257.85 164.958L258.45 166.858C251.12 169.148 231.45 175.498 228.7 177.218C226.16 178.798 225.14 184.938 225 187.178Z" fill="#EBEBEB"/>
<path d="M240.23 175.548C240.23 175.548 225 162.368 218.7 168.208C212.4 174.048 226.77 195.128 236.11 196.148C245.45 197.168 246.55 188.528 246.55 188.528L240.23 175.548Z" fill="#D3766A"/>
<path d="M223 174.148C222.968 174.148 222.938 174.161 222.915 174.183C222.893 174.206 222.88 174.236 222.88 174.268C222.88 174.3 222.893 174.33 222.915 174.353C222.938 174.375 222.968 174.388 223 174.388C229.6 175.298 234.16 180.048 237.82 185.238C235.48 183.478 232.75 182.878 230.32 185.748C230.2 185.898 230.41 186.108 230.57 186.028C232.88 184.878 234.76 184.858 236.91 186.398C238.385 187.582 239.726 188.923 240.91 190.398C241.33 190.858 242.22 190.328 241.86 189.768C241.839 189.721 241.812 189.677 241.78 189.638C240 182.008 231.34 172.798 223 174.148Z" fill="#263238"/>
<path d="M256.53 261.738C256.53 261.738 229.24 218.878 196.84 215.628L200.36 239.798C200.36 239.798 219.6 239.198 254.48 268.798L256.53 261.738Z" fill="#34A1D3"/>
<path d="M191.68 240.508C197.56 239.578 203.47 240.688 209.07 242.248C214.681 243.918 220.082 246.223 225.17 249.118C230.299 251.95 235.233 255.12 239.94 258.608L246.87 264.038L253.56 269.788L254.31 270.438L255.11 269.998C261.022 266.699 266.702 263.001 272.11 258.928C274.846 256.929 277.457 254.765 279.93 252.448C282.426 250.164 284.694 247.642 286.7 244.918C282.08 249.838 276.61 253.728 271.08 257.468C268.3 259.318 265.44 261.058 262.55 262.728C259.66 264.398 256.76 266.088 253.82 267.598L255.36 267.798L248.66 261.848C246.35 259.958 243.99 258.118 241.66 256.288C239.33 254.458 236.75 252.848 234.22 251.288C231.69 249.728 229.09 248.168 226.37 246.888C221.028 244.108 215.352 242.024 209.48 240.688C208.03 240.328 206.53 240.128 205.05 239.878C203.57 239.628 202.05 239.568 200.56 239.548C197.567 239.363 194.564 239.687 191.68 240.508Z" fill="#263238"/>
<path d="M183.17 256.098C186.369 253.76 189.406 251.207 192.26 248.458C195.156 245.753 197.862 242.853 200.36 239.778C197.155 242.11 194.115 244.659 191.26 247.408C188.373 250.121 185.67 253.024 183.17 256.098Z" fill="#263238"/>
<path d="M244.18 253.198C243.156 263.4 243.015 273.672 243.76 283.898C244.23 291.038 249.19 316.348 257.03 314.738C264.87 313.128 250.54 297.738 247.1 284.478C243.62 270.998 246.42 261.018 246.2 252.908L244.18 253.198Z" fill="#34A1D3"/>
<g opacity="0.1">
<path d="M244.18 253.198C243.156 263.4 243.015 273.672 243.76 283.898C244.23 291.038 249.19 316.348 257.03 314.738C264.87 313.128 250.54 297.738 247.1 284.478C243.62 270.998 246.42 261.018 246.2 252.908L244.18 253.198Z" fill="black"/>
</g>
<path d="M270.92 254.468C274.426 263.078 277.183 271.974 279.16 281.058C280.59 287.388 282.78 310.678 275.55 311.288C268.32 311.898 276.83 294.858 276.41 282.418C276 269.798 271 261.798 269.09 254.728L270.92 254.468Z" fill="#34A1D3"/>
<g opacity="0.1">
<path d="M270.92 254.468C274.426 263.078 277.183 271.974 279.16 281.058C280.59 287.388 282.78 310.678 275.55 311.288C268.32 311.898 276.83 294.858 276.41 282.418C276 269.798 271 261.798 269.09 254.728L270.92 254.468Z" fill="black"/>
</g>
<path d="M240.9 438.448C262.18 435.178 297.05 387.238 319.15 332.448C323.36 322.018 242.38 279.848 239.15 291.448C228.87 328.658 208.74 377.328 209.39 407.348C209.92 430.688 226.19 440.718 240.9 438.448Z" fill="#D3766A"/>
<path d="M278.78 251.958C273.62 245.638 272.83 227.958 268.2 217.538C263.57 207.118 250 202.228 247.61 206.058C245.22 209.888 248.76 213.748 249.87 230.868C250.58 241.868 242.15 263.868 245.75 283.868C247.56 293.898 284 258.278 278.78 251.958Z" fill="#F7A9A0"/>
<path d="M278.78 251.958C273.62 245.638 272.83 227.958 268.2 217.538C263.57 207.118 250 202.228 247.61 206.058C245.22 209.888 248.76 213.748 249.87 230.868C250.58 241.868 242.15 263.868 245.75 283.868C247.56 293.898 284 258.278 278.78 251.958Z" fill="#D3766A"/>
<path opacity="0.06" d="M278.78 251.958C273.62 245.638 272.83 227.958 268.2 217.538C263.57 207.118 250 202.228 247.61 206.058C245.22 209.888 248.76 213.748 249.87 230.868C250.58 241.868 242.15 263.868 245.75 283.868C247.56 293.898 284 258.278 278.78 251.958Z" fill="black"/>
<path d="M319 198.188C326.23 204.928 308.09 221.338 308.09 221.338C308.09 221.338 314.68 219.558 320.41 222.758C326.97 226.408 324.11 238.308 324.11 238.308C324.11 238.308 331.16 237.888 336.87 241.868C342.8 246.008 341.62 258.418 341.62 258.418C341.62 258.418 348.4 261.638 350.86 268.618C355.08 280.568 341.86 294.898 335.46 305.388C328.59 316.618 319.97 330.558 315.03 337.478L237.58 298.078C237.58 298.078 250.85 238.848 261.36 228.708C270.25 220.168 308 187.878 319 198.188Z" fill="#D3766A"/>
<path d="M307.78 221.288C296.18 228.108 286.24 237.688 276.78 247.038C276.736 247.082 276.712 247.141 276.712 247.203C276.712 247.265 276.736 247.324 276.78 247.368C276.824 247.412 276.883 247.436 276.945 247.436C277.007 247.436 277.066 247.412 277.11 247.368C286.44 237.958 298.51 230.818 308.19 221.798C308.258 221.744 308.301 221.665 308.311 221.578C308.32 221.492 308.295 221.406 308.24 221.338C308.186 221.27 308.107 221.227 308.021 221.218C307.934 221.208 307.848 221.234 307.78 221.288Z" fill="#263238"/>
<path d="M323.17 237.878C320.59 239.498 318.56 241.968 316.52 244.188C314.32 246.578 312.16 249.018 310.05 251.478C305.81 256.411 301.693 261.448 297.7 266.588C297.52 266.818 297.83 267.148 298.03 266.918C302.26 262.008 306.57 257.158 311.03 252.438C313.25 250.071 315.49 247.738 317.75 245.438C319.84 243.268 322.24 241.158 323.82 238.558C323.865 238.515 323.901 238.464 323.926 238.408C323.95 238.351 323.964 238.29 323.965 238.229C323.967 238.167 323.956 238.105 323.934 238.048C323.911 237.99 323.878 237.938 323.835 237.893C323.792 237.848 323.741 237.812 323.685 237.788C323.628 237.763 323.567 237.749 323.506 237.748C323.444 237.746 323.383 237.757 323.325 237.779C323.267 237.802 323.215 237.835 323.17 237.878Z" fill="#263238"/>
<path d="M341.47 258.618C339.17 259.938 337.47 262.618 335.78 264.618C333.9 266.911 332.004 269.191 330.09 271.458C326.27 275.988 322.45 280.518 318.47 284.918C318.27 285.138 318.6 285.468 318.8 285.248C322.86 280.798 326.98 276.408 331 271.918C333 269.718 334.964 267.505 336.89 265.278C338.55 263.388 340.84 261.218 341.7 258.808C341.71 258.777 341.711 258.744 341.702 258.713C341.693 258.682 341.675 258.655 341.65 258.634C341.625 258.614 341.595 258.601 341.563 258.598C341.531 258.595 341.498 258.602 341.47 258.618Z" fill="#263238"/>
<path d="M310.39 196.178C297.24 201.618 281.48 213.178 272.24 220.358C268.791 223.031 265.483 225.882 262.33 228.898C259.27 231.968 257.27 235.898 255.33 239.748C254 242.358 252.87 245.068 251.75 247.748C253.75 240.748 256.15 233.308 261.13 227.748C264.241 224.572 267.562 221.609 271.07 218.878C280.37 211.728 289.91 204.478 300.73 199.808L310.39 196.178Z" fill="#263238"/>
<path d="M222.49 313.058L299.14 380.388C299.14 380.388 259.06 445.168 240.37 443.898C221.68 442.628 201.37 430.528 202.9 385.598C203.27 374.348 222.49 313.058 222.49 313.058Z" fill="#34A1D3"/>
<path d="M208.64 362.798L207.64 363.518C207.78 362.978 207.93 362.438 208.07 361.888C211.62 359.258 215.17 356.618 218.55 353.778C227.08 346.638 235.43 337.158 236.98 325.778L237.74 326.448C237.043 330.67 235.597 334.734 233.47 338.448C227.63 348.718 217.92 355.898 208.64 362.798ZM252.69 352.408C250.415 350.845 247.729 349.99 244.97 349.949C242.21 349.908 239.5 350.683 237.18 352.178C232.37 355.258 229.26 360.708 228.07 366.178C226.34 374.128 227.78 382.288 227.94 390.308C228.211 405.524 224.15 420.503 216.23 433.498C216.5 433.778 216.78 434.048 217.06 434.308C219.084 431.005 220.859 427.555 222.37 423.988C225.297 417.199 227.285 410.043 228.28 402.718C229.33 394.998 228.84 387.428 228.43 379.718C228.04 372.298 228.28 364.528 232.61 358.188C236.42 352.608 243.08 349.188 249.69 351.968C256.3 354.748 260 361.798 260.14 368.798C260.54 383.268 250.14 395.418 243.01 407.068C239.61 412.608 236.56 418.468 235.13 424.848C233.79 430.899 234 437.19 235.74 443.138C235.762 443.223 235.789 443.306 235.82 443.388L236.89 443.558C234.836 436.9 234.732 429.793 236.59 423.078C240.26 410.078 249.83 399.868 255.94 388.078C259.13 381.888 261.56 374.988 261.12 367.928C261.024 364.861 260.212 361.859 258.748 359.163C257.284 356.466 255.21 354.149 252.69 352.398V352.408ZM275.15 405.078C269.75 405.608 265.01 409.078 263.85 414.528C263.03 418.428 263.99 422.428 265.66 426.098C265.89 425.828 266.14 425.558 266.38 425.288C263.81 419.188 263.38 411.408 269.9 407.648C271.61 406.696 273.504 406.121 275.455 405.962C277.406 405.803 279.369 406.065 281.21 406.728C281.41 406.458 281.6 406.188 281.81 405.918C279.681 405.142 277.406 404.851 275.15 405.068V405.078ZM298.31 379.668C295.915 380.263 293.415 380.307 291 379.798C281.56 377.798 274.44 368.518 275.23 359.378L274.23 358.468C272.68 368.918 281.4 379.368 291.68 380.968C294.159 381.329 296.687 381.148 299.09 380.438L299.14 380.348L298.31 379.668Z" fill="white"/>
<path d="M221.64 340.908C225.39 344.038 228.89 347.498 232.45 350.838C236.01 354.178 239.55 357.568 243.04 360.998C250.013 367.858 256.93 374.768 263.79 381.728C265.66 383.638 267.53 385.548 269.37 387.498C271.21 389.448 273.04 391.908 275.03 393.958C275.054 393.992 275.064 394.034 275.06 394.076C275.056 394.118 275.038 394.157 275.008 394.186C274.979 394.216 274.94 394.234 274.898 394.238C274.856 394.242 274.815 394.231 274.78 394.208C273.04 392.558 271.06 391.148 269.28 389.528C267.5 387.908 265.63 386.128 263.83 384.398C260.31 381.005 256.803 377.598 253.31 374.178C246.31 367.338 239.38 360.448 232.63 353.388C228.82 349.388 224.85 345.468 221.28 341.258C221.234 341.21 221.208 341.146 221.209 341.079C221.21 341.013 221.237 340.949 221.285 340.903C221.333 340.856 221.397 340.831 221.464 340.832C221.53 340.833 221.594 340.86 221.64 340.908Z" fill="#263238"/>
<path d="M231.17 320.688L222.31 313.268L222.74 313.148C218.53 329.028 213.88 344.788 209.52 360.618C207.506 367.463 205.838 374.405 204.52 381.418C203.378 390.547 203.351 399.782 204.44 408.918C202.237 399.843 201.528 390.471 202.34 381.168C204.51 365.818 209.43 351.008 214.01 336.258C216.62 328.308 219.38 320.418 222.37 312.598L222.66 312.858L231.16 320.688H231.17Z" fill="#263238"/>
<path d="M450.93 343.098C437.81 360.858 424.14 381.468 420.81 403.738C420.81 404.068 421.31 404.178 421.39 403.848C422.899 397.775 424.837 391.816 427.19 386.018C435.81 383.648 444.27 381.698 448.8 373.138C453.42 364.338 452.8 352.878 451.95 343.288C451.89 342.798 451.19 342.798 450.93 343.098Z" fill="#34A1D3"/>
<path d="M427.32 385.848C433.21 372.628 440.77 359.358 450.38 348.488C450.393 348.473 450.412 348.464 450.431 348.463C450.451 348.463 450.47 348.469 450.485 348.483C450.5 348.496 450.508 348.514 450.509 348.534C450.51 348.554 450.503 348.573 450.49 348.588C444.2 356.338 439.41 364.768 434.74 373.348C439.09 368.938 443.84 364.988 447.96 360.348C448.04 360.248 448.17 360.348 448.09 360.478C444 365.378 439.54 370.698 434.23 374.328C432.803 376.954 431.36 379.591 429.9 382.238C430.26 382.038 430.63 381.858 430.99 381.678C431.06 381.678 431.11 381.748 431.05 381.778C430.64 381.988 430.24 382.198 429.82 382.378C429.13 383.628 428.45 384.878 427.74 386.128C427.58 386.368 427.19 386.128 427.32 385.848Z" fill="#263238"/>
<path d="M431.7 381.238C435.224 379.26 438.591 377.013 441.77 374.518C441.85 374.448 441.98 374.518 441.89 374.638C438.827 377.293 435.472 379.591 431.89 381.488C431.68 381.568 431.54 381.328 431.7 381.238Z" fill="#263238"/>
<path d="M419.29 400.428C419.29 400.698 419.78 400.688 419.77 400.428C419.84 393.098 419.77 385.728 419.89 378.358C421.77 374.568 425.8 372.468 428.61 369.438C430.625 367.215 432.38 364.769 433.84 362.148C437.216 355.887 439.282 349.003 439.91 341.918C440.68 334.078 437.7 308.188 434.4 309.088C432.68 309.548 427.13 322.378 425.66 326.608C423.273 333.602 421.526 340.798 420.44 348.108C417.76 365.338 418 383.058 419.29 400.428Z" fill="#34A1D3"/>
<path d="M419.24 368.798C419.64 359.518 421.73 350.148 423.68 341.148C425.79 331.448 428.26 322.318 433.25 313.668C433.34 313.508 433.58 313.668 433.49 313.818C430.164 320.545 427.589 327.617 425.81 334.908C426.15 334.378 426.55 333.908 426.9 333.388C427.04 333.198 427.36 333.388 427.22 333.578C426.776 334.362 426.253 335.1 425.66 335.778C425.64 335.785 425.619 335.785 425.6 335.778C423.88 342.708 422.65 349.778 421.6 356.868L421.84 356.598C421.89 356.538 421.98 356.598 421.95 356.678C421.82 356.918 421.67 357.148 421.53 357.388C420.99 360.978 420.53 364.558 420.01 368.108C426.4 362.648 431.85 356.208 434.93 348.268C434.93 348.268 435.01 348.268 434.99 348.268C431.99 356.498 427.22 363.808 419.9 368.808C419.77 369.808 419.64 370.718 419.5 371.668C419.5 371.868 419.16 371.818 419.16 371.668C419.16 370.818 419.16 369.968 419.24 369.128C419.211 369.111 419.187 369.087 419.17 369.058C419.153 369.029 419.144 368.996 419.144 368.963C419.144 368.929 419.153 368.896 419.17 368.867C419.187 368.838 419.211 368.814 419.24 368.798Z" fill="#263238"/>
<path d="M422.25 355.338C427.14 348.048 431.7 340.968 435.25 332.918C435.25 332.828 435.45 332.918 435.41 332.978C432.41 340.978 428.18 349.098 422.48 355.528C422.38 355.658 422.15 355.488 422.25 355.338Z" fill="#263238"/>
<path d="M428.74 331.118C430.74 327.538 432.9 324.048 434.8 320.398C434.86 320.298 435 320.398 434.95 320.488C433.394 324.298 431.418 327.924 429.06 331.298C428.92 331.478 428.63 331.318 428.74 331.118Z" fill="#263238"/>
<path d="M428 332.668V332.738C428 332.738 427.91 332.668 428 332.668Z" fill="#263238"/>
<path d="M414.33 379.218C414.233 384.079 413.66 388.918 412.62 393.668C412.69 394.188 412.77 394.668 412.84 395.248C414.343 390 415.213 384.592 415.43 379.138C415.475 379.062 415.499 378.976 415.499 378.888C415.499 378.8 415.475 378.713 415.43 378.638C415.648 371.322 415.112 364.003 413.83 356.798C411.56 343.328 406.6 330.388 397.2 320.288C397.123 320.23 397.034 320.189 396.939 320.168C396.845 320.147 396.747 320.146 396.653 320.166C396.558 320.186 396.469 320.226 396.391 320.283C396.313 320.34 396.248 320.413 396.2 320.498C392.41 330.148 393.73 341.658 396.96 351.278C398.718 356.487 401.232 361.409 404.42 365.888C407.6 370.428 411.71 374.258 414.33 379.218Z" fill="#34A1D3"/>
<path d="M398.31 324.798C407.22 339.258 413.42 356.398 414.17 373.478C414.17 373.778 413.68 373.858 413.64 373.548C413.43 372.018 413.19 370.498 412.95 368.988C409.26 365.458 405.48 361.738 402.84 357.318C402.84 357.248 402.91 357.148 402.97 357.228C406.032 360.976 409.311 364.542 412.79 367.908C412.124 364.134 411.36 360.418 410.5 356.758C410.26 356.478 410.03 356.198 409.79 355.928C409.55 355.658 409.9 355.478 410.06 355.668L410.27 355.898C409.018 350.878 407.462 345.939 405.61 341.108C403.35 338.408 400.81 336.108 399.16 332.808C399.153 332.792 399.153 332.774 399.158 332.758C399.163 332.742 399.175 332.728 399.189 332.72C399.204 332.711 399.221 332.708 399.238 332.712C399.255 332.715 399.27 332.724 399.28 332.738C400.61 334.608 401.89 336.478 403.4 338.208C404 338.898 404.66 339.538 405.28 340.208C403.231 334.965 400.798 329.882 398 324.998C397.993 324.959 397.998 324.919 398.014 324.883C398.029 324.847 398.056 324.816 398.089 324.795C398.122 324.773 398.16 324.762 398.2 324.763C398.239 324.763 398.278 324.775 398.31 324.798Z" fill="#263238"/>
<path d="M400.11 342.638C402.99 346.508 406.27 350.208 408.95 354.218C409.03 354.328 408.86 354.448 408.76 354.358C405.32 351.128 402.41 346.728 399.92 342.748C399.84 342.628 400 342.518 400.11 342.638Z" fill="#263238"/>
<path d="M409.35 355.108L409.47 355.238C409.56 355.318 409.47 355.448 409.34 355.368L409.22 355.248C409.13 355.158 409.27 355.028 409.35 355.108Z" fill="#263238"/>
<path d="M384.35 352.598C385.07 360.038 388.98 368.918 393.75 374.648C395.849 377.143 398.448 379.17 401.38 380.598C404.68 382.238 408.14 384.118 411.55 385.458C413.177 389.589 414.383 393.874 415.15 398.248L415.48 397.118C413.29 378.288 401.1 362.188 385.48 351.858C385.359 351.785 385.22 351.748 385.079 351.751C384.938 351.754 384.801 351.796 384.683 351.873C384.565 351.951 384.471 352.06 384.412 352.188C384.353 352.316 384.332 352.458 384.35 352.598Z" fill="#34A1D3"/>
<path d="M389.74 358.158C389.63 358.058 389.74 357.868 389.9 357.958C398.467 364.325 405.296 372.743 409.76 382.438C409.87 382.688 409.52 382.918 409.37 382.658C408.65 381.388 407.91 380.158 407.16 378.938C403.6 378.268 400.23 375.758 397.59 373.378C397.52 373.318 397.59 373.218 397.69 373.278C399.054 374.518 400.569 375.58 402.2 376.438C403.65 377.178 405.2 377.638 406.72 378.228C405.387 376.141 404.01 374.141 402.59 372.228C398.749 370.77 395.146 368.748 391.9 366.228C391.887 366.223 391.874 366.215 391.864 366.204C391.854 366.194 391.846 366.181 391.842 366.168C391.837 366.154 391.835 366.139 391.836 366.125C391.838 366.11 391.842 366.096 391.85 366.084C391.857 366.071 391.867 366.06 391.879 366.052C391.891 366.044 391.905 366.038 391.919 366.036C391.933 366.033 391.948 366.034 391.962 366.038C391.976 366.042 391.989 366.049 392 366.058C395.215 368.006 398.534 369.778 401.94 371.368C399.769 368.506 397.432 365.775 394.94 363.188C393.73 362.548 392.5 361.908 391.33 361.188C391.311 361.175 391.296 361.155 391.29 361.133C391.283 361.11 391.285 361.086 391.295 361.064C391.304 361.043 391.321 361.025 391.342 361.015C391.363 361.005 391.387 361.002 391.41 361.008C392.384 361.351 393.313 361.807 394.18 362.368C392.74 360.938 391.29 359.528 389.74 358.158Z" fill="#263238"/>
<path d="M390.07 364.658C390.28 364.786 390.481 364.93 390.67 365.088C390.73 365.088 390.67 365.218 390.59 365.188C390.385 365.071 390.188 364.94 390 364.798C389.86 364.798 390 364.588 390.07 364.658Z" fill="#263238"/>
<path d="M439.81 439.038H397.09L400.54 400.138L401.3 391.558H435.61L436.36 400.138L439.81 439.038Z" fill="#455A64"/>
<path d="M436.36 400.138H400.54L401.3 391.558H435.61L436.36 400.138Z" fill="#263238"/>
<path d="M437.65 385.558H399.26V394.048H437.65V385.558Z" fill="#455A64"/>
<path d="M355.93 134.478C356.106 136.542 355.666 138.613 354.666 140.427C353.666 142.242 352.15 143.719 350.31 144.673C348.471 145.626 346.39 146.013 344.331 145.784C342.271 145.556 340.326 144.721 338.741 143.387C337.155 142.053 336.001 140.279 335.423 138.29C334.846 136.3 334.871 134.183 335.496 132.208C336.121 130.232 337.317 128.486 338.934 127.19C340.551 125.895 342.516 125.107 344.58 124.928C345.952 124.808 347.335 124.961 348.649 125.376C349.962 125.792 351.181 126.462 352.235 127.349C353.289 128.236 354.158 129.323 354.792 130.546C355.426 131.769 355.813 133.105 355.93 134.478Z" fill="white"/>
<path d="M355.93 134.478C356.83 143.798 345.74 149.698 338.46 143.728C337.357 142.81 336.446 141.683 335.782 140.412C335.117 139.14 334.711 137.75 334.587 136.32C334.464 134.891 334.625 133.451 335.061 132.084C335.498 130.718 336.201 129.451 337.13 128.358C343.27 121.218 355.22 125.128 355.93 134.478ZM355.93 134.478C355.12 125.348 343.52 121.808 337.79 128.908C336.122 130.968 335.316 133.595 335.542 136.236C335.767 138.878 337.007 141.33 339 143.078C345.86 149.078 356.69 143.598 355.92 134.478H355.93Z" fill="#263238"/>
<path d="M328.15 145.358C328.248 146.507 328.004 147.659 327.448 148.669C326.892 149.679 326.049 150.501 325.025 151.032C324.002 151.563 322.844 151.778 321.698 151.651C320.552 151.523 319.47 151.059 318.587 150.317C317.705 149.575 317.063 148.587 316.742 147.48C316.421 146.373 316.435 145.195 316.783 144.096C317.131 142.997 317.798 142.026 318.698 141.305C319.598 140.585 320.691 140.147 321.84 140.048C323.38 139.918 324.91 140.403 326.092 141.399C327.275 142.394 328.015 143.818 328.15 145.358Z" fill="white"/>
<path d="M328.15 145.358C328.232 146.363 328.064 147.372 327.66 148.296C327.256 149.22 326.629 150.029 325.836 150.651C325.042 151.272 324.107 151.687 323.113 151.858C322.119 152.029 321.099 151.951 320.143 151.63C319.187 151.309 318.326 150.756 317.637 150.021C316.947 149.285 316.451 148.39 316.193 147.415C315.935 146.44 315.923 145.417 316.158 144.437C316.393 143.456 316.868 142.549 317.54 141.798C318.336 140.92 319.37 140.292 320.516 139.991C321.662 139.691 322.871 139.73 323.996 140.104C325.12 140.478 326.111 141.171 326.849 142.098C327.587 143.026 328.039 144.148 328.15 145.328V145.358ZM328.15 145.358C327.27 137.988 316.61 138.968 317.03 146.358C317.88 153.678 328.55 152.808 328.15 145.358Z" fill="#263238"/>
<path d="M447.48 89.5277C448.125 94.853 447.36 100.254 445.261 105.191C443.163 110.128 439.804 114.426 435.522 117.657C431.239 120.887 426.183 122.936 420.86 123.598C415.537 124.259 410.133 123.511 405.19 121.428C402.787 124.567 399.691 127.109 396.144 128.855C392.598 130.602 388.696 131.506 384.742 131.497C380.789 131.489 376.891 130.567 373.352 128.805C369.813 127.043 366.729 124.487 364.34 121.338C363.22 121.68 362.072 121.921 360.91 122.058C356.913 122.544 352.86 121.862 349.242 120.093C345.625 118.325 342.598 115.545 340.527 112.092C338.456 108.638 337.431 104.659 337.575 100.634C337.72 96.6102 339.027 92.7142 341.34 89.4177C336.819 83.6795 334.5 76.5137 334.8 69.2149C335.101 61.9161 338.002 54.9654 342.98 49.6185C347.957 44.2717 354.682 40.8811 361.941 40.0594C369.2 39.2376 376.513 41.0389 382.56 45.1377C385.393 41.5958 389.113 38.8674 393.343 37.23C397.573 35.5927 402.161 35.1048 406.64 35.816C411.12 36.5272 415.331 38.4121 418.846 41.279C422.36 44.1459 425.053 47.8925 426.65 52.1377C427.717 51.7741 428.82 51.5227 429.94 51.3877C433.346 50.9709 436.798 51.6073 439.832 53.2111C442.866 54.8149 445.336 57.3093 446.909 60.3588C448.483 63.4083 449.085 66.8666 448.635 70.2685C448.184 73.6705 446.703 76.8529 444.39 79.3877C446.013 82.5575 447.06 85.9911 447.48 89.5277Z" fill="white"/>
<path d="M447.48 89.5278C448.128 94.8656 447.364 100.28 445.265 105.23C443.166 110.181 439.806 114.494 435.519 117.74C431.232 120.985 426.169 123.049 420.834 123.726C415.5 124.404 410.082 123.67 405.12 121.598L405.33 121.538C402.91 124.711 399.791 127.284 396.214 129.054C392.638 130.825 388.701 131.746 384.71 131.746C380.719 131.746 376.782 130.825 373.206 129.054C369.629 127.284 366.51 124.711 364.09 121.538L364.43 121.648C362.869 122.128 361.252 122.407 359.62 122.478C342 123.568 330.87 103.628 341 89.1578V89.6978C325.9 70.7678 337.87 42.3378 361.91 39.6978C369.249 38.8773 376.64 40.7151 382.74 44.8778L382.33 44.9478C394.82 29.3578 419.81 33.3678 426.8 52.0778L426.61 51.9878C427.93 51.5356 429.307 51.2697 430.7 51.1978C434.07 50.9477 437.437 51.7148 440.366 53.3997C443.296 55.0847 445.651 57.6099 447.129 60.6488C448.607 63.6876 449.139 67.1 448.656 70.4445C448.173 73.7889 446.697 76.9114 444.42 79.4078C446.054 82.565 447.094 85.9951 447.49 89.5278H447.48ZM447.48 89.5278C447.05 85.9863 445.993 82.5495 444.36 79.3778C446.825 76.6271 448.31 73.1376 448.583 69.454C448.855 65.7705 447.901 62.1003 445.868 59.0165C443.835 55.9327 440.838 53.609 437.345 52.408C433.852 51.207 430.06 51.1964 426.56 52.3778C419.69 33.9478 395.04 29.9278 382.79 45.3778L382.62 45.5978L382.38 45.4378C376.401 41.3757 369.16 39.6009 361.98 40.4378C338.62 43.1378 327.21 70.6878 341.7 89.1478L341.91 89.4178L341.72 89.6878C331.92 103.578 342.6 122.808 359.58 121.838C361.237 121.769 362.878 121.484 364.46 120.988C366.805 124.146 369.851 126.717 373.358 128.499C376.865 130.281 380.737 131.226 384.67 131.259C388.604 131.292 392.491 130.412 396.028 128.689C399.564 126.966 402.652 124.446 405.05 121.328L405.14 121.218L405.26 121.278C410.186 123.354 415.57 124.102 420.875 123.447C426.181 122.792 431.221 120.757 435.494 117.545C439.767 114.332 443.122 110.056 445.226 105.141C447.329 100.227 448.106 94.8466 447.48 89.5378V89.5278Z" fill="#263238"/>
<path d="M395.25 87.8479L395 92.0779C394.988 92.4994 394.89 92.9139 394.712 93.2962C394.535 93.6786 394.281 94.0206 393.966 94.3014C393.652 94.5822 393.283 94.7959 392.883 94.9294C392.483 95.0629 392.06 95.1135 391.64 95.0779C390.797 95.0289 390.008 94.6477 389.446 94.0179C388.883 93.3881 388.594 92.561 388.64 91.7179L389.02 84.9579C389.02 84.8879 389.09 84.8979 389.1 84.8279C389.11 84.7579 389 84.7979 389 84.6979C389.069 83.8625 389.456 83.0854 390.081 82.5272C390.707 81.9689 391.522 81.672 392.36 81.6979C393.334 81.7829 394.315 81.6715 395.245 81.3701C396.175 81.0688 397.035 80.5837 397.774 79.9437C398.513 79.3037 399.116 78.5218 399.547 77.6444C399.978 76.7669 400.228 75.8118 400.283 74.8358C400.338 73.8597 400.197 72.8826 399.867 71.9623C399.537 71.0421 399.026 70.1974 398.363 69.4786C397.701 68.7597 396.9 68.1812 396.01 67.7774C395.12 67.3736 394.157 67.1528 393.18 67.1279C391.918 67.0533 390.658 67.3125 389.527 67.8795C388.397 68.4465 387.435 69.3014 386.74 70.3579C386.52 70.7306 386.227 71.0548 385.878 71.3109C385.53 71.567 385.133 71.7497 384.711 71.848C384.29 71.9463 383.853 71.9582 383.427 71.8828C383.001 71.8074 382.594 71.6465 382.232 71.4096C381.87 71.1727 381.56 70.8649 381.32 70.5046C381.081 70.1444 380.916 69.7394 380.838 69.3139C380.759 68.8884 380.767 68.4514 380.862 68.0293C380.957 67.6072 381.137 67.2087 381.39 66.8579C382.636 64.9623 384.333 63.4059 386.329 62.3287C388.326 61.2514 390.558 60.687 392.826 60.6863C395.095 60.6855 397.328 61.2484 399.325 62.3244C401.321 63.4003 403.02 64.9556 404.267 66.8504C405.514 68.7452 406.27 70.9202 406.469 73.1799C406.667 75.4395 406.3 77.713 405.402 79.796C404.504 81.879 403.103 83.7062 401.324 85.1134C399.545 86.5206 397.444 87.4637 395.21 87.8579L395.25 87.8479ZM394.45 102.088L394.38 103.258C394.367 103.679 394.268 104.093 394.089 104.474C393.911 104.856 393.657 105.197 393.343 105.478C393.029 105.759 392.661 105.972 392.262 106.106C391.862 106.24 391.44 106.292 391.02 106.258C390.177 106.204 389.39 105.82 388.828 105.189C388.267 104.558 387.976 103.731 388.02 102.888L388.09 101.718C388.149 100.879 388.533 100.096 389.161 99.5356C389.788 98.9754 390.61 98.682 391.45 98.7179C391.87 98.7369 392.282 98.8398 392.662 99.0205C393.042 99.2013 393.381 99.4562 393.661 99.7703C393.94 100.084 394.154 100.451 394.29 100.849C394.425 101.247 394.48 101.668 394.45 102.088Z" fill="#34A1D3"/>
<path d="M66.504 39.1619L63.21 51.7979H59.484L57.468 43.4819L55.38 51.7979H51.654L48.45 39.1619H51.744L53.562 48.3599L55.812 39.1619H59.196L61.356 48.3599L63.192 39.1619H66.504ZM74.2216 41.6459C75.3736 41.6459 76.2976 42.0299 76.9936 42.7979C77.6896 43.5539 78.0376 44.5979 78.0376 45.9299V51.7979H74.9776V46.3439C74.9776 45.6719 74.8036 45.1499 74.4556 44.7779C74.1076 44.4059 73.6396 44.2199 73.0516 44.2199C72.4636 44.2199 71.9956 44.4059 71.6476 44.7779C71.2996 45.1499 71.1256 45.6719 71.1256 46.3439V51.7979H68.0476V38.4779H71.1256V43.1039C71.4376 42.6599 71.8636 42.3059 72.4036 42.0419C72.9436 41.7779 73.5496 41.6459 74.2216 41.6459ZM90.4365 41.7539L84.1365 56.5679H80.8245L83.1285 51.4559L79.0425 41.7539H82.4805L84.8025 48.0359L87.1065 41.7539H90.4365ZM94.842 45.4619C94.842 44.2139 95.112 43.1039 95.652 42.1319C96.192 41.1479 96.942 40.3859 97.902 39.8459C98.874 39.2939 99.972 39.0179 101.196 39.0179C102.696 39.0179 103.98 39.4139 105.048 40.2059C106.116 40.9979 106.83 42.0779 107.19 43.4459H103.806C103.554 42.9179 103.194 42.5159 102.726 42.2399C102.27 41.9639 101.748 41.8259 101.16 41.8259C100.212 41.8259 99.444 42.1559 98.856 42.8159C98.268 43.4759 97.974 44.3579 97.974 45.4619C97.974 46.5659 98.268 47.4479 98.856 48.1079C99.444 48.7679 100.212 49.0979 101.16 49.0979C101.748 49.0979 102.27 48.9599 102.726 48.6839C103.194 48.4079 103.554 48.0059 103.806 47.4779H107.19C106.83 48.8459 106.116 49.9259 105.048 50.7179C103.98 51.4979 102.696 51.8879 101.196 51.8879C99.972 51.8879 98.874 51.6179 97.902 51.0779C96.942 50.5259 96.192 49.7639 95.652 48.7919C95.112 47.8199 94.842 46.7099 94.842 45.4619ZM115.249 41.6459C116.401 41.6459 117.325 42.0299 118.021 42.7979C118.717 43.5539 119.065 44.5979 119.065 45.9299V51.7979H116.005V46.3439C116.005 45.6719 115.831 45.1499 115.483 44.7779C115.135 44.4059 114.667 44.2199 114.079 44.2199C113.491 44.2199 113.023 44.4059 112.675 44.7779C112.327 45.1499 112.153 45.6719 112.153 46.3439V51.7979H109.075V38.4779H112.153V43.1039C112.465 42.6599 112.891 42.3059 113.431 42.0419C113.971 41.7779 114.577 41.6459 115.249 41.6459ZM125.776 51.9419C124.792 51.9419 123.904 51.7319 123.112 51.3119C122.332 50.8919 121.714 50.2919 121.258 49.5119C120.814 48.7319 120.592 47.8199 120.592 46.7759C120.592 45.7439 120.82 44.8379 121.276 44.0579C121.732 43.2659 122.356 42.6599 123.148 42.2399C123.94 41.8199 124.828 41.6099 125.812 41.6099C126.796 41.6099 127.684 41.8199 128.476 42.2399C129.268 42.6599 129.892 43.2659 130.348 44.0579C130.804 44.8379 131.032 45.7439 131.032 46.7759C131.032 47.8079 130.798 48.7199 130.33 49.5119C129.874 50.2919 129.244 50.8919 128.44 51.3119C127.648 51.7319 126.76 51.9419 125.776 51.9419ZM125.776 49.2779C126.364 49.2779 126.862 49.0619 127.27 48.6299C127.69 48.1979 127.9 47.5799 127.9 46.7759C127.9 45.9719 127.696 45.3539 127.288 44.9219C126.892 44.4899 126.4 44.2739 125.812 44.2739C125.212 44.2739 124.714 44.4899 124.318 44.9219C123.922 45.3419 123.724 45.9599 123.724 46.7759C123.724 47.5799 123.916 48.1979 124.3 48.6299C124.696 49.0619 125.188 49.2779 125.776 49.2779ZM137.237 51.9419C136.253 51.9419 135.365 51.7319 134.573 51.3119C133.793 50.8919 133.175 50.2919 132.719 49.5119C132.275 48.7319 132.053 47.8199 132.053 46.7759C132.053 45.7439 132.281 44.8379 132.737 44.0579C133.193 43.2659 133.817 42.6599 134.609 42.2399C135.401 41.8199 136.289 41.6099 137.273 41.6099C138.257 41.6099 139.145 41.8199 139.937 42.2399C140.729 42.6599 141.353 43.2659 141.809 44.0579C142.265 44.8379 142.493 45.7439 142.493 46.7759C142.493 47.8079 142.259 48.7199 141.791 49.5119C141.335 50.2919 140.705 50.8919 139.901 51.3119C139.109 51.7319 138.221 51.9419 137.237 51.9419ZM137.237 49.2779C137.825 49.2779 138.323 49.0619 138.731 48.6299C139.151 48.1979 139.361 47.5799 139.361 46.7759C139.361 45.9719 139.157 45.3539 138.749 44.9219C138.353 44.4899 137.861 44.2739 137.273 44.2739C136.673 44.2739 136.175 44.4899 135.779 44.9219C135.383 45.3419 135.185 45.9599 135.185 46.7759C135.185 47.5799 135.377 48.1979 135.761 48.6299C136.157 49.0619 136.649 49.2779 137.237 49.2779ZM148.212 51.9419C147.336 51.9419 146.556 51.7919 145.872 51.4919C145.188 51.1919 144.648 50.7839 144.252 50.2679C143.856 49.7399 143.634 49.1519 143.586 48.5039H146.628C146.664 48.8519 146.826 49.1339 147.114 49.3499C147.402 49.5659 147.756 49.6739 148.176 49.6739C148.56 49.6739 148.854 49.6019 149.058 49.4579C149.274 49.3019 149.382 49.1039 149.382 48.8639C149.382 48.5759 149.232 48.3659 148.932 48.2339C148.632 48.0899 148.146 47.9339 147.474 47.7659C146.754 47.5979 146.154 47.4239 145.674 47.2439C145.194 47.0519 144.78 46.7579 144.432 46.3619C144.084 45.9539 143.91 45.4079 143.91 44.7239C143.91 44.1479 144.066 43.6259 144.378 43.1579C144.702 42.6779 145.17 42.2999 145.782 42.0239C146.406 41.7479 147.144 41.6099 147.996 41.6099C149.256 41.6099 150.246 41.9219 150.966 42.5459C151.698 43.1699 152.118 43.9979 152.226 45.0299H149.382C149.334 44.6819 149.178 44.4059 148.914 44.2019C148.662 43.9979 148.326 43.8959 147.906 43.8959C147.546 43.8959 147.27 43.9679 147.078 44.1119C146.886 44.2439 146.79 44.4299 146.79 44.6699C146.79 44.9579 146.94 45.1739 147.24 45.3179C147.552 45.4619 148.032 45.6059 148.68 45.7499C149.424 45.9419 150.03 46.1339 150.498 46.3259C150.966 46.5059 151.374 46.8059 151.722 47.2259C152.082 47.6339 152.268 48.1859 152.28 48.8819C152.28 49.4699 152.112 49.9979 151.776 50.4659C151.452 50.9219 150.978 51.2819 150.354 51.5459C149.742 51.8099 149.028 51.9419 148.212 51.9419ZM163.631 46.6139C163.631 46.9019 163.613 47.2019 163.577 47.5139H156.611C156.659 48.1379 156.857 48.6179 157.205 48.9539C157.565 49.2779 158.003 49.4399 158.519 49.4399C159.287 49.4399 159.821 49.1159 160.121 48.4679H163.397C163.229 49.1279 162.923 49.7219 162.479 50.2499C162.047 50.7779 161.501 51.1919 160.841 51.4919C160.181 51.7919 159.443 51.9419 158.627 51.9419C157.643 51.9419 156.767 51.7319 155.999 51.3119C155.231 50.8919 154.631 50.2919 154.199 49.5119C153.767 48.7319 153.551 47.8199 153.551 46.7759C153.551 45.7319 153.761 44.8199 154.181 44.0399C154.613 43.2599 155.213 42.6599 155.981 42.2399C156.749 41.8199 157.631 41.6099 158.627 41.6099C159.599 41.6099 160.463 41.8139 161.219 42.2219C161.975 42.6299 162.563 43.2119 162.983 43.9679C163.415 44.7239 163.631 45.6059 163.631 46.6139ZM160.481 45.8039C160.481 45.2759 160.301 44.8559 159.941 44.5439C159.581 44.2319 159.131 44.0759 158.591 44.0759C158.075 44.0759 157.637 44.2259 157.277 44.5259C156.929 44.8259 156.713 45.2519 156.629 45.8039H160.481ZM63.426 61.1619V73.7979H60.348V66.2199L57.522 73.7979H55.038L52.194 66.2019V73.7979H49.116V61.1619H52.752L56.298 69.9099L59.808 61.1619H63.426ZM75.5574 63.7539V73.7979H72.4794V72.4299C72.1674 72.8739 71.7414 73.2339 71.2014 73.5099C70.6734 73.7739 70.0854 73.9059 69.4374 73.9059C68.6694 73.9059 67.9914 73.7379 67.4034 73.4019C66.8154 73.0539 66.3594 72.5559 66.0354 71.9079C65.7114 71.2599 65.5494 70.4979 65.5494 69.6219V63.7539H68.6094V69.2079C68.6094 69.8799 68.7834 70.4019 69.1314 70.7739C69.4794 71.1459 69.9474 71.3319 70.5354 71.3319C71.1354 71.3319 71.6094 71.1459 71.9574 70.7739C72.3054 70.4019 72.4794 69.8799 72.4794 69.2079V63.7539H75.5574ZM80.8463 60.4779V73.7979H77.7683V60.4779H80.8463ZM88.6749 71.1879V73.7979H87.1089C85.9929 73.7979 85.1229 73.5279 84.4989 72.9879C83.8749 72.4359 83.5629 71.5419 83.5629 70.3059V66.3099H82.3389V63.7539H83.5629V61.3059H86.6409V63.7539H88.6569V66.3099H86.6409V70.3419C86.6409 70.6419 86.7129 70.8579 86.8569 70.9899C87.0009 71.1219 87.2409 71.1879 87.5769 71.1879H88.6749ZM91.9374 62.7099C91.3974 62.7099 90.9534 62.5539 90.6054 62.2419C90.2694 61.9179 90.1014 61.5219 90.1014 61.0539C90.1014 60.5739 90.2694 60.1779 90.6054 59.8659C90.9534 59.5419 91.3974 59.3799 91.9374 59.3799C92.4654 59.3799 92.8974 59.5419 93.2334 59.8659C93.5814 60.1779 93.7554 60.5739 93.7554 61.0539C93.7554 61.5219 93.5814 61.9179 93.2334 62.2419C92.8974 62.5539 92.4654 62.7099 91.9374 62.7099ZM93.4674 63.7539V73.7979H90.3894V63.7539H93.4674ZM99.784 73.9419C98.908 73.9419 98.128 73.7919 97.444 73.4919C96.76 73.1919 96.22 72.7839 95.824 72.2679C95.428 71.7399 95.206 71.1519 95.158 70.5039H98.2C98.236 70.8519 98.398 71.1339 98.686 71.3499C98.974 71.5659 99.328 71.6739 99.748 71.6739C100.132 71.6739 100.426 71.6019 100.63 71.4579C100.846 71.3019 100.954 71.1039 100.954 70.8639C100.954 70.5759 100.804 70.3659 100.504 70.2339C100.204 70.0899 99.718 69.9339 99.046 69.7659C98.326 69.5979 97.726 69.4239 97.246 69.2439C96.766 69.0519 96.352 68.7579 96.004 68.3619C95.656 67.9539 95.482 67.4079 95.482 66.7239C95.482 66.1479 95.638 65.6259 95.95 65.1579C96.274 64.6779 96.742 64.2999 97.354 64.0239C97.978 63.7479 98.716 63.6099 99.568 63.6099C100.828 63.6099 101.818 63.9219 102.538 64.5459C103.27 65.1699 103.69 65.9979 103.798 67.0299H100.954C100.906 66.6819 100.75 66.4059 100.486 66.2019C100.234 65.9979 99.898 65.8959 99.478 65.8959C99.118 65.8959 98.842 65.9679 98.65 66.1119C98.458 66.2439 98.362 66.4299 98.362 66.6699C98.362 66.9579 98.512 67.1739 98.812 67.3179C99.124 67.4619 99.604 67.6059 100.252 67.7499C100.996 67.9419 101.602 68.1339 102.07 68.3259C102.538 68.5059 102.946 68.8059 103.294 69.2259C103.654 69.6339 103.84 70.1859 103.852 70.8819C103.852 71.4699 103.684 71.9979 103.348 72.4659C103.024 72.9219 102.55 73.2819 101.926 73.5459C101.314 73.8099 100.6 73.9419 99.784 73.9419ZM107.283 62.7099C106.743 62.7099 106.299 62.5539 105.951 62.2419C105.615 61.9179 105.447 61.5219 105.447 61.0539C105.447 60.5739 105.615 60.1779 105.951 59.8659C106.299 59.5419 106.743 59.3799 107.283 59.3799C107.811 59.3799 108.243 59.5419 108.579 59.8659C108.927 60.1779 109.101 60.5739 109.101 61.0539C109.101 61.5219 108.927 61.9179 108.579 62.2419C108.243 62.5539 107.811 62.7099 107.283 62.7099ZM108.813 63.7539V73.7979H105.735V63.7539H108.813ZM116.642 71.1879V73.7979H115.076C113.96 73.7979 113.09 73.5279 112.466 72.9879C111.842 72.4359 111.53 71.5419 111.53 70.3059V66.3099H110.306V63.7539H111.53V61.3059H114.608V63.7539H116.624V66.3099H114.608V70.3419C114.608 70.6419 114.68 70.8579 114.824 70.9899C114.968 71.1219 115.208 71.1879 115.544 71.1879H116.642ZM127.824 68.6139C127.824 68.9019 127.806 69.2019 127.77 69.5139H120.804C120.852 70.1379 121.05 70.6179 121.398 70.9539C121.758 71.2779 122.196 71.4399 122.712 71.4399C123.48 71.4399 124.014 71.1159 124.314 70.4679H127.59C127.422 71.1279 127.116 71.7219 126.672 72.2499C126.24 72.7779 125.694 73.1919 125.034 73.4919C124.374 73.7919 123.636 73.9419 122.82 73.9419C121.836 73.9419 120.96 73.7319 120.192 73.3119C119.424 72.8919 118.824 72.2919 118.392 71.5119C117.96 70.7319 117.744 69.8199 117.744 68.7759C117.744 67.7319 117.954 66.8199 118.374 66.0399C118.806 65.2599 119.406 64.6599 120.174 64.2399C120.942 63.8199 121.824 63.6099 122.82 63.6099C123.792 63.6099 124.656 63.8139 125.412 64.2219C126.168 64.6299 126.756 65.2119 127.176 65.9679C127.608 66.7239 127.824 67.6059 127.824 68.6139ZM124.674 67.8039C124.674 67.2759 124.494 66.8559 124.134 66.5439C123.774 66.2319 123.324 66.0759 122.784 66.0759C122.268 66.0759 121.83 66.2259 121.47 66.5259C121.122 66.8259 120.906 67.2519 120.822 67.8039H124.674ZM60.42 95.7979H57.342L52.194 88.0039V95.7979H49.116V83.1619H52.194L57.342 90.9919V83.1619H60.42V95.7979ZM72.1192 90.6139C72.1192 90.9019 72.1012 91.2019 72.0652 91.5139H65.0992C65.1472 92.1379 65.3452 92.6179 65.6932 92.9539C66.0532 93.2779 66.4912 93.4399 67.0072 93.4399C67.7752 93.4399 68.3092 93.1159 68.6092 92.4679H71.8852C71.7172 93.1279 71.4112 93.7219 70.9672 94.2499C70.5352 94.7779 69.9892 95.1919 69.3292 95.4919C68.6692 95.7919 67.9312 95.9419 67.1152 95.9419C66.1312 95.9419 65.2552 95.7319 64.4872 95.3119C63.7192 94.8919 63.1192 94.2919 62.6872 93.5119C62.2552 92.7319 62.0392 91.8199 62.0392 90.7759C62.0392 89.7319 62.2492 88.8199 62.6692 88.0399C63.1012 87.2599 63.7012 86.6599 64.4692 86.2399C65.2372 85.8199 66.1192 85.6099 67.1152 85.6099C68.0872 85.6099 68.9512 85.8139 69.7072 86.2219C70.4632 86.6299 71.0512 87.2119 71.4712 87.9679C71.9032 88.7239 72.1192 89.6059 72.1192 90.6139ZM68.9692 89.8039C68.9692 89.2759 68.7892 88.8559 68.4292 88.5439C68.0692 88.2319 67.6192 88.0759 67.0792 88.0759C66.5632 88.0759 66.1252 88.2259 65.7652 88.5259C65.4172 88.8259 65.2012 89.2519 65.1172 89.8039H68.9692ZM79.341 93.1879V95.7979H77.775C76.659 95.7979 75.789 95.5279 75.165 94.9879C74.541 94.4359 74.229 93.5419 74.229 92.3059V88.3099H73.005V85.7539H74.229V83.3059H77.307V85.7539H79.323V88.3099H77.307V92.3419C77.307 92.6419 77.379 92.8579 77.523 92.9899C77.667 93.1219 77.907 93.1879 78.243 93.1879H79.341ZM95.4735 85.7539L92.7555 95.7979H89.3535L87.7695 89.2819L86.1315 95.7979H82.7475L80.0115 85.7539H83.0895L84.5115 92.9359L86.2035 85.7539H89.4615L91.1715 92.8999L92.5755 85.7539H95.4735ZM101.219 95.9419C100.235 95.9419 99.3473 95.7319 98.5553 95.3119C97.7753 94.8919 97.1573 94.2919 96.7013 93.5119C96.2573 92.7319 96.0353 91.8199 96.0353 90.7759C96.0353 89.7439 96.2633 88.8379 96.7192 88.0579C97.1753 87.2659 97.7993 86.6599 98.5913 86.2399C99.3833 85.8199 100.271 85.6099 101.255 85.6099C102.239 85.6099 103.127 85.8199 103.919 86.2399C104.711 86.6599 105.335 87.2659 105.791 88.0579C106.247 88.8379 106.475 89.7439 106.475 90.7759C106.475 91.8079 106.241 92.7199 105.773 93.5119C105.317 94.2919 104.687 94.8919 103.883 95.3119C103.091 95.7319 102.203 95.9419 101.219 95.9419ZM101.219 93.2779C101.807 93.2779 102.305 93.0619 102.713 92.6299C103.133 92.1979 103.343 91.5799 103.343 90.7759C103.343 89.9719 103.139 89.3539 102.731 88.9219C102.335 88.4899 101.843 88.2739 101.255 88.2739C100.655 88.2739 100.157 88.4899 99.7613 88.9219C99.3653 89.3419 99.1673 89.9599 99.1673 90.7759C99.1673 91.5799 99.3593 92.1979 99.7433 92.6299C100.139 93.0619 100.631 93.2779 101.219 93.2779ZM111.186 87.4279C111.546 86.8759 111.996 86.4439 112.536 86.1319C113.076 85.8079 113.676 85.6459 114.336 85.6459V88.9039H113.49C112.722 88.9039 112.146 89.0719 111.762 89.4079C111.378 89.7319 111.186 90.3079 111.186 91.1359V95.7979H108.108V85.7539H111.186V87.4279ZM121.945 95.7979L118.885 91.5859V95.7979H115.807V82.4779H118.885V89.8399L121.927 85.7539H125.725L121.549 90.7939L125.761 95.7979H121.945ZM53.85 105.162C55.182 105.162 56.346 105.426 57.342 105.954C58.338 106.482 59.106 107.226 59.646 108.186C60.198 109.134 60.474 110.232 60.474 111.48C60.474 112.716 60.198 113.814 59.646 114.774C59.106 115.734 58.332 116.478 57.324 117.006C56.328 117.534 55.17 117.798 53.85 117.798H49.116V105.162H53.85ZM53.652 115.134C54.816 115.134 55.722 114.816 56.37 114.18C57.018 113.544 57.342 112.644 57.342 111.48C57.342 110.316 57.018 109.41 56.37 108.762C55.722 108.114 54.816 107.79 53.652 107.79H52.194V115.134H53.652ZM71.6621 112.614C71.6621 112.902 71.6441 113.202 71.6081 113.514H64.6421C64.6901 114.138 64.8881 114.618 65.2361 114.954C65.5961 115.278 66.0341 115.44 66.5501 115.44C67.3181 115.44 67.8521 115.116 68.1521 114.468H71.4281C71.2601 115.128 70.9541 115.722 70.5101 116.25C70.0781 116.778 69.5321 117.192 68.8721 117.492C68.2121 117.792 67.4741 117.942 66.6581 117.942C65.6741 117.942 64.7981 117.732 64.0301 117.312C63.2621 116.892 62.6621 116.292 62.2301 115.512C61.7981 114.732 61.5821 113.82 61.5821 112.776C61.5821 111.732 61.7921 110.82 62.2121 110.04C62.6441 109.26 63.2441 108.66 64.0121 108.24C64.7801 107.82 65.6621 107.61 66.6581 107.61C67.6301 107.61 68.4941 107.814 69.2501 108.222C70.0061 108.63 70.5941 109.212 71.0141 109.968C71.4461 110.724 71.6621 111.606 71.6621 112.614ZM68.5121 111.804C68.5121 111.276 68.3321 110.856 67.9721 110.544C67.6121 110.232 67.1621 110.076 66.6221 110.076C66.1061 110.076 65.6681 110.226 65.3081 110.526C64.9601 110.826 64.7441 111.252 64.6601 111.804H68.5121ZM77.8039 114.918L79.9819 107.754H83.2579L79.6939 117.798H75.8959L72.3319 107.754H75.6259L77.8039 114.918ZM94.0215 112.614C94.0215 112.902 94.0035 113.202 93.9675 113.514H87.0015C87.0495 114.138 87.2475 114.618 87.5955 114.954C87.9555 115.278 88.3935 115.44 88.9095 115.44C89.6775 115.44 90.2115 115.116 90.5115 114.468H93.7875C93.6195 115.128 93.3135 115.722 92.8695 116.25C92.4375 116.778 91.8915 117.192 91.2315 117.492C90.5715 117.792 89.8335 117.942 89.0175 117.942C88.0335 117.942 87.1575 117.732 86.3895 117.312C85.6215 116.892 85.0215 116.292 84.5895 115.512C84.1575 114.732 83.9415 113.82 83.9415 112.776C83.9415 111.732 84.1515 110.82 84.5715 110.04C85.0035 109.26 85.6035 108.66 86.3715 108.24C87.1395 107.82 88.0215 107.61 89.0175 107.61C89.9895 107.61 90.8535 107.814 91.6095 108.222C92.3655 108.63 92.9535 109.212 93.3735 109.968C93.8055 110.724 94.0215 111.606 94.0215 112.614ZM90.8715 111.804C90.8715 111.276 90.6915 110.856 90.3315 110.544C89.9715 110.232 89.5215 110.076 88.9815 110.076C88.4655 110.076 88.0275 110.226 87.6675 110.526C87.3195 110.826 87.1035 111.252 87.0195 111.804H90.8715ZM98.7233 104.478V117.798H95.6453V104.478H98.7233ZM105.526 117.942C104.542 117.942 103.654 117.732 102.862 117.312C102.082 116.892 101.464 116.292 101.008 115.512C100.564 114.732 100.342 113.82 100.342 112.776C100.342 111.744 100.57 110.838 101.026 110.058C101.482 109.266 102.106 108.66 102.898 108.24C103.69 107.82 104.578 107.61 105.562 107.61C106.546 107.61 107.434 107.82 108.226 108.24C109.018 108.66 109.642 109.266 110.098 110.058C110.554 110.838 110.782 111.744 110.782 112.776C110.782 113.808 110.548 114.72 110.08 115.512C109.624 116.292 108.994 116.892 108.19 117.312C107.398 117.732 106.51 117.942 105.526 117.942ZM105.526 115.278C106.114 115.278 106.612 115.062 107.02 114.63C107.44 114.198 107.65 113.58 107.65 112.776C107.65 111.972 107.446 111.354 107.038 110.922C106.642 110.49 106.15 110.274 105.562 110.274C104.962 110.274 104.464 110.49 104.068 110.922C103.672 111.342 103.474 111.96 103.474 112.776C103.474 113.58 103.666 114.198 104.05 114.63C104.446 115.062 104.938 115.278 105.526 115.278ZM115.493 109.176C115.793 108.708 116.207 108.33 116.735 108.042C117.263 107.754 117.881 107.61 118.589 107.61C119.417 107.61 120.167 107.82 120.839 108.24C121.511 108.66 122.039 109.26 122.423 110.04C122.819 110.82 123.017 111.726 123.017 112.758C123.017 113.79 122.819 114.702 122.423 115.494C122.039 116.274 121.511 116.88 120.839 117.312C120.167 117.732 119.417 117.942 118.589 117.942C117.893 117.942 117.275 117.798 116.735 117.51C116.207 117.222 115.793 116.85 115.493 116.394V122.586H112.415V107.754H115.493V109.176ZM119.885 112.758C119.885 111.99 119.669 111.39 119.237 110.958C118.817 110.514 118.295 110.292 117.671 110.292C117.059 110.292 116.537 110.514 116.105 110.958C115.685 111.402 115.475 112.008 115.475 112.776C115.475 113.544 115.685 114.15 116.105 114.594C116.537 115.038 117.059 115.26 117.671 115.26C118.283 115.26 118.805 115.038 119.237 114.594C119.669 114.138 119.885 113.526 119.885 112.758ZM137.448 107.646C138.696 107.646 139.686 108.024 140.418 108.78C141.162 109.536 141.534 110.586 141.534 111.93V117.798H138.474V112.344C138.474 111.696 138.3 111.198 137.952 110.85C137.616 110.49 137.148 110.31 136.548 110.31C135.948 110.31 135.474 110.49 135.126 110.85C134.79 111.198 134.622 111.696 134.622 112.344V117.798H131.562V112.344C131.562 111.696 131.388 111.198 131.04 110.85C130.704 110.49 130.236 110.31 129.636 110.31C129.036 110.31 128.562 110.49 128.214 110.85C127.878 111.198 127.71 111.696 127.71 112.344V117.798H124.632V107.754H127.71V109.014C128.022 108.594 128.43 108.264 128.934 108.024C129.438 107.772 130.008 107.646 130.644 107.646C131.4 107.646 132.072 107.808 132.66 108.132C133.26 108.456 133.728 108.918 134.064 109.518C134.412 108.966 134.886 108.516 135.486 108.168C136.086 107.82 136.74 107.646 137.448 107.646ZM153.154 112.614C153.154 112.902 153.136 113.202 153.1 113.514H146.134C146.182 114.138 146.38 114.618 146.728 114.954C147.088 115.278 147.526 115.44 148.042 115.44C148.81 115.44 149.344 115.116 149.644 114.468H152.92C152.752 115.128 152.446 115.722 152.002 116.25C151.57 116.778 151.024 117.192 150.364 117.492C149.704 117.792 148.966 117.942 148.15 117.942C147.166 117.942 146.29 117.732 145.522 117.312C144.754 116.892 144.154 116.292 143.722 115.512C143.29 114.732 143.074 113.82 143.074 112.776C143.074 111.732 143.284 110.82 143.704 110.04C144.136 109.26 144.736 108.66 145.504 108.24C146.272 107.82 147.154 107.61 148.15 107.61C149.122 107.61 149.986 107.814 150.742 108.222C151.498 108.63 152.086 109.212 152.506 109.968C152.938 110.724 153.154 111.606 153.154 112.614ZM150.004 111.804C150.004 111.276 149.824 110.856 149.464 110.544C149.104 110.232 148.654 110.076 148.114 110.076C147.598 110.076 147.16 110.226 146.8 110.526C146.452 110.826 146.236 111.252 146.152 111.804H150.004ZM160.898 107.646C162.074 107.646 163.01 108.03 163.706 108.798C164.414 109.554 164.768 110.598 164.768 111.93V117.798H161.708V112.344C161.708 111.672 161.534 111.15 161.186 110.778C160.838 110.406 160.37 110.22 159.782 110.22C159.194 110.22 158.726 110.406 158.378 110.778C158.03 111.15 157.856 111.672 157.856 112.344V117.798H154.778V107.754H157.856V109.086C158.168 108.642 158.588 108.294 159.116 108.042C159.644 107.778 160.238 107.646 160.898 107.646ZM172.505 115.188V117.798H170.939C169.823 117.798 168.953 117.528 168.329 116.988C167.705 116.436 167.393 115.542 167.393 114.306V110.31H166.169V107.754H167.393V105.306H170.471V107.754H172.487V110.31H170.471V114.342C170.471 114.642 170.543 114.858 170.687 114.99C170.831 115.122 171.071 115.188 171.407 115.188H172.505ZM54.156 132.31H52.5V139.798H49.422V132.31H48.306V129.754H49.422V129.466C49.422 128.23 49.776 127.294 50.484 126.658C51.192 126.01 52.23 125.686 53.598 125.686C53.826 125.686 53.994 125.692 54.102 125.704V128.314C53.514 128.278 53.1 128.362 52.86 128.566C52.62 128.77 52.5 129.136 52.5 129.664V129.754H54.156V132.31ZM58.6803 131.428C59.0403 130.876 59.4903 130.444 60.0303 130.132C60.5703 129.808 61.1703 129.646 61.8303 129.646V132.904H60.9843C60.2163 132.904 59.6403 133.072 59.2563 133.408C58.8723 133.732 58.6803 134.308 58.6803 135.136V139.798H55.6023V129.754H58.6803V131.428ZM67.8735 139.942C66.8895 139.942 66.0015 139.732 65.2095 139.312C64.4295 138.892 63.8115 138.292 63.3555 137.512C62.9115 136.732 62.6895 135.82 62.6895 134.776C62.6895 133.744 62.9175 132.838 63.3735 132.058C63.8295 131.266 64.4535 130.66 65.2455 130.24C66.0375 129.82 66.9255 129.61 67.9095 129.61C68.8935 129.61 69.7815 129.82 70.5735 130.24C71.3655 130.66 71.9895 131.266 72.4455 132.058C72.9015 132.838 73.1295 133.744 73.1295 134.776C73.1295 135.808 72.8955 136.72 72.4275 137.512C71.9715 138.292 71.3415 138.892 70.5375 139.312C69.7455 139.732 68.8575 139.942 67.8735 139.942ZM67.8735 137.278C68.4615 137.278 68.9595 137.062 69.3675 136.63C69.7875 136.198 69.9975 135.58 69.9975 134.776C69.9975 133.972 69.7935 133.354 69.3855 132.922C68.9895 132.49 68.4975 132.274 67.9095 132.274C67.3095 132.274 66.8115 132.49 66.4155 132.922C66.0195 133.342 65.8215 133.96 65.8215 134.776C65.8215 135.58 66.0135 136.198 66.3975 136.63C66.7935 137.062 67.2855 137.278 67.8735 137.278ZM87.5785 129.646C88.8265 129.646 89.8165 130.024 90.5485 130.78C91.2925 131.536 91.6645 132.586 91.6645 133.93V139.798H88.6045V134.344C88.6045 133.696 88.4305 133.198 88.0825 132.85C87.7465 132.49 87.2785 132.31 86.6785 132.31C86.0785 132.31 85.6045 132.49 85.2565 132.85C84.9205 133.198 84.7525 133.696 84.7525 134.344V139.798H81.6925V134.344C81.6925 133.696 81.5185 133.198 81.1705 132.85C80.8345 132.49 80.3665 132.31 79.7665 132.31C79.1665 132.31 78.6925 132.49 78.3445 132.85C78.0085 133.198 77.8405 133.696 77.8405 134.344V139.798H74.7625V129.754H77.8405V131.014C78.1525 130.594 78.5605 130.264 79.0645 130.024C79.5685 129.772 80.1385 129.646 80.7745 129.646C81.5305 129.646 82.2025 129.808 82.7905 130.132C83.3905 130.456 83.8585 130.918 84.1945 131.518C84.5425 130.966 85.0165 130.516 85.6165 130.168C86.2165 129.82 86.8705 129.646 87.5785 129.646ZM53.85 149.162C55.182 149.162 56.346 149.426 57.342 149.954C58.338 150.482 59.106 151.226 59.646 152.186C60.198 153.134 60.474 154.232 60.474 155.48C60.474 156.716 60.198 157.814 59.646 158.774C59.106 159.734 58.332 160.478 57.324 161.006C56.328 161.534 55.17 161.798 53.85 161.798H49.116V149.162H53.85ZM53.652 159.134C54.816 159.134 55.722 158.816 56.37 158.18C57.018 157.544 57.342 156.644 57.342 155.48C57.342 154.316 57.018 153.41 56.37 152.762C55.722 152.114 54.816 151.79 53.652 151.79H52.194V159.134H53.652ZM71.6621 156.614C71.6621 156.902 71.6441 157.202 71.6081 157.514H64.6421C64.6901 158.138 64.8881 158.618 65.2361 158.954C65.5961 159.278 66.0341 159.44 66.5501 159.44C67.3181 159.44 67.8521 159.116 68.1521 158.468H71.4281C71.2601 159.128 70.9541 159.722 70.5101 160.25C70.0781 160.778 69.5321 161.192 68.8721 161.492C68.2121 161.792 67.4741 161.942 66.6581 161.942C65.6741 161.942 64.7981 161.732 64.0301 161.312C63.2621 160.892 62.6621 160.292 62.2301 159.512C61.7981 158.732 61.5821 157.82 61.5821 156.776C61.5821 155.732 61.7921 154.82 62.2121 154.04C62.6441 153.26 63.2441 152.66 64.0121 152.24C64.7801 151.82 65.6621 151.61 66.6581 151.61C67.6301 151.61 68.4941 151.814 69.2501 152.222C70.0061 152.63 70.5941 153.212 71.0141 153.968C71.4461 154.724 71.6621 155.606 71.6621 156.614ZM68.5121 155.804C68.5121 155.276 68.3321 154.856 67.9721 154.544C67.6121 154.232 67.1621 154.076 66.6221 154.076C66.1061 154.076 65.6681 154.226 65.3081 154.526C64.9601 154.826 64.7441 155.252 64.6601 155.804H68.5121ZM77.8039 158.918L79.9819 151.754H83.2579L79.6939 161.798H75.8959L72.3319 151.754H75.6259L77.8039 158.918ZM89.1255 161.924C88.2015 161.924 87.3735 161.774 86.6415 161.474C85.9095 161.174 85.3215 160.73 84.8775 160.142C84.4455 159.554 84.2175 158.846 84.1935 158.018H87.4695C87.5175 158.486 87.6795 158.846 87.9555 159.098C88.2315 159.338 88.5915 159.458 89.0355 159.458C89.4915 159.458 89.8515 159.356 90.1155 159.152C90.3795 158.936 90.5115 158.642 90.5115 158.27C90.5115 157.958 90.4035 157.7 90.1875 157.496C89.9835 157.292 89.7255 157.124 89.4135 156.992C89.1135 156.86 88.6815 156.71 88.1175 156.542C87.3015 156.29 86.6355 156.038 86.1195 155.786C85.6035 155.534 85.1595 155.162 84.7875 154.67C84.4155 154.178 84.2295 153.536 84.2295 152.744C84.2295 151.568 84.6555 150.65 85.5075 149.99C86.3595 149.318 87.4695 148.982 88.8375 148.982C90.2295 148.982 91.3515 149.318 92.2035 149.99C93.0555 150.65 93.5115 151.574 93.5715 152.762H90.2415C90.2175 152.354 90.0675 152.036 89.7915 151.808C89.5155 151.568 89.1615 151.448 88.7295 151.448C88.3575 151.448 88.0575 151.55 87.8295 151.754C87.6015 151.946 87.4875 152.228 87.4875 152.6C87.4875 153.008 87.6795 153.326 88.0635 153.554C88.4475 153.782 89.0475 154.028 89.8635 154.292C90.6795 154.568 91.3395 154.832 91.8435 155.084C92.3595 155.336 92.8035 155.702 93.1755 156.182C93.5475 156.662 93.7335 157.28 93.7335 158.036C93.7335 158.756 93.5475 159.41 93.1755 159.998C92.8155 160.586 92.2875 161.054 91.5915 161.402C90.8955 161.75 90.0735 161.924 89.1255 161.924ZM101.226 159.188V161.798H99.6597C98.5437 161.798 97.6737 161.528 97.0497 160.988C96.4257 160.436 96.1137 159.542 96.1137 158.306V154.31H94.8897V151.754H96.1137V149.306H99.1917V151.754H101.208V154.31H99.1917V158.342C99.1917 158.642 99.2637 158.858 99.4077 158.99C99.5517 159.122 99.7917 159.188 100.128 159.188H101.226ZM104.488 150.71C103.948 150.71 103.504 150.554 103.156 150.242C102.82 149.918 102.652 149.522 102.652 149.054C102.652 148.574 102.82 148.178 103.156 147.866C103.504 147.542 103.948 147.38 104.488 147.38C105.016 147.38 105.448 147.542 105.784 147.866C106.132 148.178 106.306 148.574 106.306 149.054C106.306 149.522 106.132 149.918 105.784 150.242C105.448 150.554 105.016 150.71 104.488 150.71ZM106.018 151.754V161.798H102.94V151.754H106.018ZM113.847 159.188V161.798H112.281C111.165 161.798 110.295 161.528 109.671 160.988C109.047 160.436 108.735 159.542 108.735 158.306V154.31H107.511V151.754H108.735V149.306H111.813V151.754H113.829V154.31H111.813V158.342C111.813 158.642 111.885 158.858 112.029 158.99C112.173 159.122 112.413 159.188 112.749 159.188H113.847ZM114.949 156.776C114.949 155.732 115.159 154.82 115.579 154.04C116.011 153.26 116.605 152.66 117.361 152.24C118.129 151.82 119.005 151.61 119.989 151.61C121.249 151.61 122.299 151.94 123.139 152.6C123.991 153.26 124.549 154.19 124.813 155.39H121.537C121.261 154.622 120.727 154.238 119.935 154.238C119.371 154.238 118.921 154.46 118.585 154.904C118.249 155.336 118.081 155.96 118.081 156.776C118.081 157.592 118.249 158.222 118.585 158.666C118.921 159.098 119.371 159.314 119.935 159.314C120.727 159.314 121.261 158.93 121.537 158.162H124.813C124.549 159.338 123.991 160.262 123.139 160.934C122.287 161.606 121.237 161.942 119.989 161.942C119.005 161.942 118.129 161.732 117.361 161.312C116.605 160.892 116.011 160.292 115.579 159.512C115.159 158.732 114.949 157.82 114.949 156.776ZM132.634 151.646C133.786 151.646 134.71 152.03 135.406 152.798C136.102 153.554 136.45 154.598 136.45 155.93V161.798H133.39V156.344C133.39 155.672 133.216 155.15 132.868 154.778C132.52 154.406 132.052 154.22 131.464 154.22C130.876 154.22 130.408 154.406 130.06 154.778C129.712 155.15 129.538 155.672 129.538 156.344V161.798H126.46V148.478H129.538V153.104C129.85 152.66 130.276 152.306 130.816 152.042C131.356 151.778 131.962 151.646 132.634 151.646Z" fill="#151314"/>
</svg>
