<?xml version="1.0" encoding="UTF-8"?>
<!DOCTYPE svg PUBLIC "-//W3C//DTD SVG 1.1//EN" "http://www.w3.org/Graphics/SVG/1.1/DTD/svg11.dtd">
<svg xmlns="http://www.w3.org/2000/svg" version="1.1" width="264px" height="220px" style="shape-rendering:geometricPrecision; text-rendering:geometricPrecision; image-rendering:optimizeQuality; fill-rule:evenodd; clip-rule:evenodd" xmlns:xlink="http://www.w3.org/1999/xlink">
<g><path style="opacity:1" fill="#fbfbfb" d="M -0.5,-0.5 C 39.5,-0.5 79.5,-0.5 119.5,-0.5C 92.4769,5.77454 73.6436,21.7745 63,47.5C 62.005,50.1262 61.6717,52.7929 62,55.5C 62.5,56 63,56.5 63.5,57C 74.1823,57.8324 84.8489,57.6657 95.5,56.5C 109.754,32.4724 129.088,27.3057 153.5,41C 168.733,55.2996 171.567,71.7996 162,90.5C 151.235,104.757 137.068,109.924 119.5,106C 108.706,102.206 100.706,95.2063 95.5,85C 84.5,84.3333 73.5,84.3333 62.5,85C 61.9415,85.7247 61.6082,86.5581 61.5,87.5C 70.1112,116.944 89.4445,134.777 119.5,141C 156.893,143.892 182.893,128.226 197.5,94C 207.543,57.1133 196.543,28.4467 164.5,8C 156.291,4.43121 147.958,1.59787 139.5,-0.5C 180.833,-0.5 222.167,-0.5 263.5,-0.5C 263.5,54.1667 263.5,108.833 263.5,163.5C 257.84,157.599 253.507,158.432 250.5,166C 251.578,171.545 254.911,173.545 260.5,172C 261.373,170.955 262.373,170.122 263.5,169.5C 263.5,186.167 263.5,202.833 263.5,219.5C 251.833,219.5 240.167,219.5 228.5,219.5C 236.992,216.737 242.658,211.07 245.5,202.5C 238.963,200.297 233.63,201.797 229.5,207C 216.752,210.588 210.918,205.755 212,192.5C 216.193,184.275 222.359,182.442 230.5,187C 232.213,188.378 233.547,190.045 234.5,192C 238.152,192.499 241.818,192.665 245.5,192.5C 240.825,177.659 230.825,171.826 215.5,175C 200.504,182.653 196.671,194.153 204,209.5C 207.579,214.269 212.079,217.603 217.5,219.5C 203.833,219.5 190.167,219.5 176.5,219.5C 182.983,217.027 187.983,212.693 191.5,206.5C 189.235,205.353 186.902,205.186 184.5,206C 179.513,212.07 173.179,214.07 165.5,212C 160.59,209.925 157.257,206.425 155.5,201.5C 167.967,199.84 180.634,198.84 193.5,198.5C 193.323,183.984 185.99,175.651 171.5,173.5C 154.386,175.774 146.886,185.441 149,202.5C 151.946,210.708 157.446,216.375 165.5,219.5C 148.167,219.5 130.833,219.5 113.5,219.5C 120.274,217.27 125.274,212.937 128.5,206.5C 126.235,205.353 123.902,205.186 121.5,206C 114.878,213 107.211,214.333 98.5,210C 89.656,201.622 89.3226,192.956 97.5,184C 106.304,178.645 114.304,179.645 121.5,187C 123.902,187.814 126.235,187.647 128.5,186.5C 123.919,178.371 116.919,174.038 107.5,173.5C 91.4662,176.033 84.2995,185.366 86,201.5C 88.5923,210.255 94.0923,216.255 102.5,219.5C 77.5,219.5 52.5,219.5 27.5,219.5C 33.3099,217.199 38.1432,213.532 42,208.5C 42.4828,207.552 42.6495,206.552 42.5,205.5C 40.076,205.192 37.7427,205.526 35.5,206.5C 28.7725,213.012 21.1058,214.178 12.5,210C 6.46261,203.867 4.96261,196.7 8,188.5C 16.6831,178.423 25.8498,177.923 35.5,187C 37.9018,187.814 40.2351,187.647 42.5,186.5C 37.996,178.402 30.996,174.069 21.5,173.5C 11.12,175.343 3.78667,181.009 -0.5,190.5C -0.5,126.833 -0.5,63.1667 -0.5,-0.5 Z"/></g>
<g><path style="opacity:1" fill="#040404" d="M 119.5,-0.5 C 126.167,-0.5 132.833,-0.5 139.5,-0.5C 147.958,1.59787 156.291,4.43121 164.5,8C 196.543,28.4467 207.543,57.1133 197.5,94C 182.893,128.226 156.893,143.892 119.5,141C 89.4445,134.777 70.1112,116.944 61.5,87.5C 61.6082,86.5581 61.9415,85.7247 62.5,85C 73.5,84.3333 84.5,84.3333 95.5,85C 100.706,95.2063 108.706,102.206 119.5,106C 137.068,109.924 151.235,104.757 162,90.5C 171.567,71.7996 168.733,55.2996 153.5,41C 129.088,27.3057 109.754,32.4724 95.5,56.5C 84.8489,57.6657 74.1823,57.8324 63.5,57C 63,56.5 62.5,56 62,55.5C 61.6717,52.7929 62.005,50.1262 63,47.5C 73.6436,21.7745 92.4769,5.77454 119.5,-0.5 Z"/></g>
<g><path style="opacity:1" fill="#070707" d="M 125.5,53.5 C 135.618,52.3613 142.785,56.3613 147,65.5C 148.137,81.0297 140.97,88.1964 125.5,87C 114.241,81.5586 111.074,73.0586 116,61.5C 118.775,58.2203 121.942,55.5537 125.5,53.5 Z"/></g>
<g><path style="opacity:1" fill="#0d0d0d" d="M 263.5,163.5 C 263.5,165.5 263.5,167.5 263.5,169.5C 262.373,170.122 261.373,170.955 260.5,172C 254.911,173.545 251.578,171.545 250.5,166C 253.507,158.432 257.84,157.599 263.5,163.5 Z"/></g>
<g><path style="opacity:1" fill="#030303" d="M 135.5,160.5 C 137.5,160.5 139.5,160.5 141.5,160.5C 141.5,179.833 141.5,199.167 141.5,218.5C 139.5,218.5 137.5,218.5 135.5,218.5C 135.5,199.167 135.5,179.833 135.5,160.5 Z"/></g>
<g><path style="opacity:1" fill="#111111" d="M 51.5,161.5 C 56.0119,161.869 57.5119,164.202 56,168.5C 52.5067,171.502 50.0067,170.835 48.5,166.5C 48.7573,164.308 49.7573,162.641 51.5,161.5 Z"/></g>
<g><path style="opacity:1" fill="#0f0f0f" d="M 27.5,219.5 C 23.8333,219.5 20.1667,219.5 16.5,219.5C 8.44026,216.107 2.77359,210.44 -0.5,202.5C -0.5,198.5 -0.5,194.5 -0.5,190.5C 3.78667,181.009 11.12,175.343 21.5,173.5C 30.996,174.069 37.996,178.402 42.5,186.5C 40.2351,187.647 37.9018,187.814 35.5,187C 25.8498,177.923 16.6831,178.423 8,188.5C 4.96261,196.7 6.46261,203.867 12.5,210C 21.1058,214.178 28.7725,213.012 35.5,206.5C 37.7427,205.526 40.076,205.192 42.5,205.5C 42.6495,206.552 42.4828,207.552 42,208.5C 38.1432,213.532 33.3099,217.199 27.5,219.5 Z"/></g>
<g><path style="opacity:1" fill="#0e0e0e" d="M 113.5,219.5 C 109.833,219.5 106.167,219.5 102.5,219.5C 94.0923,216.255 88.5923,210.255 86,201.5C 84.2995,185.366 91.4662,176.033 107.5,173.5C 116.919,174.038 123.919,178.371 128.5,186.5C 126.235,187.647 123.902,187.814 121.5,187C 114.304,179.645 106.304,178.645 97.5,184C 89.3226,192.956 89.656,201.622 98.5,210C 107.211,214.333 114.878,213 121.5,206C 123.902,205.186 126.235,205.353 128.5,206.5C 125.274,212.937 120.274,217.27 113.5,219.5 Z"/></g>
<g><path style="opacity:1" fill="#0a0a0a" d="M 228.5,219.5 C 224.833,219.5 221.167,219.5 217.5,219.5C 212.079,217.603 207.579,214.269 204,209.5C 196.671,194.153 200.504,182.653 215.5,175C 230.825,171.826 240.825,177.659 245.5,192.5C 241.818,192.665 238.152,192.499 234.5,192C 233.547,190.045 232.213,188.378 230.5,187C 222.359,182.442 216.193,184.275 212,192.5C 210.918,205.755 216.752,210.588 229.5,207C 233.63,201.797 238.963,200.297 245.5,202.5C 242.658,211.07 236.992,216.737 228.5,219.5 Z"/></g>
<g><path style="opacity:1" fill="#030303" d="M 49.5,175.5 C 51.5,175.5 53.5,175.5 55.5,175.5C 55.5,189.833 55.5,204.167 55.5,218.5C 53.5,218.5 51.5,218.5 49.5,218.5C 49.5,204.167 49.5,189.833 49.5,175.5 Z"/></g>
<g><path style="opacity:1" fill="#111111" d="M 81.5,173.5 C 82.8333,173.5 84.1667,173.5 85.5,173.5C 85.5,175.833 85.5,178.167 85.5,180.5C 79.2642,180.7 74.4308,183.366 71,188.5C 69.5766,198.42 69.0766,208.42 69.5,218.5C 67.1667,218.5 64.8333,218.5 62.5,218.5C 62.5,203.833 62.5,189.167 62.5,174.5C 64.5,174.5 66.5,174.5 68.5,174.5C 68.1924,176.924 68.5258,179.257 69.5,181.5C 72.8745,177.818 76.8745,175.152 81.5,173.5 Z"/></g>
<g><path style="opacity:1" fill="#070707" d="M 251.5,175.5 C 255.167,175.5 258.833,175.5 262.5,175.5C 262.5,189.833 262.5,204.167 262.5,218.5C 258.833,218.5 255.167,218.5 251.5,218.5C 251.5,204.167 251.5,189.833 251.5,175.5 Z"/></g>
<g><path style="opacity:1" fill="#0b0b0b" d="M 193.5,198.5 C 180.5,198.5 167.5,198.5 154.5,198.5C 154.263,199.791 154.596,200.791 155.5,201.5C 157.257,206.425 160.59,209.925 165.5,212C 173.179,214.07 179.513,212.07 184.5,206C 186.902,205.186 189.235,205.353 191.5,206.5C 187.983,212.693 182.983,217.027 176.5,219.5C 172.833,219.5 169.167,219.5 165.5,219.5C 157.446,216.375 151.946,210.708 149,202.5C 146.886,185.441 154.386,175.774 171.5,173.5C 185.99,175.651 193.323,183.984 193.5,198.5 Z"/></g>
<g><path style="opacity:1" fill="#f6f6f6" d="M 186.5,191.5 C 176.319,191.827 166.319,191.494 156.5,190.5C 159.078,184.112 163.912,180.778 171,180.5C 178.549,180.854 183.715,184.521 186.5,191.5 Z"/></g>
<g><path style="opacity:1" fill="#777777" d="M 49.5,175.5 C 51.6074,174.532 53.9407,174.198 56.5,174.5C 56.8293,189.343 56.496,204.01 55.5,218.5C 55.5,204.167 55.5,189.833 55.5,175.5C 53.5,175.5 51.5,175.5 49.5,175.5 Z"/></g>
<g><path style="opacity:1" fill="#c4c4c4" d="M 156.5,190.5 C 166.319,191.494 176.319,191.827 186.5,191.5C 176.326,192.823 165.993,192.823 155.5,191.5C 155.624,190.893 155.957,190.56 156.5,190.5 Z"/></g>
<g><path style="opacity:1" fill="#969696" d="M 193.5,198.5 C 180.634,198.84 167.967,199.84 155.5,201.5C 154.596,200.791 154.263,199.791 154.5,198.5C 167.5,198.5 180.5,198.5 193.5,198.5 Z"/></g>
<g><path style="opacity:1" fill="#f4f4f4" d="M -0.5,202.5 C 2.77359,210.44 8.44026,216.107 16.5,219.5C 10.8333,219.5 5.16667,219.5 -0.5,219.5C -0.5,213.833 -0.5,208.167 -0.5,202.5 Z"/></g>
</svg>
