<svg width="72" height="70" viewBox="0 0 72 70" fill="none" xmlns="http://www.w3.org/2000/svg">
<g clip-path="url(#clip0_618_6180)">
<path d="M72.2684 29.4591L60.1874 14.2317C59.7402 13.6685 58.9247 13.5296 58.3063 13.9111L50.5063 18.7243H40.3335C40.2019 18.7243 40.0708 18.7516 39.9442 18.7874L32.0567 20.9904L23.8724 18.8184L15.92 13.9111C15.312 13.536 14.5113 13.6631 14.0592 14.2071L0.696785 30.267C0.216587 30.844 0.295886 31.6867 0.875208 32.1703L7.87883 38.0185L14.1622 46.2344C12.3245 48.134 12.3603 51.13 14.2723 52.9857C15.1198 53.8075 16.1975 54.2718 17.306 54.3798C17.2675 54.6234 17.2477 54.8708 17.2477 55.122C17.2477 56.4183 17.7681 57.6371 18.7125 58.5534C19.6575 59.4704 20.9136 59.9753 22.2495 59.9753C22.2677 59.9753 22.2853 59.9742 22.303 59.9737C22.3024 60.0068 22.3008 60.0394 22.3008 60.0725C22.3008 61.3688 22.8211 62.5876 23.7656 63.5046C24.7106 64.4209 25.9667 64.9259 27.3026 64.9259C27.5664 64.9259 27.8274 64.905 28.0835 64.8666C28.192 65.9459 28.6716 66.9964 29.5219 67.8214C30.4966 68.7677 31.7775 69.2406 33.0584 69.2406C34.3393 69.2406 35.6202 68.7677 36.5955 67.8214L37.3604 67.0792L37.6814 67.3304C38.6484 68.2393 39.904 68.6935 41.1595 68.6935C42.4404 68.6935 43.7213 68.2206 44.6961 67.2743C45.6911 66.3087 46.1785 65.0344 46.1581 63.7664C47.4644 63.7856 48.7783 63.3133 49.7734 62.3483C50.7674 61.3833 51.2547 60.11 51.2355 58.8425C52.5962 58.8634 53.887 58.3563 54.8502 57.4217C55.8452 56.4562 56.3326 55.1818 56.3122 53.9138C57.6196 53.9331 58.9324 53.4607 59.9275 52.4952C61.6258 50.8473 61.8444 48.3001 60.585 46.4198L65.1728 37.0968L72.0701 31.3378C72.6401 30.8617 72.7271 30.0367 72.2684 29.4591ZM15.4673 16.8868L21.1856 20.415L8.74616 35.1198L3.76135 30.9568L15.4673 16.8868ZM16.274 48.064L17.9999 46.3894C18.0522 46.3386 18.1073 46.2905 18.1634 46.2456C18.501 45.9785 18.9096 45.8192 19.3425 45.7813C19.3546 45.7802 19.3672 45.7802 19.3794 45.7797C19.441 45.7749 19.5027 45.7717 19.5649 45.7722C20.1564 45.7802 20.706 46.0148 21.1135 46.4321C21.9131 47.2523 21.8701 48.5924 21.0177 49.4196L19.3441 51.0434C18.4977 51.8647 17.1204 51.8647 16.274 51.0434C15.4276 50.2216 15.4276 48.8852 16.274 48.064ZM20.7142 56.6111C20.304 56.2136 20.0782 55.6846 20.0782 55.122C20.0782 54.5593 20.304 54.0303 20.7142 53.6322L24.0607 50.3851C24.7017 49.7631 25.7095 49.5927 26.5289 49.9715C27.3737 50.3621 27.8489 51.2518 27.725 52.1468C27.6589 52.6245 27.4298 53.0744 27.0785 53.4158L23.7849 56.6111C23.3746 57.0092 22.8294 57.2283 22.2495 57.2283C21.6697 57.2283 21.1245 57.0092 20.7142 56.6111ZM25.7673 61.5617C25.3571 61.1642 25.1313 60.6352 25.1313 60.0725C25.1313 59.5099 25.3571 58.9809 25.7673 58.5828L29.1133 55.3357C29.7989 54.671 30.8986 54.5278 31.7379 55.0017C32.5044 55.4345 32.9059 56.2841 32.7743 57.1305C32.7021 57.5959 32.4741 58.0335 32.131 58.3664L28.8379 61.5617C28.4277 61.9598 27.8825 62.1789 27.3026 62.1789C26.7228 62.1789 26.1776 61.9598 25.7673 61.5617ZM31.5231 65.8791C30.6767 65.0579 30.6767 63.7215 31.5231 62.9002L33.2489 61.2256C33.3013 61.1749 33.3558 61.1273 33.4119 61.0824C33.4136 61.0814 33.4147 61.0803 33.4158 61.0792C33.6966 60.858 34.0265 60.71 34.3784 60.6454C34.3867 60.6443 34.3949 60.6432 34.4032 60.6421C34.4638 60.6315 34.5254 60.6229 34.5871 60.6176C34.6119 60.6154 34.6367 60.6154 34.662 60.6138C34.7127 60.6112 34.7628 60.6079 34.814 60.6085C35.4049 60.6165 35.955 60.8505 36.3625 61.2684C36.4126 61.3197 36.4594 61.3731 36.5024 61.4281C37.1533 62.2537 37.0657 63.48 36.2579 64.2644L34.5932 65.8797C33.7468 66.7009 32.3695 66.7004 31.5231 65.8791ZM57.9257 50.5529C57.0793 51.3747 55.7021 51.3742 54.8557 50.5529C54.8248 50.523 54.7923 50.4952 54.7593 50.469L45.6587 41.5456C45.1085 41.0065 44.2126 41.0022 43.6569 41.536C43.1013 42.0693 43.0969 42.9387 43.6464 43.4778L52.8457 52.4968C52.8468 52.4979 52.8479 52.4989 52.849 52.5C53.6954 53.3213 53.6954 54.6582 52.849 55.4794C52.4387 55.8775 51.8935 56.0966 51.3136 56.0966C50.7332 56.0966 50.188 55.8775 49.7783 55.4794L43.6244 49.4463C43.0748 48.9071 42.1789 48.9029 41.6232 49.4361C41.0676 49.9699 41.0632 50.8393 41.6128 51.3784L47.6725 57.3191C47.7034 57.3565 47.7364 57.3923 47.7716 57.4265C48.618 58.2478 48.618 59.5847 47.7716 60.406C46.9247 61.2272 45.5469 61.2267 44.7005 60.4054L41.3418 57.1123C40.7917 56.5732 39.8957 56.5684 39.3401 57.1022C38.7844 57.6355 38.78 58.5048 39.3296 59.044L42.5946 62.2446C42.6255 62.282 42.6585 62.3183 42.6943 62.3525C43.5407 63.1738 43.5407 64.5107 42.6943 65.332C41.8479 66.1538 40.4706 66.1532 39.6242 65.332C39.5268 65.2374 39.4122 65.1647 39.3032 65.0835C39.2107 65.0151 39.1864 64.9676 39.2327 64.8586C39.2795 64.748 39.3494 64.648 39.3963 64.5369C39.448 64.4129 39.4899 64.2852 39.5306 64.157C39.7476 63.4784 39.8115 62.7485 39.714 62.0442C39.5268 60.6929 38.7608 59.4736 37.5999 58.702C36.9727 58.2857 36.2469 58.0127 35.4946 57.9101C35.8592 56.3499 35.4214 54.6582 34.2826 53.4906C33.3453 52.5299 32.0793 51.9908 30.7174 51.9726C30.6679 51.9721 30.6183 51.9721 30.5682 51.9726C30.5985 50.7116 30.126 49.4586 29.23 48.5401C28.2922 47.5793 27.0262 47.0402 25.6649 47.022C25.2601 47.0167 24.8515 47.0584 24.4572 47.1465C24.2887 46.0089 23.6978 44.9563 22.803 44.2034C21.9136 43.4564 20.7952 43.0418 19.604 43.0257C18.3501 43.0081 17.1182 43.457 16.187 44.2729L10.716 37.1198L23.8047 21.6477L27.9761 22.7548L22.5282 32.0826C21.8696 33.2106 21.7033 34.5197 22.0596 35.769C22.4158 37.0188 23.2518 38.0586 24.4143 38.6977C24.487 38.7377 24.5602 38.7757 24.6346 38.812C24.6401 38.8147 24.6456 38.8174 24.6516 38.82C24.8471 38.9146 25.0481 38.9958 25.2519 39.0642C26.2007 39.3832 27.2255 39.4179 28.214 39.1529C29.5015 38.8072 30.5732 37.9955 31.2318 36.8681L34.7721 30.8061L41.0935 31.2411L57.9263 47.5734C58.7721 48.3953 58.7721 49.7316 57.9257 50.5529ZM58.5122 44.2579L42.7213 28.9365C42.6916 28.9071 42.6602 28.8793 42.6277 28.8531C42.4002 28.6693 42.1183 28.5582 41.8209 28.5379L34.081 28.0051C33.5458 27.9693 33.0138 28.2456 32.7495 28.6982L28.7691 35.5141C28.4833 36.0036 28.018 36.3557 27.459 36.5058C26.9006 36.656 26.3147 36.5854 25.8097 36.3081C25.3053 36.0308 24.9424 35.5793 24.7876 35.037C24.6329 34.4946 24.705 33.9261 24.9914 33.4366L30.305 24.3375L32.4582 23.7364C32.4725 23.7321 32.4862 23.7267 32.5006 23.7225L40.5367 21.4708H50.2464L62.3681 36.4225L58.5122 44.2579ZM64.2223 34.267L53.0125 20.4326L58.7336 16.9023L69.2082 30.104L64.2223 34.267Z" fill="#2190CC"/>
<path d="M44.1116 16.1457C44.4739 16.1457 44.8363 16.0116 45.1127 15.7433L54.7805 6.36259C55.3334 5.82612 55.3334 4.95677 54.7805 4.4203C54.2277 3.88383 53.3317 3.88383 52.7788 4.4203L43.111 13.801C42.5581 14.3375 42.5581 15.2069 43.111 15.7433C43.3874 16.0116 43.7498 16.1457 44.1116 16.1457Z" fill="#2190CC"/>
<path d="M27.833 15.7433C28.1094 16.0116 28.4718 16.1457 28.8341 16.1457C29.196 16.1457 29.5583 16.0116 29.8347 15.7433C30.3876 15.2069 30.3876 14.3375 29.8347 13.801L20.1669 4.4203C19.614 3.88383 18.718 3.88383 18.1652 4.4203C17.6123 4.95677 17.6123 5.82612 18.1652 6.36259L27.833 15.7433Z" fill="#2190CC"/>
<path d="M36.4729 16.1459C37.2543 16.1459 37.8881 15.5309 37.8881 14.7727V7.00934C37.8881 6.25112 37.2543 5.63611 36.4729 5.63611C35.6915 5.63611 35.0576 6.25112 35.0576 7.00934V14.7727C35.0576 15.5309 35.6915 16.1459 36.4729 16.1459Z" fill="#2190CC"/>
<path d="M35.167 2.03194C35.3917 2.56039 35.9517 2.90717 36.5426 2.87725C37.1263 2.84786 37.639 2.46528 37.8196 1.92614C38.0008 1.38272 37.8037 0.763432 37.3345 0.417185C36.8559 0.0634572 36.1885 0.0436869 35.6879 0.36482C35.1295 0.722823 34.9131 1.43562 35.167 2.03194Z" fill="#2190CC"/>
</g>
<defs>
<clipPath id="clip0_618_6180">
<rect width="71.358" height="69.2388" fill="white" transform="translate(0.382812 0.00195312)"/>
</clipPath>
</defs>
</svg>
