<svg width="144" height="42" viewBox="0 0 144 42" fill="none" xmlns="http://www.w3.org/2000/svg">
<mask id="mask0_618_2779" style="mask-type:luminance" maskUnits="userSpaceOnUse" x="0" y="0" width="144" height="42">
<path d="M143.888 0.842041H0.333008V41.4117H143.888V0.842041Z" fill="white"/>
</mask>
<g mask="url(#mask0_618_2779)">
<path d="M37.7051 0.842041H44.2374V41.4118H37.7051V0.842041ZM67.1004 28.47C67.1004 34.6788 61.8468 35.1737 60.2839 35.1737C56.3793 35.1737 55.6688 31.5419 55.6688 29.3511V13.8243H49.1366V29.3188C49.1366 33.1647 50.3516 36.3389 52.4812 38.455C54.3624 40.3261 57.1811 41.3484 60.235 41.3484C62.4005 41.3484 65.4673 40.6783 67.1004 39.1967V41.4118H73.6327V13.8243H67.1004V28.47ZM86.6973 4.08762H80.165V13.8243H75.2658V20.3154H80.165V41.4118H86.6973V20.3154H91.5965V13.8243H86.6973V4.08762ZM112.168 33.1631C110.746 34.4337 108.868 35.138 106.807 35.138C102.264 35.138 98.9274 31.8227 98.9274 27.2708C98.9274 22.7188 102.158 19.543 106.807 19.543C108.832 19.543 110.746 20.2133 112.204 21.4839L113.196 22.3309L117.6 17.9559L116.498 16.9677C113.906 14.6422 110.465 13.3375 106.805 13.3375C98.6399 13.3375 92.7103 19.1926 92.7103 27.2367C92.7103 35.2468 98.7821 41.3111 106.805 41.3111C110.534 41.3111 114.01 40.0064 116.569 37.6437L117.634 36.6553L113.161 32.2836L112.168 33.1631ZM140.915 16.2293C139.034 14.3598 136.829 13.3375 133.775 13.3375C131.61 13.3375 129.158 14.0077 127.525 15.4877V0.842041H120.992V41.4118H127.525V26.2143C127.525 20.0055 131.963 19.5123 133.526 19.5123C137.43 19.5123 137.323 23.1456 137.323 25.3332V41.4118H143.855V25.3672C143.855 21.5212 143.046 18.347 140.915 16.2293Z" fill="#112D38"/>
<path d="M106.591 22.6489C107.844 22.6489 109.045 23.1434 109.931 24.0236C110.816 24.9036 111.314 26.0974 111.314 27.3421C111.314 28.5867 110.816 29.7804 109.931 30.6605C109.045 31.5407 107.844 32.0352 106.591 32.0352C105.338 32.0352 104.137 31.5407 103.251 30.6605C102.366 29.7804 101.868 28.5867 101.868 27.3421C101.868 26.0974 102.366 24.9036 103.251 24.0236C104.137 23.1434 105.338 22.6489 106.591 22.6489Z" fill="#FF3D2E"/>
<path d="M28.5596 31.2223C26.0756 33.7619 22.7017 35.1381 19.1515 35.1381C11.8745 35.1381 6.5833 29.4583 6.5833 21.6625C6.5833 13.8308 11.8745 8.15111 19.1515 8.15111C22.6675 8.15111 26.0039 9.52561 28.5252 12.0312L29.5182 13.0195L33.8851 8.68014L32.9265 7.69186C29.3059 3.98704 24.4066 1.97803 19.1515 1.97803C8.43031 1.97803 0.371094 10.4441 0.371094 21.6966C0.371094 32.9149 8.46624 41.3469 19.1515 41.3469C24.4426 41.3469 29.3418 39.3021 32.9623 35.5973L33.921 34.609L29.5901 30.2L28.5596 31.2223Z" fill="#112D38"/>
</g>
</svg>
