<svg width="85" height="87" viewBox="0 0 85 87" fill="none" xmlns="http://www.w3.org/2000/svg">
<g clip-path="url(#clip0_618_629)">
<path d="M78.7023 54.1355V52.289C78.7023 43.5296 71.5741 36.4014 62.8148 36.4014C54.0554 36.4014 46.9272 43.5296 46.9272 52.289V54.1355C44.9395 54.3261 43.0824 55.2299 41.7655 56.7587C40.2827 58.4745 39.6224 60.7482 39.9508 62.9937L42.0691 77.4266C42.7752 82.2176 46.959 85.8329 51.7994 85.8329H73.8266C78.6706 85.8329 82.8543 82.2212 83.5569 77.4266L85.6752 62.9937C86.0071 60.7482 85.3433 58.4781 83.8605 56.7587C82.5401 55.2299 80.69 54.3261 78.7023 54.1355ZM62.8148 39.932C69.6288 39.932 75.1718 45.475 75.1718 52.289V54.0543H50.4578V52.289C50.4578 45.475 56.0008 39.932 62.8148 39.932ZM82.187 62.4782L80.0687 76.9112C79.6167 79.9828 76.9335 82.2988 73.8301 82.2988H51.8029C48.6995 82.2988 46.0163 79.9828 45.5644 76.9112L43.4461 62.4782C43.266 61.2496 43.6261 60.0068 44.4381 59.0641C45.2502 58.125 46.4294 57.5848 47.6721 57.5848H77.9644C79.2072 57.5848 80.3864 58.125 81.1984 59.0641C82.0105 60.0068 82.3741 61.2496 82.1905 62.4782H82.187ZM69.8759 1.0957H16.9174C8.15801 1.0957 1.02979 8.22392 1.02979 16.9833V62.8807C1.02979 71.64 8.15801 78.7682 16.9174 78.7682H31.0396C32.0141 78.7682 32.8049 77.9774 32.8049 77.003C32.8049 76.0285 32.0141 75.2377 31.0396 75.2377H16.9174C10.1034 75.2377 4.56036 69.6947 4.56036 62.8807V29.3403H82.2329V41.6973C82.2329 42.6717 83.0238 43.4625 83.9982 43.4625C84.9726 43.4625 85.7635 42.6717 85.7635 41.6973V16.9833C85.7635 8.22392 78.6352 1.0957 69.8759 1.0957ZM4.56036 25.8097V16.9833C4.56036 10.1693 10.1034 4.62627 16.9174 4.62627H69.8759C76.6899 4.62627 82.2329 10.1693 82.2329 16.9833V25.8097H4.56036ZM18.6826 15.218C18.6826 17.1669 17.1009 18.7486 15.1521 18.7486C13.2032 18.7486 11.6215 17.1669 11.6215 15.218C11.6215 13.2691 13.2032 11.6874 15.1521 11.6874C17.1009 11.6874 18.6826 13.2691 18.6826 15.218ZM29.2743 15.218C29.2743 17.1669 27.6927 18.7486 25.7438 18.7486C23.7949 18.7486 22.2132 17.1669 22.2132 15.218C22.2132 13.2691 23.7949 11.6874 25.7438 11.6874C27.6927 11.6874 29.2743 13.2691 29.2743 15.218ZM39.8661 15.218C39.8661 17.1669 38.2844 18.7486 36.3355 18.7486C34.3866 18.7486 32.8049 17.1669 32.8049 15.218C32.8049 13.2691 34.3866 11.6874 36.3355 11.6874C38.2844 11.6874 39.8661 13.2691 39.8661 15.218Z" fill="#323F49"/>
</g>
<defs>
<clipPath id="clip0_618_629">
<rect width="85" height="86" fill="white" transform="translate(0 0.461548)"/>
</clipPath>
</defs>
</svg>
