<svg width="525" height="277" viewBox="0 0 525 277" fill="none" xmlns="http://www.w3.org/2000/svg">
<g clip-path="url(#clip0_674_2003)">
<path d="M512.183 203.778L501.861 203.999L496.621 204.085C494.867 204.124 493.105 204.085 491.35 204.132H491.004V203.778L490.957 194.951V194.558H491.35L501.767 194.605C505.244 194.605 508.713 194.692 512.183 194.731H512.403V194.951C512.403 196.446 512.34 197.933 512.301 199.404L512.183 203.778ZM512.183 203.778L512.073 199.333C512.033 197.87 511.986 196.422 511.97 194.975L512.183 195.195C508.713 195.234 505.244 195.321 501.767 195.321L491.35 195.368L491.744 194.975V203.778L491.39 203.432C493.105 203.432 494.82 203.432 496.543 203.471L501.664 203.605L512.183 203.778Z" fill="#EBEBEB"/>
<path d="M500.563 214.879L490.242 215.099L484.994 215.186C483.248 215.186 481.485 215.186 479.731 215.233H479.385V214.879V206.076V205.682H479.778L490.194 205.737C493.664 205.737 497.141 205.824 500.611 205.863H500.831V206.076C500.831 207.571 500.768 209.057 500.729 210.529L500.563 214.879ZM500.563 214.879L500.453 210.434C500.414 208.971 500.367 207.523 500.351 206.076L500.563 206.296C497.094 206.335 493.617 206.422 490.147 206.422L479.731 206.469L480.124 206.076V214.879L479.77 214.533C481.485 214.533 483.2 214.533 484.923 214.572L490.092 214.667L500.563 214.879Z" fill="#EBEBEB"/>
<path d="M523.803 214.879L513.481 215.099L508.242 215.186C506.487 215.186 504.725 215.186 502.971 215.233H502.624V214.879L502.577 206.076V205.682H502.971L513.387 205.737C516.864 205.737 520.334 205.824 523.803 205.863H524.023V206.076C524.023 207.571 523.952 209.057 523.921 210.529L523.803 214.879ZM523.803 214.879L523.693 210.434C523.693 208.971 523.606 207.523 523.591 206.076L523.803 206.296C520.334 206.335 516.864 206.422 513.387 206.422L502.971 206.469L503.364 206.076V214.879L503.01 214.533C504.733 214.533 506.44 214.533 508.163 214.572L513.34 214.667L523.803 214.879Z" fill="#EBEBEB"/>
<path d="M215.132 99.026L204.81 99.2463L199.571 99.3328C197.816 99.3328 196.054 99.3328 194.3 99.3328H193.953V98.9788L193.906 90.1753V89.782H194.3L204.716 89.8292C208.193 89.8292 211.663 89.9157 215.132 89.9551H215.352V90.1675C215.352 91.6622 215.282 93.1413 215.242 94.6125L215.132 99.026ZM215.132 99.026L215.022 94.5731C215.022 93.1098 214.935 91.6623 214.92 90.2225L215.132 90.435C211.663 90.435 208.193 90.5608 204.716 90.5608L194.3 90.6159L194.693 90.2225L194.654 99.026L194.3 98.672C196.015 98.672 197.73 98.672 199.453 98.7192L204.629 98.8057L215.132 99.026Z" fill="#EBEBEB"/>
<path d="M203.496 110.126L193.175 110.347L187.927 110.433C186.181 110.433 184.418 110.433 182.664 110.473H182.318V110.119L182.255 101.331V100.938H182.648L193.064 100.985C196.534 100.985 200.011 101.071 203.481 101.111H203.701V101.331C203.701 102.826 203.638 104.305 203.599 105.776L203.496 110.126ZM203.496 110.126L203.386 105.674C203.347 104.21 203.3 102.763 203.284 101.323L203.496 101.535C200.027 101.575 196.55 101.661 193.08 101.661L182.664 101.716L183.057 101.323L183.042 110.126L182.688 109.772C184.403 109.772 186.118 109.772 187.841 109.82L193.009 109.906L203.496 110.126Z" fill="#EBEBEB"/>
<path d="M226.751 110.126L216.429 110.347L211.19 110.433C209.435 110.433 207.681 110.433 205.919 110.473H205.573V110.119L205.525 101.331V100.938H205.919L216.335 100.985C219.812 100.985 223.282 101.071 226.751 101.111H226.972V101.331C226.972 102.826 226.901 104.305 226.869 105.776L226.751 110.126ZM226.751 110.126L226.641 105.674C226.641 104.21 226.555 102.763 226.539 101.323L226.751 101.535C223.282 101.575 219.812 101.661 216.335 101.661L205.919 101.716L206.312 101.323L206.273 110.126L205.919 109.772C207.642 109.772 209.349 109.772 211.072 109.82L216.248 109.906L226.751 110.126Z" fill="#EBEBEB"/>
<path d="M45.2702 157.275L34.9484 157.495L29.7009 157.582C27.9544 157.582 26.1921 157.582 24.4377 157.621H24.123V157.267V148.464V148.07H24.5164L34.9326 148.118C38.4021 148.118 41.8794 148.204 45.3489 148.243H45.5692V148.456C45.5692 149.951 45.5062 151.43 45.4669 152.901L45.2702 157.275ZM45.2702 157.275L45.1601 152.822C45.1601 151.359 45.0735 149.911 45.0578 148.472L45.2702 148.684C41.8008 148.723 38.3234 148.81 34.854 148.81L24.4377 148.865L24.8311 148.472L24.7918 157.275L24.4377 156.921C26.1528 156.921 27.8679 156.921 29.5908 156.968L34.7596 157.055L45.2702 157.275Z" fill="#EBEBEB"/>
<path d="M390.627 99.0182L380.305 99.2384L375.066 99.325C373.311 99.3643 371.549 99.325 369.795 99.3643H369.449V99.0103L369.401 90.2068V89.8135H369.795L380.211 89.8607C383.688 89.8607 387.158 89.9551 390.627 89.9944H390.847V90.2068C390.847 91.7016 390.785 93.1885 390.745 94.6518L390.627 99.0182ZM390.627 99.0182L390.517 94.5732C390.478 93.102 390.431 91.6544 390.415 90.2147L390.627 90.4271C387.158 90.4665 383.688 90.553 380.211 90.5609L369.795 90.6081L370.188 90.2147L370.149 99.0182L369.795 98.6641C371.51 98.6641 373.225 98.6641 374.948 98.7113L380.124 98.7979L390.627 99.0182Z" fill="#EBEBEB"/>
<path d="M510.979 13.5169L500.658 13.7372L495.41 13.8237C493.664 13.8237 491.901 13.8237 490.147 13.8709H489.801V13.5169V4.71343V4.32007H490.194L500.61 4.36727C504.08 4.36727 507.557 4.46168 511.027 4.50101H511.247V4.71343C511.247 6.20821 511.184 7.69512 511.145 9.15843L510.979 13.5169ZM510.979 13.5169L510.869 9.07189C510.83 7.60071 510.783 6.15314 510.767 4.71343L510.979 4.92585C507.51 4.92585 504.033 5.05172 500.563 5.05959L490.147 5.10679L490.54 4.71343L490.501 13.5169L490.147 13.1629C491.862 13.1629 493.577 13.1629 495.3 13.2101L500.469 13.2966L510.979 13.5169Z" fill="#EBEBEB"/>
<path d="M522.599 24.6173L512.277 24.8376L507.037 24.9241C505.283 24.9634 503.521 24.9241 501.766 24.9634H501.42V24.6094L501.373 15.806V15.4126H501.766L512.183 15.4598C515.66 15.4598 519.129 15.5542 522.599 15.5935H522.819V15.806C522.819 17.3007 522.748 18.7876 522.709 20.251L522.599 24.6173ZM522.599 24.6173L522.489 20.1723C522.489 18.7011 522.402 17.2535 522.386 15.8138L522.599 16.0262C519.129 16.0656 515.66 16.1521 512.183 16.16L501.766 16.2072L502.16 15.8138V24.6173L501.806 24.2633C503.521 24.2633 505.236 24.2633 506.959 24.3105L512.135 24.397L522.599 24.6173Z" fill="#EBEBEB"/>
<path d="M22.0303 13.5247L11.7006 13.745L6.46097 13.8315C4.71444 13.8315 2.95217 13.8315 1.19778 13.8787H0.84375V13.5247V4.72124V4.32788H1.24498L11.6612 4.38295C15.1307 4.38295 18.6001 4.46949 22.0775 4.50883H22.2899V4.72124C22.2899 6.21602 22.2191 7.70293 22.1876 9.17411L22.0303 13.5247ZM22.0303 13.5247L21.9122 9.0797C21.9122 7.60852 21.8257 6.16095 21.81 4.72124L22.0303 4.93366C18.5529 4.98086 15.0835 5.05953 11.614 5.0674L1.19778 5.11461L1.59114 4.72124L1.54393 13.5247L1.19778 13.2179C2.91284 13.2179 4.62003 13.2179 6.34296 13.2179L11.5196 13.3044L22.0303 13.5247Z" fill="#EBEBEB"/>
<path d="M277.196 122.722C276.231 123.634 275.033 124.263 273.735 124.539C272.948 124.744 272.075 124.862 271.241 125.011H268.393C267.221 124.83 266.033 124.689 264.892 124.461C260.629 123.546 256.59 121.791 253.012 119.3C243.589 113.07 235.65 104.847 229.757 95.2102C227.781 92.0304 226.42 88.5078 225.744 84.8255C225.571 83.8578 225.438 82.8823 225.288 81.9067V79.0588C225.524 77.9652 225.713 76.856 226.004 75.7781C226.291 74.7666 226.833 73.8456 227.577 73.1033C227.719 73.2291 227.845 73.3314 227.971 73.4573C232.502 77.9836 237.036 82.5099 241.573 87.0362C241.72 87.1584 241.825 87.3235 241.873 87.5084C241.921 87.6933 241.91 87.8886 241.841 88.0668C241.496 89.1885 241.45 90.3807 241.706 91.5258C241.963 92.6709 242.514 93.7293 243.304 94.5966C247.174 98.9921 251.318 103.139 255.711 107.011C256.586 107.806 257.655 108.359 258.81 108.614C259.965 108.869 261.166 108.819 262.296 108.467C262.626 108.38 262.862 108.325 263.145 108.608C267.776 113.266 272.418 117.913 277.07 122.549C277.094 122.573 277.125 122.643 277.196 122.722Z" fill="#EBEBEB"/>
<path d="M286.101 112.55V113.494C285.691 114.085 285.247 114.653 284.772 115.193C283.371 116.649 281.924 118.057 280.5 119.481L280.059 119.898L266.071 105.918C267.904 104.108 269.73 102.259 271.618 100.458C271.822 100.268 272.063 100.121 272.325 100.026C272.588 99.9306 272.867 99.8891 273.146 99.9038C273.425 99.9184 273.698 99.989 273.949 100.111C274.2 100.233 274.424 100.405 274.607 100.615C275.661 101.638 276.684 102.684 277.754 103.715C280.185 106.154 282.632 108.577 285.039 111.031C285.432 111.509 285.788 112.017 286.101 112.55Z" fill="#EBEBEB"/>
<path d="M249.432 79.1297C247.701 80.8054 245.931 82.4418 244.216 84.0624L230.338 70.1925C230.645 69.9171 230.999 69.626 231.321 69.3114C232.596 68.0447 233.847 66.7466 235.145 65.5036C235.672 65.0409 236.226 64.6101 236.805 64.2134H237.757C238.287 64.5392 238.792 64.9047 239.267 65.3069C242.666 68.6741 246.051 72.057 249.424 75.4557C250.698 76.7302 250.698 77.8788 249.432 79.1297Z" fill="#EBEBEB"/>
<path d="M16.8535 86.8475H107.901V29.0862H16.8535V86.8475Z" fill="#EBEBEB"/>
<path d="M124.934 86.8476H107.901V69.1069L124.934 86.8476Z" fill="#EBEBEB"/>
<path d="M97.359 39.0696H27.3877V40.171H97.359V39.0696Z" fill="white"/>
<path d="M63.5534 45.0015H27.3877V46.1029H63.5534V45.0015Z" fill="white"/>
<path d="M83.969 56.8577H27.3877V57.9591H83.969V56.8577Z" fill="white"/>
<path d="M97.359 62.7815H27.3877V63.8829H97.359V62.7815Z" fill="white"/>
<path d="M97.359 68.7056H27.3877V69.807H97.359V68.7056Z" fill="white"/>
<path d="M52.2482 74.6375H27.3877V75.7389H52.2482V74.6375Z" fill="white"/>
<path d="M508.147 109.914H417.1V160.855H508.147V109.914Z" fill="#DBDBDB"/>
<path d="M400.067 160.862H417.1V143.122L400.067 160.862Z" fill="#DBDBDB"/>
<path d="M488.762 136.513H427.846V137.615H488.762V136.513Z" fill="white"/>
<path d="M476.237 142.445H427.846V143.547H476.237V142.445Z" fill="white"/>
<path d="M479.888 124.657H427.846V125.759H479.888V124.657Z" fill="white"/>
<path d="M495.795 118.733H427.846V119.835H495.795V118.733Z" fill="white"/>
<path d="M481.256 148.369H427.846V149.471H481.256V148.369Z" fill="white"/>
<path d="M462.148 55.7717H294.961V63.104H462.148V55.7717Z" fill="#EBEBEB"/>
<path d="M311.663 63.1118H304.331V87.3587H311.663V63.1118Z" fill="#EBEBEB"/>
<path d="M311.663 63.1118H304.331V70.6093H311.663V63.1118Z" fill="#DBDBDB"/>
<path d="M452.778 63.1118H445.445V87.3587H452.778V63.1118Z" fill="#EBEBEB"/>
<path d="M452.778 63.1118H445.445V70.6093H452.778V63.1118Z" fill="#DBDBDB"/>
<path d="M337.939 55.7719V9.04834H326.17V55.7719H337.939Z" fill="#C7C7C7"/>
<path d="M337.939 11.6837V6.54639L326.17 6.54639V11.6837H337.939Z" fill="#DBDBDB"/>
<path d="M337.932 20.1727V18.2688H326.162V20.1727H337.932Z" fill="#DBDBDB"/>
<path d="M339.402 49.651V44.5137H326.17V49.651H339.402Z" fill="#DBDBDB"/>
<path d="M346.161 55.7719V1.26758L337.94 1.26758V55.7719H346.161Z" fill="#DBDBDB"/>
<path d="M344.485 27.3554V6.38916H339.553V27.3554H344.485Z" fill="#EBEBEB"/>
<path d="M404.638 49.9498L365.876 11.6321L360.096 17.4788L398.858 55.7965L404.638 49.9498Z" fill="#C7C7C7"/>
<path d="M394.409 42.1142L379.498 27.3745L376.03 30.8825L390.941 45.6223L394.409 42.1142Z" fill="#DBDBDB"/>
<path d="M360.117 55.7877V14.3823H346.153V55.7877H360.117Z" fill="#A6A6A6"/>
<path d="M360.117 51.3899V47.5349H346.153V51.3899H360.117Z" fill="#C7C7C7"/>
<path d="M360.117 45.0092V43.5144H346.153V45.0092H360.117Z" fill="#C7C7C7"/>
<path d="M326.17 55.7874V16.876H316.525V55.7874H326.17Z" fill="#A6A6A6"/>
<path d="M326.17 51.6573V48.0305H316.525V51.6573H326.17Z" fill="#C7C7C7"/>
<path d="M326.17 28.5196V24.8928H316.525V28.5196H326.17Z" fill="#C7C7C7"/>
<path d="M326.17 32.4139V31.0056H316.525V32.4139H326.17Z" fill="#C7C7C7"/>
<path d="M444.572 37.6458L443.526 40.4229L442.881 42.1144L441.827 44.8994L437.72 55.7798H415.511L411.388 44.8994L410.334 42.1144L409.697 40.4229L408.643 37.6458L416.84 25.6954L412.592 17.8203H440.647L436.375 25.6954L444.572 37.6458Z" fill="#DBDBDB"/>
<path d="M444.572 37.6455L443.526 40.4226H409.697L408.643 37.6455H444.572Z" fill="#A6A6A6"/>
<path d="M442.881 42.1143L441.827 44.8993H411.388L410.334 42.1143H442.881Z" fill="#A6A6A6"/>
<path d="M11.3926 267.826L74.1732 267.637L136.946 267.566L262.499 267.44L388.053 267.566L450.826 267.637L513.606 267.826L450.826 268.022L388.053 268.093L262.499 268.219L136.946 268.093L74.1732 268.022L11.3926 267.826Z" fill="#263238"/>
<path d="M255.687 267.81H352.186L332.951 155.882H260.785L255.687 267.81Z" fill="#DBDBDB"/>
<path d="M255.687 267.81H264.152L268.896 155.882H260.785L255.687 267.81Z" fill="#A6A6A6"/>
<path d="M339.535 177.824C350.455 202.213 376.842 242.69 388.65 232.659C406.312 217.664 418.271 184.496 422.991 171.082C425.642 163.569 387.368 150.997 385.024 157.818C381.688 167.51 376.456 187.768 373.427 190.64C371.854 192.143 359.313 174.544 349.826 166.196C336.129 154.167 336.05 170.036 339.535 177.824Z" fill="#AD6359"/>
<path d="M432.551 159.792C429.144 167.455 416.03 180.412 411.671 182.324C407.313 184.236 384.293 163.443 384.773 158.549C385.253 153.656 398.989 128.024 406.597 124.091C414.204 120.157 436.083 151.846 432.551 159.792Z" fill="#AD6359"/>
<path d="M386.574 153.168C386.574 153.168 387.125 142.264 384.371 133.044C382.058 125.295 377.755 114.052 381.869 112.652C390.335 109.78 401.066 137.827 401.066 137.827C401.066 137.827 403.819 150.965 395.692 154.553C390.594 156.803 386.574 153.168 386.574 153.168Z" fill="#AD6359"/>
<path d="M396.118 132.485C396.668 136.899 401.554 133.72 401.554 133.72C401.554 133.72 395.63 140.014 397.958 144.318C400.224 148.479 405.983 144.428 406.4 144.145C406.085 144.483 400.799 150.383 403.591 154.49C406.494 158.754 411.577 153.703 411.907 153.373C411.71 153.774 409.24 159.21 412.072 161.854C416.934 166.377 423.637 152.657 428.798 151.123C428.798 151.123 432.401 159.564 432.551 159.777C432.551 159.777 439.199 146.843 436.744 139.999C436.4 138.999 435.725 138.146 434.831 137.581C433.938 137.016 432.878 136.773 431.827 136.891C431.827 136.891 434.431 132.957 432.338 129.653C431.253 127.962 427.618 128.182 427.618 128.182C427.618 128.182 429.569 124.949 427.524 122.132C425.895 119.874 422.473 120.448 422.473 120.448C422.473 120.448 422.906 116.468 420.498 114.705C415.605 111.149 394.93 123.037 396.118 132.485Z" fill="#AD6359"/>
<path d="M421.882 120.472C421.953 120.433 421.882 120.33 421.843 120.354C414.086 122.604 406.258 127.434 401.27 133.862C401.105 134.074 401.372 134.428 401.6 134.232C408.044 128.607 414.141 124.146 421.882 120.472Z" fill="#263238"/>
<path d="M427.664 128.079C427.751 128.04 427.664 127.898 427.594 127.922C419.608 130.282 410.947 135.994 406.061 144.058C405.896 144.333 406.022 144.75 406.242 144.451C409.892 139.353 420.678 131.36 427.664 128.079Z" fill="#263238"/>
<path d="M411.757 154.041C416.737 146.489 423.636 141.289 431.496 136.969C431.59 136.914 431.496 136.781 431.409 136.804C426.988 137.866 422.267 141.139 418.822 144.003C415.56 146.593 413.037 149.996 411.505 153.868C411.434 154.041 411.654 154.215 411.757 154.041Z" fill="#263238"/>
<path d="M401.396 133.712C401.199 133.964 401.789 133.972 401.6 134.232C400.814 135.317 396.605 142.28 398.532 144.459C400.106 146.198 403.481 145.317 404.661 144.459L407.611 142.327L405.581 145.387C404.668 146.728 403.977 148.208 403.536 149.769C403.291 150.48 403.201 151.235 403.27 151.984C403.339 152.733 403.566 153.458 403.937 154.112C404.284 154.718 404.83 155.186 405.482 155.437C406.134 155.688 406.853 155.706 407.517 155.489C408.996 154.98 410.321 154.099 411.364 152.932L414.353 149.785L412.559 153.719C412.058 154.807 411.696 155.954 411.482 157.133C411.241 158.241 411.331 159.396 411.741 160.453C411.944 160.919 412.272 161.319 412.689 161.609C413.105 161.899 413.594 162.068 414.101 162.097C415.25 161.981 416.342 161.539 417.248 160.823C419.235 159.305 421.099 157.635 422.826 155.827C423.731 154.946 424.636 154.057 425.588 153.207C426.482 152.313 427.554 151.616 428.734 151.162C427.612 151.73 426.613 152.514 425.792 153.467C424.919 154.372 424.085 155.316 423.251 156.268C421.612 158.233 419.795 160.042 417.823 161.673C416.765 162.57 415.469 163.141 414.094 163.317C413.335 163.324 412.59 163.112 411.95 162.706C411.309 162.299 410.799 161.717 410.482 161.027C409.932 159.73 409.781 158.297 410.05 156.913C410.261 155.597 410.645 154.314 411.191 153.097L412.386 153.884C411.174 155.283 409.618 156.341 407.871 156.952C406.892 157.265 405.834 157.226 404.881 156.842C403.96 156.438 403.181 155.767 402.647 154.915C402.178 154.084 401.891 153.164 401.804 152.215C401.718 151.266 401.833 150.309 402.143 149.408C402.646 147.698 403.43 146.084 404.464 144.632L405.384 145.529C403.811 146.552 400.161 147.952 397.415 145.568C394.378 141.879 400.239 134.908 401.396 133.712Z" fill="#263238"/>
<path d="M401.553 133.72C400.703 134.06 399.806 134.269 398.894 134.342C398.528 134.38 398.158 134.319 397.823 134.165C397.488 134.011 397.2 133.771 396.99 133.469C396.62 132.741 396.469 131.92 396.557 131.108C396.605 130.212 396.699 129.275 396.841 128.308C396.241 129.098 395.818 130.007 395.598 130.975C395.446 131.497 395.4 132.043 395.46 132.583C395.521 133.123 395.688 133.646 395.952 134.122C396.296 134.615 396.781 134.994 397.344 135.207C397.886 135.384 398.466 135.406 399.02 135.27C400.007 135.033 400.893 134.491 401.553 133.72Z" fill="#263238"/>
<path d="M382.695 158.549L422.535 186.297C422.535 186.297 398.737 235.601 384.033 235.467C369.329 235.334 348.087 198.405 340.763 182.442C333.438 166.48 337.805 152.956 352.627 167.494C367.449 182.033 372.759 188.028 373.239 187.831C374.136 187.469 382.695 158.549 382.695 158.549Z" fill="#34A1D3"/>
<path d="M422.536 186.297C422.536 186.297 406.014 220.488 392.019 231.848C389.21 234.13 386.512 235.491 384.033 235.459C369.329 235.334 348.088 198.397 340.724 182.442C336.169 172.561 336.13 163.616 340.268 161.688C342.825 160.5 346.955 161.964 352.596 167.518C367.544 182.159 372.72 188.044 373.208 187.847C374.136 187.469 382.704 158.557 382.704 158.557L422.536 186.297Z" fill="#34A1D3"/>
<path d="M397.88 226.027C397.392 226.593 396.896 227.144 396.401 227.679C391.917 230.502 386.887 232.344 381.642 233.084C380.195 233.244 378.738 233.301 377.283 233.257L376.378 232.69C378.115 232.795 379.858 232.751 381.587 232.557C383.657 232.33 385.693 231.86 387.652 231.156L389.139 230.668L390.579 230.063C391.059 229.858 391.554 229.685 392.018 229.449L393.411 228.741C394.96 227.938 396.453 227.031 397.88 226.027ZM367.654 182.592C363.108 184.659 358.961 187.512 355.404 191.017C353.097 193.29 350.965 195.733 349.024 198.326C349.118 198.499 349.221 198.68 349.331 198.853C351.294 196.217 353.459 193.737 355.806 191.434C358.786 188.506 362.182 186.033 365.883 184.094L367.276 183.386C367.532 183.257 367.794 183.141 368.063 183.04L367.654 182.592ZM402.065 185.101C398.287 183.252 394.334 181.784 390.264 180.719C389.839 180.617 389.414 180.515 388.982 180.428C388.706 180.365 388.423 180.302 388.148 180.255C384.709 179.534 381.179 179.354 377.684 179.72C377.173 179.791 376.669 179.87 376.158 179.964C376.103 180.145 376.04 180.334 375.985 180.507C376.567 180.405 377.157 180.318 377.747 180.247C380.991 179.905 384.267 180.04 387.471 180.648L388.329 180.806C388.935 180.932 389.54 181.065 390.146 181.215C394.181 182.255 398.103 183.694 401.853 185.51C407.47 188.266 412.918 191.353 418.169 194.754C418.248 194.621 418.319 194.487 418.382 194.361C413.132 190.953 407.683 187.861 402.065 185.101ZM406.195 174.921C399.817 175.184 393.602 177.017 388.101 180.255L387.424 180.648C386.035 181.481 384.693 182.39 383.404 183.371C376.662 188.5 371.28 195.093 366.159 201.725C363.594 205.053 361.077 208.404 358.417 211.645C358.229 211.881 358.032 212.11 357.835 212.346L358.134 212.778C358.362 212.511 358.591 212.243 358.811 211.992C361.486 208.742 364.011 205.391 366.584 202.071C371.705 195.462 377.079 188.917 383.75 183.858C385.196 182.755 386.709 181.744 388.282 180.829C388.494 180.696 388.714 180.57 388.935 180.452C390.767 179.423 392.676 178.54 394.646 177.808L396.117 177.273C396.605 177.1 397.116 176.982 397.62 176.833L399.123 176.416L400.696 176.109C402.727 175.651 404.806 175.435 406.888 175.464H406.982L406.195 174.921ZM357.3 172.175C354.552 173.397 351.679 174.318 348.733 174.921L347.199 175.22C346.687 175.314 346.168 175.346 345.625 175.417L344.052 175.598L342.478 175.661C341.042 175.76 339.599 175.734 338.167 175.582L338.309 176.101C344.959 176.587 351.624 175.385 357.686 172.608C357.599 172.459 357.45 172.317 357.3 172.175ZM345.956 162.404C343.17 164.297 340.281 166.033 337.302 167.605C337.302 167.817 337.302 168.029 337.302 168.25C340.48 166.587 343.554 164.732 346.506 162.695C346.318 162.593 346.137 162.491 345.956 162.404Z" fill="white"/>
<path d="M413.118 190.923C412.064 190.05 411.002 189.2 409.932 188.35C407.76 186.635 405.589 184.928 403.418 183.229C399.091 179.854 394.669 176.597 390.216 173.395C387.691 171.57 385.205 169.65 382.601 167.943C382.589 167.934 382.574 167.927 382.559 167.923C382.544 167.919 382.529 167.918 382.513 167.92C382.498 167.923 382.483 167.928 382.47 167.936C382.457 167.944 382.445 167.954 382.436 167.966C382.426 167.979 382.42 167.993 382.416 168.008C382.412 168.023 382.411 168.039 382.413 168.054C382.415 168.069 382.421 168.084 382.429 168.097C382.436 168.111 382.447 168.122 382.459 168.132C384.528 169.957 386.747 171.625 388.895 173.363C391.042 175.102 393.175 176.849 395.354 178.548C399.686 181.915 404.071 185.217 408.508 188.453C409.743 189.365 410.962 190.325 412.245 191.183C412.898 191.623 413.519 192.111 414.18 192.536C414.841 192.961 415.549 193.323 416.194 193.802C416.209 193.811 416.226 193.814 416.243 193.81C416.259 193.807 416.274 193.798 416.285 193.785C416.295 193.771 416.301 193.755 416.3 193.738C416.299 193.721 416.292 193.705 416.281 193.692C415.203 192.788 414.196 191.804 413.118 190.923Z" fill="#263238"/>
<path d="M373.545 186.95C372.025 191.06 370.774 195.265 369.8 199.538C369.281 201.646 368.872 203.778 368.471 205.902C368.046 208.013 367.762 210.15 367.621 212.298C367.621 212.377 367.739 212.377 367.755 212.298C368.416 210.245 368.903 208.105 369.375 206.005C369.848 203.904 370.382 201.788 370.855 199.711C371.806 195.478 372.924 191.285 373.75 187.029C373.755 187.015 373.757 187.001 373.757 186.987C373.757 186.972 373.753 186.958 373.748 186.945C373.742 186.932 373.733 186.92 373.723 186.91C373.712 186.9 373.7 186.892 373.687 186.887C373.673 186.882 373.659 186.88 373.645 186.88C373.63 186.88 373.616 186.883 373.603 186.889C373.59 186.895 373.578 186.904 373.568 186.914C373.558 186.924 373.55 186.937 373.545 186.95Z" fill="#263238"/>
<path opacity="0.1" d="M392.019 231.849C389.21 234.13 386.512 235.491 384.033 235.46C369.329 235.334 348.088 198.397 340.724 182.442C336.169 172.561 336.13 163.616 340.268 161.688L392.019 231.849Z" fill="black"/>
<path d="M369.211 267.81H273.568C272.514 265.874 288.186 182.104 320.441 158.51C327.601 153.278 340.298 156.645 343.823 161.736C361.571 187.312 369.211 267.81 369.211 267.81Z" fill="#34A1D3"/>
<path d="M364.239 230.621C361.852 229.776 359.512 228.802 357.229 227.703C354.028 226.169 350.936 224.469 347.86 222.675L347.411 222.408C344.264 220.543 341.117 218.569 338.033 216.578L337.593 216.295L335.5 214.942C328.42 210.403 321.449 205.729 313.889 202.095C310.152 200.226 306.184 198.861 302.088 198.035C300.033 197.669 297.94 197.552 295.857 197.689C295.338 197.689 294.826 197.799 294.284 197.87C293.93 197.941 293.576 197.988 293.214 198.059C293.269 197.933 293.316 197.815 293.379 197.689C293.662 197.634 293.953 197.587 294.236 197.524C294.756 197.461 295.283 197.382 295.81 197.343C297.914 197.202 300.027 197.315 302.104 197.681C306.243 198.5 310.254 199.868 314.03 201.749C321.63 205.383 328.648 210.056 335.713 214.58L337.79 215.91L338.238 216.193C341.385 218.215 344.532 220.221 347.797 222.117L348.245 222.384C351.235 224.123 354.279 225.775 357.41 227.262C359.598 228.308 361.838 229.241 364.121 230.055L364.239 230.621ZM355.727 190.679L355.404 190.986C349.339 196.895 344.807 204.101 340.535 211.307C339.633 212.844 338.726 214.378 337.813 215.91C337.742 216.043 337.672 216.169 337.593 216.295C336.436 218.246 335.272 220.189 334.06 222.101C332.998 223.785 331.889 225.445 330.709 227.05C330.599 227.199 330.497 227.349 330.386 227.49C329.192 229.103 327.905 230.645 326.531 232.108C325.1 233.627 323.518 234.998 321.811 236.199L321.174 236.648C320.961 236.797 320.725 236.915 320.505 237.049L319.16 237.836C318.233 238.304 317.276 238.711 316.296 239.055C312.328 240.373 308.173 241.045 303.992 241.046C299.825 241.029 295.673 240.557 291.609 239.637C287.675 238.803 283.86 237.686 280.012 236.569C280.012 236.695 279.949 236.821 279.91 236.939C283.749 238.064 287.604 239.197 291.522 240.039C295.634 240.977 299.837 241.462 304.055 241.486C308.283 241.488 312.485 240.814 316.501 239.488C317.503 239.143 318.481 238.731 319.427 238.253L320.804 237.466C321.037 237.342 321.263 237.205 321.481 237.057L322.134 236.601C323.867 235.387 325.472 234.001 326.925 232.462C328.389 230.895 329.761 229.242 331.032 227.514C331.15 227.364 331.252 227.223 331.354 227.073C332.471 225.547 333.525 223.981 334.501 222.392C335.72 220.481 336.861 218.537 338.041 216.594L338.269 216.209L340.999 211.598C345.279 204.4 349.811 197.256 355.813 191.419L355.916 191.325C355.845 191.096 355.782 190.884 355.727 190.679ZM360.266 209.364C359.66 210.151 359.047 210.89 358.425 211.646C355.82 214.92 352.909 217.939 349.732 220.661C349.103 221.157 348.473 221.653 347.82 222.117L347.411 222.408C346.501 223.051 345.546 223.629 344.555 224.139L343.871 224.509C343.643 224.634 343.391 224.721 343.155 224.831L341.723 225.445C340.747 225.797 339.748 226.084 338.734 226.302C336.295 226.824 333.808 227.088 331.315 227.089H330.709C329.23 227.089 327.751 226.971 326.28 226.814C322.128 226.291 318.046 225.312 314.109 223.895C310.175 222.534 306.297 220.858 302.442 219.175C298.605 217.439 294.664 215.944 290.641 214.698C289.453 214.36 288.281 214.061 287.022 213.841L286.904 214.179C288.131 214.407 289.351 214.698 290.539 215.044C294.538 216.294 298.456 217.791 302.269 219.529C306.124 221.189 309.979 222.872 313.952 224.249C317.923 225.678 322.038 226.67 326.225 227.207C327.609 227.364 328.994 227.467 330.379 227.49C330.583 227.49 330.78 227.49 330.984 227.49C333.626 227.533 336.264 227.285 338.852 226.751C339.886 226.522 340.905 226.231 341.904 225.877L343.367 225.248C343.611 225.138 343.855 225.051 344.091 224.926L344.791 224.548C345.866 224 346.897 223.372 347.875 222.668L348.284 222.377C348.882 221.944 349.472 221.488 350.055 221.023C353.264 218.29 356.204 215.255 358.834 211.96C359.359 211.315 359.883 210.662 360.408 210.001C360.361 209.797 360.313 209.577 360.266 209.364ZM350.385 174.552C349.834 174.685 349.284 174.811 348.733 174.921L347.199 175.22C346.687 175.315 346.168 175.346 345.625 175.417L344.052 175.598L342.478 175.661C340.401 175.795 338.315 175.684 336.263 175.33C333.045 174.774 329.927 173.743 327.011 172.27L326.225 171.885C325.674 171.601 325.131 171.302 324.596 170.996C320.995 168.881 317.616 166.409 314.51 163.616L314.164 163.962C317.299 166.785 320.706 169.288 324.337 171.436C324.714 171.656 325.123 171.869 325.485 172.073L326.272 172.467C329.383 174.099 332.726 175.242 336.185 175.858C340.979 176.53 345.858 176.263 350.55 175.071C350.519 174.898 350.448 174.725 350.385 174.552ZM344.783 163.183C340.605 165.986 336.147 168.346 331.48 170.225C329.788 170.884 328.056 171.438 326.295 171.885L325.556 172.073C323.511 172.549 321.434 172.872 319.341 173.041L317.767 173.143C317.248 173.183 316.729 173.143 316.194 173.143H314.62L313.047 173.017C311.152 172.908 309.274 172.594 307.446 172.081C307.335 172.231 307.225 172.38 307.123 172.538C313.406 174.115 319.985 174.091 326.256 172.467L327.043 172.27C328.612 171.854 330.157 171.35 331.669 170.76C336.36 168.868 340.842 166.495 345.043 163.679L344.783 163.183ZM368.314 259.581C367.528 259.581 366.678 259.652 365.86 259.675H365.797L365.317 259.715C361.285 260.136 357.367 261.302 353.76 263.152C351.179 264.5 348.714 266.058 346.388 267.81H346.884C349.103 266.167 351.449 264.704 353.902 263.436C357.54 261.578 361.495 260.423 365.561 260.029H365.852H366.041C366.828 260.029 367.567 259.943 368.322 259.951C368.338 259.809 368.33 259.699 368.314 259.581ZM368.724 263.2C367.869 262.114 366.985 261.047 366.072 259.998C365.986 259.888 365.891 259.785 365.797 259.683L365.474 259.305C362.726 256.102 359.564 253.276 356.073 250.903C354.301 249.747 352.393 248.814 350.393 248.126C349.897 247.961 349.378 247.819 348.874 247.678C348.371 247.536 347.844 247.426 347.301 247.355C346.263 247.158 345.2 247.143 344.154 247.04C339.924 246.886 335.705 247.556 331.732 249.015C327.795 250.512 324.036 252.438 320.521 254.758C314.227 258.81 308.492 263.577 302.363 267.81H302.623C308.72 263.648 314.424 258.967 320.655 255.002C324.156 252.698 327.903 250.79 331.826 249.314C335.76 247.874 339.937 247.214 344.123 247.371C345.153 247.481 346.207 247.497 347.23 247.693C347.749 247.764 348.245 247.914 348.756 248.016C349.268 248.118 349.763 248.291 350.251 248.456C352.223 249.139 354.102 250.064 355.845 251.21C359.306 253.567 362.436 256.377 365.152 259.565C365.199 259.62 365.246 259.667 365.286 259.722L365.561 260.029C366.662 261.312 367.74 262.618 368.779 263.963C368.786 263.711 368.755 263.467 368.708 263.2H368.724Z" fill="white"/>
<path d="M307.744 168.777C288.273 191.301 262.028 231.085 272.751 239.881C290.381 254.341 341.872 262.696 353.689 264.096C358.787 264.71 368.999 231.384 365.592 227.073C362.186 222.762 307.744 219.717 307.375 216.374C307.162 214.478 315.431 197.988 320.749 177.761C326.862 154.443 313.228 162.428 307.744 168.777Z" fill="#AD6359"/>
<path d="M356.67 224.327C356.67 224.327 372.295 224.209 382.514 224.611C388.218 224.831 397.958 226.09 402.072 228.175C408.224 231.282 431.968 248.236 427.987 254.081C424.376 259.368 405.825 242.218 405.825 242.218C405.825 242.218 426.075 257.873 420.56 263.459C415.045 269.045 396.66 246.875 396.66 246.875C396.66 246.875 417.114 263.396 410.514 268.274C405.526 271.932 387.746 252.799 387.746 252.799C387.746 252.799 405.219 267.141 400.255 271.13C394.748 275.535 377.243 258.904 377.243 258.904C362.925 266.913 352.855 264.867 345.774 262.562C344.114 261.972 356.67 224.327 356.67 224.327Z" fill="#AD6359"/>
<path d="M399.17 236.357C401.616 238.111 404.102 239.865 406.384 241.864C408.665 243.862 410.876 245.868 412.969 248.039C418.09 253.358 420.466 257.48 420.285 257.244C416.163 251.588 408.107 244.436 405.825 242.469C403.544 240.503 401.365 238.434 399.091 236.475C399.036 236.388 399.115 236.317 399.17 236.357Z" fill="#263238"/>
<path d="M391.931 244.468C394.952 246.828 398.044 249.078 400.963 251.588C403.882 254.097 407.831 257.716 410.561 260.407C410.765 260.611 410.561 261.005 410.341 260.808C407.508 258.228 403.299 254.703 400.436 252.154C397.572 249.605 394.811 246.954 391.868 244.523C391.821 244.515 391.884 244.428 391.931 244.468Z" fill="#263238"/>
<path d="M384.442 250.305C389.249 253.696 393.427 257.968 397.423 262.255C397.628 262.468 397.423 262.499 397.171 262.295C392.931 258.243 389.627 255.033 384.324 250.494C384.261 250.399 384.364 250.234 384.442 250.305Z" fill="#263238"/>
<path d="M354.475 223.832C361.603 223.785 382.538 223.73 389.65 224.28C395.944 224.76 401.128 226.113 406.407 229.606C417.736 237.096 425.037 245.892 426.862 248.488C427.963 250.061 429.561 252.602 428.105 254.365C426.319 256.504 419.75 254.412 412.819 248.142C412.567 247.913 412.725 247.772 412.984 247.984C422.716 255.852 426.587 254.955 427.602 253.609C428.262 252.736 427.602 251.249 427.035 250.069C426.087 248.399 424.929 246.858 423.589 245.482C419.119 240.7 414.174 236.385 408.83 232.604C403.105 228.33 396.285 225.769 389.162 225.216C381.877 224.619 361.721 224.807 354.444 224.107C354.295 224.06 354.318 223.84 354.475 223.832Z" fill="#263238"/>
<path d="M421.717 260.312C421.316 258.369 419.916 256.591 418.806 254.986C417.459 252.966 415.912 251.087 414.188 249.377C414.118 249.306 413.984 249.377 414.055 249.487C415.522 251.203 416.886 253.005 418.138 254.884C418.803 255.917 419.407 256.989 419.947 258.094C420.459 259.156 421.064 260.383 420.797 261.595C420.293 263.908 417.351 263.853 415.612 263.231C414.486 262.807 413.401 262.28 412.371 261.658C410.968 260.764 409.637 259.761 408.39 258.66C408.288 258.566 408.005 258.605 408.115 258.707C410.711 261.178 415.628 266.315 419.64 264.435C420.41 264.094 421.038 263.497 421.417 262.746C421.796 261.994 421.902 261.134 421.717 260.312Z" fill="#263238"/>
<path d="M356.907 222.305L338.191 264.789C338.191 264.789 272.783 250.022 268.991 237.607C265.199 225.193 285.693 191.977 304.189 171.239C322.378 150.863 325.068 164.686 320.545 180.444C316.021 196.202 308.602 214.367 309.428 215.728C310.254 217.089 356.907 222.305 356.907 222.305Z" fill="#34A1D3"/>
<path d="M313.637 201.56C313.59 201.678 313.55 201.804 313.503 201.922C309.87 200.134 306.019 198.828 302.048 198.035C299.993 197.669 297.901 197.552 295.817 197.689C295.298 197.689 294.787 197.799 294.244 197.87C293.701 197.941 293.221 198.027 292.718 198.169C291.695 198.389 290.727 198.782 289.728 199.089C285.873 200.556 282.337 202.752 279.312 205.556L279.808 204.699C282.693 202.151 286.013 200.144 289.61 198.775C290.617 198.46 291.601 198.059 292.639 197.838C293.15 197.697 293.678 197.634 294.213 197.524C294.747 197.414 295.259 197.382 295.786 197.343C297.89 197.201 300.003 197.315 302.08 197.681C306.084 198.466 309.969 199.77 313.637 201.56ZM348.253 222.384L347.804 222.117L346.01 221.055L344.925 220.929C345.712 221.424 346.569 221.928 347.395 222.408L347.844 222.675C350.204 224.052 352.564 225.374 354.987 226.609L355.176 226.176C352.847 224.973 350.542 223.706 348.253 222.384ZM335.484 219.78C335.012 220.567 334.532 221.354 334.044 222.101C332.982 223.785 331.873 225.445 330.693 227.05C330.583 227.199 330.481 227.348 330.37 227.49C329.176 229.103 327.889 230.645 326.515 232.108C325.084 233.627 323.502 234.998 321.795 236.199L321.158 236.648C320.945 236.797 320.709 236.915 320.489 237.049L319.144 237.836C318.217 238.303 317.26 238.711 316.28 239.055C312.312 240.373 308.157 241.045 303.976 241.045C299.814 241.028 295.667 240.555 291.608 239.637C287.51 238.764 283.489 237.576 279.454 236.404C275.874 235.365 272.271 234.319 268.589 233.634C268.589 233.76 268.589 233.886 268.589 234.004C272.231 234.689 275.795 235.743 279.359 236.773C283.387 237.954 287.423 239.134 291.538 240.038C295.65 240.976 299.852 241.462 304.07 241.486C308.299 241.488 312.501 240.814 316.516 239.488C317.519 239.143 318.496 238.73 319.443 238.252L320.82 237.466C321.052 237.342 321.278 237.205 321.496 237.057L322.149 236.6C323.882 235.387 325.488 234 326.94 232.462C328.405 230.895 329.776 229.242 331.047 227.514C331.165 227.364 331.267 227.223 331.37 227.073C332.487 225.547 333.541 223.981 334.516 222.392C335.051 221.558 335.571 220.709 336.09 219.867L335.484 219.78ZM348.795 221.354C348.473 221.605 348.142 221.857 347.804 222.093L347.395 222.384C346.485 223.027 345.53 223.605 344.539 224.115L343.855 224.485C343.627 224.611 343.375 224.697 343.139 224.807L341.707 225.421C340.731 225.774 339.732 226.06 338.718 226.279C336.279 226.801 333.792 227.064 331.299 227.065H330.693C329.214 227.065 327.735 226.947 326.264 226.79C322.112 226.267 318.03 225.288 314.093 223.871C310.159 222.51 306.281 220.834 302.426 219.151C298.589 217.415 294.648 215.92 290.625 214.674C286.589 213.518 282.286 212.888 278.108 213.707C276.779 213.974 275.493 214.421 274.285 215.036C274.206 215.194 274.127 215.359 274.057 215.516C275.349 214.827 276.735 214.329 278.171 214.037C282.278 213.25 286.526 213.864 290.523 215.021C294.522 216.27 298.44 217.768 302.253 219.505C306.108 221.165 309.963 222.848 313.936 224.225C317.911 225.663 322.032 226.663 326.224 227.207C327.609 227.364 328.994 227.466 330.378 227.49C330.583 227.49 330.779 227.49 330.984 227.49C333.626 227.533 336.264 227.285 338.851 226.751C339.886 226.522 340.905 226.23 341.904 225.877L343.367 225.248C343.611 225.138 343.855 225.051 344.091 224.925L344.791 224.548C345.865 224 346.896 223.372 347.875 222.667L348.284 222.376C348.693 222.077 349.071 221.763 349.511 221.448L348.795 221.354ZM314.541 163.577C314.203 163.278 313.873 162.987 313.542 162.68L313.118 162.955L314.219 163.938C316.78 166.232 319.516 168.323 322.401 170.193C322.401 169.996 322.401 169.8 322.401 169.611C319.639 167.807 317.017 165.797 314.557 163.6L314.541 163.577ZM319.325 173.017L317.751 173.12C317.232 173.159 316.713 173.12 316.178 173.12H314.604L313.031 172.994C310.951 172.869 308.891 172.505 306.895 171.908C306.021 171.648 305.156 171.349 304.306 171.003L304.117 171.216L303.936 171.42C304.854 171.805 305.791 172.138 306.745 172.419C311.728 173.75 316.931 174.039 322.031 173.269C322.031 173.072 322.086 172.884 322.118 172.687C321.244 172.86 320.292 172.97 319.34 173.041L319.325 173.017ZM344.154 247.017C339.923 246.87 335.703 247.548 331.731 249.015C327.795 250.512 324.035 252.438 320.521 254.758C318.554 256.032 316.634 257.37 314.738 258.747L315.045 258.833C316.886 257.504 318.75 256.221 320.662 255.002C324.164 252.698 327.911 250.79 331.834 249.314C335.767 247.874 339.944 247.214 344.13 247.371C344.673 247.426 345.216 247.457 345.759 247.504L345.908 247.174C345.35 247.127 344.752 247.095 344.17 247.04L344.154 247.017Z" fill="white"/>
<path d="M330.685 257.763C331.322 256.552 331.936 255.34 332.55 254.121C333.782 251.65 335.01 249.175 336.232 246.694C338.655 241.769 340.952 236.781 343.163 231.746C344.429 228.898 345.806 226.082 346.947 223.179C346.96 223.149 346.962 223.116 346.951 223.086C346.94 223.056 346.917 223.031 346.888 223.017C346.859 223.004 346.825 223.002 346.795 223.014C346.765 223.025 346.74 223.047 346.727 223.076C345.365 225.476 344.185 227.986 342.927 230.448C341.668 232.91 340.385 235.349 339.174 237.835C336.761 242.76 334.422 247.725 332.156 252.728C331.519 254.128 330.827 255.513 330.252 256.945C329.954 257.677 329.607 258.385 329.316 259.124C329.025 259.864 328.805 260.619 328.53 261.351C328.526 261.358 328.524 261.367 328.524 261.375C328.523 261.384 328.524 261.392 328.527 261.4C328.53 261.408 328.535 261.416 328.541 261.422C328.546 261.428 328.553 261.434 328.561 261.437C328.569 261.441 328.577 261.443 328.586 261.443C328.594 261.444 328.603 261.442 328.611 261.439C328.619 261.436 328.626 261.432 328.633 261.426C328.639 261.42 328.644 261.413 328.648 261.406C329.285 260.186 330.032 259.006 330.685 257.763Z" fill="#263238"/>
<path d="M339.598 261.87L338.284 264.844L338.245 264.938H338.119C331.927 263.79 325.775 262.413 319.662 260.879C313.55 259.345 307.484 257.606 301.481 255.671C295.457 253.767 289.549 251.513 283.788 248.92C280.897 247.62 278.104 246.111 275.433 244.405C274.1 243.535 272.839 242.559 271.664 241.486C270.453 240.447 269.524 239.118 268.966 237.623C269.662 239.027 270.678 240.248 271.932 241.187C273.173 242.141 274.492 242.991 275.873 243.728C278.606 245.247 281.427 246.6 284.323 247.78C290.105 250.179 296.045 252.225 302.016 254.144C307.987 256.064 314.014 257.85 320.056 259.565C326.098 261.28 332.163 262.979 338.237 264.608L338.08 264.686L339.598 261.87Z" fill="#263238"/>
<path d="M356.16 223.958L356.812 222.266L356.883 222.384C350.322 221.951 343.769 221.424 337.215 220.74C330.662 220.055 324.148 219.308 317.634 218.333C316.005 218.081 314.377 217.813 312.748 217.499C311.961 217.333 311.12 217.176 310.278 216.94C310.065 216.877 309.861 216.814 309.633 216.728C309.502 216.685 309.375 216.63 309.255 216.562C309.163 216.513 309.076 216.455 308.995 216.389C308.911 216.318 308.839 216.233 308.783 216.138C308.751 216.076 308.722 216.013 308.696 215.949C308.692 215.917 308.692 215.886 308.696 215.854C308.665 215.555 308.681 215.252 308.744 214.957C308.783 214.745 308.822 214.517 308.877 214.32C309.711 211.055 310.765 207.971 311.835 204.88C313.975 198.657 316.304 192.512 318.759 186.407C316.863 192.701 314.919 198.995 312.984 205.289C312.056 208.436 311.033 211.582 310.317 214.729C310.27 214.926 310.246 215.107 310.207 215.296C310.168 215.485 310.207 215.705 310.168 215.626C310.159 215.584 310.143 215.544 310.12 215.508C310.12 215.43 309.979 215.351 310.01 215.367C309.971 215.367 310.042 215.382 310.01 215.367L310.207 215.445L310.726 215.61C311.513 215.815 312.3 215.964 313.086 216.122C314.66 216.413 316.304 216.665 317.917 216.909C321.158 217.396 324.405 217.855 327.656 218.285L337.42 219.599C343.926 220.465 350.432 221.393 356.938 222.345H357.056L357.009 222.447L356.16 223.958Z" fill="#263238"/>
<path d="M319.458 190.435C318.997 191.545 318.413 192.601 317.72 193.582C317.067 194.586 316.272 195.49 315.359 196.265C315.957 195.219 316.595 194.227 317.271 193.244C317.928 192.254 318.659 191.315 319.458 190.435Z" fill="#263238"/>
<path d="M338.521 175.904C332.967 177.478 322.96 169.351 318.853 162.577C318.57 162.113 319.687 142.98 319.514 139.164C319.514 138.378 343.698 143.885 343.698 143.885C343.698 143.885 341.707 151.988 342.053 158.636C342.077 159.202 343.879 174.378 338.521 175.904Z" fill="#AD6359"/>
<path d="M319.144 151.146C330.465 159.139 341.494 156.071 341.959 155.93C342.145 151.874 342.706 147.845 343.634 143.893C343.634 143.893 319.403 138.386 319.443 139.172C319.584 140.958 319.387 146.119 319.144 151.146Z" fill="#263238"/>
<path d="M343.58 128.127C344.201 133.775 348.725 137.914 353.673 137.363C358.622 136.812 362.139 131.801 361.541 126.16C360.943 120.519 356.403 116.373 351.447 116.924C346.491 117.475 342.958 122.486 343.58 128.127Z" fill="#455A64"/>
<path d="M340.716 128.803C341.409 135.097 346.436 139.684 351.943 139.078C357.45 138.472 361.384 132.894 360.668 126.608C359.952 120.322 354.956 115.728 349.441 116.334C343.926 116.939 340.024 122.525 340.716 128.803Z" fill="#C7C7C7"/>
<path d="M316.162 110.418C313.518 118.898 317.853 143.46 323.856 148.967C332.565 156.952 346.899 157.794 353.696 147.315C360.289 137.15 354.074 105.249 347.355 100.237C337.466 92.8422 320.064 97.9008 316.162 110.418Z" fill="#AD6359"/>
<path d="M336.57 125.837C336.57 125.782 336.46 125.94 336.475 126.01C336.837 127.647 336.987 129.59 335.602 130.424C335.555 130.424 335.602 130.534 335.602 130.511C337.404 129.905 337.183 127.332 336.57 125.837Z" fill="#263238"/>
<path d="M334.768 124.398C332.078 124.705 332.888 130.07 335.382 129.787C337.876 129.504 337.026 124.146 334.768 124.398Z" fill="#263238"/>
<path d="M346.121 124.547C346.121 124.484 346.262 124.61 346.27 124.681C346.467 126.349 346.978 128.221 348.56 128.552C348.607 128.552 348.622 128.646 348.56 128.646C346.679 128.662 346.042 126.16 346.121 124.547Z" fill="#263238"/>
<path d="M347.339 122.572C349.983 121.967 350.998 127.293 348.551 127.859C346.104 128.426 345.105 123.099 347.339 122.572Z" fill="#263238"/>
<path d="M332.282 122.266C332.957 121.954 333.613 121.605 334.249 121.219C334.992 120.948 335.625 120.439 336.05 119.772C336.142 119.535 336.154 119.275 336.083 119.032C336.011 118.789 335.862 118.576 335.657 118.426C335.209 118.192 334.707 118.081 334.202 118.106C333.697 118.131 333.208 118.29 332.785 118.568C331.837 118.995 331.082 119.761 330.669 120.716C330.586 120.938 330.57 121.181 330.623 121.412C330.676 121.644 330.796 121.855 330.967 122.019C331.139 122.184 331.354 122.295 331.588 122.339C331.821 122.383 332.063 122.357 332.282 122.266Z" fill="#263238"/>
<path d="M349.039 119.575C348.296 119.538 347.556 119.462 346.821 119.347C346.031 119.377 345.254 119.144 344.61 118.686C344.433 118.502 344.323 118.265 344.296 118.011C344.268 117.758 344.327 117.503 344.461 117.286C344.79 116.901 345.215 116.61 345.693 116.443C346.172 116.276 346.685 116.238 347.183 116.334C348.221 116.377 349.206 116.806 349.944 117.537C350.102 117.712 350.207 117.93 350.244 118.163C350.281 118.396 350.25 118.635 350.154 118.85C350.059 119.066 349.902 119.249 349.704 119.378C349.506 119.507 349.275 119.575 349.039 119.575Z" fill="#263238"/>
<path d="M337.483 141.407C337.939 141.737 338.419 142.193 339.056 142.193C339.672 142.089 340.259 141.856 340.779 141.509C340.788 141.497 340.802 141.49 340.817 141.489C340.831 141.487 340.846 141.492 340.858 141.501C340.869 141.51 340.876 141.524 340.878 141.539C340.879 141.554 340.875 141.568 340.866 141.58C340.679 141.944 340.396 142.25 340.048 142.465C339.7 142.68 339.3 142.795 338.891 142.799C338.539 142.764 338.207 142.624 337.935 142.398C337.663 142.173 337.464 141.871 337.365 141.533C337.294 141.454 337.412 141.359 337.483 141.407Z" fill="#263238"/>
<path d="M338.474 136.175C338.995 136.767 339.633 137.246 340.348 137.58C341.063 137.915 341.839 138.098 342.628 138.118C343.319 138.145 344.01 138.074 344.681 137.906C344.811 137.882 344.937 137.845 345.059 137.795C345.179 137.765 345.297 137.728 345.413 137.685C345.499 137.656 345.573 137.6 345.625 137.524C345.676 137.449 345.701 137.359 345.696 137.268C345.691 137.212 345.678 137.156 345.657 137.103V136.962C345.492 135.679 345.075 133.752 345.075 133.752C345.578 133.917 348.127 134.625 347.985 133.964C346.821 128.457 345.523 122.384 343.202 117.183C343.186 117.149 343.159 117.122 343.125 117.106C343.09 117.09 343.052 117.087 343.015 117.098C342.979 117.108 342.948 117.131 342.927 117.163C342.907 117.195 342.898 117.232 342.903 117.27C343.816 122.58 345.657 127.694 346.664 133.004C345.757 132.738 344.816 132.603 343.871 132.603C343.698 132.682 344.744 136.309 344.768 136.891C344.773 136.911 344.773 136.933 344.768 136.954C342.659 137.552 340.944 137.15 338.639 136.025C338.466 135.947 338.356 136.057 338.474 136.175Z" fill="#263238"/>
<path d="M343.824 137.371C343.265 138.389 342.452 139.245 341.464 139.857C340.913 140.171 340.278 140.308 339.647 140.25C338.27 140.101 338.073 138.889 338.136 137.811C338.188 137.238 338.307 136.673 338.49 136.128C340.091 137.099 341.959 137.535 343.824 137.371Z" fill="#263238"/>
<path d="M341.455 139.88C340.904 140.194 340.27 140.332 339.638 140.274C338.261 140.124 338.064 138.913 338.127 137.835C339.599 137.74 341.125 138.496 341.455 139.88Z" fill="#FF99BA"/>
<path opacity="0.2" d="M320.19 119.142C319.222 121.581 317.232 127.308 316.099 127.71C315.021 119.748 314.982 112.526 316.957 108.089C317.773 106.256 318.92 104.589 320.34 103.172C320.505 105.304 321.221 116.593 320.19 119.142Z" fill="#263238"/>
<path d="M341.471 107.758C340.797 108.926 339.835 109.901 338.676 110.59C337.518 111.278 336.202 111.658 334.854 111.692C333.483 111.728 332.125 111.413 330.909 110.777C329.693 110.141 328.66 109.205 327.908 108.057C327.903 108.05 327.898 108.044 327.891 108.039C327.885 108.034 327.877 108.03 327.869 108.028C327.861 108.025 327.853 108.025 327.845 108.026C327.836 108.027 327.828 108.03 327.821 108.034C327.814 108.038 327.807 108.043 327.802 108.05C327.797 108.057 327.793 108.064 327.791 108.072C327.789 108.08 327.789 108.089 327.79 108.097C327.791 108.105 327.793 108.113 327.797 108.12C328.482 109.401 329.503 110.47 330.751 111.212C331.999 111.953 333.426 112.34 334.878 112.329C336.3 112.249 337.676 111.796 338.868 111.016C340.06 110.236 341.025 109.156 341.667 107.884C341.684 107.858 341.69 107.827 341.683 107.796C341.676 107.766 341.658 107.74 341.632 107.723C341.606 107.706 341.574 107.701 341.544 107.707C341.514 107.714 341.487 107.732 341.471 107.758Z" fill="#263238"/>
<path d="M357.882 95.0998C356.748 93.0093 354.912 91.3873 352.697 90.521C349.629 89.3095 346.553 90.1198 343.508 90.9931C343.492 90.9931 343.476 90.9997 343.464 91.0115C343.452 91.0233 343.445 91.0393 343.445 91.056C343.445 91.0727 343.452 91.0887 343.464 91.1005C343.476 91.1123 343.492 91.119 343.508 91.119C346.097 90.3873 348.771 89.7973 351.415 90.5997C353.603 91.2543 355.498 92.6437 356.78 94.5333C358.031 96.4902 358.536 98.8318 358.202 101.13C357.868 103.428 356.719 105.53 354.963 107.05C353.928 107.899 352.731 108.528 351.444 108.897C350.157 109.266 348.809 109.369 347.481 109.198C347.379 109.198 347.332 109.34 347.442 109.355C349.249 109.662 351.106 109.458 352.804 108.768C354.502 108.078 355.974 106.927 357.054 105.446C358.135 103.966 358.781 102.213 358.92 100.385C359.059 98.5575 358.686 96.7272 357.842 95.0998H357.882Z" fill="#263238"/>
<path d="M315.447 115.319C315.447 115.319 309.759 108.01 312.512 102.731C314.086 99.7338 320.86 98.9078 320.86 98.9078C320.86 98.9078 322.433 95.4383 327.791 93.1883C333.148 90.9383 340.378 92.26 340.378 92.26C340.378 92.26 345.185 88.2634 350.692 90.246C358.371 93.0152 359.346 103.801 352.926 108.443C348.411 111.708 340.952 108.514 340.952 108.514C340.323 108.71 334.423 113.84 328.412 108.828C328.412 108.828 324.99 113.14 320.907 111.252C320.52 112.406 319.79 113.414 318.814 114.141C317.838 114.868 316.663 115.279 315.447 115.319Z" fill="#263238"/>
<path d="M321.284 130.44C321.284 130.44 315.628 122.572 312.056 124.61C308.484 126.648 312.843 138.079 317.059 139.558C317.589 139.791 318.16 139.914 318.739 139.921C319.317 139.928 319.891 139.818 320.426 139.597C320.961 139.377 321.446 139.051 321.851 138.638C322.257 138.226 322.575 137.736 322.787 137.198L321.284 130.44Z" fill="#AD6359"/>
<path d="M313.377 127.867C313.307 127.867 313.299 127.954 313.377 127.977C316.359 129.142 317.956 131.864 319.089 134.696C318.192 133.61 316.988 133.028 315.533 134.098C315.454 134.153 315.533 134.271 315.612 134.255C316.13 134.09 316.686 134.088 317.206 134.25C317.725 134.412 318.182 134.73 318.515 135.16C319.074 135.892 319.552 136.684 319.939 137.52C320.08 137.78 320.552 137.63 320.45 137.331V137.261C320.45 133.437 317.437 128.19 313.377 127.867Z" fill="#263238"/>
<path d="M316.572 124.933C316.572 124.933 313.511 112.738 315.895 105.264C318.546 96.9566 328.545 88.8219 340.362 92.2756C340.362 92.2756 327.247 93.9671 320.875 104.926C317.948 109.961 320.757 124.5 320.757 124.5L316.572 124.933Z" fill="#C7C7C7"/>
<path d="M329.269 129.039C330.465 135.333 326.979 141.265 321.472 142.319C315.965 143.374 310.521 139.172 309.317 132.879C308.114 126.585 311.607 120.653 317.114 119.599C322.621 118.545 328.065 122.761 329.269 129.039Z" fill="#C7C7C7"/>
<path d="M326.295 129.244C327.373 134.885 324.234 140.258 319.285 141.179C314.337 142.099 309.443 138.307 308.366 132.674C307.288 127.041 310.419 121.66 315.368 120.739C320.316 119.819 325.209 123.595 326.295 129.244Z" fill="#455A64"/>
<path d="M14.1309 267.81H110.631L91.3872 155.882H19.2288L14.1309 267.81Z" fill="#DBDBDB"/>
<path d="M14.1309 267.81H22.5882L27.34 155.882H19.2288L14.1309 267.81Z" fill="#A6A6A6"/>
<path d="M71.3257 107.066C62.3649 115.98 59.7923 130.668 59.7923 130.668C59.7923 130.668 51.2013 145.451 53.6008 153.483C54.2355 155.761 55.4131 157.85 57.0328 159.573C58.6524 161.295 60.6656 162.599 62.8999 163.372L62.0502 158.935C62.0502 158.935 64.9296 164.639 74.5513 166.936C84.1729 169.233 96.9021 166.275 103.526 162.924C107.452 160.958 110.803 158.009 113.25 154.364L110.772 160.815C110.772 160.815 120.11 160.485 125.657 150.549C131.203 140.612 115.272 126.333 113.919 123.257C112.566 120.181 110.851 97.7673 87.2726 101.63C87.3041 101.575 77.5251 100.93 71.3257 107.066Z" fill="#263238"/>
<path d="M59.5242 162.735C57.0696 160.902 54.6465 158.801 53.2933 156.205C51.8178 153.514 51.2939 150.404 51.8064 147.378C52.4594 143.751 54.3711 140.549 56.2278 137.426C58.0845 134.303 60.3188 131.132 62.1833 127.851C62.2856 127.671 62.0102 127.521 61.8843 127.663C59.7894 130.123 57.8352 132.7 56.0311 135.38C54.1854 137.832 52.6329 140.491 51.4052 143.303C50.2577 145.892 49.8807 148.757 50.3195 151.555C50.7836 153.83 51.7933 155.957 53.2618 157.755C55.0005 159.918 57.1955 161.303 59.3983 162.932C59.5242 163.034 59.6579 162.837 59.5242 162.735Z" fill="#263238"/>
<path d="M127.679 140.274C124.846 132.021 117.451 126.781 112.912 119.583C110.473 115.689 108.577 111.377 105.399 107.994C105.312 107.9 105.155 108.05 105.233 108.144C107.845 111.189 109.356 114.855 111.244 118.371C113.256 121.832 115.606 125.084 118.261 128.08C122.935 133.681 128.528 140.313 127.458 148.157C126.963 151.776 124.823 155.788 121.109 156.913C120.968 156.96 121.054 157.196 121.196 157.133C122.66 156.545 123.99 155.665 125.103 154.547C126.216 153.428 127.09 152.094 127.671 150.627C128.922 147.29 128.925 143.613 127.679 140.274Z" fill="#263238"/>
<path d="M128.017 142.492C128.273 139.367 127.553 136.239 125.956 133.54C124.327 130.88 121.771 128.961 119.214 127.246C116.264 125.287 113.156 123.422 111.284 120.315C111.205 120.181 111.016 120.315 111.087 120.448C114.061 125.578 119.741 127.97 123.541 132.289C127.907 137.221 127.915 144.404 124.91 150.045C123 153.484 120.304 156.422 117.042 158.62C116.987 158.62 117.042 158.738 117.105 158.699C122.667 155.049 127.569 149.431 128.017 142.492Z" fill="#263238"/>
<path d="M92.3627 180.09C116.24 193.197 144.822 209.647 162.334 205.777C170.099 204.062 204.967 158.353 206.446 153.066C207.712 148.527 176.141 130.251 172.617 133.831C166.669 139.833 150.588 173.631 148.228 174.198C145.868 174.764 125.822 170.697 104.958 166.928C84.881 163.325 75.7864 170.996 92.3627 180.09Z" fill="#EB9481"/>
<path d="M203.055 158.762C205.777 155.332 216.885 138.512 218.923 133.138C220.96 127.765 225.728 111.897 221.779 109.898C217.829 107.9 216.083 112.424 216.083 112.424C216.083 112.424 217.035 105.398 212.873 103.77C208.711 102.141 206.194 109.277 206.194 109.277C206.194 109.277 206.642 101.992 202.37 100.623C198.098 99.2541 196.777 106.917 196.777 106.917C196.777 106.917 197.5 100.277 193.52 100.623C188.736 101.087 188.799 113.486 186.093 119.245C185.479 120.551 171.767 144.876 171.767 144.876L203.055 158.762Z" fill="#EB9481"/>
<path d="M196.871 106.295C196.871 115.413 195.298 119.41 190.578 127.01C190.483 127.151 190.68 127.324 190.798 127.183C196.148 120.165 198.838 115.445 197.343 106.272C197.241 105.823 196.871 105.863 196.871 106.295Z" fill="#263238"/>
<path d="M206.147 108.561C205.36 118.002 203.677 122.376 199.263 130.707C199.2 130.825 199.397 130.943 199.468 130.825C204.479 123.021 207.06 118.238 206.619 108.679C206.643 108.246 206.186 108.128 206.147 108.561Z" fill="#263238"/>
<path d="M215.816 112.841C214.376 121.951 212.756 126.797 207.437 134.334C207.423 134.351 207.413 134.371 207.407 134.392C207.4 134.413 207.398 134.435 207.4 134.457C207.402 134.479 207.409 134.5 207.419 134.52C207.43 134.539 207.444 134.556 207.461 134.57C207.478 134.584 207.498 134.594 207.519 134.601C207.54 134.607 207.562 134.609 207.584 134.607C207.606 134.605 207.627 134.598 207.646 134.588C207.666 134.578 207.683 134.564 207.697 134.546C213.873 127.387 215.942 121.361 216.091 112.912C216.083 112.345 215.91 112.266 215.816 112.841Z" fill="#263238"/>
<path d="M165.008 147.63C165.008 147.63 164.34 136.23 165.158 131.156C165.976 126.082 175.96 108.286 179.893 110.221C185.015 112.731 181.27 124.138 178.705 129.488C178.705 129.488 190.553 135.263 189.641 144.035C188.728 152.807 165.008 147.63 165.008 147.63Z" fill="#EB9481"/>
<path d="M181.105 111.37C184.126 117.026 180.319 123.831 178.21 129.205C178.176 129.282 178.161 129.367 178.166 129.452C178.172 129.537 178.197 129.619 178.241 129.692C178.285 129.764 178.346 129.825 178.419 129.869C178.492 129.913 178.574 129.939 178.659 129.944C183.466 132.698 189.445 137.985 189.956 143.806C189.956 143.842 189.97 143.876 189.995 143.901C190.02 143.926 190.054 143.94 190.09 143.94C190.125 143.94 190.159 143.926 190.184 143.901C190.209 143.876 190.224 143.842 190.224 143.806C190.522 137.513 185.07 131.817 179.618 129.134C181.853 123.627 185.385 116.664 181.192 111.338C181.137 111.315 181.09 111.338 181.105 111.37Z" fill="#263238"/>
<path d="M142.548 172.333L113.809 196.422C113.809 196.422 96.2649 187.296 83.3076 176.809C70.3502 166.322 84.7001 161.224 106.949 164.961C129.197 168.698 142.548 172.333 142.548 172.333Z" fill="#34A1D3"/>
<path d="M108.506 177.171C107.692 176.06 106.749 175.049 105.698 174.158C106.861 176.659 108.543 178.885 110.631 180.688C110.067 179.435 109.353 178.254 108.506 177.171ZM83.3312 176.825L83.6773 177.093C83.9055 176.849 84.1336 176.589 84.346 176.306C83.9841 176.471 83.6459 176.644 83.3154 176.857L83.3312 176.825ZM131.439 176.983C130.08 176.783 128.702 176.741 127.333 176.857C128.617 177.341 129.953 177.677 131.314 177.856C132.672 178.062 134.051 178.107 135.42 177.99C134.131 177.5 132.79 177.162 131.424 176.983H131.439ZM121.818 167.668C121.8 168.193 121.818 168.719 121.873 169.241C122.065 168.769 122.228 168.286 122.361 167.794L121.818 167.668Z" fill="white"/>
<path d="M107.373 191.277C113.218 185.66 119.465 180.444 125.798 175.362C127.592 173.93 129.417 172.53 131.305 171.185C131.36 171.145 131.431 171.185 131.376 171.255C128.402 174.001 125.31 176.621 122.234 179.256C119.158 181.892 116.043 184.527 112.888 187.084C111.102 188.532 109.324 189.979 107.515 191.388C107.404 191.443 107.302 191.348 107.373 191.277Z" fill="#263238"/>
<path d="M126.018 186.187L113.801 196.415C113.801 196.415 96.2566 187.297 83.2992 176.809C78.6969 173.088 77.5404 170.052 78.9486 167.841L126.018 186.187Z" fill="#263238"/>
<path d="M120.102 267.716H28.5195C28.5195 267.716 48.4158 190.876 66.833 169.241C67.2421 168.746 67.667 168.274 68.0918 167.833C68.1783 167.731 68.257 167.66 68.3436 167.573C69.7693 166.05 71.4292 164.765 73.2606 163.766C73.5831 163.593 73.9057 163.427 74.244 163.286C81.3245 160.021 88.8299 162.727 94.2347 167.353C95.9497 168.816 115.366 194.102 117.05 203.708C118.537 212.212 112.794 221.346 112.794 221.346L120.102 267.716Z" fill="#34A1D3"/>
<path d="M99.0739 218.057C95.1744 218.438 91.3088 219.108 87.509 220.064C85.6209 220.567 83.7799 221.149 81.9311 221.771C81.0107 222.085 80.0902 222.369 79.1619 222.644C78.1953 222.959 77.194 223.154 76.1802 223.226C76.1614 223.226 76.1434 223.234 76.1301 223.247C76.1168 223.26 76.1094 223.278 76.1094 223.297C76.1094 223.316 76.1168 223.334 76.1301 223.347C76.1434 223.36 76.1614 223.368 76.1802 223.368C77.1406 223.408 78.1028 223.382 79.0596 223.289C79.9808 223.174 80.893 222.995 81.7895 222.754C83.7091 222.259 85.5973 221.684 87.509 221.181C91.364 220.158 95.2111 219.135 99.1289 218.388C99.1728 218.381 99.2119 218.356 99.2377 218.32C99.2635 218.284 99.2739 218.239 99.2666 218.195C99.2593 218.151 99.2349 218.112 99.1988 218.086C99.1626 218.061 99.1177 218.05 99.0739 218.057Z" fill="#263238"/>
<path d="M108.75 221.433C105.532 221.123 102.298 220.995 99.0656 221.047C97.4921 221.086 95.8479 221.212 94.2351 221.377C93.4484 221.464 92.6616 221.558 91.9378 221.661C91.2141 221.763 90.27 221.999 89.4282 222.101C89.3416 222.101 89.3416 222.251 89.4282 222.243C90.2149 222.172 91.041 222.243 91.8434 222.204L94.2587 222.117C95.8321 222.07 97.4764 222.03 99.0892 221.96C102.315 221.826 105.532 221.724 108.758 221.692C108.931 221.7 108.915 221.448 108.75 221.433Z" fill="#263238"/>
<path d="M58.1327 187.304C57.7 186.754 57.2595 186.211 56.7796 185.731L56.4413 186.439C56.756 186.927 57.0943 187.407 57.4404 187.871C58.2554 188.975 59.1982 189.978 60.249 190.86C59.6748 189.602 58.9652 188.409 58.1327 187.304ZM68.7614 167.149C68.6012 168.377 68.5748 169.62 68.6827 170.854C69.1715 169.564 69.5017 168.219 69.6661 166.85C69.6661 166.645 69.7212 166.433 69.7448 166.228C69.4144 166.519 69.084 166.826 68.7614 167.149ZM96.5564 192.749C96.0665 194.037 95.7285 195.378 95.5494 196.745C95.3512 198.107 95.3063 199.487 95.4156 200.86C95.9096 199.573 96.2426 198.231 96.4069 196.863C96.6229 195.503 96.673 194.121 96.5564 192.749ZM79.0518 237.057C78.5669 238.341 78.2342 239.677 78.0605 241.038C77.861 242.4 77.8187 243.78 77.9346 245.152C78.8697 242.562 79.2503 239.804 79.0518 237.057ZM49.2978 203.605C48.8174 204.898 48.4849 206.242 48.3065 207.61C48.1063 208.969 48.0641 210.347 48.1807 211.716C48.6621 210.427 48.9922 209.086 49.1641 207.72C49.3703 206.358 49.4152 204.977 49.2978 203.605ZM73.9223 197.988C72.5628 197.789 71.1848 197.746 69.8156 197.862C71.0998 198.347 72.4356 198.682 73.7964 198.861C75.1553 199.068 76.5337 199.112 77.9031 198.995C76.6233 198.497 75.2901 198.148 73.9302 197.957L73.9223 197.988ZM106.87 235.751C105.508 235.551 104.128 235.509 102.756 235.625C105.346 236.56 108.104 236.941 110.851 236.742C109.57 236.256 108.237 235.918 106.878 235.735L106.87 235.751ZM45.3642 232.124C44.028 231.93 42.6747 231.883 41.3283 231.983H41.2496H41.3204C42.5913 232.451 43.9108 232.776 45.2541 232.95C46.6136 233.15 47.9916 233.192 49.3608 233.076C48.0699 232.605 46.7287 232.286 45.3642 232.124ZM79.9172 264.608C78.5576 264.408 77.1796 264.366 75.8104 264.482C78.4032 265.419 81.1646 265.797 83.9137 265.591C82.6129 265.111 81.2614 264.781 79.8857 264.608H79.9172ZM42.7523 260.627C41.3901 260.428 40.0095 260.385 38.6377 260.501C39.9227 260.98 41.2584 261.31 42.6185 261.485C43.9796 261.696 45.3616 261.738 46.7331 261.611C45.4379 261.13 44.0916 260.8 42.7208 260.627H42.7523ZM80.814 178.43C79.7058 179.254 78.6949 180.202 77.8009 181.254C79.0562 180.683 80.2436 179.973 81.3411 179.138C82.4472 178.317 83.4509 177.366 84.3307 176.306C83.0839 176.882 81.9045 177.595 80.814 178.43ZM90.6166 220.544C89.511 221.356 88.5072 222.299 87.6271 223.352C88.8786 222.785 90.0589 222.072 91.1437 221.228C92.2512 220.417 93.2552 219.474 94.1333 218.419C92.8826 218.995 91.7025 219.713 90.6166 220.559V220.544ZM56.2446 246.285C55.1327 247.096 54.1258 248.042 53.2472 249.102C54.494 248.525 55.6733 247.813 56.7638 246.977C57.8698 246.157 58.8805 245.214 59.777 244.169C58.514 244.727 57.327 245.443 56.2446 246.301V246.285ZM113.329 209.254C112.515 208.143 111.572 207.131 110.521 206.241C111.685 208.742 113.366 210.968 115.454 212.771C114.888 211.523 114.175 210.347 113.329 209.27V209.254ZM101.615 256.906C100.794 255.8 99.8522 254.789 98.8064 253.893C99.3579 255.156 100.069 256.343 100.923 257.425C101.736 258.533 102.678 259.54 103.731 260.423C103.158 259.176 102.448 257.997 101.615 256.906ZM67.125 219.426C66.3085 218.317 65.366 217.306 64.3164 216.413C64.8742 217.675 65.5878 218.861 66.4406 219.946C67.251 221.056 68.1942 222.062 69.2492 222.943C68.6763 221.694 67.9637 220.515 67.125 219.426Z" fill="white"/>
<path d="M64.9609 169.839C47.3461 184.039 2.23533 240.314 12.4077 253.318C22.58 266.323 90.1912 260.399 109.82 254.247C115.657 252.422 99.7341 215.375 93.4246 213.667C88.1693 212.243 59.029 220.858 58.4626 219.175C57.8253 217.271 65.6611 206.736 75.621 183.914C87.1072 157.59 72.7416 163.569 64.9609 169.839Z" fill="#EB9481"/>
<path d="M125.248 210.576C138.709 212.149 141.927 214.596 153.987 209.876C161.902 206.784 167.275 210.505 161.485 217.184C152.044 228.112 134.232 229.772 127.899 228.545L125.248 210.576Z" fill="#EB9481"/>
<path d="M87.4932 214.14C87.4932 214.14 104.195 209.82 118.703 210.056C128.741 210.222 150.533 213.015 165.324 239.063C168.833 245.239 169.454 256.536 160.053 248.504C153.381 242.816 150.872 237.191 146.387 234.587C146.387 234.587 145.467 249.039 139.142 252.319C133.609 255.18 127.881 257.643 121.999 259.691C121.376 258.701 120.819 257.67 120.331 256.607C120.331 256.607 114.132 259.109 104.597 255.639L87.4932 214.14Z" fill="#EB9481"/>
<path d="M128.261 211.748C132.195 215.272 140.314 222.872 144.782 231.416C149.786 240.904 156.866 260.525 149.825 264.152C144.664 266.811 141.297 259.549 141.297 259.549C141.297 259.549 142.516 268.282 137.363 269.659C132.643 270.917 130.369 265.143 130.369 265.143C130.369 265.143 130.196 270.563 125.413 270.902C119.654 271.295 120.96 259.888 114.777 255.238C113.384 254.192 128.261 211.748 128.261 211.748Z" fill="#EB9481"/>
<path d="M133.91 235.074C137.057 239.008 141.864 249.707 141.454 259.408C141.454 259.628 141.273 259.738 141.242 259.533C139.766 251.133 137.275 242.944 133.823 235.145C133.814 235.134 133.809 235.119 133.811 235.104C133.812 235.089 133.82 235.076 133.831 235.066C133.843 235.057 133.857 235.053 133.872 235.054C133.887 235.055 133.9 235.063 133.91 235.074Z" fill="#263238"/>
<path d="M124.477 240.361C126.837 244.019 131.314 255.309 130.559 265.104C130.559 265.324 130.362 265.418 130.338 265.214C129.299 256.744 127.301 248.419 124.383 240.4C124.383 240.389 124.386 240.379 124.392 240.369C124.398 240.36 124.407 240.353 124.417 240.349C124.427 240.344 124.438 240.343 124.449 240.346C124.46 240.348 124.47 240.353 124.477 240.361Z" fill="#263238"/>
<path d="M146.41 234.523C150.344 236.884 152.539 239.661 155.466 243.067C156.896 244.773 158.419 246.399 160.029 247.937C161.508 249.314 163.687 251.383 165.905 250.4C167.141 249.849 167.479 248.37 167.581 247.142C167.678 245.763 167.477 244.378 166.991 243.083C166.991 243.02 167.086 242.973 167.109 243.044C167.592 244.186 167.91 245.391 168.053 246.623C168.24 247.781 168.073 248.969 167.573 250.03C166.346 252.201 163.514 251.792 161.736 250.651C160.684 249.923 159.706 249.093 158.817 248.173C157.944 247.316 157.11 246.419 156.3 245.506C154.64 243.618 153.09 241.643 151.453 239.747C149.85 237.939 148.131 236.236 146.308 234.649C146.237 234.586 146.332 234.476 146.41 234.523Z" fill="#263238"/>
<path d="M151.414 251.721C150.95 249.023 147.614 237.427 146.293 234.602C146.284 234.588 146.282 234.57 146.287 234.554C146.291 234.538 146.302 234.524 146.316 234.516C146.331 234.507 146.348 234.505 146.364 234.51C146.381 234.514 146.394 234.525 146.403 234.539C148.897 238.528 152.044 248.213 152.594 251.194C153.145 254.176 153.672 257.866 152.909 260.8C151.76 265.222 148.614 265.3 147.473 265.237C146.125 265.139 144.851 264.584 143.862 263.664C142.734 262.488 141.857 261.097 141.281 259.573C141.281 259.502 141.352 259.439 141.391 259.51C142.477 261.65 144.578 264.034 147.064 264.34C147.614 264.426 148.176 264.4 148.717 264.265C149.257 264.13 149.765 263.888 150.211 263.554C151.144 262.66 151.723 261.458 151.839 260.171C152.182 257.351 152.039 254.493 151.414 251.721Z" fill="#263238"/>
<path d="M130.558 265.104C131.038 265.788 131.833 267.952 133.745 268.864C134.409 269.243 135.156 269.455 135.921 269.481C136.686 269.507 137.445 269.346 138.134 269.014C139.449 268.198 140.394 266.903 140.77 265.403C141.088 263.483 141.259 261.542 141.281 259.596C141.281 259.502 141.399 259.494 141.407 259.596C141.652 261.707 141.578 263.842 141.187 265.93C141.002 266.748 140.656 267.521 140.168 268.203C139.68 268.885 139.061 269.463 138.347 269.903C137.59 270.316 136.734 270.512 135.874 270.469C135.013 270.425 134.181 270.145 133.469 269.659C132.753 269.163 130.676 266.921 130.322 265.159C130.33 265.104 130.535 265.072 130.558 265.104Z" fill="#263238"/>
<path d="M115.383 254.546C115.952 255.176 116.445 255.871 116.854 256.615C117.318 257.402 117.759 258.149 118.176 258.936C119.004 260.526 119.666 262.197 120.15 263.924C120.654 265.654 121.047 267.542 122.235 268.966C122.791 269.67 123.555 270.182 124.417 270.427C125.28 270.673 126.198 270.641 127.042 270.335C127.935 269.981 128.677 269.327 129.142 268.487C129.682 267.58 130.042 266.579 130.205 265.536C130.201 265.527 130.2 265.517 130.201 265.507C130.202 265.496 130.206 265.487 130.212 265.479C130.218 265.47 130.225 265.463 130.234 265.459C130.243 265.454 130.253 265.451 130.264 265.451C130.274 265.451 130.284 265.454 130.293 265.459C130.302 265.463 130.309 265.47 130.315 265.479C130.321 265.487 130.325 265.496 130.326 265.507C130.327 265.517 130.326 265.527 130.323 265.536C130.255 266.481 130.092 267.417 129.835 268.329C129.537 269.149 129.03 269.876 128.364 270.438C127.665 270.971 126.833 271.302 125.958 271.394C125.084 271.485 124.201 271.334 123.407 270.957C121.645 270.17 120.654 268.392 120.04 266.63C119.356 264.671 118.899 262.649 118.12 260.714C117.719 259.691 117.334 258.668 116.846 257.685C116.358 256.701 115.682 255.679 115.273 254.624C115.225 254.562 115.32 254.475 115.383 254.546Z" fill="#263238"/>
<path d="M109.238 256.985C111.725 257.344 114.241 257.468 116.751 257.354C116.83 257.354 116.877 257.583 116.798 257.598C115.554 257.832 114.288 257.929 113.022 257.889C111.739 257.835 110.471 257.589 109.262 257.158C109.159 257.103 109.159 256.969 109.238 256.985Z" fill="#263238"/>
<path d="M31.9894 227.6C36.195 225.571 40.5411 223.846 44.994 222.439C49.4004 221.062 53.9021 220.01 58.4627 219.293C61.0668 218.86 63.6787 218.553 66.33 218.23C66.4086 218.23 66.4244 218.341 66.33 218.348C61.7474 219.09 57.2111 220.094 52.7432 221.354C48.2956 222.565 43.8742 223.858 39.479 225.232C36.993 226.019 34.5384 226.9 32.076 227.758C31.9894 227.821 31.9108 227.655 31.9894 227.6Z" fill="#263238"/>
<path d="M28.1582 204.007L65.4411 208.058C65.4411 208.058 74.9526 190.75 79.9011 174.803C84.8496 158.857 70.7987 161.956 54.3797 177.415C37.9608 192.874 28.1582 204.007 28.1582 204.007Z" fill="#34A1D3"/>
<path d="M28.1582 204.007L65.4411 208.058C65.4411 208.058 74.9526 190.75 79.9011 174.803C84.8496 158.857 70.7987 161.956 54.3797 177.415C37.9608 192.874 28.1582 204.007 28.1582 204.007Z" fill="#34A1D3"/>
<path d="M68.8241 166.629C68.828 166.669 68.828 166.708 68.8241 166.747C68.6245 168.109 68.5822 169.49 68.6982 170.862C69.187 169.572 69.5172 168.227 69.6817 166.857C69.6817 166.621 69.7446 166.393 69.7682 166.157L68.8241 166.629ZM49.2976 203.605C48.9561 204.464 48.6928 205.351 48.5109 206.257L49.2976 206.335C49.3841 205.427 49.3841 204.513 49.2976 203.605ZM36.3638 195.211L36.002 195.589C36.4111 195.589 36.7887 195.589 37.2371 195.518C36.9382 195.4 36.6549 195.298 36.3638 195.211ZM69.8233 197.831C70.0435 197.917 70.2717 198.004 70.4998 198.075C70.5406 197.972 70.5879 197.872 70.6415 197.776C70.374 197.784 70.0986 197.799 69.8233 197.831ZM58.1325 187.304C57.3117 186.198 56.3697 185.188 55.3239 184.291C55.8771 185.556 56.5882 186.745 57.4402 187.832C58.2552 188.935 59.198 189.939 60.2488 190.821C59.6721 189.576 58.9625 188.397 58.1325 187.304Z" fill="white"/>
<path d="M63.9306 207.712C64.1351 207.712 65.504 207.712 65.504 207.712C65.6693 207.232 68.8791 199.845 69.6658 198.271C71.2865 195.038 73.0959 191.891 74.8582 188.736C74.9133 188.634 75.0706 188.736 75.0155 188.807C73.7725 191.561 72.5767 194.314 71.3101 197.083C71.6248 196.714 71.9394 196.344 72.2463 195.966C72.8678 195.18 73.4342 194.393 74.0243 193.559C74.0793 193.488 74.1895 193.559 74.1501 193.645C73.5871 194.783 72.8755 195.842 72.0339 196.792C71.6766 197.21 71.2901 197.602 70.8774 197.965C70.7751 198.193 70.6728 198.429 70.5627 198.649C69.776 200.222 65.8974 208.153 65.7558 208.145L63.9621 207.925C63.8283 207.956 63.8283 207.704 63.9306 207.712Z" fill="#263238"/>
<path d="M35.1832 197.673C43.2707 198.216 51.3347 199.326 59.3514 200.584C61.6276 200.946 63.8882 201.358 66.1329 201.819C66.1959 201.819 66.1959 201.93 66.1329 201.922C62.1049 201.568 58.0847 201.048 54.0646 200.553C50.0444 200.057 45.9928 199.522 41.9726 198.885C39.7069 198.539 37.4332 198.193 35.1753 197.807C35.0809 197.815 35.0809 197.666 35.1832 197.673Z" fill="#263238"/>
<path d="M78.0371 164.348C78.1787 165.984 84.268 177.36 91.5609 178.06C93.9211 178.281 95.7384 165.37 95.7384 165.37L96.0846 164.45L100.986 151.532L86.7462 139.22L84.6771 137.568C84.6771 137.568 83.5678 141.187 82.2382 145.71C82.1753 145.923 82.1045 146.135 82.0415 146.355C81.9786 146.576 81.8842 146.851 81.8134 147.087C81.6088 147.764 81.3964 148.448 81.2076 149.14C81.0581 149.667 80.9087 150.179 80.767 150.714C80.6254 151.249 80.4838 151.815 80.3265 152.366C79.2915 156.303 78.5266 160.306 78.0371 164.348Z" fill="#EB9481"/>
<path d="M82.2373 145.71C83.0482 149.651 84.7066 153.368 87.0975 156.604C89.4885 159.84 92.5548 162.517 96.0837 164.45L100.985 151.532L86.7452 139.22L84.6762 137.568C84.6762 137.568 83.5669 141.187 82.2373 145.71Z" fill="#263238"/>
<path d="M105.296 131.691C106.547 137.198 111.504 140.825 116.366 139.731C121.227 138.638 124.146 133.249 122.895 127.71C121.644 122.172 116.688 118.568 111.826 119.67C106.964 120.771 104.045 126.145 105.296 131.691Z" fill="#455A64"/>
<path d="M102.519 132.682C103.919 138.842 109.426 142.847 114.839 141.627C120.252 140.408 123.493 134.421 122.101 128.253C120.708 122.085 115.193 118.088 109.788 119.308C104.384 120.527 101.126 126.506 102.519 132.682Z" fill="#C7C7C7"/>
<path d="M118.427 124.799C125.035 148.125 111.811 154.694 106.776 156.142C102.205 157.432 86.4859 161.24 77.5015 138.716C68.5171 116.192 77.2734 105.744 87.5637 102.243C97.8541 98.7425 111.818 101.465 118.427 124.799Z" fill="#EB9481"/>
<path d="M110.308 121.865C109.754 121.92 109.197 121.943 108.64 121.935C108.055 122.047 107.449 121.961 106.917 121.692C106.766 121.575 106.658 121.411 106.609 121.226C106.561 121.041 106.575 120.845 106.65 120.669C106.85 120.345 107.134 120.08 107.472 119.903C107.81 119.726 108.189 119.643 108.569 119.662C109.344 119.576 110.124 119.78 110.756 120.236C110.893 120.35 110.994 120.501 111.047 120.671C111.1 120.841 111.103 121.023 111.056 121.195C111.008 121.366 110.913 121.521 110.78 121.639C110.648 121.758 110.484 121.836 110.308 121.865Z" fill="#263238"/>
<path d="M94.9277 127.293C95.4623 127.127 95.9875 126.933 96.5012 126.711C97.0836 126.582 97.6083 126.267 97.9959 125.814C98.0878 125.646 98.1222 125.453 98.0938 125.264C98.0654 125.075 97.9757 124.901 97.8386 124.767C97.5266 124.548 97.1617 124.415 96.7814 124.383C96.4011 124.352 96.0193 124.422 95.6751 124.586C94.9289 124.811 94.2926 125.304 93.8892 125.971C93.8064 126.128 93.7709 126.306 93.787 126.483C93.8031 126.66 93.8701 126.829 93.9799 126.969C94.0897 127.108 94.2377 127.213 94.4059 127.271C94.5741 127.328 94.7553 127.336 94.9277 127.293Z" fill="#263238"/>
<path d="M99.6471 131.407C99.6471 131.344 99.5448 131.518 99.5684 131.58C100.072 133.154 100.355 135.042 99.0964 135.978C99.057 135.978 99.0964 136.081 99.1357 136.065C100.804 135.317 100.363 132.8 99.6471 131.407Z" fill="#263238"/>
<path d="M97.7442 130.149C95.1323 130.684 96.3911 135.86 98.8142 135.365C101.237 134.869 99.9313 129.7 97.7442 130.149Z" fill="#263238"/>
<path d="M96.7914 130.668C96.4138 131.077 96.0913 131.699 95.5642 131.887C95.0371 132.076 94.3369 131.675 93.8019 131.25C93.7468 131.211 93.7075 131.25 93.7232 131.337C93.9514 132.328 94.5808 133.256 95.6822 133.146C96.7836 133.036 97.1691 131.998 97.1691 130.935C97.1769 130.739 96.9488 130.511 96.7914 130.668Z" fill="#263238"/>
<path d="M108.845 128.567C108.845 128.504 108.994 128.615 109.002 128.678C109.332 130.298 109.978 132.1 111.559 132.289C111.606 132.289 111.622 132.375 111.559 132.383C109.734 132.548 108.9 130.149 108.845 128.567Z" fill="#263238"/>
<path d="M109.876 126.553C112.409 125.767 113.809 130.88 111.449 131.628C109.089 132.375 107.759 127.222 109.876 126.553Z" fill="#263238"/>
<path d="M111.055 126.593C111.535 126.75 112.07 127.136 112.566 127.033C113.061 126.931 113.399 126.247 113.612 125.609C113.612 125.546 113.691 125.609 113.706 125.609C114.005 126.585 113.966 127.694 113.069 128.143C112.172 128.591 111.393 127.883 110.89 126.97C110.795 126.844 110.858 126.506 111.055 126.593Z" fill="#263238"/>
<path d="M103.283 144.341C103.739 144.648 104.227 145.128 104.856 145.026C105.458 144.895 106.026 144.641 106.524 144.278C106.533 144.267 106.547 144.26 106.562 144.258C106.576 144.257 106.591 144.261 106.603 144.27C106.614 144.28 106.621 144.293 106.623 144.308C106.624 144.323 106.62 144.338 106.611 144.349C106.44 144.713 106.175 145.024 105.843 145.25C105.51 145.475 105.123 145.607 104.722 145.631C104.371 145.614 104.034 145.491 103.753 145.279C103.472 145.068 103.262 144.776 103.149 144.444C103.094 144.357 103.212 144.302 103.283 144.341Z" fill="#263238"/>
<path d="M108.561 136.348C108.561 136.348 109.498 138.653 109.789 139.778C109.789 139.888 105.918 141.776 103.416 139.463C103.39 139.446 103.372 139.418 103.366 139.387C103.36 139.356 103.367 139.324 103.385 139.298C103.403 139.272 103.43 139.254 103.461 139.248C103.492 139.242 103.524 139.249 103.55 139.267C105.237 139.881 107.078 139.934 108.798 139.416C108.798 139.086 107.051 135.522 107.224 135.483C108.119 135.336 109.029 135.309 109.93 135.404C108.105 130.55 105.525 126.026 103.786 121.156C103.771 121.12 103.769 121.08 103.782 121.043C103.795 121.006 103.821 120.975 103.856 120.956C103.89 120.938 103.93 120.932 103.968 120.942C104.006 120.951 104.04 120.974 104.061 121.007C107.106 125.562 109.325 131.108 111.331 136.073C111.598 136.678 109.089 136.427 108.561 136.348Z" fill="#263238"/>
<path d="M108.789 139.959C108.371 141.003 107.694 141.924 106.822 142.634C106.333 143.001 105.742 143.21 105.131 143.232C103.785 143.232 103.431 142.123 103.384 141.076C103.365 140.522 103.41 139.968 103.518 139.424C105.172 140.162 107.02 140.349 108.789 139.959Z" fill="#263238"/>
<path d="M106.823 142.634C106.333 143.002 105.743 143.21 105.131 143.232C103.786 143.232 103.432 142.123 103.385 141.077C104.762 140.833 106.335 141.368 106.823 142.634Z" fill="#FF99BA"/>
<path d="M78.6262 137.937C83.142 138.228 83.6612 127.899 83.6612 127.899C83.6612 127.899 102.543 123.501 103.219 107.861C103.219 107.861 107.098 117.569 117.38 121.44C117.38 121.44 115.673 104.446 101.968 101.96C101.968 101.96 84.8334 96.8781 76.2188 110.756C67.6042 124.634 75.5973 137.741 78.6262 137.937Z" fill="#263238"/>
<path d="M103.219 106.704C103.592 109.091 103.45 111.529 102.802 113.856C102.191 116.22 101.092 118.431 99.5768 120.346C99.2051 120.828 98.8031 121.285 98.3731 121.715L97.7437 122.384C97.5234 122.588 97.2874 122.777 97.0514 122.974C96.5793 123.351 96.123 123.761 95.6353 124.115C95.1475 124.469 94.6125 124.76 94.0618 125.074C93.8022 125.224 93.5505 125.389 93.2751 125.531L92.4884 125.908L90.8441 126.656C89.7112 127.049 88.5626 127.379 87.4219 127.694C88.484 127.151 89.5854 126.719 90.6317 126.176L92.1658 125.31L92.9526 124.878C93.1964 124.72 93.4246 124.539 93.6606 124.366C94.1326 124.02 94.6047 123.682 95.0846 123.351C95.5645 123.021 95.95 122.565 96.3827 122.211L97.0356 121.636L97.6178 120.991C98.018 120.578 98.3937 120.142 98.7428 119.685C100.173 117.861 101.282 115.808 102.023 113.612C102.403 112.509 102.692 111.378 102.889 110.229C103.098 109.065 103.209 107.886 103.219 106.704Z" fill="#263238"/>
<path d="M81.9935 137.693C81.9935 137.693 75.3692 131.25 72.3561 133.76C69.3429 136.269 75.3142 146.292 79.5546 147C80.092 147.13 80.6499 147.149 81.1948 147.057C81.7398 146.965 82.2605 146.764 82.7257 146.465C83.1909 146.167 83.591 145.777 83.9018 145.321C84.2127 144.864 84.4279 144.348 84.5346 143.806L81.9935 137.693Z" fill="#EB9481"/>
<path d="M74.142 136.584C74.1274 136.584 74.1134 136.59 74.103 136.6C74.0927 136.611 74.0869 136.625 74.0869 136.639C74.0869 136.654 74.0927 136.668 74.103 136.678C74.1134 136.689 74.1274 136.694 74.142 136.694C77.1394 137.285 79.0905 139.582 80.6325 142.052C79.6097 141.187 78.3746 140.841 77.1866 142.052C77.1237 142.123 77.1866 142.217 77.2889 142.186C77.7483 141.938 78.273 141.839 78.7913 141.901C79.3095 141.963 79.7959 142.183 80.184 142.532C80.8299 143.118 81.4102 143.772 81.9148 144.483C82.0879 144.711 82.5127 144.483 82.3633 144.223L82.3239 144.161C81.7103 140.667 78.0048 136.215 74.142 136.584Z" fill="#263238"/>
<path d="M77.4623 134.413C77.4623 134.413 73.1668 122.966 74.6537 115.492C76.3058 107.169 86.6198 97.6727 98.4128 101.229C98.4128 101.229 84.3855 103.329 79.4291 114.603C77.1476 119.795 81.4589 133.54 81.4589 133.54L77.4623 134.413Z" fill="#C7C7C7"/>
<path d="M84.0873 150.727C89.2935 149.105 92.0151 142.978 90.1662 137.042C88.3172 131.105 82.5978 127.608 77.3916 129.229C72.1853 130.851 69.4637 136.978 71.3127 142.914C73.1617 148.85 78.8811 152.348 84.0873 150.727Z" fill="#C7C7C7"/>
<path d="M87.3274 137.52C88.9874 142.854 86.5407 148.361 81.8203 149.817C77.1 151.272 72.002 148.133 70.3341 142.799C68.6663 137.465 71.1209 131.958 75.8412 130.495C80.5616 129.032 85.6674 132.218 87.3274 137.52Z" fill="#455A64"/>
<path d="M96.0293 164.529L91.7023 175.448L78.092 161.72L74.2764 166.157C74.2764 166.157 87.6507 188.012 87.6979 187.021L92.1508 177.58L98.6648 184.087L98.0748 167.707L96.0293 164.529Z" fill="#EBEBEB"/>
<path d="M98.8606 175.983C98.6639 173.285 98.5538 170.547 98.2391 167.856C98.2391 167.762 98.0739 167.723 98.0503 167.856C97.5232 170.468 98.302 180.814 98.302 183.292C98.0346 183.009 92.2679 177.565 92.2128 177.651C91.2451 179.146 87.9802 186.006 87.7599 186.628C85.6436 183.158 76.6907 169.477 74.1968 166.173C74.1819 166.158 74.1624 166.148 74.1414 166.146C74.1204 166.143 74.0991 166.147 74.081 166.158C74.0628 166.169 74.0489 166.186 74.0413 166.206C74.0338 166.225 74.0331 166.247 74.0394 166.267C75.904 169.933 87.4688 187.989 87.6341 187.942C89.3545 184.705 90.909 181.384 92.2915 177.99C93.267 179.177 99.0888 185.322 99.1045 184.921C99.1775 181.939 99.0961 178.956 98.8606 175.983Z" fill="#263238"/>
<path d="M174.764 91.7722C174.291 96.2978 172.571 100.603 169.794 104.208C167.018 107.812 163.294 110.575 159.039 112.186C154.783 113.798 150.164 114.195 145.696 113.334C141.228 112.473 137.087 110.387 133.736 107.31L121.447 109.112L127.599 98.4908C126.207 95.0362 125.619 91.3101 125.879 87.5945C126.14 83.8789 127.242 80.2713 129.103 77.0448C130.964 73.8182 133.534 71.0573 136.62 68.9711C139.706 66.8848 143.225 65.5279 146.913 65.0031C150.6 64.4782 154.359 64.7992 157.904 65.9416C161.449 67.0841 164.688 69.0182 167.375 71.5974C170.063 74.1766 172.128 77.3333 173.415 80.8286C174.701 84.324 175.176 88.0663 174.803 91.7722H174.764Z" fill="white"/>
<path d="M174.764 91.7722C174.288 96.3002 172.573 100.609 169.807 104.226C168.449 106.033 166.826 107.624 164.992 108.946C163.183 110.318 161.188 111.428 159.068 112.243C156.947 113.073 154.72 113.602 152.452 113.816C151.32 113.92 150.181 113.941 149.046 113.879C147.905 113.852 146.769 113.734 145.647 113.525C141.115 112.709 136.901 110.647 133.476 107.57L133.767 107.656L121.494 109.544L120.605 109.678L121.054 108.891L127.182 98.2469V98.6718C125.741 95.1512 125.129 91.3465 125.392 87.5515C125.656 83.7566 126.788 80.0729 128.701 76.7851C130.611 73.5095 133.239 70.7095 136.387 68.5953C139.533 66.5124 143.109 65.1685 146.847 64.6644C150.586 64.1602 154.39 64.509 157.975 65.6844C161.516 66.8943 164.741 68.8807 167.416 71.4983C170.093 74.1022 172.146 77.2795 173.419 80.7911C174.691 84.3027 175.151 88.0572 174.764 91.7722ZM174.764 91.7722C175.156 88.0738 174.694 84.3346 173.413 80.8429C172.133 77.3512 170.068 74.2002 167.377 71.6326C164.686 69.065 161.442 67.1495 157.894 66.0337C154.346 64.9179 150.59 64.6315 146.914 65.1966C143.272 65.7437 139.803 67.1161 136.773 69.2089C133.772 71.3141 131.264 74.0469 129.425 77.2178C127.614 80.4001 126.549 83.9515 126.309 87.6048C126.07 91.2581 126.661 94.9182 128.04 98.3099L128.127 98.5302L128.009 98.7268L121.825 109.332L121.384 108.679L133.681 106.956H133.854L133.972 107.074C137.267 110.15 141.353 112.247 145.773 113.132C146.87 113.352 147.983 113.486 149.101 113.533C150.219 113.612 151.342 113.612 152.46 113.533C154.703 113.358 156.911 112.874 159.021 112.093C161.144 111.329 163.14 110.252 164.945 108.899C166.79 107.585 168.42 105.993 169.776 104.179C172.55 100.582 174.276 96.2883 174.764 91.7722Z" fill="#263238"/>
<path d="M161.059 92.9367C162.701 92.9367 164.033 91.6052 164.033 89.9628C164.033 88.3204 162.701 86.989 161.059 86.989C159.416 86.989 158.085 88.3204 158.085 89.9628C158.085 91.6052 159.416 92.9367 161.059 92.9367Z" fill="#263238"/>
<path d="M150.399 92.9367C152.041 92.9367 153.372 91.6052 153.372 89.9628C153.372 88.3204 152.041 86.989 150.399 86.989C148.756 86.989 147.425 88.3204 147.425 89.9628C147.425 91.6052 148.756 92.9367 150.399 92.9367Z" fill="#263238"/>
<path d="M139.746 92.9367C141.389 92.9367 142.72 91.6052 142.72 89.9628C142.72 88.3204 141.389 86.989 139.746 86.989C138.104 86.989 136.772 88.3204 136.772 89.9628C136.772 91.6052 138.104 92.9367 139.746 92.9367Z" fill="#263238"/>
<path d="M419.058 91.7722C418.585 96.2978 416.865 100.603 414.088 104.208C411.311 107.812 407.588 110.575 403.333 112.186C399.077 113.798 394.458 114.195 389.99 113.334C385.522 112.473 381.381 110.387 378.03 107.31L365.741 109.112L371.886 98.4909C370.487 95.0345 369.894 91.305 370.151 87.5853C370.408 83.8656 371.509 80.2533 373.37 77.0222C375.23 73.7911 377.802 71.026 380.89 68.9366C383.979 66.8472 387.502 65.4883 391.193 64.9629C394.885 64.4374 398.647 64.7594 402.196 65.9042C405.744 67.049 408.985 68.9866 411.674 71.5703C414.362 74.1539 416.427 77.3157 417.712 80.8159C418.996 84.3161 419.467 88.0629 419.089 91.7722H419.058Z" fill="white"/>
<path d="M419.058 91.7723C418.579 96.2994 416.865 100.608 414.102 104.226C413.411 105.122 412.668 105.975 411.876 106.783C411.056 107.567 410.189 108.3 409.279 108.978C407.472 110.353 405.477 111.463 403.355 112.274C401.237 113.105 399.012 113.634 396.747 113.848C395.612 113.951 394.471 113.972 393.333 113.911C392.192 113.883 391.056 113.765 389.934 113.557C385.407 112.725 381.201 110.649 377.787 107.562L378.078 107.648L365.805 109.536L364.916 109.67L365.364 108.884L371.477 98.2391V98.664C370.037 95.1436 369.424 91.3395 369.686 87.5449C369.948 83.7502 371.077 80.0664 372.988 76.7773C374.901 73.5013 377.532 70.7014 380.682 68.5875C383.827 66.5046 387.403 65.1607 391.142 64.6565C394.881 64.1524 398.685 64.5011 402.27 65.6766C405.811 66.8855 409.037 68.8721 411.71 71.4905C414.391 74.0942 416.445 77.2727 417.718 80.786C418.991 84.2994 419.449 88.0559 419.058 91.7723ZM419.058 91.7723C419.451 88.0739 418.989 84.3347 417.708 80.843C416.428 77.3513 414.362 74.2002 411.672 71.6327C408.981 69.0651 405.737 67.1496 402.189 66.0338C398.641 64.9179 394.884 64.6315 391.208 65.1967C387.566 65.7437 384.098 67.1161 381.068 69.209C378.066 71.3142 375.559 74.047 373.719 77.2178C371.897 80.3988 370.82 83.9526 370.573 87.6105C370.341 91.2608 370.93 94.9166 372.295 98.3099L372.39 98.5302L372.272 98.7269L366.088 109.332L365.648 108.679L377.944 106.956H378.117L378.235 107.074C381.519 110.143 385.591 112.24 389.997 113.132C391.094 113.352 392.207 113.486 393.325 113.533C394.443 113.612 395.566 113.612 396.684 113.533C398.927 113.358 401.135 112.874 403.245 112.093C405.367 111.327 407.363 110.251 409.169 108.899C411.01 107.583 412.636 105.991 413.992 104.179C416.797 100.592 418.551 96.2972 419.058 91.7723Z" fill="#263238"/>
<path d="M405.314 92.9367C406.956 92.9367 408.287 91.6052 408.287 89.9628C408.287 88.3204 406.956 86.989 405.314 86.989C403.671 86.989 402.34 88.3204 402.34 89.9628C402.34 91.6052 403.671 92.9367 405.314 92.9367Z" fill="#263238"/>
<path d="M394.661 92.9367C396.304 92.9367 397.635 91.6052 397.635 89.9628C397.635 88.3204 396.304 86.989 394.661 86.989C393.019 86.989 391.688 88.3204 391.688 89.9628C391.688 91.6052 393.019 92.9367 394.661 92.9367Z" fill="#263238"/>
<path d="M386.983 89.9628C386.984 90.5513 386.811 91.127 386.485 91.6171C386.16 92.1072 385.696 92.4896 385.152 92.7158C384.609 92.9421 384.011 93.0021 383.434 92.8883C382.856 92.7744 382.326 92.4918 381.909 92.0762C381.492 91.6607 381.208 91.1308 381.093 90.5537C380.977 89.9766 381.036 89.3783 381.261 88.8344C381.486 88.2906 381.867 87.8257 382.356 87.4986C382.845 87.1714 383.42 86.9968 384.009 86.9968C384.796 86.9968 385.552 87.3091 386.109 87.8651C386.666 88.4211 386.981 89.1754 386.983 89.9628Z" fill="#263238"/>
<path d="M134.106 265.89H128.843V269.328H134.106V265.89Z" fill="#455A64"/>
<path d="M140.935 265.662H135.672V269.1H140.935V265.662Z" fill="#455A64"/>
<path d="M147.764 265.434H142.501V268.872H147.764V265.434Z" fill="#455A64"/>
<path d="M154.584 265.206H149.321V268.644H154.584V265.206Z" fill="#455A64"/>
<path d="M161.414 264.978H156.15V268.416H161.414V264.978Z" fill="#455A64"/>
<path d="M168.243 264.757H162.979V268.195H168.243V264.757Z" fill="#455A64"/>
<path d="M175.063 264.529H169.8V267.967H175.063V264.529Z" fill="#455A64"/>
<path d="M181.892 264.301H176.629V267.739H181.892V264.301Z" fill="#455A64"/>
<path d="M188.713 264.073H183.45V267.511H188.713V264.073Z" fill="#455A64"/>
<path d="M190.003 271.303H127.553V267.118L190.003 265.379V271.303Z" fill="#37474F"/>
<path d="M250.959 254.813H147.866L164.262 178.06H267.354L250.959 254.813Z" fill="#455A64"/>
<path d="M254.774 254.813H151.674L168.069 178.06H271.169L254.774 254.813Z" fill="#37474F"/>
<path d="M220.331 211.992C220.015 213.739 219.109 215.325 217.765 216.485C216.42 217.645 214.718 218.308 212.944 218.364C212.143 218.389 211.347 218.232 210.615 217.905C209.884 217.578 209.236 217.09 208.72 216.477C208.205 215.863 207.835 215.141 207.638 214.364C207.442 213.588 207.424 212.777 207.586 211.992C207.899 210.244 208.803 208.656 210.146 207.495C211.489 206.333 213.191 205.668 214.966 205.612C215.768 205.585 216.566 205.741 217.299 206.068C218.032 206.395 218.682 206.884 219.198 207.498C219.715 208.113 220.085 208.836 220.281 209.615C220.478 210.393 220.495 211.206 220.331 211.992Z" fill="#263238"/>
<path d="M225.617 274.859H174.913V270.917L225.617 269.281V274.859Z" fill="#455A64"/>
<path d="M239.402 274.851H212.174L195.778 231.841H223.007L239.402 274.851Z" fill="#455A64"/>
<path d="M243.878 274.851H216.657L200.262 231.841H227.482L243.878 274.851Z" fill="#263238"/>
<path d="M125.61 275.905H73.3555C68.8948 275.905 75.3459 263.2 91.6311 258.33C107.916 253.46 130.763 271.138 125.61 275.905Z" fill="#37474F"/>
<path d="M105.154 275.905C105.189 274.458 105.428 273.022 105.862 271.641C106.282 270.245 106.871 268.905 107.617 267.653C108.364 266.392 109.301 265.254 110.394 264.278C111.478 263.309 112.724 262.539 114.076 262.004C113.517 262.46 112.88 262.791 112.369 263.286L111.582 263.971L110.842 264.757C109.876 265.769 109.029 266.888 108.317 268.093C107.593 269.298 106.972 270.561 106.46 271.869C105.935 273.184 105.499 274.532 105.154 275.905Z" fill="#263238"/>
<path d="M111.307 263.813C114.416 264.798 117.358 266.249 120.031 268.117C121.384 269.052 122.609 270.16 123.674 271.413C124.791 272.66 125.471 274.237 125.609 275.905C125.176 274.367 124.346 272.97 123.202 271.854C122.087 270.719 120.868 269.691 119.559 268.786C118.261 267.849 116.9 267.008 115.516 266.182C114.131 265.355 112.738 264.577 111.307 263.813Z" fill="#263238"/>
<path d="M375.521 265.89H370.258V269.328H375.521V265.89Z" fill="#455A64"/>
<path d="M382.349 265.662H377.086V269.1H382.349V265.662Z" fill="#455A64"/>
<path d="M389.178 265.434H383.915V268.872H389.178V265.434Z" fill="#455A64"/>
<path d="M396 265.206H390.736V268.644H396V265.206Z" fill="#455A64"/>
<path d="M402.828 264.978H397.564V268.416H402.828V264.978Z" fill="#455A64"/>
<path d="M409.657 264.757H404.394V268.195H409.657V264.757Z" fill="#455A64"/>
<path d="M416.477 264.529H411.214V267.967H416.477V264.529Z" fill="#455A64"/>
<path d="M423.306 264.301H418.043V267.739H423.306V264.301Z" fill="#455A64"/>
<path d="M430.135 264.073H424.872V267.511H430.135V264.073Z" fill="#455A64"/>
<path d="M431.426 271.303H368.976V267.118L431.426 265.379V271.303Z" fill="#37474F"/>
<path d="M492.373 254.813H389.28L405.676 178.06H508.768L492.373 254.813Z" fill="#455A64"/>
<path d="M496.189 254.813H393.097L409.492 178.06H512.584L496.189 254.813Z" fill="#37474F"/>
<path d="M461.745 211.992C461.429 213.738 460.525 215.323 459.182 216.482C457.839 217.642 456.139 218.306 454.366 218.364C453.564 218.39 452.767 218.234 452.035 217.908C451.302 217.582 450.653 217.093 450.137 216.48C449.62 215.866 449.25 215.144 449.053 214.366C448.856 213.589 448.838 212.777 449 211.992C449.314 210.244 450.219 208.658 451.562 207.496C452.905 206.335 454.605 205.67 456.38 205.612C457.182 205.585 457.98 205.741 458.713 206.068C459.446 206.395 460.096 206.884 460.612 207.498C461.129 208.113 461.499 208.836 461.696 209.615C461.892 210.393 461.909 211.206 461.745 211.992Z" fill="#263238"/>
<path d="M467.033 274.859H416.328V270.917L467.033 269.281V274.859Z" fill="#455A64"/>
<path d="M480.816 274.851H453.588L437.192 231.841H464.421L480.816 274.851Z" fill="#455A64"/>
<path d="M485.301 274.851H458.072L441.677 231.841H468.905L485.301 274.851Z" fill="#263238"/>
<path d="M367.047 275.905H314.77C310.309 275.905 316.76 263.2 333.045 258.33C349.33 253.46 372.177 271.138 367.047 275.905Z" fill="#37474F"/>
<path d="M346.53 275.905C346.569 274.458 346.807 273.023 347.238 271.641C347.661 270.246 348.25 268.907 348.993 267.653C349.745 266.396 350.681 265.258 351.77 264.278C352.854 263.309 354.1 262.539 355.452 262.004C354.893 262.46 354.256 262.791 353.745 263.286L352.958 263.971L352.218 264.757C351.247 265.767 350.397 266.887 349.685 268.093C348.962 269.298 348.34 270.561 347.828 271.869C347.306 273.184 346.873 274.533 346.53 275.905Z" fill="#263238"/>
<path d="M352.721 263.813C355.83 264.798 358.772 266.249 361.445 268.117C362.799 269.054 364.026 270.162 365.096 271.413C366.21 272.651 366.894 274.216 367.047 275.874C366.611 274.335 365.778 272.938 364.632 271.822C363.517 270.687 362.297 269.66 360.989 268.754C359.699 267.818 358.33 266.976 356.945 266.15C355.561 265.324 354.16 264.577 352.721 263.813Z" fill="#263238"/>
</g>
<defs>
<clipPath id="clip0_674_2003">
<rect width="525" height="275.276" fill="white" transform="translate(0 0.747803)"/>
</clipPath>
</defs>
</svg>
