<svg width="87" height="80" viewBox="0 0 87 80" fill="none" xmlns="http://www.w3.org/2000/svg">
<path d="M16.9241 50.7265H45.4341C48.3813 50.7265 50.7797 48.3281 50.7797 45.3809V41.8171C50.7797 38.8699 48.3813 36.4715 45.4341 36.4715H16.9241C13.9769 36.4715 11.5785 38.8699 11.5785 41.8171V45.3809C11.5785 48.3281 13.9769 50.7265 16.9241 50.7265ZM15.1422 41.8171C15.1422 40.8335 15.9405 40.0352 16.9241 40.0352H45.4341C46.4177 40.0352 47.216 40.8335 47.216 41.8171V45.3809C47.216 46.3645 46.4177 47.1627 45.4341 47.1627H16.9241C15.9405 47.1627 15.1422 46.3645 15.1422 45.3809V41.8171ZM59.6891 68.5452H70.3803C73.3276 68.5452 75.726 66.1468 75.726 63.1996V41.8171C75.726 38.8699 73.3276 36.4715 70.3803 36.4715H59.6891C56.7419 36.4715 54.3435 38.8699 54.3435 41.8171V63.1996C54.3435 66.1468 56.7419 68.5452 59.6891 68.5452ZM57.9072 41.8171C57.9072 40.8335 58.7055 40.0352 59.6891 40.0352H70.3803C71.3639 40.0352 72.1622 40.8335 72.1622 41.8171V63.1996C72.1622 64.1832 71.3639 64.9815 70.3803 64.9815H59.6891C58.7055 64.9815 57.9072 64.1832 57.9072 63.1996V41.8171ZM16.9241 68.5452H45.4341C48.3813 68.5452 50.7797 66.1468 50.7797 63.1996V59.6359C50.7797 56.6886 48.3813 54.2902 45.4341 54.2902H16.9241C13.9769 54.2902 11.5785 56.6886 11.5785 59.6359V63.1996C11.5785 66.1468 13.9769 68.5452 16.9241 68.5452ZM15.1422 59.6359C15.1422 58.6523 15.9405 57.854 16.9241 57.854H45.4341C46.4177 57.854 47.216 58.6523 47.216 59.6359V63.1996C47.216 64.1832 46.4177 64.9815 45.4341 64.9815H16.9241C15.9405 64.9815 15.1422 64.1832 15.1422 63.1996V59.6359ZM70.3803 0.833984H16.9241C8.08242 0.833984 0.887207 8.0292 0.887207 16.8709V63.1996C0.887207 72.0413 8.08242 79.2365 16.9241 79.2365H70.3803C79.222 79.2365 86.4172 72.0413 86.4172 63.1996V16.8709C86.4172 8.0292 79.222 0.833984 70.3803 0.833984ZM82.8535 63.1996C82.8535 70.0776 77.2584 75.6727 70.3803 75.6727H16.9241C10.046 75.6727 4.45096 70.0776 4.45096 63.1996V29.344H82.8535V63.1996ZM82.8535 25.7802H4.45096V16.8709C4.45096 9.99282 10.046 4.39773 16.9241 4.39773H70.3803C77.2584 4.39773 82.8535 9.99282 82.8535 16.8709V25.7802ZM40.0885 15.089C40.0885 17.0562 38.4919 18.6527 36.5247 18.6527C34.5575 18.6527 32.961 17.0562 32.961 15.089C32.961 13.1218 34.5575 11.5252 36.5247 11.5252C38.4919 11.5252 40.0885 13.1218 40.0885 15.089ZM18.706 15.089C18.706 17.0562 17.1094 18.6527 15.1422 18.6527C13.175 18.6527 11.5785 17.0562 11.5785 15.089C11.5785 13.1218 13.175 11.5252 15.1422 11.5252C17.1094 11.5252 18.706 13.1218 18.706 15.089ZM29.3972 15.089C29.3972 17.0562 27.8006 18.6527 25.8335 18.6527C23.8663 18.6527 22.2697 17.0562 22.2697 15.089C22.2697 13.1218 23.8663 11.5252 25.8335 11.5252C27.8006 11.5252 29.3972 13.1218 29.3972 15.089Z" fill="#323F49"/>
</svg>
