<svg width="86" height="92" viewBox="0 0 86 92" fill="none" xmlns="http://www.w3.org/2000/svg">
<path d="M82.7763 3.6772C79.1136 0.0144261 73.1555 0.0106695 69.4964 3.6772L63.5158 9.66913C63.5158 9.66913 63.4857 9.68415 63.4745 9.69542C63.4632 9.70669 63.4594 9.72548 63.4482 9.73675L41.6443 31.5894C38.4962 34.7375 36.693 39.0915 36.693 43.5432V47.9461C36.693 48.9829 37.5345 49.8244 38.5714 49.8244H42.9742C47.4259 49.8244 51.7799 48.0212 54.928 44.8731L82.7801 16.9571C84.557 15.1802 85.53 12.821 85.53 10.3153C85.53 7.80956 84.5533 5.4466 82.7801 3.67344L82.7763 3.6772ZM52.2682 42.2171C49.8226 44.6627 46.4303 46.0677 42.9704 46.0677H40.4459V43.5432C40.4459 40.0833 41.8509 36.6948 44.2965 34.2454L64.8081 13.6888L72.776 21.6567L52.2645 42.2134L52.2682 42.2171ZM80.1204 14.3011L75.432 18.997L67.4641 11.029L72.1524 6.33318C74.3463 4.13927 77.9265 4.13927 80.1204 6.33318C81.1835 7.39633 81.7696 8.80884 81.7696 10.319C81.7696 11.8292 81.1835 13.238 80.1204 14.3049V14.3011ZM80.5524 61.1471C81.2248 63.5664 80.913 66.0984 79.6733 68.281C78.4411 70.4637 76.4275 72.034 74.0082 72.7064C71.5852 73.3751 69.0607 73.0671 66.8743 71.8236L64.053 70.227C60.0596 74.1377 55.1947 76.974 49.8414 78.5218V81.7563C49.8414 86.9368 45.6302 91.148 40.4497 91.148C35.2692 91.148 31.058 86.9368 31.058 81.7563V78.5218C25.7047 76.974 20.8398 74.1377 16.8464 70.227L14.0214 71.8274C11.835 73.0671 9.29544 73.3638 6.89116 72.7064C4.47185 72.034 2.45826 70.4637 1.22231 68.2773C-0.0136427 66.0984 -0.325448 63.5626 0.347 61.1471C1.01569 58.7278 2.58974 56.7142 4.77238 55.4782L7.58239 53.8892C6.95878 51.2933 6.64322 48.6636 6.64322 46.0677C6.64322 43.4718 6.95878 40.8422 7.58239 38.2463L4.77238 36.6572C2.58974 35.4175 1.01569 33.4077 0.347 30.9884C-0.325448 28.569 -0.013643 26.037 1.22607 23.8544C2.45826 21.6718 4.47185 20.1015 6.89116 19.429C9.31422 18.7678 11.8387 19.0684 14.0251 20.3118L16.8464 21.9084C20.8398 17.9977 25.7047 15.1614 31.058 13.6137V10.3791C31.058 5.19866 35.2692 0.987409 40.4497 0.987409C45.6302 0.987409 49.8414 5.19866 49.8414 10.3791V14.1358C49.8414 15.1727 48.9999 16.0142 47.9631 16.0142C46.9262 16.0142 46.0847 15.1727 46.0847 14.1358V10.3791C46.0847 7.27236 43.5565 4.7441 40.4497 4.7441C37.3429 4.7441 34.8147 7.27236 34.8147 10.3791V15.06C34.8147 15.924 34.2211 16.6829 33.3758 16.8857C27.692 18.2607 22.5641 21.251 18.5482 25.5374C17.9509 26.1685 17.0079 26.3075 16.2528 25.8905L12.1731 23.5839C10.862 22.8401 9.34052 22.6598 7.89044 23.0505C6.44036 23.4524 5.23446 24.3954 4.49439 25.7064C3.75056 27.0175 3.56273 28.5352 3.96469 29.9853C4.3629 31.4392 5.30583 32.6451 6.62068 33.3889L10.6854 35.688C11.4405 36.1162 11.8049 37.0066 11.5645 37.8368C10.7868 40.5679 10.3924 43.3366 10.3924 46.064C10.3924 48.7913 10.7831 51.5638 11.5645 54.2911C11.8012 55.1251 11.4405 56.0117 10.6854 56.4399L6.61692 58.7428C5.30583 59.4829 4.3629 60.6925 3.96469 62.1388C3.56273 63.5927 3.74681 65.1104 4.49063 66.4177C5.23446 67.7326 6.44411 68.6755 7.89044 69.0775C9.34052 69.4757 10.8582 69.2916 12.1693 68.5478L16.2528 66.2374C17.0117 65.8242 17.9546 65.9594 18.5482 66.5905C22.5641 70.8769 27.6957 73.8672 33.3758 75.2422C34.2211 75.4488 34.8147 76.2039 34.8147 77.0679V81.7488C34.8147 84.8556 37.3429 87.3838 40.4497 87.3838C43.5565 87.3838 46.0847 84.8556 46.0847 81.7488V77.0679C46.0847 76.2039 46.6783 75.4451 47.5235 75.2422C53.2074 73.8672 58.3353 70.8769 62.3512 66.5905C62.9448 65.9556 63.8877 65.8167 64.6465 66.2374L68.7263 68.544C70.0412 69.2878 71.5626 69.4757 73.0089 69.0775C74.459 68.6755 75.6649 67.7326 76.405 66.4215C77.1488 65.1104 77.3367 63.5927 76.9347 62.1388C76.5365 60.6888 75.5936 59.4829 74.2825 58.7428L70.214 56.4399C69.4589 56.0117 69.0945 55.1213 69.3349 54.2911C70.1125 51.56 70.507 48.7913 70.507 46.064C70.507 44.2946 70.3417 42.5176 70.0224 40.7708C69.8308 39.7527 70.507 38.7722 71.5251 38.5844C72.5281 38.3815 73.5236 39.0652 73.7114 40.0871C74.0796 42.0556 74.2599 44.0692 74.2599 46.064C74.2599 48.6598 73.9444 51.2895 73.3207 53.8854L76.1308 55.4745C78.3134 56.7104 79.8875 58.724 80.5561 61.1433L80.5524 61.1471ZM26.4635 40.5604C24.7956 44.798 25.1524 49.584 27.4741 54.0469C28.5785 56.1657 30.3555 57.9426 32.4742 59.0471C36.9334 61.365 41.7195 61.7219 45.9608 60.0576C50.0142 58.4573 53.1736 55.1852 54.6237 51.0791C54.9768 50.1024 56.0475 49.5915 57.0242 49.9334C58.001 50.2827 58.5119 51.3534 58.17 52.3339C56.3555 57.4655 52.4072 61.5528 47.3395 63.5476C45.1343 64.4192 42.8164 64.8512 40.4685 64.8512C37.2152 64.8512 33.9055 64.0209 30.7462 62.3793C27.9437 60.9254 25.5995 58.5813 24.1456 55.7788C21.3131 50.3428 20.8999 44.4448 22.9736 39.1855C24.9684 34.1177 29.0556 30.1732 34.1873 28.3549C35.1678 28.0055 36.2347 28.5202 36.5878 29.5007C36.9334 30.4812 36.4188 31.5519 35.442 31.9012C31.336 33.3513 28.0639 36.5069 26.4635 40.5604Z" fill="#323F49"/>
</svg>
