<svg width="87" height="82" viewBox="0 0 87 82" fill="none" xmlns="http://www.w3.org/2000/svg">
<g clip-path="url(#clip0_618_177)">
<path d="M79.2957 54.7021C78.6963 52.5335 77.2853 50.7285 75.3322 49.6206L72.8099 48.1961C73.3689 45.8658 73.6518 43.512 73.6518 41.185C73.6518 38.8581 73.3689 36.5042 72.8099 34.1739L75.3288 32.7461C79.3664 30.4562 80.7942 25.3107 78.5043 21.2764C77.3964 19.3165 75.5948 17.9089 73.4262 17.3062C71.2609 16.7168 68.9878 16.9862 67.0313 18.0942L64.5023 19.5287C60.9193 16.0231 56.5584 13.4807 51.7597 12.0933V9.19387C51.7597 4.5501 47.9814 0.775146 43.341 0.775146C38.7006 0.775146 34.9223 4.5501 34.9223 9.19387V12.0933C30.1236 13.4807 25.7627 16.0231 22.1797 19.5287L19.6541 18.0975C17.6976 16.9862 15.4313 16.7168 13.2592 17.3062C11.0906 17.9089 9.28895 19.3165 8.18104 21.2764C5.89452 25.3107 7.31897 30.4596 11.3566 32.7461L13.8755 34.1739C13.3165 36.5042 13.0336 38.8581 13.0336 41.185C13.0336 43.512 13.3165 45.8658 13.8755 48.1961L11.3566 49.6206C9.40008 50.7285 7.9891 52.5335 7.38968 54.7021C6.79027 56.8708 7.06977 59.1371 8.17768 61.0936C9.28558 63.0535 11.0872 64.4611 13.2559 65.0639C15.4245 65.6566 17.6908 65.3872 19.6507 64.2759L22.1797 62.8414C25.7627 66.3469 30.1236 68.8894 34.9223 70.2768V73.1762C34.9223 77.82 38.7006 81.5949 43.341 81.5949C47.9814 81.5949 51.7597 77.82 51.7597 73.1762V70.2768C56.5584 68.8894 60.9193 66.3469 64.5023 62.8414L67.0279 64.2726C68.9878 65.3872 71.2541 65.66 73.4228 65.0639C75.5915 64.4611 77.3931 63.0535 78.501 61.0936C79.6089 59.1371 79.8884 56.8674 79.289 54.7021H79.2957ZM75.578 59.4368C74.9146 60.6121 73.8303 61.4573 72.5304 61.8176C71.2306 62.1712 69.8667 62.0096 68.6915 61.3395L65.0378 59.2718C64.3676 58.9014 63.5156 59.0226 62.9802 59.5884C59.377 63.4307 54.7804 66.1112 49.682 67.3437C48.9277 67.5289 48.3956 68.2058 48.3956 68.9803V73.1762C48.3956 75.9611 46.1293 78.2274 43.3444 78.2274C40.5595 78.2274 38.2931 75.9611 38.2931 73.1762V68.9803C38.2931 68.2058 37.7611 67.5255 37.0068 67.3437C31.9084 66.1112 27.3118 63.4307 23.7085 59.5884C23.3819 59.2382 22.934 59.0563 22.4794 59.0563C22.1965 59.0563 21.9103 59.127 21.651 59.2718L17.9939 61.3428C16.8187 62.0062 15.4582 62.1712 14.1583 61.8176C12.8585 61.4573 11.7742 60.6121 11.1108 59.4368C9.74019 57.0122 10.5955 53.9243 13.0168 52.5537L16.6638 50.4894C17.3406 50.1055 17.6639 49.3074 17.4517 48.5632C16.7547 46.1117 16.4011 43.6332 16.4011 41.1884C16.4011 38.7436 16.7547 36.2618 17.4517 33.8136C17.6639 33.066 17.3373 32.2713 16.6638 31.8908L13.0168 29.8265C10.5922 28.4526 9.73682 25.3646 11.1108 22.94C11.7742 21.7647 12.8585 20.9195 14.1583 20.5592C15.4582 20.2056 16.822 20.3672 17.9973 21.0373L21.651 23.105C22.3279 23.4821 23.1798 23.3575 23.7085 22.7884C27.3084 18.9461 31.9084 16.2656 37.0068 15.0331C37.7611 14.8479 38.2931 14.171 38.2931 13.3965V9.20061C38.2931 6.41569 40.5595 4.14937 43.3444 4.14937C46.1293 4.14937 48.3956 6.41569 48.3956 9.20061V13.3965C48.3956 14.171 48.9277 14.8513 49.682 15.0331C54.7804 16.2656 59.377 18.9461 62.9802 22.7884C63.5123 23.3542 64.3643 23.4754 65.0378 23.105L68.6948 21.034C69.8701 20.3706 71.2306 20.2056 72.5304 20.5592C73.8303 20.9195 74.9146 21.7647 75.578 22.94C76.9519 25.3646 76.0932 28.4526 73.672 29.8265L70.025 31.8908C69.3481 32.2713 69.0249 33.0694 69.237 33.8136C69.9341 36.2651 70.2877 38.7436 70.2877 41.1884C70.2877 43.6332 69.9341 46.115 69.237 48.5632C69.0249 49.3108 69.3515 50.1055 70.025 50.4894L73.672 52.5537C74.8439 53.2171 75.6891 54.3014 76.0494 55.5979C76.4098 56.8944 76.2414 58.2616 75.5746 59.4368H75.578ZM31.5817 41.4241L31.5582 26.028C31.5582 25.1019 30.8038 24.3476 29.8744 24.3476C28.945 24.3476 28.1907 25.1053 28.194 26.0347L28.2176 41.4241C25.3216 42.1784 23.1697 44.7916 23.1697 47.92C23.1697 51.0484 25.3182 53.6549 28.2109 54.4125L28.1974 56.3253C28.1907 57.2547 28.9383 58.0158 29.8677 58.0225H29.8812C30.8038 58.0225 31.5582 57.2749 31.5649 56.3522L31.5784 54.4193C34.4811 53.6683 36.6397 51.0518 36.6397 47.92C36.6397 44.7882 34.4845 42.1751 31.5851 41.4241H31.5817ZM29.9014 51.2875C28.0459 51.2875 26.5339 49.7789 26.5339 47.92C26.5339 46.0612 28.0459 44.5525 29.9014 44.5525C31.7568 44.5525 33.2688 46.0612 33.2688 47.92C33.2688 49.7789 31.7568 51.2875 29.9014 51.2875ZM58.5217 41.4241L58.4981 26.028C58.4981 25.1019 57.7438 24.3476 56.8143 24.3476C55.8849 24.3476 55.1306 25.1053 55.134 26.0347L55.1575 41.4241C52.2615 42.1784 50.1097 44.7916 50.1097 47.92C50.1097 51.0484 52.2581 53.6549 55.1508 54.4125L55.1373 56.3253C55.1306 57.2547 55.8782 58.0158 56.8076 58.0225H56.8211C57.7438 58.0225 58.4981 57.2749 58.5048 56.3522L58.5183 54.4193C61.4211 53.6683 63.5796 51.0518 63.5796 47.92C63.5796 44.7882 61.4211 42.1751 58.5217 41.4241ZM56.8413 51.2875C54.9858 51.2875 53.4738 49.7789 53.4738 47.92C53.4738 46.0612 54.9858 44.5525 56.8413 44.5525C58.6968 44.5525 60.2088 46.0612 60.2088 47.92C60.2088 49.7789 58.6968 51.2875 56.8413 51.2875ZM45.045 27.9508L45.0315 26.0179C45.0248 25.0952 44.2704 24.3476 43.3477 24.3476H43.3343C42.4049 24.3543 41.6573 25.1154 41.664 26.0448L41.6775 27.9575C38.7848 28.7152 36.6363 31.325 36.6363 34.4501C36.6363 37.5751 38.7882 40.1916 41.6842 40.9459L41.6606 56.3354C41.6606 57.2648 42.4116 58.0225 43.341 58.0225C44.2704 58.0225 45.0248 57.2682 45.0248 56.3421L45.0483 40.9459C47.9477 40.195 50.1029 37.5784 50.1029 34.4501C50.1029 31.3217 47.9444 28.7017 45.0416 27.9508H45.045ZM43.3713 37.8175C41.5158 37.8175 40.0038 36.3089 40.0038 34.4501C40.0038 32.5912 41.5158 31.0826 43.3713 31.0826C45.2268 31.0826 46.7388 32.5912 46.7388 34.4501C46.7388 36.3089 45.2268 37.8175 43.3713 37.8175Z" fill="#323F49"/>
</g>
<defs>
<clipPath id="clip0_618_177">
<rect width="85.528" height="81" fill="white" transform="translate(0.522217 0.382568)"/>
</clipPath>
</defs>
</svg>
