<svg width="81" height="82" viewBox="0 0 81 82" fill="none" xmlns="http://www.w3.org/2000/svg">
<path d="M16.9295 19.2357V12.5011C16.9295 6.00222 22.2162 0.715576 28.715 0.715576H35.4496C36.379 0.715576 37.1333 1.46985 37.1333 2.39922C37.1333 3.32859 36.379 4.08287 35.4496 4.08287H28.715C24.0715 4.08287 20.2968 7.8576 20.2968 12.5011V19.2357C20.2968 20.165 19.5425 20.9193 18.6132 20.9193C17.6838 20.9193 16.9295 20.165 16.9295 19.2357ZM79.2244 44.4903C78.295 44.4903 77.5407 45.2446 77.5407 46.174V52.9086C77.5407 57.5521 73.766 61.3268 69.1225 61.3268H62.3879C61.4586 61.3268 60.7043 62.0811 60.7043 63.0104C60.7043 63.9398 61.4586 64.6941 62.3879 64.6941H69.1225C75.6214 64.6941 80.908 59.4074 80.908 52.9086V46.174C80.908 45.2446 80.1537 44.4903 79.2244 44.4903ZM69.1225 0.715576H62.3879C61.4586 0.715576 60.7043 1.46985 60.7043 2.39922C60.7043 3.32859 61.4586 4.08287 62.3879 4.08287H69.1225C73.766 4.08287 77.5407 7.8576 77.5407 12.5011V19.2357C77.5407 20.165 78.295 20.9193 79.2244 20.9193C80.1537 20.9193 80.908 20.165 80.908 19.2357V12.5011C80.908 6.00222 75.6214 0.715576 69.1225 0.715576ZM59.1924 46.3996L51.7877 45.642L48.3329 52.4776C47.5685 54.0029 46.0061 54.9458 44.3258 54.9458C44.1305 54.9458 43.9385 54.9323 43.7432 54.9087C41.8508 54.6629 40.3187 53.2453 39.9247 51.3798L38.6485 45.3524L2.96873 81.0389C2.63874 81.3689 2.20772 81.5305 1.77671 81.5305C1.3457 81.5305 0.914685 81.3655 0.58469 81.0389C-0.0719312 80.3823 -0.0719312 79.3148 0.58469 78.6582L36.2072 43.0357L30.3515 41.874C29.476 41.7056 28.678 41.2779 28.0416 40.6449C27.3614 39.9647 26.9102 39.0623 26.7721 38.106C26.4994 36.2203 27.4523 34.3649 29.1427 33.4827L35.9917 29.8931L35.2274 22.4548C35.0725 20.5523 36.113 18.7642 37.8168 17.9763C39.5173 17.1951 41.5511 17.5554 42.8778 18.8754L48.0029 24.0037L54.9631 20.7004C56.6736 19.9192 58.7041 20.2829 60.0275 21.6029C61.3542 22.9229 61.7178 24.95 60.9366 26.6504L57.6266 33.6275L62.7516 38.7491C64.085 40.0826 64.442 42.1265 63.6473 43.827C62.856 45.5308 61.041 46.541 59.189 46.4063L59.1924 46.3996ZM60.3743 41.1231L54.4108 35.1629C53.9091 34.6612 53.7778 33.8935 54.0775 33.2537L57.8892 25.2193C58.0778 24.8119 57.9835 24.3068 57.6569 23.9802C57.3235 23.6468 56.8184 23.5559 56.3908 23.7512L48.3766 27.5529C47.7335 27.8593 46.9691 27.7212 46.4674 27.2195L40.5039 21.256C40.2918 21.0439 39.9988 20.926 39.7059 20.926C39.5442 20.926 39.3826 20.9631 39.2344 21.0304C38.8068 21.2291 38.5475 21.6736 38.5846 22.145L39.4634 30.6777C39.5341 31.3613 39.1806 32.0179 38.5711 32.3378L30.7085 36.4627C30.2808 36.685 30.0417 37.153 30.1091 37.6244C30.1428 37.8703 30.2539 38.0925 30.4256 38.2609C30.5839 38.4191 30.7825 38.5269 31.0014 38.5673L39.9853 40.3486C40.6487 40.4799 41.1706 40.9917 41.3087 41.6517L43.2179 50.6895C43.3156 51.1576 43.7028 51.5111 44.1743 51.5751C44.6524 51.6425 45.107 51.3967 45.3225 50.969L49.306 43.0929C49.6225 42.47 50.2893 42.0928 50.9795 42.1804L59.5089 43.0525C60.0039 43.0626 60.4046 42.8303 60.5965 42.406C60.8019 41.975 60.7076 41.4632 60.3743 41.1264V41.1231Z" fill="#323F49"/>
</svg>
