<svg width="87" height="87" viewBox="0 0 87 87" fill="none" xmlns="http://www.w3.org/2000/svg">
<path d="M13.209 50.7787C9.16423 50.7787 5.53993 53.1806 4.18572 56.755C3.83648 57.678 2.81013 58.1306 1.88713 57.7921C0.96769 57.4428 0.504407 56.4129 0.850088 55.4935C2.72816 50.5399 7.69242 47.215 13.209 47.215C18.7257 47.215 23.6899 50.5435 25.568 55.4935C25.9172 56.4129 25.454 57.4428 24.531 57.7921C24.3207 57.8669 24.1104 57.9061 23.9002 57.9061C23.1803 57.9061 22.5032 57.4678 22.2324 56.755C20.8782 53.1806 17.2539 50.7787 13.209 50.7787ZM36.3732 8.01414C36.3732 4.08337 39.5698 0.886719 43.5006 0.886719C47.4314 0.886719 50.628 4.08337 50.628 8.01414C50.628 11.9449 47.4314 15.1416 43.5006 15.1416C39.5698 15.1416 36.3732 11.9449 36.3732 8.01414ZM39.9369 8.01414C39.9369 9.98131 41.537 11.5779 43.5006 11.5779C45.4642 11.5779 47.0643 9.98131 47.0643 8.01414C47.0643 6.04697 45.4642 4.45043 43.5006 4.45043C41.537 4.45043 39.9369 6.04697 39.9369 8.01414ZM59.5373 11.5779H66.6647C71.5755 11.5779 75.574 15.5728 75.574 20.4871C75.574 21.4707 76.3723 22.269 77.3559 22.269C78.3395 22.269 79.1377 21.4707 79.1377 20.4871C79.1377 13.6092 73.5427 8.01414 66.6647 8.01414H59.5373C58.5537 8.01414 57.7554 8.81242 57.7554 9.796C57.7554 10.7796 58.5537 11.5779 59.5373 11.5779ZM80.9196 36.5238C80.9196 40.4546 77.7229 43.6513 73.7922 43.6513C69.8614 43.6513 66.6647 40.4546 66.6647 36.5238C66.6647 32.5931 69.8614 29.3964 73.7922 29.3964C77.7229 29.3964 80.9196 32.5931 80.9196 36.5238ZM77.3559 36.5238C77.3559 34.5567 75.7558 32.9601 73.7922 32.9601C71.8286 32.9601 70.2284 34.5567 70.2284 36.5238C70.2284 38.491 71.8286 40.0876 73.7922 40.0876C75.7558 40.0876 77.3559 38.491 77.3559 36.5238ZM43.5006 72.161C39.5698 72.161 36.3732 68.9643 36.3732 65.0335C36.3732 61.1028 39.5698 57.9061 43.5006 57.9061C47.4314 57.9061 50.628 61.1028 50.628 65.0335C50.628 68.9643 47.4314 72.161 43.5006 72.161ZM43.5006 68.5973C45.4642 68.5973 47.0643 67.0007 47.0643 65.0335C47.0643 63.0664 45.4642 61.4698 43.5006 61.4698C41.537 61.4698 39.9369 63.0664 39.9369 65.0335C39.9369 67.0007 41.537 68.5973 43.5006 68.5973ZM43.5006 18.7053C37.9875 18.7053 33.0197 22.0338 31.1416 26.9838C30.7924 27.9032 31.2557 28.9331 32.1787 29.2824C33.0981 29.6245 34.1245 29.1683 34.4773 28.2453C35.8315 24.6709 39.4558 22.269 43.5006 22.269C47.5454 22.269 51.1697 24.6709 52.5239 28.2453C52.7948 28.9581 53.4719 29.3964 54.1917 29.3964C54.402 29.3964 54.6158 29.3572 54.8225 29.2824C55.7419 28.9331 56.2052 27.9032 55.8596 26.9838C53.9815 22.0302 49.0172 18.7053 43.5006 18.7053ZM13.209 43.6513C9.27827 43.6513 6.08162 40.4546 6.08162 36.5238C6.08162 32.5931 9.27827 29.3964 13.209 29.3964C17.1398 29.3964 20.3365 32.5931 20.3365 36.5238C20.3365 40.4546 17.1398 43.6513 13.209 43.6513ZM13.209 40.0876C15.1726 40.0876 16.7728 38.491 16.7728 36.5238C16.7728 34.5567 15.1726 32.9601 13.209 32.9601C11.2454 32.9601 9.64533 34.5567 9.64533 36.5238C9.64533 38.491 11.2454 40.0876 13.209 40.0876ZM86.1511 55.4935C84.273 50.5399 79.3088 47.215 73.7922 47.215C68.2755 47.215 63.3113 50.5435 61.4332 55.4935C61.084 56.4129 61.5472 57.4428 62.4702 57.7921C63.3932 58.1306 64.4196 57.678 64.7688 56.755C66.123 53.1806 69.7473 50.7787 73.7922 50.7787C77.837 50.7787 81.4613 53.1806 82.8155 56.755C83.0863 57.4678 83.7634 57.9061 84.4833 57.9061C84.6936 57.9061 84.9074 57.8669 85.1141 57.7921C86.0335 57.4428 86.4968 56.4129 86.1511 55.4935ZM77.3559 61.4698C76.3723 61.4698 75.574 62.2681 75.574 63.2517V66.8154C75.574 71.7298 71.5755 75.7247 66.6647 75.7247H59.5373C58.5537 75.7247 57.7554 76.5229 57.7554 77.5065C57.7554 78.4901 58.5537 79.2884 59.5373 79.2884H66.6647C73.5427 79.2884 79.1377 73.6934 79.1377 66.8154V63.2517C79.1377 62.2681 78.3395 61.4698 77.3559 61.4698ZM27.4639 75.7247H20.3365C15.4257 75.7247 11.4272 71.7298 11.4272 66.8154V63.2517C11.4272 62.2681 10.6289 61.4698 9.64533 61.4698C8.66175 61.4698 7.86347 62.2681 7.86347 63.2517V66.8154C7.86347 73.6934 13.4585 79.2884 20.3365 79.2884H27.4639C28.4475 79.2884 29.2457 78.4901 29.2457 77.5065C29.2457 76.5229 28.4475 75.7247 27.4639 75.7247ZM27.4639 8.01414H20.3365C13.4585 8.01414 7.86347 13.6092 7.86347 20.4871C7.86347 21.4707 8.66175 22.269 9.64533 22.269C10.6289 22.269 11.4272 21.4707 11.4272 20.4871C11.4272 15.5728 15.4257 11.5779 20.3365 11.5779H27.4639C28.4475 11.5779 29.2457 10.7796 29.2457 9.796C29.2457 8.81242 28.4475 8.01414 27.4639 8.01414ZM43.5006 75.7247C37.9875 75.7247 33.0197 79.0532 31.1416 84.0032C30.7924 84.9226 31.2557 85.9525 32.1787 86.3018C33.0981 86.6439 34.1245 86.1877 34.4773 85.2647C35.8315 81.6903 39.4558 79.2884 43.5006 79.2884C47.5454 79.2884 51.1697 81.6903 52.5239 85.2647C52.7948 85.9775 53.4719 86.4158 54.1917 86.4158C54.402 86.4158 54.6158 86.3766 54.8225 86.3018C55.7419 85.9525 56.2052 84.9226 55.8596 84.0032C53.9815 79.0496 49.0172 75.7247 43.5006 75.7247Z" fill="#323F49"/>
</svg>
