<svg width="85" height="79" viewBox="0 0 85 79" fill="none" xmlns="http://www.w3.org/2000/svg">
<path d="M84.9715 25.151C84.9715 30.7646 82.9379 36.7984 78.8459 43.3299C78.3128 42.0589 77.6455 40.8373 76.7912 39.7181C79.8204 34.4435 81.4409 29.5607 81.4409 25.151C81.4409 14.065 72.1873 3.96758 62.0228 3.96758C53.7118 3.96758 49.4575 7.24042 45.4891 10.884L30.3394 25.8818C28.2599 27.9613 27.8716 31.1812 29.4462 33.3666C30.4454 34.7542 31.9141 35.5909 33.584 35.7251C35.2293 35.8486 36.8463 35.2661 38.0114 34.101L54.4144 17.4897L56.9246 19.9681L50.9827 25.9842L69.903 42.592C73.3065 45.5754 74.1609 50.5605 71.8907 54.1899C70.4926 56.4283 68.2048 57.9324 65.624 58.3101C64.7943 58.4337 63.9575 58.4408 63.1384 58.3242C63.5974 60.4991 63.2691 62.7939 62.0722 64.711C60.6706 66.953 58.3828 68.4535 55.8019 68.8312C54.5768 69.0113 53.3517 68.9336 52.1937 68.6159C52.3349 70.4306 51.943 72.2665 50.9509 73.8446C49.5528 76.083 47.265 77.587 44.6841 77.9648C44.2499 78.0284 43.8192 78.0601 43.3884 78.0601C41.2454 78.0601 39.1623 77.2869 37.5312 75.8535L26.0886 65.5866C8.69351 49.8685 0.237793 36.643 0.237793 25.151C0.237793 11.9855 10.9637 0.437012 23.1865 0.437012C29.3862 0.437012 33.6652 2.07167 37.0934 4.29593L34.509 6.85559C31.6387 5.14326 28.1434 3.96758 23.1865 3.96758C13.0255 3.96758 3.76836 14.065 3.76836 25.151C3.76836 35.4426 12.0723 48.1668 28.4506 62.9669L39.872 73.2162C41.0406 74.2436 42.6082 74.699 44.1722 74.4766C45.7504 74.2471 47.0991 73.3574 47.9605 71.977C49.3233 69.8021 48.7549 66.7588 46.6365 64.9017L34.8586 53.7063L37.2876 51.1431L51.025 64.1109C52.1584 65.1065 53.7295 65.5796 55.29 65.343C56.8681 65.1135 58.2168 64.2238 59.0818 62.8434C60.4411 60.6721 59.8727 57.6287 57.7543 55.7716L44.6382 43.8983L46.9967 41.2716L60.8047 53.5615C61.9804 54.5889 63.5409 55.0514 65.112 54.8255C66.6902 54.5924 68.0353 53.7063 68.9003 52.3258C70.2596 50.151 69.6912 47.1076 67.5728 45.2541L48.4972 28.5086L40.5145 36.5936C38.781 38.3271 36.4579 39.2803 34.0395 39.2803C31.1056 39.2803 28.1681 37.6457 26.5794 35.4356C24.0056 31.8626 24.5493 26.6833 27.8469 23.3857L43.0495 8.33843C47.4203 4.32064 52.4443 0.444073 62.0192 0.444073C74.2456 0.444073 84.9679 11.9926 84.9679 25.1581L84.9715 25.151Z" fill="#323F49"/>
</svg>
