<svg width="81" height="81" viewBox="0 0 81 81" fill="none" xmlns="http://www.w3.org/2000/svg">
<path d="M58.7447 50.5589C50.5386 50.5589 43.868 57.3575 43.868 65.7117C43.868 74.3858 52.6836 80.8645 60.5664 80.8645H73.618C75.9953 80.8645 78.2245 79.7432 79.5882 77.8676C80.8914 76.0762 81.2483 73.8538 80.5715 71.7661C77.9989 63.8462 71.7458 50.5623 58.7447 50.5623V50.5589ZM76.8641 75.8876C76.1334 76.8945 74.9178 77.4972 73.618 77.4972H60.5664C54.4009 77.4972 47.2353 72.3486 47.2353 65.7117C47.2353 59.2128 52.4007 53.9262 58.7447 53.9262C69.6177 53.9262 75.0794 65.7521 77.3692 72.8032C77.7127 73.8538 77.5241 74.9785 76.8641 75.8876ZM80.9048 10.9629C80.9048 8.04349 79.7734 5.30252 77.7127 3.2451H77.7093C73.5911 -0.876461 66.3851 -0.876461 62.2736 3.2451L4.90849 60.6103C1.80384 63.7149 0.0932617 67.8398 0.0932617 72.2308V79.1775C0.0932617 80.1069 0.847535 80.8611 1.77691 80.8611H8.72699C13.1179 80.8611 17.2429 79.1506 20.3475 76.0459L77.716 18.6841C79.7734 16.6267 80.9082 13.8857 80.9082 10.9663L80.9048 10.9629ZM17.9668 73.6686C15.4986 76.1368 12.2155 77.4972 8.72699 77.4972H3.46055V72.2341C3.46055 68.7423 4.82094 65.4625 7.28916 62.9943L52.0472 18.2329L62.7248 28.9106L17.9668 73.6686ZM75.3353 16.3035L65.1055 26.5333L54.4278 15.8556L64.6577 5.62578C67.4963 2.78042 72.4866 2.78042 75.3286 5.62578C76.7496 7.05351 77.5376 8.94929 77.5376 10.9663C77.5376 12.9833 76.7563 14.8825 75.3353 16.3035ZM2.81403 18.1992C0.850902 15.9331 -0.0852046 13.118 0.123567 10.2053C0.332339 7.29258 1.65905 4.63916 3.85452 2.73327C6.0601 0.824021 8.86168 -0.108719 11.7912 0.100053C14.7039 0.308825 17.3574 1.63554 19.2599 3.83438L33.3789 20.8628C33.9716 21.58 33.8739 22.6407 33.16 23.2333C32.4361 23.8293 31.3787 23.7283 30.7895 23.0145L16.6906 6.01301C15.3976 4.51794 13.5658 3.60204 11.5488 3.45724C9.55198 3.31582 7.58885 3.9556 6.06683 5.27558C4.54145 6.59892 3.62555 8.4341 3.48076 10.4477C3.33933 12.4647 3.98248 14.411 5.30246 15.9297L21.4116 32.6584C22.0547 33.3285 22.0379 34.3925 21.3644 35.0391C21.0378 35.3522 20.6169 35.5105 20.196 35.5105C19.7549 35.5105 19.3138 35.3387 18.9838 34.9953L2.81403 18.1992Z" fill="#323F49"/>
</svg>
