<?xml version="1.0" encoding="UTF-8"?>
<!DOCTYPE svg PUBLIC "-//W3C//DTD SVG 1.1//EN" "http://www.w3.org/Graphics/SVG/1.1/DTD/svg11.dtd">
<svg xmlns="http://www.w3.org/2000/svg" version="1.1" width="220px" height="220px" style="shape-rendering:geometricPrecision; text-rendering:geometricPrecision; image-rendering:optimizeQuality; fill-rule:evenodd; clip-rule:evenodd" xmlns:xlink="http://www.w3.org/1999/xlink">
<g><path style="opacity:1" fill="#2e474f" d="M 219.5,62.5 C 219.5,62.8333 219.5,63.1667 219.5,63.5C 216.424,67.747 212.757,71.5804 208.5,75C 202.151,77.9205 195.485,79.5872 188.5,80C 186.898,84.0381 184.898,87.8714 182.5,91.5C 190.408,93.0647 197.575,91.3981 204,86.5C 205.839,90.4895 209.005,92.8228 213.5,93.5C 202.5,94.1667 191.5,94.8333 180.5,95.5C 164.278,120.505 141.278,135.339 111.5,140C 88.5213,144.77 67.1879,141.104 47.5,129C 36.368,120.047 29.7013,108.547 27.5,94.5C 19.4931,94.6664 11.4931,94.4997 3.5,94C 8.20904,93.1638 11.5424,90.6638 13.5,86.5C 17.1331,89.9341 21.4665,91.6008 26.5,91.5C 26.5,86.5 26.5,81.5 26.5,76.5C 32.1667,76.5 37.8333,76.5 43.5,76.5C 43.5,69.8333 43.5,63.1667 43.5,56.5C 50.1667,56.5 56.8333,56.5 63.5,56.5C 63.5,49.8333 63.5,43.1667 63.5,36.5C 76.5,36.5 89.5,36.5 102.5,36.5C 102.5,30.1667 102.5,23.8333 102.5,17.5C 110.5,17.5 118.5,17.5 126.5,17.5C 126.5,30.5 126.5,43.5 126.5,56.5C 132.833,56.5 139.167,56.5 145.5,56.5C 145.5,63.1667 145.5,69.8333 145.5,76.5C 155.865,77.433 165.865,76.0997 175.5,72.5C 171.624,63.7835 170.791,54.7835 173,45.5C 174.248,42.421 176.081,39.7543 178.5,37.5C 186.209,42.5456 191.209,49.5456 193.5,58.5C 202.595,57.538 211.262,58.8713 219.5,62.5 Z"/></g>
<g><path style="opacity:1" fill="#fafbfb" d="M -0.5,-0.5 C 72.8333,-0.5 146.167,-0.5 219.5,-0.5C 219.5,20.5 219.5,41.5 219.5,62.5C 211.262,58.8713 202.595,57.538 193.5,58.5C 191.209,49.5456 186.209,42.5456 178.5,37.5C 176.081,39.7543 174.248,42.421 173,45.5C 170.791,54.7835 171.624,63.7835 175.5,72.5C 165.865,76.0997 155.865,77.433 145.5,76.5C 145.5,69.8333 145.5,63.1667 145.5,56.5C 139.167,56.5 132.833,56.5 126.5,56.5C 126.5,43.5 126.5,30.5 126.5,17.5C 118.5,17.5 110.5,17.5 102.5,17.5C 102.5,23.8333 102.5,30.1667 102.5,36.5C 89.5,36.5 76.5,36.5 63.5,36.5C 63.5,43.1667 63.5,49.8333 63.5,56.5C 56.8333,56.5 50.1667,56.5 43.5,56.5C 43.5,63.1667 43.5,69.8333 43.5,76.5C 37.8333,76.5 32.1667,76.5 26.5,76.5C 26.5,81.5 26.5,86.5 26.5,91.5C 21.4665,91.6008 17.1331,89.9341 13.5,86.5C 11.5424,90.6638 8.20904,93.1638 3.5,94C 11.4931,94.4997 19.4931,94.6664 27.5,94.5C 29.7013,108.547 36.368,120.047 47.5,129C 67.1879,141.104 88.5213,144.77 111.5,140C 141.278,135.339 164.278,120.505 180.5,95.5C 192.505,95.6665 204.505,95.4999 216.5,95C 215.756,93.9614 214.756,93.4614 213.5,93.5C 209.005,92.8228 205.839,90.4895 204,86.5C 197.575,91.3981 190.408,93.0647 182.5,91.5C 184.898,87.8714 186.898,84.0381 188.5,80C 195.485,79.5872 202.151,77.9205 208.5,75C 212.757,71.5804 216.424,67.747 219.5,63.5C 219.5,96.5 219.5,129.5 219.5,162.5C 202.28,162.225 194.614,170.725 196.5,188C 196.667,192.167 196.833,196.333 197,200.5C 198.458,201.747 199.958,201.747 201.5,200.5C 202.058,192.085 202.892,183.752 204,175.5C 207.705,170.064 212.872,167.397 219.5,167.5C 219.5,184.833 219.5,202.167 219.5,219.5C 146.167,219.5 72.8333,219.5 -0.5,219.5C -0.5,209.167 -0.5,198.833 -0.5,188.5C 1.96904,191.144 4.30238,193.977 6.5,197C 17.2609,203.759 27.0943,202.592 36,193.5C 37.2754,191.283 38.2754,188.949 39,186.5C 39.6667,174.5 39.6667,162.5 39,150.5C 37.0565,149.193 35.2232,149.193 33.5,150.5C 32.8333,155.5 32.1667,160.5 31.5,165.5C 22.4842,159.759 13.8175,160.259 5.5,167C 3.82157,169.914 1.82157,172.414 -0.5,174.5C -0.5,116.167 -0.5,57.8333 -0.5,-0.5 Z"/></g>
<g><path style="opacity:1" fill="#40889d" d="M 81.5,79.5 C 107.5,79.5 133.5,79.5 159.5,79.5C 116.67,80.4987 73.6699,80.832 30.5,80.5C 30.5,84.1667 30.5,87.8333 30.5,91.5C 32.1667,91.5 33.8333,91.5 35.5,91.5C 33.7354,92.4614 31.7354,92.7947 29.5,92.5C 29.5,88.1667 29.5,83.8333 29.5,79.5C 46.8333,79.5 64.1667,79.5 81.5,79.5 Z"/></g>
<g><path style="opacity:1" fill="#468c9b" d="M 93.5,59.5 C 96.8333,59.5 100.167,59.5 103.5,59.5C 103.5,65.1667 103.5,70.8333 103.5,76.5C 97.8333,76.5 92.1667,76.5 86.5,76.5C 86.5,71.5 86.5,66.5 86.5,61.5C 87.5007,65.3962 87.834,70.0629 87.5,75.5C 88.8333,75.5 90.1667,75.5 91.5,75.5C 91.5051,56.8806 92.1717,56.8806 93.5,75.5C 94.7353,70.1466 94.7353,64.8132 93.5,59.5 Z"/></g>
<g><path style="opacity:1" fill="#1e4a59" d="M 105.5,37.5 C 111.5,37.5 117.5,37.5 123.5,37.5C 123.5,38.5 123.5,39.5 123.5,40.5C 119.399,39.2092 115.399,39.2092 111.5,40.5C 109.758,40.3482 107.924,40.3482 106,40.5C 105.501,46.1569 105.334,51.8236 105.5,57.5C 111.167,57.5 116.833,57.5 122.5,57.5C 122.833,57.5 123.167,57.5 123.5,57.5C 123.5,58.1667 123.5,58.8333 123.5,59.5C 124.167,59.5 124.833,59.5 125.5,59.5C 125.5,65.1667 125.5,70.8333 125.5,76.5C 131.167,76.5 136.833,76.5 142.5,76.5C 142.5,70.8333 142.5,65.1667 142.5,59.5C 143.205,65.3694 143.871,71.3694 144.5,77.5C 150.798,78.4963 157.132,78.8297 163.5,78.5C 162.432,79.4345 161.099,79.7678 159.5,79.5C 133.5,79.5 107.5,79.5 81.5,79.5C 76.7486,77.8587 71.7486,76.8587 66.5,76.5C 72.1667,76.5 77.8333,76.5 83.5,76.5C 83.8587,71.2514 84.8587,66.2514 86.5,61.5C 86.5,66.5 86.5,71.5 86.5,76.5C 92.1667,76.5 97.8333,76.5 103.5,76.5C 103.5,70.8333 103.5,65.1667 103.5,59.5C 100.167,59.5 96.8333,59.5 93.5,59.5C 90.1667,59.5 86.8333,59.5 83.5,59.5C 82.8333,59.5 82.1667,59.5 81.5,59.5C 76.8333,59.5 72.1667,59.5 67.5,59.5C 67.5,58.8333 67.5,58.1667 67.5,57.5C 72.8333,57.5 78.1667,57.5 83.5,57.5C 83.5,51.8333 83.5,46.1667 83.5,40.5C 84.2679,41.2625 84.7679,42.2625 85,43.5C 85.2321,42.2625 85.7321,41.2625 86.5,40.5C 93.0653,40.1489 99.3986,39.1489 105.5,37.5 Z"/></g>
<g><path style="opacity:1" fill="#3c7f8e" d="M 125.5,59.5 C 131.167,59.5 136.833,59.5 142.5,59.5C 142.5,65.1667 142.5,70.8333 142.5,76.5C 136.833,76.5 131.167,76.5 125.5,76.5C 125.5,70.8333 125.5,65.1667 125.5,59.5 Z"/></g>
<g><path style="opacity:1" fill="#54a6b5" d="M 109.5,59.5 C 114.167,59.5 118.833,59.5 123.5,59.5C 123.5,65.1667 123.5,70.8333 123.5,76.5C 119.5,76.5 115.5,76.5 111.5,76.5C 111.958,70.6128 111.292,64.9461 109.5,59.5 Z"/></g>
<g><path style="opacity:1" fill="#408190" d="M 109.5,59.5 C 111.292,64.9461 111.958,70.6128 111.5,76.5C 115.5,76.5 119.5,76.5 123.5,76.5C 118.015,77.6517 112.349,77.8184 106.5,77C 105.525,71.2588 105.192,65.4254 105.5,59.5C 106.833,59.5 108.167,59.5 109.5,59.5 Z"/></g>
<g><path style="opacity:1" fill="#286b81" d="M 112.5,61.5 C 113.913,71.8434 115.08,71.8434 116,61.5C 116.499,66.1548 116.666,70.8215 116.5,75.5C 115.167,75.5 113.833,75.5 112.5,75.5C 112.5,70.8333 112.5,66.1667 112.5,61.5 Z"/></g>
<g><path style="opacity:1" fill="#2e6f82" d="M 117.5,61.5 C 118.833,61.5 120.167,61.5 121.5,61.5C 121.5,66.1667 121.5,70.8333 121.5,75.5C 120.167,75.5 118.833,75.5 117.5,75.5C 117.5,70.8333 117.5,66.1667 117.5,61.5 Z"/></g>
<g><path style="opacity:1" fill="#276273" d="M 95.5,61.5 C 96.8333,61.5 98.1667,61.5 99.5,61.5C 99.8266,66.2137 99.4933,70.8804 98.5,75.5C 97.3385,59.5411 96.5052,59.5411 96,75.5C 95.5008,70.8452 95.3342,66.1785 95.5,61.5 Z"/></g>
<g><path style="opacity:1" fill="#62bcc5" d="M 81.5,59.5 C 82.1667,59.5 82.8333,59.5 83.5,59.5C 83.5,65.1667 83.5,70.8333 83.5,76.5C 77.8333,76.5 72.1667,76.5 66.5,76.5C 66.5,76.1667 66.5,75.8333 66.5,75.5C 71.8333,75.5 77.1667,75.5 82.5,75.5C 82.7335,70.1053 82.4002,64.772 81.5,59.5 Z"/></g>
<g><path style="opacity:1" fill="#3d8598" d="M 67.5,59.5 C 72.1667,59.5 76.8333,59.5 81.5,59.5C 82.4002,64.772 82.7335,70.1053 82.5,75.5C 77.1667,75.5 71.8333,75.5 66.5,75.5C 66.1786,69.9738 66.5119,64.6405 67.5,59.5 Z"/></g>
<g><path style="opacity:1" fill="#377a89" d="M 66.5,75.5 C 66.5,75.8333 66.5,76.1667 66.5,76.5C 59.891,77.4226 53.2244,77.7559 46.5,77.5C 46.1918,71.5746 46.5251,65.7412 47.5,60C 52.8333,59.3333 58.1667,59.3333 63.5,60C 63.8227,65.5171 64.8227,70.6838 66.5,75.5 Z"/></g>
<g><path style="opacity:1" fill="#296f7d" d="M 83.5,59.5 C 86.8333,59.5 90.1667,59.5 93.5,59.5C 94.7353,64.8132 94.7353,70.1466 93.5,75.5C 92.1717,56.8806 91.5051,56.8806 91.5,75.5C 90.1667,75.5 88.8333,75.5 87.5,75.5C 87.834,70.0629 87.5007,65.3962 86.5,61.5C 84.8587,66.2514 83.8587,71.2514 83.5,76.5C 83.5,70.8333 83.5,65.1667 83.5,59.5 Z"/></g>
<g><path style="opacity:1" fill="#5aa8b6" d="M 103.5,55.5 C 98.2649,57.45 92.5982,58.1167 86.5,57.5C 86.5,53.8333 86.5,50.1667 86.5,46.5C 87.166,49.3583 87.8326,52.3583 88.5,55.5C 89.8181,44.9146 90.4847,44.9146 90.5,55.5C 91.8333,55.5 93.1667,55.5 94.5,55.5C 94.8333,36.8333 95.1667,36.8333 95.5,55.5C 96.8333,55.5 98.1667,55.5 99.5,55.5C 99.8333,36.8333 100.167,36.8333 100.5,55.5C 101.5,55.5 102.5,55.5 103.5,55.5 Z"/></g>
<g><path style="opacity:1" fill="#317080" d="M 111.5,40.5 C 115.399,39.2092 119.399,39.2092 123.5,40.5C 123.5,46.1667 123.5,51.8333 123.5,57.5C 123.167,57.5 122.833,57.5 122.5,57.5C 122.666,52.1563 122.499,46.8229 122,41.5C 121.501,46.1548 121.334,50.8215 121.5,55.5C 120.167,55.5 118.833,55.5 117.5,55.5C 117.827,50.456 117.494,45.456 116.5,40.5C 116.412,45.2205 116.412,50.2205 116.5,55.5C 115.167,55.5 113.833,55.5 112.5,55.5C 112.821,50.3054 112.487,45.3054 111.5,40.5 Z"/></g>
<g><path style="opacity:1" fill="#408a95" d="M 111.5,40.5 C 112.487,45.3054 112.821,50.3054 112.5,55.5C 113.833,55.5 115.167,55.5 116.5,55.5C 116.412,50.2205 116.412,45.2205 116.5,40.5C 117.494,45.456 117.827,50.456 117.5,55.5C 118.833,55.5 120.167,55.5 121.5,55.5C 121.334,50.8215 121.501,46.1548 122,41.5C 122.499,46.8229 122.666,52.1563 122.5,57.5C 116.833,57.5 111.167,57.5 105.5,57.5C 105.334,51.8236 105.501,46.1569 106,40.5C 107.924,40.3482 109.758,40.3482 111.5,40.5 Z"/></g>
<g><path style="opacity:1" fill="#2b596f" d="M 109.5,41.5 C 110.805,43.3972 111.471,45.7305 111.5,48.5C 111.167,50.8333 110.833,53.1667 110.5,55.5C 109.507,50.8804 109.173,46.2137 109.5,41.5 Z"/></g>
<g><path style="opacity:1" fill="#438395" d="M 86.5,40.5 C 92.1667,40.5 97.8333,40.5 103.5,40.5C 103.5,45.5 103.5,50.5 103.5,55.5C 102.5,55.5 101.5,55.5 100.5,55.5C 100.167,36.8333 99.8333,36.8333 99.5,55.5C 98.1667,55.5 96.8333,55.5 95.5,55.5C 95.1667,36.8333 94.8333,36.8333 94.5,55.5C 93.1667,55.5 91.8333,55.5 90.5,55.5C 90.4847,44.9146 89.8181,44.9146 88.5,55.5C 87.8326,52.3583 87.166,49.3583 86.5,46.5C 86.5,44.5 86.5,42.5 86.5,40.5 Z"/></g>
<g><path style="opacity:1" fill="#367988" d="M 83.5,40.5 C 83.5,46.1667 83.5,51.8333 83.5,57.5C 78.1667,57.5 72.8333,57.5 67.5,57.5C 66.5104,51.69 66.1771,45.69 66.5,39.5C 72.358,39.1778 78.0247,39.5111 83.5,40.5 Z"/></g>
<g><path style="opacity:1" fill="#589eaf" d="M 113.5,20.5 C 112.221,25.4489 112.221,30.4489 113.5,35.5C 114.167,35.8333 114.833,36.1667 115.5,36.5C 116.782,31.1143 116.782,25.781 115.5,20.5C 118.167,20.5 120.833,20.5 123.5,20.5C 123.5,26.1667 123.5,31.8333 123.5,37.5C 117.5,37.5 111.5,37.5 105.5,37.5C 105.5,31.8333 105.5,26.1667 105.5,20.5C 108.167,20.5 110.833,20.5 113.5,20.5 Z"/></g>
<g><path style="opacity:1" fill="#347487" d="M 113.5,20.5 C 114.167,20.5 114.833,20.5 115.5,20.5C 116.782,25.781 116.782,31.1143 115.5,36.5C 114.833,36.1667 114.167,35.8333 113.5,35.5C 112.221,30.4489 112.221,25.4489 113.5,20.5 Z"/></g>
<g><path style="opacity:1" fill="#347588" d="M 107.5,21.5 C 108.473,22.7914 109.473,22.7914 110.5,21.5C 111.833,26.1667 111.833,30.8333 110.5,35.5C 109.376,30.2792 108.542,30.2792 108,35.5C 107.501,30.8452 107.334,26.1785 107.5,21.5 Z"/></g>
<g><path style="opacity:1" fill="#23657f" d="M 117.5,22.5 C 119.268,26.0442 120.102,30.0442 120,34.5C 120.333,30.5 120.667,26.5 121,22.5C 121.499,26.8206 121.666,31.1539 121.5,35.5C 120.167,35.5 118.833,35.5 117.5,35.5C 117.5,31.1667 117.5,26.8333 117.5,22.5 Z"/></g>
<g><path style="opacity:1" fill="#36aad1" d="M 173.5,89.5 C 175.256,88.4479 175.923,86.7812 175.5,84.5C 170.768,86.0247 166.101,87.858 161.5,90C 152.151,90.6103 142.817,90.4436 133.5,89.5C 133.5,88.1667 133.5,86.8333 133.5,85.5C 117.198,84.3778 100.865,84.2111 84.5,85C 83.364,86.5298 82.364,87.8631 81.5,89C 75.5551,90.1621 69.5551,90.6621 63.5,90.5C 63.5,89.5 63.5,88.5 63.5,87.5C 60.1501,87.335 56.8168,87.5017 53.5,88C 52.2625,88.2321 51.2625,88.7321 50.5,89.5C 47.0183,88.121 44.0183,88.7876 41.5,91.5C 39.5,91.5 37.5,91.5 35.5,91.5C 33.8333,91.5 32.1667,91.5 30.5,91.5C 30.5,87.8333 30.5,84.1667 30.5,80.5C 73.6699,80.832 116.67,80.4987 159.5,79.5C 161.099,79.7678 162.432,79.4345 163.5,78.5C 170.131,78.2953 175.798,75.962 180.5,71.5C 174.963,65.1478 173.13,57.8145 175,49.5C 175.778,46.8162 177.111,44.4828 179,42.5C 186.16,47.6034 190.16,54.6034 191,63.5C 194.469,61.9971 198.136,61.3304 202,61.5C 206.745,60.9116 210.911,62.0782 214.5,65C 207.436,73.9528 198.102,77.7862 186.5,76.5C 184.777,81.0759 182.61,85.4093 180,89.5C 177.726,90.8112 175.56,90.8112 173.5,89.5 Z"/></g>
<g><path style="opacity:1" fill="#43abcb" d="M 173.5,89.5 C 172.183,89.179 170.849,88.8457 169.5,88.5C 166.647,90.2262 163.647,91.5596 160.5,92.5C 151.412,92.8816 142.412,92.2149 133.5,90.5C 129.068,86.5156 124.735,86.6823 120.5,91C 109.829,93.8663 99.6621,92.6996 90,87.5C 85.8777,89.9924 81.3777,91.4924 76.5,92C 69.5,92.6667 62.5,92.6667 55.5,92C 53.3474,91.9005 51.6808,91.0672 50.5,89.5C 51.2625,88.7321 52.2625,88.2321 53.5,88C 56.8168,87.5017 60.1501,87.335 63.5,87.5C 63.5,88.5 63.5,89.5 63.5,90.5C 69.5551,90.6621 75.5551,90.1621 81.5,89C 82.364,87.8631 83.364,86.5298 84.5,85C 100.865,84.2111 117.198,84.3778 133.5,85.5C 133.5,86.8333 133.5,88.1667 133.5,89.5C 142.817,90.4436 152.151,90.6103 161.5,90C 166.101,87.858 170.768,86.0247 175.5,84.5C 175.923,86.7812 175.256,88.4479 173.5,89.5 Z"/></g>
<g><path style="opacity:1" fill="#1e4f5e" d="M 160.5,92.5 C 161.167,93.1667 161.833,93.8333 162.5,94.5C 126.833,94.5 91.1667,94.5 55.5,94.5C 51.0058,93.2135 46.3391,92.2135 41.5,91.5C 44.0183,88.7876 47.0183,88.121 50.5,89.5C 51.6808,91.0672 53.3474,91.9005 55.5,92C 62.5,92.6667 69.5,92.6667 76.5,92C 81.3777,91.4924 85.8777,89.9924 90,87.5C 99.6621,92.6996 109.829,93.8663 120.5,91C 124.735,86.6823 129.068,86.5156 133.5,90.5C 142.412,92.2149 151.412,92.8816 160.5,92.5 Z"/></g>
<g><path style="opacity:1" fill="#c5c8cc" d="M 213.5,93.5 C 214.756,93.4614 215.756,93.9614 216.5,95C 204.505,95.4999 192.505,95.6665 180.5,95.5C 191.5,94.8333 202.5,94.1667 213.5,93.5 Z"/></g>
<g><path style="opacity:1" fill="#277d99" d="M 55.5,94.5 C 91.1667,94.5 126.833,94.5 162.5,94.5C 166.833,94.5 171.167,94.5 175.5,94.5C 175.657,95.8734 175.49,97.2068 175,98.5C 171.335,104.664 166.502,109.664 160.5,113.5C 161.582,111.661 162.415,109.661 163,107.5C 164.609,106.853 166.109,106.02 167.5,105C 166.346,104.086 166.513,103.253 168,102.5C 168.896,99.975 168.396,97.8083 166.5,96C 163.183,95.5017 159.85,95.335 156.5,95.5C 116.136,95.166 77.8025,95.4993 41.5,96.5C 42.5405,101.58 43.8739,106.58 45.5,111.5C 48.3819,111.608 50.7153,112.774 52.5,115C 56.1516,115.499 59.8183,115.665 63.5,115.5C 55.6572,116.82 47.6572,116.82 39.5,115.5C 37.3967,112.586 35.5633,109.586 34,106.5C 33.6667,106.833 33.3333,107.167 33,107.5C 31.7355,103.246 30.9022,98.9124 30.5,94.5C 38.8333,94.5 47.1667,94.5 55.5,94.5 Z"/></g>
<g><path style="opacity:1" fill="#1c8eb2" d="M 156.5,95.5 C 149.791,100.871 142.791,105.871 135.5,110.5C 127.276,113.416 119.276,116.749 111.5,120.5C 101.411,123.886 91.0774,125.053 80.5,124C 78.1446,121.712 76.8113,119.212 76.5,116.5C 76.5,115.5 76.5,114.5 76.5,113.5C 72.2464,114.646 67.913,115.313 63.5,115.5C 59.8183,115.665 56.1516,115.499 52.5,115C 50.7153,112.774 48.3819,111.608 45.5,111.5C 43.8739,106.58 42.5405,101.58 41.5,96.5C 77.8025,95.4993 116.136,95.166 156.5,95.5 Z"/></g>
<g><path style="opacity:1" fill="#9edeea" d="M 79.5,111.5 C 76.8609,109.162 77.1942,106.995 80.5,105C 87.0026,104.674 88.6692,107.34 85.5,113C 84.5,113.167 83.5,113.333 82.5,113.5C 80.9704,113.36 79.9704,112.693 79.5,111.5 Z"/></g>
<g><path style="opacity:1" fill="#314749" d="M 79.5,111.5 C 80.3067,104.579 82.3067,104.079 85.5,110C 85.3333,110.5 85.1667,111 85,111.5C 83.2245,112.536 81.3911,112.536 79.5,111.5 Z"/></g>
<g><path style="opacity:1" fill="#1e7fa2" d="M 156.5,95.5 C 159.85,95.335 163.183,95.5017 166.5,96C 168.396,97.8083 168.896,99.975 168,102.5C 166.513,103.253 166.346,104.086 167.5,105C 166.109,106.02 164.609,106.853 163,107.5C 162.415,109.661 161.582,111.661 160.5,113.5C 159.402,114.397 159.402,115.23 160.5,116C 140.54,130.301 118.207,137.801 93.5,138.5C 90.4819,135.798 87.1486,133.298 83.5,131C 79.6759,126.451 76.0092,121.951 72.5,117.5C 73.5676,116.566 74.901,116.232 76.5,116.5C 76.8113,119.212 78.1446,121.712 80.5,124C 91.0774,125.053 101.411,123.886 111.5,120.5C 119.276,116.749 127.276,113.416 135.5,110.5C 142.791,105.871 149.791,100.871 156.5,95.5 Z"/></g>
<g><path style="opacity:1" fill="#bdd8d7" d="M 72.5,117.5 C 76.0092,121.951 79.6759,126.451 83.5,131C 87.1486,133.298 90.4819,135.798 93.5,138.5C 73.5684,140.136 56.5684,133.97 42.5,120C 52.5798,119.878 62.5798,119.045 72.5,117.5 Z"/></g>
<g><path style="opacity:1" fill="#7d8a8a" d="M 33.5,150.5 C 33.8282,155.875 33.4948,161.208 32.5,166.5C 31.8933,166.376 31.56,166.043 31.5,165.5C 32.1667,160.5 32.8333,155.5 33.5,150.5 Z"/></g>
<g><path style="opacity:1" fill="#394344" d="M 101.5,161.5 C 106.813,160.932 111.813,161.765 116.5,164C 119.442,166.952 118.942,169.119 115,170.5C 100.718,165.459 93.7179,170.459 94,185.5C 95.5,189.667 98.3333,192.5 102.5,194C 107.323,194.609 111.99,194.276 116.5,193C 119.167,195 119.167,197 116.5,199C 94.8941,204.404 85.3941,195.904 88,173.5C 91.2661,167.975 95.7661,163.975 101.5,161.5 Z"/></g>
<g><path style="opacity:1" fill="#3a4547" d="M 127.5,149.5 C 129.144,149.286 130.644,149.62 132,150.5C 132.333,157.833 132.667,165.167 133,172.5C 136.201,168.964 139.701,165.797 143.5,163C 147.667,161.833 149.167,163.333 148,167.5C 143.318,172.015 138.818,176.681 134.5,181.5C 138.852,186.25 143.185,190.916 147.5,195.5C 149.132,199.615 147.799,201.448 143.5,201C 140,197.5 136.5,194 133,190.5C 132.667,193.5 132.333,196.5 132,199.5C 130,202.167 128,202.167 126,199.5C 125.833,191.333 125.667,183.167 125.5,175C 125.53,166.269 126.196,157.769 127.5,149.5 Z"/></g>
<g><path style="opacity:1" fill="#384344" d="M -0.5,188.5 C -0.5,183.833 -0.5,179.167 -0.5,174.5C 1.82157,172.414 3.82157,169.914 5.5,167C 13.8175,160.259 22.4842,159.759 31.5,165.5C 31.56,166.043 31.8933,166.376 32.5,166.5C 33.4948,161.208 33.8282,155.875 33.5,150.5C 35.2232,149.193 37.0565,149.193 39,150.5C 39.6667,162.5 39.6667,174.5 39,186.5C 38.2754,188.949 37.2754,191.283 36,193.5C 27.0943,202.592 17.2609,203.759 6.5,197C 4.30238,193.977 1.96904,191.144 -0.5,188.5 Z"/></g>
<g><path style="opacity:1" fill="#f7f9f9" d="M 14.5,168.5 C 27.6505,167.483 33.4839,173.483 32,186.5C 28.1579,193.453 22.3246,195.953 14.5,194C 6.25854,188.949 4.42521,182.115 9,173.5C 10.7297,171.598 12.563,169.931 14.5,168.5 Z"/></g>
<g><path style="opacity:1" fill="#374344" d="M 167.5,161.5 C 176.355,160.512 183.522,163.512 189,170.5C 189.667,172.167 189.667,173.833 189,175.5C 182.315,181.686 175.482,187.686 168.5,193.5C 169.667,193.833 170.833,194.167 172,194.5C 175.488,193.55 178.988,193.05 182.5,193C 184.133,196.417 183.133,198.75 179.5,200C 160.524,203.029 151.691,194.862 153,175.5C 155.749,168.583 160.582,163.917 167.5,161.5 Z"/></g>
<g><path style="opacity:1" fill="#f5f7f8" d="M 167.5,168.5 C 170.518,168.335 173.518,168.502 176.5,169C 178.555,169.687 180.221,170.854 181.5,172.5C 175.49,178.509 169.157,184.175 162.5,189.5C 161.029,188.619 160.196,187.286 160,185.5C 159.333,182.167 159.333,178.833 160,175.5C 162.37,172.961 164.87,170.628 167.5,168.5 Z"/></g>
<g><path style="opacity:1" fill="#353e41" d="M 219.5,162.5 C 219.5,164.167 219.5,165.833 219.5,167.5C 212.872,167.397 207.705,170.064 204,175.5C 202.892,183.752 202.058,192.085 201.5,200.5C 199.958,201.747 198.458,201.747 197,200.5C 196.833,196.333 196.667,192.167 196.5,188C 194.614,170.725 202.28,162.225 219.5,162.5 Z"/></g>
<g><path style="opacity:1" fill="#374344" d="M 57.5,161.5 C 68.7971,159.969 76.9637,164.303 82,174.5C 84.2116,192.954 76.0449,201.788 57.5,201C 43.7809,193.97 40.2809,183.47 47,169.5C 50.2989,166.449 53.7989,163.782 57.5,161.5 Z"/></g>
<g><path style="opacity:1" fill="#f8f8f8" d="M 57.5,168.5 C 72.0328,167.19 77.8661,173.523 75,187.5C 69.0006,195.355 61.8339,196.521 53.5,191C 50.6374,186.219 49.804,181.052 51,175.5C 53.3722,173.297 55.5389,170.963 57.5,168.5 Z"/></g>
</svg>
