<svg width="63" height="81" viewBox="0 0 63 81" fill="none" xmlns="http://www.w3.org/2000/svg">
<g clip-path="url(#clip0_618_1967)">
<path d="M44.1432 17.8374C38.5139 12.2108 33.1431 6.84712 31.5447 0.797852C29.9462 6.84712 24.5745 12.2108 18.9462 17.8374C10.5037 26.2746 0.931642 35.8368 0.931642 50.1785C0.930326 54.1997 1.72121 58.1816 3.25911 61.8971C4.79702 65.6125 7.05181 68.9885 9.89471 71.8323C12.7376 74.6762 16.1129 76.9321 19.8278 78.4712C23.5427 80.0103 27.5245 80.8025 31.5456 80.8025C35.5667 80.8025 39.5484 80.0103 43.2633 78.4712C46.9782 76.9321 50.3535 74.6762 53.1964 71.8323C56.0393 68.9885 58.2941 65.6125 59.832 61.8971C61.3699 58.1816 62.1608 54.1997 62.1595 50.1785C62.1595 35.8377 52.5883 26.2746 44.1432 17.8374ZM13.9435 57.3121C12.0664 57.2484 5.13871 45.3075 17.9907 32.5935L26.4954 41.8834C26.5684 41.9555 26.6253 42.0423 26.6623 42.138C26.6994 42.2337 26.7158 42.3361 26.7104 42.4386C26.7051 42.5411 26.6781 42.6412 26.6312 42.7325C26.5844 42.8238 26.5187 42.9042 26.4386 42.9683C24.4092 45.0497 15.7592 53.7238 14.6841 56.7231C14.4622 57.3422 14.1381 57.3188 13.9435 57.3121ZM31.5456 73.0498C30.1629 73.0498 28.7938 72.7774 27.5164 72.2483C26.2389 71.7192 25.0782 70.9436 24.1005 69.9659C23.1228 68.9882 22.3473 67.8275 21.8181 66.5501C21.289 65.2727 21.0167 63.9035 21.0167 62.5208C21.0556 59.9679 21.9836 57.5084 23.641 55.5662C25.5395 53.2447 31.5442 46.7153 31.5442 46.7153C31.5442 46.7153 37.457 53.3406 39.4332 55.5441C41.1548 57.4577 42.0971 59.9468 42.0745 62.5208C42.0745 65.3133 40.9652 67.9913 38.9907 69.9659C37.0161 71.9405 34.3381 73.0498 31.5456 73.0498ZM51.6979 55.9756C51.471 56.4719 50.9562 57.3004 50.2614 57.3257C49.023 57.3708 48.8906 56.7362 47.9753 55.3815C45.9656 52.4075 28.4271 34.0778 25.1467 30.5328C22.2613 27.4149 24.7404 25.2167 25.8904 24.0648C27.3331 22.6195 31.5445 18.4107 31.5445 18.4107C31.5445 18.4107 44.1018 30.3251 49.3327 38.4658C54.5637 46.6066 52.7609 53.651 51.6979 55.9756Z" fill="#009CDE"/>
</g>
<defs>
<clipPath id="clip0_618_1967">
<rect width="61.2279" height="80" fill="white" transform="translate(0.931641 0.797852)"/>
</clipPath>
</defs>
</svg>
