<svg width="586" height="392" viewBox="0 0 586 392" fill="none" xmlns="http://www.w3.org/2000/svg">
<path d="M542.253 219.852H463.987V306.197H542.253V219.852Z" fill="#EBEBEB"/>
<path d="M519.18 227.489H487.059V228.7H519.18V227.489Z" fill="#FAFAFA"/>
<path d="M511.367 230.945H494.873V232.156H511.367V230.945Z" fill="#FAFAFA"/>
<path d="M503.553 241.347H471.433V242.706H503.553V241.347Z" fill="#FAFAFA"/>
<path d="M511.366 245.232H471.433V246.592H511.366V245.232Z" fill="#FAFAFA"/>
<path d="M492.216 249.123H471.433V250.483H492.216V249.123Z" fill="#FAFAFA"/>
<path d="M507.03 253.014H471.433V254.374H507.03V253.014Z" fill="#FAFAFA"/>
<path d="M510.663 256.905H471.433V258.264H510.663V256.905Z" fill="#FAFAFA"/>
<path d="M507.374 260.795H471.433V262.155H507.374V260.795Z" fill="#FAFAFA"/>
<path d="M511.366 264.677H471.433V266.036H511.366V264.677Z" fill="#FAFAFA"/>
<path d="M508.327 268.567H471.433V269.927H508.327V268.567Z" fill="#FAFAFA"/>
<path d="M501.569 272.458H471.433V273.818H501.569V272.458Z" fill="#FAFAFA"/>
<path d="M511.007 276.349H471.433V277.708H511.007V276.349Z" fill="#FAFAFA"/>
<path d="M508.757 280.24H471.433V281.599H508.757V280.24Z" fill="#FAFAFA"/>
<path d="M534.807 245.232H522.704V246.592H534.807V245.232Z" fill="#FAFAFA"/>
<path d="M534.807 249.123H522.704V250.483H534.807V249.123Z" fill="#FAFAFA"/>
<path d="M534.807 253.014H522.704V254.374H534.807V253.014Z" fill="#FAFAFA"/>
<path d="M534.807 256.905H522.704V258.264H534.807V256.905Z" fill="#FAFAFA"/>
<path d="M534.807 260.795H522.704V262.155H534.807V260.795Z" fill="#FAFAFA"/>
<path d="M534.807 264.677H522.704V266.036H534.807V264.677Z" fill="#FAFAFA"/>
<path d="M534.807 268.567H522.704V269.927H534.807V268.567Z" fill="#FAFAFA"/>
<path d="M534.807 272.458H522.704V273.818H534.807V272.458Z" fill="#FAFAFA"/>
<path d="M501.569 296.372H471.433V297.731H501.569V296.372Z" fill="#FAFAFA"/>
<path d="M534.807 296.372H522.704V297.731H534.807V296.372Z" fill="#FAFAFA"/>
<path d="M534.807 276.349H522.704V277.708H534.807V276.349Z" fill="#FAFAFA"/>
<path d="M534.807 280.24H522.704V281.599H534.807V280.24Z" fill="#FAFAFA"/>
<path d="M182.144 39.9355L199.904 117.217C200.141 118.244 200.174 119.308 200 120.348C199.826 121.388 199.449 122.383 198.89 123.277C198.332 124.171 197.602 124.946 196.744 125.558C195.885 126.17 194.915 126.606 193.888 126.843L71.3122 155.01C69.2424 155.478 67.0717 155.106 65.275 153.977C63.4784 152.848 62.202 151.054 61.7252 148.986L43.9342 71.6967C43.4922 69.7666 43.8337 67.7399 44.8839 66.0613C45.9342 64.3827 47.6073 63.1892 49.5364 62.7426L173.198 34.3255C174.154 34.1057 175.144 34.0765 176.111 34.2396C177.078 34.4027 178.003 34.7548 178.834 35.2758C179.665 35.7969 180.385 36.4766 180.953 37.2761C181.521 38.0757 181.926 38.9793 182.144 39.9355Z" fill="#EBEBEB"/>
<path d="M79.6659 69.7938L60.1184 74.2852C58.3521 74.691 57.2492 76.4519 57.655 78.2183L60.3057 89.7549C60.7116 91.5212 62.4725 92.6241 64.2388 92.2183L83.7863 87.727C85.5527 87.3211 86.6556 85.5602 86.2497 83.7938L83.599 72.2572C83.1932 70.4909 81.4323 69.388 79.6659 69.7938Z" fill="#DBDBDB"/>
<path d="M63.8502 109.514L62.9283 110.389C62.8952 110.421 62.8551 110.445 62.8111 110.459C62.765 110.47 62.717 110.468 62.6718 110.454C62.6267 110.441 62.5858 110.415 62.5532 110.381C62.5266 110.358 62.5053 110.329 62.4907 110.297C62.4761 110.264 62.4686 110.229 62.4686 110.194C62.4686 110.158 62.4761 110.123 62.4907 110.091C62.5053 110.059 62.5266 110.03 62.5532 110.006L63.8034 108.787C63.8557 108.743 63.9221 108.718 63.9909 108.718C64.0596 108.718 64.1261 108.743 64.1784 108.787C64.2219 108.841 64.2491 108.906 64.2565 108.975L65.8192 115.89C65.8273 115.923 65.8286 115.958 65.8231 115.992C65.8176 116.025 65.8054 116.058 65.7872 116.087C65.769 116.116 65.7452 116.141 65.7172 116.161C65.6891 116.181 65.6574 116.195 65.6239 116.202C65.5555 116.219 65.4834 116.207 65.4233 116.171C65.3632 116.134 65.3202 116.075 65.3035 116.007L63.8502 109.514Z" fill="#FAFAFA"/>
<path d="M67.663 115.271L70.4446 111.294C70.7241 110.862 70.8252 110.339 70.7267 109.834C70.6282 109.33 70.3377 108.883 69.9165 108.588C69.4952 108.294 68.976 108.174 68.4682 108.255C67.9604 108.335 67.5037 108.609 67.1942 109.02L66.9051 109.442C66.8862 109.471 66.8616 109.497 66.8326 109.516C66.8036 109.536 66.771 109.549 66.7366 109.556C66.7023 109.562 66.6669 109.562 66.6328 109.554C66.5986 109.547 66.5663 109.533 66.5379 109.512C66.5078 109.494 66.4818 109.47 66.4615 109.441C66.4411 109.412 66.4268 109.38 66.4195 109.345C66.4122 109.311 66.412 109.276 66.4189 109.241C66.4258 109.207 66.4397 109.174 66.4598 109.145L66.7489 108.715C67.1233 108.192 67.6813 107.829 68.3115 107.699C68.6523 107.619 69.0063 107.612 69.3499 107.68C69.6935 107.747 70.0187 107.887 70.3039 108.09C70.8206 108.441 71.186 108.974 71.3275 109.582C71.4044 109.927 71.4094 110.284 71.3422 110.631C71.2749 110.978 71.137 111.307 70.9368 111.598L68.5928 115.013L72.1479 114.192C72.2164 114.181 72.2868 114.196 72.3447 114.234C72.4026 114.273 72.4437 114.332 72.4596 114.399C72.4755 114.467 72.4651 114.538 72.4304 114.598C72.3957 114.659 72.3394 114.703 72.2729 114.724L67.9756 115.685C67.9427 115.701 67.9066 115.709 67.8701 115.709C67.8335 115.709 67.7975 115.701 67.7646 115.685C67.7294 115.665 67.6986 115.639 67.6742 115.607C67.6498 115.575 67.6322 115.539 67.6227 115.5C67.6131 115.461 67.6118 115.421 67.6187 115.381C67.6257 115.342 67.6408 115.304 67.663 115.271Z" fill="#FAFAFA"/>
<path d="M77.047 106.176L75.5547 108.621C76.0674 108.611 76.5722 108.75 77.008 109.02C77.589 109.396 77.9974 109.987 78.1439 110.664C78.2903 111.34 78.1628 112.047 77.7893 112.63C77.4201 113.22 76.8335 113.641 76.1563 113.802C75.8218 113.878 75.4753 113.887 75.1372 113.828C74.7991 113.769 74.4761 113.643 74.1874 113.458C74.1339 113.416 74.0978 113.356 74.086 113.29C74.0742 113.223 74.0876 113.154 74.1236 113.097C74.1596 113.039 74.2156 112.997 74.2808 112.979C74.346 112.961 74.4157 112.967 74.4764 112.997C74.7071 113.141 74.9639 113.238 75.232 113.282C75.5002 113.326 75.7745 113.317 76.0391 113.255C76.5797 113.134 77.0512 112.806 77.3518 112.341C77.4985 112.111 77.5976 111.855 77.6433 111.586C77.6889 111.318 77.6801 111.043 77.6174 110.778C77.4962 110.244 77.1683 109.78 76.7056 109.487C76.2428 109.194 75.6829 109.096 75.1484 109.215C75.1059 109.223 75.0623 109.221 75.0206 109.21C74.9788 109.199 74.9398 109.18 74.9062 109.153C74.8744 109.134 74.8466 109.11 74.8245 109.08C74.8025 109.051 74.7866 109.017 74.7778 108.981C74.7691 108.946 74.7676 108.908 74.7736 108.872C74.7795 108.836 74.7927 108.801 74.8124 108.77L76.2423 106.426L73.3591 107.082C73.3234 107.093 73.2858 107.097 73.2486 107.092C73.2115 107.088 73.1756 107.076 73.1432 107.058C73.1108 107.039 73.0826 107.014 73.0602 106.984C73.0379 106.954 73.022 106.92 73.0134 106.883C73.0049 106.847 73.0039 106.809 73.0105 106.772C73.0171 106.735 73.0311 106.7 73.0518 106.669C73.0725 106.638 73.0994 106.612 73.1307 106.591C73.1621 106.571 73.1973 106.557 73.2341 106.551L76.7501 105.77C76.8226 105.753 76.8987 105.766 76.9616 105.806C77.0246 105.845 77.0693 105.908 77.0861 105.981C77.0978 106.021 77.0978 106.065 77.0861 106.106C77.0781 106.131 77.0648 106.155 77.047 106.176Z" fill="#FAFAFA"/>
<path d="M84.6255 110.23L80.5547 111.168C80.5059 111.18 80.4545 111.178 80.4069 111.161C80.3593 111.145 80.3176 111.115 80.2868 111.075C80.2561 111.035 80.2377 110.987 80.2339 110.937C80.2301 110.887 80.2412 110.837 80.2656 110.792L83.391 104.37C83.4058 104.338 83.4272 104.309 83.4537 104.285C83.4802 104.262 83.5114 104.244 83.5451 104.233C83.5788 104.222 83.6145 104.218 83.6498 104.221C83.6851 104.225 83.7194 104.235 83.7504 104.253C83.8051 104.253 83.8363 104.323 83.8676 104.362V104.401L85.0474 109.558L85.5552 109.449C85.5896 109.439 85.6255 109.437 85.6608 109.442C85.6961 109.447 85.7301 109.458 85.7607 109.477C85.7914 109.495 85.818 109.519 85.8391 109.548C85.8601 109.577 85.8752 109.609 85.8834 109.644C85.8973 109.714 85.883 109.787 85.8435 109.847C85.804 109.907 85.7426 109.949 85.6724 109.964L85.1646 110.081L85.4615 111.371C85.4695 111.405 85.4706 111.441 85.4648 111.476C85.4589 111.51 85.4461 111.544 85.4272 111.573C85.4083 111.603 85.3836 111.629 85.3546 111.649C85.3256 111.669 85.2929 111.684 85.2583 111.691C85.189 111.705 85.117 111.692 85.0572 111.654C84.9975 111.616 84.9548 111.557 84.938 111.488L84.6255 110.23ZM84.5083 109.714L83.4925 105.308L80.9454 110.535L84.5083 109.714Z" fill="#FAFAFA"/>
<path d="M94.2439 108.874C94.213 108.855 94.1861 108.831 94.1649 108.802C94.1437 108.773 94.1286 108.739 94.1206 108.704C94.1125 108.669 94.1117 108.633 94.1181 108.598C94.1245 108.562 94.1381 108.528 94.158 108.498C94.1968 108.436 94.2586 108.391 94.3302 108.373C94.4018 108.356 94.4774 108.367 94.5408 108.405C95.0075 108.693 95.5689 108.785 96.1035 108.663C96.6381 108.54 97.1024 108.21 97.3952 107.746C97.6879 107.282 97.7853 106.721 97.6661 106.186C97.5737 105.789 97.3656 105.428 97.0683 105.149C96.771 104.87 96.3977 104.686 95.9956 104.619C95.5935 104.552 95.1806 104.606 94.8091 104.773C94.4375 104.941 94.1239 105.215 93.9079 105.561C93.8896 105.592 93.8651 105.618 93.836 105.64C93.807 105.661 93.7739 105.676 93.7388 105.684C93.7038 105.692 93.6674 105.693 93.632 105.686C93.5966 105.68 93.5629 105.666 93.5329 105.647C93.5017 105.63 93.4749 105.606 93.4548 105.576C93.449 105.551 93.449 105.524 93.4548 105.498V105.443L93.1188 102.318C93.1123 102.279 93.1146 102.24 93.1254 102.202C93.1362 102.164 93.1553 102.129 93.1813 102.099C93.1999 102.072 93.2241 102.048 93.2524 102.031C93.2807 102.013 93.3124 102.002 93.3454 101.998L96.8457 101.216C96.9181 101.202 96.9932 101.216 97.0556 101.255C97.1181 101.294 97.1632 101.356 97.1817 101.427C97.1909 101.463 97.1926 101.5 97.1868 101.536C97.181 101.572 97.1678 101.607 97.148 101.638C97.1282 101.668 97.1022 101.695 97.0717 101.715C97.0412 101.735 97.0068 101.749 96.9708 101.756L93.6892 102.537L93.9392 104.834C94.2747 104.519 94.6869 104.298 95.1346 104.193C95.4692 104.115 95.8161 104.104 96.155 104.161C96.494 104.217 96.8183 104.341 97.1091 104.524C97.3999 104.707 97.6513 104.947 97.8489 105.228C98.0465 105.509 98.1862 105.827 98.26 106.162C98.3391 106.497 98.3508 106.844 98.2945 107.184C98.2381 107.523 98.1148 107.848 97.9318 108.139C97.5554 108.719 96.971 109.133 96.2988 109.295C95.9457 109.371 95.5809 109.372 95.2272 109.299C94.8736 109.227 94.5388 109.082 94.2439 108.874Z" fill="#FAFAFA"/>
<path d="M100.229 102.109C100.371 101.569 100.656 101.077 101.053 100.684C101.45 100.291 101.945 100.011 102.487 99.8746C102.554 99.8552 102.627 99.8632 102.688 99.8969C102.749 99.9306 102.795 99.9872 102.815 100.054C102.83 100.126 102.819 100.2 102.783 100.263C102.747 100.327 102.689 100.375 102.62 100.398C102.168 100.513 101.755 100.747 101.424 101.076C101.093 101.404 100.856 101.815 100.737 102.266C100.586 102.796 100.523 103.348 100.549 103.898C100.718 103.578 100.954 103.297 101.241 103.076C101.528 102.855 101.86 102.698 102.213 102.617C102.701 102.504 103.212 102.538 103.68 102.713C104.149 102.889 104.556 103.199 104.85 103.604C105.144 104.01 105.311 104.493 105.332 104.993C105.353 105.494 105.226 105.989 104.966 106.417C104.707 106.846 104.328 107.188 103.875 107.402C103.422 107.616 102.916 107.691 102.421 107.619C101.925 107.547 101.462 107.331 101.089 106.997C100.716 106.663 100.449 106.227 100.323 105.742C100.263 105.582 100.216 105.418 100.182 105.25C99.9344 104.216 99.9505 103.136 100.229 102.109ZM100.838 105.594C100.847 105.642 100.866 105.687 100.893 105.727C100.901 105.752 100.901 105.779 100.893 105.805C101.055 106.328 101.415 106.768 101.896 107.031C102.377 107.294 102.941 107.359 103.469 107.214C103.997 107.068 104.448 106.722 104.726 106.25C105.004 105.777 105.087 105.216 104.958 104.683C104.829 104.15 104.498 103.689 104.034 103.396C103.571 103.104 103.012 103.003 102.476 103.115C101.939 103.227 101.468 103.544 101.161 103.998C100.854 104.452 100.735 105.007 100.831 105.547L100.838 105.594Z" fill="#FAFAFA"/>
<path d="M108.504 106.014L109.769 98.7712L106.136 99.6073C106.068 99.6237 105.996 99.6124 105.936 99.5758C105.876 99.5392 105.832 99.4803 105.816 99.4119C105.802 99.3426 105.815 99.2705 105.853 99.2108C105.891 99.1511 105.95 99.1083 106.019 99.0916L109.996 98.1774C110.05 98.1616 110.107 98.1616 110.16 98.1774C110.232 98.1973 110.296 98.2414 110.34 98.3024C110.356 98.3295 110.369 98.3583 110.379 98.3884C110.394 98.4366 110.394 98.4886 110.379 98.5368L109.058 106.131C109.048 106.181 109.024 106.227 108.99 106.264C108.955 106.301 108.912 106.328 108.863 106.342C108.825 106.354 108.784 106.354 108.746 106.342C108.67 106.331 108.602 106.29 108.557 106.228C108.512 106.167 108.492 106.09 108.504 106.014Z" fill="#FAFAFA"/>
<path d="M114.293 97.1217C114.708 97.0276 115.142 97.1003 115.503 97.324C115.864 97.5476 116.123 97.9044 116.223 98.3172C116.278 98.5658 116.274 98.8238 116.211 99.0706C116.149 99.3174 116.03 99.5463 115.864 99.7392C116.432 99.8364 116.949 100.128 117.327 100.564C117.705 100.999 117.92 101.553 117.935 102.129C117.951 102.706 117.766 103.27 117.412 103.725C117.058 104.18 116.557 104.499 115.995 104.627C115.433 104.754 114.843 104.683 114.328 104.425C113.812 104.167 113.402 103.738 113.167 103.211C112.932 102.684 112.887 102.092 113.04 101.536C113.193 100.98 113.533 100.494 114.004 100.161C113.776 100.056 113.575 99.9001 113.416 99.705C113.258 99.5099 113.146 99.281 113.09 99.036C113.038 98.8311 113.029 98.6178 113.062 98.409C113.095 98.2002 113.17 98.0003 113.282 97.8214C113.395 97.6424 113.542 97.4881 113.716 97.3679C113.89 97.2476 114.086 97.1639 114.293 97.1217ZM115.903 104.154C116.284 104.07 116.631 103.874 116.901 103.593C117.17 103.311 117.35 102.955 117.418 102.571C117.485 102.187 117.437 101.792 117.279 101.435C117.122 101.078 116.861 100.776 116.532 100.568C116.202 100.359 115.818 100.253 115.428 100.263C115.039 100.273 114.66 100.398 114.342 100.623C114.023 100.848 113.779 101.163 113.64 101.527C113.5 101.891 113.472 102.289 113.559 102.669C113.678 103.173 113.991 103.609 114.43 103.882C114.869 104.156 115.398 104.245 115.903 104.13V104.154ZM114.895 99.7626C115.168 99.6872 115.401 99.5096 115.547 99.2667C115.692 99.0237 115.739 98.734 115.676 98.4578C115.605 98.1876 115.432 97.9557 115.193 97.8109C114.954 97.6661 114.668 97.6197 114.395 97.6815C114.123 97.7433 113.885 97.9084 113.732 98.1422C113.579 98.3759 113.522 98.6599 113.574 98.9344C113.607 99.0755 113.666 99.2089 113.75 99.3269C113.834 99.4449 113.94 99.5452 114.063 99.6222C114.186 99.6991 114.322 99.7511 114.465 99.7752C114.608 99.7993 114.754 99.795 114.895 99.7626Z" fill="#FAFAFA"/>
<path d="M127.67 94.0511C128.279 93.9057 128.921 93.9913 129.471 94.2915C130.021 94.5917 130.44 95.0851 130.647 95.6763V95.7232C130.709 95.9263 130.764 96.1373 130.819 96.3639C131.081 97.3891 131.081 98.464 130.819 99.4892C130.671 100.027 130.385 100.516 129.989 100.909C129.592 101.301 129.1 101.582 128.561 101.724C128.527 101.733 128.491 101.736 128.456 101.732C128.422 101.727 128.388 101.716 128.357 101.699C128.327 101.681 128.3 101.658 128.279 101.63C128.257 101.602 128.242 101.57 128.232 101.536C128.216 101.466 128.226 101.392 128.263 101.329C128.299 101.267 128.358 101.22 128.428 101.2C128.878 101.082 129.289 100.845 129.619 100.516C129.948 100.187 130.184 99.7756 130.303 99.3251C130.46 98.7983 130.526 98.2488 130.498 97.6999C130.295 98.0734 130.002 98.3901 129.646 98.6213C129.289 98.8525 128.88 98.9907 128.456 99.0235C128.033 99.0562 127.607 98.9824 127.22 98.8087C126.832 98.6351 126.493 98.3671 126.235 98.0292C125.978 97.6914 125.808 97.2944 125.743 96.8744C125.678 96.4544 125.719 96.0248 125.862 95.6247C126.006 95.2245 126.247 94.8667 126.564 94.5837C126.881 94.3006 127.264 94.1014 127.678 94.0042L127.67 94.0511ZM130.209 96.067C130.124 95.6786 129.926 95.3242 129.64 95.0481C129.354 94.7721 128.992 94.5869 128.601 94.5157C128.21 94.4446 127.806 94.4906 127.441 94.6482C127.076 94.8057 126.766 95.0677 126.55 95.4012C126.333 95.7346 126.22 96.1246 126.225 96.5222C126.229 96.9197 126.351 97.3071 126.575 97.6354C126.799 97.9638 127.116 98.2186 127.484 98.3677C127.853 98.5168 128.257 98.5536 128.647 98.4735C128.909 98.4206 129.157 98.316 129.378 98.1658C129.599 98.0156 129.788 97.8228 129.934 97.5987C130.079 97.3745 130.179 97.1236 130.226 96.8606C130.273 96.5976 130.268 96.3278 130.209 96.067Z" fill="#FAFAFA"/>
<path d="M132.935 96.8011C132.703 95.8743 132.744 94.9003 133.052 93.9961C133.156 93.613 133.362 93.2653 133.648 92.9904C133.935 92.7154 134.29 92.5235 134.677 92.4352C135.064 92.3469 135.468 92.3655 135.845 92.4891C136.222 92.6126 136.559 92.8365 136.818 93.1366C137.487 93.8146 137.95 94.6678 138.154 95.5978C138.378 96.5238 138.332 97.4944 138.022 98.395C137.922 98.7799 137.718 99.13 137.432 99.4071C137.147 99.6841 136.791 99.8775 136.404 99.9662C136.016 100.055 135.611 100.035 135.234 99.9099C134.856 99.7844 134.521 99.5577 134.263 99.2545C133.588 98.5855 133.126 97.7319 132.935 96.8011ZM133.466 96.6761C133.637 97.5035 134.044 98.2635 134.638 98.8638C134.844 99.0881 135.103 99.2577 135.391 99.3573C135.678 99.4568 135.986 99.4833 136.287 99.4342C136.576 99.3429 136.839 99.1828 137.052 98.9678C137.266 98.7528 137.424 98.4893 137.514 98.1997C137.775 97.3944 137.814 96.5334 137.625 95.708C137.437 94.8826 137.028 94.1236 136.443 93.5117C136.249 93.2729 135.991 93.0933 135.7 92.9934C135.409 92.8935 135.095 92.8772 134.795 92.9463C134.495 93.0155 134.22 93.1673 134.002 93.3846C133.784 93.6019 133.631 93.876 133.56 94.1758C133.289 94.9828 133.256 95.851 133.466 96.6761Z" fill="#FAFAFA"/>
<path d="M140.945 91.802L140.023 92.6693C139.99 92.7026 139.95 92.7268 139.905 92.7396C139.86 92.751 139.812 92.7504 139.767 92.7381C139.722 92.7258 139.681 92.7021 139.648 92.6693C139.621 92.6451 139.599 92.6156 139.585 92.5826C139.57 92.5497 139.562 92.514 139.562 92.4779C139.562 92.4418 139.57 92.4061 139.585 92.3731C139.599 92.3402 139.621 92.3106 139.648 92.2865L140.898 91.0754C140.948 91.0276 141.016 91.001 141.085 91.001C141.155 91.001 141.222 91.0276 141.273 91.0754C141.318 91.1283 141.345 91.1938 141.351 91.2629L142.914 98.1699C142.93 98.2383 142.919 98.3104 142.882 98.3705C142.845 98.4305 142.787 98.4736 142.718 98.4903C142.65 98.5047 142.579 98.4925 142.519 98.4562C142.46 98.4199 142.416 98.3622 142.398 98.2949L140.945 91.802Z" fill="#FAFAFA"/>
<path d="M144.75 97.5556L147.539 93.5786C147.695 93.3531 147.803 93.0982 147.856 92.8295C147.91 92.5608 147.908 92.284 147.852 92.016C147.731 91.5128 147.418 91.0768 146.98 90.8009C146.542 90.5251 146.014 90.4312 145.508 90.5393C145.026 90.6416 144.599 90.9203 144.312 91.3206L144.023 91.7347C144.005 91.7651 143.981 91.7912 143.952 91.8115C143.923 91.8318 143.89 91.8457 143.855 91.8524C143.821 91.859 143.785 91.8582 143.751 91.8501C143.716 91.8419 143.684 91.8265 143.656 91.805C143.625 91.7876 143.598 91.7638 143.577 91.7352C143.556 91.7066 143.541 91.6738 143.534 91.6391C143.526 91.6043 143.526 91.5684 143.534 91.5337C143.542 91.499 143.557 91.4663 143.578 91.4378L143.867 91.0159C144.234 90.5009 144.775 90.1371 145.39 89.9923C146.04 89.8494 146.719 89.9676 147.282 90.3214C147.845 90.6751 148.246 91.2361 148.399 91.8831C148.479 92.2273 148.486 92.5844 148.42 92.9315C148.354 93.2786 148.216 93.6081 148.016 93.899L145.633 97.3056L149.188 96.5243C149.223 96.5163 149.259 96.5155 149.294 96.5219C149.329 96.5282 149.363 96.5417 149.393 96.5614C149.423 96.5811 149.448 96.6067 149.468 96.6365C149.488 96.6664 149.502 96.7 149.508 96.7352C149.52 96.8023 149.507 96.8715 149.471 96.9293C149.435 96.9872 149.378 97.0294 149.313 97.0478L145.117 98.0088H145.07C145.002 98.0362 144.927 98.0362 144.859 98.0088C144.819 97.989 144.784 97.9607 144.757 97.9259C144.729 97.8912 144.709 97.8508 144.699 97.8077C144.689 97.7645 144.688 97.7196 144.696 97.676C144.705 97.6325 144.723 97.5914 144.75 97.5556Z" fill="#FAFAFA"/>
<path d="M160.579 86.979L159.095 89.4246C159.606 89.4151 160.11 89.5505 160.548 89.8153C161.132 90.1912 161.547 90.7797 161.705 91.4561C161.784 91.7917 161.794 92.1399 161.735 92.4796C161.676 92.8194 161.548 93.1436 161.361 93.4329C160.993 94.0241 160.406 94.4455 159.728 94.6049C159.394 94.6813 159.049 94.6902 158.712 94.6312C158.376 94.5722 158.054 94.4463 157.767 94.2611C157.732 94.2441 157.702 94.2202 157.677 94.1908C157.653 94.1614 157.635 94.1272 157.625 94.0904C157.614 94.0536 157.612 94.015 157.617 93.9772C157.622 93.9393 157.636 93.903 157.656 93.8706C157.676 93.8382 157.703 93.8104 157.735 93.7891C157.767 93.7677 157.803 93.7532 157.84 93.7466C157.878 93.74 157.916 93.7413 157.954 93.7505C157.991 93.7597 158.025 93.7766 158.056 93.8001C158.286 93.9446 158.543 94.0412 158.812 94.0842C159.08 94.1271 159.354 94.1156 159.618 94.0501C159.884 93.992 160.135 93.8817 160.358 93.7258C160.58 93.5699 160.77 93.3714 160.915 93.1418C161.06 92.9121 161.159 92.656 161.204 92.3881C161.25 92.1202 161.242 91.8459 161.181 91.5811C161.122 91.3153 161.011 91.0639 160.854 90.8413C160.697 90.6186 160.498 90.4292 160.268 90.2839C160.038 90.1387 159.781 90.0404 159.513 89.9948C159.244 89.9493 158.969 89.9573 158.704 90.0184C158.663 90.0262 158.62 90.0246 158.58 90.0137C158.539 90.0029 158.502 89.9832 158.47 89.9559C158.439 89.9368 158.412 89.9116 158.39 89.8819C158.369 89.8521 158.354 89.8184 158.346 89.7827C158.338 89.747 158.337 89.71 158.344 89.674C158.35 89.638 158.364 89.6037 158.384 89.5731L159.814 87.2291L156.931 87.8854C156.896 87.8946 156.859 87.8967 156.823 87.8913C156.788 87.886 156.753 87.8735 156.723 87.8545C156.692 87.8354 156.666 87.8104 156.645 87.7808C156.624 87.7511 156.61 87.7176 156.602 87.6822C156.586 87.6108 156.598 87.5357 156.636 87.473C156.674 87.4102 156.735 87.3647 156.806 87.3463L160.322 86.5649C160.393 86.5483 160.468 86.5602 160.531 86.5982C160.594 86.6361 160.639 86.6971 160.658 86.7681C160.669 86.8116 160.669 86.8574 160.658 86.9009C160.639 86.9337 160.612 86.9607 160.579 86.979Z" fill="#FAFAFA"/>
<path d="M168.166 91.0358L164.08 91.9499C164.024 91.969 163.963 91.969 163.908 91.9499C163.875 91.9351 163.847 91.9137 163.823 91.8872C163.8 91.8607 163.782 91.8296 163.771 91.7958C163.76 91.7621 163.756 91.7264 163.759 91.6911C163.763 91.6558 163.773 91.6215 163.79 91.5905L166.916 85.168C166.931 85.1364 166.953 85.1084 166.98 85.0856C167.007 85.0629 167.038 85.0458 167.072 85.0356C167.106 85.0253 167.141 85.0221 167.176 85.026C167.211 85.03 167.245 85.0411 167.275 85.0586C167.323 85.0842 167.364 85.1219 167.392 85.168C167.392 85.168 167.392 85.168 167.392 85.207L168.58 90.3638L169.088 90.2545C169.122 90.2451 169.158 90.2428 169.194 90.2476C169.229 90.2524 169.263 90.2643 169.293 90.2826C169.324 90.3008 169.351 90.325 169.372 90.3537C169.393 90.3824 169.408 90.4151 169.416 90.4498C169.43 90.5202 169.416 90.5932 169.376 90.6531C169.337 90.7131 169.275 90.7551 169.205 90.7701L168.697 90.8795L168.994 92.1765C169.01 92.246 168.997 92.3187 168.959 92.3788C168.921 92.4389 168.86 92.4813 168.791 92.4969C168.722 92.5124 168.649 92.4998 168.589 92.4617C168.529 92.4236 168.486 92.3632 168.471 92.2937L168.166 91.0358ZM168.049 90.5201L167.033 86.1134L164.486 91.3405L168.049 90.5201Z" fill="#FAFAFA"/>
<path d="M171.339 91.1686C171.308 91.1503 171.281 91.1258 171.26 91.0967C171.239 91.0677 171.223 91.0346 171.215 90.9995C171.207 90.9644 171.207 90.9281 171.213 90.8927C171.219 90.8573 171.233 90.8236 171.253 90.7936C171.272 90.7624 171.297 90.7353 171.327 90.7141C171.357 90.6928 171.39 90.6777 171.426 90.6697C171.462 90.6616 171.499 90.6609 171.535 90.6674C171.571 90.6739 171.605 90.6876 171.636 90.7076C171.866 90.8513 172.123 90.9475 172.392 90.9904C172.66 91.0333 172.934 91.0222 173.198 90.9577C173.462 90.8994 173.712 90.7885 173.932 90.6314C174.153 90.4743 174.339 90.2743 174.48 90.0435C174.625 89.8136 174.724 89.5571 174.769 89.2888C174.815 89.0206 174.807 88.7459 174.745 88.4808C174.654 88.0833 174.447 87.7218 174.15 87.442C173.853 87.1623 173.48 86.9768 173.078 86.9091C172.675 86.8413 172.262 86.8944 171.89 87.0615C171.518 87.2286 171.204 87.5023 170.987 87.8479C170.969 87.8789 170.944 87.9058 170.915 87.927C170.886 87.9482 170.853 87.9633 170.818 87.9713C170.783 87.9793 170.747 87.9802 170.711 87.9737C170.676 87.9673 170.642 87.9538 170.612 87.9339C170.577 87.9197 170.547 87.8952 170.526 87.8636C170.52 87.8352 170.52 87.806 170.526 87.7776C170.526 87.7776 170.526 87.7776 170.526 87.7229L170.19 84.5976C170.183 84.5588 170.184 84.5187 170.195 84.4807C170.206 84.4427 170.226 84.4077 170.253 84.3788C170.291 84.3277 170.347 84.2918 170.409 84.2773L173.917 83.4959C173.989 83.4793 174.064 83.4918 174.126 83.5307C174.188 83.5695 174.233 83.6315 174.249 83.703C174.266 83.7745 174.253 83.8496 174.214 83.9119C174.176 83.9742 174.114 84.0185 174.042 84.035L170.761 84.8164L171.003 87.1135C171.341 86.7996 171.756 86.5812 172.206 86.4806C172.539 86.399 172.886 86.386 173.224 86.4424C173.563 86.4988 173.886 86.6235 174.175 86.8088C174.468 86.9892 174.721 87.2268 174.92 87.5074C175.118 87.788 175.258 88.1058 175.331 88.4418C175.411 88.7765 175.423 89.1238 175.367 89.4632C175.31 89.8027 175.187 90.1274 175.003 90.4185C174.629 91.0009 174.044 91.4155 173.37 91.5749C173.022 91.6513 172.662 91.6547 172.312 91.5848C171.962 91.5148 171.631 91.3731 171.339 91.1686Z" fill="#FAFAFA"/>
<path d="M177.362 84.3689C177.503 83.8272 177.787 83.3333 178.184 82.9388C178.582 82.5443 179.078 82.2638 179.62 82.1265C179.688 82.1098 179.759 82.12 179.819 82.155C179.878 82.1901 179.922 82.2471 179.941 82.314C179.958 82.3834 179.948 82.4567 179.913 82.5191C179.878 82.5815 179.821 82.6283 179.753 82.65C179.301 82.7668 178.888 83.0021 178.557 83.3317C178.226 83.6614 177.989 84.0734 177.87 84.5252C177.72 85.0531 177.656 85.6021 177.683 86.1504C177.852 85.8306 178.088 85.5513 178.375 85.3314C178.663 85.1116 178.994 84.9565 179.347 84.8768C179.835 84.7655 180.345 84.8005 180.813 84.9773C181.281 85.1541 181.687 85.4648 181.979 85.8708C182.272 86.2768 182.439 86.76 182.458 87.2601C182.478 87.7602 182.35 88.255 182.09 88.6827C181.83 89.1104 181.45 89.4521 180.997 89.6651C180.544 89.8781 180.039 89.953 179.544 89.8804C179.048 89.8078 178.586 89.591 178.213 89.2569C177.84 88.9229 177.574 88.4864 177.448 88.0021C177.395 87.8407 177.35 87.6763 177.315 87.5099C177.068 86.4755 177.084 85.3955 177.362 84.3689ZM177.972 87.8537C177.982 87.8995 177.998 87.944 178.018 87.9865C178.026 88.012 178.026 88.0391 178.018 88.0646C178.193 88.5711 178.557 88.9899 179.034 89.2327C179.511 89.4755 180.064 89.5231 180.576 89.3655C181.088 89.208 181.518 88.8575 181.776 88.3884C182.035 87.9192 182.1 87.368 181.959 86.8514C181.818 86.3348 181.482 85.8932 181.021 85.62C180.561 85.3468 180.012 85.2635 179.491 85.3875C178.97 85.5116 178.518 85.8334 178.23 86.2849C177.942 86.7364 177.841 87.2821 177.948 87.8068L177.972 87.8537Z" fill="#FAFAFA"/>
<path d="M134.952 113.897L69.3195 128.977L70.0614 132.206L135.694 117.126L134.952 113.897Z" fill="#FAFAFA"/>
<path d="M117.427 125.461L70.9612 136.137L71.703 139.366L118.169 128.69L117.427 125.461Z" fill="#FAFAFA"/>
<path d="M146.375 54.4724L113.639 61.9941L114.381 65.2229L147.117 57.7011L146.375 54.4724Z" fill="#FAFAFA"/>
<path d="M173.456 62.8169L172.674 62.3403L172.237 62.0746C172.842 61.1189 173.253 60.0532 173.445 58.9384C173.638 57.8236 173.609 56.6818 173.359 55.5784C173.109 54.475 172.644 53.4318 171.99 52.5086C171.337 51.5854 170.507 50.8003 169.549 50.1984L169.815 49.7921C169.979 49.542 170.135 49.292 170.291 49.0107H170.338C170.627 49.2139 170.924 49.4092 171.205 49.628C171.784 50.0874 172.309 50.6117 172.768 51.1907C173.316 51.8621 173.768 52.6062 174.112 53.4018C174.276 53.7769 174.401 54.1832 174.542 54.5582C174.589 54.6832 174.792 55.5661 174.792 55.5974C174.839 55.8709 174.886 56.1443 174.917 56.4256C175.018 57.2037 175.018 57.9915 174.917 58.7696C174.763 59.9134 174.417 61.023 173.893 62.0512C173.753 62.309 173.596 62.5669 173.456 62.8325V62.8169Z" fill="white"/>
<path d="M168.096 52.5914C168.338 52.193 168.588 51.8101 168.877 51.4038C170.2 52.2222 171.214 53.4559 171.76 54.912C172.167 55.9521 172.323 57.0735 172.216 58.1853C172.109 59.2971 171.741 60.3679 171.143 61.3111L169.948 60.5298C170.763 59.2324 171.031 57.6642 170.691 56.1698C170.351 54.6754 169.432 53.3771 168.135 52.5602L168.096 52.5914Z" fill="white"/>
<path d="M168.706 59.7995L167.518 59.0181C167.727 58.6898 167.868 58.3234 167.934 57.9401C168 57.5569 167.989 57.1643 167.903 56.7851C167.817 56.406 167.656 56.0477 167.43 55.7309C167.205 55.4141 166.918 55.1452 166.588 54.9396L167.37 53.752C167.86 54.0566 168.284 54.4561 168.617 54.9271C168.951 55.398 169.187 55.9309 169.311 56.4944C169.436 57.0578 169.446 57.6405 169.342 58.2081C169.238 58.7757 169.022 59.3167 168.706 59.7995Z" fill="white"/>
<path d="M39.6294 345.567L102.972 345.38L166.315 345.31L293 345.185L419.686 345.31L483.028 345.38L546.371 345.567L483.028 345.763L419.686 345.833L293 345.958L166.315 345.833L102.972 345.763L39.6294 345.567Z" fill="#263238"/>
<path d="M73.6556 215.012C73.6556 215.012 55.2786 212.434 59.5916 190.244C59.5681 190.244 80.1094 194.854 73.6556 215.012Z" fill="#34A1D3"/>
<path opacity="0.1" d="M73.6556 215.012C73.6556 215.012 55.2786 212.434 59.5916 190.244C59.5681 190.244 80.1094 194.854 73.6556 215.012Z" fill="black"/>
<path d="M72.7264 210.379C72.3655 209.257 71.9483 208.154 71.4762 207.074C71.4762 206.926 71.4762 206.785 71.4294 206.652C71.4294 206.348 71.3747 206.043 71.3512 205.738C71.3043 205.074 71.2575 204.41 71.2184 203.746C71.1403 202.425 71.0543 201.097 71.0387 199.769C71.0387 199.698 70.9293 199.698 70.9215 199.769C70.9215 201.097 70.9215 202.425 70.9215 203.754C70.9215 204.418 70.984 205.082 71.0309 205.746C71.0309 205.887 71.0309 206.035 71.0309 206.183C69.9961 203.974 68.7617 201.863 67.343 199.878C66.7101 198.995 66.046 198.151 65.335 197.331C64.624 196.511 63.827 195.698 63.0847 194.87C63.0378 194.815 62.9597 194.87 63.0066 194.948C64.3254 196.403 65.5124 197.971 66.5538 199.636C67.1086 200.48 67.6399 201.347 68.1165 202.23L67.9446 202.16L67.2883 201.894L65.8663 201.331C64.8818 200.964 63.8895 200.605 62.9128 200.23C62.8503 200.23 62.8113 200.308 62.8659 200.331C63.8504 200.722 64.8115 201.113 65.7803 201.55L67.2024 202.16C67.4446 202.269 67.679 202.363 67.9212 202.457C68.0746 202.534 68.2374 202.592 68.4056 202.628C68.7806 203.3 69.1869 203.964 69.4838 204.644C70.3381 206.364 71.0895 208.133 71.7341 209.942C71.7341 210.067 71.82 210.192 71.8669 210.325C71.3825 210.046 70.8785 209.803 70.3589 209.598C69.7261 209.301 69.0854 209.02 68.4525 208.731C67.1633 208.137 65.8819 207.535 64.6474 206.84C64.5849 206.801 64.5302 206.902 64.5927 206.934C65.8585 207.629 67.093 208.363 68.3587 209.051C68.9916 209.395 69.6323 209.723 70.273 210.035C70.8103 210.353 71.3925 210.587 71.9997 210.731C72.617 212.411 73.0237 214.162 73.2108 215.942C73.4139 218.45 73.3905 220.982 73.4452 223.498H73.5155C73.6952 221.216 73.8046 218.911 73.8124 216.622C73.7863 214.496 73.4196 212.389 72.7264 210.379Z" fill="#263238"/>
<path d="M69.8978 197.335C69.7213 198.629 69.6612 199.937 69.7181 201.242C69.7181 201.242 69.7649 201.242 69.7727 201.242C69.8431 199.945 69.8587 198.655 70.0071 197.335C70.015 197.288 69.9056 197.265 69.8978 197.335Z" fill="#263238"/>
<path d="M64.6391 198.44C63.8233 198.126 63.0386 197.736 62.2951 197.276C62.2326 197.237 62.1779 197.338 62.2404 197.377C62.9626 197.869 63.7521 198.253 64.5844 198.518C64.6548 198.526 64.686 198.456 64.6391 198.44Z" fill="#263238"/>
<path d="M74.2263 250.237C74.2263 248.205 74.1716 246.174 74.1482 244.142C74.1482 237.399 74.0544 230.657 73.9372 223.906C73.833 218.556 73.708 213.204 73.5622 207.849C73.5611 207.835 73.5562 207.82 73.548 207.808C73.5398 207.796 73.5285 207.786 73.5153 207.779V203.388C73.5153 203.388 73.4684 203.333 73.4293 203.341C73.3903 203.349 73.3434 203.341 73.3434 203.396C73.3434 204.857 73.3434 206.326 73.3434 207.787C73.3391 207.797 73.3369 207.807 73.3369 207.818C73.3369 207.829 73.3391 207.84 73.3434 207.849C73.0699 217.382 72.8277 226.914 72.773 236.446C72.773 238.384 72.773 240.353 72.773 242.259C72.7053 248.479 72.6793 254.693 72.6949 260.902C72.6949 261.894 72.6949 262.887 72.6949 263.871C72.6949 269.559 72.7496 275.247 72.7496 280.935C72.7496 281.24 73.0934 281.388 73.4528 281.404C73.8122 281.42 74.3044 281.256 74.3044 280.904C74.3044 274.653 74.3513 268.403 74.3513 262.097C74.2263 258.144 74.2732 254.19 74.2263 250.237Z" fill="#263238"/>
<path d="M66.5694 244.063C66.5694 244.063 57.7247 237.516 49.3332 241.961C40.9417 246.407 39.629 263.448 39.629 263.448C39.629 263.448 51.9507 265.206 59.7093 257.823C67.1945 250.689 66.5694 244.063 66.5694 244.063Z" fill="#34A1D3"/>
<path d="M68.9755 244.471C67.3508 243.83 65.5923 243.602 63.8578 243.807C63.499 243.743 63.136 243.707 62.7717 243.698L61.5294 243.604L58.951 243.424C57.2008 243.292 55.4506 243.19 53.716 243.01C53.6535 243.01 53.6379 243.112 53.716 243.12C55.4428 243.338 57.1539 243.588 58.8807 243.76C59.7714 243.854 60.6621 243.94 61.5528 244.003L62.2013 244.073C61.9357 244.128 61.67 244.19 61.42 244.26C60.0257 244.661 58.675 245.2 57.3883 245.87C56.6929 245.995 56.0054 246.19 55.3178 246.347C54.2239 246.604 53.1379 246.886 52.0518 247.175C49.9031 247.737 47.7779 248.37 45.6449 248.987C45.5824 248.987 45.6449 249.112 45.6449 249.097C47.7701 248.573 49.911 248.097 52.044 247.589L55.1693 246.808C55.435 246.737 55.7084 246.675 55.9507 246.62C53.5842 248.092 51.473 249.939 49.7 252.089C47.9695 254.198 46.5027 256.509 45.3323 258.973C45.3323 259.035 45.387 259.098 45.4261 259.035C46.8887 256.511 48.6719 254.187 50.7313 252.121L50.6141 252.472L50.1219 254.035C49.8016 255.082 49.4656 256.121 49.1531 257.16C49.1531 257.175 49.1588 257.189 49.1691 257.199C49.1793 257.209 49.1932 257.215 49.2077 257.215C49.2223 257.215 49.2362 257.209 49.2464 257.199C49.2567 257.189 49.2624 257.175 49.2624 257.16C49.6375 256.152 49.9891 255.137 50.3485 254.121C50.5204 253.621 50.7001 253.129 50.872 252.628C50.9658 252.371 51.0517 252.113 51.1376 251.847C51.1616 251.765 51.1903 251.684 51.2236 251.605C52.2063 250.647 53.2503 249.755 54.3489 248.933C55.8048 247.862 57.3776 246.961 59.0369 246.245L58.9432 246.698L58.6853 247.909C58.5134 248.745 58.3494 249.581 58.1853 250.425C57.8571 252.136 57.6462 253.863 57.3258 255.574C57.3258 255.644 57.4196 255.676 57.4352 255.574C57.8337 253.855 58.3415 252.16 58.7244 250.433C58.9197 249.573 59.1151 248.706 59.2948 247.847C59.3729 247.44 59.4588 247.065 59.537 246.636C59.59 246.411 59.6317 246.184 59.662 245.956C59.8261 245.893 59.9823 245.815 60.1386 245.761C62.4826 244.901 65.0219 244.276 67.4988 244.753C68.6675 244.97 69.7645 245.472 70.6926 246.215C71.6208 246.958 72.3513 247.918 72.8196 249.011C72.8978 249.206 73.2025 249.089 73.1556 248.886C72.8466 247.877 72.3084 246.954 71.5833 246.188C70.8581 245.423 69.9655 244.835 68.9755 244.471Z" fill="#263238"/>
<path d="M55.4746 251.761L54.6933 255.12C54.4177 256.195 54.2116 257.285 54.076 258.386C54.076 258.433 54.1386 258.433 54.1542 258.386C54.4847 257.308 54.7457 256.209 54.9355 255.097C55.1543 253.987 55.3652 252.886 55.584 251.776C55.5861 251.762 55.5823 251.747 55.5735 251.735C55.5647 251.723 55.5517 251.716 55.5371 251.714C55.5226 251.712 55.5079 251.715 55.4962 251.724C55.4845 251.733 55.4767 251.746 55.4746 251.761Z" fill="#263238"/>
<path d="M46.8798 254.605C45.7547 255.175 44.6608 255.823 43.481 256.292C43.4107 256.292 43.481 256.433 43.5279 256.394C44.6827 255.872 45.8093 255.291 46.9032 254.651C46.9032 254.651 46.9188 254.589 46.8798 254.605Z" fill="#263238"/>
<path d="M68.554 232.038C68.554 232.038 57.7481 232.726 52.7242 225.6C47.7002 218.474 48.8175 208.301 48.8175 208.301C48.8175 208.301 60.1703 209.676 64.6786 214.794C69.1869 219.912 68.554 232.038 68.554 232.038Z" fill="#34A1D3"/>
<path d="M73.6253 242.695C73.2502 241.539 72.7892 240.398 72.3517 239.265C71.9141 238.132 71.4844 237.093 71.0078 236.03C70.0445 233.85 68.9621 231.724 67.7653 229.663C66.9839 228.35 66.2026 227.076 65.3509 225.818C65.3509 225.623 65.2962 225.436 65.265 225.24C65.2103 224.904 65.1634 224.576 65.1165 224.24C65.0071 223.553 64.8899 222.873 64.7727 222.193C64.5227 220.701 64.218 219.216 63.9914 217.724C63.9914 217.654 63.8742 217.654 63.882 217.724C64.1008 219.201 64.2493 220.685 64.4524 222.162C64.554 222.881 64.6477 223.607 64.7571 224.334C64.804 224.592 64.8431 224.857 64.8821 225.115C63.2351 222.704 61.4507 220.391 59.5378 218.185C59.28 217.888 59.0143 217.591 58.7565 217.302C58.7294 217.216 58.6954 217.132 58.6549 217.052L58.4205 216.435L57.9517 215.145C57.6548 214.302 57.3813 213.442 57.1704 212.575C57.1737 212.567 57.1749 212.558 57.174 212.549C57.173 212.54 57.1699 212.531 57.1649 212.524C57.1599 212.516 57.1531 212.51 57.1452 212.506C57.1373 212.502 57.1285 212.5 57.1196 212.5C57.1107 212.5 57.1019 212.502 57.094 212.506C57.0861 212.51 57.0793 212.516 57.0743 212.524C57.0693 212.531 57.0662 212.54 57.0652 212.549C57.0642 212.558 57.0655 212.567 57.0688 212.575C57.2876 213.466 57.5142 214.348 57.772 215.224C57.897 215.645 58.0377 216.067 58.1861 216.482L58.2642 216.692C56.8813 215.185 55.4436 213.731 53.9903 212.301C53.9357 212.247 53.8575 212.301 53.9122 212.38C56.703 215.302 59.263 218.437 61.5693 221.756C61.3136 221.671 61.0526 221.603 60.788 221.552C59.9597 221.388 59.1159 221.271 58.2799 221.162C56.5141 220.943 54.7639 220.716 53.0059 220.443C52.9914 220.443 52.9775 220.449 52.9672 220.459C52.9569 220.469 52.9512 220.483 52.9512 220.498C52.9512 220.512 52.9569 220.526 52.9672 220.536C52.9775 220.547 52.9914 220.552 53.0059 220.552C54.6779 220.88 56.3422 221.255 57.9986 221.638C58.7799 221.818 59.5613 221.974 60.3426 222.131C60.9846 222.266 61.6164 222.446 62.2334 222.67C62.4131 222.92 62.5928 223.162 62.7647 223.451C63.5461 224.6 64.3274 225.795 65.0618 226.967L63.9602 226.748C63.1241 226.592 62.2881 226.436 61.4521 226.303C59.8035 226.029 58.1549 225.74 56.5219 225.373C56.5074 225.373 56.4935 225.379 56.4832 225.389C56.4729 225.399 56.4672 225.413 56.4672 225.428C56.4672 225.442 56.4729 225.456 56.4832 225.466C56.4935 225.477 56.5074 225.482 56.5219 225.482C58.1705 225.865 59.8113 226.319 61.4521 226.756C62.2334 226.967 63.0147 227.162 63.7961 227.334L64.9993 227.6C65.1584 227.639 65.3204 227.665 65.4838 227.678C67.0464 230.241 68.5466 232.858 69.9139 235.491C70.5234 236.671 71.1015 237.835 71.6641 239.054C72.2267 240.273 72.7345 241.531 73.2268 242.773C73.3205 243.07 73.7112 242.969 73.6253 242.695Z" fill="#263238"/>
<path d="M62.5691 217.867C62.3582 216.835 62.1394 215.812 61.9128 214.741C61.9128 214.671 61.7956 214.741 61.8112 214.741C62.0144 215.757 62.2097 216.773 62.3894 217.788C62.544 218.806 62.75 219.815 63.0067 220.812C62.9281 219.821 62.7819 218.837 62.5691 217.867Z" fill="#263238"/>
<path d="M56.2555 217.567C55.7554 217.317 55.2241 217.114 54.6928 216.911L53.9115 216.591L53.4974 216.419C53.3381 216.375 53.1856 216.309 53.0442 216.223C52.9582 216.161 52.9114 216.302 52.9895 216.317C53.15 216.361 53.3047 216.424 53.4505 216.505L53.8568 216.692L54.6381 217.044C55.148 217.281 55.6695 217.492 56.2008 217.677C56.2555 217.692 56.3258 217.591 56.2555 217.567Z" fill="#263238"/>
<path d="M79.6172 223.537C79.6172 223.537 86.1569 211.325 96.1033 209.434C106.05 207.543 112.144 217.779 112.144 217.779C112.144 217.779 104.886 227.045 95.7361 228.663C86.5867 230.28 79.6172 223.537 79.6172 223.537Z" fill="#34A1D3"/>
<path d="M102.769 214.911C100.174 214.558 97.541 214.589 94.9553 215.005L95.4007 214.763L97.604 213.63C99.1273 212.791 100.692 212.029 102.292 211.348C102.362 211.348 102.292 211.208 102.245 211.247C100.682 211.965 99.0729 212.575 97.5181 213.294C96.7367 213.653 95.9554 214.028 95.1741 214.427C94.6818 214.692 94.1427 214.934 93.6583 215.247C91.4728 215.685 89.3497 216.391 87.3373 217.349L88.5796 215.989C89.5094 214.981 90.4158 213.911 91.4393 212.989C91.494 212.942 91.4393 212.864 91.3534 212.911C90.3142 213.856 89.2125 214.731 88.228 215.716C87.7358 216.192 87.267 216.685 86.8138 217.193C86.5872 217.45 86.3606 217.708 86.1419 217.974C82.7237 219.801 79.7541 222.364 77.4476 225.479C75.141 228.593 73.5551 232.181 72.8045 235.984C72.8045 236.054 72.8904 236.093 72.9061 236.023C74.3066 231.366 76.8162 227.119 80.2194 223.646C83.8777 219.91 88.4866 217.244 93.5489 215.935C96.5532 215.169 99.66 214.887 102.753 215.099C102.886 215.114 102.894 214.927 102.769 214.911Z" fill="#263238"/>
<path opacity="0.1" d="M112.145 217.78C112.145 217.78 104.886 227.046 95.7366 228.664C88.7749 229.898 83.0477 226.265 80.7194 224.476L80.2193 223.655C80.2193 223.655 84.9073 219.686 93.8379 217.405C102.769 215.123 112.145 217.78 112.145 217.78Z" fill="black"/>
<path d="M96.9941 210.552C96.2313 210.999 95.4932 211.486 94.783 212.013C94.0895 212.538 93.4461 213.127 92.8609 213.771C92.814 213.826 92.8609 213.896 92.9468 213.849C93.611 213.279 94.2751 212.7 94.9627 212.161C95.6262 211.614 96.3229 211.107 97.0488 210.646C97.1113 210.614 97.0567 210.513 96.9941 210.552Z" fill="#263238"/>
<path d="M102.456 212.625C102.081 212.781 101.674 212.914 101.339 213.063L100.229 213.524C100.151 213.524 100.19 213.688 100.268 213.649L101.378 213.203C101.753 213.055 102.112 212.883 102.487 212.735C102.55 212.703 102.518 212.594 102.456 212.625Z" fill="#263238"/>
<path d="M78.3125 238.915C78.3125 238.915 80.0548 251.034 89.173 255.269C98.2912 259.503 109.386 255.245 109.386 255.245C109.386 255.245 105.018 229.055 78.3125 238.915Z" fill="#34A1D3"/>
<path d="M103.136 247.435C102.292 247.333 101.456 247.193 100.628 247.036L99.4008 246.81L98.7601 246.677C98.5179 246.45 98.2757 246.216 98.0257 245.997C96.2994 244.479 94.4343 243.127 92.4548 241.958C91.3754 241.318 90.2587 240.744 89.1107 240.239H89.2826L92.2829 240.372C94.2831 240.465 96.2833 240.512 98.2835 240.637C98.3538 240.637 98.3538 240.528 98.2835 240.528C96.2833 240.387 94.2831 240.168 92.2829 239.996L89.3685 239.739L87.8683 239.606L87.4855 239.567C86.962 239.371 86.4385 239.192 85.9228 239.028C83.439 238.173 80.7666 238.024 78.2032 238.598C75.9139 239.184 73.6246 240.684 73.0308 243.106C73.0308 243.184 73.1402 243.247 73.1793 243.161C74.0309 241.145 76.3046 240.129 78.297 239.707C79.6577 239.448 81.0522 239.419 82.4224 239.621C82.5141 240.247 82.6686 240.863 82.8834 241.458C83.1335 242.309 83.3835 243.161 83.6648 244.013C84.1804 245.716 84.7508 247.404 85.2274 249.107C85.2241 249.115 85.2229 249.124 85.2238 249.133C85.2248 249.142 85.2279 249.15 85.2329 249.158C85.2379 249.165 85.2447 249.171 85.2526 249.175C85.2605 249.18 85.2693 249.182 85.2782 249.182C85.2872 249.182 85.296 249.18 85.3039 249.175C85.3117 249.171 85.3185 249.165 85.3235 249.158C85.3285 249.15 85.3316 249.142 85.3326 249.133C85.3336 249.124 85.3323 249.115 85.329 249.107C84.9071 247.404 84.5477 245.692 84.1414 243.981C83.9382 243.145 83.7273 242.317 83.5241 241.481C83.4088 240.896 83.2548 240.319 83.0631 239.754C83.8543 239.898 84.6368 240.086 85.4071 240.317C86.8127 240.732 88.1905 241.236 89.5326 241.825C89.6654 242.692 89.8607 243.544 90.0561 244.395C90.3061 245.466 90.5874 246.528 90.9234 247.575C90.9274 247.586 90.9344 247.594 90.9435 247.6C90.9525 247.607 90.9632 247.61 90.9741 247.61C90.9851 247.61 90.9958 247.607 91.0048 247.6C91.0139 247.594 91.0209 247.586 91.0249 247.575C91.0286 247.508 91.0286 247.44 91.0249 247.372C90.8218 246.38 90.603 245.395 90.392 244.403C90.2202 243.622 90.0717 242.801 89.892 242.004C91.0267 242.511 92.135 243.074 93.2127 243.692C93.2127 243.934 93.2986 244.192 93.3377 244.411C93.4002 244.833 93.4783 245.247 93.5486 245.661C93.7205 246.591 93.908 247.521 94.1346 248.45C94.546 250.237 95.0679 251.995 95.6973 253.717C95.6918 253.728 95.6889 253.74 95.6889 253.752C95.6889 253.764 95.6918 253.776 95.6973 253.787L95.752 253.85C95.752 253.896 95.8536 253.85 95.8458 253.795C95.4238 251.998 94.9394 250.216 94.5487 248.411C94.3534 247.513 94.1503 246.614 93.9706 245.708L93.7127 244.356C93.7127 244.223 93.6736 244.091 93.6502 243.95C96.9949 245.924 100.022 248.392 102.628 251.271C102.69 251.341 102.823 251.271 102.761 251.162C102.082 250.242 101.357 249.358 100.588 248.513C100.135 248.021 99.6587 247.552 99.1742 247.083H99.3227C99.7524 247.153 100.174 247.216 100.604 247.271C101.448 247.388 102.292 247.466 103.136 247.56C103.136 247.505 103.182 247.435 103.136 247.435Z" fill="#263238"/>
<path d="M96.705 251.496C96.705 251.395 96.705 251.285 96.6582 251.184C96.6135 251.053 96.5769 250.92 96.5488 250.785C96.3612 250.004 96.205 249.16 96.0565 248.34C96.0565 248.285 95.955 248.301 95.9628 248.34C96.0151 249.425 96.2475 250.495 96.6503 251.504C96.6503 251.504 96.7207 251.504 96.7128 251.504L96.705 251.496Z" fill="#263238"/>
<path d="M89.0719 251.339C89.0719 251.339 89.0719 251.292 89.0172 251.292C88.7672 250.222 88.5171 249.143 88.2984 248.065C88.1812 247.495 88.064 246.932 87.9546 246.362C87.8921 246.049 87.8374 245.744 87.7827 245.44C87.7567 245.171 87.6909 244.908 87.5873 244.658C87.5833 244.648 87.5763 244.64 87.5672 244.633C87.5582 244.627 87.5475 244.624 87.5366 244.624C87.5256 244.624 87.5149 244.627 87.5059 244.633C87.4968 244.64 87.4898 244.648 87.4858 244.658C87.4761 245.209 87.5525 245.757 87.7124 246.284C87.8218 246.877 87.939 247.471 88.0718 248.057C88.3374 249.253 88.6343 250.44 88.9703 251.62C88.9703 251.637 88.9769 251.653 88.9886 251.664C89.0003 251.676 89.0162 251.683 89.0328 251.683C89.0494 251.683 89.0653 251.676 89.077 251.664C89.0887 251.653 89.0953 251.637 89.0953 251.62L89.0719 251.339Z" fill="#263238"/>
<path d="M102.285 243.899C100.62 243.673 98.9561 243.431 97.284 243.228C97.2137 243.228 97.1903 243.329 97.284 243.337C98.9483 243.579 100.613 243.79 102.277 244.009C102.355 244.017 102.355 243.907 102.285 243.899Z" fill="#263238"/>
<path d="M73.6408 210.498C73.6408 210.498 68.0699 186.035 94.3461 176.12C94.3461 176.135 101.628 208.365 73.6408 210.498Z" fill="#34A1D3"/>
<path d="M79.3126 196.644L79.5939 196.472L81.0862 195.644L84.1334 193.94C86.1336 192.815 88.1182 191.651 90.1341 190.549C90.1966 190.549 90.1341 190.424 90.0794 190.455C88.0557 191.557 85.993 192.588 83.9615 193.659L80.9456 195.222L79.6955 195.862C80.5706 194.206 81.5082 192.573 82.5395 191.002C83.9068 188.908 85.4148 186.916 86.9853 184.963C86.9958 184.944 86.9998 184.923 86.9967 184.902C86.9936 184.881 86.9836 184.862 86.9682 184.848C86.9529 184.833 86.9331 184.824 86.9121 184.823C86.8911 184.821 86.8701 184.826 86.8525 184.838C84.5451 187.076 82.5052 189.575 80.7737 192.284C80.7737 192.198 80.7737 192.112 80.7737 192.034C80.7737 191.424 80.8206 190.815 80.8284 190.205C80.8284 189.01 80.8284 187.815 80.8284 186.619C80.8284 186.549 80.719 186.557 80.7112 186.619C80.6643 187.791 80.5237 188.963 80.4534 190.135C80.4534 190.729 80.3987 191.307 80.383 191.901C80.383 192.213 80.383 192.573 80.383 192.924C79.8439 193.784 79.3204 194.659 78.8204 195.542C77.9405 197.137 77.1578 198.783 76.4764 200.472C76.4764 199.863 76.4139 199.253 76.3748 198.644C76.2967 197.308 76.1326 195.972 76.0779 194.628C76.0779 194.613 76.0721 194.599 76.0619 194.589C76.0516 194.579 76.0377 194.573 76.0232 194.573C76.0087 194.573 75.9948 194.579 75.9845 194.589C75.9743 194.599 75.9685 194.613 75.9685 194.628C75.9685 195.964 75.9685 197.308 75.9685 198.644C75.9685 199.316 76.0154 199.988 76.0544 200.652L76.1013 201.433C75.266 203.618 74.6024 205.865 74.1167 208.153C73.667 210.596 73.341 213.06 73.1401 215.536C73.4162 213.305 73.8815 211.102 74.5308 208.95C74.859 207.801 75.2028 206.653 75.57 205.512C76.6639 204.996 77.7109 204.355 78.7657 203.769C79.8205 203.183 80.969 202.566 82.0629 201.965C84.2584 200.761 86.4462 199.535 88.7042 198.472C88.7746 198.472 88.7042 198.347 88.6495 198.378C86.3602 199.417 84.0475 200.402 81.7972 201.504C80.6799 202.066 79.5783 202.668 78.4844 203.277C77.5702 203.793 76.6326 204.309 75.7654 204.902C76.0154 204.121 76.281 203.379 76.5467 202.629C77.414 200.613 78.3125 198.589 79.3126 196.644Z" fill="#263238"/>
<path d="M77.1018 191.026C77.0973 191.014 77.0893 191.004 77.0789 190.997C77.0684 190.989 77.0559 190.985 77.0432 190.985C77.0304 190.985 77.0179 190.989 77.0075 190.997C76.997 191.004 76.989 191.014 76.9846 191.026C77.0861 192.417 77.133 193.815 77.2737 195.206C77.2737 195.284 77.4065 195.284 77.3987 195.206C77.3518 193.815 77.2033 192.425 77.1018 191.026Z" fill="#263238"/>
<path d="M89.6968 195.702C88.056 196.366 86.3996 196.999 84.7588 197.678C84.7119 197.678 84.7588 197.772 84.7588 197.756C86.423 197.131 88.056 196.459 89.7124 195.811C89.7983 195.787 89.7671 195.678 89.6968 195.702Z" fill="#263238"/>
<path d="M92.197 184.42C90.5852 185.16 89.0196 185.998 87.509 186.928C87.4924 186.937 87.4802 186.953 87.4751 186.971C87.4699 186.989 87.4723 187.009 87.4816 187.025C87.4909 187.042 87.5065 187.054 87.5248 187.059C87.5431 187.065 87.5627 187.062 87.5793 187.053C89.142 186.162 90.6577 185.303 92.2673 184.521C92.322 184.49 92.2595 184.396 92.197 184.42Z" fill="#263238"/>
<path d="M91.7979 263.397H53.8954V303.347H91.7979V263.397Z" fill="#455A64"/>
<path d="M53.2319 277.531H51.2942V345.96H53.2319V277.531Z" fill="#263238"/>
<path d="M94.205 277.531H92.2673V345.96H94.205V277.531Z" fill="#263238"/>
<path d="M74.75 277.531H72.8123V345.96H74.75V277.531Z" fill="#263238"/>
<path d="M93.2357 300.778H52.2626V306.31H93.2357V300.778Z" fill="#263238"/>
<path d="M532.377 328.134H53.6226V345.573H532.377V328.134Z" fill="#FAFAFA"/>
<path d="M489.935 64.6533H96.0573V328.135H489.935V64.6533Z" fill="#DBDBDB"/>
<path d="M487.084 67.8682H98.9249V324.919H487.084V67.8682Z" fill="#263238"/>
<path d="M469.886 84.3877H116.106V308.388H469.886V84.3877Z" fill="white"/>
<path d="M526.978 95.2977H59.0219L95.1429 64.5444H489.396L526.978 95.2977Z" fill="#34A1D3"/>
<path d="M160.954 64.5444L131.014 95.2977H95.0175L127.701 64.5444H160.954Z" fill="#EBEBEB"/>
<path d="M224.657 64.5444L203.006 95.2977H167.01L192.74 64.5444H224.657Z" fill="#EBEBEB"/>
<path d="M278.733 64.5444L274.998 95.2977H239.002L250.488 64.5444H278.733Z" fill="#EBEBEB"/>
<path d="M454.986 95.2977L423.92 64.5444H457.166L490.982 95.2977H454.986Z" fill="#EBEBEB"/>
<path d="M382.994 95.2977L363.789 64.5444H393.081L418.99 95.2977H382.994Z" fill="#EBEBEB"/>
<path d="M311.002 95.2977L305.72 64.5444H333.981L346.998 95.2977H311.002Z" fill="#EBEBEB"/>
<path d="M77.0162 113.52C72.2501 113.52 67.6792 111.626 64.309 108.256C60.9389 104.886 59.0455 100.315 59.0455 95.5489V95.3301H95.0416V95.5489C95.0416 97.9134 94.5749 100.255 93.6684 102.439C92.7619 104.622 91.4333 106.606 89.7587 108.275C88.0842 109.945 86.0967 111.267 83.9101 112.167C81.7235 113.067 79.3807 113.527 77.0162 113.52Z" fill="#34A1D3"/>
<path opacity="0.1" d="M77.0162 113.52C72.2501 113.52 67.6792 111.626 64.309 108.256C60.9389 104.886 59.0455 100.315 59.0455 95.5489V95.3301H95.0416V95.5489C95.0416 97.9134 94.5749 100.255 93.6684 102.439C92.7619 104.622 91.4333 106.606 89.7587 108.275C88.0842 109.945 86.0967 111.267 83.9101 112.167C81.7235 113.067 79.3807 113.527 77.0162 113.52Z" fill="black"/>
<path d="M113.013 113.52C108.246 113.52 103.676 111.626 100.305 108.256C96.9352 104.886 95.0419 100.315 95.0419 95.5489V95.3301H131.038V95.5489C131.038 97.9134 130.571 100.255 129.665 102.439C128.758 104.622 127.43 106.606 125.755 108.275C124.081 109.945 122.093 111.267 119.906 112.167C117.72 113.067 115.377 113.527 113.013 113.52Z" fill="#DBDBDB"/>
<path d="M149.016 113.52C144.249 113.52 139.678 111.626 136.308 108.256C132.938 104.886 131.045 100.315 131.045 95.5489V95.3301H167.041V95.5489C167.041 97.9134 166.574 100.255 165.668 102.439C164.761 104.622 163.433 106.606 161.758 108.275C160.084 109.945 158.096 111.267 155.909 112.167C153.723 113.067 151.38 113.527 149.016 113.52Z" fill="#34A1D3"/>
<path opacity="0.1" d="M149.016 113.52C144.249 113.52 139.678 111.626 136.308 108.256C132.938 104.886 131.045 100.315 131.045 95.5489V95.3301H167.041V95.5489C167.041 97.9134 166.574 100.255 165.668 102.439C164.761 104.622 163.433 106.606 161.758 108.275C160.084 109.945 158.096 111.267 155.909 112.167C153.723 113.067 151.38 113.527 149.016 113.52Z" fill="black"/>
<path d="M185.012 113.52C180.246 113.52 175.675 111.626 172.305 108.256C168.934 104.886 167.041 100.315 167.041 95.5489V95.3301H203.037V95.5489C203.037 97.9134 202.57 100.255 201.664 102.439C200.757 104.622 199.429 106.606 197.754 108.275C196.08 109.945 194.092 111.267 191.906 112.167C189.719 113.067 187.376 113.527 185.012 113.52Z" fill="#DBDBDB"/>
<path d="M221.008 113.52C216.242 113.52 211.671 111.626 208.301 108.256C204.931 104.886 203.038 100.315 203.038 95.5489V95.3301H239.034V95.5489C239.034 97.9134 238.567 100.255 237.661 102.439C236.754 104.622 235.425 106.606 233.751 108.275C232.076 109.945 230.089 111.267 227.902 112.167C225.716 113.067 223.373 113.527 221.008 113.52Z" fill="#34A1D3"/>
<path opacity="0.1" d="M221.008 113.52C216.242 113.52 211.671 111.626 208.301 108.256C204.931 104.886 203.038 100.315 203.038 95.5489V95.3301H239.034V95.5489C239.034 97.9134 238.567 100.255 237.661 102.439C236.754 104.622 235.425 106.606 233.751 108.275C232.076 109.945 230.089 111.267 227.902 112.167C225.716 113.067 223.373 113.527 221.008 113.52Z" fill="black"/>
<path d="M257.004 113.52C252.238 113.52 247.667 111.626 244.297 108.256C240.927 104.886 239.033 100.315 239.033 95.5489V95.3301H275.029V95.5489C275.029 97.9134 274.563 100.255 273.656 102.439C272.75 104.622 271.421 106.606 269.747 108.275C268.072 109.945 266.084 111.267 263.898 112.167C261.711 113.067 259.368 113.527 257.004 113.52Z" fill="#DBDBDB"/>
<path d="M293.001 113.52C288.234 113.52 283.664 111.626 280.293 108.256C276.923 104.886 275.03 100.315 275.03 95.5489V95.3301H310.971V95.5489C310.971 100.315 309.078 104.886 305.708 108.256C302.338 111.626 297.767 113.52 293.001 113.52Z" fill="#34A1D3"/>
<path opacity="0.1" d="M293.001 113.52C288.234 113.52 283.664 111.626 280.293 108.256C276.923 104.886 275.03 100.315 275.03 95.5489V95.3301H310.971V95.5489C310.971 100.315 309.078 104.886 305.708 108.256C302.338 111.626 297.767 113.52 293.001 113.52Z" fill="black"/>
<path d="M328.996 113.52C324.23 113.52 319.659 111.626 316.289 108.256C312.918 104.886 311.025 100.315 311.025 95.5489V95.3301H347.021V95.5489C347.021 97.9134 346.554 100.255 345.648 102.439C344.741 104.622 343.413 106.606 341.738 108.275C340.064 109.945 338.076 111.267 335.89 112.167C333.703 113.067 331.36 113.527 328.996 113.52Z" fill="#DBDBDB"/>
<path d="M364.992 113.52C360.226 113.52 355.655 111.626 352.284 108.256C348.914 104.886 347.021 100.315 347.021 95.5489V95.3301H383.017V95.5489C383.017 97.9134 382.55 100.255 381.644 102.439C380.737 104.622 379.409 106.606 377.734 108.275C376.06 109.945 374.072 111.267 371.886 112.167C369.699 113.067 367.356 113.527 364.992 113.52Z" fill="#34A1D3"/>
<path opacity="0.1" d="M364.992 113.52C360.226 113.52 355.655 111.626 352.284 108.256C348.914 104.886 347.021 100.315 347.021 95.5489V95.3301H383.017V95.5489C383.017 97.9134 382.55 100.255 381.644 102.439C380.737 104.622 379.409 106.606 377.734 108.275C376.06 109.945 374.072 111.267 371.886 112.167C369.699 113.067 367.356 113.527 364.992 113.52Z" fill="black"/>
<path d="M400.988 113.52C396.222 113.52 391.651 111.626 388.281 108.256C384.911 104.886 383.018 100.315 383.018 95.5489V95.3301H419.014V95.5489C419.014 97.9134 418.547 100.255 417.64 102.439C416.734 104.622 415.405 106.606 413.731 108.275C412.056 109.945 410.069 111.267 407.882 112.167C405.695 113.067 403.353 113.527 400.988 113.52Z" fill="#DBDBDB"/>
<path d="M436.984 113.52C432.218 113.52 427.647 111.626 424.277 108.256C420.906 104.886 419.013 100.315 419.013 95.5489V95.3301H455.009V95.5489C455.009 97.9134 454.543 100.255 453.636 102.439C452.729 104.622 451.401 106.606 449.726 108.275C448.052 109.945 446.064 111.267 443.878 112.167C441.691 113.067 439.348 113.527 436.984 113.52Z" fill="#34A1D3"/>
<path opacity="0.1" d="M436.984 113.52C432.218 113.52 427.647 111.626 424.277 108.256C420.906 104.886 419.013 100.315 419.013 95.5489V95.3301H455.009V95.5489C455.009 97.9134 454.543 100.255 453.636 102.439C452.729 104.622 451.401 106.606 449.726 108.275C448.052 109.945 446.064 111.267 443.878 112.167C441.691 113.067 439.348 113.527 436.984 113.52Z" fill="black"/>
<path d="M472.988 113.52C468.221 113.52 463.651 111.626 460.28 108.256C456.91 104.886 455.017 100.315 455.017 95.5489V95.3301H491.013V95.5489C491.013 97.9134 490.546 100.255 489.64 102.439C488.733 104.622 487.405 106.606 485.73 108.275C484.056 109.945 482.068 111.267 479.881 112.167C477.695 113.067 475.352 113.527 472.988 113.52Z" fill="#DBDBDB"/>
<path d="M508.984 113.52C504.218 113.52 499.647 111.626 496.277 108.256C492.907 104.886 491.014 100.315 491.014 95.5489V95.3301H527.01V95.5489C527.01 97.9134 526.543 100.255 525.636 102.439C524.73 104.622 523.401 106.606 521.727 108.275C520.052 109.945 518.065 111.267 515.878 112.167C513.691 113.067 511.349 113.527 508.984 113.52Z" fill="#34A1D3"/>
<path opacity="0.1" d="M508.984 113.52C504.218 113.52 499.647 111.626 496.277 108.256C492.907 104.886 491.014 100.315 491.014 95.5489V95.3301H527.01V95.5489C527.01 97.9134 526.543 100.255 525.636 102.439C524.73 104.622 523.401 106.606 521.727 108.275C520.052 109.945 518.065 111.267 515.878 112.167C513.691 113.067 511.349 113.527 508.984 113.52Z" fill="black"/>
<path d="M524.603 105.823L524.666 105.941C524.64 105.929 524.618 105.91 524.603 105.886C524.567 105.868 524.533 105.847 524.501 105.823H524.603Z" fill="#34A1D3"/>
<path d="M274.999 144.787H152.36V267.425H274.999V144.787Z" fill="#34A1D3"/>
<path d="M248.331 223.381H195.834C195.352 223.384 194.881 223.234 194.49 222.953C194.098 222.673 193.805 222.275 193.654 221.818L178.652 175.954H166.424C165.839 175.919 165.289 175.663 164.887 175.237C164.485 174.81 164.261 174.246 164.261 173.66C164.261 173.074 164.485 172.51 164.887 172.084C165.289 171.658 165.839 171.401 166.424 171.367H180.324C180.806 171.365 181.275 171.515 181.667 171.796C182.058 172.076 182.351 172.473 182.504 172.93L197.498 218.786H248.339C248.924 218.82 249.474 219.077 249.876 219.503C250.278 219.93 250.502 220.493 250.502 221.08C250.502 221.666 250.278 222.229 249.876 222.656C249.474 223.082 248.924 223.339 248.339 223.373L248.331 223.381Z" fill="white"/>
<path d="M243.237 240.851C241.778 240.851 240.352 240.418 239.139 239.608C237.926 238.797 236.981 237.645 236.423 236.298C235.864 234.95 235.718 233.467 236.003 232.036C236.288 230.605 236.99 229.291 238.022 228.259C239.053 227.228 240.367 226.525 241.798 226.241C243.229 225.956 244.712 226.102 246.06 226.661C247.407 227.219 248.559 228.164 249.37 229.377C250.18 230.59 250.613 232.016 250.613 233.475C250.611 235.43 249.833 237.305 248.45 238.688C247.067 240.071 245.193 240.849 243.237 240.851ZM243.237 230.693C242.685 230.693 242.145 230.857 241.686 231.164C241.228 231.471 240.87 231.907 240.659 232.417C240.448 232.927 240.394 233.488 240.502 234.03C240.61 234.571 240.876 235.068 241.267 235.458C241.658 235.848 242.156 236.113 242.698 236.219C243.239 236.326 243.8 236.27 244.31 236.058C244.819 235.845 245.254 235.486 245.56 235.027C245.866 234.567 246.028 234.027 246.026 233.475C246.024 232.736 245.729 232.029 245.207 231.508C244.684 230.986 243.975 230.693 243.237 230.693Z" fill="white"/>
<path d="M199.881 240.851C198.422 240.852 196.995 240.421 195.781 239.611C194.567 238.802 193.62 237.651 193.061 236.303C192.501 234.955 192.354 233.472 192.638 232.041C192.922 230.609 193.623 229.295 194.655 228.262C195.686 227.23 197 226.527 198.431 226.241C199.862 225.956 201.346 226.102 202.694 226.66C204.042 227.218 205.194 228.163 206.005 229.376C206.816 230.589 207.249 232.016 207.249 233.475C207.245 235.428 206.467 237.301 205.087 238.683C203.706 240.065 201.834 240.844 199.881 240.851ZM199.881 230.693C199.328 230.692 198.788 230.854 198.328 231.16C197.868 231.466 197.509 231.902 197.297 232.412C197.085 232.922 197.029 233.483 197.137 234.025C197.244 234.567 197.51 235.065 197.901 235.455C198.291 235.846 198.789 236.111 199.331 236.219C199.872 236.326 200.434 236.27 200.944 236.058C201.454 235.846 201.89 235.487 202.195 235.028C202.501 234.568 202.664 234.027 202.662 233.475C202.66 232.738 202.366 232.032 201.845 231.51C201.324 230.989 200.618 230.695 199.881 230.693Z" fill="white"/>
<path d="M260.95 179.588L249.261 216.248H199.686L188.005 179.588L226.704 179.627L260.95 179.588Z" fill="white"/>
<path d="M152.36 165.291C163.683 165.291 172.862 156.112 172.862 144.789C172.862 133.466 163.683 124.287 152.36 124.287C141.037 124.287 131.858 133.466 131.858 144.789C131.858 156.112 141.037 165.291 152.36 165.291Z" fill="#455A64"/>
<path d="M150.016 156.482L141.21 147.56L144.172 144.637L149.313 149.849L160.009 133.082L163.517 135.324L150.016 156.482Z" fill="white"/>
<path d="M433.179 249.385H372.946V269.004H433.179V249.385Z" fill="#34A1D3"/>
<path d="M388.119 263.837V254.562C388.121 254.333 388.214 254.115 388.376 253.954C388.538 253.793 388.758 253.703 388.987 253.703H391.213C391.767 253.702 392.31 253.856 392.781 254.146C393.252 254.437 393.632 254.853 393.88 255.348C394.127 255.843 394.232 256.398 394.182 256.949C394.132 257.5 393.929 258.026 393.596 258.469C394.216 258.855 394.693 259.432 394.955 260.113C395.218 260.793 395.251 261.541 395.051 262.243C394.851 262.945 394.427 263.562 393.845 264.002C393.262 264.442 392.553 264.68 391.823 264.68H389.049C389.049 264.68 389.049 264.68 389.002 264.68C388.774 264.683 388.554 264.596 388.389 264.438C388.224 264.28 388.127 264.065 388.119 263.837ZM389.862 257.969H391.213C391.546 257.963 391.863 257.825 392.096 257.587C392.329 257.349 392.458 257.028 392.456 256.695C392.456 256.532 392.423 256.371 392.361 256.221C392.298 256.071 392.207 255.934 392.091 255.819C391.976 255.705 391.839 255.614 391.688 255.552C391.537 255.491 391.376 255.46 391.213 255.461H389.885L389.862 257.969ZM389.862 262.961H391.823C392.254 262.961 392.667 262.79 392.972 262.485C393.277 262.181 393.448 261.767 393.448 261.336C393.448 260.905 393.277 260.492 392.972 260.187C392.667 259.882 392.254 259.711 391.823 259.711H389.885L389.862 262.961Z" fill="white"/>
<path d="M401.988 264.681C401.393 264.682 400.803 264.565 400.253 264.338C399.703 264.11 399.203 263.777 398.782 263.355C398.361 262.934 398.027 262.435 397.8 261.884C397.572 261.334 397.456 260.744 397.457 260.149V254.562C397.455 254.449 397.475 254.336 397.518 254.231C397.56 254.126 397.623 254.03 397.704 253.95C397.784 253.87 397.879 253.806 397.985 253.764C398.09 253.721 398.203 253.701 398.316 253.703C398.547 253.701 398.769 253.79 398.934 253.951C399.1 254.112 399.195 254.332 399.199 254.562V260.149C399.179 260.528 399.236 260.907 399.368 261.264C399.499 261.62 399.701 261.946 399.963 262.222C400.224 262.497 400.539 262.716 400.888 262.866C401.237 263.016 401.613 263.094 401.992 263.094C402.372 263.094 402.748 263.016 403.097 262.866C403.446 262.716 403.76 262.497 404.022 262.222C404.283 261.946 404.486 261.62 404.617 261.264C404.748 260.907 404.806 260.528 404.786 260.149V254.562C404.806 254.345 404.907 254.144 405.068 253.998C405.229 253.851 405.439 253.77 405.657 253.77C405.875 253.77 406.085 253.851 406.246 253.998C406.407 254.144 406.507 254.345 406.528 254.562V260.149C406.526 261.351 406.047 262.504 405.196 263.354C404.344 264.203 403.191 264.681 401.988 264.681Z" fill="white"/>
<path d="M417.85 255.183L414.631 259.59V263.84C414.633 263.954 414.612 264.066 414.57 264.172C414.527 264.277 414.464 264.372 414.384 264.453C414.304 264.533 414.208 264.596 414.103 264.639C413.997 264.681 413.885 264.702 413.771 264.7C413.544 264.698 413.327 264.606 413.166 264.446C413.005 264.285 412.914 264.068 412.912 263.84V259.605L409.724 255.199C409.653 255.11 409.602 255.008 409.572 254.899C409.542 254.79 409.535 254.676 409.551 254.564C409.567 254.452 409.606 254.344 409.665 254.248C409.725 254.151 409.803 254.068 409.896 254.003C409.986 253.936 410.089 253.887 410.198 253.859C410.308 253.832 410.422 253.827 410.533 253.844C410.645 253.862 410.751 253.902 410.847 253.961C410.943 254.021 411.026 254.099 411.091 254.191L413.771 257.863L416.451 254.191C416.585 254.005 416.787 253.881 417.012 253.844C417.238 253.807 417.469 253.862 417.654 253.995C417.84 254.129 417.965 254.331 418.001 254.557C418.038 254.782 417.983 255.013 417.85 255.199V255.183Z" fill="white"/>
<path d="M433.187 239.245C401.934 239.338 339.075 239.518 307.83 239.526H307.556V239.245L307.439 143.656V143.266H307.83L433.429 143.414C433.679 143.508 433 239.096 433.187 239.245ZM433.187 239.245C433.187 239.338 432.664 142.602 433.187 143.922L307.846 144.047L308.236 143.656C308.174 143.539 308.494 240.456 307.846 238.979C339.099 238.979 401.965 239.159 433.203 239.252L433.187 239.245Z" fill="#FAFAFA"/>
<path d="M365.133 152.601H316.245V162.54H365.133V152.601Z" fill="#EBEBEB"/>
<path d="M426.413 227.392H387.635V233.799H426.413V227.392Z" fill="#FAFAFA"/>
<path d="M316.245 171.566C333.669 171.043 351.21 171.043 368.641 171.566C351.21 172.098 333.669 172.098 316.245 171.566Z" fill="#FAFAFA"/>
<path d="M316.245 177.89C333.669 177.367 351.21 177.367 368.641 177.89C351.21 178.414 333.669 178.414 316.245 177.89Z" fill="#FAFAFA"/>
<path d="M316.245 184.207C333.669 183.684 351.21 183.684 368.641 184.207C351.21 184.731 333.669 184.731 316.245 184.207Z" fill="#FAFAFA"/>
<path d="M316.245 190.527C333.669 189.996 351.21 189.996 368.641 190.527C351.21 191.059 333.669 191.059 316.245 190.527Z" fill="#FAFAFA"/>
<path d="M316.245 196.843C333.669 196.319 351.21 196.319 368.641 196.843C351.21 197.366 333.669 197.366 316.245 196.843Z" fill="#FAFAFA"/>
<path d="M316.245 203.162C333.669 202.639 351.21 202.639 368.641 203.162C351.21 203.686 333.669 203.686 316.245 203.162Z" fill="#FAFAFA"/>
<path d="M316.245 209.484C333.669 208.953 351.21 208.953 368.641 209.484C351.21 210.008 333.669 210.008 316.245 209.484Z" fill="#FAFAFA"/>
<path d="M372.852 171.565C380.33 171.034 387.837 171.034 395.315 171.565C387.837 172.104 380.33 172.104 372.852 171.565Z" fill="#FAFAFA"/>
<path d="M372.852 177.893C380.343 177.359 387.863 177.359 395.354 177.893C387.876 178.424 380.369 178.424 372.891 177.893H372.852Z" fill="#FAFAFA"/>
<path d="M372.852 184.208C380.33 183.677 387.837 183.677 395.315 184.208C387.837 184.739 380.33 184.739 372.852 184.208Z" fill="#FAFAFA"/>
<path d="M372.852 190.528C380.33 189.989 387.837 189.989 395.315 190.528C387.837 191.06 380.33 191.06 372.852 190.528Z" fill="#FAFAFA"/>
<path d="M372.852 196.837C380.33 196.306 387.837 196.306 395.315 196.837C387.837 197.368 380.33 197.368 372.852 196.837Z" fill="#FAFAFA"/>
<path d="M372.852 203.163C380.33 202.632 387.837 202.632 395.315 203.163C387.837 203.694 380.33 203.694 372.852 203.163Z" fill="#FAFAFA"/>
<path d="M407.028 171.563C413.471 171.028 419.946 171.028 426.389 171.563C419.947 172.102 413.47 172.102 407.028 171.563Z" fill="#FAFAFA"/>
<path d="M407.028 177.894C413.471 177.359 419.946 177.359 426.389 177.894C419.947 178.433 413.47 178.433 407.028 177.894Z" fill="#FAFAFA"/>
<path d="M407.028 184.207C413.47 183.667 419.947 183.667 426.389 184.207C419.946 184.742 413.471 184.742 407.028 184.207Z" fill="#FAFAFA"/>
<path d="M407.028 190.528C413.47 189.989 419.947 189.989 426.389 190.528C419.947 191.067 413.47 191.067 407.028 190.528Z" fill="#FAFAFA"/>
<path d="M407.028 196.84C413.471 196.305 419.946 196.305 426.389 196.84C419.947 197.379 413.47 197.379 407.028 196.84Z" fill="#FAFAFA"/>
<path d="M407.028 203.16C413.47 202.621 419.947 202.621 426.389 203.16C419.946 203.695 413.471 203.695 407.028 203.16Z" fill="#FAFAFA"/>
<path d="M407.028 209.483C413.47 208.944 419.947 208.944 426.389 209.483C419.946 210.019 413.471 210.019 407.028 209.483Z" fill="#FAFAFA"/>
<path d="M307.83 273.313H374.853L365.078 205.048H317.604L307.83 273.313Z" fill="#34A1D3"/>
<path d="M317.604 205.048L325.05 273.321L307.83 273.313L317.604 205.048Z" fill="#34A1D3"/>
<path opacity="0.1" d="M317.604 205.048L325.05 273.321L307.83 273.313L317.604 205.048Z" fill="black"/>
<path d="M351.709 209.762L353.803 209.317C353.803 209.262 352.576 203.519 351.279 197.729C349.873 191.479 343.716 188.596 338.575 189.424C334.731 190.049 330.457 193.049 331.105 199.472C331.793 206.34 332.308 209.574 332.332 209.707L334.449 209.363C334.449 209.363 333.91 206.051 333.23 199.253C332.738 194.323 335.848 192.033 338.918 191.541C343.075 190.869 348.06 193.174 349.185 198.198C350.482 203.98 351.693 209.699 351.709 209.762Z" fill="#263238"/>
<path d="M324.144 272.787C322.768 271.811 321.339 270.912 319.917 270.014C318.495 269.115 317.034 268.271 315.572 267.435L315.369 267.318L315.182 267.459C314.049 268.31 312.916 269.154 311.822 270.053C310.728 270.951 309.611 271.834 308.556 272.78C309.775 272.053 310.955 271.264 312.127 270.436C313.299 269.607 314.471 268.826 315.604 267.99H315.221C316.674 268.844 318.143 269.667 319.628 270.459C321.128 271.303 322.604 272.084 324.144 272.787Z" fill="white"/>
<path d="M315.394 267.751C315.69 263.399 315.909 259.039 316.112 254.687C316.316 250.335 316.464 245.975 316.644 241.616C316.823 237.256 316.909 232.896 317.003 228.536L317.128 221.996C317.128 219.816 317.183 217.636 317.175 215.457C317.019 217.629 316.909 219.809 316.777 221.988L316.456 228.52C316.245 232.872 316.105 237.232 315.925 241.592C315.745 245.952 315.659 250.312 315.565 254.672C315.472 259.032 315.394 263.384 315.394 267.751Z" fill="white"/>
<path d="M349.913 209.534C349.913 210.096 350.08 210.646 350.392 211.114C350.705 211.582 351.149 211.946 351.668 212.162C352.188 212.377 352.76 212.433 353.312 212.323C353.863 212.214 354.37 211.943 354.768 211.545C355.166 211.147 355.436 210.641 355.546 210.089C355.656 209.537 355.6 208.965 355.384 208.446C355.169 207.926 354.805 207.482 354.337 207.169C353.869 206.857 353.319 206.69 352.757 206.69C352.002 206.69 351.279 206.99 350.746 207.523C350.212 208.056 349.913 208.78 349.913 209.534Z" fill="#263238"/>
<path d="M330.762 209.534C330.762 210.096 330.929 210.646 331.241 211.114C331.554 211.582 331.998 211.946 332.517 212.162C333.037 212.377 333.609 212.433 334.161 212.323C334.712 212.214 335.219 211.943 335.617 211.545C336.015 211.147 336.285 210.641 336.395 210.089C336.505 209.537 336.449 208.965 336.233 208.446C336.018 207.926 335.654 207.482 335.186 207.169C334.718 206.857 334.168 206.69 333.606 206.69C332.852 206.69 332.128 206.99 331.595 207.523C331.061 208.056 330.762 208.78 330.762 209.534Z" fill="#263238"/>
<path d="M407.707 209.362C407.602 209.998 407.332 210.596 406.926 211.096C406.926 210.971 406.926 210.838 406.926 210.713C406.926 210.588 406.926 210.448 406.863 210.307C406.662 209.382 406.285 208.505 405.754 207.721L405.574 207.455L405.527 207.385C405.494 207.347 405.465 207.305 405.441 207.26C400.644 199.384 393.823 210.385 393.674 210.628C393.674 210.628 394.776 198.97 401.011 199.4C405.848 199.775 408.426 205.807 407.707 209.362Z" fill="#455A64"/>
<path d="M406.91 211.095C406.741 211.279 406.547 211.436 406.332 211.564C403.105 213.47 394.206 210.783 393.651 210.642C402.09 212.502 404.809 209.681 405.504 207.392L405.551 207.462L405.731 207.728C406.259 208.513 406.635 209.39 406.84 210.314C406.84 210.454 406.887 210.587 406.903 210.72C406.918 210.853 406.903 210.97 406.91 211.095Z" fill="#263238"/>
<path d="M379.884 207.33C379.904 207.973 380.09 208.6 380.424 209.151C380.424 209.033 380.47 208.908 380.51 208.776C380.549 208.643 380.58 208.526 380.627 208.393C380.958 207.521 381.448 206.718 382.072 206.025L382.283 205.791L382.346 205.736L382.447 205.627C388.346 198.532 393.487 210.401 393.597 210.674C393.597 210.674 394.206 198.954 387.979 198.501C383.127 198.079 379.728 203.681 379.884 207.33Z" fill="#455A64"/>
<path d="M380.423 209.151C380.56 209.36 380.729 209.548 380.923 209.706C383.846 212.05 393.026 210.721 393.597 210.643C385.002 211.253 382.658 208.065 382.345 205.705L382.283 205.76L382.072 205.994C381.434 206.697 380.933 207.513 380.595 208.401C380.548 208.534 380.509 208.659 380.478 208.784C380.447 208.909 380.447 209.034 380.423 209.151Z" fill="#263238"/>
<path d="M377.509 273.313H410.349L409.146 212.642L380.791 211.634L377.509 273.313Z" fill="#34A1D3"/>
<path opacity="0.6" d="M377.509 273.313H410.349L409.146 212.642L380.791 211.634L377.509 273.313Z" fill="white"/>
<path d="M370.79 273.313H380.127L381.549 211.634L371.93 213.424L370.79 273.313Z" fill="#34A1D3"/>
<path d="M410.794 211.721V219.831L381.548 218.831V209.541L410.794 211.721Z" fill="#34A1D3"/>
<path opacity="0.4" d="M410.794 211.721V219.831L381.548 218.831V209.541L410.794 211.721Z" fill="white"/>
<path d="M370.556 219.831L381.549 218.831V209.541L369.93 211.721L370.556 219.831Z" fill="#34A1D3"/>
<path opacity="0.1" d="M370.556 219.831L381.549 218.831V209.541L369.93 211.721L370.556 219.831Z" fill="black"/>
<path d="M401.371 211.015L401.082 273.311H393.331L393.206 210.406L401.371 211.015Z" fill="#455A64"/>
<path d="M376.915 210.406L374.001 210.953V273.311H376.438L376.915 210.406Z" fill="#455A64"/>
<path d="M387.432 234.937C387.94 233.241 387.166 230.944 383.088 229.819C376.876 228.108 372.415 234.507 371.876 235.343C372.446 234.413 377.861 225.967 384.135 227.631C389.104 228.944 388.815 232.772 387.432 234.937Z" fill="#34A1D3"/>
<path d="M387.432 234.933C387.063 235.576 386.492 236.079 385.807 236.363C383.619 237.035 378.666 237.449 372.251 235.582L371.821 235.457L371.876 235.371V235.324H371.931C378.673 236.301 383.369 235.582 385.299 234.887C385.733 234.679 386.1 234.353 386.359 233.947C386.617 233.541 386.756 233.071 386.76 232.589C386.78 232.328 386.767 232.066 386.721 231.808C387.104 232.221 387.371 232.727 387.496 233.275C387.621 233.824 387.599 234.396 387.432 234.933Z" fill="#34A1D3"/>
<path opacity="0.2" d="M387.432 234.933C387.063 235.576 386.492 236.079 385.807 236.363C383.619 237.035 378.666 237.449 372.251 235.582L371.821 235.457L371.876 235.371V235.324H371.931C378.673 236.301 383.369 235.582 385.299 234.887C385.733 234.679 386.1 234.353 386.359 233.947C386.617 233.541 386.756 233.071 386.76 232.589C386.78 232.328 386.767 232.066 386.721 231.808C387.104 232.221 387.371 232.727 387.496 233.275C387.621 233.824 387.599 234.396 387.432 234.933Z" fill="black"/>
<path d="M383.4 226.049C382.564 224.08 380.275 222.244 376.305 223.447C370.242 225.275 371.422 234.182 371.617 235.284C371.383 234.034 369.461 222.564 375.571 220.689C380.368 219.196 382.923 223.15 383.4 226.049Z" fill="#34A1D3"/>
<path d="M383.4 226.051C383.586 226.837 383.501 227.663 383.158 228.395C381.955 230.302 378.4 233.528 372.04 235.294L371.61 235.411V235.294C371.61 235.294 371.61 235.255 371.61 235.232H371.649C377.603 232.372 380.736 228.981 381.736 227.207C382.127 226.512 381.931 225.254 381.205 224.145C381.037 223.881 380.844 223.635 380.626 223.41C381.245 223.638 381.81 223.989 382.287 224.443C382.764 224.898 383.143 225.445 383.4 226.051Z" fill="#34A1D3"/>
<path opacity="0.2" d="M383.4 226.051C383.586 226.837 383.501 227.663 383.158 228.395C381.955 230.302 378.4 233.528 372.04 235.294L371.61 235.411V235.294C371.61 235.294 371.61 235.255 371.61 235.232H371.649C377.603 232.372 380.736 228.981 381.736 227.207C382.127 226.512 381.931 225.254 381.205 224.145C381.037 223.881 380.844 223.635 380.626 223.41C381.245 223.638 381.81 223.989 382.287 224.443C382.764 224.898 383.143 225.445 383.4 226.051Z" fill="black"/>
<path d="M355.733 234.937C355.226 233.241 355.999 230.944 360.078 229.819C366.289 228.108 370.758 234.507 371.29 235.343C370.719 234.413 365.305 225.967 359.031 227.631C354.077 228.944 354.35 232.772 355.733 234.937Z" fill="#34A1D3"/>
<path d="M355.733 234.935C356.103 235.58 356.678 236.083 357.366 236.365C359.546 237.037 364.499 237.451 370.914 235.584L371.344 235.459L371.289 235.373V235.326H371.235C364.492 236.303 359.796 235.584 357.866 234.889C357.441 234.68 357.082 234.358 356.828 233.958C356.574 233.558 356.436 233.096 356.428 232.623C356.408 232.362 356.422 232.099 356.467 231.841C356.088 232.25 355.821 232.749 355.692 233.292C355.564 233.834 355.578 234.4 355.733 234.935Z" fill="#34A1D3"/>
<path opacity="0.2" d="M355.733 234.935C356.103 235.58 356.678 236.083 357.366 236.365C359.546 237.037 364.499 237.451 370.914 235.584L371.344 235.459L371.289 235.373V235.326H371.235C364.492 236.303 359.796 235.584 357.866 234.889C357.441 234.68 357.082 234.358 356.828 233.958C356.574 233.558 356.436 233.096 356.428 232.623C356.408 232.362 356.422 232.099 356.467 231.841C356.088 232.25 355.821 232.749 355.692 233.292C355.564 233.834 355.578 234.4 355.733 234.935Z" fill="black"/>
<path d="M359.351 226.049C360.187 224.08 362.476 222.244 366.445 223.447C372.508 225.275 371.328 234.182 371.133 235.284C371.368 234.034 373.29 222.564 367.226 220.689C362.382 219.196 359.827 223.15 359.351 226.049Z" fill="#34A1D3"/>
<path d="M359.351 226.051C359.169 226.838 359.254 227.662 359.593 228.395C360.804 230.302 364.351 233.528 370.719 235.294L371.141 235.411C371.141 235.411 371.141 235.372 371.141 235.294C371.141 235.216 371.141 235.255 371.141 235.232H371.094C365.14 232.372 362.007 228.981 361.007 227.207C360.616 226.512 360.819 225.254 361.538 224.145C361.708 223.883 361.902 223.637 362.116 223.41C361.5 223.638 360.936 223.99 360.46 224.445C359.985 224.899 359.607 225.445 359.351 226.051Z" fill="#34A1D3"/>
<path opacity="0.2" d="M359.351 226.051C359.169 226.838 359.254 227.662 359.593 228.395C360.804 230.302 364.351 233.528 370.719 235.294L371.141 235.411C371.141 235.411 371.141 235.372 371.141 235.294C371.141 235.216 371.141 235.255 371.141 235.232H371.094C365.14 232.372 362.007 228.981 361.007 227.207C360.616 226.512 360.819 225.254 361.538 224.145C361.708 223.883 361.902 223.637 362.116 223.41C361.5 223.638 360.936 223.99 360.46 224.445C359.985 224.899 359.607 225.445 359.351 226.051Z" fill="black"/>
<path d="M386.799 273.315H353.928L352.585 237.14L388.252 238.343L386.799 273.315Z" fill="#37474F"/>
<path d="M398.332 273.312H386.799L387.276 238.34L399.746 239.731L398.332 273.312Z" fill="#455A64"/>
<path d="M349.913 236.545L350.71 248.023H387.276V234.201L349.913 236.545Z" fill="#263238"/>
<path d="M400.394 247.679L387.276 248.023V234.201L401.605 237.139L400.394 247.679Z" fill="#37474F"/>
<path d="M396.699 236.141L394.292 273.317H391.401L393.003 235.375L396.699 236.141Z" fill="#34A1D3"/>
<path opacity="0.1" d="M396.699 236.141L394.292 273.317H391.401L393.003 235.375L396.699 236.141Z" fill="black"/>
<path d="M372.946 235.12V273.312H365.344L364.476 235.659L372.946 235.12Z" fill="#34A1D3"/>
<path d="M396.917 334.727H292.601C292.05 334.724 291.521 334.504 291.131 334.113C290.742 333.722 290.523 333.192 290.523 332.64V320.202C290.519 320.163 290.519 320.123 290.523 320.084C290.519 320.011 290.519 319.938 290.523 319.866L303.157 273.54L286.82 172.287L281.35 170.396C280.841 170.223 280.418 169.86 280.17 169.383C279.922 168.906 279.868 168.351 280.019 167.835C280.17 167.318 280.515 166.88 280.982 166.612C281.448 166.344 282 166.267 282.522 166.396L289.25 168.662C289.631 168.773 289.973 168.99 290.235 169.29C290.497 169.589 290.667 169.957 290.726 170.35L307.33 273.275C307.364 273.505 307.364 273.74 307.33 273.97L295.086 318.35L392.268 325.257C392.808 325.296 393.312 325.542 393.675 325.944L398.472 331.242C398.744 331.542 398.922 331.915 398.985 332.315C399.048 332.715 398.993 333.125 398.828 333.494C398.662 333.863 398.393 334.177 398.052 334.396C397.711 334.614 397.314 334.729 396.909 334.727H396.917ZM294.68 330.554H392.229L391.151 329.367L294.688 322.499L294.68 330.554Z" fill="#A6A6A6"/>
<path d="M435.125 205.186H294.485C293.931 205.186 293.401 204.966 293.009 204.574C292.618 204.183 292.398 203.653 292.398 203.099C292.398 202.546 292.618 202.015 293.009 201.624C293.401 201.233 293.931 201.013 294.485 201.013H435.125C435.678 201.013 436.208 201.233 436.6 201.624C436.991 202.015 437.211 202.546 437.211 203.099C437.211 203.653 436.991 204.183 436.6 204.574C436.208 204.966 435.678 205.186 435.125 205.186Z" fill="#A6A6A6"/>
<path d="M305.282 274.275C305.111 274.262 304.95 274.186 304.831 274.062C304.712 273.937 304.644 273.773 304.639 273.601C304.634 273.429 304.693 273.261 304.805 273.13C304.916 272.999 305.073 272.914 305.243 272.892L408.958 273.095L431.687 202.9C431.714 202.813 431.759 202.732 431.818 202.662C431.877 202.593 431.949 202.535 432.031 202.494C432.112 202.452 432.201 202.427 432.292 202.421C432.383 202.414 432.475 202.426 432.562 202.455C432.735 202.512 432.878 202.635 432.962 202.797C433.045 202.96 433.061 203.148 433.007 203.322L410.13 274.002C410.088 274.136 410.005 274.254 409.893 274.339C409.781 274.425 409.645 274.473 409.504 274.478L305.321 274.298L305.282 274.275Z" fill="#A6A6A6"/>
<path d="M412.544 263.937H302.657C302.472 263.937 302.296 263.864 302.165 263.733C302.035 263.603 301.962 263.426 301.962 263.242C301.962 263.057 302.035 262.88 302.165 262.75C302.296 262.62 302.472 262.546 302.657 262.546H412.544C412.635 262.546 412.725 262.564 412.81 262.599C412.894 262.634 412.971 262.685 413.035 262.75C413.1 262.815 413.151 262.891 413.186 262.976C413.221 263.06 413.239 263.15 413.239 263.242C413.239 263.333 413.221 263.424 413.186 263.508C413.151 263.592 413.1 263.669 413.035 263.733C412.971 263.798 412.894 263.849 412.81 263.884C412.725 263.919 412.635 263.937 412.544 263.937Z" fill="#A6A6A6"/>
<path d="M415.318 255.49H301.368C301.184 255.49 301.007 255.416 300.877 255.286C300.746 255.156 300.673 254.979 300.673 254.794C300.673 254.61 300.746 254.433 300.877 254.303C301.007 254.172 301.184 254.099 301.368 254.099H415.318C415.502 254.099 415.679 254.172 415.81 254.303C415.94 254.433 416.013 254.61 416.013 254.794C416.013 254.979 415.94 255.156 415.81 255.286C415.679 255.416 415.502 255.49 415.318 255.49Z" fill="#A6A6A6"/>
<path d="M417.904 247.047H300.071C299.887 247.047 299.71 246.973 299.58 246.843C299.449 246.712 299.376 246.536 299.376 246.351C299.376 246.167 299.449 245.99 299.58 245.859C299.71 245.729 299.887 245.656 300.071 245.656H417.904C418.089 245.656 418.265 245.729 418.396 245.859C418.526 245.99 418.599 246.167 418.599 246.351C418.599 246.536 418.526 246.712 418.396 246.843C418.265 246.973 418.089 247.047 417.904 247.047Z" fill="#A6A6A6"/>
<path d="M420.701 238.59H298.813C298.629 238.59 298.452 238.516 298.321 238.386C298.191 238.255 298.118 238.079 298.118 237.894C298.118 237.71 298.191 237.533 298.321 237.402C298.452 237.272 298.629 237.199 298.813 237.199H420.701C420.885 237.199 421.062 237.272 421.193 237.402C421.323 237.533 421.396 237.71 421.396 237.894C421.396 238.079 421.323 238.255 421.193 238.386C421.062 238.516 420.885 238.59 420.701 238.59Z" fill="#A6A6A6"/>
<path d="M423.373 230.147H297.485C297.3 230.147 297.124 230.073 296.993 229.943C296.863 229.813 296.789 229.636 296.789 229.451C296.789 229.267 296.863 229.09 296.993 228.96C297.124 228.829 297.3 228.756 297.485 228.756H423.373C423.558 228.756 423.735 228.829 423.865 228.96C423.995 229.09 424.069 229.267 424.069 229.451C424.069 229.636 423.995 229.813 423.865 229.943C423.735 230.073 423.558 230.147 423.373 230.147Z" fill="#A6A6A6"/>
<path d="M426.241 221.69H296.195C296.011 221.69 295.834 221.617 295.704 221.486C295.573 221.356 295.5 221.179 295.5 220.995C295.5 220.81 295.573 220.633 295.704 220.503C295.834 220.373 296.011 220.299 296.195 220.299H426.241C426.425 220.299 426.602 220.373 426.732 220.503C426.863 220.633 426.936 220.81 426.936 220.995C426.936 221.179 426.863 221.356 426.732 221.486C426.602 221.617 426.425 221.69 426.241 221.69Z" fill="#A6A6A6"/>
<path d="M428.952 213.247H294.899C294.808 213.247 294.717 213.229 294.633 213.194C294.549 213.159 294.472 213.108 294.407 213.044C294.343 212.979 294.292 212.902 294.257 212.818C294.222 212.734 294.204 212.643 294.204 212.552C294.204 212.461 294.222 212.37 294.257 212.286C294.292 212.201 294.343 212.125 294.407 212.06C294.472 211.996 294.549 211.944 294.633 211.909C294.717 211.874 294.808 211.856 294.899 211.856H428.952C429.044 211.856 429.134 211.874 429.219 211.909C429.303 211.944 429.38 211.996 429.444 212.06C429.509 212.125 429.56 212.201 429.595 212.286C429.63 212.37 429.648 212.461 429.648 212.552C429.648 212.643 429.63 212.734 429.595 212.818C429.56 212.902 429.509 212.979 429.444 213.044C429.38 213.108 429.303 213.159 429.219 213.194C429.134 213.229 429.044 213.247 428.952 213.247Z" fill="#A6A6A6"/>
<path d="M314.76 273.39C314.585 273.391 314.417 273.325 314.289 273.206C314.162 273.087 314.084 272.924 314.072 272.75L308.751 203.149C308.739 203.055 308.747 202.959 308.773 202.869C308.799 202.778 308.843 202.693 308.903 202.62C308.963 202.547 309.038 202.487 309.122 202.443C309.206 202.4 309.298 202.374 309.392 202.367C309.58 202.352 309.766 202.41 309.912 202.529C310.058 202.649 310.152 202.821 310.173 203.008L315.486 272.609C315.498 272.703 315.491 272.798 315.465 272.889C315.439 272.98 315.394 273.065 315.334 273.138C315.274 273.211 315.2 273.271 315.116 273.314C315.032 273.358 314.94 273.384 314.846 273.39H314.76Z" fill="#A6A6A6"/>
<path d="M399.699 274.212H399.519C399.431 274.189 399.349 274.148 399.276 274.092C399.204 274.037 399.144 273.967 399.099 273.888C399.054 273.809 399.025 273.721 399.014 273.631C399.003 273.54 399.01 273.448 399.035 273.361L417.92 202.9C417.969 202.723 418.086 202.572 418.245 202.48C418.404 202.388 418.593 202.362 418.771 202.408C418.86 202.431 418.942 202.472 419.015 202.528C419.087 202.583 419.148 202.652 419.194 202.732C419.24 202.811 419.269 202.898 419.281 202.989C419.293 203.079 419.287 203.171 419.264 203.259L400.371 273.689C400.333 273.838 400.246 273.971 400.125 274.065C400.003 274.16 399.853 274.212 399.699 274.212Z" fill="#A6A6A6"/>
<path d="M325.918 273.754C325.736 273.752 325.563 273.68 325.433 273.553C325.304 273.427 325.228 273.255 325.222 273.074L323.472 203.113C323.47 203.022 323.486 202.931 323.519 202.846C323.552 202.761 323.601 202.683 323.665 202.617C323.728 202.551 323.803 202.498 323.887 202.461C323.97 202.424 324.06 202.404 324.152 202.402C324.334 202.402 324.508 202.473 324.638 202.6C324.768 202.728 324.843 202.9 324.847 203.082L326.597 273.043C326.599 273.134 326.584 273.225 326.55 273.31C326.517 273.395 326.468 273.473 326.405 273.539C326.342 273.605 326.266 273.658 326.183 273.695C326.099 273.732 326.009 273.752 325.918 273.754Z" fill="#A6A6A6"/>
<path d="M337.255 273.855C337.163 273.853 337.073 273.833 336.99 273.796C336.906 273.76 336.831 273.707 336.768 273.641C336.704 273.575 336.655 273.497 336.622 273.412C336.589 273.326 336.573 273.236 336.575 273.144L337.849 203.082C337.853 202.9 337.928 202.728 338.058 202.6C338.188 202.473 338.362 202.402 338.544 202.402C338.635 202.404 338.725 202.424 338.809 202.461C338.892 202.498 338.968 202.551 339.031 202.617C339.094 202.683 339.144 202.761 339.177 202.846C339.21 202.931 339.226 203.022 339.224 203.113L337.95 273.176C337.946 273.357 337.871 273.53 337.741 273.657C337.611 273.784 337.436 273.855 337.255 273.855Z" fill="#A6A6A6"/>
<path d="M388.088 273.815H387.948C387.768 273.777 387.61 273.67 387.509 273.516C387.408 273.362 387.372 273.175 387.409 272.994L401.535 202.971C401.572 202.79 401.68 202.631 401.835 202.529C401.989 202.427 402.178 202.391 402.359 202.428C402.541 202.466 402.7 202.573 402.802 202.728C402.904 202.883 402.94 203.071 402.902 203.253L388.768 273.276C388.734 273.43 388.648 273.568 388.524 273.666C388.4 273.764 388.246 273.817 388.088 273.815Z" fill="#A6A6A6"/>
<path d="M374.962 274.212H374.853C374.674 274.183 374.514 274.085 374.407 273.939C374.3 273.793 374.255 273.61 374.282 273.431L385.198 202.986C385.228 202.804 385.329 202.641 385.479 202.533C385.629 202.425 385.816 202.382 385.998 202.412C386.181 202.442 386.344 202.543 386.451 202.693C386.559 202.843 386.603 203.03 386.573 203.212L375.689 273.634C375.66 273.803 375.57 273.955 375.436 274.062C375.302 274.169 375.133 274.222 374.962 274.212Z" fill="#A6A6A6"/>
<path d="M348.912 273.771H348.865C348.771 273.763 348.679 273.736 348.595 273.693C348.511 273.649 348.437 273.589 348.377 273.516C348.316 273.443 348.271 273.359 348.244 273.269C348.216 273.178 348.207 273.083 348.217 272.989L353.295 203.013C353.313 202.831 353.4 202.664 353.538 202.544C353.676 202.425 353.855 202.364 354.038 202.372C354.132 202.379 354.224 202.405 354.308 202.448C354.392 202.492 354.466 202.552 354.526 202.625C354.586 202.698 354.631 202.783 354.657 202.874C354.683 202.965 354.69 203.06 354.678 203.154L349.607 273.13C349.592 273.304 349.512 273.466 349.383 273.585C349.255 273.703 349.087 273.769 348.912 273.771Z" fill="#A6A6A6"/>
<path d="M361.937 274.16H361.859C361.767 274.15 361.678 274.122 361.597 274.077C361.516 274.032 361.445 273.971 361.388 273.899C361.331 273.826 361.289 273.742 361.266 273.652C361.242 273.563 361.236 273.47 361.249 273.378L369.321 203.003C369.341 202.82 369.434 202.652 369.578 202.537C369.723 202.422 369.907 202.369 370.09 202.39C370.274 202.411 370.441 202.504 370.556 202.648C370.671 202.792 370.724 202.976 370.703 203.16L362.632 273.527C362.617 273.7 362.537 273.861 362.408 273.978C362.279 274.096 362.111 274.16 361.937 274.16Z" fill="#A6A6A6"/>
<path d="M311.624 343.291C314.663 340.252 314.663 335.324 311.624 332.285C308.585 329.246 303.657 329.246 300.618 332.285C297.579 335.324 297.579 340.252 300.618 343.291C303.657 346.33 308.585 346.33 311.624 343.291Z" fill="#263238"/>
<path d="M309.659 337.788C309.659 338.489 309.451 339.173 309.062 339.755C308.673 340.337 308.12 340.791 307.474 341.058C306.827 341.326 306.115 341.396 305.429 341.26C304.742 341.123 304.111 340.786 303.616 340.291C303.121 339.796 302.784 339.166 302.648 338.479C302.511 337.792 302.581 337.081 302.849 336.434C303.117 335.787 303.571 335.234 304.153 334.846C304.735 334.457 305.419 334.249 306.119 334.249C307.058 334.249 307.958 334.622 308.622 335.286C309.286 335.949 309.659 336.85 309.659 337.788Z" fill="#EBEBEB"/>
<path d="M383.541 337.791C383.541 339.337 383.083 340.847 382.224 342.132C381.366 343.417 380.145 344.419 378.718 345.01C377.29 345.601 375.719 345.756 374.203 345.455C372.688 345.153 371.296 344.409 370.203 343.316C369.11 342.223 368.366 340.831 368.065 339.316C367.763 337.8 367.918 336.229 368.509 334.801C369.101 333.374 370.102 332.153 371.387 331.295C372.672 330.436 374.182 329.978 375.728 329.978C377.8 329.978 379.787 330.801 381.253 332.266C382.718 333.732 383.541 335.719 383.541 337.791Z" fill="#263238"/>
<path d="M379.298 337.788C379.298 338.489 379.091 339.173 378.702 339.755C378.313 340.337 377.76 340.791 377.113 341.058C376.467 341.326 375.755 341.396 375.068 341.26C374.382 341.123 373.751 340.786 373.256 340.291C372.761 339.796 372.424 339.166 372.288 338.479C372.151 337.792 372.221 337.081 372.489 336.434C372.757 335.787 373.211 335.234 373.793 334.846C374.375 334.457 375.059 334.249 375.759 334.249C376.698 334.249 377.598 334.622 378.262 335.286C378.926 335.949 379.298 336.85 379.298 337.788Z" fill="#EBEBEB"/>
<path d="M287.14 172.655C286.857 172.652 286.577 172.6 286.312 172.499L275.373 168.342C275.076 168.24 274.803 168.08 274.569 167.87C274.336 167.661 274.147 167.406 274.013 167.122C273.88 166.838 273.805 166.53 273.792 166.217C273.78 165.903 273.831 165.59 273.942 165.297C274.053 165.003 274.222 164.735 274.438 164.508C274.655 164.281 274.915 164.099 275.203 163.974C275.491 163.85 275.801 163.784 276.115 163.781C276.428 163.779 276.74 163.839 277.03 163.959L287.968 168.116C288.484 168.308 288.916 168.677 289.187 169.156C289.458 169.635 289.553 170.194 289.453 170.736C289.353 171.277 289.066 171.766 288.642 172.117C288.217 172.468 287.683 172.659 287.132 172.655H287.14Z" fill="#34A1D3"/>
<path d="M415.881 328.131H500.093L487.81 242.356H428.156L415.881 328.131Z" fill="#37474F"/>
<path d="M428.155 242.352L437.516 328.142H415.873L428.155 242.352Z" fill="#455A64"/>
<path d="M471.012 248.265L473.645 247.71C473.645 247.639 472.082 240.436 470.473 233.154C468.707 225.293 460.987 221.652 454.51 222.715C449.673 223.496 444.314 227.278 445.134 235.341C446.001 243.936 446.658 248.038 446.697 248.202L449.353 247.772C449.353 247.733 448.681 243.608 447.79 235.068C447.165 228.872 451.072 225.997 454.932 225.371C460.159 224.528 466.417 227.426 467.839 233.747C469.472 241.006 470.996 248.218 471.012 248.265Z" fill="#263238"/>
<path d="M436.375 327.475C434.641 326.248 432.852 325.131 431.062 323.99C429.273 322.85 427.445 321.795 425.593 320.748L425.343 320.607L425.109 320.779C423.687 321.842 422.265 322.912 420.882 324.037C419.499 325.162 418.108 326.28 416.78 327.467C418.342 326.545 419.796 325.561 421.264 324.561C422.733 323.561 424.194 322.537 425.632 321.49H425.155C426.976 322.561 428.828 323.6 430.687 324.615C432.547 325.631 434.422 326.592 436.375 327.475Z" fill="white"/>
<path d="M425.381 321.132C425.749 315.663 426.022 310.194 426.28 304.724C426.538 299.255 426.725 293.786 426.944 288.316C427.163 282.847 427.288 277.378 427.397 271.908L427.554 263.689C427.554 260.946 427.624 258.22 427.616 255.469C427.421 258.204 427.28 260.939 427.116 263.673L426.71 271.885C426.452 277.354 426.272 282.824 426.053 288.293C425.835 293.762 425.71 299.232 425.592 304.701C425.475 310.17 425.381 315.655 425.381 321.132Z" fill="white"/>
<path d="M468.754 247.992C468.754 248.7 468.964 249.392 469.357 249.981C469.751 250.57 470.31 251.028 470.964 251.299C471.619 251.57 472.339 251.64 473.033 251.501C473.727 251.363 474.365 251.021 474.865 250.52C475.365 250.018 475.706 249.38 475.843 248.685C475.98 247.991 475.908 247.271 475.636 246.617C475.364 245.963 474.904 245.405 474.315 245.013C473.725 244.621 473.032 244.412 472.324 244.414C471.377 244.416 470.468 244.794 469.799 245.464C469.129 246.135 468.754 247.044 468.754 247.992Z" fill="#263238"/>
<path d="M444.696 247.992C444.696 248.7 444.906 249.392 445.3 249.981C445.694 250.57 446.253 251.028 446.907 251.299C447.562 251.57 448.282 251.64 448.976 251.501C449.67 251.363 450.308 251.021 450.808 250.52C451.308 250.018 451.648 249.38 451.786 248.685C451.923 247.991 451.851 247.271 451.579 246.617C451.307 245.963 450.847 245.405 450.257 245.013C449.668 244.621 448.975 244.412 448.267 244.414C447.319 244.416 446.411 244.794 445.742 245.464C445.072 246.135 444.696 247.044 444.696 247.992Z" fill="#263238"/>
<path d="M450.557 328.13H523.807L513.126 253.521H461.237L450.557 328.13Z" fill="#34A1D3"/>
<path d="M461.237 253.521L469.379 328.138H450.557L461.237 253.521Z" fill="#34A1D3"/>
<path opacity="0.1" d="M461.237 253.521L469.379 328.138H450.557L461.237 253.521Z" fill="black"/>
<path d="M498.491 258.664L500.78 258.179C500.78 258.117 499.436 251.85 498.022 245.522C496.459 238.685 489.763 235.536 484.137 236.442C479.934 237.122 475.269 240.404 475.973 247.42C476.754 254.929 477.293 258.46 477.316 258.609L479.66 258.234C479.66 258.234 479.082 254.608 478.34 247.186C477.793 241.795 481.192 239.294 484.552 238.755C489.099 238.021 494.545 240.537 495.772 246.037C497.178 252.35 498.491 258.601 498.491 258.664Z" fill="#263238"/>
<path d="M468.386 327.562C466.878 326.492 465.323 325.515 463.761 324.531C462.198 323.546 460.635 322.624 459.018 321.71L458.792 321.585L458.596 321.734C457.354 322.663 456.119 323.593 454.916 324.578C453.713 325.562 452.51 326.523 451.345 327.555C452.681 326.773 453.971 325.898 455.252 325.031C456.533 324.164 457.799 323.265 459.049 322.351H458.635C460.198 323.289 461.802 324.19 463.448 325.054C465.073 325.937 466.706 326.797 468.386 327.562Z" fill="white"/>
<path d="M458.822 322.048C459.143 317.29 459.385 312.531 459.604 307.765C459.823 302.999 459.979 298.241 460.174 293.482C460.37 288.724 460.471 283.95 460.573 279.192L460.706 272.043C460.706 269.652 460.768 267.276 460.76 264.885C460.588 267.269 460.471 269.644 460.323 272.027L459.971 279.168C459.752 283.927 459.588 288.693 459.401 293.451C459.213 298.209 459.104 302.983 459.002 307.749C458.901 312.516 458.822 317.282 458.822 322.048Z" fill="white"/>
<path d="M496.545 258.42C496.545 259.038 496.728 259.642 497.072 260.156C497.415 260.67 497.903 261.071 498.474 261.307C499.045 261.544 499.674 261.606 500.28 261.485C500.886 261.364 501.443 261.067 501.88 260.63C502.317 260.193 502.615 259.636 502.736 259.029C502.856 258.423 502.794 257.795 502.558 257.224C502.321 256.653 501.921 256.165 501.407 255.821C500.893 255.478 500.288 255.294 499.67 255.294C498.841 255.294 498.046 255.624 497.46 256.21C496.874 256.796 496.545 257.591 496.545 258.42Z" fill="#263238"/>
<path d="M475.621 258.42C475.621 259.038 475.805 259.642 476.148 260.156C476.491 260.67 476.98 261.071 477.551 261.307C478.122 261.544 478.75 261.606 479.356 261.485C479.963 261.364 480.52 261.067 480.957 260.63C481.394 260.193 481.691 259.636 481.812 259.029C481.933 258.423 481.871 257.795 481.634 257.224C481.398 256.653 480.997 256.165 480.483 255.821C479.969 255.478 479.365 255.294 478.747 255.294C477.918 255.294 477.123 255.624 476.537 256.21C475.951 256.796 475.621 257.591 475.621 258.42Z" fill="#263238"/>
<path d="M312.432 60.6169C312.091 63.8731 310.852 66.9706 308.853 69.5639C306.855 72.1572 304.175 74.1443 301.113 75.3038C298.051 76.4632 294.728 76.7494 291.513 76.1303C288.298 75.5112 285.318 74.0113 282.905 71.7977L274.069 73.0948L278.491 65.4533C277.476 62.9653 277.041 60.2785 277.22 57.5972C277.399 54.9159 278.187 52.3108 279.525 49.9799C280.862 47.6491 282.713 45.6538 284.938 44.146C287.162 42.6382 289.701 41.6574 292.361 41.2783C295.022 40.8992 297.733 41.1318 300.29 41.9583C302.847 42.7848 305.182 44.1835 307.117 46.0481C309.053 47.9126 310.537 50.1939 311.458 52.7184C312.379 55.2429 312.712 57.9442 312.432 60.6169Z" fill="white"/>
<path d="M312.432 60.6157C312.091 63.8738 310.859 66.9749 308.869 69.5776C308.371 70.2225 307.836 70.8382 307.267 71.4215C306.675 71.9777 306.052 72.4995 305.4 72.9842C302.767 74.953 299.647 76.1659 296.376 76.4924C295.56 76.5627 294.74 76.5784 293.922 76.5392C293.102 76.5161 292.284 76.4299 291.477 76.2814C288.219 75.6815 285.192 74.1883 282.734 71.9684L282.944 72.031L274.108 73.3827L273.467 73.4842L273.795 72.9217L278.194 65.2568V65.5615C277.158 63.0278 276.717 60.2902 276.906 57.5594C277.094 54.8286 277.906 52.1774 279.28 49.8098C280.66 47.4546 282.554 45.441 284.82 43.9186C287.084 42.4119 289.663 41.4443 292.36 41.0901C295.034 40.7341 297.754 40.9892 300.315 41.8363C302.877 42.6835 305.212 44.1005 307.147 45.9809C309.081 47.8613 310.564 50.1559 311.484 52.6922C312.403 55.2285 312.735 57.9403 312.455 60.6235L312.432 60.6157ZM312.432 60.6157C312.713 57.9546 312.379 55.2646 311.457 52.7526C310.534 50.2407 309.048 47.9738 307.113 46.1264C305.177 44.2789 302.843 42.9001 300.291 42.0961C297.739 41.2921 295.036 41.0843 292.391 41.4886C289.771 41.8847 287.276 42.8705 285.093 44.3717C282.933 45.8877 281.128 47.8552 279.804 50.138C278.504 52.4305 277.738 54.9861 277.561 57.6153C277.399 60.2437 277.823 62.8752 278.803 65.3193L278.874 65.4756L278.788 65.624L274.334 73.2498L274.022 72.781L282.843 71.5387H282.968L283.054 71.6247C285.416 73.8342 288.346 75.3436 291.516 75.9845C292.307 76.1432 293.109 76.2399 293.914 76.2736C294.721 76.3322 295.53 76.3322 296.337 76.2736C297.94 76.1474 299.518 75.7976 301.025 75.2344C302.55 74.6852 303.986 73.9109 305.283 72.9373C305.939 72.4578 306.563 71.9358 307.15 71.3746C307.723 70.7985 308.261 70.188 308.76 69.5463C310.784 66.9653 312.055 63.8744 312.432 60.6157Z" fill="#263238"/>
<path d="M292.789 68.8566L285.242 61.2152L287.773 58.7071L292.18 63.1685L301.345 48.8076L304.353 50.7297L292.789 68.8566Z" fill="#34A1D3"/>
</svg>
