<svg width="212" height="142" viewBox="0 0 212 142" fill="none" xmlns="http://www.w3.org/2000/svg">
<path d="M196.044 79.9351H167.796V111.099H196.044V79.9351Z" fill="#EBEBEB"/>
<path d="M187.716 82.6902H176.123V83.1273H187.716V82.6902Z" fill="#FAFAFA"/>
<path d="M184.896 83.9395H178.943V84.3766H184.896V83.9395Z" fill="#FAFAFA"/>
<path d="M182.076 87.6929H170.483V88.1836H182.076V87.6929Z" fill="#FAFAFA"/>
<path d="M184.896 89.0945H170.483V89.5852H184.896V89.0945Z" fill="#FAFAFA"/>
<path d="M177.984 90.4988H170.483V90.9895H177.984V90.4988Z" fill="#FAFAFA"/>
<path d="M183.331 91.9033H170.483V92.394H183.331V91.9033Z" fill="#FAFAFA"/>
<path d="M184.642 93.3076H170.483V93.7983H184.642V93.3076Z" fill="#FAFAFA"/>
<path d="M183.455 94.7119H170.483V95.2026H183.455V94.7119Z" fill="#FAFAFA"/>
<path d="M184.896 96.1135H170.483V96.6042H184.896V96.1135Z" fill="#FAFAFA"/>
<path d="M183.799 97.5178H170.483V98.0085H183.799V97.5178Z" fill="#FAFAFA"/>
<path d="M181.36 98.9221H170.483V99.4128H181.36V98.9221Z" fill="#FAFAFA"/>
<path d="M184.766 100.327H170.483V100.817H184.766V100.327Z" fill="#FAFAFA"/>
<path d="M183.954 101.731H170.483V102.222H183.954V101.731Z" fill="#FAFAFA"/>
<path d="M193.356 89.0945H188.988V89.5852H193.356V89.0945Z" fill="#FAFAFA"/>
<path d="M193.356 90.4988H188.988V90.9895H193.356V90.4988Z" fill="#FAFAFA"/>
<path d="M193.356 91.9033H188.988V92.394H193.356V91.9033Z" fill="#FAFAFA"/>
<path d="M193.356 93.3076H188.988V93.7983H193.356V93.3076Z" fill="#FAFAFA"/>
<path d="M193.356 94.7119H188.988V95.2026H193.356V94.7119Z" fill="#FAFAFA"/>
<path d="M193.356 96.1135H188.988V96.6042H193.356V96.1135Z" fill="#FAFAFA"/>
<path d="M193.356 97.5178H188.988V98.0085H193.356V97.5178Z" fill="#FAFAFA"/>
<path d="M193.356 98.9221H188.988V99.4128H193.356V98.9221Z" fill="#FAFAFA"/>
<path d="M181.36 107.551H170.483V108.042H181.36V107.551Z" fill="#FAFAFA"/>
<path d="M193.356 107.551H188.988V108.042H193.356V107.551Z" fill="#FAFAFA"/>
<path d="M193.356 100.327H188.988V100.817H193.356V100.327Z" fill="#FAFAFA"/>
<path d="M193.356 101.731H188.988V102.222H193.356V101.731Z" fill="#FAFAFA"/>
<path d="M66.0727 14.999L72.4825 42.8916C72.5682 43.2623 72.58 43.6463 72.5172 44.0215C72.4544 44.3968 72.3183 44.756 72.1167 45.0786C71.915 45.4013 71.6518 45.681 71.342 45.9019C71.0322 46.1228 70.6819 46.2804 70.3111 46.3659L26.071 56.532C25.324 56.7007 24.5405 56.5667 23.8921 56.1592C23.2436 55.7517 22.7829 55.104 22.6108 54.3577L16.1897 26.4623C16.0302 25.7657 16.1534 25.0342 16.5325 24.4284C16.9115 23.8225 17.5154 23.3918 18.2117 23.2306L62.8438 12.9742C63.1888 12.8949 63.546 12.8844 63.895 12.9432C64.2441 13.0021 64.5781 13.1292 64.878 13.3172C65.1779 13.5053 65.4377 13.7506 65.6427 14.0392C65.8477 14.3278 65.9938 14.6539 66.0727 14.999Z" fill="#EBEBEB"/>
<path d="M29.0859 25.7761L22.0308 27.3971C21.3933 27.5436 20.9952 28.1792 21.1417 28.8167L22.0984 32.9805C22.2449 33.618 22.8804 34.0161 23.5179 33.8696L30.573 32.2486C31.2106 32.1021 31.6086 31.4665 31.4621 30.829L30.5054 26.6652C30.359 26.0277 29.7234 25.6296 29.0859 25.7761Z" fill="#DBDBDB"/>
<path d="M23.3776 40.1112L23.0448 40.427C23.0329 40.4386 23.0184 40.4473 23.0025 40.4524C22.9859 40.4561 22.9686 40.4555 22.9523 40.4505C22.936 40.4456 22.9212 40.4365 22.9095 40.4242C22.8999 40.4157 22.8922 40.4053 22.8869 40.3936C22.8816 40.382 22.8789 40.3693 22.8789 40.3565C22.8789 40.3437 22.8816 40.331 22.8869 40.3194C22.8922 40.3077 22.8999 40.2973 22.9095 40.2888L23.3607 39.8489C23.3795 39.8328 23.4035 39.824 23.4283 39.824C23.4531 39.824 23.4771 39.8328 23.496 39.8489C23.5117 39.8683 23.5215 39.8918 23.5242 39.9166L24.0882 42.4123C24.0911 42.4243 24.0916 42.4368 24.0896 42.4491C24.0877 42.4613 24.0833 42.473 24.0767 42.4835C24.0701 42.494 24.0615 42.5031 24.0514 42.5102C24.0413 42.5174 24.0298 42.5224 24.0177 42.5251C23.993 42.531 23.967 42.5269 23.9453 42.5137C23.9237 42.5005 23.9081 42.4792 23.9021 42.4546L23.3776 40.1112Z" fill="#FAFAFA"/>
<path d="M24.7541 42.1894L25.758 40.754C25.8589 40.5983 25.8954 40.4095 25.8598 40.2274C25.8243 40.0452 25.7194 39.884 25.5674 39.7777C25.4153 39.6713 25.2279 39.6281 25.0447 39.6571C24.8614 39.6862 24.6966 39.7852 24.5849 39.9334L24.4805 40.0857C24.4737 40.0963 24.4648 40.1054 24.4543 40.1125C24.4439 40.1196 24.4321 40.1244 24.4197 40.1268C24.4073 40.1292 24.3946 40.129 24.3822 40.1263C24.3699 40.1236 24.3582 40.1184 24.348 40.111C24.3371 40.1045 24.3277 40.0957 24.3204 40.0854C24.3131 40.075 24.3079 40.0633 24.3053 40.0509C24.3026 40.0385 24.3025 40.0256 24.305 40.0132C24.3075 40.0007 24.3126 39.9889 24.3198 39.9785L24.4241 39.8234C24.5593 39.6346 24.7607 39.5036 24.9881 39.4568C25.1111 39.4278 25.2389 39.4254 25.3629 39.4497C25.4869 39.474 25.6043 39.5245 25.7072 39.5978C25.8937 39.7245 26.0256 39.9168 26.0766 40.1364C26.1044 40.2609 26.1062 40.3897 26.0819 40.5149C26.0577 40.6401 26.0079 40.7589 25.9356 40.864L25.0896 42.0963L26.3727 41.8002C26.3975 41.7961 26.4229 41.8015 26.4438 41.8153C26.4647 41.8292 26.4795 41.8505 26.4852 41.8749C26.491 41.8994 26.4872 41.9251 26.4747 41.9468C26.4622 41.9685 26.4419 41.9847 26.4179 41.992L24.8669 42.3389C24.855 42.3446 24.842 42.3476 24.8288 42.3476C24.8156 42.3476 24.8026 42.3446 24.7907 42.3389C24.778 42.3319 24.7669 42.3224 24.7581 42.3109C24.7493 42.2994 24.7429 42.2862 24.7395 42.2722C24.7361 42.2581 24.7356 42.2435 24.7381 42.2293C24.7406 42.215 24.746 42.2014 24.7541 42.1894Z" fill="#FAFAFA"/>
<path d="M28.1411 38.9069L27.6024 39.7896C27.7875 39.7859 27.9697 39.8359 28.127 39.9334C28.3367 40.0692 28.4841 40.2825 28.5369 40.5266C28.5898 40.7708 28.5438 41.0259 28.409 41.2363C28.2757 41.4492 28.064 41.6012 27.8196 41.6593C27.6988 41.6869 27.5738 41.6902 27.4517 41.6689C27.3297 41.6476 27.2132 41.6021 27.1089 41.5352C27.0896 41.5202 27.0766 41.4985 27.0724 41.4744C27.0681 41.4504 27.0729 41.4256 27.0859 41.4049C27.0989 41.3841 27.1191 41.369 27.1427 41.3623C27.1662 41.3557 27.1914 41.358 27.2133 41.3688C27.2965 41.4207 27.3892 41.4556 27.486 41.4716C27.5828 41.4876 27.6818 41.4843 27.7773 41.4619C27.9724 41.4183 28.1426 41.2998 28.251 41.1319C28.304 41.0491 28.3398 40.9566 28.3563 40.8597C28.3727 40.7628 28.3695 40.6636 28.3469 40.5679C28.3032 40.3752 28.1848 40.2076 28.0178 40.1019C27.8508 39.9962 27.6487 39.961 27.4558 40.0039C27.4405 40.0066 27.4247 40.0059 27.4097 40.002C27.3946 39.9981 27.3805 39.9911 27.3684 39.9814C27.3569 39.9747 27.3469 39.9658 27.3389 39.9551C27.3309 39.9445 27.3252 39.9324 27.322 39.9195C27.3189 39.9066 27.3184 39.8932 27.3205 39.8801C27.3227 39.8669 27.3274 39.8544 27.3345 39.8432L27.8506 38.9972L26.81 39.2341C26.7971 39.238 26.7835 39.2392 26.7701 39.2377C26.7567 39.2362 26.7438 39.2319 26.7321 39.2252C26.7204 39.2184 26.7102 39.2094 26.7021 39.1986C26.6941 39.1877 26.6883 39.1754 26.6852 39.1622C26.6822 39.1491 26.6818 39.1355 26.6842 39.1222C26.6866 39.1089 26.6916 39.0963 26.6991 39.085C26.7066 39.0738 26.7163 39.0642 26.7276 39.0568C26.7389 39.0495 26.7516 39.0445 26.7649 39.0423L28.0339 38.7603C28.0601 38.7544 28.0875 38.7591 28.1102 38.7734C28.133 38.7876 28.1491 38.8103 28.1552 38.8364C28.1594 38.8512 28.1594 38.8668 28.1552 38.8816C28.1523 38.8909 28.1475 38.8996 28.1411 38.9069Z" fill="#FAFAFA"/>
<path d="M30.8763 40.3704L29.4071 40.7089C29.3894 40.7133 29.3709 40.7126 29.3537 40.7066C29.3365 40.7007 29.3215 40.6899 29.3104 40.6755C29.2993 40.6611 29.2926 40.6438 29.2913 40.6256C29.2899 40.6075 29.2939 40.5894 29.3027 40.5735L30.4307 38.2554C30.4361 38.2438 30.4438 38.2334 30.4534 38.2249C30.4629 38.2164 30.4742 38.21 30.4864 38.206C30.4985 38.202 30.5114 38.2006 30.5241 38.2018C30.5369 38.2031 30.5492 38.2069 30.5604 38.2132C30.5802 38.2132 30.5915 38.2385 30.6027 38.2526V38.2667L31.0286 40.1279L31.2119 40.0884C31.2243 40.0851 31.2372 40.0842 31.25 40.086C31.2627 40.0877 31.275 40.092 31.286 40.0986C31.2971 40.1052 31.3067 40.1139 31.3143 40.1243C31.3219 40.1346 31.3273 40.1464 31.3303 40.1589C31.3353 40.1844 31.3301 40.2107 31.3159 40.2323C31.3017 40.254 31.2795 40.2691 31.2542 40.2746L31.0709 40.3169L31.178 40.7822C31.1809 40.7946 31.1813 40.8075 31.1792 40.82C31.1771 40.8326 31.1725 40.8446 31.1656 40.8554C31.1588 40.8661 31.1499 40.8754 31.1394 40.8827C31.129 40.89 31.1172 40.8951 31.1047 40.8978C31.0797 40.9029 31.0537 40.8981 31.0321 40.8844C31.0106 40.8708 30.9951 40.8493 30.9891 40.8245L30.8763 40.3704ZM30.834 40.1843L30.4674 38.5939L29.5481 40.4804L30.834 40.1843Z" fill="#FAFAFA"/>
<path d="M34.3478 39.8798C34.3366 39.8732 34.3269 39.8644 34.3193 39.8539C34.3116 39.8434 34.3062 39.8315 34.3033 39.8188C34.3004 39.8062 34.3001 39.793 34.3024 39.7803C34.3047 39.7675 34.3096 39.7553 34.3168 39.7445C34.3308 39.7219 34.3531 39.7056 34.379 39.6993C34.4048 39.693 34.4321 39.6971 34.455 39.7106C34.6234 39.8146 34.826 39.848 35.019 39.8037C35.2119 39.7593 35.3795 39.6404 35.4852 39.4729C35.5908 39.3055 35.626 39.103 35.583 38.9098C35.5496 38.7665 35.4745 38.6363 35.3672 38.5357C35.2599 38.435 35.1252 38.3684 34.98 38.3443C34.8349 38.3201 34.6859 38.3396 34.5518 38.4C34.4177 38.4605 34.3045 38.5594 34.2265 38.6842C34.2199 38.6953 34.2111 38.705 34.2006 38.7127C34.1901 38.7203 34.1782 38.7258 34.1655 38.7287C34.1528 38.7316 34.1397 38.7319 34.127 38.7296C34.1142 38.7272 34.102 38.7224 34.0912 38.7152C34.0799 38.7091 34.0703 38.7004 34.063 38.6898C34.0609 38.6805 34.0609 38.6709 34.063 38.6616V38.6419L33.9417 37.5139C33.9394 37.4999 33.9402 37.4855 33.9441 37.4718C33.948 37.4582 33.9549 37.4456 33.9643 37.4349C33.971 37.4249 33.9797 37.4165 33.9899 37.4102C34.0002 37.4039 34.0116 37.3998 34.0235 37.3982L35.2869 37.1162C35.313 37.1111 35.3401 37.1161 35.3626 37.1302C35.3852 37.1444 35.4014 37.1666 35.4081 37.1924C35.4114 37.2052 35.4121 37.2185 35.41 37.2316C35.4079 37.2446 35.4031 37.2571 35.396 37.2683C35.3888 37.2794 35.3794 37.2889 35.3684 37.2962C35.3574 37.3036 35.345 37.3085 35.332 37.3108L34.1476 37.5928L34.2378 38.4219C34.3589 38.3084 34.5077 38.2286 34.6693 38.1907C34.7901 38.1624 34.9152 38.1584 35.0376 38.1789C35.1599 38.1994 35.277 38.244 35.3819 38.3101C35.4869 38.3762 35.5776 38.4625 35.6489 38.564C35.7202 38.6655 35.7707 38.7802 35.7973 38.9013C35.8258 39.0221 35.8301 39.1474 35.8097 39.2699C35.7894 39.3924 35.7449 39.5096 35.6788 39.6148C35.543 39.8241 35.3321 39.9735 35.0895 40.0321C34.962 40.0593 34.8303 40.0597 34.7027 40.0335C34.5751 40.0073 34.4542 39.955 34.3478 39.8798Z" fill="#FAFAFA"/>
<path d="M36.5076 37.4377C36.559 37.2427 36.6617 37.065 36.805 36.9232C36.9483 36.7813 37.1271 36.6805 37.3226 36.6312C37.3469 36.6242 37.373 36.6271 37.3952 36.6392C37.4174 36.6514 37.4339 36.6718 37.441 36.696C37.4466 36.7218 37.4425 36.7486 37.4295 36.7715C37.4165 36.7944 37.3955 36.8117 37.3705 36.8201C37.2075 36.8618 37.0585 36.9462 36.9391 37.0647C36.8196 37.1832 36.7339 37.3314 36.6909 37.4941C36.6366 37.6856 36.6138 37.8847 36.6233 38.0835C36.6841 37.9677 36.7693 37.8664 36.873 37.7866C36.9767 37.7067 37.0964 37.6503 37.2239 37.621C37.4 37.5803 37.5841 37.5924 37.7534 37.6558C37.9226 37.7192 38.0694 37.831 38.1754 37.9774C38.2815 38.1237 38.342 38.2981 38.3495 38.4786C38.357 38.6592 38.3111 38.838 38.2175 38.9926C38.124 39.1472 37.9869 39.2708 37.8235 39.348C37.6601 39.4252 37.4776 39.4525 37.2987 39.4265C37.1199 39.4005 36.9527 39.3224 36.818 39.2019C36.6833 39.0814 36.5871 38.9239 36.5415 38.749C36.5199 38.6912 36.5029 38.6318 36.4907 38.5713C36.4014 38.198 36.4072 37.8082 36.5076 37.4377ZM36.7276 38.6954C36.7307 38.7126 36.7374 38.729 36.7473 38.7434C36.7502 38.7526 36.7502 38.7624 36.7473 38.7716C36.8059 38.9605 36.9357 39.1192 37.1093 39.2141C37.2828 39.3089 37.4865 39.3326 37.6771 39.28C37.8678 39.2273 38.0305 39.1026 38.1308 38.9321C38.2311 38.7616 38.2611 38.5588 38.2145 38.3666C38.1679 38.1744 38.0484 38.0078 37.8811 37.9022C37.7139 37.7966 37.5121 37.7602 37.3185 37.8008C37.1249 37.8413 36.9547 37.9556 36.8439 38.1194C36.7331 38.2832 36.6904 38.4837 36.7248 38.6785L36.7276 38.6954Z" fill="#FAFAFA"/>
<path d="M39.494 38.8476L39.9509 36.2335L38.6396 36.5352C38.6149 36.5412 38.5889 36.5371 38.5672 36.5239C38.5455 36.5107 38.53 36.4894 38.524 36.4647C38.5189 36.4397 38.5237 36.4137 38.5373 36.3922C38.551 36.3706 38.5725 36.3552 38.5973 36.3491L40.0327 36.0192C40.052 36.0135 40.0726 36.0135 40.0919 36.0192C40.118 36.0264 40.1409 36.0423 40.1567 36.0643C40.1626 36.0741 40.1673 36.0845 40.1708 36.0953C40.1765 36.1127 40.1765 36.1315 40.1708 36.1489L39.6943 38.8899C39.6905 38.9078 39.6819 38.9243 39.6695 38.9377C39.6571 38.9511 39.6413 38.9609 39.6238 38.9661C39.61 38.9702 39.5953 38.9702 39.5815 38.9661C39.5542 38.9619 39.5297 38.9471 39.5133 38.9249C39.4969 38.9027 39.49 38.8749 39.494 38.8476Z" fill="#FAFAFA"/>
<path d="M41.584 35.6385C41.7335 35.6046 41.8904 35.6308 42.0207 35.7115C42.1511 35.7922 42.2444 35.921 42.2806 36.07C42.3003 36.1597 42.2988 36.2528 42.2763 36.3419C42.2537 36.431 42.2108 36.5136 42.1509 36.5832C42.356 36.6183 42.5427 36.7235 42.679 36.8807C42.8153 37.038 42.8929 37.2377 42.8984 37.4458C42.904 37.6538 42.8373 37.8574 42.7096 38.0218C42.5819 38.1861 42.4012 38.3012 42.1982 38.3472C41.9953 38.3933 41.7826 38.3675 41.5965 38.2743C41.4104 38.1812 41.2623 38.0263 41.1776 37.8362C41.0928 37.6461 41.0766 37.4325 41.1317 37.2318C41.1868 37.0311 41.3098 36.8557 41.4797 36.7355C41.3973 36.6976 41.3247 36.6413 41.2675 36.5709C41.2102 36.5005 41.17 36.4179 41.1498 36.3294C41.1311 36.2555 41.1276 36.1785 41.1395 36.1031C41.1514 36.0278 41.1785 35.9556 41.2191 35.891C41.2596 35.8265 41.3129 35.7708 41.3757 35.7274C41.4384 35.684 41.5093 35.6537 41.584 35.6385ZM42.165 38.1765C42.3024 38.1462 42.4278 38.0757 42.5251 37.974C42.6225 37.8723 42.6874 37.744 42.7117 37.6054C42.7361 37.4667 42.7187 37.324 42.6617 37.1952C42.6048 37.0665 42.5109 36.9575 42.392 36.8822C42.2731 36.8069 42.1345 36.7686 41.9938 36.7722C41.853 36.7757 41.7165 36.821 41.6016 36.9023C41.4866 36.9835 41.3984 37.0971 41.3481 37.2286C41.2978 37.36 41.2876 37.5035 41.319 37.6407C41.3619 37.8224 41.4749 37.9798 41.6334 38.0786C41.7918 38.1774 41.9829 38.2095 42.165 38.1681V38.1765ZM41.8012 36.5917C41.8997 36.5645 41.984 36.5004 42.0365 36.4127C42.089 36.325 42.1057 36.2204 42.0832 36.1207C42.0574 36.0232 41.9948 35.9395 41.9086 35.8873C41.8224 35.835 41.7192 35.8183 41.6209 35.8406C41.5225 35.8629 41.4367 35.9225 41.3814 36.0068C41.3261 36.0912 41.3058 36.1937 41.3246 36.2928C41.3362 36.3437 41.3578 36.3918 41.3881 36.4344C41.4183 36.477 41.4567 36.5132 41.5009 36.541C41.5452 36.5687 41.5945 36.5875 41.646 36.5962C41.6975 36.6049 41.7503 36.6034 41.8012 36.5917Z" fill="#FAFAFA"/>
<path d="M46.4118 34.5303C46.6318 34.4778 46.8633 34.5088 47.0618 34.6171C47.2602 34.7254 47.4115 34.9035 47.4863 35.1169V35.1338C47.5088 35.2071 47.5285 35.2833 47.5483 35.3651C47.6431 35.7351 47.6431 36.123 47.5483 36.4931C47.4951 36.6871 47.3918 36.8638 47.2487 37.0054C47.1057 37.1469 46.9279 37.2484 46.7333 37.2996C46.7211 37.303 46.7083 37.3039 46.6957 37.3024C46.6831 37.3008 46.671 37.2968 46.66 37.2905C46.6489 37.2842 46.6393 37.2758 46.6315 37.2657C46.6238 37.2557 46.6181 37.2442 46.6149 37.2319C46.6088 37.2065 46.6127 37.1797 46.6258 37.1571C46.6389 37.1346 46.6603 37.1179 46.6854 37.1106C46.848 37.0678 46.9963 36.9826 47.1152 36.8637C47.2341 36.7448 47.3193 36.5964 47.3622 36.4338C47.4187 36.2437 47.4425 36.0454 47.4327 35.8473C47.3594 35.9821 47.2536 36.0964 47.1249 36.1798C46.9962 36.2633 46.8486 36.3132 46.6957 36.325C46.5427 36.3368 46.3893 36.3101 46.2493 36.2475C46.1093 36.1848 45.9872 36.0881 45.8941 35.9661C45.801 35.8442 45.7399 35.7009 45.7164 35.5493C45.6929 35.3977 45.7077 35.2427 45.7595 35.0983C45.8112 34.9539 45.8983 34.8247 46.0127 34.7225C46.1271 34.6204 46.2653 34.5485 46.4147 34.5134L46.4118 34.5303ZM47.3283 35.2579C47.2976 35.1177 47.2261 34.9898 47.1228 34.8902C47.0195 34.7906 46.8891 34.7237 46.7479 34.698C46.6067 34.6723 46.4611 34.689 46.3294 34.7458C46.1976 34.8027 46.0856 34.8973 46.0075 35.0176C45.9293 35.138 45.8885 35.2787 45.8902 35.4222C45.8918 35.5657 45.9359 35.7055 46.0168 35.824C46.0976 35.9425 46.2118 36.0345 46.3448 36.0883C46.4778 36.1421 46.6238 36.1554 46.7643 36.1265C46.8589 36.1074 46.9487 36.0696 47.0284 36.0154C47.1082 35.9612 47.1764 35.8916 47.2289 35.8107C47.2814 35.7298 47.3173 35.6393 47.3343 35.5443C47.3514 35.4494 47.3494 35.352 47.3283 35.2579Z" fill="#FAFAFA"/>
<path d="M48.3123 35.523C48.2286 35.1885 48.2433 34.837 48.3546 34.5106C48.3921 34.3724 48.4664 34.2469 48.5697 34.1477C48.673 34.0484 48.8014 33.9792 48.9411 33.9473C49.0807 33.9154 49.2264 33.9221 49.3625 33.9667C49.4987 34.0113 49.6201 34.0921 49.7138 34.2004C49.9552 34.4451 50.1223 34.7531 50.1961 35.0887C50.2767 35.4229 50.2601 35.7732 50.1481 36.0983C50.112 36.2372 50.0385 36.3636 49.9355 36.4636C49.8325 36.5636 49.7041 36.6334 49.5641 36.6654C49.4242 36.6974 49.2782 36.6903 49.142 36.645C49.0058 36.5998 48.8846 36.5179 48.7917 36.4085C48.5481 36.167 48.3813 35.859 48.3123 35.523ZM48.5041 35.4779C48.5656 35.7765 48.7125 36.0508 48.9271 36.2675C49.0014 36.3485 49.0947 36.4097 49.1986 36.4456C49.3024 36.4815 49.4136 36.4911 49.5221 36.4734C49.6264 36.4404 49.7212 36.3826 49.7983 36.305C49.8754 36.2274 49.9325 36.1323 49.9648 36.0278C50.0592 35.7372 50.0731 35.4264 50.0051 35.1285C49.9371 34.8306 49.7897 34.5567 49.5785 34.3358C49.5083 34.2496 49.4153 34.1848 49.3102 34.1488C49.205 34.1127 49.0919 34.1068 48.9836 34.1318C48.8753 34.1567 48.7761 34.2115 48.6973 34.2899C48.6186 34.3684 48.5633 34.4673 48.5379 34.5755C48.44 34.8668 48.4282 35.1801 48.5041 35.4779Z" fill="#FAFAFA"/>
<path d="M51.2029 33.7181L50.8702 34.0311C50.8585 34.0431 50.8439 34.0518 50.8279 34.0565C50.8115 34.0606 50.7943 34.0604 50.778 34.0559C50.7617 34.0515 50.7469 34.0429 50.7348 34.0311C50.7251 34.0224 50.7174 34.0117 50.7121 33.9998C50.7068 33.9879 50.7041 33.975 50.7041 33.962C50.7041 33.949 50.7068 33.9361 50.7121 33.9242C50.7174 33.9123 50.7251 33.9016 50.7348 33.8929L51.186 33.4558C51.2043 33.4386 51.2285 33.429 51.2537 33.429C51.2789 33.429 51.3031 33.4386 51.3214 33.4558C51.3375 33.4749 51.3474 33.4986 51.3496 33.5235L51.9136 36.0164C51.9195 36.0411 51.9154 36.0671 51.9022 36.0888C51.889 36.1104 51.8677 36.126 51.8431 36.132C51.8185 36.1372 51.7928 36.1328 51.7713 36.1197C51.7498 36.1066 51.7341 36.0858 51.7275 36.0615L51.2029 33.7181Z" fill="#FAFAFA"/>
<path d="M52.5761 35.7965L53.5828 34.3612C53.639 34.2798 53.6779 34.1878 53.6973 34.0908C53.7167 33.9938 53.7161 33.8939 53.6956 33.7972C53.652 33.6156 53.5391 33.4582 53.381 33.3586C53.223 33.2591 53.0323 33.2252 52.8496 33.2642C52.6757 33.3011 52.5218 33.4017 52.4182 33.5462L52.3138 33.6956C52.3073 33.7066 52.2985 33.716 52.2881 33.7234C52.2777 33.7307 52.2658 33.7357 52.2533 33.7381C52.2407 33.7405 52.2279 33.7402 52.2154 33.7373C52.203 33.7343 52.1914 33.7288 52.1813 33.721C52.1701 33.7147 52.1604 33.7062 52.1528 33.6958C52.1452 33.6855 52.1399 33.6737 52.1372 33.6611C52.1346 33.6486 52.1346 33.6356 52.1373 33.6231C52.1401 33.6106 52.1454 33.5988 52.1531 33.5885L52.2574 33.4362C52.3898 33.2503 52.5852 33.119 52.8073 33.0668C53.0417 33.0152 53.2869 33.0578 53.49 33.1855C53.6932 33.3132 53.8379 33.5157 53.893 33.7492C53.9219 33.8734 53.9245 34.0023 53.9007 34.1276C53.8769 34.2529 53.8272 34.3718 53.7549 34.4768L52.8948 35.7063L54.1779 35.4243C54.1905 35.4214 54.2035 35.4211 54.2162 35.4234C54.229 35.4257 54.2411 35.4306 54.2519 35.4377C54.2627 35.4448 54.272 35.454 54.2791 35.4648C54.2862 35.4756 54.2911 35.4877 54.2935 35.5004C54.2979 35.5246 54.2931 35.5496 54.2801 35.5705C54.267 35.5914 54.2467 35.6066 54.223 35.6132L52.7086 35.9601H52.6917C52.6673 35.97 52.64 35.97 52.6156 35.9601C52.6012 35.9529 52.5886 35.9427 52.5786 35.9302C52.5687 35.9177 52.5615 35.9031 52.5578 35.8875C52.554 35.8719 52.5537 35.8557 52.5569 35.84C52.56 35.8243 52.5666 35.8095 52.5761 35.7965Z" fill="#FAFAFA"/>
<path d="M58.2896 31.9783L57.7538 32.8609C57.9384 32.8575 58.1203 32.9064 58.2783 33.0019C58.4891 33.1376 58.6388 33.35 58.6957 33.5941C58.7242 33.7153 58.7279 33.8409 58.7066 33.9636C58.6853 34.0862 58.6393 34.2032 58.5716 34.3076C58.4388 34.521 58.2269 34.6731 57.9822 34.7306C57.8619 34.7582 57.7373 34.7614 57.6158 34.7401C57.4942 34.7188 57.3781 34.6734 57.2744 34.6065C57.262 34.6004 57.2511 34.5918 57.2422 34.5811C57.2334 34.5705 57.2269 34.5582 57.2231 34.5449C57.2194 34.5316 57.2185 34.5177 57.2204 34.504C57.2224 34.4904 57.2272 34.4773 57.2345 34.4656C57.2418 34.4539 57.2515 34.4439 57.263 34.4362C57.2744 34.4285 57.2874 34.4232 57.301 34.4208C57.3145 34.4184 57.3285 34.4189 57.3419 34.4222C57.3553 34.4256 57.3678 34.4317 57.3787 34.4401C57.4619 34.4923 57.5546 34.5272 57.6515 34.5427C57.7484 34.5582 57.8475 34.554 57.9427 34.5304C58.0385 34.5094 58.1292 34.4696 58.2096 34.4133C58.2899 34.3571 58.3583 34.2854 58.4107 34.2025C58.4632 34.1197 58.4987 34.0272 58.5151 33.9305C58.5316 33.8338 58.5288 33.7348 58.5067 33.6393C58.4854 33.5433 58.4453 33.4526 58.3888 33.3722C58.3322 33.2919 58.2603 33.2235 58.1772 33.1711C58.0941 33.1187 58.0015 33.0832 57.9046 33.0667C57.8077 33.0503 57.7085 33.0532 57.6128 33.0753C57.5979 33.078 57.5826 33.0775 57.5679 33.0736C57.5533 33.0697 57.5397 33.0625 57.5282 33.0527C57.5169 33.0458 57.5072 33.0367 57.4995 33.026C57.4918 33.0152 57.4864 33.003 57.4835 32.9902C57.4806 32.9773 57.4803 32.9639 57.4826 32.9509C57.485 32.938 57.4899 32.9256 57.4972 32.9145L58.0132 32.0685L56.9726 32.3054C56.96 32.3087 56.9469 32.3095 56.934 32.3075C56.9211 32.3056 56.9087 32.3011 56.8976 32.2942C56.8866 32.2874 56.877 32.2783 56.8695 32.2676C56.8621 32.2569 56.8568 32.2448 56.8542 32.2321C56.8482 32.2063 56.8525 32.1792 56.8662 32.1565C56.8799 32.1339 56.9019 32.1175 56.9275 32.1108L58.1965 31.8288C58.2223 31.8228 58.2494 31.8271 58.2721 31.8408C58.2947 31.8545 58.3111 31.8765 58.3178 31.9021C58.3221 31.9178 58.3221 31.9344 58.3178 31.9501C58.3112 31.9619 58.3014 31.9717 58.2896 31.9783Z" fill="#FAFAFA"/>
<path d="M61.0275 33.4419L59.5526 33.7718C59.5325 33.7787 59.5107 33.7787 59.4906 33.7718C59.4789 33.7664 59.4685 33.7587 59.46 33.7491C59.4515 33.7396 59.4451 33.7283 59.4411 33.7162C59.4371 33.704 59.4357 33.6911 59.437 33.6784C59.4382 33.6656 59.442 33.6533 59.4483 33.6421L60.5763 31.324C60.5819 31.3126 60.5898 31.3025 60.5995 31.2943C60.6092 31.2861 60.6204 31.2799 60.6326 31.2762C60.6447 31.2726 60.6575 31.2714 60.6701 31.2728C60.6828 31.2742 60.695 31.2782 60.706 31.2846C60.7233 31.2938 60.7379 31.3074 60.7483 31.324C60.7483 31.324 60.7483 31.324 60.7483 31.3381L61.1769 33.1993L61.3602 33.1599C61.3726 33.1565 61.3856 33.1556 61.3983 33.1574C61.4111 33.1591 61.4233 33.1634 61.4344 33.17C61.4454 33.1766 61.4551 33.1853 61.4627 33.1957C61.4703 33.206 61.4757 33.2178 61.4787 33.2304C61.4837 33.2558 61.4785 33.2821 61.4643 33.3037C61.45 33.3254 61.4278 33.3405 61.4025 33.346L61.2192 33.3855L61.3264 33.8536C61.332 33.8786 61.3274 33.9049 61.3137 33.9266C61.2999 33.9483 61.2781 33.9636 61.2531 33.9692C61.228 33.9748 61.2017 33.9702 61.1801 33.9565C61.1584 33.9427 61.143 33.9209 61.1374 33.8959L61.0275 33.4419ZM60.9852 33.2557L60.6186 31.6653L59.6992 33.5518L60.9852 33.2557Z" fill="#FAFAFA"/>
<path d="M62.1726 33.4898C62.1614 33.4832 62.1517 33.4744 62.1441 33.4639C62.1364 33.4534 62.131 33.4415 62.1281 33.4288C62.1252 33.4162 62.1249 33.403 62.1272 33.3903C62.1295 33.3775 62.1344 33.3653 62.1416 33.3545C62.1485 33.3432 62.1576 33.3335 62.1683 33.3258C62.179 33.3181 62.1912 33.3126 62.2041 33.3098C62.217 33.3069 62.2303 33.3066 62.2433 33.3089C62.2563 33.3113 62.2687 33.3162 62.2797 33.3235C62.363 33.3753 62.4558 33.41 62.5526 33.4255C62.6495 33.441 62.7485 33.437 62.8437 33.4137C62.9391 33.3927 63.0292 33.3526 63.1087 33.2959C63.1881 33.2392 63.2553 33.1671 63.3062 33.0838C63.3587 33.0008 63.3943 32.9082 63.4107 32.8114C63.4272 32.7146 63.4243 32.6154 63.4021 32.5198C63.3691 32.3763 63.2943 32.2458 63.1872 32.1448C63.08 32.0439 62.9454 31.9769 62.8002 31.9525C62.655 31.928 62.5058 31.9472 62.3715 32.0075C62.2372 32.0678 62.1238 32.1666 62.0457 32.2913C62.0391 32.3025 62.0302 32.3122 62.0197 32.3199C62.0092 32.3275 61.9973 32.333 61.9846 32.3359C61.972 32.3388 61.9589 32.3391 61.9461 32.3367C61.9333 32.3344 61.9211 32.3295 61.9103 32.3224C61.8977 32.3172 61.8868 32.3084 61.8793 32.297C61.8772 32.2867 61.8772 32.2762 61.8793 32.266C61.8793 32.266 61.8793 32.266 61.8793 32.2462L61.758 31.1182C61.7553 31.1042 61.7559 31.0898 61.7598 31.076C61.7637 31.0623 61.7709 31.0497 61.7806 31.0393C61.7945 31.0208 61.8145 31.0078 61.837 31.0026L63.1032 30.7206C63.129 30.7146 63.1561 30.7191 63.1786 30.7331C63.2011 30.7472 63.217 30.7695 63.223 30.7953C63.229 30.8211 63.2245 30.8483 63.2105 30.8707C63.1965 30.8932 63.1741 30.9092 63.1483 30.9152L61.9639 31.1972L62.0513 32.0263C62.1733 31.913 62.3232 31.8341 62.4856 31.7978C62.6059 31.7684 62.7309 31.7637 62.8531 31.7841C62.9752 31.8044 63.092 31.8494 63.1962 31.9163C63.3019 31.9814 63.3933 32.0671 63.465 32.1684C63.5367 32.2697 63.5873 32.3844 63.6136 32.5057C63.6423 32.6265 63.6466 32.7518 63.6263 32.8743C63.606 32.9968 63.5614 33.1141 63.4952 33.2191C63.3602 33.4293 63.1489 33.5789 62.9058 33.6365C62.7801 33.6641 62.65 33.6653 62.5238 33.64C62.3976 33.6148 62.278 33.5637 62.1726 33.4898Z" fill="#FAFAFA"/>
<path d="M64.3465 31.0363C64.3974 30.8408 64.4999 30.6625 64.6433 30.5201C64.7866 30.3778 64.9656 30.2765 65.1615 30.227C65.1858 30.2209 65.2115 30.2246 65.2331 30.2373C65.2547 30.2499 65.2705 30.2705 65.2771 30.2946C65.2833 30.3197 65.2798 30.3461 65.2672 30.3687C65.2547 30.3912 65.234 30.4081 65.2094 30.4159C65.0462 30.458 64.8971 30.543 64.7776 30.662C64.6582 30.7809 64.5726 30.9296 64.5298 31.0927C64.4755 31.2832 64.4526 31.4814 64.4621 31.6793C64.5232 31.5639 64.6085 31.463 64.7121 31.3837C64.8158 31.3043 64.9354 31.2484 65.0628 31.2196C65.2389 31.1794 65.4229 31.1921 65.5919 31.2559C65.7609 31.3197 65.9073 31.4318 66.0129 31.5784C66.1186 31.7249 66.1787 31.8993 66.1858 32.0798C66.1929 32.2603 66.1466 32.4388 66.0529 32.5932C65.9591 32.7476 65.8219 32.8709 65.6584 32.9478C65.495 33.0247 65.3125 33.0517 65.1338 33.0255C64.9551 32.9993 64.7881 32.921 64.6535 32.8005C64.519 32.6799 64.423 32.5224 64.3775 32.3476C64.3582 32.2893 64.3422 32.23 64.3296 32.1699C64.2402 31.7966 64.246 31.4068 64.3465 31.0363ZM64.5665 32.294C64.5704 32.3106 64.5761 32.3266 64.5834 32.342C64.586 32.3512 64.586 32.3609 64.5834 32.3702C64.6462 32.5529 64.7776 32.7041 64.9499 32.7917C65.1222 32.8794 65.3218 32.8965 65.5065 32.8397C65.6912 32.7828 65.8466 32.6563 65.9397 32.487C66.0329 32.3177 66.0565 32.1187 66.0057 31.9323C65.9548 31.7458 65.8334 31.5864 65.6672 31.4878C65.501 31.3892 65.3029 31.3592 65.1149 31.4039C64.9269 31.4487 64.7637 31.5649 64.6598 31.7278C64.5558 31.8908 64.5193 32.0877 64.558 32.2771L64.5665 32.294Z" fill="#FAFAFA"/>
<path d="M49.0404 41.694L25.3521 47.1367L25.6198 48.302L49.3081 42.8593L49.0404 41.694Z" fill="#FAFAFA"/>
<path d="M42.715 45.8669L25.9443 49.7202L26.2121 50.8855L42.9827 47.0322L42.715 45.8669Z" fill="#FAFAFA"/>
<path d="M53.163 20.2459L41.3477 22.9607L41.6154 24.126L53.4307 21.4113L53.163 20.2459Z" fill="#FAFAFA"/>
<path d="M62.9369 23.2588L62.6549 23.0868L62.4969 22.9909C62.7154 22.646 62.8637 22.2613 62.9332 21.859C63.0027 21.4566 62.992 21.0445 62.9019 20.6463C62.8118 20.2481 62.6439 19.8715 62.408 19.5383C62.172 19.2051 61.8726 18.9218 61.5269 18.7045L61.6227 18.5579C61.682 18.4676 61.7384 18.3774 61.7948 18.2759H61.8117C61.916 18.3492 62.0232 18.4197 62.1247 18.4987C62.3337 18.6645 62.5229 18.8537 62.6887 19.0627C62.8865 19.305 63.0497 19.5736 63.1737 19.8607C63.233 19.9961 63.2781 20.1427 63.3288 20.2781C63.3458 20.3232 63.4191 20.6419 63.4191 20.6531C63.436 20.7518 63.4529 20.8505 63.4642 20.9521C63.5007 21.2329 63.5007 21.5172 63.4642 21.7981C63.4088 22.2109 63.2839 22.6113 63.0948 22.9825C63.044 23.0755 62.9876 23.1686 62.9369 23.2645V23.2588Z" fill="white"/>
<path d="M61.0024 19.5676C61.0899 19.4237 61.1801 19.2856 61.2844 19.1389C61.7618 19.4343 62.1277 19.8796 62.325 20.4051C62.4719 20.7805 62.5283 21.1852 62.4896 21.5865C62.4509 21.9878 62.3182 22.3743 62.1022 22.7147L61.6708 22.4327C61.9652 21.9644 62.0617 21.3984 61.939 20.8591C61.8163 20.3197 61.4845 19.8511 61.0165 19.5563L61.0024 19.5676Z" fill="white"/>
<path d="M61.2222 22.1702L60.7936 21.8882C60.8688 21.7697 60.9198 21.6375 60.9436 21.4992C60.9675 21.3608 60.9637 21.2191 60.9325 21.0823C60.9013 20.9454 60.8433 20.8161 60.7619 20.7018C60.6804 20.5875 60.5772 20.4904 60.458 20.4162L60.74 19.9875C60.9169 20.0975 61.07 20.2417 61.1903 20.4117C61.3107 20.5817 61.3958 20.774 61.4407 20.9773C61.4857 21.1807 61.4895 21.391 61.4519 21.5959C61.4144 21.8007 61.3363 21.996 61.2222 22.1702Z" fill="white"/>
<path d="M14.6362 125.309L37.498 125.241L60.3597 125.216L106.083 125.171L151.807 125.216L174.668 125.241L197.53 125.309L174.668 125.38L151.807 125.405L106.083 125.45L60.3597 125.405L37.498 125.38L14.6362 125.309Z" fill="#263238"/>
<path d="M26.9171 78.1896C26.9171 78.1896 20.2845 77.259 21.8411 69.2502C21.8327 69.2502 29.2465 70.914 26.9171 78.1896Z" fill="#34A1D3"/>
<path opacity="0.1" d="M26.9171 78.1896C26.9171 78.1896 20.2845 77.259 21.8411 69.2502C21.8327 69.2502 29.2465 70.914 26.9171 78.1896Z" fill="black"/>
<path d="M26.5814 76.5173C26.4512 76.1123 26.3006 75.7142 26.1302 75.3244C26.1302 75.2709 26.1302 75.2201 26.1133 75.1722C26.1133 75.0622 26.0936 74.9522 26.0851 74.8422C26.0682 74.6025 26.0513 74.3628 26.0372 74.1231C26.009 73.6465 25.9779 73.1671 25.9723 72.6877C25.9723 72.6624 25.9328 72.6624 25.93 72.6877C25.93 73.1671 25.93 73.6465 25.93 74.1259C25.93 74.3656 25.9526 74.6053 25.9695 74.845C25.9695 74.8958 25.9695 74.9494 25.9695 75.003C25.596 74.2054 25.1505 73.4437 24.6384 72.7272C24.41 72.4086 24.1703 72.104 23.9137 71.8079C23.6571 71.5118 23.3694 71.2185 23.1015 70.9196C23.0846 70.8999 23.0564 70.9196 23.0733 70.9478C23.5493 71.4728 23.9778 72.039 24.3536 72.6398C24.5538 72.9444 24.7456 73.2574 24.9176 73.576L24.8556 73.5507L24.6187 73.4548L24.1055 73.2517C23.7501 73.1192 23.392 72.9895 23.0395 72.8541C23.0169 72.8541 23.0028 72.8823 23.0226 72.8908C23.3779 73.0318 23.7248 73.1728 24.0744 73.3307L24.5877 73.5507C24.6751 73.5901 24.7597 73.624 24.8471 73.6578C24.9025 73.6859 24.9613 73.7068 25.022 73.7199C25.1573 73.9624 25.304 74.2021 25.4111 74.4474C25.7194 75.0681 25.9906 75.7065 26.2233 76.3594C26.2233 76.4045 26.2543 76.4496 26.2712 76.4976C26.0964 76.3971 25.9145 76.3095 25.727 76.2353C25.4985 76.1281 25.2673 76.0266 25.0389 75.9223C24.5736 75.708 24.1111 75.4908 23.6655 75.2398C23.643 75.2257 23.6232 75.2624 23.6458 75.2737C24.1026 75.5247 24.5482 75.7897 25.005 76.0379C25.2335 76.162 25.4647 76.2804 25.6959 76.3932C25.8899 76.5078 26.1 76.5924 26.3192 76.6442C26.5419 77.2507 26.6887 77.8825 26.7563 78.5251C26.8296 79.4304 26.8211 80.344 26.8409 81.2521H26.8662C26.9311 80.4286 26.9706 79.5967 26.9734 78.7705C26.964 78.0033 26.8316 77.2426 26.5814 76.5173Z" fill="#263238"/>
<path d="M25.5606 71.808C25.497 72.2751 25.4752 72.747 25.4958 73.218C25.4958 73.218 25.5127 73.218 25.5155 73.218C25.5409 72.7499 25.5465 72.2846 25.6001 71.808C25.6029 71.7911 25.5634 71.7826 25.5606 71.808Z" fill="#263238"/>
<path d="M23.6628 72.2083C23.3684 72.0948 23.0851 71.9541 22.8168 71.7881C22.7943 71.774 22.7745 71.8106 22.7971 71.8247C23.0577 72.0021 23.3427 72.1408 23.6431 72.2365C23.6685 72.2393 23.6797 72.2139 23.6628 72.2083Z" fill="#263238"/>
<path d="M27.1232 90.9022C27.1232 90.169 27.1034 89.4358 27.095 88.7026C27.095 86.269 27.0611 83.8353 27.0188 81.3988C26.9812 79.4681 26.9361 77.5364 26.8835 75.6037C26.8831 75.5984 26.8813 75.5933 26.8783 75.5888C26.8754 75.5844 26.8713 75.5808 26.8665 75.5784V73.9935C26.8665 73.9935 26.8496 73.9738 26.8355 73.9766C26.8214 73.9794 26.8045 73.9766 26.8045 73.9963C26.8045 74.5237 26.8045 75.0538 26.8045 75.5812C26.8029 75.5847 26.8021 75.5886 26.8021 75.5924C26.8021 75.5963 26.8029 75.6002 26.8045 75.6037C26.7058 79.0441 26.6184 82.4845 26.5986 85.9249C26.5986 86.6243 26.5986 87.3349 26.5986 88.023C26.5742 90.2677 26.5648 92.5106 26.5704 94.7515C26.5704 95.1097 26.5704 95.4678 26.5704 95.8231C26.5704 97.8761 26.5902 99.9291 26.5902 101.982C26.5902 102.092 26.7143 102.146 26.844 102.151C26.9737 102.157 27.1514 102.098 27.1514 101.971C27.1514 99.7147 27.1683 97.4587 27.1683 95.183C27.1232 93.7561 27.1401 92.3291 27.1232 90.9022Z" fill="#263238"/>
<path d="M24.3596 88.6742C24.3596 88.6742 21.1673 86.3111 18.1387 87.9157C15.11 89.5202 14.6362 95.6707 14.6362 95.6707C14.6362 95.6707 19.0834 96.3052 21.8836 93.6403C24.5852 91.0656 24.3596 88.6742 24.3596 88.6742Z" fill="#34A1D3"/>
<path d="M25.2281 88.821C24.6418 88.5895 24.0071 88.5072 23.381 88.5813C23.2516 88.5583 23.1205 88.5451 22.9891 88.5419L22.5407 88.508L21.6101 88.4432C20.9784 88.3952 20.3467 88.3586 19.7207 88.2937C19.6981 88.2937 19.6925 88.3304 19.7207 88.3332C20.3439 88.4121 20.9615 88.5024 21.5847 88.5644C21.9062 88.5983 22.2277 88.6293 22.5491 88.6518L22.7832 88.6772C22.6873 88.697 22.5914 88.7195 22.5012 88.7449C21.998 88.8894 21.5105 89.084 21.0461 89.3258C20.7951 89.3709 20.5469 89.4414 20.2988 89.4978C19.904 89.5909 19.512 89.6924 19.12 89.7968C18.3445 89.9998 17.5775 90.2282 16.8076 90.451C16.7851 90.451 16.8076 90.4961 16.8076 90.4905C17.5747 90.3015 18.3473 90.1295 19.1172 89.9462L20.2452 89.6642C20.3411 89.6388 20.4398 89.6163 20.5272 89.5965C19.6731 90.1278 18.9111 90.7945 18.2712 91.5705C17.6466 92.3315 17.1172 93.1658 16.6948 94.055C16.6948 94.0775 16.7146 94.1001 16.7287 94.0775C17.2565 93.1665 17.9002 92.3276 18.6434 91.5818L18.6011 91.7087L18.4235 92.2727C18.3079 92.6506 18.1866 93.0257 18.0738 93.4007C18.0738 93.406 18.0759 93.411 18.0796 93.4147C18.0833 93.4184 18.0883 93.4205 18.0935 93.4205C18.0988 93.4205 18.1038 93.4184 18.1075 93.4147C18.1112 93.411 18.1133 93.406 18.1133 93.4007C18.2486 93.0369 18.3755 92.6703 18.5053 92.3037C18.5673 92.1233 18.6322 91.9456 18.6942 91.7651C18.728 91.6721 18.7591 91.579 18.7901 91.4831C18.7987 91.4534 18.8091 91.4242 18.8211 91.3957C19.1758 91.0501 19.5526 90.7279 19.9491 90.4313C20.4746 90.0449 21.0422 89.7195 21.6411 89.4612L21.6073 89.6247L21.5142 90.0618C21.4522 90.3636 21.3929 90.6653 21.3337 90.9699C21.2153 91.5875 21.1391 92.2107 21.0235 92.8283C21.0235 92.8536 21.0574 92.8649 21.063 92.8283C21.2068 92.2079 21.3901 91.5959 21.5283 90.9727C21.5988 90.6625 21.6693 90.3495 21.7342 90.0393C21.7624 89.8926 21.7934 89.7573 21.8216 89.6022C21.8407 89.5212 21.8558 89.4393 21.8667 89.3568C21.9259 89.3343 21.9823 89.3061 22.0387 89.2863C22.8847 88.9761 23.8012 88.7505 24.6952 88.9226C25.117 89.001 25.5129 89.1824 25.8479 89.4504C26.1829 89.7185 26.4466 90.0651 26.6156 90.4595C26.6438 90.53 26.7538 90.4877 26.7368 90.4143C26.6253 90.0504 26.4311 89.7172 26.1693 89.4408C25.9076 89.1644 25.5855 88.9522 25.2281 88.821Z" fill="#263238"/>
<path d="M20.3549 91.4522L20.0729 92.6648C19.9734 93.0525 19.899 93.4462 19.8501 93.8435C19.8501 93.8605 19.8727 93.8605 19.8783 93.8435C19.9976 93.4542 20.0918 93.0577 20.1603 92.6563C20.2393 92.2559 20.3154 91.8583 20.3944 91.4578C20.3951 91.4526 20.3937 91.4473 20.3906 91.443C20.3874 91.4388 20.3827 91.436 20.3774 91.4353C20.3722 91.4345 20.3669 91.4359 20.3627 91.439C20.3584 91.4422 20.3556 91.4469 20.3549 91.4522Z" fill="#263238"/>
<path d="M17.2531 92.4784C16.847 92.6843 16.4522 92.9184 16.0264 93.0876C16.001 93.0876 16.0264 93.1383 16.0433 93.1242C16.4601 92.936 16.8667 92.7261 17.2615 92.4954C17.2615 92.4954 17.2672 92.4728 17.2531 92.4784Z" fill="#263238"/>
<path d="M25.0756 84.3342C25.0756 84.3342 21.1755 84.5824 19.3623 82.0106C17.549 79.4387 17.9523 75.7671 17.9523 75.7671C17.9523 75.7671 22.0497 76.2634 23.6769 78.1105C25.304 79.9576 25.0756 84.3342 25.0756 84.3342Z" fill="#34A1D3"/>
<path d="M26.9061 88.1809C26.7707 87.7635 26.6043 87.3518 26.4464 86.9429C26.2885 86.534 26.1334 86.159 25.9614 85.7754C25.6137 84.9885 25.223 84.2212 24.7911 83.4771C24.5091 83.0034 24.2271 82.5437 23.9197 82.0897C23.9197 82.0192 23.8999 81.9515 23.8887 81.881C23.8689 81.7598 23.852 81.6413 23.8351 81.5201C23.7956 81.2719 23.7533 81.0266 23.711 80.7812C23.6208 80.2426 23.5108 79.7068 23.429 79.1682C23.429 79.1428 23.3867 79.1428 23.3895 79.1682C23.4685 79.7012 23.5221 80.237 23.5954 80.7699C23.632 81.0294 23.6659 81.2916 23.7054 81.5539C23.7223 81.647 23.7364 81.7428 23.7505 81.8359C23.156 80.9658 22.512 80.1306 21.8216 79.3346C21.7285 79.2274 21.6327 79.1202 21.5396 79.0159C21.5298 78.9849 21.5176 78.9547 21.5029 78.9257L21.4183 78.7029L21.2491 78.2376C21.142 77.933 21.0433 77.6228 20.9671 77.3098C20.9683 77.3068 20.9688 77.3036 20.9684 77.3004C20.9681 77.2971 20.967 77.2941 20.9652 77.2914C20.9633 77.2887 20.9609 77.2865 20.9581 77.285C20.9552 77.2835 20.952 77.2827 20.9488 77.2827C20.9456 77.2827 20.9424 77.2835 20.9396 77.285C20.9367 77.2865 20.9343 77.2887 20.9325 77.2914C20.9307 77.2941 20.9295 77.2971 20.9292 77.3004C20.9288 77.3036 20.9293 77.3068 20.9305 77.3098C21.0094 77.6313 21.0912 77.9499 21.1843 78.2658C21.2294 78.4181 21.2802 78.5703 21.3337 78.7198L21.3619 78.7959C20.8628 78.2517 20.3439 77.7272 19.8194 77.2111C19.7997 77.1914 19.7715 77.2111 19.7912 77.2393C20.7984 78.2942 21.7224 79.4256 22.5548 80.6233C22.4625 80.5926 22.3683 80.5681 22.2728 80.55C21.9739 80.4908 21.6693 80.4485 21.3676 80.409C20.7303 80.33 20.0986 80.2482 19.4641 80.1495C19.4588 80.1495 19.4538 80.1516 19.4501 80.1553C19.4464 80.159 19.4443 80.164 19.4443 80.1693C19.4443 80.1745 19.4464 80.1795 19.4501 80.1832C19.4538 80.1869 19.4588 80.189 19.4641 80.189C20.0676 80.3075 20.6682 80.4428 21.2661 80.581C21.5481 80.6459 21.8301 80.7023 22.1121 80.7587C22.3438 80.8076 22.5718 80.8726 22.7945 80.9532C22.8594 81.0435 22.9242 81.1309 22.9863 81.2352C23.2683 81.6498 23.5503 82.0812 23.8153 82.5042L23.4177 82.4253C23.116 82.3689 22.8142 82.3125 22.5125 82.2645C21.9175 82.1658 21.3225 82.0615 20.7331 81.929C20.7278 81.929 20.7228 81.931 20.7191 81.9347C20.7154 81.9384 20.7133 81.9435 20.7133 81.9487C20.7133 81.9539 20.7154 81.959 20.7191 81.9627C20.7228 81.9664 20.7278 81.9684 20.7331 81.9684C21.3281 82.1066 21.9203 82.2702 22.5125 82.4281C22.7945 82.5042 23.0765 82.5747 23.3585 82.6368L23.7928 82.7327C23.8502 82.7469 23.9087 82.7563 23.9676 82.7609C24.5316 83.6858 25.0731 84.6305 25.5666 85.5809C25.7865 86.0067 25.9952 86.4269 26.1982 86.8668C26.4013 87.3067 26.5846 87.7607 26.7622 88.2091C26.7961 88.3163 26.9371 88.2796 26.9061 88.1809Z" fill="#263238"/>
<path d="M22.9157 79.2189C22.8395 78.8466 22.7606 78.4772 22.6788 78.0909C22.6788 78.0655 22.6365 78.0909 22.6421 78.0909C22.7154 78.4575 22.7859 78.8241 22.8508 79.1907C22.9066 79.558 22.9809 79.9222 23.0736 80.282C23.0452 79.9244 22.9925 79.5692 22.9157 79.2189Z" fill="#263238"/>
<path d="M20.637 79.1116C20.4565 79.0214 20.2647 78.9481 20.073 78.8748L19.791 78.7591L19.6415 78.6971C19.584 78.6812 19.529 78.6575 19.4779 78.6266C19.4469 78.604 19.43 78.6548 19.4582 78.6604C19.5161 78.6764 19.572 78.6991 19.6246 78.7281L19.7712 78.7958L20.0532 78.9227C20.2372 79.0083 20.4255 79.0846 20.6172 79.1511C20.637 79.1568 20.6624 79.1201 20.637 79.1116Z" fill="#263238"/>
<path d="M29.0688 81.2663C29.0688 81.2663 31.4292 76.8586 35.019 76.1762C38.6089 75.4937 40.8085 79.1879 40.8085 79.1879C40.8085 79.1879 38.1887 82.5324 34.8865 83.1162C31.5843 83.6999 29.0688 81.2663 29.0688 81.2663Z" fill="#34A1D3"/>
<path d="M37.4246 78.1529C36.488 78.0254 35.5378 78.0368 34.6046 78.1868L34.7653 78.0994L35.5605 77.6905C36.1103 77.3876 36.675 77.1128 37.2525 76.867C37.2779 76.867 37.2525 76.8163 37.2356 76.8304C36.6716 77.0898 36.0907 77.3098 35.5295 77.5692C35.2475 77.6989 34.9655 77.8343 34.6835 77.9781C34.5059 78.074 34.3113 78.1614 34.1364 78.2742C33.3476 78.4322 32.5814 78.6869 31.8551 79.0328L32.3034 78.5421C32.639 78.1783 32.9661 77.792 33.3356 77.4592C33.3553 77.4423 33.3356 77.4141 33.3045 77.431C32.9295 77.7722 32.5319 78.0881 32.1765 78.4434C31.9989 78.6154 31.8297 78.7931 31.6661 78.9764C31.5843 79.0694 31.5026 79.1625 31.4236 79.2584C30.1899 79.9177 29.1181 80.8429 28.2856 81.967C27.4532 83.0911 26.8808 84.3861 26.6099 85.7585C26.6099 85.7839 26.6409 85.798 26.6465 85.7726C27.152 84.092 28.0578 82.5592 29.286 81.3057C30.6064 79.9573 32.2699 78.9949 34.097 78.5224C35.1813 78.2462 36.3026 78.1443 37.4189 78.2206C37.4669 78.2263 37.4697 78.1586 37.4246 78.1529Z" fill="#263238"/>
<path opacity="0.1" d="M40.8087 79.1878C40.8087 79.1878 38.1889 82.5323 34.8867 83.116C32.374 83.5616 30.307 82.2503 29.4666 81.6045L29.2861 81.3084C29.2861 81.3084 30.9781 79.8758 34.2014 79.0524C37.4247 78.229 40.8087 79.1878 40.8087 79.1878Z" fill="black"/>
<path d="M35.3403 76.5794C35.065 76.7406 34.7985 76.9167 34.5422 77.1067C34.2919 77.2964 34.0597 77.5088 33.8485 77.7412C33.8316 77.7609 33.8485 77.7863 33.8795 77.7694C34.1192 77.5635 34.3589 77.3549 34.6071 77.1603C34.8465 76.9626 35.098 76.7799 35.36 76.6132C35.3826 76.6019 35.3628 76.5653 35.3403 76.5794Z" fill="#263238"/>
<path d="M37.3117 77.3267C37.1764 77.3831 37.0297 77.4311 36.9085 77.4846L36.508 77.651C36.4798 77.651 36.4939 77.7102 36.5221 77.6961L36.9226 77.5354C37.0579 77.4818 37.1877 77.4198 37.323 77.3662C37.3456 77.3549 37.3343 77.3154 37.3117 77.3267Z" fill="#263238"/>
<path d="M28.5977 86.8159C28.5977 86.8159 29.2265 91.1898 32.5175 92.7182C35.8084 94.2466 39.8128 92.7097 39.8128 92.7097C39.8128 92.7097 38.2364 83.2571 28.5977 86.8159Z" fill="#34A1D3"/>
<path d="M37.5569 89.8899C37.2523 89.8532 36.9506 89.8025 36.6516 89.7461L36.2089 89.6643L35.9777 89.6163C35.8902 89.5346 35.8028 89.45 35.7126 89.371C35.0895 88.8231 34.4164 88.3349 33.7019 87.9131C33.3124 87.6823 32.9093 87.4752 32.495 87.2927H32.557L33.6399 87.3406C34.3618 87.3744 35.0837 87.3914 35.8056 87.4365C35.831 87.4365 35.831 87.397 35.8056 87.397C35.0837 87.3462 34.3618 87.2673 33.6399 87.2052L32.588 87.1122L32.0466 87.0642L31.9084 87.0501C31.7195 86.9796 31.5305 86.9148 31.3444 86.8556C30.4479 86.5469 29.4834 86.4933 28.5582 86.7005C27.732 86.912 26.9057 87.4534 26.6914 88.3276C26.6914 88.3558 26.7309 88.3784 26.745 88.3473C27.0524 87.6198 27.873 87.2532 28.5921 87.1009C29.0832 87.0074 29.5865 86.9969 30.081 87.0699C30.1141 87.2958 30.1699 87.5178 30.2474 87.7326C30.3377 88.04 30.4279 88.3473 30.5294 88.6547C30.7155 89.2695 30.9214 89.8786 31.0934 90.4934C31.0922 90.4964 31.0918 90.4996 31.0921 90.5028C31.0925 90.506 31.0936 90.5091 31.0954 90.5118C31.0972 90.5144 31.0997 90.5166 31.1025 90.5181C31.1054 90.5196 31.1085 90.5204 31.1118 90.5204C31.115 90.5204 31.1182 90.5196 31.121 90.5181C31.1239 90.5166 31.1263 90.5144 31.1281 90.5118C31.1299 90.5091 31.131 90.506 31.1314 90.5028C31.1317 90.4996 31.1313 90.4964 31.1301 90.4934C30.9778 89.8786 30.8481 89.261 30.7014 88.6434C30.6281 88.3417 30.552 88.0428 30.4787 87.741C30.437 87.5298 30.3815 87.3217 30.3123 87.1178C30.5978 87.1698 30.8803 87.2376 31.1583 87.3209C31.6656 87.4708 32.1629 87.6525 32.6472 87.8651C32.6952 88.1781 32.7657 88.4855 32.8362 88.7929C32.9264 89.1792 33.0279 89.5628 33.1492 89.9406C33.1507 89.9443 33.1532 89.9474 33.1565 89.9497C33.1597 89.9519 33.1636 89.9531 33.1675 89.9531C33.1715 89.9531 33.1753 89.9519 33.1786 89.9497C33.1819 89.9474 33.1844 89.9443 33.1859 89.9406C33.1872 89.9162 33.1872 89.8917 33.1859 89.8673C33.1125 89.5092 33.0336 89.1539 32.9574 88.7957C32.8954 88.5137 32.8418 88.2176 32.777 87.93C33.1865 88.1126 33.5865 88.3159 33.9755 88.5391C33.9755 88.6265 34.0065 88.7196 34.0206 88.7985C34.0431 88.9508 34.0713 89.1003 34.0967 89.2497C34.1588 89.5853 34.2264 89.9209 34.3082 90.2565C34.4567 90.9011 34.645 91.5359 34.8722 92.1572C34.8702 92.1611 34.8692 92.1654 34.8692 92.1698C34.8692 92.1743 34.8702 92.1786 34.8722 92.1825L34.892 92.2051C34.892 92.222 34.9286 92.2051 34.9258 92.1854C34.7735 91.5368 34.5987 90.8938 34.4577 90.2424C34.3872 89.9181 34.3139 89.5938 34.249 89.2667L34.1559 88.7788C34.1559 88.7309 34.1418 88.6829 34.1334 88.6322C35.3405 89.3445 36.433 90.2353 37.3736 91.2745C37.3961 91.2999 37.4441 91.2745 37.4215 91.235C37.1767 90.9032 36.915 90.5841 36.6375 90.279C36.474 90.1014 36.302 89.9322 36.1271 89.763H36.1807C36.3358 89.7884 36.4881 89.8109 36.6432 89.8307C36.9477 89.873 37.2523 89.9012 37.5569 89.935C37.5569 89.9153 37.5738 89.8899 37.5569 89.8899Z" fill="#263238"/>
<path d="M35.2363 91.3562C35.2363 91.3195 35.2363 91.28 35.2194 91.2434C35.2033 91.1963 35.1901 91.1483 35.1799 91.0995C35.1122 90.8175 35.0558 90.513 35.0023 90.2169C35.0023 90.1971 34.9656 90.2028 34.9684 90.2169C34.9873 90.6087 35.0712 90.9946 35.2166 91.359C35.2166 91.359 35.242 91.359 35.2391 91.359L35.2363 91.3562Z" fill="#263238"/>
<path d="M32.481 91.2997C32.481 91.2997 32.481 91.2828 32.4612 91.2828C32.371 90.8965 32.2807 90.5073 32.2018 90.1182C32.1595 89.9123 32.1172 89.7093 32.0777 89.5034C32.0551 89.3906 32.0354 89.2806 32.0157 89.1706C32.0063 89.0737 31.9825 88.9786 31.9452 88.8886C31.9437 88.885 31.9412 88.8818 31.9379 88.8796C31.9346 88.8774 31.9308 88.8762 31.9268 88.8762C31.9229 88.8762 31.919 88.8774 31.9158 88.8796C31.9125 88.8818 31.91 88.885 31.9085 88.8886C31.905 89.0872 31.9326 89.2851 31.9903 89.4752C32.0298 89.6895 32.0721 89.9038 32.12 90.1153C32.2159 90.5468 32.323 90.9754 32.4443 91.4013C32.4443 91.4072 32.4467 91.413 32.4509 91.4172C32.4551 91.4214 32.4609 91.4238 32.4669 91.4238C32.4728 91.4238 32.4786 91.4214 32.4828 91.4172C32.487 91.413 32.4894 91.4072 32.4894 91.4013L32.481 91.2997Z" fill="#263238"/>
<path d="M37.25 88.6151C36.6493 88.5333 36.0487 88.4459 35.4452 88.3726C35.4198 88.3726 35.4113 88.4092 35.4452 88.412C36.0458 88.4995 36.6465 88.5756 37.2471 88.6546C37.2753 88.6574 37.2754 88.6179 37.25 88.6151Z" fill="#263238"/>
<path d="M26.9117 76.5596C26.9117 76.5596 24.901 67.7302 34.3847 64.1516C34.3847 64.1573 37.0129 75.7898 26.9117 76.5596Z" fill="#34A1D3"/>
<path d="M28.9588 71.5598L29.0603 71.4978L29.5989 71.1988L30.6987 70.5841C31.4206 70.178 32.1369 69.7578 32.8645 69.3602C32.887 69.3602 32.8645 69.3151 32.8447 69.3264C32.1143 69.724 31.3699 70.0962 30.6367 70.4826L29.5481 71.0466L29.0969 71.2778C29.4128 70.68 29.7512 70.0906 30.1234 69.5238C30.6169 68.768 31.1612 68.0489 31.728 67.3439C31.7318 67.3373 31.7332 67.3296 31.7321 67.3221C31.731 67.3146 31.7274 67.3076 31.7218 67.3024C31.7163 67.2972 31.7092 67.294 31.7016 67.2933C31.694 67.2927 31.6864 67.2946 31.6801 67.2988C30.8473 68.1068 30.111 69.0086 29.4861 69.9862C29.4861 69.9552 29.4861 69.9242 29.4861 69.896C29.4861 69.676 29.503 69.4561 29.5058 69.2361C29.5058 68.8047 29.5058 68.3732 29.5058 67.9417C29.5058 67.9164 29.4664 67.9192 29.4635 67.9417C29.4466 68.3647 29.3959 68.7877 29.3705 69.2107C29.3705 69.4251 29.3507 69.6337 29.3451 69.8481C29.3451 69.9609 29.3451 70.0906 29.3451 70.2175C29.1505 70.5277 28.9616 70.8435 28.7811 71.1622C28.4636 71.7378 28.181 72.332 27.9351 72.9416C27.9351 72.7216 27.9125 72.5017 27.8984 72.2817C27.8702 71.7995 27.811 71.3173 27.7913 70.8322C27.7913 70.827 27.7892 70.822 27.7855 70.8183C27.7818 70.8146 27.7768 70.8125 27.7715 70.8125C27.7663 70.8125 27.7613 70.8146 27.7576 70.8183C27.7539 70.822 27.7518 70.827 27.7518 70.8322C27.7518 71.3145 27.7518 71.7995 27.7518 72.2817C27.7518 72.5242 27.7687 72.7668 27.7828 73.0065L27.7997 73.2885C27.4982 74.077 27.2588 74.8879 27.0835 75.7137C26.9211 76.5955 26.8035 77.4849 26.731 78.3786C26.8306 77.5733 26.9985 76.7781 27.2329 76.0013C27.3514 75.5868 27.4754 75.1722 27.608 74.7605C28.0028 74.5744 28.3807 74.3431 28.7614 74.1316C29.1421 73.9201 29.5566 73.6974 29.9514 73.4802C30.7438 73.0459 31.5334 72.6032 32.3484 72.2197C32.3738 72.2197 32.3484 72.1746 32.3287 72.1858C31.5024 72.5609 30.6677 72.9162 29.8555 73.3138C29.4523 73.5169 29.0546 73.734 28.6598 73.954C28.3299 74.1401 27.9915 74.3262 27.6785 74.5405C27.7687 74.2585 27.8646 73.9906 27.9605 73.7199C28.2735 72.9924 28.5978 72.262 28.9588 71.5598Z" fill="#263238"/>
<path d="M28.161 69.5323C28.1594 69.528 28.1565 69.5242 28.1527 69.5216C28.1489 69.519 28.1444 69.5176 28.1398 69.5176C28.1352 69.5176 28.1307 69.519 28.1269 69.5216C28.1231 69.5242 28.1203 69.528 28.1187 69.5323C28.1553 70.0342 28.1722 70.539 28.223 71.041C28.223 71.0692 28.2709 71.0692 28.2681 71.041C28.2512 70.539 28.1976 70.0371 28.161 69.5323Z" fill="#263238"/>
<path d="M32.7068 71.2185C32.1146 71.4582 31.5167 71.6866 30.9245 71.9319C30.9076 71.9319 30.9245 71.9658 30.9245 71.9601C31.5252 71.7345 32.1146 71.492 32.7124 71.2579C32.7434 71.2495 32.7321 71.21 32.7068 71.2185Z" fill="#263238"/>
<path d="M33.609 67.1464C33.0273 67.4137 32.4622 67.716 31.917 68.0516C31.911 68.0549 31.9066 68.0606 31.9048 68.0672C31.9029 68.0738 31.9038 68.0808 31.9071 68.0868C31.9105 68.0928 31.9161 68.0972 31.9227 68.0991C31.9293 68.1009 31.9364 68.1001 31.9424 68.0967C32.5064 67.7752 33.0535 67.465 33.6344 67.183C33.6541 67.1717 33.6316 67.1379 33.609 67.1464Z" fill="#263238"/>
<path d="M33.465 95.6511H19.7852V110.07H33.465V95.6511Z" fill="#455A64"/>
<path d="M19.5456 100.752H18.8462V125.45H19.5456V100.752Z" fill="#263238"/>
<path d="M34.3336 100.752H33.6343V125.45H34.3336V100.752Z" fill="#263238"/>
<path d="M27.3122 100.752H26.6128V125.45H27.3122V100.752Z" fill="#263238"/>
<path d="M33.9839 109.145H19.1958V111.141H33.9839V109.145Z" fill="#263238"/>
<path d="M192.479 119.018H19.6865V125.312H192.479V119.018Z" fill="#FAFAFA"/>
<path d="M177.161 23.9216H35.002V119.018H177.161V23.9216Z" fill="#DBDBDB"/>
<path d="M176.132 25.0806H36.0371V117.856H176.132V25.0806Z" fill="#263238"/>
<path d="M169.925 31.0449H42.2383V111.891H169.925V31.0449Z" fill="white"/>
<path d="M190.531 34.9816H21.6353L34.6721 23.8821H176.966L190.531 34.9816Z" fill="#34A1D3"/>
<path d="M58.4249 23.8821L47.6187 34.9816H34.627L46.423 23.8821H58.4249Z" fill="#EBEBEB"/>
<path d="M81.4163 23.8821L73.6021 34.9816H60.6104L69.8966 23.8821H81.4163Z" fill="#EBEBEB"/>
<path d="M100.933 23.8821L99.5855 34.9816H86.5938L90.7391 23.8821H100.933Z" fill="#EBEBEB"/>
<path d="M164.547 34.9816L153.335 23.8821H165.334L177.539 34.9816H164.547Z" fill="#EBEBEB"/>
<path d="M138.564 34.9816L131.632 23.8821H142.205L151.556 34.9816H138.564Z" fill="#EBEBEB"/>
<path d="M112.58 34.9816L110.674 23.8821H120.874L125.572 34.9816H112.58Z" fill="#EBEBEB"/>
<path d="M28.1296 41.5579C26.4094 41.5579 24.7596 40.8745 23.5433 39.6582C22.3269 38.4418 21.6436 36.7921 21.6436 35.0719V34.9929H34.6353V35.0719C34.6353 35.9253 34.4669 36.7703 34.1397 37.5585C33.8125 38.3467 33.333 39.0626 32.7286 39.6652C32.1242 40.2677 31.4069 40.7451 30.6177 41.0698C29.8285 41.3946 28.983 41.5605 28.1296 41.5579Z" fill="#34A1D3"/>
<path opacity="0.1" d="M28.1296 41.5579C26.4094 41.5579 24.7596 40.8745 23.5433 39.6582C22.3269 38.4418 21.6436 36.7921 21.6436 35.0719V34.9929H34.6353V35.0719C34.6353 35.9253 34.4669 36.7703 34.1397 37.5585C33.8125 38.3467 33.333 39.0626 32.7286 39.6652C32.1242 40.2677 31.4069 40.7451 30.6177 41.0698C29.8285 41.3946 28.983 41.5605 28.1296 41.5579Z" fill="black"/>
<path d="M41.1217 41.5579C39.4015 41.5579 37.7518 40.8745 36.5354 39.6582C35.3191 38.4418 34.6357 36.7921 34.6357 35.0719V34.9929H47.6275V35.0719C47.6275 35.9253 47.4591 36.7703 47.1319 37.5585C46.8047 38.3467 46.3252 39.0626 45.7208 39.6652C45.1164 40.2677 44.3991 40.7451 43.6099 41.0698C42.8207 41.3946 41.9752 41.5605 41.1217 41.5579Z" fill="#DBDBDB"/>
<path d="M54.1159 41.5579C52.3957 41.5579 50.7459 40.8745 49.5296 39.6582C48.3132 38.4418 47.6299 36.7921 47.6299 35.0719V34.9929H60.6216V35.0719C60.6216 35.9253 60.4532 36.7703 60.126 37.5585C59.7988 38.3467 59.3193 39.0626 58.7149 39.6652C58.1106 40.2677 57.3932 40.7451 56.604 41.0698C55.8148 41.3946 54.9693 41.5605 54.1159 41.5579Z" fill="#34A1D3"/>
<path opacity="0.1" d="M54.1159 41.5579C52.3957 41.5579 50.7459 40.8745 49.5296 39.6582C48.3132 38.4418 47.6299 36.7921 47.6299 35.0719V34.9929H60.6216V35.0719C60.6216 35.9253 60.4532 36.7703 60.126 37.5585C59.7988 38.3467 59.3193 39.0626 58.7149 39.6652C58.1106 40.2677 57.3932 40.7451 56.604 41.0698C55.8148 41.3946 54.9693 41.5605 54.1159 41.5579Z" fill="black"/>
<path d="M67.1076 41.5579C65.3874 41.5579 63.7377 40.8745 62.5213 39.6582C61.3049 38.4418 60.6216 36.7921 60.6216 35.0719V34.9929H73.6133V35.0719C73.6133 35.9253 73.4449 36.7703 73.1177 37.5585C72.7905 38.3467 72.311 39.0626 71.7066 39.6652C71.1023 40.2677 70.3849 40.7451 69.5957 41.0698C68.8065 41.3946 67.961 41.5605 67.1076 41.5579Z" fill="#DBDBDB"/>
<path d="M80.0998 41.5579C78.3796 41.5579 76.7298 40.8745 75.5135 39.6582C74.2971 38.4418 73.6138 36.7921 73.6138 35.0719V34.9929H86.6055V35.0719C86.6055 35.9253 86.4371 36.7703 86.1099 37.5585C85.7827 38.3467 85.3032 39.0626 84.6988 39.6652C84.0945 40.2677 83.3771 40.7451 82.5879 41.0698C81.7987 41.3946 80.9532 41.5605 80.0998 41.5579Z" fill="#34A1D3"/>
<path opacity="0.1" d="M80.0998 41.5579C78.3796 41.5579 76.7298 40.8745 75.5135 39.6582C74.2971 38.4418 73.6138 36.7921 73.6138 35.0719V34.9929H86.6055V35.0719C86.6055 35.9253 86.4371 36.7703 86.1099 37.5585C85.7827 38.3467 85.3032 39.0626 84.6988 39.6652C84.0945 40.2677 83.3771 40.7451 82.5879 41.0698C81.7987 41.3946 80.9532 41.5605 80.0998 41.5579Z" fill="black"/>
<path d="M93.0915 41.5579C91.3713 41.5579 89.7215 40.8745 88.5052 39.6582C87.2888 38.4418 86.6055 36.7921 86.6055 35.0719V34.9929H99.5972V35.0719C99.5972 35.9253 99.4288 36.7703 99.1016 37.5585C98.7744 38.3467 98.2949 39.0626 97.6905 39.6652C97.0862 40.2677 96.3688 40.7451 95.5796 41.0698C94.7904 41.3946 93.9449 41.5605 93.0915 41.5579Z" fill="#DBDBDB"/>
<path d="M106.083 41.5579C104.363 41.5579 102.713 40.8745 101.497 39.6582C100.281 38.4418 99.5972 36.7921 99.5972 35.0719V34.9929H112.569V35.0719C112.569 36.7921 111.886 38.4418 110.669 39.6582C109.453 40.8745 107.803 41.5579 106.083 41.5579Z" fill="#34A1D3"/>
<path opacity="0.1" d="M106.083 41.5579C104.363 41.5579 102.713 40.8745 101.497 39.6582C100.281 38.4418 99.5972 36.7921 99.5972 35.0719V34.9929H112.569V35.0719C112.569 36.7921 111.886 38.4418 110.669 39.6582C109.453 40.8745 107.803 41.5579 106.083 41.5579Z" fill="black"/>
<path d="M119.075 41.5579C117.355 41.5579 115.705 40.8745 114.489 39.6582C113.272 38.4418 112.589 36.7921 112.589 35.0719V34.9929H125.581V35.0719C125.581 35.9253 125.412 36.7703 125.085 37.5585C124.758 38.3467 124.278 39.0626 123.674 39.6652C123.07 40.2677 122.352 40.7451 121.563 41.0698C120.774 41.3946 119.928 41.5605 119.075 41.5579Z" fill="#DBDBDB"/>
<path d="M132.066 41.5579C130.346 41.5579 128.696 40.8745 127.48 39.6582C126.263 38.4418 125.58 36.7921 125.58 35.0719V34.9929H138.572V35.0719C138.572 35.9253 138.403 36.7703 138.076 37.5585C137.749 38.3467 137.27 39.0626 136.665 39.6652C136.061 40.2677 135.343 40.7451 134.554 41.0698C133.765 41.3946 132.919 41.5605 132.066 41.5579Z" fill="#34A1D3"/>
<path opacity="0.1" d="M132.066 41.5579C130.346 41.5579 128.696 40.8745 127.48 39.6582C126.263 38.4418 125.58 36.7921 125.58 35.0719V34.9929H138.572V35.0719C138.572 35.9253 138.403 36.7703 138.076 37.5585C137.749 38.3467 137.27 39.0626 136.665 39.6652C136.061 40.2677 135.343 40.7451 134.554 41.0698C133.765 41.3946 132.919 41.5605 132.066 41.5579Z" fill="black"/>
<path d="M145.058 41.5579C143.338 41.5579 141.688 40.8745 140.472 39.6582C139.256 38.4418 138.572 36.7921 138.572 35.0719V34.9929H151.564V35.0719C151.564 35.9253 151.396 36.7703 151.068 37.5585C150.741 38.3467 150.262 39.0626 149.657 39.6652C149.053 40.2677 148.336 40.7451 147.546 41.0698C146.757 41.3946 145.912 41.5605 145.058 41.5579Z" fill="#DBDBDB"/>
<path d="M158.05 41.5579C156.33 41.5579 154.68 40.8745 153.464 39.6582C152.247 38.4418 151.564 36.7921 151.564 35.0719V34.9929H164.556V35.0719C164.556 35.9253 164.387 36.7703 164.06 37.5585C163.733 38.3467 163.253 39.0626 162.649 39.6652C162.045 40.2677 161.327 40.7451 160.538 41.0698C159.749 41.3946 158.903 41.5605 158.05 41.5579Z" fill="#34A1D3"/>
<path opacity="0.1" d="M158.05 41.5579C156.33 41.5579 154.68 40.8745 153.464 39.6582C152.247 38.4418 151.564 36.7921 151.564 35.0719V34.9929H164.556V35.0719C164.556 35.9253 164.387 36.7703 164.06 37.5585C163.733 38.3467 163.253 39.0626 162.649 39.6652C162.045 40.2677 161.327 40.7451 160.538 41.0698C159.749 41.3946 158.903 41.5605 158.05 41.5579Z" fill="black"/>
<path d="M171.044 41.5579C169.324 41.5579 167.674 40.8745 166.458 39.6582C165.241 38.4418 164.558 36.7921 164.558 35.0719V34.9929H177.55V35.0719C177.55 35.9253 177.381 36.7703 177.054 37.5585C176.727 38.3467 176.248 39.0626 175.643 39.6652C175.039 40.2677 174.321 40.7451 173.532 41.0698C172.743 41.3946 171.898 41.5605 171.044 41.5579Z" fill="#DBDBDB"/>
<path d="M184.036 41.5579C182.316 41.5579 180.666 40.8745 179.45 39.6582C178.234 38.4418 177.55 36.7921 177.55 35.0719V34.9929H190.542V35.0719C190.542 35.9253 190.374 36.7703 190.046 37.5585C189.719 38.3467 189.24 39.0626 188.635 39.6652C188.031 40.2677 187.314 40.7451 186.524 41.0698C185.735 41.3946 184.89 41.5605 184.036 41.5579Z" fill="#34A1D3"/>
<path opacity="0.1" d="M184.036 41.5579C182.316 41.5579 180.666 40.8745 179.45 39.6582C178.234 38.4418 177.55 36.7921 177.55 35.0719V34.9929H190.542V35.0719C190.542 35.9253 190.374 36.7703 190.046 37.5585C189.719 38.3467 189.24 39.0626 188.635 39.6652C188.031 40.2677 187.314 40.7451 186.524 41.0698C185.735 41.3946 184.89 41.5605 184.036 41.5579Z" fill="black"/>
<path d="M189.673 38.78L189.696 38.8225C189.687 38.8183 189.679 38.8114 189.673 38.8027C189.661 38.7962 189.648 38.7886 189.637 38.78H189.673Z" fill="#34A1D3"/>
<path d="M99.586 52.8435H55.3232V97.1062H99.586V52.8435Z" fill="#34A1D3"/>
<path d="M89.961 81.2098H71.0134C70.8395 81.2109 70.6697 81.1569 70.5284 81.0556C70.387 80.9543 70.2814 80.8108 70.2266 80.6458L64.8122 64.0924H60.3989C60.1878 64.08 59.9893 63.9875 59.8442 63.8336C59.699 63.6797 59.6182 63.4762 59.6182 63.2647C59.6182 63.0532 59.699 62.8497 59.8442 62.6958C59.9893 62.5419 60.1878 62.4493 60.3989 62.437H65.4157C65.5895 62.4363 65.7591 62.4905 65.9003 62.5917C66.0416 62.693 66.1473 62.8362 66.2025 63.001L71.6141 79.5516H89.9638C90.175 79.5639 90.3734 79.6565 90.5186 79.8104C90.6637 79.9642 90.7445 80.1677 90.7445 80.3793C90.7445 80.5908 90.6637 80.7943 90.5186 80.9482C90.3734 81.102 90.175 81.1946 89.9638 81.2069L89.961 81.2098Z" fill="white"/>
<path d="M88.1225 87.5153C87.596 87.5153 87.0813 87.3592 86.6436 87.0667C86.2058 86.7742 85.8646 86.3584 85.6631 85.872C85.4616 85.3855 85.4089 84.8503 85.5116 84.3339C85.6143 83.8175 85.8679 83.3432 86.2402 82.9709C86.6125 82.5986 87.0868 82.345 87.6032 82.2423C88.1196 82.1396 88.6548 82.1923 89.1413 82.3938C89.6277 82.5953 90.0435 82.9365 90.336 83.3743C90.6285 83.812 90.7846 84.3267 90.7846 84.8532C90.7839 85.559 90.5032 86.2357 90.0041 86.7348C89.505 87.2339 88.8283 87.5146 88.1225 87.5153ZM88.1225 83.8493C87.9233 83.8493 87.7285 83.9084 87.5629 84.0192C87.3973 84.1299 87.2683 84.2873 87.1922 84.4715C87.116 84.6556 87.0963 84.8581 87.1353 85.0535C87.1744 85.2489 87.2706 85.4283 87.4117 85.5689C87.5527 85.7096 87.7324 85.8053 87.9279 85.8438C88.1233 85.8823 88.3258 85.862 88.5098 85.7854C88.6937 85.7087 88.8507 85.5793 88.961 85.4133C89.0713 85.2474 89.1298 85.0525 89.1293 84.8532C89.1285 84.5867 89.0221 84.3314 88.8334 84.1432C88.6447 83.955 88.389 83.8493 88.1225 83.8493Z" fill="white"/>
<path d="M72.474 87.5153C71.9474 87.5159 71.4324 87.3602 70.9942 87.0681C70.5561 86.7759 70.2144 86.3603 70.0125 85.8739C69.8106 85.3875 69.7575 84.8522 69.8599 84.3356C69.9623 83.819 70.2156 83.3444 70.5878 82.9719C70.96 82.5993 71.4343 82.3455 71.9508 82.2425C72.4672 82.1396 73.0027 82.1921 73.4892 82.3935C73.9758 82.5949 74.3918 82.9361 74.6844 83.374C74.977 83.8118 75.1332 84.3266 75.1332 84.8532C75.1318 85.5583 74.8512 86.2341 74.3529 86.733C73.8546 87.2318 73.1791 87.5131 72.474 87.5153ZM72.474 83.8493C72.2746 83.8488 72.0796 83.9074 71.9136 84.0178C71.7476 84.1282 71.6181 84.2854 71.5416 84.4695C71.4651 84.6536 71.4449 84.8562 71.4836 85.0518C71.5224 85.2473 71.6183 85.427 71.7593 85.5679C71.9003 85.7089 72.0799 85.8048 72.2755 85.8436C72.471 85.8824 72.6737 85.8622 72.8577 85.7856C73.0418 85.7091 73.199 85.5796 73.3094 85.4136C73.4198 85.2476 73.4785 85.0526 73.4779 84.8532C73.4772 84.5872 73.3711 84.3323 73.183 84.1442C72.9949 83.9561 72.74 83.8501 72.474 83.8493Z" fill="white"/>
<path d="M94.5155 65.4038L90.2968 78.6353H72.4039L68.188 65.4038L82.1554 65.4179L94.5155 65.4038Z" fill="white"/>
<path d="M55.323 60.2432C59.4098 60.2432 62.7227 56.9303 62.7227 52.8435C62.7227 48.7568 59.4098 45.4438 55.323 45.4438C51.2363 45.4438 47.9233 48.7568 47.9233 52.8435C47.9233 56.9303 51.2363 60.2432 55.323 60.2432Z" fill="#455A64"/>
<path d="M54.477 57.065L51.2988 53.8446L52.3676 52.7899L54.2232 54.6709L58.0837 48.6191L59.3499 49.4285L54.477 57.065Z" fill="white"/>
<path d="M156.676 90.5947H134.937V97.6757H156.676V90.5947Z" fill="#34A1D3"/>
<path d="M140.414 95.8118V92.4645C140.414 92.382 140.448 92.3031 140.506 92.245C140.565 92.1869 140.644 92.1543 140.727 92.1543H141.53C141.73 92.154 141.926 92.2095 142.096 92.3144C142.266 92.4193 142.403 92.5695 142.493 92.7482C142.582 92.9269 142.62 93.127 142.602 93.3259C142.584 93.5249 142.51 93.7148 142.39 93.8745C142.614 94.0137 142.786 94.222 142.881 94.4678C142.976 94.7135 142.988 94.9835 142.915 95.2367C142.843 95.49 142.69 95.7128 142.48 95.8715C142.27 96.0303 142.014 96.1162 141.75 96.1164H140.749C140.749 96.1164 140.749 96.1164 140.732 96.1164C140.65 96.1172 140.571 96.0858 140.511 96.0289C140.451 95.972 140.417 95.8941 140.414 95.8118ZM141.042 93.694H141.53C141.65 93.6918 141.765 93.6423 141.849 93.5563C141.933 93.4702 141.979 93.3546 141.979 93.2344C141.979 93.1756 141.967 93.1174 141.944 93.0632C141.922 93.009 141.889 92.9597 141.847 92.9183C141.806 92.8769 141.756 92.8441 141.702 92.8219C141.647 92.7997 141.589 92.7884 141.53 92.7888H141.051L141.042 93.694ZM141.042 95.496H141.75C141.906 95.496 142.055 95.4342 142.165 95.3242C142.275 95.2142 142.337 95.065 142.337 94.9094C142.337 94.7539 142.275 94.6047 142.165 94.4947C142.055 94.3847 141.906 94.3229 141.75 94.3229H141.051L141.042 95.496Z" fill="white"/>
<path d="M145.419 96.1164C145.204 96.1168 144.992 96.0748 144.793 95.9927C144.594 95.9106 144.414 95.7902 144.262 95.6382C144.11 95.4863 143.99 95.3058 143.907 95.1072C143.825 94.9086 143.783 94.6957 143.784 94.4809V92.4646C143.783 92.4236 143.79 92.3829 143.806 92.3449C143.821 92.307 143.844 92.2725 143.873 92.2435C143.902 92.2145 143.936 92.1917 143.974 92.1764C144.012 92.1611 144.053 92.1536 144.094 92.1544C144.177 92.1536 144.257 92.1858 144.317 92.2439C144.377 92.302 144.411 92.3813 144.413 92.4646V94.4809C144.405 94.6177 144.426 94.7547 144.473 94.8833C144.521 95.0119 144.594 95.1295 144.688 95.2289C144.783 95.3284 144.896 95.4076 145.022 95.4617C145.148 95.5158 145.284 95.5437 145.421 95.5437C145.558 95.5437 145.693 95.5158 145.819 95.4617C145.945 95.4076 146.059 95.3284 146.153 95.2289C146.248 95.1295 146.321 95.0119 146.368 94.8833C146.415 94.7547 146.436 94.6177 146.429 94.4809V92.4646C146.436 92.3863 146.473 92.3136 146.531 92.2607C146.589 92.2078 146.665 92.1785 146.743 92.1785C146.822 92.1785 146.898 92.2078 146.956 92.2607C147.014 92.3136 147.05 92.3863 147.058 92.4646V94.4809C147.057 94.9149 146.884 95.3309 146.577 95.6376C146.27 95.9442 145.853 96.1164 145.419 96.1164Z" fill="white"/>
<path d="M151.144 92.6873L149.982 94.2778V95.8119C149.983 95.8528 149.975 95.8935 149.96 95.9315C149.944 95.9695 149.922 96.004 149.893 96.0329C149.864 96.0619 149.829 96.0847 149.791 96.1C149.753 96.1153 149.713 96.1228 149.672 96.1221C149.59 96.1213 149.511 96.0884 149.453 96.0304C149.395 95.9724 149.362 95.8939 149.361 95.8119V94.2834L148.211 92.6929C148.185 92.661 148.167 92.6242 148.156 92.5848C148.145 92.5454 148.143 92.5042 148.149 92.4638C148.154 92.4234 148.168 92.3845 148.19 92.3497C148.211 92.315 148.239 92.2849 148.273 92.2615C148.306 92.237 148.343 92.2194 148.382 92.2095C148.422 92.1997 148.463 92.1979 148.503 92.2042C148.543 92.2105 148.582 92.2248 148.616 92.2463C148.651 92.2677 148.681 92.2959 148.704 92.3292L149.672 93.6546L150.639 92.3292C150.687 92.2622 150.76 92.2172 150.841 92.204C150.923 92.1908 151.006 92.2104 151.073 92.2587C151.14 92.3069 151.185 92.3798 151.198 92.4612C151.212 92.5426 151.192 92.626 151.144 92.6929V92.6873Z" fill="white"/>
<path d="M156.68 86.9346C145.4 86.9684 122.713 87.0333 111.435 87.0361H111.337V86.9346L111.294 52.4347V52.2937H111.435L156.767 52.3473C156.857 52.3811 156.612 86.881 156.68 86.9346ZM156.68 86.9346C156.68 86.9684 156.491 52.054 156.68 52.5306L111.441 52.5757L111.582 52.4347C111.56 52.3924 111.675 87.3717 111.441 86.8387C122.721 86.8387 145.411 86.9036 156.685 86.9374L156.68 86.9346Z" fill="#FAFAFA"/>
<path d="M132.117 55.6636H114.473V59.2506H132.117V55.6636Z" fill="#EBEBEB"/>
<path d="M154.234 82.6565H140.239V84.9689H154.234V82.6565Z" fill="#FAFAFA"/>
<path d="M114.473 62.5077C120.761 62.3187 127.092 62.3187 133.384 62.5077C127.092 62.6994 120.761 62.6994 114.473 62.5077Z" fill="#FAFAFA"/>
<path d="M114.473 64.7919C120.761 64.6029 127.092 64.6029 133.384 64.7919C127.092 64.9808 120.761 64.9808 114.473 64.7919Z" fill="#FAFAFA"/>
<path d="M114.473 67.0704C120.761 66.8815 127.092 66.8815 133.384 67.0704C127.092 67.2594 120.761 67.2594 114.473 67.0704Z" fill="#FAFAFA"/>
<path d="M114.473 69.3518C120.761 69.1601 127.092 69.1601 133.384 69.3518C127.092 69.5436 120.761 69.5436 114.473 69.3518Z" fill="#FAFAFA"/>
<path d="M114.473 71.6302C120.761 71.4413 127.092 71.4413 133.384 71.6302C127.092 71.8192 120.761 71.8192 114.473 71.6302Z" fill="#FAFAFA"/>
<path d="M114.473 73.9117C120.761 73.7228 127.092 73.7228 133.384 73.9117C127.092 74.1007 120.761 74.1007 114.473 73.9117Z" fill="#FAFAFA"/>
<path d="M114.473 76.1931C120.761 76.0014 127.092 76.0014 133.384 76.1931C127.092 76.3821 120.761 76.3821 114.473 76.1931Z" fill="#FAFAFA"/>
<path d="M134.903 62.5076C137.602 62.3158 140.312 62.3158 143.011 62.5076C140.312 62.7022 137.602 62.7022 134.903 62.5076Z" fill="#FAFAFA"/>
<path d="M134.903 64.7918C137.607 64.5994 140.321 64.5994 143.025 64.7918C140.326 64.9835 137.617 64.9835 134.917 64.7918H134.903Z" fill="#FAFAFA"/>
<path d="M134.903 67.0703C137.602 66.8786 140.312 66.8786 143.011 67.0703C140.312 67.2621 137.602 67.2621 134.903 67.0703Z" fill="#FAFAFA"/>
<path d="M134.903 69.3517C137.602 69.1572 140.312 69.1572 143.011 69.3517C140.312 69.5435 137.602 69.5435 134.903 69.3517Z" fill="#FAFAFA"/>
<path d="M134.903 71.6304C137.602 71.4386 140.312 71.4386 143.011 71.6304C140.312 71.8222 137.602 71.8222 134.903 71.6304Z" fill="#FAFAFA"/>
<path d="M134.903 73.9116C137.602 73.7199 140.312 73.7199 143.011 73.9116C140.312 74.1034 137.602 74.1034 134.903 73.9116Z" fill="#FAFAFA"/>
<path d="M147.238 62.5077C149.563 62.3145 151.9 62.3145 154.226 62.5077C151.9 62.7023 149.563 62.7023 147.238 62.5077Z" fill="#FAFAFA"/>
<path d="M147.238 64.7919C149.563 64.5987 151.9 64.5987 154.226 64.7919C151.9 64.9864 149.563 64.9864 147.238 64.7919Z" fill="#FAFAFA"/>
<path d="M147.238 67.0705C149.563 66.8759 151.9 66.8759 154.226 67.0705C151.9 67.2637 149.563 67.2637 147.238 67.0705Z" fill="#FAFAFA"/>
<path d="M147.238 69.3517C149.563 69.1572 151.9 69.1572 154.226 69.3517C151.9 69.5463 149.563 69.5463 147.238 69.3517Z" fill="#FAFAFA"/>
<path d="M147.238 71.6302C149.563 71.4371 151.9 71.4371 154.226 71.6302C151.9 71.8248 149.563 71.8248 147.238 71.6302Z" fill="#FAFAFA"/>
<path d="M147.238 73.9118C149.563 73.7172 151.9 73.7172 154.226 73.9118C151.9 74.105 149.563 74.105 147.238 73.9118Z" fill="#FAFAFA"/>
<path d="M147.238 76.1931C149.563 75.9985 151.9 75.9985 154.226 76.1931C151.9 76.3862 149.563 76.3862 147.238 76.1931Z" fill="#FAFAFA"/>
<path d="M111.436 99.2296H135.626L132.098 74.5913H114.963L111.436 99.2296Z" fill="#34A1D3"/>
<path d="M114.963 74.5913L117.651 99.2325L111.436 99.2296L114.963 74.5913Z" fill="#34A1D3"/>
<path opacity="0.1" d="M114.963 74.5913L117.651 99.2325L111.436 99.2296L114.963 74.5913Z" fill="black"/>
<path d="M127.272 76.2918L128.028 76.131C128.028 76.1113 127.585 74.0386 127.117 71.949C126.609 69.693 124.387 68.6524 122.532 68.9513C121.144 69.1769 119.602 70.2598 119.836 72.5778C120.084 75.0566 120.27 76.2241 120.278 76.272L121.043 76.148C121.043 76.148 120.848 74.9523 120.603 72.4989C120.425 70.7195 121.547 69.8932 122.656 69.7155C124.156 69.473 125.955 70.3049 126.361 72.1182C126.829 74.205 127.266 76.2692 127.272 76.2918Z" fill="#263238"/>
<path d="M117.324 99.0407C116.827 98.6882 116.311 98.3638 115.798 98.0395C115.285 97.7152 114.757 97.4107 114.23 97.1089L114.157 97.0667L114.089 97.1174C113.68 97.4248 113.271 97.7294 112.877 98.0537C112.482 98.378 112.078 98.6966 111.698 99.0378C112.138 98.7756 112.563 98.4907 112.986 98.1918C113.409 97.8929 113.832 97.6109 114.241 97.3092H114.103C114.628 97.6175 115.158 97.9145 115.694 98.2003C116.235 98.5048 116.768 98.7869 117.324 99.0407Z" fill="white"/>
<path d="M114.165 97.2217C114.272 95.6509 114.351 94.0774 114.424 92.5066C114.498 90.9359 114.551 89.3623 114.616 87.7888C114.681 86.2152 114.712 84.6416 114.746 83.0681L114.791 80.7078C114.791 79.921 114.811 79.1342 114.808 78.3474C114.752 79.1314 114.712 79.9181 114.664 80.7049L114.549 83.0625C114.472 84.6332 114.422 86.2067 114.357 87.7803C114.292 89.3539 114.261 90.9274 114.227 92.501C114.193 94.0746 114.165 95.6453 114.165 97.2217Z" fill="white"/>
<path d="M126.624 76.2098C126.624 76.4128 126.684 76.6113 126.797 76.7801C126.91 76.9489 127.07 77.0805 127.258 77.1582C127.445 77.2359 127.652 77.2562 127.851 77.2166C128.05 77.177 128.233 77.0792 128.376 76.9357C128.52 76.7921 128.618 76.6092 128.657 76.4101C128.697 76.211 128.677 76.0046 128.599 75.817C128.521 75.6295 128.39 75.4691 128.221 75.3563C128.052 75.2435 127.854 75.1833 127.651 75.1833C127.378 75.1833 127.117 75.2915 126.925 75.484C126.732 75.6765 126.624 75.9376 126.624 76.2098Z" fill="#263238"/>
<path d="M119.712 76.2098C119.712 76.4128 119.772 76.6113 119.885 76.7801C119.998 76.9489 120.158 77.0805 120.346 77.1582C120.533 77.2359 120.74 77.2562 120.939 77.2166C121.138 77.177 121.321 77.0792 121.464 76.9357C121.608 76.7921 121.706 76.6092 121.745 76.4101C121.785 76.211 121.764 76.0046 121.687 75.817C121.609 75.6295 121.477 75.4691 121.309 75.3563C121.14 75.2435 120.941 75.1833 120.738 75.1833C120.466 75.1833 120.205 75.2915 120.013 75.484C119.82 75.6765 119.712 75.9376 119.712 76.2098Z" fill="#263238"/>
<path d="M147.483 76.148C147.445 76.3776 147.348 76.5934 147.201 76.7741C147.201 76.7289 147.201 76.681 147.201 76.6359C147.201 76.5908 147.201 76.54 147.179 76.4892C147.106 76.1554 146.97 75.8386 146.778 75.5558L146.713 75.4599L146.696 75.4346C146.684 75.4207 146.674 75.4055 146.665 75.3894C144.934 72.5469 142.472 76.5174 142.418 76.6049C142.418 76.6049 142.816 72.3974 145.066 72.5525C146.812 72.6879 147.743 74.8649 147.483 76.148Z" fill="#455A64"/>
<path d="M147.196 76.7739C147.135 76.8401 147.064 76.8971 146.987 76.9431C145.822 77.6312 142.61 76.6611 142.41 76.6104C145.456 77.2815 146.437 76.2635 146.688 75.4373L146.705 75.4626L146.77 75.5585C146.96 75.8419 147.096 76.1585 147.17 76.4919C147.17 76.5427 147.187 76.5906 147.193 76.6386C147.199 76.6865 147.193 76.7288 147.196 76.7739Z" fill="#263238"/>
<path d="M137.441 75.4147C137.448 75.6468 137.515 75.8732 137.636 76.0718C137.636 76.0295 137.653 75.9843 137.667 75.9364C137.681 75.8885 137.692 75.8462 137.709 75.7982C137.829 75.4835 138.006 75.1938 138.231 74.9438L138.307 74.8592L138.33 74.8394L138.366 74.7999C140.495 72.2394 142.351 76.523 142.39 76.6217C142.39 76.6217 142.61 72.3917 140.363 72.2281C138.612 72.0758 137.385 74.0978 137.441 75.4147Z" fill="#455A64"/>
<path d="M137.636 76.0717C137.686 76.1474 137.747 76.215 137.817 76.272C138.871 77.118 142.185 76.6386 142.391 76.6104C139.289 76.8303 138.443 75.6798 138.33 74.8281L138.307 74.8479L138.231 74.9325C138.001 75.1862 137.82 75.4808 137.698 75.801C137.681 75.849 137.667 75.8941 137.656 75.9392C137.645 75.9843 137.645 76.0294 137.636 76.0717Z" fill="#263238"/>
<path d="M136.584 99.2296H148.436L148.002 77.3323L137.768 76.9685L136.584 99.2296Z" fill="#34A1D3"/>
<path opacity="0.6" d="M136.584 99.2296H148.436L148.002 77.3323L137.768 76.9685L136.584 99.2296Z" fill="white"/>
<path d="M134.159 99.2296H137.529L138.042 76.9685L134.571 77.6143L134.159 99.2296Z" fill="#34A1D3"/>
<path d="M148.597 76.9997V79.9268L138.042 79.5659V76.2129L148.597 76.9997Z" fill="#34A1D3"/>
<path opacity="0.4" d="M148.597 76.9997V79.9268L138.042 79.5659V76.2129L148.597 76.9997Z" fill="white"/>
<path d="M134.074 79.9268L138.042 79.5659V76.2129L133.849 76.9997L134.074 79.9268Z" fill="#34A1D3"/>
<path opacity="0.1" d="M134.074 79.9268L138.042 79.5659V76.2129L133.849 76.9997L134.074 79.9268Z" fill="black"/>
<path d="M145.196 76.7458L145.092 99.2297H142.295L142.25 76.5259L145.196 76.7458Z" fill="#455A64"/>
<path d="M136.37 76.5259L135.318 76.7233V99.2297H136.198L136.37 76.5259Z" fill="#455A64"/>
<path d="M140.165 85.3777C140.349 84.7658 140.07 83.9367 138.597 83.5306C136.356 82.913 134.745 85.2226 134.551 85.5243C134.757 85.1887 136.711 82.1403 138.975 82.741C140.769 83.2148 140.665 84.5966 140.165 85.3777Z" fill="#34A1D3"/>
<path d="M140.166 85.3778C140.032 85.6098 139.826 85.7912 139.579 85.8938C138.789 86.1363 137.002 86.2858 134.686 85.6118L134.531 85.5667L134.551 85.5357V85.5188H134.571C137.004 85.8713 138.699 85.6118 139.396 85.3608C139.552 85.2859 139.685 85.1684 139.778 85.0218C139.871 84.8753 139.922 84.7055 139.923 84.5318C139.93 84.4375 139.925 84.3428 139.909 84.2498C140.047 84.3987 140.143 84.5813 140.189 84.7794C140.234 84.9774 140.226 85.1838 140.166 85.3778Z" fill="#34A1D3"/>
<path opacity="0.2" d="M140.166 85.3778C140.032 85.6098 139.826 85.7912 139.579 85.8938C138.789 86.1363 137.002 86.2858 134.686 85.6118L134.531 85.5667L134.551 85.5357V85.5188H134.571C137.004 85.8713 138.699 85.6118 139.396 85.3608C139.552 85.2859 139.685 85.1684 139.778 85.0218C139.871 84.8753 139.922 84.7055 139.923 84.5318C139.93 84.4375 139.925 84.3428 139.909 84.2498C140.047 84.3987 140.143 84.5813 140.189 84.7794C140.234 84.9774 140.226 85.1838 140.166 85.3778Z" fill="black"/>
<path d="M138.71 82.1715C138.408 81.4609 137.582 80.7982 136.15 81.2325C133.961 81.8923 134.387 85.1072 134.458 85.5048C134.373 85.0536 133.679 80.9138 135.884 80.237C137.616 79.6984 138.538 81.1253 138.71 82.1715Z" fill="#34A1D3"/>
<path d="M138.71 82.1714C138.778 82.4552 138.747 82.7534 138.623 83.0174C138.189 83.7055 136.906 84.8702 134.61 85.5075L134.455 85.5498V85.5075C134.455 85.5075 134.455 85.4934 134.455 85.4849H134.469C136.618 84.4528 137.749 83.2289 138.11 82.5888C138.251 82.3378 138.18 81.8838 137.918 81.4833C137.858 81.3881 137.788 81.2993 137.709 81.2183C137.932 81.3003 138.136 81.4272 138.309 81.5912C138.481 81.7551 138.618 81.9526 138.71 82.1714Z" fill="#34A1D3"/>
<path opacity="0.2" d="M138.71 82.1714C138.778 82.4552 138.747 82.7534 138.623 83.0174C138.189 83.7055 136.906 84.8702 134.61 85.5075L134.455 85.5498V85.5075C134.455 85.5075 134.455 85.4934 134.455 85.4849H134.469C136.618 84.4528 137.749 83.2289 138.11 82.5888C138.251 82.3378 138.18 81.8838 137.918 81.4833C137.858 81.3881 137.788 81.2993 137.709 81.2183C137.932 81.3003 138.136 81.4272 138.309 81.5912C138.481 81.7551 138.618 81.9526 138.71 82.1714Z" fill="black"/>
<path d="M128.725 85.3777C128.542 84.7658 128.821 83.9367 130.293 83.5306C132.535 82.913 134.148 85.2226 134.34 85.5243C134.134 85.1887 132.179 82.1403 129.915 82.741C128.127 83.2148 128.226 84.5966 128.725 85.3777Z" fill="#34A1D3"/>
<path d="M128.725 85.3777C128.858 85.6105 129.066 85.7921 129.314 85.8938C130.101 86.1363 131.889 86.2857 134.204 85.6118L134.359 85.5666L134.339 85.5356V85.5187H134.32C131.886 85.8712 130.191 85.6118 129.495 85.3608C129.341 85.2855 129.212 85.1693 129.12 85.025C129.028 84.8807 128.979 84.7139 128.976 84.543C128.969 84.4488 128.973 84.354 128.99 84.261C128.853 84.4084 128.757 84.5887 128.71 84.7844C128.664 84.9801 128.669 85.1845 128.725 85.3777Z" fill="#34A1D3"/>
<path opacity="0.2" d="M128.725 85.3777C128.858 85.6105 129.066 85.7921 129.314 85.8938C130.101 86.1363 131.889 86.2857 134.204 85.6118L134.359 85.5666L134.339 85.5356V85.5187H134.32C131.886 85.8712 130.191 85.6118 129.495 85.3608C129.341 85.2855 129.212 85.1693 129.12 85.025C129.028 84.8807 128.979 84.7139 128.976 84.543C128.969 84.4488 128.973 84.354 128.99 84.261C128.853 84.4084 128.757 84.5887 128.71 84.7844C128.664 84.9801 128.669 85.1845 128.725 85.3777Z" fill="black"/>
<path d="M130.03 82.1715C130.332 81.4609 131.158 80.7982 132.591 81.2325C134.779 81.8923 134.353 85.1072 134.283 85.5048C134.367 85.0536 135.061 80.9138 132.873 80.237C131.124 79.6984 130.202 81.1253 130.03 82.1715Z" fill="#34A1D3"/>
<path d="M130.03 82.1714C129.965 82.4553 129.995 82.753 130.118 83.0174C130.555 83.7055 131.835 84.8702 134.133 85.5075L134.286 85.5498C134.286 85.5498 134.286 85.5357 134.286 85.5075C134.286 85.4793 134.286 85.4934 134.286 85.4849H134.269C132.12 84.4528 130.989 83.2289 130.628 82.5888C130.487 82.3378 130.56 81.8838 130.82 81.4833C130.881 81.3888 130.951 81.3 131.029 81.2183C130.806 81.3006 130.603 81.4277 130.431 81.5916C130.259 81.7555 130.123 81.9529 130.03 82.1714Z" fill="#34A1D3"/>
<path opacity="0.2" d="M130.03 82.1714C129.965 82.4553 129.995 82.753 130.118 83.0174C130.555 83.7055 131.835 84.8702 134.133 85.5075L134.286 85.5498C134.286 85.5498 134.286 85.5357 134.286 85.5075C134.286 85.4793 134.286 85.4934 134.286 85.4849H134.269C132.12 84.4528 130.989 83.2289 130.628 82.5888C130.487 82.3378 130.56 81.8838 130.82 81.4833C130.881 81.3888 130.951 81.3 131.029 81.2183C130.806 81.3006 130.603 81.4277 130.431 81.5916C130.259 81.7555 130.123 81.9529 130.03 82.1714Z" fill="black"/>
<path d="M139.937 99.2297H128.073L127.588 86.1731L140.462 86.6074L139.937 99.2297Z" fill="#37474F"/>
<path d="M144.099 99.2295H139.937L140.109 86.6072L144.61 87.1091L144.099 99.2295Z" fill="#455A64"/>
<path d="M126.624 85.9588L126.912 90.1014H140.109V85.1128L126.624 85.9588Z" fill="#263238"/>
<path d="M144.844 89.9773L140.109 90.1014V85.1128L145.281 86.1731L144.844 89.9773Z" fill="#37474F"/>
<path d="M143.51 85.812L142.642 99.2296H141.598L142.176 85.5356L143.51 85.812Z" fill="#34A1D3"/>
<path opacity="0.1" d="M143.51 85.812L142.642 99.2296H141.598L142.176 85.5356L143.51 85.812Z" fill="black"/>
<path d="M134.937 85.4456V99.2297H132.193L131.88 85.6401L134.937 85.4456Z" fill="#34A1D3"/>
<path d="M143.589 121.395H105.939C105.74 121.394 105.549 121.314 105.409 121.173C105.268 121.032 105.189 120.841 105.189 120.642V116.152C105.188 116.138 105.188 116.124 105.189 116.11C105.188 116.084 105.188 116.057 105.189 116.031L109.749 99.3114L103.853 62.767L101.879 62.0845C101.695 62.0221 101.542 61.8911 101.452 61.7188C101.363 61.5465 101.343 61.3462 101.398 61.1599C101.453 60.9736 101.577 60.8155 101.745 60.7188C101.914 60.622 102.113 60.5941 102.302 60.6407L104.73 61.4585C104.867 61.4984 104.991 61.577 105.085 61.685C105.18 61.793 105.241 61.9258 105.263 62.0676L111.255 99.2155C111.267 99.2987 111.267 99.3833 111.255 99.4665L106.836 115.484L141.911 117.977C142.106 117.991 142.288 118.08 142.419 118.225L144.15 120.137C144.248 120.245 144.313 120.38 144.335 120.524C144.358 120.669 144.338 120.817 144.279 120.95C144.219 121.083 144.122 121.196 143.999 121.275C143.876 121.354 143.732 121.396 143.586 121.395H143.589ZM106.689 119.889H141.897L141.508 119.46L106.692 116.981L106.689 119.889Z" fill="#A6A6A6"/>
<path d="M157.379 74.6392H106.619C106.419 74.6392 106.227 74.5599 106.086 74.4187C105.945 74.2774 105.866 74.0859 105.866 73.8862C105.866 73.6866 105.945 73.495 106.086 73.3538C106.227 73.2126 106.419 73.1333 106.619 73.1333H157.379C157.578 73.1333 157.77 73.2126 157.911 73.3538C158.052 73.495 158.132 73.6866 158.132 73.8862C158.132 74.0859 158.052 74.2774 157.911 74.4187C157.77 74.5599 157.578 74.6392 157.379 74.6392Z" fill="#A6A6A6"/>
<path d="M110.516 99.5765C110.454 99.5719 110.396 99.5445 110.353 99.4995C110.31 99.4546 110.286 99.3954 110.284 99.3333C110.282 99.2712 110.303 99.2106 110.344 99.1633C110.384 99.1161 110.44 99.0854 110.502 99.0773L147.935 99.1507L156.138 73.8158C156.148 73.7843 156.164 73.7551 156.185 73.7299C156.207 73.7047 156.233 73.684 156.262 73.6691C156.292 73.6541 156.324 73.6452 156.357 73.6428C156.39 73.6403 156.423 73.6445 156.454 73.655C156.516 73.6757 156.568 73.7201 156.598 73.7787C156.628 73.8372 156.634 73.9052 156.615 73.9681L148.358 99.4778C148.343 99.5263 148.313 99.5689 148.272 99.5997C148.232 99.6305 148.183 99.648 148.132 99.6498L110.53 99.5849L110.516 99.5765Z" fill="#A6A6A6"/>
<path d="M149.229 95.8457H109.568C109.502 95.8457 109.438 95.8193 109.391 95.7722C109.344 95.7251 109.317 95.6613 109.317 95.5947C109.317 95.5282 109.344 95.4643 109.391 95.4173C109.438 95.3702 109.502 95.3438 109.568 95.3438H149.229C149.262 95.3437 149.294 95.3502 149.325 95.3629C149.355 95.3755 149.383 95.394 149.406 95.4173C149.43 95.4406 149.448 95.4682 149.461 95.4987C149.473 95.5291 149.48 95.5618 149.48 95.5947C149.48 95.6277 149.473 95.6603 149.461 95.6908C149.448 95.7212 149.43 95.7489 149.406 95.7722C149.383 95.7955 149.355 95.814 149.325 95.8266C149.294 95.8392 149.262 95.8457 149.229 95.8457Z" fill="#A6A6A6"/>
<path d="M150.23 92.7971H109.103C109.036 92.7971 108.973 92.7707 108.926 92.7236C108.878 92.6765 108.852 92.6127 108.852 92.5462C108.852 92.4796 108.878 92.4157 108.926 92.3687C108.973 92.3216 109.036 92.2952 109.103 92.2952H150.23C150.296 92.2952 150.36 92.3216 150.407 92.3687C150.454 92.4157 150.481 92.4796 150.481 92.5462C150.481 92.6127 150.454 92.6765 150.407 92.7236C150.36 92.7707 150.296 92.7971 150.23 92.7971Z" fill="#A6A6A6"/>
<path d="M151.164 89.7488H108.635C108.569 89.7488 108.505 89.7223 108.458 89.6753C108.411 89.6282 108.384 89.5644 108.384 89.4978C108.384 89.4312 108.411 89.3674 108.458 89.3203C108.505 89.2733 108.569 89.2468 108.635 89.2468H151.164C151.23 89.2468 151.294 89.2733 151.341 89.3203C151.388 89.3674 151.415 89.4312 151.415 89.4978C151.415 89.5644 151.388 89.6282 151.341 89.6753C151.294 89.7223 151.23 89.7488 151.164 89.7488Z" fill="#A6A6A6"/>
<path d="M152.173 86.6975H108.181C108.115 86.6975 108.051 86.6711 108.004 86.624C107.957 86.5769 107.93 86.5131 107.93 86.4465C107.93 86.38 107.957 86.3161 108.004 86.2691C108.051 86.222 108.115 86.1956 108.181 86.1956H152.173C152.24 86.1956 152.304 86.222 152.351 86.2691C152.398 86.3161 152.424 86.38 152.424 86.4465C152.424 86.5131 152.398 86.5769 152.351 86.624C152.304 86.6711 152.24 86.6975 152.173 86.6975Z" fill="#A6A6A6"/>
<path d="M153.137 83.6492H107.702C107.635 83.6492 107.571 83.6227 107.524 83.5757C107.477 83.5286 107.451 83.4648 107.451 83.3982C107.451 83.3316 107.477 83.2678 107.524 83.2207C107.571 83.1737 107.635 83.1472 107.702 83.1472H153.137C153.204 83.1472 153.268 83.1737 153.315 83.2207C153.362 83.2678 153.388 83.3316 153.388 83.3982C153.388 83.4648 153.362 83.5286 153.315 83.5757C153.268 83.6227 153.204 83.6492 153.137 83.6492Z" fill="#A6A6A6"/>
<path d="M154.172 80.5979H107.236C107.17 80.5979 107.106 80.5715 107.059 80.5244C107.012 80.4773 106.985 80.4135 106.985 80.3469C106.985 80.2804 107.012 80.2165 107.059 80.1695C107.106 80.1224 107.17 80.0959 107.236 80.0959H154.172C154.239 80.0959 154.303 80.1224 154.35 80.1695C154.397 80.2165 154.423 80.2804 154.423 80.3469C154.423 80.4135 154.397 80.4773 154.35 80.5244C154.303 80.5715 154.239 80.5979 154.172 80.5979Z" fill="#A6A6A6"/>
<path d="M155.151 77.5496H106.769C106.736 77.5496 106.703 77.5431 106.673 77.5305C106.642 77.5178 106.614 77.4994 106.591 77.4761C106.568 77.4528 106.549 77.4251 106.537 77.3946C106.524 77.3642 106.518 77.3316 106.518 77.2986C106.518 77.2656 106.524 77.233 106.537 77.2025C106.549 77.1721 106.568 77.1444 106.591 77.1211C106.614 77.0978 106.642 77.0793 106.673 77.0667C106.703 77.0541 106.736 77.0476 106.769 77.0476H155.151C155.184 77.0476 155.217 77.0541 155.247 77.0667C155.278 77.0793 155.305 77.0978 155.329 77.1211C155.352 77.1444 155.371 77.1721 155.383 77.2025C155.396 77.233 155.402 77.2656 155.402 77.2986C155.402 77.3316 155.396 77.3642 155.383 77.3946C155.371 77.4251 155.352 77.4528 155.329 77.4761C155.305 77.4994 155.278 77.5178 155.247 77.5305C155.217 77.5431 155.184 77.5496 155.151 77.5496Z" fill="#A6A6A6"/>
<path d="M113.937 99.2577C113.874 99.2579 113.813 99.2341 113.767 99.1911C113.721 99.1482 113.693 99.0893 113.689 99.0265L111.768 73.9059C111.764 73.8721 111.766 73.8377 111.776 73.8049C111.785 73.7721 111.801 73.7415 111.823 73.7151C111.845 73.6887 111.871 73.667 111.902 73.6514C111.932 73.6357 111.965 73.6263 111.999 73.6239C112.067 73.6184 112.135 73.6394 112.187 73.6825C112.24 73.7257 112.274 73.7876 112.281 73.8552L114.199 98.9757C114.203 99.0096 114.201 99.044 114.191 99.0768C114.182 99.1096 114.166 99.1401 114.144 99.1665C114.122 99.1929 114.096 99.2146 114.065 99.2303C114.035 99.246 114.002 99.2553 113.968 99.2577H113.937Z" fill="#A6A6A6"/>
<path d="M144.593 99.5538H144.528C144.496 99.5454 144.466 99.5307 144.44 99.5106C144.414 99.4904 144.392 99.4654 144.376 99.4368C144.36 99.4082 144.35 99.3766 144.346 99.3439C144.342 99.3113 144.344 99.2781 144.353 99.2465L151.169 73.8157C151.187 73.7518 151.229 73.6974 151.287 73.6642C151.344 73.631 151.412 73.6216 151.476 73.638C151.508 73.6466 151.538 73.6613 151.564 73.6813C151.591 73.7014 151.612 73.7264 151.629 73.7549C151.645 73.7835 151.656 73.815 151.66 73.8477C151.665 73.8804 151.663 73.9136 151.654 73.9454L144.835 99.3649C144.822 99.4188 144.79 99.4667 144.746 99.5009C144.703 99.5351 144.648 99.5537 144.593 99.5538Z" fill="#A6A6A6"/>
<path d="M117.964 99.3875C117.898 99.3868 117.836 99.3609 117.789 99.3152C117.742 99.2695 117.715 99.2075 117.713 99.1422L117.081 73.8919C117.08 73.8589 117.086 73.8261 117.098 73.7954C117.11 73.7647 117.128 73.7366 117.151 73.7127C117.173 73.6889 117.201 73.6698 117.231 73.6565C117.261 73.6432 117.293 73.636 117.326 73.6353C117.392 73.6352 117.455 73.6609 117.502 73.7068C117.549 73.7526 117.576 73.815 117.577 73.8806L118.209 99.1309C118.21 99.1638 118.204 99.1966 118.192 99.2274C118.18 99.2581 118.162 99.2862 118.14 99.31C118.117 99.3338 118.09 99.353 118.059 99.3662C118.029 99.3795 117.997 99.3868 117.964 99.3875Z" fill="#A6A6A6"/>
<path d="M122.055 99.4242C122.023 99.4234 121.99 99.4162 121.96 99.4029C121.93 99.3896 121.902 99.3705 121.88 99.3467C121.857 99.3228 121.839 99.2948 121.827 99.264C121.815 99.2333 121.809 99.2005 121.81 99.1675L122.27 73.8806C122.271 73.815 122.298 73.7526 122.345 73.7068C122.392 73.6609 122.455 73.6352 122.521 73.6353C122.554 73.636 122.586 73.6432 122.616 73.6565C122.647 73.6698 122.674 73.6889 122.697 73.7127C122.719 73.7366 122.737 73.7647 122.749 73.7954C122.761 73.8261 122.767 73.8589 122.766 73.8919L122.306 99.1788C122.305 99.2444 122.278 99.3068 122.231 99.3527C122.184 99.3985 122.121 99.4242 122.055 99.4242Z" fill="#A6A6A6"/>
<path d="M140.402 99.41H140.352C140.287 99.3964 140.23 99.3576 140.193 99.3021C140.157 99.2466 140.144 99.1789 140.157 99.1139L145.256 73.8411C145.269 73.7756 145.308 73.7182 145.364 73.6814C145.419 73.6447 145.488 73.6316 145.553 73.6451C145.618 73.6585 145.676 73.6974 145.713 73.7532C145.749 73.809 145.762 73.8771 145.749 73.9426L140.648 99.2154C140.635 99.2711 140.604 99.3208 140.56 99.3563C140.515 99.3917 140.459 99.4107 140.402 99.41Z" fill="#A6A6A6"/>
<path d="M135.665 99.554H135.625C135.561 99.5436 135.503 99.5081 135.464 99.4553C135.426 99.4025 135.41 99.3366 135.419 99.272L139.359 73.8468C139.37 73.781 139.406 73.7222 139.46 73.6833C139.515 73.6445 139.582 73.6287 139.648 73.6396C139.714 73.6504 139.773 73.687 139.811 73.7412C139.85 73.7954 139.866 73.8628 139.855 73.9286L135.927 99.3453C135.917 99.4063 135.884 99.4613 135.836 99.4998C135.787 99.5383 135.726 99.5576 135.665 99.554Z" fill="#A6A6A6"/>
<path d="M126.263 99.3932H126.246C126.212 99.3904 126.179 99.3808 126.149 99.3651C126.119 99.3493 126.092 99.3277 126.07 99.3014C126.048 99.2751 126.032 99.2448 126.022 99.2121C126.012 99.1795 126.009 99.1452 126.012 99.1112L127.845 73.8553C127.852 73.7898 127.883 73.7292 127.933 73.6861C127.983 73.6431 128.047 73.6209 128.113 73.6241C128.147 73.6265 128.18 73.6358 128.211 73.6515C128.241 73.6672 128.268 73.6889 128.289 73.7153C128.311 73.7417 128.327 73.7722 128.336 73.805C128.346 73.8378 128.349 73.8722 128.344 73.9061L126.514 99.162C126.508 99.2248 126.48 99.2833 126.433 99.3261C126.387 99.3689 126.326 99.3928 126.263 99.3932Z" fill="#A6A6A6"/>
<path d="M130.964 99.5341H130.935C130.902 99.5306 130.87 99.5205 130.841 99.5043C130.812 99.4881 130.786 99.4662 130.765 99.4399C130.745 99.4136 130.73 99.3834 130.721 99.3511C130.713 99.3188 130.711 99.2852 130.715 99.2521L133.628 73.8524C133.636 73.7862 133.669 73.7257 133.721 73.6841C133.774 73.6426 133.84 73.6235 133.906 73.631C133.972 73.6385 134.033 73.6719 134.074 73.724C134.116 73.7761 134.135 73.8426 134.128 73.9087L131.215 99.3057C131.209 99.3683 131.18 99.4264 131.133 99.4687C131.087 99.511 131.026 99.5344 130.964 99.5341Z" fill="#A6A6A6"/>
<path d="M112.805 124.486C113.902 123.389 113.902 121.611 112.805 120.514C111.708 119.417 109.93 119.417 108.833 120.514C107.736 121.611 107.736 123.389 108.833 124.486C109.93 125.583 111.708 125.583 112.805 124.486Z" fill="#263238"/>
<path d="M112.095 122.5C112.095 122.753 112.021 123 111.88 123.21C111.74 123.42 111.54 123.584 111.307 123.681C111.073 123.777 110.817 123.803 110.569 123.753C110.321 123.704 110.093 123.582 109.915 123.404C109.736 123.225 109.614 122.997 109.565 122.75C109.516 122.502 109.541 122.245 109.638 122.011C109.734 121.778 109.898 121.579 110.108 121.438C110.318 121.298 110.565 121.223 110.818 121.223C111.157 121.223 111.482 121.357 111.721 121.597C111.961 121.837 112.095 122.162 112.095 122.5Z" fill="#EBEBEB"/>
<path d="M138.761 122.5C138.761 123.058 138.596 123.603 138.286 124.067C137.976 124.531 137.536 124.892 137.02 125.106C136.505 125.319 135.938 125.375 135.391 125.266C134.844 125.157 134.341 124.889 133.947 124.494C133.553 124.1 133.284 123.597 133.175 123.05C133.066 122.503 133.122 121.936 133.336 121.421C133.549 120.906 133.911 120.465 134.374 120.155C134.838 119.846 135.383 119.68 135.941 119.68C136.689 119.68 137.406 119.977 137.935 120.506C138.464 121.035 138.761 121.752 138.761 122.5Z" fill="#263238"/>
<path d="M137.23 122.5C137.23 122.753 137.155 123 137.014 123.21C136.874 123.42 136.675 123.584 136.441 123.681C136.208 123.777 135.951 123.803 135.703 123.753C135.455 123.704 135.228 123.582 135.049 123.404C134.87 123.225 134.749 122.997 134.699 122.75C134.65 122.502 134.675 122.245 134.772 122.011C134.869 121.778 135.032 121.579 135.243 121.438C135.453 121.298 135.7 121.223 135.952 121.223C136.291 121.223 136.616 121.357 136.856 121.597C137.095 121.837 137.23 122.162 137.23 122.5Z" fill="#EBEBEB"/>
<path d="M103.968 62.8995C103.866 62.8986 103.765 62.8795 103.669 62.8431L99.7211 61.3429C99.614 61.3061 99.5153 61.2482 99.431 61.1726C99.3467 61.0969 99.2784 61.0051 99.2302 60.9026C99.1821 60.8001 99.155 60.689 99.1505 60.5758C99.1461 60.4626 99.1645 60.3497 99.2045 60.2437C99.2446 60.1378 99.3055 60.0409 99.3836 59.9589C99.4618 59.877 99.5556 59.8115 99.6596 59.7665C99.7635 59.7215 99.8754 59.6978 99.9887 59.6968C100.102 59.6958 100.214 59.7176 100.319 59.7609L104.267 61.2611C104.453 61.3307 104.609 61.4636 104.707 61.6365C104.805 61.8095 104.839 62.0113 104.803 62.2068C104.767 62.4022 104.663 62.5788 104.51 62.7055C104.357 62.8321 104.164 62.9008 103.965 62.8995H103.968Z" fill="#34A1D3"/>
<path d="M150.433 119.015H180.827L176.394 88.0569H154.863L150.433 119.015Z" fill="#37474F"/>
<path d="M154.863 88.054L158.242 119.018H150.43L154.863 88.054Z" fill="#455A64"/>
<path d="M170.331 90.1887L171.281 89.9885C171.281 89.9631 170.717 87.3631 170.136 84.7349C169.499 81.8979 166.713 80.5838 164.375 80.9673C162.63 81.2493 160.695 82.6142 160.991 85.5245C161.304 88.6265 161.541 90.107 161.555 90.1662L162.514 90.0111C162.514 89.997 162.271 88.508 161.95 85.4258C161.724 83.1895 163.134 82.1517 164.527 81.9261C166.414 81.6216 168.673 82.6678 169.186 84.9492C169.775 87.569 170.325 90.1718 170.331 90.1887Z" fill="#263238"/>
<path d="M157.83 118.778C157.204 118.335 156.558 117.932 155.912 117.52C155.267 117.108 154.607 116.728 153.938 116.35L153.848 116.299L153.763 116.361C153.25 116.745 152.737 117.131 152.238 117.537C151.739 117.943 151.237 118.346 150.757 118.775C151.321 118.442 151.846 118.087 152.376 117.726C152.906 117.365 153.434 116.996 153.952 116.618H153.78C154.437 117.004 155.106 117.379 155.777 117.746C156.448 118.112 157.125 118.459 157.83 118.778Z" fill="white"/>
<path d="M153.862 116.488C153.995 114.514 154.094 112.54 154.187 110.566C154.28 108.592 154.347 106.618 154.426 104.644C154.505 102.67 154.55 100.696 154.59 98.7221L154.646 95.7555C154.646 94.7656 154.672 93.7815 154.669 92.7888C154.598 93.7758 154.548 94.7628 154.488 95.7498L154.342 98.7136C154.249 100.688 154.184 102.662 154.105 104.636C154.026 106.61 153.981 108.584 153.938 110.558C153.896 112.532 153.862 114.511 153.862 116.488Z" fill="white"/>
<path d="M169.516 90.0901C169.516 90.3457 169.592 90.5955 169.734 90.808C169.876 91.0204 170.078 91.186 170.314 91.2837C170.55 91.3813 170.81 91.4067 171.061 91.3567C171.311 91.3066 171.541 91.1833 171.722 91.0024C171.902 90.8215 172.025 90.5911 172.075 90.3404C172.124 90.0897 172.098 89.8299 172 89.5939C171.902 89.358 171.736 89.1565 171.523 89.0149C171.31 88.8733 171.06 88.798 170.805 88.7986C170.463 88.7993 170.135 88.9357 169.893 89.1779C169.652 89.42 169.516 89.7481 169.516 90.0901Z" fill="#263238"/>
<path d="M160.833 90.0901C160.833 90.3457 160.909 90.5955 161.051 90.808C161.193 91.0204 161.395 91.186 161.631 91.2837C161.868 91.3813 162.127 91.4067 162.378 91.3567C162.629 91.3066 162.859 91.1833 163.039 91.0024C163.22 90.8215 163.343 90.5911 163.392 90.3404C163.442 90.0897 163.416 89.8299 163.317 89.5939C163.219 89.358 163.053 89.1565 162.841 89.0149C162.628 88.8733 162.378 88.798 162.122 88.7986C161.78 88.7993 161.452 88.9357 161.211 89.1779C160.969 89.42 160.833 89.7481 160.833 90.0901Z" fill="#263238"/>
<path d="M162.948 119.015H189.386L185.531 92.0867H166.803L162.948 119.015Z" fill="#34A1D3"/>
<path d="M166.803 92.0867L169.742 119.018H162.948L166.803 92.0867Z" fill="#34A1D3"/>
<path opacity="0.1" d="M166.803 92.0867L169.742 119.018H162.948L166.803 92.0867Z" fill="black"/>
<path d="M180.249 93.942L181.075 93.7672C181.075 93.7446 180.59 91.483 180.08 89.1988C179.516 86.7313 177.099 85.5948 175.069 85.922C173.551 86.1673 171.868 87.3517 172.122 89.8841C172.404 92.5941 172.598 93.8687 172.607 93.9223L173.453 93.7869C173.453 93.7869 173.244 92.4785 172.976 89.7995C172.779 87.8537 174.006 86.9513 175.218 86.7567C176.859 86.4916 178.825 87.3996 179.268 89.3849C179.775 91.6635 180.249 93.9195 180.249 93.942Z" fill="#263238"/>
<path d="M169.383 118.809C168.839 118.423 168.278 118.07 167.714 117.715C167.15 117.359 166.586 117.027 166.002 116.697L165.92 116.652L165.85 116.705C165.401 117.041 164.956 117.376 164.522 117.732C164.087 118.087 163.653 118.434 163.233 118.806C163.715 118.524 164.18 118.208 164.643 117.895C165.105 117.582 165.562 117.258 166.013 116.928H165.864C166.428 117.266 167.007 117.592 167.601 117.904C168.188 118.222 168.777 118.533 169.383 118.809Z" fill="white"/>
<path d="M165.932 116.818C166.047 115.101 166.135 113.383 166.214 111.663C166.293 109.943 166.349 108.225 166.42 106.508C166.49 104.791 166.527 103.068 166.563 101.35L166.611 98.7699C166.611 97.907 166.634 97.0497 166.631 96.1868C166.569 97.0469 166.527 97.9042 166.473 98.7643L166.346 101.342C166.267 103.059 166.208 104.779 166.14 106.497C166.073 108.214 166.033 109.937 165.997 111.657C165.96 113.377 165.932 115.098 165.932 116.818Z" fill="white"/>
<path d="M179.546 93.8548C179.546 94.0779 179.613 94.296 179.736 94.4815C179.86 94.667 180.037 94.8116 180.243 94.8969C180.449 94.9823 180.676 95.0047 180.894 94.9611C181.113 94.9176 181.314 94.8102 181.472 94.6524C181.63 94.4947 181.737 94.2937 181.781 94.0749C181.824 93.8561 181.802 93.6293 181.717 93.4231C181.631 93.217 181.487 93.0409 181.301 92.9169C181.116 92.793 180.897 92.7268 180.674 92.7268C180.375 92.7268 180.088 92.8456 179.877 93.0572C179.665 93.2687 179.546 93.5556 179.546 93.8548Z" fill="#263238"/>
<path d="M171.995 93.8548C171.995 94.0779 172.061 94.296 172.185 94.4815C172.309 94.667 172.485 94.8116 172.691 94.8969C172.898 94.9823 173.124 95.0047 173.343 94.9611C173.562 94.9176 173.763 94.8102 173.921 94.6524C174.078 94.4947 174.186 94.2937 174.229 94.0749C174.273 93.8561 174.251 93.6293 174.165 93.4231C174.08 93.217 173.935 93.0409 173.75 92.9169C173.564 92.793 173.346 92.7268 173.123 92.7268C172.824 92.7268 172.537 92.8456 172.325 93.0572C172.114 93.2687 171.995 93.5556 171.995 93.8548Z" fill="#263238"/>
<path d="M113.097 22.4637C112.974 23.6389 112.526 24.7568 111.805 25.6928C111.084 26.6288 110.117 27.346 109.012 27.7645C107.906 28.183 106.707 28.2862 105.546 28.0628C104.386 27.8394 103.311 27.298 102.44 26.4991L99.2505 26.9672L100.847 24.2092C100.48 23.3112 100.323 22.3415 100.388 21.3738C100.453 20.4061 100.737 19.4658 101.22 18.6246C101.702 17.7833 102.371 17.0632 103.173 16.519C103.976 15.9748 104.893 15.6208 105.853 15.484C106.813 15.3471 107.792 15.4311 108.715 15.7294C109.637 16.0277 110.48 16.5325 111.179 17.2055C111.877 17.8784 112.413 18.7018 112.745 19.6129C113.078 20.5241 113.198 21.4991 113.097 22.4637Z" fill="white"/>
<path d="M113.097 22.4636C112.974 23.6396 112.529 24.7588 111.811 25.6982C111.631 25.9309 111.438 26.1532 111.233 26.3637C111.019 26.5644 110.794 26.7527 110.559 26.9277C109.608 27.6383 108.482 28.076 107.301 28.1939C107.007 28.2193 106.711 28.2249 106.416 28.2108C106.12 28.2024 105.825 28.1713 105.533 28.1177C104.358 27.9012 103.265 27.3623 102.378 26.5611L102.454 26.5836L99.2644 27.0715L99.0332 27.1082L99.1516 26.9051L100.739 24.1387V24.2487C100.365 23.3342 100.206 22.3461 100.274 21.3605C100.342 20.3749 100.635 19.4181 101.131 18.5636C101.629 17.7135 102.313 16.9867 103.131 16.4373C103.948 15.8935 104.879 15.5442 105.852 15.4164C106.817 15.2879 107.799 15.38 108.723 15.6857C109.648 15.9915 110.491 16.503 111.189 17.1816C111.887 17.8603 112.422 18.6885 112.754 19.6039C113.086 20.5193 113.206 21.498 113.105 22.4664L113.097 22.4636ZM113.097 22.4636C113.198 21.5032 113.077 20.5323 112.745 19.6257C112.412 18.7191 111.875 17.9009 111.177 17.2341C110.478 16.5673 109.636 16.0697 108.715 15.7795C107.793 15.4893 106.818 15.4143 105.863 15.5603C104.918 15.7032 104.017 16.059 103.229 16.6008C102.45 17.148 101.798 17.8581 101.32 18.682C100.851 19.5094 100.575 20.4318 100.511 21.3807C100.452 22.3294 100.606 23.2791 100.959 24.1613L100.985 24.2177L100.954 24.2712L99.3462 27.0236L99.2334 26.8544L102.417 26.406H102.462L102.493 26.437C103.346 27.2345 104.403 27.7793 105.547 28.0106C105.833 28.0679 106.122 28.1027 106.413 28.1149C106.704 28.136 106.996 28.136 107.287 28.1149C107.866 28.0694 108.436 27.9431 108.979 27.7398C109.53 27.5416 110.048 27.2621 110.516 26.9108C110.753 26.7377 110.978 26.5493 111.19 26.3468C111.397 26.1388 111.591 25.9185 111.771 25.6869C112.502 24.7553 112.961 23.6398 113.097 22.4636Z" fill="#263238"/>
<path d="M106.007 25.4388L103.283 22.6808L104.196 21.7756L105.787 23.3858L109.095 18.2026L110.18 18.8964L106.007 25.4388Z" fill="#34A1D3"/>
</svg>
