<svg width="85" height="86" viewBox="0 0 85 86" fill="none" xmlns="http://www.w3.org/2000/svg">
<path d="M84.248 84.5275C83.902 84.8735 83.4501 85.043 82.9982 85.043C82.5463 85.043 82.0944 84.87 81.7484 84.5275L58.9797 61.7589C52.713 67.4325 44.4338 70.9243 35.3355 70.9243C15.8679 70.9207 0.0297852 55.0826 0.0297852 35.615C0.0297852 16.1475 15.8679 0.309326 35.3355 0.309326C43.2687 0.309326 50.7605 2.87958 57.0097 7.74118C57.7793 8.33784 57.917 9.44997 57.3168 10.2196C56.7166 10.9893 55.608 11.127 54.8384 10.5268C49.2212 6.15242 42.4778 3.8399 35.339 3.8399C17.8133 3.8399 3.56036 18.0963 3.56036 35.615C3.56036 41.4546 5.1703 46.9164 7.93473 51.6226L24.5849 31.9044C25.4993 30.824 26.8339 30.1709 28.2426 30.1109C29.6513 30.0473 31.0388 30.5875 32.0415 31.5902L39.3497 38.8985C39.6569 39.2021 40.077 39.3433 40.4937 39.3468C40.9244 39.3327 41.3163 39.1421 41.5952 38.8208L74.606 0.916584C75.245 0.182226 76.3572 0.104553 77.0951 0.743586C77.8294 1.38262 77.9071 2.49828 77.2681 3.23264L44.2643 41.1404C43.3499 42.196 42.0189 42.8315 40.6208 42.8774C39.2262 42.9339 37.8493 42.3867 36.8572 41.3981L29.5489 34.0863C29.2382 33.7756 28.8498 33.6203 28.3944 33.6379C27.9601 33.6556 27.5682 33.8497 27.2858 34.1816L10.0142 54.7119C15.8185 62.3909 24.9909 67.3866 35.339 67.3866C52.8612 67.3866 67.1142 53.1302 67.1142 35.6115C67.1142 32.7694 66.7434 29.9555 66.0056 27.2476C65.7514 26.3049 66.3056 25.3375 67.2483 25.0798C68.2051 24.8221 69.1584 25.3799 69.4126 26.319C70.2316 29.3271 70.6483 32.4516 70.6483 35.608C70.6483 44.7062 67.1565 52.9854 61.4829 59.2522L84.2515 82.0208C84.94 82.7093 84.94 83.8285 84.2515 84.517L84.248 84.5275Z" fill="#323F49"/>
</svg>
