<svg width="61" height="55" viewBox="0 0 61 55" fill="none" xmlns="http://www.w3.org/2000/svg">
<rect width="50.8599" height="39.1895" rx="19.5947" transform="matrix(0.94514 0.326667 -0.2993 0.954159 12.4883 0.640137)" fill="#DDF0FA"/>
<path d="M36.6223 6.84473H16.8469C12.7435 6.84473 9.43115 10.1571 9.43115 14.2605V29.092C9.43115 33.1954 12.7435 36.5078 16.8469 36.5078H36.6223C40.7257 36.5078 44.0381 33.1954 44.0381 29.092V14.2605C44.0381 10.1571 40.7257 6.84473 36.6223 6.84473ZM36.6223 8.49268C38.1879 8.49268 39.6216 9.1189 40.6598 10.1406L30.8215 19.9789C28.5638 22.2366 24.9219 22.2366 22.6642 19.9789L12.8094 10.1406C13.8477 9.1189 15.2814 8.49268 16.8469 8.49268H36.6223ZM42.3901 29.092C42.3901 32.2726 39.8029 34.8599 36.6223 34.8599H16.8469C13.6664 34.8599 11.0791 32.2726 11.0791 29.092V14.2605C11.0791 13.2388 11.3428 12.2994 11.8042 11.459L21.4941 21.1489C22.9443 22.5991 24.8395 23.3242 26.7346 23.3242C28.6298 23.3242 30.5249 22.5991 31.9751 21.1489L41.665 11.459C42.1265 12.283 42.3901 13.2388 42.3901 14.2605V29.092ZM34.1504 40.6277C34.1504 41.0891 33.7878 41.4517 33.3264 41.4517H11.9031C7.81616 41.4517 4.4873 38.1228 4.4873 34.0359V15.9084C4.4873 15.447 4.84985 15.0845 5.31128 15.0845C5.77271 15.0845 6.13525 15.447 6.13525 15.9084V34.0359C6.13525 37.2164 8.72253 39.8037 11.9031 39.8037H33.3264C33.7878 39.8037 34.1504 40.1663 34.1504 40.6277Z" fill="#323F49"/>
</svg>
