<svg width="56" height="81" viewBox="0 0 56 81" fill="none" xmlns="http://www.w3.org/2000/svg">
<path d="M39.5536 0.0473633H15.5232C6.99274 0.0473633 0.0507812 6.84633 0.0507812 15.2011V65.7134C0.0507812 74.0682 6.99274 80.8671 15.5232 80.8671H39.5536C48.0841 80.8671 55.026 74.0682 55.026 65.7134V15.2011C55.026 6.84633 48.0841 0.0473633 39.5536 0.0473633ZM51.5877 65.7134C51.5877 72.2127 46.1896 77.4996 39.5536 77.4996H15.5232C8.88726 77.4996 3.4891 72.2127 3.4891 65.7134V15.2011C3.4891 8.70181 8.88726 3.41485 15.5232 3.41485H39.5536C46.1896 3.41485 51.5877 8.70181 51.5877 15.2011V65.7134ZM41.2728 52.2435C41.2728 53.1729 40.5026 53.9272 39.5536 53.9272H15.4854C14.5364 53.9272 13.7662 53.1729 13.7662 52.2435C13.7662 51.314 14.5364 50.5597 15.4854 50.5597H39.5536C40.5026 50.5597 41.2728 51.314 41.2728 52.2435ZM34.3961 69.0809C34.3961 70.0103 33.6259 70.7647 32.677 70.7647H22.362C21.413 70.7647 20.6429 70.0103 20.6429 69.0809C20.6429 68.1515 21.413 67.3972 22.362 67.3972H32.677C33.6259 67.3972 34.3961 68.1515 34.3961 69.0809ZM19.0372 43.8247C19.8177 43.8247 20.5019 43.3095 20.6979 42.5687L22.1729 37.0898H33.0999L34.4821 42.5451C34.6712 43.296 35.3589 43.8247 36.1497 43.8247C37.2671 43.8247 38.0854 42.7977 37.8173 41.7369L32.4638 20.5857C32.1028 19.0771 31.0541 17.8344 29.665 17.2687C28.3344 16.7164 26.8387 16.767 25.57 17.4068C24.3012 18.0399 23.3935 19.1781 23.0875 20.4746L17.373 41.7167C17.0876 42.7842 17.9094 43.8281 19.0337 43.8281L19.0372 43.8247ZM26.4261 21.2794C26.5121 20.9022 26.7734 20.5823 27.1344 20.4005C27.4989 20.2153 27.939 20.2052 28.3413 20.3702C28.716 20.5251 29.0083 20.8888 29.1252 21.3703L32.2506 33.7223H23.0806L26.4261 21.2794Z" fill="#323F49"/>
</svg>
