<svg width="67" height="64" viewBox="0 0 67 64" fill="none" xmlns="http://www.w3.org/2000/svg">
<path d="M42.0712 19.1007C39.8922 16.9284 36.9594 15.7322 33.8135 15.7322C27.3191 15.7322 22.0309 20.8185 21.9937 27.0849V27.1522C22.0128 31.6041 23.9089 34.1227 25.4341 36.1487C26.6161 37.7183 27.3965 38.755 27.3965 40.5031V43.5902C27.3965 46.2613 29.6243 48.4347 32.3626 48.4347H35.2638C38.0192 48.4347 40.2605 46.2613 40.2605 43.5902V40.5031C40.2605 38.7233 41.049 37.6237 42.14 36.1019C43.5878 34.0827 45.3879 31.5729 45.406 27.1522V27.0849H45.4055C45.3885 24.0617 44.206 21.2286 42.0712 19.1007ZM32.542 43.442V40.9459H35.115V43.442H32.542ZM37.9167 33.2503C37.3277 34.0714 36.7046 34.9414 36.1955 35.9527H31.4214C30.8816 34.9209 30.2168 34.0368 29.5891 33.2035C28.2805 31.4651 27.1493 29.9628 27.1392 27.1229C27.1558 23.5926 30.1434 20.7249 33.8135 20.7249C37.4187 20.7249 40.2455 23.5326 40.2605 27.1229C40.251 29.994 39.1685 31.5042 37.9167 33.2503ZM64.0101 32.0854C64.788 30.1549 65.4026 28.2137 65.8413 26.2823C66.7675 22.2039 66.867 18.3702 66.1373 14.8882C65.3544 11.1501 63.6543 7.99085 61.0848 5.49767C58.5148 3.004 55.2588 1.3544 51.4064 0.594697C47.8182 -0.113321 43.8673 -0.016773 39.6635 0.881902C37.673 1.30759 35.6723 1.90394 33.6828 2.65877C31.6942 1.90492 29.6951 1.30759 27.7061 0.881902C23.5028 -0.016773 19.5519 -0.113321 15.9627 0.594697C12.1108 1.3544 8.85482 3.004 6.28483 5.49767C3.71534 7.99085 2.01525 11.1501 1.2323 14.8882C0.502609 18.3702 0.602112 22.2039 1.52829 26.2823C1.96651 28.2123 2.58262 30.152 3.35904 32.0815C2.58162 34.012 1.96701 35.9532 1.52829 37.8846C0.602112 41.963 0.502609 45.7966 1.2323 49.2787C2.01525 53.0168 3.71534 56.176 6.28483 58.6692C8.85482 61.1629 12.1108 62.812 15.9627 63.5722C17.5427 63.8838 19.1926 64.0398 20.9037 64.0398C23.0792 64.0398 25.3532 63.7877 27.7056 63.2845C29.6961 62.8588 31.6968 62.2629 33.6868 61.5081C35.6754 62.262 37.6745 62.8593 39.6635 63.2845C42.0164 63.7877 44.2899 64.0398 46.4654 64.0398C48.176 64.0398 49.8269 63.8838 51.4064 63.5722C55.2588 62.812 58.5148 61.1624 61.0843 58.6697C63.6543 56.176 65.3539 53.0168 66.1373 49.2787C66.867 45.7966 66.7675 41.963 65.8408 37.8846C65.4026 35.9546 64.787 34.0149 64.0101 32.0854ZM40.7706 5.75806C42.7773 5.32896 44.6929 5.11684 46.493 5.11684C51.0018 5.11684 54.7859 6.44657 57.4459 9.02801C61.1687 12.6398 62.3652 18.3858 60.8159 25.2076C60.7898 25.3236 60.7621 25.4392 60.734 25.5552C58.3791 21.6504 55.3809 17.8909 51.8461 14.4615C48.3117 11.0316 44.4371 8.1225 40.4128 5.83754C40.5324 5.81023 40.6515 5.78341 40.7706 5.75806ZM26.5985 58.4093C24.5918 58.8384 22.6767 59.05 20.8761 59.05C16.3678 59.05 12.5837 57.7203 9.92322 55.1389C6.20091 51.5271 5.00386 45.781 6.55319 38.9593C6.57932 38.8433 6.60746 38.7277 6.6351 38.6116C8.99 42.5165 11.9882 46.276 15.523 49.7054C19.0579 53.1353 22.9325 56.0444 26.9563 58.3298C26.8372 58.3566 26.7181 58.3835 26.5985 58.4093ZM57.4459 55.1389C53.7236 58.7511 47.8011 59.9126 40.7706 58.4093C40.652 58.3835 40.5329 58.3557 40.4138 58.3289C42.429 57.1844 44.4065 55.8839 46.3227 54.4396C44.7623 53.6414 43.516 52.3414 42.8149 50.7606C39.8781 52.9383 36.8 54.7361 33.6838 56.0975C28.5911 53.8735 23.5993 50.4812 19.1614 46.175C14.724 41.8694 11.2278 37.0259 8.93573 32.0844C10.3514 29.0329 12.2259 26.019 14.4978 23.1454C12.846 22.5194 11.47 21.3564 10.5976 19.8784C9.12719 21.7197 7.803 23.6189 6.63611 25.5538C6.60847 25.4382 6.57932 25.3231 6.55319 25.2076C5.00386 18.3858 6.20091 12.6398 9.92322 9.02801C12.5837 6.44657 16.3673 5.11684 20.8761 5.11684C22.6762 5.11684 24.5924 5.32896 26.5985 5.75806C26.7171 5.78293 26.8362 5.81121 26.9548 5.83803C24.9672 6.96686 23.0154 8.24733 21.1238 9.66873C22.6465 10.5157 23.8446 11.8513 24.4893 13.4546C27.4458 11.2554 30.5464 9.44053 33.6853 8.06935C38.7785 10.2939 43.7698 13.6862 48.2077 17.9918C52.6456 22.298 56.1413 27.141 58.4339 32.083C57.0333 35.1008 55.1845 38.0821 52.9456 40.9268C54.5754 41.6066 55.9156 42.8154 56.7388 44.3294C58.2223 42.4755 59.5576 40.5621 60.733 38.6131C60.7606 38.7287 60.7898 38.8442 60.8159 38.9593C62.3652 45.781 61.1687 51.5271 57.4459 55.1389ZM52.4813 47.8105C52.4813 49.1895 51.3295 50.3071 49.9083 50.3071C48.4876 50.3071 47.3358 49.1895 47.3358 47.8105C47.3358 46.432 48.4876 45.3144 49.9083 45.3144C51.3295 45.3144 52.4813 46.432 52.4813 47.8105ZM19.8067 16.2315C19.8067 17.61 18.6548 18.7277 17.2342 18.7277C15.813 18.7277 14.6612 17.61 14.6612 16.2315C14.6612 14.8526 15.813 13.735 17.2342 13.735C18.6548 13.735 19.8067 14.8526 19.8067 16.2315Z" fill="#2190CC"/>
<path d="M42.0712 19.1007C39.8922 16.9284 36.9594 15.7322 33.8135 15.7322C27.3191 15.7322 22.0309 20.8185 21.9937 27.0849V27.1522C22.0128 31.6041 23.9089 34.1227 25.4341 36.1487C26.6161 37.7183 27.3965 38.755 27.3965 40.5031V43.5902C27.3965 46.2613 29.6243 48.4347 32.3626 48.4347H35.2638C38.0192 48.4347 40.2605 46.2613 40.2605 43.5902V40.5031C40.2605 38.7233 41.049 37.6237 42.14 36.1019C43.5878 34.0827 45.3879 31.5729 45.406 27.1522V27.0849H45.4055C45.3885 24.0617 44.206 21.2286 42.0712 19.1007ZM32.542 43.442V40.9459H35.115V43.442H32.542ZM37.9167 33.2503C37.3277 34.0714 36.7046 34.9414 36.1955 35.9527H31.4214C30.8816 34.9209 30.2168 34.0368 29.5891 33.2035C28.2805 31.4651 27.1493 29.9628 27.1392 27.1229C27.1558 23.5926 30.1434 20.7249 33.8135 20.7249C37.4187 20.7249 40.2455 23.5326 40.2605 27.1229C40.251 29.994 39.1685 31.5042 37.9167 33.2503ZM64.0101 32.0854C64.788 30.1549 65.4026 28.2137 65.8413 26.2823C66.7675 22.2039 66.867 18.3702 66.1373 14.8882C65.3544 11.1501 63.6543 7.99085 61.0848 5.49767C58.5148 3.004 55.2588 1.3544 51.4064 0.594697C47.8182 -0.113321 43.8673 -0.016773 39.6635 0.881902C37.673 1.30759 35.6723 1.90394 33.6828 2.65877C31.6942 1.90492 29.6951 1.30759 27.7061 0.881902C23.5028 -0.016773 19.5519 -0.113321 15.9627 0.594697C12.1108 1.3544 8.85482 3.004 6.28483 5.49767C3.71534 7.99085 2.01525 11.1501 1.2323 14.8882C0.502609 18.3702 0.602112 22.2039 1.52829 26.2823C1.96651 28.2123 2.58262 30.152 3.35904 32.0815C2.58162 34.012 1.96701 35.9532 1.52829 37.8846C0.602112 41.963 0.502609 45.7966 1.2323 49.2787C2.01525 53.0168 3.71534 56.176 6.28483 58.6692C8.85482 61.1629 12.1108 62.812 15.9627 63.5722C17.5427 63.8838 19.1926 64.0398 20.9037 64.0398C23.0792 64.0398 25.3532 63.7877 27.7056 63.2845C29.6961 62.8588 31.6968 62.2629 33.6868 61.5081C35.6754 62.262 37.6745 62.8593 39.6635 63.2845C42.0164 63.7877 44.2899 64.0398 46.4654 64.0398C48.176 64.0398 49.8269 63.8838 51.4064 63.5722C55.2588 62.812 58.5148 61.1624 61.0843 58.6697C63.6543 56.176 65.3539 53.0168 66.1373 49.2787C66.867 45.7966 66.7675 41.963 65.8408 37.8846C65.4026 35.9546 64.787 34.0149 64.0101 32.0854ZM40.7706 5.75806C42.7773 5.32896 44.6929 5.11684 46.493 5.11684C51.0018 5.11684 54.7859 6.44657 57.4459 9.02801C61.1687 12.6398 62.3652 18.3858 60.8159 25.2076C60.7898 25.3236 60.7621 25.4392 60.734 25.5552C58.3791 21.6504 55.3809 17.8909 51.8461 14.4615C48.3117 11.0316 44.4371 8.1225 40.4128 5.83754C40.5324 5.81023 40.6515 5.78341 40.7706 5.75806ZM26.5985 58.4093C24.5918 58.8384 22.6767 59.05 20.8761 59.05C16.3678 59.05 12.5837 57.7203 9.92322 55.1389C6.20091 51.5271 5.00386 45.781 6.55319 38.9593C6.57932 38.8433 6.60746 38.7277 6.6351 38.6116C8.99 42.5165 11.9882 46.276 15.523 49.7054C19.0579 53.1353 22.9325 56.0444 26.9563 58.3298C26.8372 58.3566 26.7181 58.3835 26.5985 58.4093ZM57.4459 55.1389C53.7236 58.7511 47.8011 59.9126 40.7706 58.4093C40.652 58.3835 40.5329 58.3557 40.4138 58.3289C42.429 57.1844 44.4065 55.8839 46.3227 54.4396C44.7623 53.6414 43.516 52.3414 42.8149 50.7606C39.8781 52.9383 36.8 54.7361 33.6838 56.0975C28.5911 53.8735 23.5993 50.4812 19.1614 46.175C14.724 41.8694 11.2278 37.0259 8.93573 32.0844C10.3514 29.0329 12.2259 26.019 14.4978 23.1454C12.846 22.5194 11.47 21.3564 10.5976 19.8784C9.12719 21.7197 7.803 23.6189 6.63611 25.5538C6.60847 25.4382 6.57932 25.3231 6.55319 25.2076C5.00386 18.3858 6.20091 12.6398 9.92322 9.02801C12.5837 6.44657 16.3673 5.11684 20.8761 5.11684C22.6762 5.11684 24.5924 5.32896 26.5985 5.75806C26.7171 5.78293 26.8362 5.81121 26.9548 5.83803C24.9672 6.96686 23.0154 8.24733 21.1238 9.66873C22.6465 10.5157 23.8446 11.8513 24.4893 13.4546C27.4458 11.2554 30.5464 9.44053 33.6853 8.06935C38.7785 10.2939 43.7698 13.6862 48.2077 17.9918C52.6456 22.298 56.1413 27.141 58.4339 32.083C57.0333 35.1008 55.1845 38.0821 52.9456 40.9268C54.5754 41.6066 55.9156 42.8154 56.7388 44.3294C58.2223 42.4755 59.5576 40.5621 60.733 38.6131C60.7606 38.7287 60.7898 38.8442 60.8159 38.9593C62.3652 45.781 61.1687 51.5271 57.4459 55.1389ZM52.4813 47.8105C52.4813 49.1895 51.3295 50.3071 49.9083 50.3071C48.4876 50.3071 47.3358 49.1895 47.3358 47.8105C47.3358 46.432 48.4876 45.3144 49.9083 45.3144C51.3295 45.3144 52.4813 46.432 52.4813 47.8105ZM19.8067 16.2315C19.8067 17.61 18.6548 18.7277 17.2342 18.7277C15.813 18.7277 14.6612 17.61 14.6612 16.2315C14.6612 14.8526 15.813 13.735 17.2342 13.735C18.6548 13.735 19.8067 14.8526 19.8067 16.2315Z" fill="#2190CC"/>
</svg>
