<?xml version="1.0" encoding="UTF-8"?>
<!DOCTYPE svg PUBLIC "-//W3C//DTD SVG 1.1//EN" "http://www.w3.org/Graphics/SVG/1.1/DTD/svg11.dtd">
<svg xmlns="http://www.w3.org/2000/svg" version="1.1" width="200px" height="200px" style="shape-rendering:geometricPrecision; text-rendering:geometricPrecision; image-rendering:optimizeQuality; fill-rule:evenodd; clip-rule:evenodd" xmlns:xlink="http://www.w3.org/1999/xlink">
<g><path style="opacity:1" fill="#fcfcfc" d="M -0.5,-0.5 C 66.1667,-0.5 132.833,-0.5 199.5,-0.5C 199.5,66.1667 199.5,132.833 199.5,199.5C 132.833,199.5 66.1667,199.5 -0.5,199.5C -0.5,132.833 -0.5,66.1667 -0.5,-0.5 Z"/></g>
<g><path style="opacity:1" fill="#505050" d="M 89.5,7.5 C 97.9174,7.0943 106.251,7.5943 114.5,9C 134.759,20.2677 154.759,31.9343 174.5,44C 180.822,49.9014 184.989,57.068 187,65.5C 187.667,90.5 187.667,115.5 187,140.5C 183.776,148.44 178.943,155.273 172.5,161C 151.865,172.653 131.199,184.319 110.5,196C 103.5,196.667 96.5,196.667 89.5,196C 69.0036,184.586 48.6703,172.919 28.5,161C 20.7226,154.938 15.8893,147.105 14,137.5C 13.3333,113.833 13.3333,90.1667 14,66.5C 15.8575,55.6426 21.3575,47.1426 30.5,41C 50.2612,29.7921 69.9279,18.6254 89.5,7.5 Z"/></g>
<g><path style="opacity:1" fill="#fcfcfc" d="M 93.5,10.5 C 101.173,9.73585 108.507,10.9025 115.5,14C 132.539,24.5191 149.872,34.5191 167.5,44C 175.486,49.1402 180.653,56.3069 183,65.5C 183.667,89.5 183.667,113.5 183,137.5C 181.106,146.141 176.606,152.974 169.5,158C 149.619,170.108 129.285,181.441 108.5,192C 100.143,193.375 92.1428,192.375 84.5,189C 66.3306,178.081 47.9972,167.414 29.5,157C 23.2275,151.957 19.3942,145.457 18,137.5C 17.3333,113.167 17.3333,88.8333 18,64.5C 20.5439,55.6304 25.7106,48.7971 33.5,44C 53.1523,32.0121 73.1523,20.8454 93.5,10.5 Z"/></g>
<g><path style="opacity:1" fill="#353533" d="M 91.5,51.5 C 120.71,49.5894 140.21,62.256 150,89.5C 154.194,112.95 146.694,131.45 127.5,145C 99.0672,159.184 75.5672,153.35 57,127.5C 44.9018,100.878 50.0684,78.3785 72.5,60C 78.6196,56.4694 84.953,53.636 91.5,51.5 Z"/></g>
<g><path style="opacity:1" fill="#f4f5f3" d="M 96.5,97.5 C 96.573,99.0269 95.9063,100.027 94.5,100.5C 93.8354,102.369 93.1687,104.369 92.5,106.5C 91.5159,103.572 91.1826,100.572 91.5,97.5C 93.1667,97.5 94.8333,97.5 96.5,97.5 Z"/></g>
<g><path style="opacity:1" fill="#dcdddb" d="M 77.5,96.5 C 77.5,97.5 77.5,98.5 77.5,99.5C 76.3054,99.8656 75.6387,100.699 75.5,102C 76.0294,103.559 76.696,105.059 77.5,106.5C 75.8647,107.681 74.198,107.681 72.5,106.5C 68.5719,107.767 64.5719,108.267 60.5,108C 57.096,104.585 56.7627,100.919 59.5,97C 65.8691,96.0346 68.7025,98.868 68,105.5C 71.0142,103.466 71.1809,101.132 68.5,98.5C 71.4377,97.5109 74.4377,96.8442 77.5,96.5 Z"/></g>
<g><path style="opacity:1" fill="#9a9c99" d="M 135.5,96.5 C 138.365,96.0548 140.865,96.7215 143,98.5C 143.262,101.43 143.096,104.43 142.5,107.5C 140.161,108.724 137.828,108.724 135.5,107.5C 134.745,103.992 134.745,100.325 135.5,96.5 Z"/></g>
<g><path style="opacity:1" fill="#b1b3b0" d="M 96.5,97.5 C 94.8333,97.5 93.1667,97.5 91.5,97.5C 91.1826,100.572 91.5159,103.572 92.5,106.5C 93.1687,104.369 93.8354,102.369 94.5,100.5C 94.5,102.833 94.5,105.167 94.5,107.5C 93.1667,107.5 91.8333,107.5 90.5,107.5C 90.5,103.833 90.5,100.167 90.5,96.5C 92.7354,96.2053 94.7354,96.5386 96.5,97.5 Z"/></g>
<g><path style="opacity:1" fill="#dcdedb" d="M 107.5,98.5 C 107.5,100.167 107.5,101.833 107.5,103.5C 105.396,103.201 103.396,103.534 101.5,104.5C 103.117,104.669 104.784,105.003 106.5,105.5C 106.137,106.183 105.804,106.85 105.5,107.5C 99.3128,108.809 96.8128,106.143 98,99.5C 100.698,95.86 103.865,95.5267 107.5,98.5 Z"/></g>
<g><path style="opacity:1" fill="#959794" d="M 129.5,92.5 C 130.833,92.5 132.167,92.5 133.5,92.5C 133.666,98.5092 133.499,104.509 133,110.5C 131.644,111.38 130.144,111.714 128.5,111.5C 129.57,105.049 129.904,98.7156 129.5,92.5 Z"/></g>
<g><path style="opacity:1" fill="#959794" d="M 77.5,96.5 C 79.5,96.5 81.5,96.5 83.5,96.5C 82.4324,97.4345 81.099,97.7678 79.5,97.5C 79.1744,101.884 79.5078,106.217 80.5,110.5C 81.3857,109.675 81.719,108.675 81.5,107.5C 83.5,107.5 85.5,107.5 87.5,107.5C 86.0813,108.451 84.4147,108.784 82.5,108.5C 82.5,109.5 82.5,110.5 82.5,111.5C 81.1667,111.5 79.8333,111.5 78.5,111.5C 78.8168,107.298 78.4834,103.298 77.5,99.5C 77.5,98.5 77.5,97.5 77.5,96.5 Z"/></g>
<g><path style="opacity:1" fill="#d8dad7" d="M 109.5,106.5 C 109.369,105.624 109.702,104.957 110.5,104.5C 115.837,105.13 115.837,104.464 110.5,102.5C 109.548,100.955 109.215,99.288 109.5,97.5C 111.628,96.3709 113.961,96.2042 116.5,97C 117.086,99.2798 117.92,101.447 119,103.5C 117.736,98.0964 119.903,95.9298 125.5,97C 126.91,97.3678 127.91,98.2011 128.5,99.5C 128.119,101.741 127.952,104.074 128,106.5C 124.647,109.16 121.314,109.16 118,106.5C 116.532,107.628 114.865,108.294 113,108.5C 111.301,108.613 110.134,107.947 109.5,106.5 Z"/></g>
<g><path style="opacity:1" fill="#8d8f8c" d="M 109.5,97.5 C 109.215,99.288 109.548,100.955 110.5,102.5C 115.837,104.464 115.837,105.13 110.5,104.5C 109.702,104.957 109.369,105.624 109.5,106.5C 108.883,106.389 108.383,106.056 108,105.5C 107.583,106.756 106.75,107.423 105.5,107.5C 105.804,106.85 106.137,106.183 106.5,105.5C 104.784,105.003 103.117,104.669 101.5,104.5C 103.396,103.534 105.396,103.201 107.5,103.5C 107.5,101.833 107.5,100.167 107.5,98.5C 108.167,98.1667 108.833,97.8333 109.5,97.5 Z"/></g>
<g><path style="opacity:1" fill="#eaece9" d="M 83.5,96.5 C 86.982,96.7377 88.982,98.571 89.5,102C 89.6052,104.178 88.9385,106.012 87.5,107.5C 85.5,107.5 83.5,107.5 81.5,107.5C 81.719,108.675 81.3857,109.675 80.5,110.5C 79.5078,106.217 79.1744,101.884 79.5,97.5C 81.099,97.7678 82.4324,97.4345 83.5,96.5 Z"/></g>
<g><path style="opacity:1" fill="#333532" d="M 83.5,100.5 C 84.5862,100.62 85.2528,101.287 85.5,102.5C 85.1667,103.167 84.8333,103.833 84.5,104.5C 83.5713,103.311 83.238,101.978 83.5,100.5 Z"/></g>
</svg>
