<svg width="11" height="8" viewBox="0 0 11 8" fill="none" xmlns="http://www.w3.org/2000/svg">
<path fill-rule="evenodd" clip-rule="evenodd" d="M3.71834 4.02823C3.71834 2.99115 4.55906 2.15043 5.59614 2.15043C6.63322 2.15043 7.47393 2.99115 7.47393 4.02823C7.47393 5.0653 6.63322 5.90602 5.59614 5.90602C4.55906 5.90602 3.71834 5.0653 3.71834 4.02823ZM5.59614 2.90155C4.97389 2.90155 4.46946 3.40598 4.46946 4.02823C4.46946 4.65047 4.97389 5.1549 5.59614 5.1549C6.21838 5.1549 6.72282 4.65047 6.72282 4.02823C6.72282 3.40598 6.21838 2.90155 5.59614 2.90155Z" fill="#B6C3CD"/>
<path fill-rule="evenodd" clip-rule="evenodd" d="M1.75213 3.35039C1.54226 3.65281 1.46499 3.88937 1.46499 4.02823C1.46499 4.16708 1.54226 4.40364 1.75213 4.70606C1.955 4.99839 2.25655 5.31528 2.63807 5.6081C3.40276 6.19499 4.45116 6.65714 5.59614 6.65714C6.74112 6.65714 7.78951 6.19499 8.55421 5.6081C8.93572 5.31528 9.23727 4.99839 9.44015 4.70606C9.65002 4.40364 9.72729 4.16708 9.72729 4.02823C9.72729 3.88937 9.65002 3.65281 9.44015 3.35039C9.23727 3.05806 8.93572 2.74117 8.55421 2.44836C7.78951 1.86146 6.74112 1.39931 5.59614 1.39931C4.45116 1.39931 3.40276 1.86146 2.63807 2.44836C2.25655 2.74117 1.955 3.05806 1.75213 3.35039ZM2.18075 1.8525C3.04717 1.18754 4.25213 0.648193 5.59614 0.648193C6.94015 0.648193 8.14511 1.18754 9.01152 1.8525C9.44556 2.18562 9.804 2.55726 10.0572 2.92215C10.3035 3.27696 10.4784 3.66634 10.4784 4.02823C10.4784 4.39012 10.3035 4.77949 10.0572 5.1343C9.804 5.49919 9.44556 5.87083 9.01152 6.20395C8.14511 6.86892 6.94015 7.40826 5.59614 7.40826C4.25213 7.40826 3.04717 6.86892 2.18075 6.20395C1.74672 5.87083 1.38828 5.49919 1.13505 5.1343C0.888813 4.77949 0.713867 4.39012 0.713867 4.02823C0.713867 3.66634 0.888813 3.27696 1.13505 2.92215C1.38828 2.55726 1.74672 2.18562 2.18075 1.8525Z" fill="#B6C3CD"/>
</svg>
