<svg width="86" height="81" viewBox="0 0 86 81" fill="none" xmlns="http://www.w3.org/2000/svg">
<g clip-path="url(#clip0_645_3272)">
<path d="M85.2647 17.2625V24.39C85.2647 25.3735 84.4664 26.1718 83.4828 26.1718C82.4993 26.1718 81.701 25.3735 81.701 24.39V17.2625C81.701 10.3846 76.1059 4.78954 69.228 4.78954H15.7723C8.89434 4.78954 3.29931 10.3846 3.29931 17.2625V56.4634C3.29931 63.3413 8.89434 68.9364 15.7723 68.9364H30.0272C31.0107 68.9364 31.809 69.7346 31.809 70.7182C31.809 71.7018 31.0107 72.5001 30.0272 72.5001H15.7723C6.93073 72.5001 -0.264404 65.3049 -0.264404 56.4634V17.2625C-0.264404 8.42097 6.93073 1.22583 15.7723 1.22583H69.228C78.0696 1.22583 85.2647 8.42097 85.2647 17.2625ZM47.8457 22.6081H72.7917C73.7753 22.6081 74.5736 21.8098 74.5736 20.8262C74.5736 19.8427 73.7753 19.0444 72.7917 19.0444H47.8457C46.8621 19.0444 46.0639 19.8427 46.0639 20.8262C46.0639 21.8098 46.8621 22.6081 47.8457 22.6081ZM47.8457 36.863H58.5368C59.5204 36.863 60.3187 36.0647 60.3187 35.0811C60.3187 34.0975 59.5204 33.2992 58.5368 33.2992H47.8457C46.8621 33.2992 46.0639 34.0975 46.0639 35.0811C46.0639 36.0647 46.8621 36.863 47.8457 36.863ZM82.6561 35.9079C84.3417 37.59 85.2647 39.828 85.2647 42.2085C85.2647 44.5891 84.3381 46.8271 82.6561 48.5092L55.1905 75.9747C52.8385 78.3303 49.706 79.6275 46.3703 79.6275H40.7183C39.7347 79.6275 38.9364 78.8292 38.9364 77.8456V72.1936C38.9364 68.9114 40.2693 65.6969 42.5892 63.3734L70.0548 35.9079C73.5294 32.4333 79.185 32.4333 82.6561 35.9079ZM81.701 42.2085C81.701 40.7795 81.145 39.4395 80.1365 38.4274C78.0553 36.3427 74.6591 36.3427 72.5779 38.4274L45.1123 65.893C43.4517 67.5501 42.5037 69.8487 42.5037 72.1936V76.0638H46.3739C48.7545 76.0638 50.9925 75.1372 52.6745 73.4552L80.1401 45.9896C81.1486 44.9811 81.701 43.6376 81.701 42.2085ZM27.6644 35.9435L18.7908 34.2793C16.0111 33.759 13.9904 31.3214 13.9904 28.4918C13.9904 25.2453 16.6312 22.6045 19.8741 22.6045H26.1962C28.4164 22.6045 30.4869 23.7984 31.6023 25.7228C32.0977 26.5745 33.1917 26.8632 34.0363 26.3749C34.8881 25.8832 35.1803 24.7927 34.6885 23.9409C32.9423 20.9189 29.6922 19.0408 26.1997 19.0408H24.6816V13.6953C24.6816 12.7117 23.8833 11.9134 22.8997 11.9134C21.9161 11.9134 21.1179 12.7117 21.1179 13.6953V19.0408H19.8741C14.664 19.0408 10.4267 23.2781 10.4267 28.4918C10.4267 33.0355 13.6661 36.9414 18.135 37.7788L27.0087 39.4431C29.7884 39.9634 31.809 42.401 31.809 45.2305C31.809 48.4771 29.1683 51.1178 25.9253 51.1178H19.6033C17.3831 51.1178 15.3126 49.924 14.1971 47.9996C13.6982 47.1407 12.6006 46.8556 11.7631 47.3474C10.9114 47.8392 10.6192 48.9297 11.111 49.7814C12.8572 52.8034 16.1073 54.6815 19.5997 54.6815H21.1179V60.0271C21.1179 61.0107 21.9161 61.8089 22.8997 61.8089C23.8833 61.8089 24.6816 61.0107 24.6816 60.0271V54.6815H25.9253C31.1355 54.6815 35.3727 50.4443 35.3727 45.2305C35.3727 40.6868 32.1333 36.781 27.6644 35.9435Z" fill="#323F49"/>
</g>
<defs>
<clipPath id="clip0_645_3272">
<rect width="85.528" height="81" fill="white" transform="translate(-0.00012207 0.00146484)"/>
</clipPath>
</defs>
</svg>
