<svg width="153" height="117" viewBox="0 0 153 117" fill="none" xmlns="http://www.w3.org/2000/svg">
<g clip-path="url(#clip0_618_6296)">
<path d="M107.374 46.2319L102.586 51.1039C103.888 47.4079 103.048 43.0819 100.024 40.1839L98.3443 38.5459L68.9023 9.35592L76.4203 1.71191L107.206 31.5319C111.322 35.5219 111.406 42.1159 107.374 46.2319Z" fill="url(#paint0_linear_618_6296)"/>
<path d="M102.544 51.1039L77.3024 76.7239L69.2384 68.9119L68.4404 68.1559L98.3024 38.5459L99.9824 40.1839C103.006 43.0819 103.888 47.4079 102.544 51.1039Z" fill="url(#paint1_linear_618_6296)"/>
<path d="M102.544 51.1039L77.3024 76.7239L69.2384 68.9119L68.4404 68.1559L98.3024 38.5459L99.0584 39.2599L99.9824 40.1419C100.738 40.8559 101.326 41.6959 101.83 42.5359C103.3 45.1819 103.552 48.3319 102.544 51.1039Z" fill="url(#paint2_linear_618_6296)"/>
<path d="M76.4206 1.71198L107.207 31.532C111.323 35.522 111.407 42.158 107.375 46.232L102.587 51.104L77.3446 76.724L69.2806 68.912L68.4826 68.156L98.3446 38.546L68.9026 9.35599L76.4206 1.71198ZM76.4206 0.997986C76.2526 0.997986 76.0426 1.08199 75.9166 1.20799L68.3986 8.85198C68.1466 9.10398 68.1466 9.56599 68.3986 9.81799L97.3366 38.546L67.9366 67.694C67.8106 67.82 67.7266 67.988 67.7266 68.198C67.7266 68.366 67.8106 68.576 67.9366 68.702L68.7346 69.458L76.7986 77.27C76.9246 77.396 77.0926 77.48 77.3026 77.48C77.4706 77.48 77.6806 77.396 77.8066 77.27L103.049 51.65L107.837 46.778C108.887 45.728 109.685 44.468 110.231 43.082C110.777 41.738 111.029 40.352 110.987 38.882C110.987 37.454 110.693 36.026 110.105 34.724C109.517 33.338 108.677 32.12 107.627 31.07L76.8406 1.24999C76.7566 1.08199 76.5886 0.997986 76.4206 0.997986Z" fill="#5AC9E3"/>
<path opacity="0.35" d="M109.138 38.84C109.138 39.092 109.138 39.302 109.138 39.554C108.76 37.832 107.878 36.236 106.576 34.976L76.672 5.99603L72.01 10.742L70.582 9.35603L76.462 3.39203L106.366 32.372C108.13 34.094 109.096 36.404 109.138 38.84Z" fill="white"/>
<path opacity="0.35" d="M101.872 42.5778L73.2701 70.9698L70.1621 67.9878L99.1001 39.2598L100.024 40.1418C100.78 40.8978 101.368 41.7378 101.872 42.5778Z" fill="white"/>
<path d="M64.0304 28.9701L60.2924 32.7501L52.6064 25.2321L56.3864 21.4521L64.0304 28.9701Z" fill="url(#paint3_linear_618_6296)"/>
<path d="M59.2842 39.0078L59.1162 38.8398L48.6582 28.8438L44.0802 33.5058C41.0142 36.6558 41.1402 41.7378 44.2902 44.7618L49.0362 49.2978L59.2842 39.0078Z" fill="url(#paint4_linear_618_6296)"/>
<path d="M71.38 21.662L67.726 25.316L60.25 17.882L63.946 14.27L71.38 21.662Z" fill="url(#paint5_linear_618_6296)"/>
<path d="M60.166 60.2598L63.988 63.9558L71.506 56.3538L67.684 52.6158L60.166 60.2598Z" fill="url(#paint6_linear_618_6296)"/>
<path d="M52.6064 53.078L56.3864 56.648L63.6944 49.13L59.9564 45.56L52.6064 53.078Z" fill="url(#paint7_linear_618_6296)"/>
<path d="M0.820312 92.306H10.9003C13.2523 92.306 15.2683 92.81 16.9063 93.776C18.5443 94.784 19.7623 96.128 20.6023 97.892C21.4423 99.656 21.8623 101.714 21.8623 104.066C21.8623 106.418 21.4423 108.476 20.6023 110.24C19.7623 112.004 18.5443 113.39 16.9063 114.356C15.3103 115.322 13.2943 115.826 10.9423 115.826H0.820312V92.306ZM10.1023 111.542C11.3623 111.542 12.4963 111.29 13.5043 110.828C14.5123 110.366 15.2683 109.568 15.8143 108.476C16.3603 107.384 16.6543 105.872 16.6543 103.982C16.6543 102.134 16.3603 100.664 15.8143 99.572C15.2683 98.48 14.4703 97.724 13.5043 97.262C12.4963 96.8 11.3623 96.548 10.0603 96.548H5.86031V111.542H10.1023Z" fill="#333542"/>
<path d="M28.2049 115.028C26.9029 114.314 25.9369 113.264 25.2229 111.962C24.5089 110.618 24.1729 109.106 24.1729 107.342C24.1729 105.452 24.5089 103.856 25.2229 102.512C25.9369 101.168 26.9029 100.118 28.2049 99.3619C29.4649 98.6059 30.9769 98.2279 32.6989 98.2279C34.7149 98.2279 36.3949 98.6479 37.6969 99.5299C38.9989 100.412 39.9229 101.588 40.5109 103.1C41.0569 104.612 41.2669 106.334 41.0569 108.266H28.8769C28.8349 109.652 29.2129 110.702 29.9689 111.458C30.7249 112.214 31.6909 112.592 32.8669 112.592C33.7909 112.592 34.5469 112.382 35.1769 112.004C35.8069 111.626 36.2269 111.08 36.3949 110.408H40.9309C40.7629 111.584 40.3429 112.592 39.6289 113.432C38.9149 114.272 37.9489 114.986 36.8149 115.448C35.6809 115.952 34.3369 116.162 32.8669 116.162C31.0609 116.162 29.4649 115.784 28.2049 115.028ZM30.0529 102.722C29.3809 103.352 29.0029 104.15 28.9189 105.242H36.3529C36.2689 104.066 35.9329 103.226 35.2189 102.68C34.5469 102.134 33.7069 101.84 32.6989 101.84C31.6069 101.798 30.7249 102.134 30.0529 102.722Z" fill="#333542"/>
<path d="M41.4766 98.5219H46.6006L49.2466 107.804L50.2966 111.92H50.4646L51.5146 107.804L54.1606 98.5219H59.3266L53.4046 115.868H47.4406L41.4766 98.5219Z" fill="#333542"/>
<path d="M62.896 114.02C61.216 112.592 60.418 110.744 60.418 108.476H65.542C65.584 109.652 65.962 110.576 66.718 111.248C67.474 111.962 68.692 112.298 70.372 112.298C71.674 112.298 72.724 112.046 73.48 111.584C74.278 111.122 74.656 110.408 74.656 109.484C74.656 108.728 74.488 108.14 74.152 107.72C73.816 107.3 73.27 106.964 72.472 106.754C71.674 106.502 70.54 106.292 69.112 106.04C66.382 105.62 64.324 104.864 62.938 103.814C61.552 102.764 60.838 101.21 60.838 99.194C60.838 96.968 61.678 95.246 63.316 93.944C64.954 92.684 67.222 92.012 70.12 92.012C71.968 92.012 73.606 92.306 74.95 92.894C76.294 93.482 77.344 94.28 78.1 95.33C78.856 96.38 79.234 97.598 79.234 99.026H74.11C74.068 97.892 73.648 97.052 72.85 96.59C72.052 96.086 71.086 95.834 69.952 95.834C68.776 95.834 67.81 96.086 67.138 96.548C66.466 97.01 66.13 97.682 66.13 98.522C66.13 99.236 66.34 99.782 66.718 100.16C67.096 100.538 67.726 100.79 68.566 101C69.406 101.21 70.498 101.42 71.884 101.63C72.892 101.798 73.858 101.966 74.824 102.26C75.79 102.512 76.63 102.89 77.428 103.394C78.184 103.898 78.814 104.612 79.276 105.494C79.738 106.376 79.99 107.552 79.99 108.98C79.99 111.08 79.15 112.802 77.512 114.146C75.874 115.49 73.438 116.12 70.204 116.12C66.97 116.162 64.534 115.448 62.896 114.02Z" fill="#333542"/>
<path d="M86.29 115.322C85.618 114.986 85.198 114.482 84.946 113.852C84.694 113.222 84.568 112.466 84.568 111.626V102.344H81.46V98.5221H84.568V93.8181L89.314 93.3561V98.5221H92.842V102.344H89.314V110.702C89.314 111.206 89.44 111.584 89.692 111.752C89.944 111.92 90.28 112.004 90.742 112.004H92.842V115.826H89.02C87.844 115.868 86.92 115.658 86.29 115.322Z" fill="#333542"/>
<path d="M95.7822 92.306H100.57V96.296H95.7822V92.306ZM95.7822 98.564H100.57V115.868H95.7822V98.564Z" fill="#333542"/>
<path d="M107.711 115.322C107.039 114.986 106.619 114.482 106.367 113.852C106.115 113.222 105.989 112.466 105.989 111.626V102.344H102.881V98.5221H105.989V93.8181L110.735 93.3561V98.5221H114.263V102.344H110.735V110.702C110.735 111.206 110.861 111.584 111.113 111.752C111.365 111.92 111.701 112.004 112.163 112.004H114.263V115.826H110.441C109.265 115.868 108.341 115.658 107.711 115.322Z" fill="#333542"/>
<path d="M119.806 115.028C118.504 114.272 117.496 113.222 116.782 111.878C116.068 110.534 115.69 108.98 115.69 107.174C115.69 105.368 116.068 103.772 116.782 102.428C117.496 101.084 118.546 100.034 119.848 99.2779C121.192 98.5219 122.704 98.1439 124.51 98.1439C126.022 98.1439 127.324 98.4379 128.5 98.9839C129.676 99.5299 130.6 100.328 131.272 101.294C131.944 102.302 132.322 103.436 132.406 104.738H127.702C127.534 103.814 127.156 103.142 126.568 102.68C125.98 102.218 125.224 101.966 124.342 101.966C123.082 101.966 122.116 102.428 121.486 103.352C120.856 104.276 120.52 105.494 120.52 107.048C120.52 108.728 120.856 110.03 121.57 110.87C122.284 111.71 123.208 112.13 124.3 112.13C125.308 112.13 126.148 111.878 126.736 111.374C127.324 110.87 127.66 110.198 127.744 109.358H132.406C132.322 110.702 131.944 111.878 131.23 112.886C130.516 113.894 129.592 114.65 128.374 115.196C127.198 115.742 125.812 116.036 124.258 116.036C122.62 116.162 121.108 115.784 119.806 115.028Z" fill="#333542"/>
<path d="M135.389 92.306H140.177V101.672H140.387C140.849 100.538 141.605 99.656 142.613 99.11C143.621 98.522 144.713 98.228 145.973 98.228C147.149 98.228 148.199 98.48 149.123 98.942C150.047 99.404 150.761 100.16 151.307 101.21C151.853 102.26 152.105 103.646 152.105 105.41V115.868H147.317V106.46C147.317 104.99 147.065 103.898 146.519 103.184C146.015 102.47 145.175 102.134 143.999 102.134C142.781 102.134 141.815 102.554 141.143 103.394C140.471 104.234 140.135 105.2 140.135 106.292V115.91H135.347V92.306H135.389Z" fill="#333542"/>
</g>
<defs>
<linearGradient id="paint0_linear_618_6296" x1="72.417" y1="5.3208" x2="108.711" y2="45.55" gradientUnits="userSpaceOnUse">
<stop stop-color="#1888C9"/>
<stop offset="1" stop-color="#60CAE3"/>
</linearGradient>
<linearGradient id="paint1_linear_618_6296" x1="102.224" y1="43.1213" x2="75.5362" y2="69.8091" gradientUnits="userSpaceOnUse">
<stop stop-color="#1888C9"/>
<stop offset="1" stop-color="#60CAE3"/>
</linearGradient>
<linearGradient id="paint2_linear_618_6296" x1="103.832" y1="41.5131" x2="77.1445" y2="68.2009" gradientUnits="userSpaceOnUse">
<stop stop-color="#1C3969"/>
<stop offset="0.2835" stop-color="#1888C9" stop-opacity="0"/>
</linearGradient>
<linearGradient id="paint3_linear_618_6296" x1="52.6271" y1="27.0998" x2="64.0421" y2="27.0998" gradientUnits="userSpaceOnUse">
<stop offset="0.0765306" stop-color="#1888C9"/>
<stop offset="0.852" stop-color="#60CAE3"/>
</linearGradient>
<linearGradient id="paint4_linear_618_6296" x1="41.8636" y1="39.0637" x2="59.274" y2="39.0637" gradientUnits="userSpaceOnUse">
<stop offset="0.0765306" stop-color="#1888C9"/>
<stop offset="0.852" stop-color="#60CAE3"/>
</linearGradient>
<linearGradient id="paint5_linear_618_6296" x1="60.2588" y1="19.7777" x2="71.3949" y2="19.7777" gradientUnits="userSpaceOnUse">
<stop offset="0.0765306" stop-color="#1888C9"/>
<stop offset="0.852" stop-color="#60CAE3"/>
</linearGradient>
<linearGradient id="paint6_linear_618_6296" x1="60.1583" y1="58.3048" x2="71.4954" y2="58.3048" gradientUnits="userSpaceOnUse">
<stop offset="0.0765306" stop-color="#1888C9"/>
<stop offset="0.852" stop-color="#60CAE3"/>
</linearGradient>
<linearGradient id="paint7_linear_618_6296" x1="52.6271" y1="51.1018" x2="63.6843" y2="51.1018" gradientUnits="userSpaceOnUse">
<stop offset="0.0765306" stop-color="#1888C9"/>
<stop offset="0.852" stop-color="#60CAE3"/>
</linearGradient>
<clipPath id="clip0_618_6296">
<rect width="153" height="117" fill="white"/>
</clipPath>
</defs>
</svg>
