<svg width="87" height="82" viewBox="0 0 87 82" fill="none" xmlns="http://www.w3.org/2000/svg">
<g clip-path="url(#clip0_645_2045)">
<path d="M83.9075 -5.88418C83.9075 -4.9548 83.1566 -4.20053 82.2306 -4.19716L72.1591 -4.16686H72.1422C71.6742 -4.16686 71.2533 -3.99513 70.9401 -3.6786C70.6168 -3.36208 70.4417 -2.93443 70.4417 -2.48321V7.58835C70.4417 8.51772 69.6875 9.272 68.7581 9.272H56.9726C55.1138 9.272 53.6053 10.7839 53.6053 12.6393V24.4248C53.6053 25.3542 52.851 26.1084 51.9216 26.1084H40.1361C38.2808 26.1084 36.7688 27.6204 36.7688 29.4757V41.2612C36.7688 42.1906 36.0146 42.9449 35.0852 42.9449H23.2997C21.4443 42.9449 19.9324 44.4568 19.9324 46.3122V58.0977C19.9324 59.0271 19.1781 59.7813 18.2488 59.7813H9.83053C7.97515 59.7813 6.46324 61.2933 6.46324 63.1486V71.5668C6.46324 72.4962 5.70896 73.2505 4.77959 73.2505C3.85022 73.2505 3.09595 72.4962 3.09595 71.5668V63.1486C3.09595 59.4345 6.11641 56.414 9.83053 56.414H16.5651V46.3122C16.5651 42.5981 19.5856 39.5776 23.2997 39.5776H33.4016V29.4757C33.4016 25.7616 36.422 22.7412 40.1361 22.7412H50.238V12.6393C50.238 8.92516 53.2585 5.90471 56.9726 5.90471H67.0744V-2.48321C67.0744 -3.84023 67.6031 -5.11307 68.5695 -6.06938C69.5326 -7.02232 70.7987 -7.41966 72.1658 -7.53415L82.2171 -7.56445H82.2239C83.1499 -7.56445 83.9042 -6.81355 83.9075 -5.88418Z" fill="#323F49"/>
</g>
<defs>
<clipPath id="clip0_645_2045">
<rect width="85.528" height="81" fill="white" transform="translate(0.915771 0.882568)"/>
</clipPath>
</defs>
</svg>
