<svg width="108" height="108" viewBox="0 0 108 108" fill="none" xmlns="http://www.w3.org/2000/svg">
<path d="M106.053 46.3122L100.716 36.3433C98.7591 32.683 94.4746 30.9532 90.5022 32.2417L54.1802 44.0875L17.8537 32.2417C13.8724 30.9488 9.59686 32.683 7.63965 36.3433L2.35207 46.2185C0.515234 49.2725 0.167484 52.9417 1.40244 56.2855C2.63294 59.6292 5.28565 62.1928 8.66507 63.3207L9.60132 63.6328L9.57457 79.7764C9.57457 88.43 15.0806 96.085 23.2929 98.8224L44.9693 106.049C47.9252 107.035 51.0282 107.525 54.1356 107.525C57.2431 107.525 60.3461 107.035 63.302 106.049L84.9962 98.818C93.2129 96.0806 98.7368 88.4345 98.7412 79.7943V63.6328L99.6864 63.3163C103.066 62.1883 105.719 59.6248 106.949 56.281C108.184 52.9373 107.836 49.268 106.053 46.3122ZM5.58436 54.7429C4.82198 52.6742 5.03598 50.4049 6.23082 48.421L11.5674 38.4521C12.2986 37.0834 13.7074 36.2809 15.1921 36.2809C15.6156 36.2809 16.0436 36.3478 16.4672 36.486L50.881 47.7076L42.0892 63.9137C40.3638 66.7893 36.9354 68.0644 33.7655 66.9899L10.0784 59.0942C7.9874 58.3987 6.35119 56.8115 5.58436 54.7473V54.7429ZM51.8797 102.964C50.0117 102.795 48.1659 102.411 46.3826 101.814L24.7062 94.587C18.3174 92.4559 14.0284 86.5085 14.0329 79.7764L14.0552 65.1174L32.3522 71.2164C33.5738 71.6221 34.8177 71.8183 36.0392 71.8183C40.0072 71.8183 43.7744 69.7541 45.959 66.1161L51.9065 55.162L51.8797 102.964ZM94.2829 79.7943C94.2829 86.513 89.9806 92.4559 83.5874 94.5825L61.8931 101.814C60.0919 102.416 58.2239 102.799 56.338 102.969L56.3648 55.0059L62.437 66.1963C64.577 69.7719 68.3354 71.8183 72.2989 71.8183C73.5249 71.8183 74.7732 71.6221 75.9948 71.2164L94.2829 65.1219V79.7943ZM102.767 54.7429C102 56.8071 100.364 58.3898 98.2731 59.0898L74.586 66.9855C71.3983 68.051 67.9832 66.7759 66.3113 63.9895L57.4749 47.7032L91.8888 36.4815C93.797 35.8529 95.8522 36.6955 96.793 38.4477L102.183 48.5146C103.324 50.4049 103.538 52.6742 102.776 54.7384L102.767 54.7429ZM21.8929 26.5618C21.0325 25.6879 21.0414 24.2702 21.9197 23.4097L43.2394 2.42434C45.8253 -0.170415 50.0696 -0.174873 52.6822 2.43771L61.0862 10.8417C63.6185 8.57684 67.8405 8.64371 70.2837 11.0869L82.562 23.3607C83.4313 24.23 83.4313 25.6433 82.562 26.5127C81.6926 27.3821 80.2793 27.3821 79.4099 26.5127L67.1317 14.2389C66.2623 13.3695 64.849 13.3695 63.9796 14.2389L44.5903 33.276C44.1534 33.704 43.5872 33.918 43.0254 33.918C42.4459 33.918 41.8707 33.6951 41.4383 33.2537C40.5778 32.3754 40.5912 30.9621 41.465 30.1017L57.8985 13.967L49.5257 5.59421C48.6563 4.72484 47.243 4.72484 46.3737 5.59421L25.045 26.584C24.6081 27.012 24.0463 27.226 23.4801 27.226C22.905 27.226 22.3254 27.0031 21.8929 26.5618Z" fill="black"/>
</svg>
