<?xml version="1.0" encoding="UTF-8"?>
<!DOCTYPE svg PUBLIC "-//W3C//DTD SVG 1.1//EN" "http://www.w3.org/Graphics/SVG/1.1/DTD/svg11.dtd">
<svg xmlns="http://www.w3.org/2000/svg" version="1.1" width="380px" height="220px" style="shape-rendering:geometricPrecision; text-rendering:geometricPrecision; image-rendering:optimizeQuality; fill-rule:evenodd; clip-rule:evenodd" xmlns:xlink="http://www.w3.org/1999/xlink">
<g><path style="opacity:1" fill="#fcfcfc" d="M -0.5,-0.5 C 126.167,-0.5 252.833,-0.5 379.5,-0.5C 379.5,72.8333 379.5,146.167 379.5,219.5C 252.833,219.5 126.167,219.5 -0.5,219.5C -0.5,146.167 -0.5,72.8333 -0.5,-0.5 Z"/></g>
<g><path style="opacity:1" fill="#c06151" d="M 184.5,16.5 C 183.448,16.6495 182.448,16.4828 181.5,16C 178.453,10.2984 173.786,8.29844 167.5,10C 165.559,12.4536 163.225,14.287 160.5,15.5C 161.5,14.1667 162.5,12.8333 163.5,11.5C 168.073,7.02084 173.073,6.52084 178.5,10C 180.706,12.0367 182.706,14.2034 184.5,16.5 Z"/></g>
<g><path style="opacity:1" fill="#cb726b" d="M 159.5,16.5 C 157.949,19.5628 155.782,22.2295 153,24.5C 152.421,25.9285 152.588,27.2618 153.5,28.5C 151.879,28.2131 150.879,27.2131 150.5,25.5C 153.188,22.1456 156.188,19.1456 159.5,16.5 Z"/></g>
<g><path style="opacity:1" fill="#cc5f50" d="M 153.5,28.5 C 154.978,28.238 156.311,28.5713 157.5,29.5C 160.984,33.4849 164.651,37.3182 168.5,41C 170.833,41.3333 173.167,41.6667 175.5,42C 176.056,42.3826 176.389,42.8826 176.5,43.5C 173.428,43.8174 170.428,43.4841 167.5,42.5C 162.452,38.1186 157.785,33.4519 153.5,28.5 Z"/></g>
<g><path style="opacity:1" fill="#c95d4b" d="M 184.5,16.5 C 197.5,28.8333 210.167,41.5 222.5,54.5C 221.07,54.5792 219.736,54.2458 218.5,53.5C 216.022,50.1145 213.355,46.9479 210.5,44C 209.552,43.5172 208.552,43.3505 207.5,43.5C 207.374,40.405 205.707,38.5717 202.5,38C 198.035,30.8678 192.201,25.0345 185,20.5C 184.51,19.2068 184.343,17.8734 184.5,16.5 Z"/></g>
<g><path style="opacity:1" fill="#c26259" d="M 141.5,33.5 C 143.38,33.2291 144.713,33.8958 145.5,35.5C 144.127,35.3433 142.793,35.51 141.5,36C 137.572,40.4358 133.239,44.2692 128.5,47.5C 132.833,42.8333 137.167,38.1667 141.5,33.5 Z"/></g>
<g><path style="opacity:1" fill="#faf7f3" d="M 163.5,11.5 C 162.5,12.8333 161.5,14.1667 160.5,15.5C 159.833,15.5 159.5,15.8333 159.5,16.5C 156.188,19.1456 153.188,22.1456 150.5,25.5C 150.879,27.2131 151.879,28.2131 153.5,28.5C 157.785,33.4519 162.452,38.1186 167.5,42.5C 170.428,43.4841 173.428,43.8174 176.5,43.5C 176.833,43.5 177.167,43.5 177.5,43.5C 179.972,45.5001 182.138,47.8334 184,50.5C 184.333,53.8333 184.667,57.1667 185,60.5C 189.702,65.3699 194.535,70.0366 199.5,74.5C 199.611,75.1174 199.944,75.6174 200.5,76C 205.824,75.9752 210.824,77.1419 215.5,79.5C 217.674,83.1888 218.674,87.1888 218.5,91.5C 214.788,99.8457 208.455,102.512 199.5,99.5C 194.554,94.934 192.387,89.2674 193,82.5C 191.296,80.6266 189.463,78.9599 187.5,77.5C 184.601,74.6972 181.934,71.6972 179.5,68.5C 179.44,67.9569 179.107,67.6236 178.5,67.5C 177.174,82.3279 177.174,96.9946 178.5,111.5C 186.147,117.877 186.48,124.711 179.5,132C 171.898,136.475 165.898,134.975 161.5,127.5C 159.025,120.775 160.691,115.442 166.5,111.5C 167.666,96.5111 167.833,81.5111 167,66.5C 164.86,65.2718 163.193,63.6051 162,61.5C 160.898,57.5841 160.231,53.5841 160,49.5C 159.617,48.944 159.117,48.6107 158.5,48.5C 154.446,43.7791 150.113,39.4458 145.5,35.5C 144.713,33.8958 143.38,33.2291 141.5,33.5C 144.267,29.4204 146.767,25.087 149,20.5C 151.469,18.3485 154.302,16.8485 157.5,16C 158.23,12.8022 160.23,11.3022 163.5,11.5 Z"/></g>
<g><path style="opacity:1" fill="#d75949" d="M 127.5,48.5 C 127.657,49.8734 127.49,51.2068 127,52.5C 123.167,56.3333 119.333,60.1667 115.5,64C 114.552,64.4828 113.552,64.6495 112.5,64.5C 112.649,65.552 112.483,66.552 112,67.5C 107.833,71.6667 103.667,75.8333 99.5,80C 98.552,80.4828 97.552,80.6495 96.5,80.5C 96.7254,82.7159 95.8921,84.3826 94,85.5C 93.5045,87.4727 93.3379,89.4727 93.5,91.5C 92.1492,88.2277 92.3159,84.8944 94,81.5C 105.035,70.2979 116.202,59.2979 127.5,48.5 Z"/></g>
<g><path style="opacity:1" fill="#c85e4c" d="M 222.5,54.5 C 229.5,60.8333 236.167,67.5 242.5,74.5C 239.996,72.8557 237.329,71.3557 234.5,70C 229.739,65.352 225.739,60.1854 222.5,54.5 Z"/></g>
<g><path style="opacity:1" fill="#ca5d46" d="M 242.5,74.5 C 246.2,77.366 249.367,80.6993 252,84.5C 252.972,88.3681 252.139,91.7015 249.5,94.5C 250.207,91.2139 250.54,87.8806 250.5,84.5C 249.5,84.5 248.5,84.5 247.5,84.5C 245.696,81.3579 244.029,78.0246 242.5,74.5 Z"/></g>
<g><path style="opacity:1" fill="#cf6459" d="M 93.5,91.5 C 95.4333,94.0198 97.7666,96.3532 100.5,98.5C 101.127,99.4168 101.461,100.417 101.5,101.5C 97.6616,99.0063 94.9949,95.673 93.5,91.5 Z"/></g>
<g><path style="opacity:1" fill="#c45441" d="M 241.5,102.5 C 240.248,104.001 239.248,105.668 238.5,107.5C 233.943,110.709 229.609,114.376 225.5,118.5C 225.369,117.761 225.536,117.094 226,116.5C 230.981,111.433 236.147,106.766 241.5,102.5 Z"/></g>
<g><path style="opacity:1" fill="#ce6252" d="M 106.5,106.5 C 108.117,107.038 109.784,107.371 111.5,107.5C 111.351,108.552 111.517,109.552 112,110.5C 118.417,116.518 124.75,122.518 131,128.5C 131.791,129.745 132.291,131.078 132.5,132.5C 123.5,124.167 114.833,115.5 106.5,106.5 Z"/></g>
<g><path style="opacity:1" fill="#fde8d9" d="M 238.5,107.5 C 238.439,110.73 236.772,112.563 233.5,113C 232.211,116.197 230.211,118.863 227.5,121C 226.552,121.483 225.552,121.649 224.5,121.5C 223.789,125.382 221.456,127.882 217.5,129C 213.753,135.413 208.753,140.413 202.5,144C 199.524,150.147 194.857,154.314 188.5,156.5C 193.455,152.54 197.789,147.873 201.5,142.5C 208.582,136.425 215.248,129.758 221.5,122.5C 223.264,121.674 224.598,120.341 225.5,118.5C 229.609,114.376 233.943,110.709 238.5,107.5 Z"/></g>
<g><path style="opacity:1" fill="#ee4f33" d="M 184.5,16.5 C 184.343,17.8734 184.51,19.2068 185,20.5C 192.201,25.0345 198.035,30.8678 202.5,38C 205.707,38.5717 207.374,40.405 207.5,43.5C 208.552,43.3505 209.552,43.5172 210.5,44C 213.355,46.9479 216.022,50.1145 218.5,53.5C 219.736,54.2458 221.07,54.5792 222.5,54.5C 225.739,60.1854 229.739,65.352 234.5,70C 237.329,71.3557 239.996,72.8557 242.5,74.5C 244.029,78.0246 245.696,81.3579 247.5,84.5C 248.5,84.5 249.5,84.5 250.5,84.5C 250.54,87.8806 250.207,91.2139 249.5,94.5C 247.167,97.5 244.5,100.167 241.5,102.5C 236.147,106.766 230.981,111.433 226,116.5C 225.536,117.094 225.369,117.761 225.5,118.5C 224.598,120.341 223.264,121.674 221.5,122.5C 220.761,122.369 220.094,122.536 219.5,123C 212.904,129.09 206.904,135.59 201.5,142.5C 192.86,149.14 185.194,156.806 178.5,165.5C 174.901,166.344 171.234,166.677 167.5,166.5C 166.167,163.833 164.833,161.167 163.5,158.5C 158.065,156.732 154.732,153.066 153.5,147.5C 150.136,148.211 147.803,147.044 146.5,144C 145.552,143.517 144.552,143.351 143.5,143.5C 141.5,138.167 137.833,134.5 132.5,132.5C 132.291,131.078 131.791,129.745 131,128.5C 124.75,122.518 118.417,116.518 112,110.5C 111.517,109.552 111.351,108.552 111.5,107.5C 109.784,107.371 108.117,107.038 106.5,106.5C 104.5,105.167 102.833,103.5 101.5,101.5C 101.461,100.417 101.127,99.4168 100.5,98.5C 97.7666,96.3532 95.4333,94.0198 93.5,91.5C 93.3379,89.4727 93.5045,87.4727 94,85.5C 95.8921,84.3826 96.7254,82.7159 96.5,80.5C 97.552,80.6495 98.552,80.4828 99.5,80C 103.667,75.8333 107.833,71.6667 112,67.5C 112.483,66.552 112.649,65.552 112.5,64.5C 113.552,64.6495 114.552,64.4828 115.5,64C 119.333,60.1667 123.167,56.3333 127,52.5C 127.49,51.2068 127.657,49.8734 127.5,48.5C 127.5,47.8333 127.833,47.5 128.5,47.5C 133.239,44.2692 137.572,40.4358 141.5,36C 142.793,35.51 144.127,35.3433 145.5,35.5C 145.343,36.8734 145.51,38.2068 146,39.5C 148.488,41.7433 151.154,43.7433 154,45.5C 154.483,46.448 154.649,47.448 154.5,48.5C 155.833,48.5 157.167,48.5 158.5,48.5C 158.173,53.544 158.506,58.544 159.5,63.5C 161.623,65.3099 163.957,66.6432 166.5,67.5C 166.5,81.8333 166.5,96.1667 166.5,110.5C 165.127,110.343 163.793,110.51 162.5,111C 158.214,118.782 158.547,126.282 163.5,133.5C 172.112,138.144 179.612,136.81 186,129.5C 188.894,121.621 186.894,115.288 180,110.5C 179.167,97.8202 179.334,85.1535 180.5,72.5C 181.987,75.3157 184.32,76.9823 187.5,77.5C 187.302,80.7703 188.802,82.7703 192,83.5C 190.896,100.211 198.396,105.877 214.5,100.5C 216.813,97.8785 218.147,94.8785 218.5,91.5C 218.674,87.1888 217.674,83.1888 215.5,79.5C 214.847,78.1932 214.18,76.8599 213.5,75.5C 208.788,74.8873 204.121,74.554 199.5,74.5C 199.657,73.1266 199.49,71.7932 199,70.5C 196.667,68.8333 194.333,67.1667 192,65.5C 191.517,64.552 191.351,63.552 191.5,62.5C 189.408,62.4386 187.908,61.4386 187,59.5C 187.599,53.3561 185.766,48.1894 181.5,44C 180.207,43.51 178.873,43.3433 177.5,43.5C 177.167,43.5 176.833,43.5 176.5,43.5C 176.389,42.8826 176.056,42.3826 175.5,42C 173.167,41.6667 170.833,41.3333 168.5,41C 164.651,37.3182 160.984,33.4849 157.5,29.5C 156.311,28.5713 154.978,28.238 153.5,28.5C 152.588,27.2618 152.421,25.9285 153,24.5C 155.782,22.2295 157.949,19.5628 159.5,16.5C 159.5,15.8333 159.833,15.5 160.5,15.5C 163.225,14.287 165.559,12.4536 167.5,10C 173.786,8.29844 178.453,10.2984 181.5,16C 182.448,16.4828 183.448,16.6495 184.5,16.5 Z"/></g>
<g><path style="opacity:1" fill="#d16752" d="M 187.5,77.5 C 189.463,78.9599 191.296,80.6266 193,82.5C 192.387,89.2674 194.554,94.934 199.5,99.5C 208.455,102.512 214.788,99.8457 218.5,91.5C 218.147,94.8785 216.813,97.8785 214.5,100.5C 198.396,105.877 190.896,100.211 192,83.5C 188.802,82.7703 187.302,80.7703 187.5,77.5 Z"/></g>
<g><path style="opacity:1" fill="#fab6ad" d="M 179.5,68.5 C 178.504,82.6569 178.171,96.9903 178.5,111.5C 177.174,96.9946 177.174,82.3279 178.5,67.5C 179.107,67.6236 179.44,67.9569 179.5,68.5 Z"/></g>
<g><path style="opacity:1" fill="#cc5442" d="M 199.5,74.5 C 204.121,74.554 208.788,74.8873 213.5,75.5C 214.18,76.8599 214.847,78.1932 215.5,79.5C 210.824,77.1419 205.824,75.9752 200.5,76C 199.944,75.6174 199.611,75.1174 199.5,74.5 Z"/></g>
<g><path style="opacity:1" fill="#ce614c" d="M 177.5,43.5 C 178.873,43.3433 180.207,43.51 181.5,44C 185.766,48.1894 187.599,53.3561 187,59.5C 187.908,61.4386 189.408,62.4386 191.5,62.5C 191.351,63.552 191.517,64.552 192,65.5C 194.333,67.1667 196.667,68.8333 199,70.5C 199.49,71.7932 199.657,73.1266 199.5,74.5C 194.535,70.0366 189.702,65.3699 185,60.5C 184.667,57.1667 184.333,53.8333 184,50.5C 182.138,47.8334 179.972,45.5001 177.5,43.5 Z"/></g>
<g><path style="opacity:1" fill="#d15a44" d="M 145.5,35.5 C 150.113,39.4458 154.446,43.7791 158.5,48.5C 157.167,48.5 155.833,48.5 154.5,48.5C 154.649,47.448 154.483,46.448 154,45.5C 151.154,43.7433 148.488,41.7433 146,39.5C 145.51,38.2068 145.343,36.8734 145.5,35.5 Z"/></g>
<g><path style="opacity:1" fill="#c24b3b" d="M 221.5,122.5 C 215.248,129.758 208.582,136.425 201.5,142.5C 206.904,135.59 212.904,129.09 219.5,123C 220.094,122.536 220.761,122.369 221.5,122.5 Z"/></g>
<g><path style="opacity:1" fill="#ca5744" d="M 158.5,48.5 C 159.117,48.6107 159.617,48.944 160,49.5C 160.231,53.5841 160.898,57.5841 162,61.5C 163.193,63.6051 164.86,65.2718 167,66.5C 167.833,81.5111 167.666,96.5111 166.5,111.5C 160.691,115.442 159.025,120.775 161.5,127.5C 165.898,134.975 171.898,136.475 179.5,132C 186.48,124.711 186.147,117.877 178.5,111.5C 178.171,96.9903 178.504,82.6569 179.5,68.5C 181.934,71.6972 184.601,74.6972 187.5,77.5C 184.32,76.9823 181.987,75.3157 180.5,72.5C 179.334,85.1535 179.167,97.8202 180,110.5C 186.894,115.288 188.894,121.621 186,129.5C 179.612,136.81 172.112,138.144 163.5,133.5C 158.547,126.282 158.214,118.782 162.5,111C 163.793,110.51 165.127,110.343 166.5,110.5C 166.5,96.1667 166.5,81.8333 166.5,67.5C 163.957,66.6432 161.623,65.3099 159.5,63.5C 158.506,58.544 158.173,53.544 158.5,48.5 Z"/></g>
<g><path style="opacity:1" fill="#cf6655" d="M 132.5,132.5 C 137.833,134.5 141.5,138.167 143.5,143.5C 139.5,140.167 135.833,136.5 132.5,132.5 Z"/></g>
<g><path style="opacity:1" fill="#111111" d="M 236.5,142.5 C 243.56,141.725 246.06,144.725 244,151.5C 240.535,155.386 237.202,155.386 234,151.5C 232.779,147.718 233.613,144.718 236.5,142.5 Z"/></g>
<g><path style="opacity:1" fill="#727272" d="M 263.5,149.5 C 260.789,149.185 258.456,149.852 256.5,151.5C 256.5,150.5 256.5,149.5 256.5,148.5C 259.059,148.198 261.393,148.532 263.5,149.5 Z"/></g>
<g><path style="opacity:1" fill="#0b0b0b" d="M 263.5,149.5 C 263.5,152.5 263.5,155.5 263.5,158.5C 266.5,158.5 269.5,158.5 272.5,158.5C 272.5,160.5 272.5,162.5 272.5,164.5C 269.287,164.19 266.287,164.523 263.5,165.5C 263.334,171.842 263.5,178.175 264,184.5C 266.506,186.823 269.34,187.156 272.5,185.5C 274.086,187.173 274.753,189.173 274.5,191.5C 270.874,192.322 267.207,192.989 263.5,193.5C 258.382,193.701 255.216,191.368 254,186.5C 253.5,179.508 253.334,172.508 253.5,165.5C 251.833,165.5 250.167,165.5 248.5,165.5C 248.201,163.396 248.534,161.396 249.5,159.5C 253.97,158.697 256.303,156.031 256.5,151.5C 258.456,149.852 260.789,149.185 263.5,149.5 Z"/></g>
<g><path style="opacity:1" fill="#c95848" d="M 201.5,142.5 C 197.789,147.873 193.455,152.54 188.5,156.5C 185.388,159.698 182.055,162.698 178.5,165.5C 185.194,156.806 192.86,149.14 201.5,142.5 Z"/></g>
<g><path style="opacity:1" fill="#050505" d="M 244.5,159.5 C 244.5,169.167 244.5,178.833 244.5,188.5C 245.833,188.5 247.167,188.5 248.5,188.5C 248.5,190.167 248.5,191.833 248.5,193.5C 242.5,193.5 236.5,193.5 230.5,193.5C 230.5,191.833 230.5,190.167 230.5,188.5C 231.93,188.579 233.264,188.246 234.5,187.5C 235.664,180.524 235.831,173.524 235,166.5C 231.078,165.816 229.578,163.482 230.5,159.5C 235.167,159.5 239.833,159.5 244.5,159.5 Z"/></g>
<g><path style="opacity:1" fill="#0d0d0d" d="M 202.5,159.5 C 210.831,159.884 219.164,160.218 227.5,160.5C 227.5,162.167 227.5,163.833 227.5,165.5C 225.396,165.201 223.396,165.534 221.5,166.5C 225.356,177.36 221.356,183.36 209.5,184.5C 206.396,182.555 204.063,183.222 202.5,186.5C 209.609,187.084 216.609,188.251 223.5,190C 226.915,194.064 227.415,198.564 225,203.5C 222.705,205.938 219.872,207.438 216.5,208C 210.5,208.667 204.5,208.667 198.5,208C 191.817,204.753 190.817,200.253 195.5,194.5C 193.661,192.473 193.161,190.14 194,187.5C 195.685,185.983 197.185,184.316 198.5,182.5C 190.922,173.203 192.255,165.536 202.5,159.5 Z"/></g>
<g><path style="opacity:1" fill="#bababa" d="M 244.5,159.5 C 245.494,168.652 245.827,177.985 245.5,187.5C 246.791,187.263 247.791,187.596 248.5,188.5C 247.167,188.5 245.833,188.5 244.5,188.5C 244.5,178.833 244.5,169.167 244.5,159.5 Z"/></g>
<g><path style="opacity:1" fill="#5e5e5e" d="M 272.5,158.5 C 273.468,160.607 273.802,162.941 273.5,165.5C 270.167,165.5 266.833,165.5 263.5,165.5C 266.287,164.523 269.287,164.19 272.5,164.5C 272.5,162.5 272.5,160.5 272.5,158.5 Z"/></g>
<g><path style="opacity:1" fill="#cd5a47" d="M 143.5,143.5 C 144.552,143.351 145.552,143.517 146.5,144C 147.803,147.044 150.136,148.211 153.5,147.5C 154.732,153.066 158.065,156.732 163.5,158.5C 164.833,161.167 166.167,163.833 167.5,166.5C 171.234,166.677 174.901,166.344 178.5,165.5C 175.025,168.908 171.025,169.408 166.5,167C 159.232,158.715 151.566,150.882 143.5,143.5 Z"/></g>
<g><path style="opacity:1" fill="#ededed" d="M 207.5,165.5 C 213.33,165.161 215.83,167.827 215,173.5C 212.839,177.124 209.672,178.291 205.5,177C 203.522,174.503 203.022,171.669 204,168.5C 204.985,167.186 206.152,166.186 207.5,165.5 Z"/></g>
<g><path style="opacity:1" fill="#f1f1f1" d="M 201.5,196.5 C 206.179,196.334 210.845,196.501 215.5,197C 218.003,198.549 218.003,200.216 215.5,202C 210.833,202.667 206.167,202.667 201.5,202C 200.248,200.172 200.248,198.339 201.5,196.5 Z"/></g>
</svg>
