<?xml version="1.0" encoding="UTF-8"?>
<!DOCTYPE svg PUBLIC "-//W3C//DTD SVG 1.1//EN" "http://www.w3.org/Graphics/SVG/1.1/DTD/svg11.dtd">
<svg xmlns="http://www.w3.org/2000/svg" version="1.1" width="293px" height="220px" style="shape-rendering:geometricPrecision; text-rendering:geometricPrecision; image-rendering:optimizeQuality; fill-rule:evenodd; clip-rule:evenodd" xmlns:xlink="http://www.w3.org/1999/xlink">
<g><path style="opacity:1" fill="#fcfcfc" d="M -0.5,-0.5 C 97.1667,-0.5 194.833,-0.5 292.5,-0.5C 292.5,72.8333 292.5,146.167 292.5,219.5C 194.833,219.5 97.1667,219.5 -0.5,219.5C -0.5,146.167 -0.5,72.8333 -0.5,-0.5 Z"/></g>
<g><path style="opacity:1" fill="#c55546" d="M 95.5,76.5 C 91.9325,74.6065 88.9325,71.9398 86.5,68.5C 80.3738,66.7439 76.0404,68.9106 73.5,75C 74.7216,77.9654 76.2216,78.1321 78,75.5C 79.4055,77.3638 79.9055,79.1971 79.5,81C 82.095,81.2256 84.595,81.7256 87,82.5C 90.4086,86.9949 92.5753,91.9949 93.5,97.5C 92.2058,96.7101 91.0391,95.7101 90,94.5C 89.7435,87.7836 86.2435,84.2836 79.5,84C 77.9625,82.2927 76.2959,80.7927 74.5,79.5C 73.0681,77.6729 71.4014,76.0063 69.5,74.5C 72.6135,70.2117 76.4468,66.8784 81,64.5C 82.8882,64.796 84.7216,65.296 86.5,66C 89.6161,69.519 92.6161,73.019 95.5,76.5 Z"/></g>
<g><path style="opacity:1" fill="#2d2510" d="M 203.5,64.5 C 214.313,63.8108 217.313,68.3108 212.5,78C 202.32,81.66 198.154,78.16 200,67.5C 201.145,66.3636 202.312,65.3636 203.5,64.5 Z"/></g>
<g><path style="opacity:1" fill="#dd4a33" d="M 95.5,76.5 C 95.238,77.9778 95.5713,79.3112 96.5,80.5C 100.077,82.4802 103.077,85.1468 105.5,88.5C 105.917,93.0685 103.917,94.5685 99.5,93C 100.097,91.3718 99.7633,89.7051 98.5,88C 97.552,87.5172 96.552,87.3505 95.5,87.5C 95.0691,92.8821 97.5691,95.8821 103,96.5C 103.684,97.7839 103.517,98.9505 102.5,100C 106.002,99.77 109.335,98.6033 112.5,96.5C 113.474,98.7427 113.808,101.076 113.5,103.5C 109.041,102.024 104.374,101.358 99.5,101.5C 97.5,100.167 95.5,98.8333 93.5,97.5C 92.5753,91.9949 90.4086,86.9949 87,82.5C 84.595,81.7256 82.095,81.2256 79.5,81C 79.9055,79.1971 79.4055,77.3638 78,75.5C 76.2216,78.1321 74.7216,77.9654 73.5,75C 76.0404,68.9106 80.3738,66.7439 86.5,68.5C 88.9325,71.9398 91.9325,74.6065 95.5,76.5 Z"/></g>
<g><path style="opacity:1" fill="#be5649" d="M 95.5,76.5 C 97.0103,77.8361 98.6769,79.0027 100.5,80C 104.083,84.4054 107.75,88.5721 111.5,92.5C 109.228,91.5589 107.228,90.2255 105.5,88.5C 103.077,85.1468 100.077,82.4802 96.5,80.5C 95.5713,79.3112 95.238,77.9778 95.5,76.5 Z"/></g>
<g><path style="opacity:1" fill="#827c72" d="M 252.5,94.5 C 253.036,91.3019 252.369,88.6353 250.5,86.5C 246.833,86.5 243.167,86.5 239.5,86.5C 239.5,81.8333 239.5,77.1667 239.5,72.5C 240.501,76.0597 240.834,80.393 240.5,85.5C 244.833,85.5 249.167,85.5 253.5,85.5C 253.81,88.7131 253.477,91.7131 252.5,94.5 Z"/></g>
<g><path style="opacity:1" fill="#2d260d" d="M 217.5,125.5 C 218.968,126.779 219.635,128.446 219.5,130.5C 212.167,130.5 204.833,130.5 197.5,130.5C 197.227,128.549 197.893,127.049 199.5,126C 198.552,125.517 197.552,125.351 196.5,125.5C 197.919,124.549 199.585,124.216 201.5,124.5C 201.832,114.81 201.498,105.144 200.5,95.5C 199.264,94.7542 197.93,94.4208 196.5,94.5C 196.5,91.8333 196.5,89.1667 196.5,86.5C 202.5,86.5 208.5,86.5 214.5,86.5C 214.168,99.1842 214.501,111.851 215.5,124.5C 216.183,124.863 216.85,125.196 217.5,125.5 Z"/></g>
<g><path style="opacity:1" fill="#dc4b34" d="M 78.5,119.5 C 76.5487,120.282 75.0487,121.616 74,123.5C 73.7685,127.555 73.2685,131.555 72.5,135.5C 73.8199,138.057 72.9866,139.724 70,140.5C 69.5172,141.448 69.3505,142.448 69.5,143.5C 68.8333,143.5 68.1667,143.5 67.5,143.5C 65.8333,142.5 64.5,141.167 63.5,139.5C 61.5041,135.556 59.0041,131.889 56,128.5C 50.389,123.892 45.0556,118.892 40,113.5C 39.2152,108.07 41.3819,104.07 46.5,101.5C 47.4519,99.9547 47.7852,98.288 47.5,96.5C 47.5,95.8333 47.8333,95.5 48.5,95.5C 52.5698,92.9396 56.2365,89.7729 59.5,86C 61.5364,85.5464 63.3697,84.7131 65,83.5C 65.8732,83.7355 66.7065,84.0688 67.5,84.5C 68.5794,86.543 70.246,87.8763 72.5,88.5C 73.1563,93.6471 74.9896,98.3138 78,102.5C 78.4994,108.157 78.6661,113.824 78.5,119.5 Z"/></g>
<g><path style="opacity:1" fill="#c75f57" d="M 93.5,97.5 C 95.5,98.8333 97.5,100.167 99.5,101.5C 101.631,102.314 103.964,102.814 106.5,103C 108.037,104.11 108.703,105.61 108.5,107.5C 106.456,106.969 104.789,105.802 103.5,104C 98.6137,104.066 95.2804,101.899 93.5,97.5 Z"/></g>
<g><path style="opacity:1" fill="#d54c3a" d="M 105.5,88.5 C 107.228,90.2255 109.228,91.5589 111.5,92.5C 117.104,97.0328 122.27,102.033 127,107.5C 127.667,109.167 127.667,110.833 127,112.5C 125.285,115.717 122.785,118.05 119.5,119.5C 119.5,118.167 119.5,116.833 119.5,115.5C 120.833,115.5 122.167,115.5 123.5,115.5C 123.167,112.316 123,108.982 123,105.5C 121.082,102.572 118.415,100.906 115,100.5C 114.51,101.793 114.343,103.127 114.5,104.5C 113.167,104.5 111.833,104.5 110.5,104.5C 110.563,109.203 110.229,113.87 109.5,118.5C 104.162,119.612 98.8285,119.612 93.5,118.5C 92.5197,117.019 91.353,115.685 90,114.5C 89.6053,112.821 89.772,111.155 90.5,109.5C 90.5472,108 89.8805,107 88.5,106.5C 88.3964,111.982 88.3964,117.315 88.5,122.5C 87.7784,122.082 87.2784,121.416 87,120.5C 86.5006,115.177 86.334,109.844 86.5,104.5C 88.4835,104.383 90.1502,105.05 91.5,106.5C 91.0173,117.185 95.8507,120.851 106,117.5C 108.034,116.056 108.868,114.056 108.5,111.5C 108.5,110.167 108.5,108.833 108.5,107.5C 108.703,105.61 108.037,104.11 106.5,103C 103.964,102.814 101.631,102.314 99.5,101.5C 104.374,101.358 109.041,102.024 113.5,103.5C 113.808,101.076 113.474,98.7427 112.5,96.5C 109.335,98.6033 106.002,99.77 102.5,100C 103.517,98.9505 103.684,97.7839 103,96.5C 97.5691,95.8821 95.0691,92.8821 95.5,87.5C 96.552,87.3505 97.552,87.5172 98.5,88C 99.7633,89.7051 100.097,91.3718 99.5,93C 103.917,94.5685 105.917,93.0685 105.5,88.5 Z"/></g>
<g><path style="opacity:1" fill="#c35849" d="M 47.5,96.5 C 47.7852,98.288 47.4519,99.9547 46.5,101.5C 41.3819,104.07 39.2152,108.07 40,113.5C 45.0556,118.892 50.389,123.892 56,128.5C 59.0041,131.889 61.5041,135.556 63.5,139.5C 54.1173,130.951 45.2839,121.951 37,112.5C 36.3333,110.5 36.3333,108.5 37,106.5C 40.3691,102.963 43.8691,99.6293 47.5,96.5 Z"/></g>
<g><path style="opacity:1" fill="#c05748" d="M 72.5,85.5 C 74.8003,87.9281 75.967,90.9281 76,94.5C 77,95.5 78,96.5 79,97.5C 79.8319,106.186 79.6652,114.853 78.5,123.5C 76.0816,124.729 75.0816,126.729 75.5,129.5C 75.9227,135.056 78.9227,137.223 84.5,136C 90.4197,132.487 90.9197,128.32 86,123.5C 85.3333,115.5 85.3333,107.5 86,99.5C 88.4794,102.069 91.146,104.402 94,106.5C 93.8928,110.489 95.0595,113.989 97.5,117C 102.895,118.303 106.562,116.47 108.5,111.5C 108.868,114.056 108.034,116.056 106,117.5C 95.8507,120.851 91.0173,117.185 91.5,106.5C 90.1502,105.05 88.4835,104.383 86.5,104.5C 86.334,109.844 86.5006,115.177 87,120.5C 87.2784,121.416 87.7784,122.082 88.5,122.5C 91.3335,127.677 91.0002,132.677 87.5,137.5C 83.1236,137.886 78.9569,137.219 75,135.5C 74.3333,131.833 74.3333,128.167 75,124.5C 76.8022,123.211 77.9688,121.544 78.5,119.5C 78.6661,113.824 78.4994,108.157 78,102.5C 74.9896,98.3138 73.1563,93.6471 72.5,88.5C 70.246,87.8763 68.5794,86.543 67.5,84.5C 66.7065,84.0688 65.8732,83.7355 65,83.5C 63.3697,84.7131 61.5364,85.5464 59.5,86C 56.2365,89.7729 52.5698,92.9396 48.5,95.5C 53.2969,90.202 58.2969,85.0354 63.5,80C 67.585,79.8944 70.585,81.7278 72.5,85.5 Z"/></g>
<g><path style="opacity:1" fill="#fbf4ef" d="M 74.5,79.5 C 76.2959,80.7927 77.9625,82.2927 79.5,84C 86.2435,84.2836 89.7435,87.7836 90,94.5C 91.0391,95.7101 92.2058,96.7101 93.5,97.5C 95.2804,101.899 98.6137,104.066 103.5,104C 104.789,105.802 106.456,106.969 108.5,107.5C 108.5,108.833 108.5,110.167 108.5,111.5C 106.562,116.47 102.895,118.303 97.5,117C 95.0595,113.989 93.8928,110.489 94,106.5C 91.146,104.402 88.4794,102.069 86,99.5C 85.3333,107.5 85.3333,115.5 86,123.5C 90.9197,128.32 90.4197,132.487 84.5,136C 78.9227,137.223 75.9227,135.056 75.5,129.5C 75.0816,126.729 76.0816,124.729 78.5,123.5C 79.6652,114.853 79.8319,106.186 79,97.5C 78,96.5 77,95.5 76,94.5C 75.967,90.9281 74.8003,87.9281 72.5,85.5C 73.4959,85.5858 74.3292,85.2524 75,84.5C 75.3845,82.8034 75.2178,81.1368 74.5,79.5 Z"/></g>
<g><path style="opacity:1" fill="#30280d" d="M 239.5,72.5 C 239.5,77.1667 239.5,81.8333 239.5,86.5C 243.167,86.5 246.833,86.5 250.5,86.5C 251.341,88.3792 251.675,90.3792 251.5,92.5C 247.233,92.797 243.066,92.4637 239,91.5C 235.893,102.077 235.726,112.744 238.5,123.5C 239.873,123.343 241.207,123.51 242.5,124C 241.359,124.741 241.359,125.575 242.5,126.5C 243.391,127.59 244.391,127.59 245.5,126.5C 246.415,127.328 247.081,128.328 247.5,129.5C 241.068,131.485 235.235,130.485 230,126.5C 228.855,115.87 228.188,105.203 228,94.5C 227.5,103.494 227.334,112.494 227.5,121.5C 226.507,112.682 226.173,103.682 226.5,94.5C 224.5,94.5 222.5,94.5 220.5,94.5C 220.5,91.8333 220.5,89.1667 220.5,86.5C 227.959,84.954 231.625,80.2874 231.5,72.5C 234.167,72.5 236.833,72.5 239.5,72.5 Z"/></g>
<g><path style="opacity:1" fill="#d34b3b" d="M 78.5,119.5 C 77.9688,121.544 76.8022,123.211 75,124.5C 74.3333,128.167 74.3333,131.833 75,135.5C 78.9569,137.219 83.1236,137.886 87.5,137.5C 86.8658,138.947 85.6991,139.613 84,139.5C 81.5217,138.668 79.0217,138.501 76.5,139C 77.1193,140.835 77.286,143.001 77,145.5C 76.0201,143.941 75.1867,142.274 74.5,140.5C 73.2054,141.098 71.8721,141.598 70.5,142C 73.7323,146.396 77.399,150.229 81.5,153.5C 88.5309,149.634 94.0309,144.301 98,137.5C 98.4828,136.552 98.6495,135.552 98.5,134.5C 100.167,134.5 101.833,134.5 103.5,134.5C 104.167,132.167 104.833,129.833 105.5,127.5C 102.442,127.712 99.9416,129.045 98,131.5C 95.8349,129.347 95.0016,126.681 95.5,123.5C 99.1306,124.412 102.797,124.579 106.5,124C 110.77,122.207 115.104,120.707 119.5,119.5C 118.496,120.683 117.662,122.016 117,123.5C 106.497,134.336 95.664,144.836 84.5,155C 82.8333,155.667 81.1667,155.667 79.5,155C 78.2949,153.624 76.9616,152.458 75.5,151.5C 73.8777,148.545 71.8777,145.878 69.5,143.5C 69.3505,142.448 69.5172,141.448 70,140.5C 72.9866,139.724 73.8199,138.057 72.5,135.5C 73.2685,131.555 73.7685,127.555 74,123.5C 75.0487,121.616 76.5487,120.282 78.5,119.5 Z"/></g>
<g><path style="opacity:1" fill="#2a2211" d="M 250.5,86.5 C 252.369,88.6353 253.036,91.3019 252.5,94.5C 248.167,94.5 243.833,94.5 239.5,94.5C 239.334,102.84 239.5,111.173 240,119.5C 240.833,120.333 241.667,121.167 242.5,122C 246.188,122.45 249.854,122.283 253.5,121.5C 254.092,124.127 254.425,126.794 254.5,129.5C 251.432,130.022 248.432,130.855 245.5,132C 239.123,133.521 233.623,132.021 229,127.5C 227.872,125.655 227.372,123.655 227.5,121.5C 227.334,112.494 227.5,103.494 228,94.5C 228.188,105.203 228.855,115.87 230,126.5C 235.235,130.485 241.068,131.485 247.5,129.5C 247.081,128.328 246.415,127.328 245.5,126.5C 244.391,127.59 243.391,127.59 242.5,126.5C 241.359,125.575 241.359,124.741 242.5,124C 241.207,123.51 239.873,123.343 238.5,123.5C 235.726,112.744 235.893,102.077 239,91.5C 243.066,92.4637 247.233,92.797 251.5,92.5C 251.675,90.3792 251.341,88.3792 250.5,86.5 Z"/></g>
<g><path style="opacity:1" fill="#0b0600" d="M 196.5,125.5 C 197.552,125.351 198.552,125.517 199.5,126C 197.893,127.049 197.227,128.549 197.5,130.5C 204.833,130.5 212.167,130.5 219.5,130.5C 219.635,128.446 218.968,126.779 217.5,125.5C 218.5,125.5 219.5,125.5 220.5,125.5C 220.5,127.5 220.5,129.5 220.5,131.5C 212.5,131.5 204.5,131.5 196.5,131.5C 196.5,129.5 196.5,127.5 196.5,125.5 Z"/></g>
<g><path style="opacity:1" fill="#686558" d="M 196.5,125.5 C 196.5,127.5 196.5,129.5 196.5,131.5C 204.5,131.5 212.5,131.5 220.5,131.5C 212.35,132.493 204.017,132.826 195.5,132.5C 195.198,129.941 195.532,127.607 196.5,125.5 Z"/></g>
<g><path style="opacity:1" fill="#2d250e" d="M 161.5,86.5 C 171.488,87.1134 181.488,87.4467 191.5,87.5C 191.5,90.1667 191.5,92.8333 191.5,95.5C 189.076,95.1924 186.743,95.5258 184.5,96.5C 189.119,107.091 186.119,114.591 175.5,119C 170.467,119.171 165.467,119.671 160.5,120.5C 159.833,121.5 159.167,122.5 158.5,123.5C 166.836,124.314 175.169,125.147 183.5,126C 192.317,131.03 193.817,137.863 188,146.5C 184.206,149.101 180.039,150.934 175.5,152C 167.768,152.856 160.102,152.523 152.5,151C 147.679,149.678 145.346,146.511 145.5,141.5C 145.768,138.297 147.102,135.63 149.5,133.5C 146.758,131.067 145.925,128.067 147,124.5C 148.644,121.689 150.81,119.356 153.5,117.5C 142.311,103.418 144.978,93.0846 161.5,86.5 Z"/></g>
<g><path style="opacity:1" fill="#f5f5f1" d="M 163.5,95.5 C 172.791,93.7017 176.624,97.3684 175,106.5C 170.284,111.395 165.284,111.728 160,107.5C 158.593,102.556 159.759,98.556 163.5,95.5 Z"/></g>
<g><path style="opacity:1" fill="#f8f7f3" d="M 157.5,135.5 C 163.535,135.537 169.535,136.037 175.5,137C 179.172,138.365 179.506,140.365 176.5,143C 170.92,144.517 165.253,144.851 159.5,144C 155.121,141.985 154.454,139.151 157.5,135.5 Z"/></g>
<g><path style="opacity:1" fill="#dd4b31" d="M 119.5,119.5 C 115.104,120.707 110.77,122.207 106.5,124C 102.797,124.579 99.1306,124.412 95.5,123.5C 95.0016,126.681 95.8349,129.347 98,131.5C 99.9416,129.045 102.442,127.712 105.5,127.5C 104.833,129.833 104.167,132.167 103.5,134.5C 101.833,134.5 100.167,134.5 98.5,134.5C 98.6495,135.552 98.4828,136.552 98,137.5C 94.0309,144.301 88.5309,149.634 81.5,153.5C 77.399,150.229 73.7323,146.396 70.5,142C 71.8721,141.598 73.2054,141.098 74.5,140.5C 75.1867,142.274 76.0201,143.941 77,145.5C 77.286,143.001 77.1193,140.835 76.5,139C 79.0217,138.501 81.5217,138.668 84,139.5C 85.6991,139.613 86.8658,138.947 87.5,137.5C 91.0002,132.677 91.3335,127.677 88.5,122.5C 88.3964,117.315 88.3964,111.982 88.5,106.5C 89.8805,107 90.5472,108 90.5,109.5C 89.772,111.155 89.6053,112.821 90,114.5C 91.353,115.685 92.5197,117.019 93.5,118.5C 98.8285,119.612 104.162,119.612 109.5,118.5C 110.229,113.87 110.563,109.203 110.5,104.5C 111.833,104.5 113.167,104.5 114.5,104.5C 114.343,103.127 114.51,101.793 115,100.5C 118.415,100.906 121.082,102.572 123,105.5C 123,108.982 123.167,112.316 123.5,115.5C 122.167,115.5 120.833,115.5 119.5,115.5C 119.5,116.833 119.5,118.167 119.5,119.5 Z"/></g>
<g><path style="opacity:1" fill="#c06357" d="M 67.5,143.5 C 68.1667,143.5 68.8333,143.5 69.5,143.5C 71.8777,145.878 73.8777,148.545 75.5,151.5C 72.4728,149.14 69.8062,146.473 67.5,143.5 Z"/></g>
</svg>
