<?xml version="1.0" encoding="UTF-8"?>
<!DOCTYPE svg PUBLIC "-//W3C//DTD SVG 1.1//EN" "http://www.w3.org/Graphics/SVG/1.1/DTD/svg11.dtd">
<svg xmlns="http://www.w3.org/2000/svg" version="1.1" width="215px" height="220px" style="shape-rendering:geometricPrecision; text-rendering:geometricPrecision; image-rendering:optimizeQuality; fill-rule:evenodd; clip-rule:evenodd" xmlns:xlink="http://www.w3.org/1999/xlink">
<g><path style="opacity:1" fill="#fbfcfb" d="M -0.5,-0.5 C 35.5,-0.5 71.5,-0.5 107.5,-0.5C 107.918,0.221579 108.584,0.721579 109.5,1C 101.785,5.22026 97.4515,11.7203 96.5,20.5C 91.6113,21.9433 86.9447,23.9433 82.5,26.5C 77.9497,24.8159 73.1163,23.8159 68,23.5C 59.7245,24.2139 51.7245,25.2139 44,26.5C 42.7263,27.5353 41.5596,28.702 40.5,30C 41,30.5 41.5,31 42,31.5C 42.2727,36.2291 42.9393,40.8958 44,45.5C 44.66,47.3237 45.8267,48.657 47.5,49.5C 47.5,49.8333 47.5,50.1667 47.5,50.5C 48.232,55.7854 49.5653,60.9521 51.5,66C 49.2401,70.5649 47.9068,75.3982 47.5,80.5C 45.5269,81.3311 43.5269,81.4978 41.5,81C 42.3802,82.3561 42.7135,83.8561 42.5,85.5C 39.7606,88.2327 37.4273,91.2327 35.5,94.5C 34.8333,94.8333 34.1667,95.1667 33.5,95.5C 27.7732,98.2731 25.6065,102.94 27,109.5C 30.3915,111.795 33.8915,113.795 37.5,115.5C 39.5,116.167 41.5,116.833 43.5,117.5C 45.1815,119.008 47.1815,120.008 49.5,120.5C 50.2341,121.708 50.5674,123.041 50.5,124.5C 53.1873,124.336 55.854,124.503 58.5,125C 59.8551,128.694 62.0218,131.861 65,134.5C 65.376,139.003 65.2094,143.503 64.5,148C 65.1833,153.22 66.1833,158.387 67.5,163.5C 71.6315,164.796 75.6315,164.796 79.5,163.5C 85.2541,162.918 90.5875,161.084 95.5,158C 97.4727,157.505 99.4727,157.338 101.5,157.5C 105.233,158.977 109.233,159.811 113.5,160C 114.264,162.069 114.764,164.236 115,166.5C 115.667,167.167 116.333,167.833 117,168.5C 117.497,165.854 117.664,163.187 117.5,160.5C 119.292,160.366 120.958,160.699 122.5,161.5C 124.977,164.315 127.977,166.315 131.5,167.5C 132.449,170.94 134.782,172.274 138.5,171.5C 144.941,171.443 148.941,168.277 150.5,162C 151.386,157.849 152.22,153.682 153,149.5C 154.789,147.771 156.956,147.104 159.5,147.5C 159.5,146.5 159.5,145.5 159.5,144.5C 161.915,140.578 164.915,137.078 168.5,134C 172.744,133.571 176.744,132.404 180.5,130.5C 181.193,129.482 181.859,128.482 182.5,127.5C 183.765,126.486 184.431,124.986 184.5,123C 184.569,118.19 182.902,114.19 179.5,111C 178.552,110.517 177.552,110.351 176.5,110.5C 176.066,105.332 175.4,100.332 174.5,95.5C 173.565,91.0299 172.232,86.6966 170.5,82.5C 170.477,80.0733 169.977,77.74 169,75.5C 165.79,72.2898 162.623,69.1231 159.5,66C 158.207,65.51 156.873,65.3433 155.5,65.5C 154.005,65.0113 152.671,64.3446 151.5,63.5C 149.847,60.8565 147.513,58.8565 144.5,57.5C 136.549,58.3028 128.549,58.8028 120.5,59C 119.058,59.3768 118.058,60.2101 117.5,61.5C 115.5,62.8333 113.5,64.1667 111.5,65.5C 110.5,65.8333 109.833,66.5 109.5,67.5C 105.783,68.9198 103.45,71.5865 102.5,75.5C 100.992,77.1815 99.9925,79.1815 99.5,81.5C 97.7895,85.8807 97.1228,90.5474 97.5,95.5C 97.1632,99.3076 97.6632,102.974 99,106.5C 101.317,109.317 103.817,111.984 106.5,114.5C 107.736,115.246 109.07,115.579 110.5,115.5C 110.833,115.5 111.167,115.5 111.5,115.5C 112.848,117.48 114.848,118.647 117.5,119C 123.167,119.667 128.833,119.667 134.5,119C 138.007,117.67 139.673,115.17 139.5,111.5C 137.833,111.5 136.167,111.5 134.5,111.5C 132.167,111.5 129.833,111.5 127.5,111.5C 122.457,111.191 117.79,109.691 113.5,107C 112.324,103.691 113.657,102.191 117.5,102.5C 117.5,101.5 117.5,100.5 117.5,99.5C 114.653,99.7824 111.987,99.7824 109.5,99.5C 107.651,94.2643 108.484,89.5976 112,85.5C 112.505,83.4817 113.005,81.4817 113.5,79.5C 117.309,80.1768 120.142,78.8435 122,75.5C 123.144,75.0889 124.311,74.7556 125.5,74.5C 131.79,75.026 137.79,76.3594 143.5,78.5C 144.582,80.3386 145.415,82.3386 146,84.5C 147.892,85.13 149.559,86.13 151,87.5C 153.87,95.9847 154.203,104.651 152,113.5C 149.162,117.162 146.995,121.162 145.5,125.5C 145.5,126.167 145.167,126.5 144.5,126.5C 139.017,129.278 133.35,131.778 127.5,134C 121.843,134.499 116.176,134.666 110.5,134.5C 110.5,133.5 110.5,132.5 110.5,131.5C 107.813,131.664 105.146,131.497 102.5,131C 100.166,128.162 97.1662,126.329 93.5,125.5C 95.1045,123.821 95.7711,121.821 95.5,119.5C 94.5,119.5 93.5,119.5 92.5,119.5C 92.5,120.5 92.5,121.5 92.5,122.5C 90.7839,122.371 89.1172,122.038 87.5,121.5C 86.8397,119.656 85.8397,117.99 84.5,116.5C 84.7282,114.603 85.7282,113.27 87.5,112.5C 84.5546,111.674 81.8879,111.674 79.5,112.5C 79.5,112.167 79.5,111.833 79.5,111.5C 79.2562,106.933 78.0896,102.599 76,98.5C 75.8333,95.3333 75.6667,92.1667 75.5,89C 75.745,80.2842 77.0784,71.7842 79.5,63.5C 80.4959,63.5858 81.3292,63.2524 82,62.5C 83.1996,58.7545 85.3662,55.7545 88.5,53.5C 89.4767,51.5891 90.1433,49.5891 90.5,47.5C 90.8333,47.5 91.1667,47.5 91.5,47.5C 98.8278,43.6024 106.661,40.6024 115,38.5C 119.21,38.9121 123.376,39.5787 127.5,40.5C 125.272,42.4011 122.605,43.4011 119.5,43.5C 119.281,44.675 119.614,45.675 120.5,46.5C 127.917,43.7808 135.584,42.4475 143.5,42.5C 143.5,43.5 143.5,44.5 143.5,45.5C 144.833,45.5 146.167,45.5 147.5,45.5C 147.281,44.325 147.614,43.325 148.5,42.5C 151.526,44.6945 154.859,46.1945 158.5,47C 159.669,49.0065 160.335,51.1732 160.5,53.5C 164.747,53.1181 167.414,54.9514 168.5,59C 167.81,60.9214 167.476,62.7547 167.5,64.5C 168.167,64.8333 168.833,65.1667 169.5,65.5C 171.325,64.3489 173.325,63.6822 175.5,63.5C 175.733,65.0618 176.4,66.3951 177.5,67.5C 177.76,72.9883 178.76,78.3217 180.5,83.5C 186.98,85.4825 189.313,82.9825 187.5,76C 187.333,73.5 187.167,71 187,68.5C 186.329,67.7476 185.496,67.4142 184.5,67.5C 184.598,61.8912 183.431,56.5578 181,51.5C 178.257,46.8496 175.09,42.5162 171.5,38.5C 170.982,35.6843 170.149,33.0176 169,30.5C 167.348,25.7702 168.848,23.1035 173.5,22.5C 173.785,20.712 173.452,19.0453 172.5,17.5C 169.916,18.3928 167.249,18.7261 164.5,18.5C 157.802,17.6625 151.635,18.9958 146,22.5C 145.098,22.2568 144.265,21.9234 143.5,21.5C 139.195,19.2538 134.529,17.9205 129.5,17.5C 128.62,14.7378 127.454,12.0711 126,9.5C 122.958,7.27917 120.125,4.94584 117.5,2.5C 117.443,1.39105 117.11,0.391047 116.5,-0.5C 149.167,-0.5 181.833,-0.5 214.5,-0.5C 214.5,62.8333 214.5,126.167 214.5,189.5C 212.833,189.5 211.167,189.5 209.5,189.5C 209.719,190.675 209.386,191.675 208.5,192.5C 199.698,187.454 192.198,188.787 186,196.5C 184.455,201.047 184.121,205.713 185,210.5C 187.46,214.466 190.627,217.466 194.5,219.5C 189.5,219.5 184.5,219.5 179.5,219.5C 179.666,212.159 179.5,204.826 179,197.5C 174.81,189.458 168.644,187.458 160.5,191.5C 158.821,189.896 156.821,189.229 154.5,189.5C 154.5,199.5 154.5,209.5 154.5,219.5C 152.5,219.5 150.5,219.5 148.5,219.5C 148.5,209.5 148.5,199.5 148.5,189.5C 146.833,189.5 145.167,189.5 143.5,189.5C 143.657,190.873 143.49,192.207 143,193.5C 135.396,187.927 128.063,188.26 121,194.5C 116.029,204.8 118.196,213.133 127.5,219.5C 120.833,219.5 114.167,219.5 107.5,219.5C 107.5,211.167 107.5,202.833 107.5,194.5C 110.5,194.5 113.5,194.5 116.5,194.5C 116.5,192.833 116.5,191.167 116.5,189.5C 113.5,189.5 110.5,189.5 107.5,189.5C 107.178,187.278 107.845,185.444 109.5,184C 112.146,183.503 114.813,183.336 117.5,183.5C 117.383,181.516 118.05,179.85 119.5,178.5C 111.986,175.849 106.153,177.849 102,184.5C 101.5,196.162 101.333,207.829 101.5,219.5C 99.5,219.5 97.5,219.5 95.5,219.5C 95.5,209.5 95.5,199.5 95.5,189.5C 93.8333,189.5 92.1667,189.5 90.5,189.5C 90.719,190.675 90.3857,191.675 89.5,192.5C 79.2745,186.774 71.4412,189.107 66,199.5C 64.9668,204.894 65.9668,209.894 69,214.5C 71.3284,215.664 73.1618,217.33 74.5,219.5C 67.5,219.5 60.5,219.5 53.5,219.5C 53.3337,212.825 53.5004,206.158 54,199.5C 54.4652,198.069 55.2986,196.903 56.5,196C 61.0119,196.383 64.0119,194.55 65.5,190.5C 61.1403,189.02 56.9736,189.353 53,191.5C 51.5993,189.808 49.7659,189.141 47.5,189.5C 47.5,199.5 47.5,209.5 47.5,219.5C 41.1667,219.5 34.8333,219.5 28.5,219.5C 31.6069,216.991 34.7736,214.325 38,211.5C 40.39,207.829 41.89,203.829 42.5,199.5C 43.4511,198.081 43.7845,196.415 43.5,194.5C 34.9832,194.174 26.6499,194.507 18.5,195.5C 18.5,197.167 18.5,198.833 18.5,200.5C 24.5368,200.171 30.5368,200.504 36.5,201.5C 32.7821,211.03 25.7821,214.864 15.5,213C 5.7346,207.038 3.2346,198.872 8,188.5C 12.559,181.923 18.7257,179.757 26.5,182C 29.3062,183.089 31.9728,184.089 34.5,185C 35.5,184 36.5,183 37.5,182C 27.4406,173.814 17.1072,173.48 6.5,181C 4.51163,184.501 2.1783,187.668 -0.5,190.5C -0.5,126.833 -0.5,63.1667 -0.5,-0.5 Z"/></g>
<g><path style="opacity:1" fill="#fbf0e1" d="M 107.5,-0.5 C 109.167,-0.5 110.833,-0.5 112.5,-0.5C 112.167,0.166667 111.833,0.833333 111.5,1.5C 104.768,6.71509 99.7685,13.0484 96.5,20.5C 97.4515,11.7203 101.785,5.22026 109.5,1C 108.584,0.721579 107.918,0.221579 107.5,-0.5 Z"/></g>
<g><path style="opacity:1" fill="#ef5828" d="M 117.5,3.5 C 121.518,8.23816 125.518,12.9048 129.5,17.5C 132.778,18.9566 136.111,20.29 139.5,21.5C 141.586,22.6091 143.92,23.2757 146.5,23.5C 150.388,22.0937 154.388,21.0937 158.5,20.5C 160.693,20.3262 162.527,20.9929 164,22.5C 164.436,24.8474 164.936,27.1807 165.5,29.5C 164.56,32.1316 164.393,34.7983 165,37.5C 173.444,44.7438 178.944,53.9105 181.5,65C 181.167,65.8333 180.833,66.6667 180.5,67.5C 180.167,67.3333 179.833,67.1667 179.5,67C 178.392,64.3887 177.059,61.8887 175.5,59.5C 173.041,56.123 170.041,53.4563 166.5,51.5C 165.058,50.1805 164.392,48.5138 164.5,46.5C 162.784,46.3713 161.117,46.038 159.5,45.5C 159.918,44.7784 160.584,44.2784 161.5,44C 157.548,42.084 153.548,40.084 149.5,38C 150.167,37.6667 150.833,37.3333 151.5,37C 137.655,33.2598 123.655,32.5932 109.5,35C 103.685,38.4967 97.3514,40.8301 90.5,42C 89.0936,44.4449 87.7602,46.9449 86.5,49.5C 85.2723,51.321 83.6056,52.321 81.5,52.5C 81.5,54.1667 81.5,55.8333 81.5,57.5C 80.5,57.5 79.5,57.5 78.5,57.5C 78.5,59.5 78.5,61.5 78.5,63.5C 76.631,65.0337 75.2977,67.0337 74.5,69.5C 73.5318,67.3926 73.1984,65.0593 73.5,62.5C 70.234,62.4326 68.734,64.0992 69,67.5C 68.0766,66.2412 67.2432,64.9079 66.5,63.5C 65.1667,65.1667 63.8333,66.8333 62.5,68.5C 61.8333,64.1667 61.1667,59.8333 60.5,55.5C 59.914,55.2907 59.414,54.9574 59,54.5C 57.9957,58.6028 56.829,62.6028 55.5,66.5C 55.8294,63.7718 55.1628,61.4385 53.5,59.5C 52.2913,55.4115 50.7913,51.4115 49,47.5C 48.5006,41.8431 48.3339,36.1764 48.5,30.5C 50.4147,30.7845 52.0813,30.4511 53.5,29.5C 58.7928,27.2248 64.1261,27.0582 69.5,29C 74.1667,29.6667 78.8333,29.6667 83.5,29C 87.8616,25.3195 92.8616,22.9861 98.5,22C 100.333,18.1667 102.167,14.3333 104,10.5C 105.704,8.62658 107.537,6.95991 109.5,5.5C 111.344,6.20389 111.844,7.53722 111,9.5C 109.765,13.2025 107.598,16.2025 104.5,18.5C 104.709,19.086 105.043,19.586 105.5,20C 103.771,21.7889 103.104,23.9556 103.5,26.5C 105.167,26.5 106.833,26.5 108.5,26.5C 108.83,21.5136 110.164,16.847 112.5,12.5C 114.003,13.0522 115.669,13.0522 117.5,12.5C 117.723,9.88578 116.556,8.21911 114,7.5C 113.51,6.20677 113.343,4.87344 113.5,3.5C 114.833,3.5 116.167,3.5 117.5,3.5 Z"/></g>
<g><path style="opacity:1" fill="#cc6c4a" d="M 117.5,3.5 C 117.5,3.16667 117.5,2.83333 117.5,2.5C 120.125,4.94584 122.958,7.27917 126,9.5C 127.454,12.0711 128.62,14.7378 129.5,17.5C 125.518,12.9048 121.518,8.23816 117.5,3.5 Z"/></g>
<g><path style="opacity:1" fill="#e65d2e" d="M 112.5,-0.5 C 113.833,-0.5 115.167,-0.5 116.5,-0.5C 117.11,0.391047 117.443,1.39105 117.5,2.5C 117.5,2.83333 117.5,3.16667 117.5,3.5C 116.167,3.5 114.833,3.5 113.5,3.5C 113.343,4.87344 113.51,6.20677 114,7.5C 116.556,8.21911 117.723,9.88578 117.5,12.5C 115.669,13.0522 114.003,13.0522 112.5,12.5C 110.164,16.847 108.83,21.5136 108.5,26.5C 106.833,26.5 105.167,26.5 103.5,26.5C 103.104,23.9556 103.771,21.7889 105.5,20C 105.043,19.586 104.709,19.086 104.5,18.5C 107.598,16.2025 109.765,13.2025 111,9.5C 111.844,7.53722 111.344,6.20389 109.5,5.5C 110.6,4.39514 111.267,3.06181 111.5,1.5C 111.833,0.833333 112.167,0.166667 112.5,-0.5 Z"/></g>
<g><path style="opacity:1" fill="#e19b7d" d="M 129.5,17.5 C 134.529,17.9205 139.195,19.2538 143.5,21.5C 142.167,21.5 140.833,21.5 139.5,21.5C 136.111,20.29 132.778,18.9566 129.5,17.5 Z"/></g>
<g><path style="opacity:1" fill="#d26a45" d="M 164.5,18.5 C 166.068,24.3602 166.902,30.3602 167,36.5C 175.549,45.3249 181.382,55.6582 184.5,67.5C 184.5,69.5 184.5,71.5 184.5,73.5C 184.975,76.0821 184.308,78.0821 182.5,79.5C 180.833,75.5 179.167,71.5 177.5,67.5C 176.4,66.3951 175.733,65.0618 175.5,63.5C 172.497,59.4914 169.497,55.4914 166.5,51.5C 170.041,53.4563 173.041,56.123 175.5,59.5C 177.059,61.8887 178.392,64.3887 179.5,67C 179.833,67.1667 180.167,67.3333 180.5,67.5C 180.833,66.6667 181.167,65.8333 181.5,65C 178.944,53.9105 173.444,44.7438 165,37.5C 164.393,34.7983 164.56,32.1316 165.5,29.5C 164.936,27.1807 164.436,24.8474 164,22.5C 162.527,20.9929 160.693,20.3262 158.5,20.5C 154.388,21.0937 150.388,22.0937 146.5,23.5C 143.92,23.2757 141.586,22.6091 139.5,21.5C 140.833,21.5 142.167,21.5 143.5,21.5C 144.265,21.9234 145.098,22.2568 146,22.5C 151.635,18.9958 157.802,17.6625 164.5,18.5 Z"/></g>
<g><path style="opacity:1" fill="#d27054" d="M 111.5,1.5 C 111.267,3.06181 110.6,4.39514 109.5,5.5C 107.537,6.95991 105.704,8.62658 104,10.5C 102.167,14.3333 100.333,18.1667 98.5,22C 92.8616,22.9861 87.8616,25.3195 83.5,29C 78.8333,29.6667 74.1667,29.6667 69.5,29C 64.1261,27.0582 58.7928,27.2248 53.5,29.5C 51.5,29.5 49.5,29.5 47.5,29.5C 57.5119,24.5137 67.8453,24.1804 78.5,28.5C 80.1705,28.3318 81.5039,27.6651 82.5,26.5C 86.9447,23.9433 91.6113,21.9433 96.5,20.5C 99.7685,13.0484 104.768,6.71509 111.5,1.5 Z"/></g>
<g><path style="opacity:1" fill="#fcf6e7" d="M 82.5,26.5 C 81.5039,27.6651 80.1705,28.3318 78.5,28.5C 67.8453,24.1804 57.5119,24.5137 47.5,29.5C 46.8826,29.6107 46.3826,29.944 46,30.5C 45.4528,36.3844 45.9528,42.0511 47.5,47.5C 47.5,48.1667 47.5,48.8333 47.5,49.5C 45.8267,48.657 44.66,47.3237 44,45.5C 42.9393,40.8958 42.2727,36.2291 42,31.5C 41.5,31 41,30.5 40.5,30C 41.5596,28.702 42.7263,27.5353 44,26.5C 51.7245,25.2139 59.7245,24.2139 68,23.5C 73.1163,23.8159 77.9497,24.8159 82.5,26.5 Z"/></g>
<g><path style="opacity:1" fill="#d6613f" d="M 159.5,45.5 C 140.356,33.9738 120.356,32.4738 99.5,41C 96.2126,42.4675 93.5459,44.6341 91.5,47.5C 91.1667,47.5 90.8333,47.5 90.5,47.5C 85.3549,51.7815 81.6882,57.1148 79.5,63.5C 79.1667,63.5 78.8333,63.5 78.5,63.5C 78.5,61.5 78.5,59.5 78.5,57.5C 79.5,57.5 80.5,57.5 81.5,57.5C 81.5,55.8333 81.5,54.1667 81.5,52.5C 83.6056,52.321 85.2723,51.321 86.5,49.5C 87.7602,46.9449 89.0936,44.4449 90.5,42C 97.3514,40.8301 103.685,38.4967 109.5,35C 123.655,32.5932 137.655,33.2598 151.5,37C 150.833,37.3333 150.167,37.6667 149.5,38C 153.548,40.084 157.548,42.084 161.5,44C 160.584,44.2784 159.918,44.7784 159.5,45.5 Z"/></g>
<g><path style="opacity:1" fill="#dc603e" d="M 47.5,29.5 C 49.5,29.5 51.5,29.5 53.5,29.5C 52.0813,30.4511 50.4147,30.7845 48.5,30.5C 48.3339,36.1764 48.5006,41.8431 49,47.5C 50.7913,51.4115 52.2913,55.4115 53.5,59.5C 50.7436,56.9823 48.7436,53.9823 47.5,50.5C 47.5,50.1667 47.5,49.8333 47.5,49.5C 47.5,48.8333 47.5,48.1667 47.5,47.5C 46.8181,41.4466 46.8181,35.4466 47.5,29.5 Z"/></g>
<g><path style="opacity:1" fill="#fcf5eb" d="M 159.5,45.5 C 161.418,48.026 163.751,50.026 166.5,51.5C 169.497,55.4914 172.497,59.4914 175.5,63.5C 173.325,63.6822 171.325,64.3489 169.5,65.5C 168.833,65.1667 168.167,64.8333 167.5,64.5C 167.476,62.7547 167.81,60.9214 168.5,59C 167.414,54.9514 164.747,53.1181 160.5,53.5C 160.335,51.1732 159.669,49.0065 158.5,47C 154.859,46.1945 151.526,44.6945 148.5,42.5C 147.614,43.325 147.281,44.325 147.5,45.5C 146.167,45.5 144.833,45.5 143.5,45.5C 143.5,44.5 143.5,43.5 143.5,42.5C 135.584,42.4475 127.917,43.7808 120.5,46.5C 119.614,45.675 119.281,44.675 119.5,43.5C 122.605,43.4011 125.272,42.4011 127.5,40.5C 123.376,39.5787 119.21,38.9121 115,38.5C 106.661,40.6024 98.8278,43.6024 91.5,47.5C 93.5459,44.6341 96.2126,42.4675 99.5,41C 120.356,32.4738 140.356,33.9738 159.5,45.5 Z"/></g>
<g><path style="opacity:1" fill="#ca6f5a" d="M 47.5,29.5 C 46.8181,35.4466 46.8181,41.4466 47.5,47.5C 45.9528,42.0511 45.4528,36.3844 46,30.5C 46.3826,29.944 46.8826,29.6107 47.5,29.5 Z"/></g>
<g><path style="opacity:1" fill="#fdf3e7" d="M 184.5,67.5 C 181.382,55.6582 175.549,45.3249 167,36.5C 166.902,30.3602 166.068,24.3602 164.5,18.5C 167.249,18.7261 169.916,18.3928 172.5,17.5C 173.452,19.0453 173.785,20.712 173.5,22.5C 168.848,23.1035 167.348,25.7702 169,30.5C 170.149,33.0176 170.982,35.6843 171.5,38.5C 175.09,42.5162 178.257,46.8496 181,51.5C 183.431,56.5578 184.598,61.8912 184.5,67.5 Z"/></g>
<g><path style="opacity:1" fill="#df694d" d="M 159.5,45.5 C 161.117,46.038 162.784,46.3713 164.5,46.5C 164.392,48.5138 165.058,50.1805 166.5,51.5C 163.751,50.026 161.418,48.026 159.5,45.5 Z"/></g>
<g><path style="opacity:1" fill="#fde7d2" d="M 90.5,47.5 C 90.1433,49.5891 89.4767,51.5891 88.5,53.5C 85.3662,55.7545 83.1996,58.7545 82,62.5C 81.3292,63.2524 80.4959,63.5858 79.5,63.5C 81.6882,57.1148 85.3549,51.7815 90.5,47.5 Z"/></g>
<g><path style="opacity:1" fill="#fbe6d1" d="M 151.5,63.5 C 150.833,63.5 150.167,63.5 149.5,63.5C 147.75,62.1302 145.75,61.1302 143.5,60.5C 142.833,60.5 142.167,60.5 141.5,60.5C 133.513,58.9652 125.513,59.2986 117.5,61.5C 118.058,60.2101 119.058,59.3768 120.5,59C 128.549,58.8028 136.549,58.3028 144.5,57.5C 147.513,58.8565 149.847,60.8565 151.5,63.5 Z"/></g>
<g><path style="opacity:1" fill="#c87352" d="M 143.5,60.5 C 145.75,61.1302 147.75,62.1302 149.5,63.5C 146.784,63.6138 144.784,62.6138 143.5,60.5 Z"/></g>
<g><path style="opacity:1" fill="#d36f49" d="M 141.5,60.5 C 136.156,60.334 130.823,60.5006 125.5,61C 121.068,63.4226 116.401,64.9226 111.5,65.5C 113.5,64.1667 115.5,62.8333 117.5,61.5C 125.513,59.2986 133.513,58.9652 141.5,60.5 Z"/></g>
<g><path style="opacity:1" fill="#e36e36" d="M 149.5,63.5 C 150.167,63.5 150.833,63.5 151.5,63.5C 152.671,64.3446 154.005,65.0113 155.5,65.5C 157.367,66.7598 158.7,68.4265 159.5,70.5C 159.167,70.5 158.833,70.5 158.5,70.5C 151.891,69.9383 145.225,68.9383 138.5,67.5C 142.126,66.878 145.793,66.7114 149.5,67C 150.684,65.8545 150.684,64.6879 149.5,63.5 Z"/></g>
<g><path style="opacity:1" fill="#d26d42" d="M 78.5,63.5 C 76.8017,68.9226 75.135,74.256 73.5,79.5C 73.6159,76.1401 73.9492,72.8067 74.5,69.5C 75.2977,67.0337 76.631,65.0337 78.5,63.5 Z"/></g>
<g><path style="opacity:1" fill="#fdf0d5" d="M 155.5,65.5 C 156.873,65.3433 158.207,65.51 159.5,66C 162.623,69.1231 165.79,72.2898 169,75.5C 169.977,77.74 170.477,80.0733 170.5,82.5C 167.514,77.8483 163.847,73.8483 159.5,70.5C 158.7,68.4265 157.367,66.7598 155.5,65.5 Z"/></g>
<g><path style="opacity:1" fill="#f16d28" d="M 74.5,69.5 C 73.9492,72.8067 73.6159,76.1401 73.5,79.5C 72.5489,80.9187 72.2155,82.5853 72.5,84.5C 71.8386,83.2825 71.1719,81.9492 70.5,80.5C 68.0948,89.8842 67.0948,89.5509 67.5,79.5C 65.5082,79.3285 63.8415,79.9951 62.5,81.5C 61.1667,80.8333 59.8333,80.1667 58.5,79.5C 56.963,82.6016 54.963,85.2683 52.5,87.5C 50.484,87.4841 49.484,86.4841 49.5,84.5C 50.1174,84.3893 50.6174,84.056 51,83.5C 51.4974,80.854 51.6641,78.1873 51.5,75.5C 53.8125,73.0221 55.1458,70.0221 55.5,66.5C 56.829,62.6028 57.9957,58.6028 59,54.5C 59.414,54.9574 59.914,55.2907 60.5,55.5C 61.1667,59.8333 61.8333,64.1667 62.5,68.5C 63.8333,66.8333 65.1667,65.1667 66.5,63.5C 67.2432,64.9079 68.0766,66.2412 69,67.5C 68.734,64.0992 70.234,62.4326 73.5,62.5C 73.1984,65.0593 73.5318,67.3926 74.5,69.5 Z"/></g>
<g><path style="opacity:1" fill="#df9f7d" d="M 109.5,67.5 C 107.157,70.2072 104.823,72.8739 102.5,75.5C 103.45,71.5865 105.783,68.9198 109.5,67.5 Z"/></g>
<g><path style="opacity:1" fill="#f16926" d="M 141.5,60.5 C 142.167,60.5 142.833,60.5 143.5,60.5C 144.784,62.6138 146.784,63.6138 149.5,63.5C 150.684,64.6879 150.684,65.8545 149.5,67C 145.793,66.7114 142.126,66.878 138.5,67.5C 145.225,68.9383 151.891,69.9383 158.5,70.5C 157.997,76.1519 155.997,77.1519 152.5,73.5C 150.149,75.2289 147.482,75.8956 144.5,75.5C 142.858,73.9192 140.858,73.2525 138.5,73.5C 137.571,72.6851 136.571,71.8518 135.5,71C 128.658,71.4999 121.825,71.3332 115,70.5C 113.833,70.8333 112.667,71.1667 111.5,71.5C 113.271,71.2799 114.938,72.1133 116.5,74C 114.94,76.6592 112.607,77.8259 109.5,77.5C 109.5,79.1667 109.5,80.8333 109.5,82.5C 108.5,82.5 107.5,82.5 106.5,82.5C 106.5,81.5 106.5,80.5 106.5,79.5C 105.5,79.5 104.5,79.5 103.5,79.5C 104.881,75.7577 107.048,72.4243 110,69.5C 110.791,68.255 111.291,66.9217 111.5,65.5C 116.401,64.9226 121.068,63.4226 125.5,61C 130.823,60.5006 136.156,60.334 141.5,60.5 Z"/></g>
<g><path style="opacity:1" fill="#d77244" d="M 53.5,59.5 C 55.1628,61.4385 55.8294,63.7718 55.5,66.5C 55.1458,70.0221 53.8125,73.0221 51.5,75.5C 51.5,74.8333 51.5,74.1667 51.5,73.5C 52.2689,69.9228 53.2689,66.4228 54.5,63C 53.6634,61.9887 53.33,60.8221 53.5,59.5 Z"/></g>
<g><path style="opacity:1" fill="#e26f3e" d="M 138.5,73.5 C 137.5,73.5 136.5,73.5 135.5,73.5C 126.986,71.9302 119.653,73.9302 113.5,79.5C 112.167,80.8333 110.833,82.1667 109.5,83.5C 109.5,83.1667 109.5,82.8333 109.5,82.5C 109.5,80.8333 109.5,79.1667 109.5,77.5C 112.607,77.8259 114.94,76.6592 116.5,74C 114.938,72.1133 113.271,71.2799 111.5,71.5C 112.667,71.1667 113.833,70.8333 115,70.5C 121.825,71.3332 128.658,71.4999 135.5,71C 136.571,71.8518 137.571,72.6851 138.5,73.5 Z"/></g>
<g><path style="opacity:1" fill="#fdf1da" d="M 135.5,73.5 C 138.479,74.808 141.146,76.4747 143.5,78.5C 137.79,76.3594 131.79,75.026 125.5,74.5C 124.311,74.7556 123.144,75.0889 122,75.5C 120.142,78.8435 117.309,80.1768 113.5,79.5C 119.653,73.9302 126.986,71.9302 135.5,73.5 Z"/></g>
<g><path style="opacity:1" fill="#d78552" d="M 135.5,73.5 C 136.5,73.5 137.5,73.5 138.5,73.5C 140.858,73.2525 142.858,73.9192 144.5,75.5C 147.615,77.2878 149.615,79.9545 150.5,83.5C 148.445,81.4453 146.112,79.7787 143.5,78.5C 141.146,76.4747 138.479,74.808 135.5,73.5 Z"/></g>
<g><path style="opacity:1" fill="#f17626" d="M 158.5,70.5 C 158.833,70.5 159.167,70.5 159.5,70.5C 161.706,72.9057 163.373,75.739 164.5,79C 163.692,79.3076 163.025,79.8076 162.5,80.5C 163.776,81.6446 165.109,81.6446 166.5,80.5C 168.703,83.5722 170.369,86.9055 171.5,90.5C 171.545,95.9466 170.545,96.4466 168.5,92C 167.207,91.51 165.873,91.3433 164.5,91.5C 164.5,92.5 164.5,93.5 164.5,94.5C 162.61,94.7035 161.11,94.0368 160,92.5C 159.764,94.1193 158.931,95.1193 157.5,95.5C 158.042,91.7406 156.708,89.0739 153.5,87.5C 152.026,86.5637 151.026,85.2303 150.5,83.5C 149.615,79.9545 147.615,77.2878 144.5,75.5C 147.482,75.8956 150.149,75.2289 152.5,73.5C 155.997,77.1519 157.997,76.1519 158.5,70.5 Z"/></g>
<g><path style="opacity:1" fill="#fdf3d9" d="M 78.5,63.5 C 78.8333,63.5 79.1667,63.5 79.5,63.5C 77.0784,71.7842 75.745,80.2842 75.5,89C 75.6667,92.1667 75.8333,95.3333 76,98.5C 78.0896,102.599 79.2562,106.933 79.5,111.5C 78.8333,111.5 78.5,111.167 78.5,110.5C 77.9251,107.088 76.5918,104.088 74.5,101.5C 73.6502,94.2015 73.3169,86.8681 73.5,79.5C 75.135,74.256 76.8017,68.9226 78.5,63.5 Z"/></g>
<g><path style="opacity:1" fill="#fdf2e0" d="M 47.5,50.5 C 48.7436,53.9823 50.7436,56.9823 53.5,59.5C 53.33,60.8221 53.6634,61.9887 54.5,63C 53.2689,66.4228 52.2689,69.9228 51.5,73.5C 51.4235,79.6395 48.4235,83.6395 42.5,85.5C 42.7135,83.8561 42.3802,82.3561 41.5,81C 43.5269,81.4978 45.5269,81.3311 47.5,80.5C 47.9068,75.3982 49.2401,70.5649 51.5,66C 49.5653,60.9521 48.232,55.7854 47.5,50.5 Z"/></g>
<g><path style="opacity:1" fill="#fef5e6" d="M 177.5,67.5 C 179.167,71.5 180.833,75.5 182.5,79.5C 182.5,80.5 182.5,81.5 182.5,82.5C 183.5,82.5 184.5,82.5 185.5,82.5C 185.81,79.2869 185.477,76.2869 184.5,73.5C 184.5,71.5 184.5,69.5 184.5,67.5C 185.496,67.4142 186.329,67.7476 187,68.5C 187.167,71 187.333,73.5 187.5,76C 189.313,82.9825 186.98,85.4825 180.5,83.5C 178.76,78.3217 177.76,72.9883 177.5,67.5 Z"/></g>
<g><path style="opacity:1" fill="#d1a687" d="M 184.5,73.5 C 185.477,76.2869 185.81,79.2869 185.5,82.5C 184.5,82.5 183.5,82.5 182.5,82.5C 182.5,81.5 182.5,80.5 182.5,79.5C 184.308,78.0821 184.975,76.0821 184.5,73.5 Z"/></g>
<g><path style="opacity:1" fill="#e87833" d="M 111.5,65.5 C 111.291,66.9217 110.791,68.255 110,69.5C 107.048,72.4243 104.881,75.7577 103.5,79.5C 104.5,79.5 105.5,79.5 106.5,79.5C 106.5,80.5 106.5,81.5 106.5,82.5C 107.5,82.5 108.5,82.5 109.5,82.5C 109.5,82.8333 109.5,83.1667 109.5,83.5C 109.672,84.4916 109.338,85.1583 108.5,85.5C 106.592,86.4856 105.592,88.1523 105.5,90.5C 104.135,87.4011 103.135,84.0677 102.5,80.5C 100.982,82.6208 99.9819,84.9541 99.5,87.5C 99.5,85.5 99.5,83.5 99.5,81.5C 99.9925,79.1815 100.992,77.1815 102.5,75.5C 104.823,72.8739 107.157,70.2072 109.5,67.5C 109.833,66.5 110.5,65.8333 111.5,65.5 Z"/></g>
<g><path style="opacity:1" fill="#db905d" d="M 51.5,73.5 C 51.5,74.1667 51.5,74.8333 51.5,75.5C 51.6641,78.1873 51.4974,80.854 51,83.5C 50.6174,84.056 50.1174,84.3893 49.5,84.5C 47.2166,84.6079 45.2166,85.4412 43.5,87C 40.9638,89.705 38.2971,92.205 35.5,94.5C 37.4273,91.2327 39.7606,88.2327 42.5,85.5C 48.4235,83.6395 51.4235,79.6395 51.5,73.5 Z"/></g>
<g><path style="opacity:1" fill="#fdf6de" d="M 143.5,78.5 C 146.112,79.7787 148.445,81.4453 150.5,83.5C 151.026,85.2303 152.026,86.5637 153.5,87.5C 153.833,88.8333 154.167,90.1667 154.5,91.5C 155.383,96.1031 155.717,100.77 155.5,105.5C 155.5,106.5 155.5,107.5 155.5,108.5C 154.076,110.515 153.41,112.848 153.5,115.5C 151.241,119.1 148.574,122.433 145.5,125.5C 146.995,121.162 149.162,117.162 152,113.5C 154.203,104.651 153.87,95.9847 151,87.5C 149.559,86.13 147.892,85.13 146,84.5C 145.415,82.3386 144.582,80.3386 143.5,78.5 Z"/></g>
<g><path style="opacity:1" fill="#d3834b" d="M 73.5,79.5 C 73.3169,86.8681 73.6502,94.2015 74.5,101.5C 73.8333,100.833 73.1667,100.167 72.5,99.5C 72.5,94.5 72.5,89.5 72.5,84.5C 72.2155,82.5853 72.5489,80.9187 73.5,79.5 Z"/></g>
<g><path style="opacity:1" fill="#eba874" d="M 99.5,81.5 C 99.5,83.5 99.5,85.5 99.5,87.5C 98.7347,90.0961 98.4013,92.7628 98.5,95.5C 98.1667,95.5 97.8333,95.5 97.5,95.5C 97.1228,90.5474 97.7895,85.8807 99.5,81.5 Z"/></g>
<g><path style="opacity:1" fill="#f27e22" d="M 105.5,90.5 C 105.666,95.1785 105.499,99.8452 105,104.5C 104.329,103.748 103.496,103.414 102.5,103.5C 101.536,100.474 100.203,97.8076 98.5,95.5C 98.4013,92.7628 98.7347,90.0961 99.5,87.5C 99.9819,84.9541 100.982,82.6208 102.5,80.5C 103.135,84.0677 104.135,87.4011 105.5,90.5 Z"/></g>
<g><path style="opacity:1" fill="#f18126" d="M 72.5,84.5 C 72.5,89.5 72.5,94.5 72.5,99.5C 72.2606,101.467 72.5939,103.301 73.5,105C 72.8742,105.75 72.3742,106.584 72,107.5C 68.9696,105.128 65.9696,102.795 63,100.5C 57.6739,101.413 52.3406,101.079 47,99.5C 45.779,100.272 44.779,101.272 44,102.5C 43.323,100.311 42.1563,99.9776 40.5,101.5C 40.1667,101.333 39.8333,101.167 39.5,101C 43.5439,98.2952 43.3772,96.1286 39,94.5C 37.2294,95.3471 36.0627,96.6805 35.5,98.5C 35.5,97.1667 35.5,95.8333 35.5,94.5C 38.2971,92.205 40.9638,89.705 43.5,87C 45.2166,85.4412 47.2166,84.6079 49.5,84.5C 49.484,86.4841 50.484,87.4841 52.5,87.5C 54.963,85.2683 56.963,82.6016 58.5,79.5C 59.8333,80.1667 61.1667,80.8333 62.5,81.5C 63.8415,79.9951 65.5082,79.3285 67.5,79.5C 67.0948,89.5509 68.0948,89.8842 70.5,80.5C 71.1719,81.9492 71.8386,83.2825 72.5,84.5 Z"/></g>
<g><path style="opacity:1" fill="#eeb981" d="M 154.5,91.5 C 155.805,93.3972 156.471,95.7305 156.5,98.5C 156.497,101.025 156.163,103.359 155.5,105.5C 155.717,100.77 155.383,96.1031 154.5,91.5 Z"/></g>
<g><path style="opacity:1" fill="#fcf5df" d="M 113.5,79.5 C 113.005,81.4817 112.505,83.4817 112,85.5C 108.484,89.5976 107.651,94.2643 109.5,99.5C 111.987,99.7824 114.653,99.7824 117.5,99.5C 117.5,100.5 117.5,101.5 117.5,102.5C 113.657,102.191 112.324,103.691 113.5,107C 117.79,109.691 122.457,111.191 127.5,111.5C 127.5,111.833 127.5,112.167 127.5,112.5C 125.735,113.461 123.735,113.795 121.5,113.5C 117.637,111.668 113.97,109.335 110.5,106.5C 107.89,101.208 106.89,95.5417 107.5,89.5C 107.833,88.1667 108.167,86.8333 108.5,85.5C 109.338,85.1583 109.672,84.4916 109.5,83.5C 110.833,82.1667 112.167,80.8333 113.5,79.5 Z"/></g>
<g><path style="opacity:1" fill="#f28924" d="M 171.5,90.5 C 172.167,95.8333 172.833,101.167 173.5,106.5C 173.5,107.833 173.5,109.167 173.5,110.5C 171.738,110.357 170.071,110.691 168.5,111.5C 166.502,109.666 164.168,108.666 161.5,108.5C 161.657,109.873 161.49,111.207 161,112.5C 160.667,112.167 160.333,111.833 160,111.5C 159.925,113.935 159.092,114.602 157.5,113.5C 158.553,107.481 158.553,101.481 157.5,95.5C 158.931,95.1193 159.764,94.1193 160,92.5C 161.11,94.0368 162.61,94.7035 164.5,94.5C 164.5,93.5 164.5,92.5 164.5,91.5C 165.873,91.3433 167.207,91.51 168.5,92C 170.545,96.4466 171.545,95.9466 171.5,90.5 Z"/></g>
<g><path style="opacity:1" fill="#e78e40" d="M 35.5,94.5 C 35.5,95.8333 35.5,97.1667 35.5,98.5C 34.5,101.167 33.5,103.833 32.5,106.5C 31.5386,104.735 31.2053,102.735 31.5,100.5C 31.8925,98.7162 32.5592,97.0495 33.5,95.5C 34.1667,95.1667 34.8333,94.8333 35.5,94.5 Z"/></g>
<g><path style="opacity:1" fill="#da9049" d="M 98.5,95.5 C 100.203,97.8076 101.536,100.474 102.5,103.5C 104.85,105.213 105.85,107.547 105.5,110.5C 101.839,106.175 99.5058,101.175 98.5,95.5 Z"/></g>
<g><path style="opacity:1" fill="#dc9e5f" d="M 107.5,89.5 C 106.89,95.5417 107.89,101.208 110.5,106.5C 108.827,105.657 107.66,104.324 107,102.5C 106.186,97.9796 106.353,93.6463 107.5,89.5 Z"/></g>
<g><path style="opacity:1" fill="#f38d25" d="M 72.5,99.5 C 73.1667,100.167 73.8333,100.833 74.5,101.5C 74.541,105.236 75.8743,108.236 78.5,110.5C 78.5,111.167 78.8333,111.5 79.5,111.5C 79.5,111.833 79.5,112.167 79.5,112.5C 79.5,113.167 79.5,113.833 79.5,114.5C 75.733,113.386 71.8997,113.386 68,114.5C 66.3419,114.325 65.0086,113.658 64,112.5C 63.5172,113.448 63.3505,114.448 63.5,115.5C 61.2776,115.822 59.4443,115.155 58,113.5C 58.0932,116.568 56.7599,118.568 54,119.5C 51.9638,117.493 49.4638,116.327 46.5,116C 44.7922,114.938 44.1255,113.771 44.5,112.5C 43.7065,112.931 42.8732,113.265 42,113.5C 40.5936,112.586 39.0936,111.92 37.5,111.5C 36.0527,109.597 34.386,107.93 32.5,106.5C 33.5,103.833 34.5,101.167 35.5,98.5C 36.0627,96.6805 37.2294,95.3471 39,94.5C 43.3772,96.1286 43.5439,98.2952 39.5,101C 39.8333,101.167 40.1667,101.333 40.5,101.5C 42.1563,99.9776 43.323,100.311 44,102.5C 44.779,101.272 45.779,100.272 47,99.5C 52.3406,101.079 57.6739,101.413 63,100.5C 65.9696,102.795 68.9696,105.128 72,107.5C 72.3742,106.584 72.8742,105.75 73.5,105C 72.5939,103.301 72.2606,101.467 72.5,99.5 Z"/></g>
<g><path style="opacity:1" fill="#fdeed2" d="M 97.5,95.5 C 97.8333,95.5 98.1667,95.5 98.5,95.5C 99.5058,101.175 101.839,106.175 105.5,110.5C 105.842,111.338 106.508,111.672 107.5,111.5C 108.147,113.141 109.147,114.474 110.5,115.5C 109.07,115.579 107.736,115.246 106.5,114.5C 103.817,111.984 101.317,109.317 99,106.5C 97.6632,102.974 97.1632,99.3076 97.5,95.5 Z"/></g>
<g><path style="opacity:1" fill="#dfa260" d="M 74.5,101.5 C 76.5918,104.088 77.9251,107.088 78.5,110.5C 75.8743,108.236 74.541,105.236 74.5,101.5 Z"/></g>
<g><path style="opacity:1" fill="#d88442" d="M 159.5,70.5 C 163.847,73.8483 167.514,77.8483 170.5,82.5C 172.232,86.6966 173.565,91.0299 174.5,95.5C 174.5,99.1667 174.5,102.833 174.5,106.5C 174.167,106.5 173.833,106.5 173.5,106.5C 172.833,101.167 172.167,95.8333 171.5,90.5C 170.369,86.9055 168.703,83.5722 166.5,80.5C 165.109,81.6446 163.776,81.6446 162.5,80.5C 163.025,79.8076 163.692,79.3076 164.5,79C 163.373,75.739 161.706,72.9057 159.5,70.5 Z"/></g>
<g><path style="opacity:1" fill="#eb8c31" d="M 108.5,85.5 C 108.167,86.8333 107.833,88.1667 107.5,89.5C 106.353,93.6463 106.186,97.9796 107,102.5C 107.66,104.324 108.827,105.657 110.5,106.5C 110.5,108.167 110.5,109.833 110.5,111.5C 109.5,111.5 108.5,111.5 107.5,111.5C 106.508,111.672 105.842,111.338 105.5,110.5C 105.85,107.547 104.85,105.213 102.5,103.5C 103.496,103.414 104.329,103.748 105,104.5C 105.499,99.8452 105.666,95.1785 105.5,90.5C 105.592,88.1523 106.592,86.4856 108.5,85.5 Z"/></g>
<g><path style="opacity:1" fill="#dca05b" d="M 31.5,100.5 C 31.2053,102.735 31.5386,104.735 32.5,106.5C 34.386,107.93 36.0527,109.597 37.5,111.5C 39.576,113.515 41.576,115.515 43.5,117.5C 41.5,116.833 39.5,116.167 37.5,115.5C 36.9759,112.812 35.3092,111.312 32.5,111C 28.9528,107.694 28.6194,104.194 31.5,100.5 Z"/></g>
<g><path style="opacity:1" fill="#dea052" d="M 173.5,106.5 C 173.833,106.5 174.167,106.5 174.5,106.5C 175.038,108.117 175.371,109.784 175.5,111.5C 181.615,115.072 183.948,120.405 182.5,127.5C 182.167,127.5 181.833,127.5 181.5,127.5C 181.802,124.941 181.468,122.607 180.5,120.5C 179.126,116.391 176.792,113.057 173.5,110.5C 173.5,109.167 173.5,107.833 173.5,106.5 Z"/></g>
<g><path style="opacity:1" fill="#fcf6e5" d="M 33.5,95.5 C 32.5592,97.0495 31.8925,98.7162 31.5,100.5C 28.6194,104.194 28.9528,107.694 32.5,111C 35.3092,111.312 36.9759,112.812 37.5,115.5C 33.8915,113.795 30.3915,111.795 27,109.5C 25.6065,102.94 27.7732,98.2731 33.5,95.5 Z"/></g>
<g><path style="opacity:1" fill="#fcefc8" d="M 174.5,95.5 C 175.4,100.332 176.066,105.332 176.5,110.5C 177.552,110.351 178.552,110.517 179.5,111C 182.902,114.19 184.569,118.19 184.5,123C 184.431,124.986 183.765,126.486 182.5,127.5C 183.948,120.405 181.615,115.072 175.5,111.5C 175.371,109.784 175.038,108.117 174.5,106.5C 174.5,102.833 174.5,99.1667 174.5,95.5 Z"/></g>
<g><path style="opacity:1" fill="#df9a43" d="M 110.5,106.5 C 113.97,109.335 117.637,111.668 121.5,113.5C 118.813,113.336 116.146,113.503 113.5,114C 118.063,115.475 122.73,116.308 127.5,116.5C 122.162,117.946 116.829,117.613 111.5,115.5C 111.167,115.5 110.833,115.5 110.5,115.5C 109.147,114.474 108.147,113.141 107.5,111.5C 108.5,111.5 109.5,111.5 110.5,111.5C 110.5,109.833 110.5,108.167 110.5,106.5 Z"/></g>
<g><path style="opacity:1" fill="#fbf1d4" d="M 87.5,121.5 C 84.1898,119.854 81.5232,117.52 79.5,114.5C 79.5,113.833 79.5,113.167 79.5,112.5C 81.8879,111.674 84.5546,111.674 87.5,112.5C 85.7282,113.27 84.7282,114.603 84.5,116.5C 85.8397,117.99 86.8397,119.656 87.5,121.5 Z"/></g>
<g><path style="opacity:1" fill="#e48e39" d="M 153.5,87.5 C 156.708,89.0739 158.042,91.7406 157.5,95.5C 158.553,101.481 158.553,107.481 157.5,113.5C 157.833,116.5 156.5,117.833 153.5,117.5C 153.5,116.833 153.5,116.167 153.5,115.5C 154.117,115.389 154.617,115.056 155,114.5C 155.495,112.527 155.662,110.527 155.5,108.5C 155.5,107.5 155.5,106.5 155.5,105.5C 156.163,103.359 156.497,101.025 156.5,98.5C 156.471,95.7305 155.805,93.3972 154.5,91.5C 154.167,90.1667 153.833,88.8333 153.5,87.5 Z"/></g>
<g><path style="opacity:1" fill="#cb9d5c" d="M 127.5,112.5 C 127.5,112.167 127.5,111.833 127.5,111.5C 129.833,111.5 132.167,111.5 134.5,111.5C 135.598,112.397 135.598,113.23 134.5,114C 132.58,115.122 130.58,115.956 128.5,116.5C 128.937,114.926 129.937,113.759 131.5,113C 130.207,112.51 128.873,112.343 127.5,112.5 Z"/></g>
<g><path style="opacity:1" fill="#ef922b" d="M 127.5,112.5 C 128.873,112.343 130.207,112.51 131.5,113C 129.937,113.759 128.937,114.926 128.5,116.5C 128.167,116.5 127.833,116.5 127.5,116.5C 122.73,116.308 118.063,115.475 113.5,114C 116.146,113.503 118.813,113.336 121.5,113.5C 123.735,113.795 125.735,113.461 127.5,112.5 Z"/></g>
<g><path style="opacity:1" fill="#dda66b" d="M 155.5,108.5 C 155.662,110.527 155.495,112.527 155,114.5C 154.617,115.056 154.117,115.389 153.5,115.5C 153.41,112.848 154.076,110.515 155.5,108.5 Z"/></g>
<g><path style="opacity:1" fill="#fdf7e0" d="M 134.5,111.5 C 136.167,111.5 137.833,111.5 139.5,111.5C 139.673,115.17 138.007,117.67 134.5,119C 128.833,119.667 123.167,119.667 117.5,119C 114.848,118.647 112.848,117.48 111.5,115.5C 116.829,117.613 122.162,117.946 127.5,116.5C 127.833,116.5 128.167,116.5 128.5,116.5C 130.58,115.956 132.58,115.122 134.5,114C 135.598,113.23 135.598,112.397 134.5,111.5 Z"/></g>
<g><path style="opacity:1" fill="#f39a25" d="M 37.5,111.5 C 39.0936,111.92 40.5936,112.586 42,113.5C 42.8732,113.265 43.7065,112.931 44.5,112.5C 44.1255,113.771 44.7922,114.938 46.5,116C 49.4638,116.327 51.9638,117.493 54,119.5C 56.7599,118.568 58.0932,116.568 58,113.5C 59.4443,115.155 61.2776,115.822 63.5,115.5C 63.3505,114.448 63.5172,113.448 64,112.5C 65.0086,113.658 66.3419,114.325 68,114.5C 71.8997,113.386 75.733,113.386 79.5,114.5C 78.4919,118.817 80.1586,121.15 84.5,121.5C 84.6854,123.196 85.5187,124.529 87,125.5C 87.7805,126.944 87.6139,128.277 86.5,129.5C 84.2011,130.635 82.0344,131.968 80,133.5C 79.5045,131.527 79.3379,129.527 79.5,127.5C 77.5,127.5 75.5,127.5 73.5,127.5C 73.4312,130.084 72.2645,132.084 70,133.5C 68.549,131.536 66.7157,130.203 64.5,129.5C 62.6697,122.802 58.3363,119.802 51.5,120.5C 50.8333,120.5 50.1667,120.5 49.5,120.5C 47.1815,120.008 45.1815,119.008 43.5,117.5C 41.576,115.515 39.576,113.515 37.5,111.5 Z"/></g>
<g><path style="opacity:1" fill="#f49921" d="M 173.5,110.5 C 176.792,113.057 179.126,116.391 180.5,120.5C 180.5,122.5 180.5,124.5 180.5,126.5C 178.857,126.52 177.524,125.853 176.5,124.5C 175.148,125.518 174.148,126.851 173.5,128.5C 172.061,129.063 170.561,129.397 169,129.5C 165.215,128.515 161.382,127.849 157.5,127.5C 157.5,126.167 157.5,124.833 157.5,123.5C 153.932,123.241 152.599,121.241 153.5,117.5C 156.5,117.833 157.833,116.5 157.5,113.5C 159.092,114.602 159.925,113.935 160,111.5C 160.333,111.833 160.667,112.167 161,112.5C 161.49,111.207 161.657,109.873 161.5,108.5C 164.168,108.666 166.502,109.666 168.5,111.5C 170.071,110.691 171.738,110.357 173.5,110.5 Z"/></g>
<g><path style="opacity:1" fill="#e5a742" d="M 79.5,114.5 C 81.5232,117.52 84.1898,119.854 87.5,121.5C 92.5208,127.329 98.5208,131.663 105.5,134.5C 102.327,134.599 99.3273,133.932 96.5,132.5C 93.5843,133.633 91.4176,132.633 90,129.5C 89.5443,125.879 87.7109,123.212 84.5,121.5C 80.1586,121.15 78.4919,118.817 79.5,114.5 Z"/></g>
<g><path style="opacity:1" fill="#f3a327" d="M 153.5,115.5 C 153.5,116.167 153.5,116.833 153.5,117.5C 152.599,121.241 153.932,123.241 157.5,123.5C 157.5,124.833 157.5,126.167 157.5,127.5C 161.382,127.849 165.215,128.515 169,129.5C 170.561,129.397 172.061,129.063 173.5,128.5C 174.148,126.851 175.148,125.518 176.5,124.5C 177.524,125.853 178.857,126.52 180.5,126.5C 180.5,124.5 180.5,122.5 180.5,120.5C 181.468,122.607 181.802,124.941 181.5,127.5C 178.345,129.076 175.012,130.076 171.5,130.5C 166.569,129.312 163.236,130.978 161.5,135.5C 155.215,135.18 149.548,136.346 144.5,139C 142.866,139.494 141.199,139.66 139.5,139.5C 139.5,137.5 139.5,135.5 139.5,133.5C 141.555,132.441 142.889,130.775 143.5,128.5C 143.833,127.833 144.167,127.167 144.5,126.5C 145.167,126.5 145.5,126.167 145.5,125.5C 148.574,122.433 151.241,119.1 153.5,115.5 Z"/></g>
<g><path style="opacity:1" fill="#d9a64c" d="M 171.5,130.5 C 169.631,131.165 167.631,131.831 165.5,132.5C 163.109,135.875 160.776,139.208 158.5,142.5C 158.688,139.794 159.688,137.461 161.5,135.5C 163.236,130.978 166.569,129.312 171.5,130.5 Z"/></g>
<g><path style="opacity:1" fill="#fdf7d8" d="M 144.5,126.5 C 144.167,127.167 143.833,127.833 143.5,128.5C 138.427,131.435 133.094,133.768 127.5,135.5C 120.776,135.756 114.109,135.423 107.5,134.5C 106.833,134.5 106.167,134.5 105.5,134.5C 98.5208,131.663 92.5208,127.329 87.5,121.5C 89.1172,122.038 90.7839,122.371 92.5,122.5C 92.5,121.5 92.5,120.5 92.5,119.5C 93.5,119.5 94.5,119.5 95.5,119.5C 95.7711,121.821 95.1045,123.821 93.5,125.5C 97.1662,126.329 100.166,128.162 102.5,131C 105.146,131.497 107.813,131.664 110.5,131.5C 110.5,132.5 110.5,133.5 110.5,134.5C 116.176,134.666 121.843,134.499 127.5,134C 133.35,131.778 139.017,129.278 144.5,126.5 Z"/></g>
<g><path style="opacity:1" fill="#e2ad42" d="M 143.5,128.5 C 142.889,130.775 141.555,132.441 139.5,133.5C 137.232,135.465 134.565,136.632 131.5,137C 123.147,137.832 114.813,137.665 106.5,136.5C 106.137,135.817 105.804,135.15 105.5,134.5C 106.167,134.5 106.833,134.5 107.5,134.5C 110.428,135.82 113.761,136.486 117.5,136.5C 121.018,136.498 124.351,136.165 127.5,135.5C 133.094,133.768 138.427,131.435 143.5,128.5 Z"/></g>
<g><path style="opacity:1" fill="#e0ac51" d="M 51.5,120.5 C 58.3363,119.802 62.6697,122.802 64.5,129.5C 65.7927,131.296 67.2927,132.963 69,134.5C 69.498,137.482 69.6646,140.482 69.5,143.5C 68.5119,148.64 68.1786,153.974 68.5,159.5C 67.5655,158.432 67.2322,157.099 67.5,155.5C 67.2526,149.459 67.5859,143.459 68.5,137.5C 68.5466,135.962 67.8799,134.962 66.5,134.5C 64.47,130.294 61.8033,126.461 58.5,123C 55.8958,122.61 53.5625,121.776 51.5,120.5 Z"/></g>
<g><path style="opacity:1" fill="#f4ab24" d="M 84.5,121.5 C 87.7109,123.212 89.5443,125.879 90,129.5C 91.4176,132.633 93.5843,133.633 96.5,132.5C 99.3273,133.932 102.327,134.599 105.5,134.5C 105.804,135.15 106.137,135.817 106.5,136.5C 114.813,137.665 123.147,137.832 131.5,137C 134.565,136.632 137.232,135.465 139.5,133.5C 139.5,135.5 139.5,137.5 139.5,139.5C 141.199,139.66 142.866,139.494 144.5,139C 149.548,136.346 155.215,135.18 161.5,135.5C 159.688,137.461 158.688,139.794 158.5,142.5C 156.801,142.34 155.134,142.506 153.5,143C 152.763,145.901 151.097,148.068 148.5,149.5C 148.167,146.833 147.833,146.833 147.5,149.5C 145.827,150.343 144.66,151.676 144,153.5C 143.265,150.315 143.765,147.315 145.5,144.5C 145.288,142.112 143.955,141.112 141.5,141.5C 136.769,142.742 132.103,143.909 127.5,145C 122.467,145.829 117.467,145.662 112.5,144.5C 113.376,143.749 114.376,143.249 115.5,143C 109.546,142.884 103.713,143.718 98,145.5C 94.0236,143.449 89.8569,143.115 85.5,144.5C 85.7093,145.086 86.0426,145.586 86.5,146C 84.1902,146.497 81.8568,146.663 79.5,146.5C 79.5,145.167 79.5,143.833 79.5,142.5C 80.8734,142.657 82.2068,142.49 83.5,142C 80.1994,141.003 76.866,140.67 73.5,141C 72.9754,143.764 71.6421,144.598 69.5,143.5C 69.6646,140.482 69.498,137.482 69,134.5C 67.2927,132.963 65.7927,131.296 64.5,129.5C 66.7157,130.203 68.549,131.536 70,133.5C 72.2645,132.084 73.4312,130.084 73.5,127.5C 75.5,127.5 77.5,127.5 79.5,127.5C 79.3379,129.527 79.5045,131.527 80,133.5C 82.0344,131.968 84.2011,130.635 86.5,129.5C 87.6139,128.277 87.7805,126.944 87,125.5C 85.5187,124.529 84.6854,123.196 84.5,121.5 Z"/></g>
<g><path style="opacity:1" fill="#f5d385" d="M 107.5,134.5 C 114.109,135.423 120.776,135.756 127.5,135.5C 124.351,136.165 121.018,136.498 117.5,136.5C 113.761,136.486 110.428,135.82 107.5,134.5 Z"/></g>
<g><path style="opacity:1" fill="#fbeec2" d="M 181.5,127.5 C 181.833,127.5 182.167,127.5 182.5,127.5C 181.859,128.482 181.193,129.482 180.5,130.5C 176.744,132.404 172.744,133.571 168.5,134C 164.915,137.078 161.915,140.578 159.5,144.5C 157.142,144.253 155.142,144.919 153.5,146.5C 153.414,145.504 153.748,144.671 154.5,144C 156.058,143.79 157.391,143.29 158.5,142.5C 160.776,139.208 163.109,135.875 165.5,132.5C 167.631,131.831 169.631,131.165 171.5,130.5C 175.012,130.076 178.345,129.076 181.5,127.5 Z"/></g>
<g><path style="opacity:1" fill="#fef6da" d="M 49.5,120.5 C 50.1667,120.5 50.8333,120.5 51.5,120.5C 53.5625,121.776 55.8958,122.61 58.5,123C 61.8033,126.461 64.47,130.294 66.5,134.5C 66.1755,141.687 66.5088,148.687 67.5,155.5C 67.2322,157.099 67.5655,158.432 68.5,159.5C 68.5569,160.609 68.8902,161.609 69.5,162.5C 72.6248,163.479 75.9581,163.813 79.5,163.5C 75.6315,164.796 71.6315,164.796 67.5,163.5C 66.1833,158.387 65.1833,153.22 64.5,148C 65.2094,143.503 65.376,139.003 65,134.5C 62.0218,131.861 59.8551,128.694 58.5,125C 55.854,124.503 53.1873,124.336 50.5,124.5C 50.5674,123.041 50.2341,121.708 49.5,120.5 Z"/></g>
<g><path style="opacity:1" fill="#f6dfa9" d="M 66.5,134.5 C 67.8799,134.962 68.5466,135.962 68.5,137.5C 67.5859,143.459 67.2526,149.459 67.5,155.5C 66.5088,148.687 66.1755,141.687 66.5,134.5 Z"/></g>
<g><path style="opacity:1" fill="#e2b946" d="M 158.5,142.5 C 157.391,143.29 156.058,143.79 154.5,144C 153.748,144.671 153.414,145.504 153.5,146.5C 151.492,150.871 149.492,155.205 147.5,159.5C 148.051,156.193 148.384,152.86 148.5,149.5C 151.097,148.068 152.763,145.901 153.5,143C 155.134,142.506 156.801,142.34 158.5,142.5 Z"/></g>
<g><path style="opacity:1" fill="#f5b422" d="M 147.5,149.5 C 146.312,156.109 142.312,158.776 135.5,157.5C 132.377,157.294 129.377,156.627 126.5,155.5C 125.584,155.543 124.917,155.876 124.5,156.5C 117.59,155.007 110.59,154.341 103.5,154.5C 103.586,153.504 103.252,152.671 102.5,152C 99.2198,151.944 96.2198,151.111 93.5,149.5C 91.6256,151.804 88.9589,153.97 85.5,156C 82.3959,156.127 79.3959,156.293 76.5,156.5C 75.4968,154.458 74.1634,154.125 72.5,155.5C 71.5224,155.023 70.6891,154.357 70,153.5C 69.5017,150.183 69.335,146.85 69.5,143.5C 71.6421,144.598 72.9754,143.764 73.5,141C 76.866,140.67 80.1994,141.003 83.5,142C 82.2068,142.49 80.8734,142.657 79.5,142.5C 79.5,143.833 79.5,145.167 79.5,146.5C 81.8568,146.663 84.1902,146.497 86.5,146C 86.0426,145.586 85.7093,145.086 85.5,144.5C 89.8569,143.115 94.0236,143.449 98,145.5C 103.713,143.718 109.546,142.884 115.5,143C 114.376,143.249 113.376,143.749 112.5,144.5C 117.467,145.662 122.467,145.829 127.5,145C 132.103,143.909 136.769,142.742 141.5,141.5C 143.955,141.112 145.288,142.112 145.5,144.5C 143.765,147.315 143.265,150.315 144,153.5C 144.66,151.676 145.827,150.343 147.5,149.5 Z"/></g>
<g><path style="opacity:1" fill="#e8c33c" d="M 95.5,155.5 C 97.9479,154.527 100.615,154.194 103.5,154.5C 110.59,154.341 117.59,155.007 124.5,156.5C 125.5,156.5 126.5,156.5 127.5,156.5C 127.674,158.861 128.007,161.194 128.5,163.5C 131.254,164.366 133.921,165.533 136.5,167C 138.81,167.497 141.143,167.663 143.5,167.5C 142.848,168.725 141.681,169.392 140,169.5C 137.365,169.261 134.865,168.594 132.5,167.5C 128.925,165.271 125.592,162.605 122.5,159.5C 116.916,158.507 111.249,157.841 105.5,157.5C 105.082,156.778 104.416,156.278 103.5,156C 100.854,155.503 98.1873,155.336 95.5,155.5 Z"/></g>
<g><path style="opacity:1" fill="#f2bd21" d="M 69.5,143.5 C 69.335,146.85 69.5017,150.183 70,153.5C 70.6891,154.357 71.5224,155.023 72.5,155.5C 74.1634,154.125 75.4968,154.458 76.5,156.5C 79.3959,156.293 82.3959,156.127 85.5,156C 88.9589,153.97 91.6256,151.804 93.5,149.5C 96.2198,151.111 99.2198,151.944 102.5,152C 103.252,152.671 103.586,153.504 103.5,154.5C 100.615,154.194 97.9479,154.527 95.5,155.5C 95.1667,155.5 94.8333,155.5 94.5,155.5C 88.4576,157.438 82.291,159.104 76,160.5C 73.5021,160.083 71.0021,159.749 68.5,159.5C 68.1786,153.974 68.5119,148.64 69.5,143.5 Z"/></g>
<g><path style="opacity:1" fill="#f4bf21" d="M 148.5,149.5 C 148.384,152.86 148.051,156.193 147.5,159.5C 146.601,162.395 145.267,165.062 143.5,167.5C 141.143,167.663 138.81,167.497 136.5,167C 133.921,165.533 131.254,164.366 128.5,163.5C 128.007,161.194 127.674,158.861 127.5,156.5C 126.5,156.5 125.5,156.5 124.5,156.5C 124.917,155.876 125.584,155.543 126.5,155.5C 129.377,156.627 132.377,157.294 135.5,157.5C 142.312,158.776 146.312,156.109 147.5,149.5C 147.833,146.833 148.167,146.833 148.5,149.5 Z"/></g>
<g><path style="opacity:1" fill="#e5bd39" d="M 94.5,155.5 C 93.2511,157.136 91.5844,158.303 89.5,159C 83.1049,161.743 76.4382,162.91 69.5,162.5C 68.8902,161.609 68.5569,160.609 68.5,159.5C 71.0021,159.749 73.5021,160.083 76,160.5C 82.291,159.104 88.4576,157.438 94.5,155.5 Z"/></g>
<g><path style="opacity:1" fill="#fcefb3" d="M 94.5,155.5 C 94.8333,155.5 95.1667,155.5 95.5,155.5C 98.1873,155.336 100.854,155.503 103.5,156C 104.416,156.278 105.082,156.778 105.5,157.5C 104.167,157.5 102.833,157.5 101.5,157.5C 99.4727,157.338 97.4727,157.505 95.5,158C 90.5875,161.084 85.2541,162.918 79.5,163.5C 75.9581,163.813 72.6248,163.479 69.5,162.5C 76.4382,162.91 83.1049,161.743 89.5,159C 91.5844,158.303 93.2511,157.136 94.5,155.5 Z"/></g>
<g><path style="opacity:1" fill="#fce9aa" d="M 122.5,159.5 C 125.592,162.605 128.925,165.271 132.5,167.5C 132.167,167.5 131.833,167.5 131.5,167.5C 127.977,166.315 124.977,164.315 122.5,161.5C 122.5,160.833 122.5,160.167 122.5,159.5 Z"/></g>
<g><path style="opacity:1" fill="#fcfbe6" d="M 101.5,157.5 C 102.833,157.5 104.167,157.5 105.5,157.5C 111.249,157.841 116.916,158.507 122.5,159.5C 122.5,160.167 122.5,160.833 122.5,161.5C 120.958,160.699 119.292,160.366 117.5,160.5C 117.664,163.187 117.497,165.854 117,168.5C 116.333,167.833 115.667,167.167 115,166.5C 114.764,164.236 114.264,162.069 113.5,160C 109.233,159.811 105.233,158.977 101.5,157.5 Z"/></g>
<g><path style="opacity:1" fill="#fef8da" d="M 159.5,144.5 C 159.5,145.5 159.5,146.5 159.5,147.5C 156.956,147.104 154.789,147.771 153,149.5C 152.22,153.682 151.386,157.849 150.5,162C 148.941,168.277 144.941,171.443 138.5,171.5C 134.782,172.274 132.449,170.94 131.5,167.5C 131.833,167.5 132.167,167.5 132.5,167.5C 134.865,168.594 137.365,169.261 140,169.5C 141.681,169.392 142.848,168.725 143.5,167.5C 145.267,165.062 146.601,162.395 147.5,159.5C 149.492,155.205 151.492,150.871 153.5,146.5C 155.142,144.919 157.142,144.253 159.5,144.5 Z"/></g>
<g><path style="opacity:1" fill="#555555" d="M 148.5,219.5 C 146.833,219.5 145.167,219.5 143.5,219.5C 143.762,218.022 143.429,216.689 142.5,215.5C 140.625,216.409 139.292,217.743 138.5,219.5C 134.833,219.5 131.167,219.5 127.5,219.5C 118.196,213.133 116.029,204.8 121,194.5C 128.063,188.26 135.396,187.927 143,193.5C 143.49,192.207 143.657,190.873 143.5,189.5C 145.167,189.5 146.833,189.5 148.5,189.5C 148.5,199.5 148.5,209.5 148.5,219.5 Z"/></g>
<g><path style="opacity:1" fill="#bfbfbf" d="M 18.5,195.5 C 26.6499,194.507 34.9832,194.174 43.5,194.5C 43.7845,196.415 43.4511,198.081 42.5,199.5C 42.5,198.167 42.5,196.833 42.5,195.5C 34.5,195.5 26.5,195.5 18.5,195.5 Z"/></g>
<g><path style="opacity:1" fill="#565656" d="M 53.5,219.5 C 51.5,219.5 49.5,219.5 47.5,219.5C 47.5,209.5 47.5,199.5 47.5,189.5C 49.7659,189.141 51.5993,189.808 53,191.5C 56.9736,189.353 61.1403,189.02 65.5,190.5C 64.0119,194.55 61.0119,196.383 56.5,196C 55.2986,196.903 54.4652,198.069 54,199.5C 53.5004,206.158 53.3337,212.825 53.5,219.5 Z"/></g>
<g><path style="opacity:1" fill="#f5f5f5" d="M 128.5,195.5 C 138.181,193.899 142.681,197.899 142,207.5C 139.267,212.562 135.1,214.395 129.5,213C 121.866,207.666 121.533,201.833 128.5,195.5 Z"/></g>
<g><path style="opacity:1" fill="#575757" d="M 107.5,219.5 C 105.5,219.5 103.5,219.5 101.5,219.5C 101.333,207.829 101.5,196.162 102,184.5C 106.153,177.849 111.986,175.849 119.5,178.5C 118.05,179.85 117.383,181.516 117.5,183.5C 114.813,183.336 112.146,183.503 109.5,184C 107.845,185.444 107.178,187.278 107.5,189.5C 110.5,189.5 113.5,189.5 116.5,189.5C 116.5,191.167 116.5,192.833 116.5,194.5C 113.5,194.5 110.5,194.5 107.5,194.5C 107.5,202.833 107.5,211.167 107.5,219.5 Z"/></g>
<g><path style="opacity:1" fill="#535353" d="M 179.5,219.5 C 177.5,219.5 175.5,219.5 173.5,219.5C 173.666,212.492 173.5,205.492 173,198.5C 168.955,194.511 164.955,194.511 161,198.5C 160.5,205.492 160.334,212.492 160.5,219.5C 158.5,219.5 156.5,219.5 154.5,219.5C 154.5,209.5 154.5,199.5 154.5,189.5C 156.821,189.229 158.821,189.896 160.5,191.5C 168.644,187.458 174.81,189.458 179,197.5C 179.5,204.826 179.666,212.159 179.5,219.5 Z"/></g>
<g><path style="opacity:1" fill="#fbfbfb" d="M 173.5,219.5 C 169.167,219.5 164.833,219.5 160.5,219.5C 160.334,212.492 160.5,205.492 161,198.5C 164.955,194.511 168.955,194.511 173,198.5C 173.5,205.492 173.666,212.492 173.5,219.5 Z"/></g>
<g><path style="opacity:1" fill="#555555" d="M 214.5,189.5 C 214.5,199.5 214.5,209.5 214.5,219.5C 212.833,219.5 211.167,219.5 209.5,219.5C 209.762,218.022 209.429,216.689 208.5,215.5C 206.8,216.61 205.466,217.943 204.5,219.5C 201.167,219.5 197.833,219.5 194.5,219.5C 190.627,217.466 187.46,214.466 185,210.5C 184.121,205.713 184.455,201.047 186,196.5C 192.198,188.787 199.698,187.454 208.5,192.5C 209.386,191.675 209.719,190.675 209.5,189.5C 211.167,189.5 212.833,189.5 214.5,189.5 Z"/></g>
<g><path style="opacity:1" fill="#f7f7f7" d="M 195.5,195.5 C 204.495,194.663 208.661,198.663 208,207.5C 205.367,212.732 201.201,214.565 195.5,213C 193.333,212.167 191.833,210.667 191,208.5C 189.243,202.825 190.743,198.492 195.5,195.5 Z"/></g>
<g><path style="opacity:1" fill="#f5f5f5" d="M -0.5,204.5 C 3.3948,210.64 8.3948,215.64 14.5,219.5C 9.5,219.5 4.5,219.5 -0.5,219.5C -0.5,214.5 -0.5,209.5 -0.5,204.5 Z"/></g>
<g><path style="opacity:1" fill="#555555" d="M 95.5,219.5 C 93.8333,219.5 92.1667,219.5 90.5,219.5C 90.6567,218.127 90.49,216.793 90,215.5C 88.6032,217.07 87.1032,218.404 85.5,219.5C 81.8333,219.5 78.1667,219.5 74.5,219.5C 73.1618,217.33 71.3284,215.664 69,214.5C 65.9668,209.894 64.9668,204.894 66,199.5C 71.4412,189.107 79.2745,186.774 89.5,192.5C 90.3857,191.675 90.719,190.675 90.5,189.5C 92.1667,189.5 93.8333,189.5 95.5,189.5C 95.5,199.5 95.5,209.5 95.5,219.5 Z"/></g>
<g><path style="opacity:1" fill="#f7f7f7" d="M 76.5,195.5 C 89.6382,195.13 92.9716,200.63 86.5,212C 76.0065,215.167 71.1731,211.333 72,200.5C 73.1932,198.503 74.6932,196.836 76.5,195.5 Z"/></g>
<g><path style="opacity:1" fill="#555555" d="M 18.5,195.5 C 26.5,195.5 34.5,195.5 42.5,195.5C 42.5,196.833 42.5,198.167 42.5,199.5C 41.89,203.829 40.39,207.829 38,211.5C 34.7736,214.325 31.6069,216.991 28.5,219.5C 23.8333,219.5 19.1667,219.5 14.5,219.5C 8.3948,215.64 3.3948,210.64 -0.5,204.5C -0.5,199.833 -0.5,195.167 -0.5,190.5C 2.1783,187.668 4.51163,184.501 6.5,181C 17.1072,173.48 27.4406,173.814 37.5,182C 36.5,183 35.5,184 34.5,185C 31.9728,184.089 29.3062,183.089 26.5,182C 18.7257,179.757 12.559,181.923 8,188.5C 3.2346,198.872 5.7346,207.038 15.5,213C 25.7821,214.864 32.7821,211.03 36.5,201.5C 30.5368,200.504 24.5368,200.171 18.5,200.5C 18.5,198.833 18.5,197.167 18.5,195.5 Z"/></g>
<g><path style="opacity:1" fill="#e4e4e4" d="M 209.5,219.5 C 207.833,219.5 206.167,219.5 204.5,219.5C 205.466,217.943 206.8,216.61 208.5,215.5C 209.429,216.689 209.762,218.022 209.5,219.5 Z"/></g>
<g><path style="opacity:1" fill="#f0f0f0" d="M 90.5,219.5 C 88.8333,219.5 87.1667,219.5 85.5,219.5C 87.1032,218.404 88.6032,217.07 90,215.5C 90.49,216.793 90.6567,218.127 90.5,219.5 Z"/></g>
<g><path style="opacity:1" fill="#dedede" d="M 143.5,219.5 C 141.833,219.5 140.167,219.5 138.5,219.5C 139.292,217.743 140.625,216.409 142.5,215.5C 143.429,216.689 143.762,218.022 143.5,219.5 Z"/></g>
</svg>
