<svg width="188" height="50" viewBox="0 0 188 50" fill="none" xmlns="http://www.w3.org/2000/svg">
<g clip-path="url(#clip0_618_2728)">
<path d="M42.9945 29.3464L39.9526 32.4132C40.7754 30.0695 40.2518 27.3518 38.3569 25.5316L37.3097 24.5094L18.7344 6.08362L23.4717 1.27148L42.8698 20.0712C45.4878 22.5895 45.5377 26.7783 42.9945 29.3464Z" fill="url(#paint0_linear_618_2728)"/>
<path d="M39.952 32.4131L24.0196 48.5948L18.9332 43.683L18.4346 43.2092L37.2842 24.5342L38.3314 25.5564C40.2512 27.3766 40.7998 30.0943 39.952 32.4131Z" fill="url(#paint1_linear_618_2728)"/>
<path d="M39.952 32.4131L24.0196 48.5948L18.9332 43.683L18.4346 43.2092L37.2842 24.5342L37.7579 24.983L38.3563 25.5564C38.83 26.0052 39.229 26.5288 39.5282 27.0774C40.4507 28.698 40.6003 30.6678 39.952 32.4131Z" fill="url(#paint2_linear_618_2728)"/>
<path d="M23.4716 1.27155L42.8697 20.0713C45.4628 22.5896 45.5127 26.7534 42.9695 29.3465L39.9525 32.4133L24.0201 48.595L18.9337 43.6832L18.4351 43.2094L37.2847 24.5344L18.7343 6.08369L23.4716 1.27155ZM23.4716 0.822754C23.3469 0.822754 23.2472 0.872621 23.1475 0.947421L18.4101 5.75955C18.2356 5.93409 18.2356 6.20835 18.4101 6.38289L36.6863 24.4845L18.1608 42.8853C18.086 42.9601 18.0361 43.0848 18.0361 43.2094C18.0361 43.3341 18.086 43.4338 18.1608 43.5086L18.6595 43.9823L23.7459 48.8942C23.8207 48.969 23.9453 49.0189 24.0451 49.0189C24.1697 49.0189 24.2695 48.969 24.3692 48.8942L40.3016 32.7125L43.3435 29.6457C44.0167 28.9725 44.5153 28.1996 44.8644 27.3269C45.1885 26.4792 45.3631 25.6065 45.3381 24.684C45.3381 23.7864 45.1387 22.8888 44.7896 22.066C44.4156 21.1933 43.892 20.4204 43.2188 19.7721L23.7957 0.947421C23.696 0.872621 23.5963 0.822754 23.4716 0.822754Z" fill="#5AC9E3"/>
<path opacity="0.35" d="M44.1162 24.709C44.1162 24.8586 44.1162 25.0082 44.1162 25.1578C43.8668 24.0607 43.3183 23.0634 42.4955 22.2655L23.621 3.96445L20.6788 6.95645L19.7812 6.08378L23.4963 2.31885L42.3708 20.595C43.4679 21.692 44.0913 23.1382 44.1162 24.709Z" fill="white"/>
<path opacity="0.35" d="M39.5288 27.0524L21.477 44.9545L19.5322 43.0596L37.7834 24.958L38.3818 25.5315C38.8306 26.0052 39.2296 26.5039 39.5288 27.0524Z" fill="white"/>
<path d="M15.6667 18.4507L13.298 20.8443L8.46094 16.1069L10.8296 13.7383L15.6667 18.4507Z" fill="url(#paint3_linear_618_2728)"/>
<path d="M12.6751 24.8088L12.5504 24.6841L5.94311 18.376L3.10071 21.3181C1.18085 23.3128 1.23071 26.5042 3.25031 28.3992L6.24231 31.2665L12.6751 24.8088Z" fill="url(#paint4_linear_618_2728)"/>
<path d="M20.3046 13.8628L17.9858 16.1566L13.2734 11.4692L15.5922 9.17529L20.3046 13.8628Z" fill="url(#paint5_linear_618_2728)"/>
<path d="M13.2236 38.1979L15.6422 40.5416L20.3795 35.7295L17.961 33.3857L13.2236 38.1979Z" fill="url(#paint6_linear_618_2728)"/>
<path d="M8.46094 33.6846L10.8296 35.9286L15.4423 31.1664L13.0736 28.9224L8.46094 33.6846Z" fill="url(#paint7_linear_618_2728)"/>
<path d="M56.707 14.0127H65.2592C67.2538 14.0127 68.9493 14.4366 70.3456 15.2843C71.7169 16.132 72.7641 17.3039 73.4872 18.7999C74.1853 20.2959 74.5593 22.0412 74.5593 24.0359C74.5593 26.0306 74.2102 27.7759 73.4872 29.2719C72.7641 30.7679 71.7169 31.9398 70.3456 32.7626C68.9742 33.5854 67.2788 34.0092 65.2841 34.0092H56.732V14.0127H56.707ZM64.586 30.344C65.683 30.344 66.6305 30.1446 67.4782 29.7456C68.326 29.3467 68.9742 28.6735 69.448 27.751C69.9217 26.8284 70.171 25.5568 70.171 23.9362C70.171 22.3654 69.9466 21.1187 69.4729 20.1962C68.9992 19.2736 68.3509 18.6254 67.5032 18.2264C66.6554 17.8275 65.683 17.628 64.586 17.628H61.0205V30.344H64.586Z" fill="#333542"/>
<path d="M79.9446 33.3107C78.8476 32.6874 77.9998 31.8147 77.4264 30.6927C76.828 29.5707 76.5537 28.2493 76.5537 26.7533C76.5537 25.1575 76.8529 23.7862 77.4513 22.6393C78.0497 21.4923 78.8974 20.5947 79.9696 19.9714C81.0666 19.3481 82.3382 19.0239 83.7844 19.0239C85.5048 19.0239 86.901 19.3979 87.9981 20.121C89.0952 20.869 89.893 21.8663 90.3668 23.1629C90.8405 24.4594 90.9901 25.9055 90.8405 27.5262H80.543C80.5181 28.6981 80.8173 29.5957 81.4656 30.219C82.0889 30.8423 82.9117 31.1665 83.934 31.1665C84.7069 31.1665 85.3552 30.9919 85.9037 30.6678C86.4522 30.3187 86.8013 29.8699 86.9509 29.3214H90.7906C90.666 30.3187 90.292 31.1665 89.6686 31.8895C89.0453 32.6126 88.2474 33.1861 87.275 33.6099C86.3026 34.0089 85.1806 34.2333 83.934 34.2333C82.3632 34.2333 81.0417 33.9091 79.9446 33.3107ZM81.5404 22.8387C80.9669 23.3623 80.6428 24.0605 80.568 24.9581H86.8761C86.8262 23.9607 86.5021 23.2377 85.9286 22.7639C85.3552 22.2902 84.6321 22.0409 83.7844 22.0409C82.8618 22.0658 82.1138 22.3401 81.5404 22.8387Z" fill="#333542"/>
<path d="M91.2393 19.2734H95.6026L97.8466 27.1274L98.7193 30.643H98.8689L99.7415 27.1524L101.986 19.2734H106.374L101.337 33.9841H96.2758L91.2393 19.2734Z" fill="#333542"/>
<path d="M109.391 32.4133C107.995 31.2165 107.271 29.6457 107.271 27.7009H111.635C111.66 28.6982 112.009 29.4712 112.632 30.0696C113.255 30.668 114.303 30.9672 115.749 30.9672C116.846 30.9672 117.743 30.7677 118.392 30.3688C119.065 29.9699 119.389 29.3714 119.389 28.5985C119.389 27.9502 119.239 27.4516 118.965 27.1025C118.691 26.7534 118.217 26.4792 117.519 26.2548C116.846 26.0553 115.898 25.8559 114.677 25.6564C112.358 25.2824 110.613 24.6591 109.441 23.7864C108.269 22.8888 107.67 21.5922 107.67 19.8469C107.67 17.9769 108.369 16.4809 109.765 15.3839C111.161 14.2868 113.081 13.7632 115.549 13.7632C117.145 13.7632 118.491 14.0125 119.638 14.5112C120.785 15.0099 121.658 15.708 122.306 16.5807C122.93 17.4783 123.254 18.5255 123.254 19.6973H118.915C118.89 18.7249 118.516 18.0268 117.843 17.6278C117.17 17.204 116.347 17.0045 115.4 17.0045C114.377 17.0045 113.58 17.204 113.006 17.6278C112.433 18.0268 112.133 18.6003 112.133 19.3233C112.133 19.9467 112.308 20.4204 112.632 20.7196C112.956 21.0188 113.48 21.2681 114.203 21.4427C114.901 21.6172 115.849 21.7917 116.995 21.9912C117.843 22.1158 118.666 22.2904 119.489 22.5148C120.287 22.7392 121.035 23.0633 121.683 23.4872C122.331 23.911 122.855 24.5095 123.254 25.2575C123.653 26.0055 123.852 27.0028 123.852 28.1996C123.852 29.9948 123.154 31.4409 121.758 32.5629C120.361 33.6849 118.292 34.2584 115.549 34.2584C112.881 34.2334 110.812 33.6351 109.391 32.4133Z" fill="#333542"/>
<path d="M129.238 33.5353C128.689 33.2361 128.315 32.8372 128.091 32.2887C127.867 31.7401 127.767 31.1168 127.767 30.3937V22.5397H125.124V19.2984H127.767V15.3091L131.806 14.9351V19.3233H134.798V22.5647H131.806V29.6707C131.806 30.1195 131.906 30.3937 132.105 30.5433C132.305 30.6929 132.604 30.7677 132.978 30.7677H134.773V34.034H131.532C130.559 33.9841 129.787 33.8345 129.238 33.5353Z" fill="#333542"/>
<path d="M137.316 14.0127H141.381V17.4036H137.316V14.0127ZM137.316 19.2986H141.381V33.9843H137.316V19.2986Z" fill="#333542"/>
<path d="M147.415 33.5353C146.866 33.2361 146.467 32.8372 146.268 32.2887C146.043 31.7401 145.944 31.1168 145.944 30.3937V22.5397H143.301V19.2984H145.944V15.3091L149.983 14.9351V19.3233H152.975V22.5647H149.983V29.6707C149.983 30.1195 150.083 30.3937 150.282 30.5433C150.482 30.6929 150.781 30.7677 151.155 30.7677H152.95V34.034H149.709C148.736 33.9841 147.963 33.8345 147.415 33.5353Z" fill="#333542"/>
<path d="M157.687 33.2858C156.59 32.6625 155.717 31.7649 155.119 30.618C154.52 29.471 154.196 28.1496 154.196 26.6286C154.196 25.0828 154.495 23.7613 155.119 22.6144C155.742 21.4674 156.615 20.5948 157.737 19.9465C158.859 19.3232 160.18 18.999 161.676 18.999C162.948 18.999 164.07 19.2484 165.067 19.7221C166.065 20.1958 166.837 20.8441 167.436 21.6918C168.009 22.5396 168.333 23.512 168.383 24.634H164.394C164.269 23.861 163.945 23.2876 163.422 22.8886C162.898 22.4897 162.275 22.2902 161.552 22.2902C160.479 22.2902 159.682 22.6892 159.133 23.4621C158.585 24.235 158.31 25.3072 158.31 26.6037C158.31 28.0498 158.609 29.122 159.208 29.845C159.806 30.5681 160.579 30.9172 161.552 30.9172C162.424 30.9172 163.098 30.6928 163.621 30.2689C164.12 29.8201 164.419 29.2466 164.494 28.5485H168.433C168.383 29.6954 168.059 30.6928 167.461 31.5405C166.862 32.3882 166.065 33.0365 165.042 33.5102C164.02 33.984 162.873 34.2084 161.552 34.2084C160.081 34.2333 158.784 33.9092 157.687 33.2858Z" fill="#333542"/>
<path d="M170.927 14.0127H174.991V21.9664H175.165C175.564 20.994 176.188 20.271 177.035 19.7723C177.883 19.2736 178.831 19.0243 179.878 19.0243C180.875 19.0243 181.748 19.2238 182.546 19.6227C183.319 20.0216 183.942 20.6699 184.416 21.5426C184.864 22.4402 185.114 23.612 185.114 25.0831V33.9594H181.05V25.9558C181.05 24.7091 180.825 23.7866 180.376 23.1882C179.928 22.5898 179.23 22.2906 178.257 22.2906C177.21 22.2906 176.412 22.6396 175.839 23.3378C175.265 24.0359 174.991 24.8587 174.991 25.7812V33.9344H170.927V14.0127Z" fill="#333542"/>
</g>
<defs>
<linearGradient id="paint0_linear_618_2728" x1="20.9539" y1="3.54683" x2="43.8464" y2="28.9217" gradientUnits="userSpaceOnUse">
<stop stop-color="#1888C9"/>
<stop offset="1" stop-color="#60CAE3"/>
</linearGradient>
<linearGradient id="paint1_linear_618_2728" x1="39.7542" y1="27.3896" x2="22.9207" y2="44.2231" gradientUnits="userSpaceOnUse">
<stop stop-color="#1888C9"/>
<stop offset="1" stop-color="#60CAE3"/>
</linearGradient>
<linearGradient id="paint2_linear_618_2728" x1="40.7686" y1="26.3753" x2="23.9351" y2="43.2088" gradientUnits="userSpaceOnUse">
<stop stop-color="#1C3969"/>
<stop offset="0.2835" stop-color="#1888C9" stop-opacity="0"/>
</linearGradient>
<linearGradient id="paint3_linear_618_2728" x1="8.47029" y1="17.2841" x2="15.6704" y2="17.2841" gradientUnits="userSpaceOnUse">
<stop offset="0.0765306" stop-color="#1888C9"/>
<stop offset="0.852" stop-color="#60CAE3"/>
</linearGradient>
<linearGradient id="paint4_linear_618_2728" x1="1.68173" y1="24.8307" x2="12.6634" y2="24.8307" gradientUnits="userSpaceOnUse">
<stop offset="0.0765306" stop-color="#1888C9"/>
<stop offset="0.852" stop-color="#60CAE3"/>
</linearGradient>
<linearGradient id="paint5_linear_618_2728" x1="13.2847" y1="12.6655" x2="20.3088" y2="12.6655" gradientUnits="userSpaceOnUse">
<stop offset="0.0765306" stop-color="#1888C9"/>
<stop offset="0.852" stop-color="#60CAE3"/>
</linearGradient>
<linearGradient id="paint6_linear_618_2728" x1="13.2213" y1="36.967" x2="20.3723" y2="36.967" gradientUnits="userSpaceOnUse">
<stop offset="0.0765306" stop-color="#1888C9"/>
<stop offset="0.852" stop-color="#60CAE3"/>
</linearGradient>
<linearGradient id="paint7_linear_618_2728" x1="8.47029" y1="32.4233" x2="15.4447" y2="32.4233" gradientUnits="userSpaceOnUse">
<stop offset="0.0765306" stop-color="#1888C9"/>
<stop offset="0.852" stop-color="#60CAE3"/>
</linearGradient>
<clipPath id="clip0_618_2728">
<rect width="187" height="49.8667" fill="white" transform="translate(0.333008)"/>
</clipPath>
</defs>
</svg>
