<svg width="87" height="86" viewBox="0 0 87 86" fill="none" xmlns="http://www.w3.org/2000/svg">
<path d="M74.3445 0.866699H58.0815C54.0953 0.866699 50.8535 4.04168 50.8535 7.9458V14.2639C50.8535 14.8232 51.1246 15.3541 51.5836 15.6833C52.0425 16.0231 52.6352 16.1222 53.1846 15.9558C55.3349 15.3116 57.2286 15.0214 58.0779 15.0214C60.0692 15.0214 61.6919 16.6071 61.6919 18.5609C61.6919 20.5148 60.0692 22.1005 58.0779 22.1005C57.2286 22.1005 55.3349 21.8102 53.1846 21.166C52.6316 20.9997 52.0425 21.0952 51.5836 21.4386C51.1246 21.7713 50.8535 22.2987 50.8535 22.8579V29.176C50.8535 33.0802 54.0953 36.2551 58.0815 36.2551H62.187C61.8762 37.632 61.6955 38.8886 61.6955 39.7947C61.6955 43.6988 64.9373 46.8738 68.9235 46.8738C72.9098 46.8738 76.1515 43.6988 76.1515 39.7947C76.1515 38.8886 75.9708 37.632 75.66 36.2551H79.7655C83.7518 36.2551 86.9935 33.0802 86.9935 29.176V13.2551C86.9935 6.4238 81.3195 0.866699 74.3445 0.866699ZM83.3795 29.1831C83.3795 31.1369 81.7568 32.7227 79.7655 32.7227H73.3145C72.7435 32.7227 72.205 32.9881 71.8617 33.4377C71.522 33.8872 71.4172 34.4712 71.5834 35.0057C72.2376 37.1117 72.5339 38.9664 72.5339 39.7982C72.5339 41.7521 70.9112 43.3378 68.9199 43.3378C66.9286 43.3378 65.3059 41.7521 65.3059 39.7982C65.3059 38.9664 65.6059 37.1082 66.2564 35.0057C66.4226 34.4712 66.3214 33.8872 65.9781 33.4377C65.6348 32.9881 65.0963 32.7227 64.5253 32.7227H58.0743C56.083 32.7227 54.4603 31.1369 54.4603 29.1831V25.1586C55.8661 25.4666 57.1527 25.6436 58.0743 25.6436C62.0605 25.6436 65.3023 22.4686 65.3023 18.5645C65.3023 14.6603 62.0605 11.4854 58.0743 11.4854C57.1527 11.4854 55.8661 11.6623 54.4603 11.9703V7.9458C54.4603 5.99197 56.083 4.40625 58.0743 4.40625H74.3373C79.3174 4.40625 83.3723 8.37409 83.3723 13.2551V29.1831H83.3795ZM61.6955 50.4204H55.2445C54.6735 50.4204 54.135 50.6859 53.7917 51.1354C53.452 51.5849 53.3472 52.169 53.5134 52.7034C54.1676 54.8095 54.4639 56.6642 54.4639 57.496C54.4639 59.4498 52.8412 61.0355 50.8499 61.0355C48.8586 61.0355 47.2359 59.4498 47.2359 57.496C47.2359 56.6642 47.5359 54.8059 48.1864 52.7034C48.3526 52.169 48.2515 51.5849 47.9081 51.1354C47.5648 50.6859 47.0263 50.4204 46.4553 50.4204H36.3903V25.6436C36.3903 21.7394 33.1486 18.5645 29.1623 18.5645H12.9066C5.93154 18.5645 0.257568 24.1216 0.257568 30.9529V73.4275C0.257568 80.2589 5.93154 85.8159 12.9066 85.8159H56.2745C63.2495 85.8159 68.9235 80.2589 68.9235 73.4275V57.4995C68.9235 53.5954 65.6818 50.4204 61.6955 50.4204ZM3.87157 30.9529C3.87157 26.0718 7.92647 22.104 12.9066 22.104H29.1695C31.1609 22.104 32.7835 23.6897 32.7835 25.6436V50.4204H25.064C25.3749 49.0435 25.5556 47.787 25.5556 46.8809C25.5556 42.9767 22.3138 39.8018 18.3276 39.8018C14.3413 39.8018 11.0996 42.9767 11.0996 46.8809C11.0996 47.787 11.2803 49.0435 11.5911 50.4204H3.87157V30.9529ZM32.7835 82.2764H12.9066C7.92647 82.2764 3.87157 78.3086 3.87157 73.4275V53.96H13.9366C14.5076 53.96 15.046 53.6945 15.3894 53.245C15.7291 52.7955 15.8339 52.2114 15.6677 51.677C15.0135 49.5709 14.7172 47.7162 14.7172 46.8844C14.7172 44.9306 16.3399 43.3449 18.3312 43.3449C20.3225 43.3449 21.9452 44.9306 21.9452 46.8844C21.9452 47.7162 21.6452 49.5745 20.9947 51.677C20.8284 52.2114 20.9296 52.7955 21.273 53.245C21.6163 53.6945 22.1548 53.96 22.7258 53.96H32.7908V61.524C31.3849 61.2161 30.0983 61.0391 29.1768 61.0391C25.1905 61.0391 21.9488 64.2141 21.9488 68.1182C21.9488 72.0223 25.1905 75.1973 29.1768 75.1973C30.0983 75.1973 31.3849 75.0203 32.7908 74.7124V82.2764H32.7835ZM65.3095 73.4275C65.3095 78.3086 61.2546 82.2764 56.2745 82.2764H36.3975V72.4187C36.3975 71.8595 36.1265 71.3286 35.6675 70.9994C35.2085 70.6596 34.6122 70.564 34.0665 70.7268C31.9162 71.371 30.0225 71.6613 29.1732 71.6613C27.1819 71.6613 25.5592 70.0756 25.5592 68.1217C25.5592 66.1679 27.1819 64.5822 29.1732 64.5822C30.0225 64.5822 31.9162 64.8724 34.0665 65.5166C34.6122 65.6759 35.2049 65.5803 35.6675 65.2441C36.1265 64.9114 36.3975 64.384 36.3975 63.8247V53.9671H44.117C43.8062 55.3439 43.6255 56.6005 43.6255 57.5066C43.6255 61.4107 46.8673 64.5857 50.8535 64.5857C54.8398 64.5857 58.0815 61.4107 58.0815 57.5066C58.0815 56.6005 57.9008 55.3439 57.59 53.9671H61.6955C63.6868 53.9671 65.3095 55.5528 65.3095 57.5066V73.4346V73.4275Z" fill="#323F49"/>
</svg>
