<svg width="275" height="40" viewBox="0 0 275 40" fill="none" xmlns="http://www.w3.org/2000/svg">
<g clip-path="url(#clip0_97_3831)">
<path d="M80.03 3.87891V35.6399H73.9883V21.9153H59.0515V35.6399H53.0098V3.87891H59.0515V16.8388H73.9883V3.87891H80.03Z" fill="white"/>
<path d="M89.1388 13.3932V35.6399H83.7959V13.3932H89.1388ZM89.1388 3.87891V8.32147H83.7959V3.87891H89.1388Z" fill="white"/>
<path d="M98.0631 3.87891V35.6399H92.7202V3.87891H98.0631Z" fill="white"/>
<path d="M115.848 27.1468H121.167V27.9163L120.842 31.2893C120.187 34.3624 116.998 35.9013 111.277 35.9013C107.075 35.9013 104.279 35.1463 102.896 33.6316C101.513 32.1217 100.819 29.0729 100.819 24.4948C100.819 19.9168 101.513 17.018 102.896 15.4694C104.279 13.9159 106.973 13.1416 110.971 13.1416C114.97 13.1416 117.445 13.703 118.813 14.8306C120.182 15.9533 120.866 18.0923 120.866 21.2428H115.572C115.572 18.6488 114.072 17.3567 111.073 17.3567C108.938 17.3567 107.599 17.7681 107.055 18.5908C106.512 19.4183 106.24 21.4315 106.24 24.64C106.24 27.8485 106.541 29.6923 107.138 30.4957C107.735 31.2942 109.2 31.6959 111.534 31.6959C113.369 31.6959 114.548 31.42 115.067 30.8732C115.586 30.3215 115.848 29.0826 115.848 27.1613V27.1468Z" fill="white"/>
<path d="M133.173 17.3518C130.95 17.3518 129.533 17.7535 128.927 18.552C128.32 19.3505 128.014 21.2137 128.014 24.1512C128.014 27.5049 128.301 29.5955 128.878 30.4327C129.451 31.2699 130.892 31.691 133.197 31.691C135.502 31.691 136.827 31.2506 137.409 30.365C137.992 29.4842 138.283 27.3549 138.283 23.9866C138.283 21.1459 137.982 19.336 137.375 18.5423C136.769 17.7535 135.371 17.3567 133.173 17.3567V17.3518ZM133.221 13.1416C137.531 13.1416 140.355 13.8288 141.689 15.1983C143.029 16.5727 143.699 19.4667 143.699 23.8899C143.699 28.8212 143.043 32.0539 141.738 33.5929C140.433 35.1269 137.676 35.8964 133.479 35.8964C128.922 35.8964 125.967 35.1802 124.622 33.7526C123.278 32.3249 122.608 29.1842 122.608 24.3302C122.608 19.4763 123.268 16.6308 124.588 15.2273C125.913 13.8336 128.791 13.1367 133.226 13.1367L133.221 13.1416Z" fill="white"/>
<path d="M164.667 19.8441H178.313C178.376 20.662 178.41 21.8186 178.41 23.3091C178.41 29.0341 177.707 32.5766 176.299 33.9316C174.892 35.2915 171.214 35.969 165.274 35.969C159.659 35.969 156.049 35.1656 154.447 33.559C152.846 31.9523 152.045 28.3518 152.045 22.7526L152.021 18.0777L152.045 15.2612C152.045 10.5621 152.933 7.43588 154.714 5.88244C156.495 4.32899 160.086 3.55469 165.483 3.55469C170.879 3.55469 174.387 4.06766 175.96 5.0791C177.527 6.09537 178.313 8.36505 178.313 11.8881V13.098H174.79V12.3092C174.79 9.71524 174.256 8.1134 173.194 7.50364C172.131 6.88903 169.345 6.58415 164.852 6.58415C160.698 6.58415 158.102 7.07777 157.058 8.065C156.015 9.0474 155.496 11.5107 155.496 15.4499L155.447 19.665L155.471 24.1996C155.471 28.2017 156.054 30.6602 157.209 31.5748C158.368 32.4943 161.46 32.9492 166.487 32.9492C170.331 32.9492 172.704 32.5136 173.616 31.6474C174.523 30.7811 174.979 28.5018 174.979 24.8287C174.979 24.5335 174.916 23.8802 174.79 22.8736H164.662V19.8489L164.667 19.8441Z" fill="white"/>
<path d="M185.709 3.87891V35.6399H182.443V3.87891H185.709Z" fill="white"/>
<path d="M200.384 15.7644C197.492 15.7644 195.696 16.2338 195.007 17.1727C194.313 18.1115 193.968 20.5602 193.968 24.514C193.968 28.4678 194.313 30.9166 195.007 31.8554C195.696 32.7991 197.492 33.2685 200.384 33.2685C203.276 33.2685 205.091 32.7991 205.785 31.8554C206.479 30.9166 206.823 28.4727 206.823 24.514C206.823 20.5554 206.479 18.1115 205.785 17.1727C205.096 16.2338 203.291 15.7644 200.384 15.7644ZM200.384 13.0688C204.509 13.0688 207.183 13.7851 208.41 15.2079C209.638 16.6355 210.254 19.7375 210.254 24.514C210.254 29.2905 209.638 32.3926 208.41 33.8202C207.183 35.2478 204.509 35.964 200.384 35.964C196.259 35.964 193.609 35.2527 192.377 33.8202C191.149 32.3926 190.533 29.2905 190.533 24.514C190.533 19.7375 191.149 16.6355 192.377 15.2079C193.605 13.7802 196.274 13.0688 200.384 13.0688Z" fill="white"/>
<path d="M224.881 15.7645C222.309 15.7645 220.591 16.3113 219.722 17.405C218.849 18.4987 218.412 20.6765 218.412 23.9334C218.412 27.9501 218.805 30.5101 219.596 31.6183C220.382 32.7169 222.187 33.2686 225.021 33.2686C227.419 33.2686 229.001 32.7024 229.772 31.5796C230.544 30.4569 230.932 28.1485 230.932 24.6544C230.932 20.9765 230.549 18.581 229.782 17.4534C229.025 16.3307 227.389 15.7645 224.885 15.7645H224.881ZM215.054 35.6399V3.87891H218.32V16.2387L218.392 16.3065C219.14 14.1529 221.586 13.0738 225.72 13.0738C228.986 13.0738 231.243 13.9158 232.49 15.6096C233.737 17.3034 234.358 20.3619 234.358 24.7996C234.358 29.0002 233.698 31.9184 232.383 33.5396C231.068 35.1608 228.695 35.9738 225.254 35.9738C221.814 35.9738 219.421 34.943 218.257 32.8766L218.159 32.8959L218.32 35.6399H215.054Z" fill="white"/>
<path d="M247.854 24.6351C245.35 24.6351 243.719 24.9012 242.967 25.4287C242.21 25.961 241.836 27.0886 241.836 28.826C241.836 30.5633 242.21 31.8167 242.952 32.3974C243.7 32.9782 245.218 33.2734 247.504 33.2734C252.109 33.2734 254.415 31.8748 254.415 29.0825C254.415 27.3306 253.963 26.1498 253.07 25.54C252.177 24.9351 250.44 24.6351 247.854 24.6351ZM242.603 19.6311H239.356C239.356 17.042 239.944 15.3047 241.118 14.4094C242.292 13.519 244.593 13.0737 248.014 13.0737C251.731 13.0737 254.245 13.6206 255.55 14.7143C256.855 15.8128 257.511 17.8938 257.511 20.962V35.6447H254.24L254.497 33.2492L254.429 33.225C253.187 35.0543 250.658 35.9738 246.844 35.9738C241.21 35.9738 238.396 33.7186 238.396 29.2034C238.396 26.5176 239.021 24.6641 240.288 23.6381C241.55 22.6122 243.826 22.0992 247.126 22.0992C251.047 22.0992 253.395 22.8687 254.172 24.4028L254.24 24.3786V21.683C254.24 19.1375 253.89 17.4921 253.187 16.7372C252.488 15.987 250.954 15.6096 248.591 15.6096C244.578 15.6096 242.569 16.7323 242.569 18.9875C242.569 19.0939 242.579 19.3117 242.593 19.636L242.603 19.6311Z" fill="white"/>
<path d="M266.542 3.87891V35.6399H263.276V3.87891H266.542Z" fill="white"/>
<path d="M270.152 32.9344H269.128V32.5908H271.588V32.9344H270.564V35.6542H270.152V32.9344Z" fill="white"/>
<path d="M271.938 32.5908H272.501L273.467 35.1654L274.442 32.5908H275V35.6542H274.617V33.1038H274.607L273.646 35.6542H273.297L272.336 33.1038H272.326V35.6542H271.938V32.5908Z" fill="white"/>
<path d="M29.5079 2.35917C29.1828 2.17528 28.5616 1.87524 28.0569 1.65746C17.8952 -2.72219 6.10786 1.8704 1.68213 11.9847C-0.457946 16.887 -0.491918 22.2055 1.21626 26.8611C10.2861 11.0846 24.2233 4.17879 29.5079 2.35917Z" fill="white"/>
<path d="M30.2506 2.75612C30.2506 2.75612 30.2166 2.74161 30.202 2.73193C26.1257 6.81155 16.4833 19.1617 14.8818 39.3371C16.4735 39.763 18.0992 39.9711 19.6958 40.0001C18.6573 21.7121 26.7663 7.63424 30.2506 2.75612Z" fill="white"/>
<path d="M29.8088 2.49951C25.0579 4.89017 11.8486 14.5206 5.22461 33.4717C6.29707 34.6525 7.51997 35.7075 8.88845 36.6173C12.5717 17.9808 24.8589 6.18714 29.8573 2.52855L29.8088 2.49951Z" fill="white"/>
<path d="M30.5464 2.94971C28.0618 7.87621 22.7917 21.2668 25.5578 39.25C31.1045 37.6676 35.9718 33.7138 38.4613 28.0226C42.5085 18.7745 38.932 8.07947 30.5464 2.94971Z" fill="white"/>
</g>
<defs>
<clipPath id="clip0_97_3831">
<rect width="275" height="40" fill="white"/>
</clipPath>
</defs>
</svg>
