<svg width="108" height="108" viewBox="0 0 108 108" fill="none" xmlns="http://www.w3.org/2000/svg">
<g clip-path="url(#clip0_645_3195)">
<path d="M53.5122 3.63529C60.3022 3.63529 66.8872 4.96388 73.0843 7.58538C84.9925 12.6233 94.8142 22.445 99.8477 34.3488C102.474 40.5503 103.802 47.1353 103.802 53.9253C103.802 60.7153 102.474 67.3003 99.8521 73.4974C94.8766 85.2629 84.9167 95.2585 73.0888 100.261C66.8872 102.887 60.3022 104.215 53.5122 104.215C46.7222 104.215 40.1372 102.887 33.9401 100.265C22.179 95.2897 12.179 85.3253 7.17675 73.5018C4.55079 67.3003 3.22221 60.7153 3.22221 53.9253C3.22221 47.1353 4.55079 40.5503 7.17229 34.3532C12.2102 22.445 22.0364 12.6188 33.9401 7.58538C40.1372 4.96388 46.7222 3.63529 53.5122 3.63529ZM53.5122 0.425293C23.9668 0.425293 0.012207 24.3799 0.012207 53.9253C0.012207 83.4707 23.9668 107.425 53.5122 107.425C83.0576 107.425 107.012 83.4707 107.012 53.9253C107.012 24.3799 83.0576 0.425293 53.5122 0.425293Z" fill="black"/>
<path d="M8.92896 53.9254C8.92896 71.5715 19.1831 86.8234 34.0561 94.0504L12.7899 35.78C10.3155 41.3261 8.92896 47.4608 8.92896 53.9254ZM83.6105 51.6739C83.6105 46.1634 81.631 42.3471 79.9368 39.3778C77.6765 35.7042 75.5587 32.5967 75.5587 28.923C75.5587 24.8258 78.6662 21.0095 83.0443 21.0095C83.2405 21.0095 83.4277 21.0318 83.6194 21.0452C75.688 13.7781 65.1173 9.34204 53.5123 9.34204C37.9349 9.34204 24.2344 17.3358 16.2629 29.4357C17.3106 29.4714 18.2959 29.4893 19.1296 29.4893C23.793 29.4893 31.0111 28.923 31.0111 28.923C33.4141 28.7804 33.695 32.3114 31.2964 32.5967C31.2964 32.5967 28.88 32.8776 26.1961 33.0203L42.4289 81.3129L52.1882 52.0529L45.2421 33.0203C42.8435 32.882 40.5653 32.5967 40.5653 32.5967C38.1622 32.454 38.4476 28.7848 40.8506 28.923C40.8506 28.923 48.2113 29.4893 52.5939 29.4893C57.2573 29.4893 64.4798 28.923 64.4798 28.923C66.8828 28.7804 67.1637 32.3114 64.7651 32.5967C64.7651 32.5967 62.3487 32.8776 59.6648 33.0203L75.7772 80.9429L80.3782 66.3686C82.4112 60.0021 83.6105 55.4902 83.6105 51.6739ZM54.297 57.822L40.9175 96.6897C44.9122 97.8667 49.1342 98.5087 53.5123 98.5087C58.7018 98.5087 63.6862 97.6126 68.3184 95.9808C68.198 95.7891 68.091 95.5885 67.9974 95.3656L54.297 57.822ZM92.6342 32.5343C92.8259 33.952 92.9329 35.4768 92.9329 37.1175C92.9329 41.6382 92.0858 46.7252 89.5401 53.0872L75.9243 92.4587C89.1834 84.7325 98.0956 70.3722 98.0956 53.9254C98.0956 46.1723 96.1161 38.8874 92.6342 32.5343Z" fill="black"/>
</g>
<defs>
<clipPath id="clip0_645_3195">
<rect width="107" height="107" fill="white" transform="translate(0.012207 0.425293)"/>
</clipPath>
</defs>
</svg>
