<svg width="84" height="84" viewBox="0 0 84 84" fill="none" xmlns="http://www.w3.org/2000/svg">
<g filter="url(#filter0_d_618_1989)">
<path d="M17.69 38.4978L16.29 37.0979C11.79 32.5979 10.49 26.2979 12.09 20.5979C7.59004 19.5979 4.29004 15.5979 4.29004 10.7979C4.29004 5.29785 8.79004 0.797852 14.29 0.797852C19.29 0.797852 23.39 4.39785 24.19 9.19785C29.59 7.89785 35.49 9.39785 39.69 13.5979L40.29 14.1979L32.89 21.5979L32.29 20.9979C29.89 18.5979 25.99 18.5979 23.59 20.9979C21.19 23.3979 21.19 27.2979 23.59 29.6979L40.19 46.2979L32.79 53.6979L24.99 45.8979L17.69 38.4978Z" fill="#7AC143"/>
<path d="M25.9902 30.2978L42.5902 13.6978C46.9902 9.29783 53.3902 7.89783 58.9902 9.49783C59.6902 4.59783 63.8902 0.897827 68.8902 0.897827C74.3902 0.897827 78.8902 5.39783 78.8902 10.8978C78.8902 15.9978 75.0902 20.1978 70.1902 20.7978C71.7902 26.3978 70.3902 32.6978 65.9902 37.0978L65.3902 37.6978L58.1902 30.2978L58.7902 29.6978C61.1902 27.2978 61.1902 23.3978 58.7902 20.9978C56.3902 18.5978 52.4902 18.5978 50.0902 20.9978L33.4902 37.5978L25.9902 30.2978Z" fill="#F9A541"/>
<path d="M59.2898 67.5978C53.5898 69.2978 47.1898 67.9978 42.6898 63.4978L42.0898 62.8978L49.4898 55.4978L50.0898 56.0978C52.4898 58.4978 56.3898 58.4978 58.7898 56.0978C61.1898 53.6978 61.1898 49.7978 58.7898 47.3978L42.1898 30.7978L49.5898 23.3978L66.2898 40.0978C70.4898 44.2978 71.9898 50.2978 70.6898 55.7978C75.5898 56.4978 79.2898 60.6978 79.2898 65.6978C79.2898 71.1978 74.7898 75.6978 69.2898 75.6978C64.2898 75.5978 60.1898 72.0978 59.2898 67.5978Z" fill="#F44321"/>
<path d="M56.39 46.7978L39.79 63.3978C35.49 67.6978 29.49 69.0978 24.09 67.7978C23.09 72.2978 19.09 75.5978 14.29 75.5978C8.79004 75.5978 4.29004 71.0978 4.29004 65.5978C4.29004 60.8978 7.59004 56.8978 11.99 55.8978C10.59 50.2978 11.99 44.2978 16.29 39.9978L16.89 39.3978L24.29 46.7978L23.69 47.3978C21.29 49.7978 21.29 53.6978 23.69 56.0978C26.09 58.4978 29.99 58.4978 32.39 56.0978L48.99 39.4978L56.39 46.7978Z" fill="#5091CD"/>
</g>
<defs>
<filter id="filter0_d_618_1989" x="0.290039" y="0.797852" width="83" height="82.9" filterUnits="userSpaceOnUse" color-interpolation-filters="sRGB">
<feFlood flood-opacity="0" result="BackgroundImageFix"/>
<feColorMatrix in="SourceAlpha" type="matrix" values="0 0 0 0 0 0 0 0 0 0 0 0 0 0 0 0 0 0 127 0" result="hardAlpha"/>
<feOffset dy="4"/>
<feGaussianBlur stdDeviation="2"/>
<feComposite in2="hardAlpha" operator="out"/>
<feColorMatrix type="matrix" values="0 0 0 0 0 0 0 0 0 0 0 0 0 0 0 0 0 0 0.25 0"/>
<feBlend mode="normal" in2="BackgroundImageFix" result="effect1_dropShadow_618_1989"/>
<feBlend mode="normal" in="SourceGraphic" in2="effect1_dropShadow_618_1989" result="shape"/>
</filter>
</defs>
</svg>
