<?xml version="1.0" encoding="UTF-8"?>
<!DOCTYPE svg PUBLIC "-//W3C//DTD SVG 1.1//EN" "http://www.w3.org/Graphics/SVG/1.1/DTD/svg11.dtd">
<svg xmlns="http://www.w3.org/2000/svg" version="1.1" width="220px" height="220px" style="shape-rendering:geometricPrecision; text-rendering:geometricPrecision; image-rendering:optimizeQuality; fill-rule:evenodd; clip-rule:evenodd" xmlns:xlink="http://www.w3.org/1999/xlink">
<g><path style="opacity:1" fill="#fcfcfc" d="M -0.5,-0.5 C 72.8333,-0.5 146.167,-0.5 219.5,-0.5C 219.5,72.8333 219.5,146.167 219.5,219.5C 146.167,219.5 72.8333,219.5 -0.5,219.5C -0.5,146.167 -0.5,72.8333 -0.5,-0.5 Z"/></g>
<g><path style="opacity:1" fill="#2a638e" d="M 120.5,31.5 C 120.565,31.9382 120.399,32.2716 120,32.5C 118.667,31.8333 117.667,30.8333 117,29.5C 116.333,31.8333 116.333,34.1667 117,36.5C 118.893,39.618 120.226,42.9513 121,46.5C 130.545,59.7468 143.045,63.5802 158.5,58C 153.5,57.6667 148.5,57.3333 143.5,57C 137.784,54.7589 132.45,51.9256 127.5,48.5C 127.263,47.209 127.596,46.209 128.5,45.5C 139.309,55.8677 151.642,58.2011 165.5,52.5C 166.043,52.56 166.376,52.8933 166.5,53.5C 154.934,63.924 142.267,65.2574 128.5,57.5C 118.512,49.1788 114.345,38.5121 116,25.5C 116.748,23.6675 117.748,22.0009 119,20.5C 119.42,24.1914 119.92,27.8581 120.5,31.5 Z"/></g>
<g><path style="opacity:1" fill="#d7eff5" d="M 86.5,34.5 C 86.3713,36.2161 86.038,37.8828 85.5,39.5C 84.2525,47.025 84.2525,54.6917 85.5,62.5C 84.2502,62.4226 83.4169,61.756 83,60.5C 83.0305,55.6029 82.1972,50.9363 80.5,46.5C 81.7749,43.6272 82.6082,40.6272 83,37.5C 83.7589,35.9371 84.9256,34.9371 86.5,34.5 Z"/></g>
<g><path style="opacity:1" fill="#36688f" d="M 58.5,37.5 C 59.5862,37.62 60.2528,38.2867 60.5,39.5C 60.0356,42.3493 59.3689,45.016 58.5,47.5C 58.5,46.5 58.5,45.5 58.5,44.5C 56.3284,45.2055 54.3284,46.2055 52.5,47.5C 54.5,44.1667 56.5,40.8333 58.5,37.5 Z"/></g>
<g><path style="opacity:1" fill="#1368a9" d="M 120.5,31.5 C 121.462,35.4199 123.462,38.7533 126.5,41.5C 127.167,42.8333 127.833,44.1667 128.5,45.5C 127.596,46.209 127.263,47.209 127.5,48.5C 132.45,51.9256 137.784,54.7589 143.5,57C 148.5,57.3333 153.5,57.6667 158.5,58C 143.045,63.5802 130.545,59.7468 121,46.5C 120.226,42.9513 118.893,39.618 117,36.5C 116.333,34.1667 116.333,31.8333 117,29.5C 117.667,30.8333 118.667,31.8333 120,32.5C 120.399,32.2716 120.565,31.9382 120.5,31.5 Z"/></g>
<g><path style="opacity:1" fill="#f4fafb" d="M 126.5,41.5 C 123.462,38.7533 121.462,35.4199 120.5,31.5C 119.92,27.8581 119.42,24.1914 119,20.5C 117.748,22.0009 116.748,23.6675 116,25.5C 114.345,38.5121 118.512,49.1788 128.5,57.5C 142.267,65.2574 154.934,63.924 166.5,53.5C 166.376,52.8933 166.043,52.56 165.5,52.5C 165.56,51.9569 165.893,51.6236 166.5,51.5C 167.706,53.4841 167.706,55.4841 166.5,57.5C 164.135,60.3502 161.135,62.1836 157.5,63C 158.5,64.6667 159.5,66.3333 160.5,68C 161.448,68.4828 162.448,68.6495 163.5,68.5C 164.075,72.4735 166.242,73.4735 170,71.5C 170.333,72.1667 170.667,72.8333 171,73.5C 173.025,67.5062 174.525,67.3395 175.5,73C 173.644,79.745 168.978,84.9117 161.5,88.5C 161.5,88.1667 161.5,87.8333 161.5,87.5C 162.5,87.1667 163.167,86.5 163.5,85.5C 166.115,83.6212 168.281,81.2879 170,78.5C 170.982,77.2411 171.315,75.9078 171,74.5C 167.855,77.3038 164.688,79.9704 161.5,82.5C 160.167,82.8333 158.833,83.1667 157.5,83.5C 145.397,87.9255 133.73,87.2588 122.5,81.5C 122.586,80.5041 122.252,79.6708 121.5,79C 120.062,78.7811 118.729,78.2811 117.5,77.5C 114.856,75.1671 112.189,72.8338 109.5,70.5C 112.573,71.199 115.573,72.199 118.5,73.5C 119.614,72.277 119.781,70.9437 119,69.5C 115.285,68.4912 111.785,66.9912 108.5,65C 109.711,63.8869 109.711,62.7202 108.5,61.5C 108.977,60.069 109.643,58.7357 110.5,57.5C 113.556,59.2892 116.889,59.9559 120.5,59.5C 119.998,53.4903 117.831,48.1569 114,43.5C 113.333,36.8333 113.333,30.1667 114,23.5C 114.801,20.7159 116.301,18.3826 118.5,16.5C 119.086,16.7093 119.586,17.0426 120,17.5C 121.049,15.8934 122.549,15.2267 124.5,15.5C 123.293,21.8237 123.293,28.1571 124.5,34.5C 125.134,36.5668 126.134,38.4002 127.5,40C 126.944,40.3826 126.611,40.8826 126.5,41.5 Z"/></g>
<g><path style="opacity:1" fill="#e3f7fb" d="M 73.5,94.5 C 72.0613,92.6397 70.3947,90.973 68.5,89.5C 61.1096,76.5995 57.7762,62.5995 58.5,47.5C 59.3689,45.016 60.0356,42.3493 60.5,39.5C 60.2528,38.2867 59.5862,37.62 58.5,37.5C 58.6257,34.4424 60.1257,34.1091 63,36.5C 63.7913,39.7525 63.2913,42.7525 61.5,45.5C 61.5668,52.0971 61.7335,58.7638 62,65.5C 63.3211,69.7837 64.4877,74.1171 65.5,78.5C 66.7321,79.1445 68.0654,79.3112 69.5,79C 68.8333,79.6667 68.1667,80.3333 67.5,81C 70.2071,85.2423 72.2071,89.7423 73.5,94.5 Z"/></g>
<g><path style="opacity:1" fill="#dcf4fb" d="M 91.5,26.5 C 92.3132,25.3473 93.3132,25.3473 94.5,26.5C 94.8333,27.3333 95.1667,28.1667 95.5,29C 94.1117,31.4272 93.445,34.0939 93.5,37C 94.8407,42.0511 95.674,47.2178 96,52.5C 97.1136,54.4828 98.6136,56.1495 100.5,57.5C 101.167,59.8333 101.833,62.1667 102.5,64.5C 105.464,65.8079 107.797,67.8079 109.5,70.5C 112.189,72.8338 114.856,75.1671 117.5,77.5C 118.729,78.2811 120.062,78.7811 121.5,79C 122.252,79.6708 122.586,80.5041 122.5,81.5C 98.9436,70.729 88.6103,52.3957 91.5,26.5 Z"/></g>
<g><path style="opacity:1" fill="#1b6399" d="M 58.5,47.5 C 57.7762,62.5995 61.1096,76.5995 68.5,89.5C 59.3204,82.1225 55.3204,72.4558 56.5,60.5C 56.5079,55.7784 57.1745,51.4451 58.5,47.5 Z"/></g>
<g><path style="opacity:1" fill="#0a65a9" d="M 95.5,79.5 C 95.6567,78.1266 95.49,76.7932 95,75.5C 92.1301,71.7527 89.7967,67.7527 88,63.5C 86.6163,55.5639 85.783,47.5639 85.5,39.5C 87.2575,37.8593 88.7575,35.8593 90,33.5C 90.6383,43.5737 91.8049,53.5737 93.5,63.5C 94.8734,63.3433 96.2068,63.51 97.5,64C 103.085,70.7555 109.418,76.5888 116.5,81.5C 113.215,81.6981 111.548,83.3648 111.5,86.5C 106.735,86.5726 103.401,84.4059 101.5,80C 99.5273,79.5045 97.5273,79.3379 95.5,79.5 Z"/></g>
<g><path style="opacity:1" fill="#28668f" d="M 85.5,39.5 C 85.783,47.5639 86.6163,55.5639 88,63.5C 89.7967,67.7527 92.1301,71.7527 95,75.5C 95.49,76.7932 95.6567,78.1266 95.5,79.5C 91.4117,74.3304 88.0784,68.6637 85.5,62.5C 84.2525,54.6917 84.2525,47.025 85.5,39.5 Z"/></g>
<g><path style="opacity:1" fill="#2e5b83" d="M 163.5,85.5 C 163.715,83.8212 163.048,82.8212 161.5,82.5C 164.688,79.9704 167.855,77.3038 171,74.5C 171.315,75.9078 170.982,77.2411 170,78.5C 168.281,81.2879 166.115,83.6212 163.5,85.5 Z"/></g>
<g><path style="opacity:1" fill="#1062aa" d="M 161.5,82.5 C 163.048,82.8212 163.715,83.8212 163.5,85.5C 163.167,86.5 162.5,87.1667 161.5,87.5C 159.5,87.5 157.5,87.5 155.5,87.5C 155.719,88.675 155.386,89.675 154.5,90.5C 152.253,91.3742 149.92,91.7076 147.5,91.5C 147.5,90.1667 147.5,88.8333 147.5,87.5C 149.857,87.6633 152.19,87.4966 154.5,87C 156.056,86.2798 157.056,85.1132 157.5,83.5C 158.833,83.1667 160.167,82.8333 161.5,82.5 Z"/></g>
<g><path style="opacity:1" fill="#2a6794" d="M 47.5,77.5 C 48.7409,79.9312 49.9076,79.9312 51,77.5C 51.2525,80.8822 52.0859,84.0489 53.5,87C 52.875,88.8405 52.7083,90.6739 53,92.5C 55.0483,96.8603 57.5483,100.86 60.5,104.5C 63.0922,106.036 64.0922,108.369 63.5,111.5C 61.5919,108.72 59.4252,106.053 57,103.5C 55.0591,99.2784 52.8924,95.2784 50.5,91.5C 49.5,86.8333 48.5,82.1667 47.5,77.5 Z"/></g>
<g><path style="opacity:1" fill="#0f65a6" d="M 58.5,47.5 C 57.1745,51.4451 56.5079,55.7784 56.5,60.5C 55.3204,72.4558 59.3204,82.1225 68.5,89.5C 70.3947,90.973 72.0613,92.6397 73.5,94.5C 78.3348,101.445 84.6682,106.778 92.5,110.5C 94.7937,112.653 97.4604,114.32 100.5,115.5C 100.5,117.167 100.5,118.833 100.5,120.5C 103.167,120.5 105.833,120.5 108.5,120.5C 106.35,121.67 104.016,122.67 101.5,123.5C 100.808,122.975 100.308,122.308 100,121.5C 97.7699,126.428 96.2699,126.428 95.5,121.5C 96.552,121.649 97.552,121.483 98.5,121C 98.0183,119.992 97.8516,118.825 98,117.5C 95.2801,117.279 92.4468,116.446 89.5,115C 87.8753,114.147 87.5419,113.147 88.5,112C 86.5065,110.001 84.1732,108.501 81.5,107.5C 80.2202,103.373 77.5536,100.873 73.5,100C 71.6558,97.6571 69.6558,95.4904 67.5,93.5C 66.5,93.8333 65.8333,94.5 65.5,95.5C 66.877,98.5766 66.7104,101.577 65,104.5C 64.2276,100.063 61.8943,96.7296 58,94.5C 58.4211,97.8295 59.2545,101.163 60.5,104.5C 57.5483,100.86 55.0483,96.8603 53,92.5C 52.7083,90.6739 52.875,88.8405 53.5,87C 52.0859,84.0489 51.2525,80.8822 51,77.5C 49.9076,79.9312 48.7409,79.9312 47.5,77.5C 47.3337,70.825 47.5004,64.1583 48,57.5C 48.8445,53.7708 50.3445,50.4374 52.5,47.5C 54.3284,46.2055 56.3284,45.2055 58.5,44.5C 58.5,45.5 58.5,46.5 58.5,47.5 Z"/></g>
<g><path style="opacity:1" fill="#20669a" d="M 91.5,26.5 C 88.6103,52.3957 98.9436,70.729 122.5,81.5C 133.73,87.2588 145.397,87.9255 157.5,83.5C 157.056,85.1132 156.056,86.2798 154.5,87C 152.19,87.4966 149.857,87.6633 147.5,87.5C 147.5,88.8333 147.5,90.1667 147.5,91.5C 149.92,91.7076 152.253,91.3742 154.5,90.5C 155.386,89.675 155.719,88.675 155.5,87.5C 157.5,87.5 159.5,87.5 161.5,87.5C 161.5,87.8333 161.5,88.1667 161.5,88.5C 144.303,99.2863 126.637,100.12 108.5,91C 103.353,88.0156 99.0196,84.1823 95.5,79.5C 97.5273,79.3379 99.5273,79.5045 101.5,80C 103.401,84.4059 106.735,86.5726 111.5,86.5C 111.548,83.3648 113.215,81.6981 116.5,81.5C 109.418,76.5888 103.085,70.7555 97.5,64C 96.2068,63.51 94.8734,63.3433 93.5,63.5C 91.8049,53.5737 90.6383,43.5737 90,33.5C 88.7575,35.8593 87.2575,37.8593 85.5,39.5C 86.038,37.8828 86.3713,36.2161 86.5,34.5C 88.1526,31.8695 89.8193,29.2028 91.5,26.5 Z"/></g>
<g><path style="opacity:1" fill="#0866ad" d="M 116.5,84.5 C 121.142,83.4164 124.142,85.0831 125.5,89.5C 128.674,87.0306 132.007,86.864 135.5,89C 133.551,90.8347 131.217,92.0014 128.5,92.5C 132.459,93.3265 136.459,93.8265 140.5,94C 134.509,94.4995 128.509,94.6662 122.5,94.5C 122.5,93.5 122.5,92.5 122.5,91.5C 119.518,91.0371 116.518,90.7038 113.5,90.5C 113.966,88.7988 113.966,87.2988 113.5,86C 114.737,85.7679 115.737,85.2679 116.5,84.5 Z"/></g>
<g><path style="opacity:1" fill="#0866ac" d="M 108.5,120.5 C 120.361,122.536 132.361,123.036 144.5,122C 147.107,119.895 150.107,119.062 153.5,119.5C 153.321,121.606 152.321,123.272 150.5,124.5C 147.837,125.476 145.504,126.81 143.5,128.5C 141.218,129.39 138.885,129.556 136.5,129C 135.663,127.989 135.33,126.822 135.5,125.5C 132.833,125.5 130.167,125.5 127.5,125.5C 127.5,126.833 127.5,128.167 127.5,129.5C 122.167,129.5 116.833,129.5 111.5,129.5C 111.5,130.833 111.5,132.167 111.5,133.5C 102.084,133.311 93.0841,131.144 84.5,127C 83.1667,125.667 83.1667,124.333 84.5,123C 82.7975,120.432 80.6308,119.932 78,121.5C 73.3318,119.844 70.8318,116.51 70.5,111.5C 73.3563,112.828 76.3563,113.828 79.5,114.5C 79.67,113.178 79.3366,112.011 78.5,111C 76.2537,109.961 74.087,108.794 72,107.5C 69.5517,109.691 66.7184,111.024 63.5,111.5C 64.0922,108.369 63.0922,106.036 60.5,104.5C 59.2545,101.163 58.4211,97.8295 58,94.5C 61.8943,96.7296 64.2276,100.063 65,104.5C 66.7104,101.577 66.877,98.5766 65.5,95.5C 65.8333,94.5 66.5,93.8333 67.5,93.5C 69.6558,95.4904 71.6558,97.6571 73.5,100C 77.5536,100.873 80.2202,103.373 81.5,107.5C 84.1732,108.501 86.5065,110.001 88.5,112C 87.5419,113.147 87.8753,114.147 89.5,115C 92.4468,116.446 95.2801,117.279 98,117.5C 97.8516,118.825 98.0183,119.992 98.5,121C 97.552,121.483 96.552,121.649 95.5,121.5C 96.2699,126.428 97.7699,126.428 100,121.5C 100.308,122.308 100.808,122.975 101.5,123.5C 104.016,122.67 106.35,121.67 108.5,120.5 Z"/></g>
<g><path style="opacity:1" fill="#d7f2f9" d="M 73.5,94.5 C 75.3084,94.4914 76.9751,94.9914 78.5,96C 79.678,100.009 82.3447,102.509 86.5,103.5C 87.3857,104.325 87.719,105.325 87.5,106.5C 89.1992,106.34 90.8659,106.506 92.5,107C 93.6843,108.145 93.6843,109.312 92.5,110.5C 84.6682,106.778 78.3348,101.445 73.5,94.5 Z"/></g>
<g><path style="opacity:1" fill="#28628f" d="M 143.5,130.5 C 143.5,129.833 143.5,129.167 143.5,128.5C 145.504,126.81 147.837,125.476 150.5,124.5C 152.321,123.272 153.321,121.606 153.5,119.5C 150.107,119.062 147.107,119.895 144.5,122C 132.361,123.036 120.361,122.536 108.5,120.5C 105.833,120.5 103.167,120.5 100.5,120.5C 100.5,118.833 100.5,117.167 100.5,115.5C 115.466,122.109 130.799,123.109 146.5,118.5C 154.123,116.272 160.956,112.606 167,107.5C 162.093,117.905 154.259,125.572 143.5,130.5 Z"/></g>
<g><path style="opacity:1" fill="#e2f5fb" d="M 50.5,91.5 C 52.8924,95.2784 55.0591,99.2784 57,103.5C 59.4252,106.053 61.5919,108.72 63.5,111.5C 66.051,115.293 69.051,118.626 72.5,121.5C 69.5402,120.241 66.5402,118.908 63.5,117.5C 62.7022,115.922 62.2022,114.256 62,112.5C 59.3232,108.862 55.9898,105.862 52,103.5C 51.3583,99.5092 50.8583,95.5092 50.5,91.5 Z"/></g>
<g><path style="opacity:1" fill="#18659f" d="M 143.5,128.5 C 143.5,129.167 143.5,129.833 143.5,130.5C 121.596,139.646 100.263,138.313 79.5,126.5C 77.4687,124.478 75.1354,122.811 72.5,121.5C 69.051,118.626 66.051,115.293 63.5,111.5C 66.7184,111.024 69.5517,109.691 72,107.5C 74.087,108.794 76.2537,109.961 78.5,111C 79.3366,112.011 79.67,113.178 79.5,114.5C 76.3563,113.828 73.3563,112.828 70.5,111.5C 70.8318,116.51 73.3318,119.844 78,121.5C 80.6308,119.932 82.7975,120.432 84.5,123C 83.1667,124.333 83.1667,125.667 84.5,127C 93.0841,131.144 102.084,133.311 111.5,133.5C 111.5,132.167 111.5,130.833 111.5,129.5C 116.833,129.5 122.167,129.5 127.5,129.5C 127.5,128.167 127.5,126.833 127.5,125.5C 130.167,125.5 132.833,125.5 135.5,125.5C 135.33,126.822 135.663,127.989 136.5,129C 138.885,129.556 141.218,129.39 143.5,128.5 Z"/></g>
<g><path style="opacity:1" fill="#e3f6fb" d="M 79.5,126.5 C 100.263,138.313 121.596,139.646 143.5,130.5C 154.259,125.572 162.093,117.905 167,107.5C 160.956,112.606 154.123,116.272 146.5,118.5C 148.685,116.709 151.018,114.875 153.5,113C 159.025,112.818 162.192,109.985 163,104.5C 166.358,101.855 169.858,101.355 173.5,103C 172.5,103.833 171.5,104.667 170.5,105.5C 170.089,113.513 166.256,119.846 159,124.5C 157.887,123.289 156.72,123.289 155.5,124.5C 154.866,126.567 153.866,128.4 152.5,130C 131.486,139.725 109.82,141.059 87.5,134C 85.0038,132.92 82.6705,131.586 80.5,130C 79.6634,128.989 79.33,127.822 79.5,126.5 Z"/></g>
<g><path style="opacity:1" fill="#4d515b" d="M 170.5,160.5 C 163.5,160.5 156.5,160.5 149.5,160.5C 149.737,161.791 149.404,162.791 148.5,163.5C 148.5,162.167 148.5,160.833 148.5,159.5C 156.019,159.175 163.352,159.508 170.5,160.5 Z"/></g>
<g><path style="opacity:1" fill="#21252c" d="M 36.5,159.5 C 39.1667,159.5 41.8333,159.5 44.5,159.5C 44.0074,161.806 43.6741,164.139 43.5,166.5C 40.8333,166.5 38.1667,166.5 35.5,166.5C 35.298,164.05 35.6314,161.717 36.5,159.5 Z"/></g>
<g><path style="opacity:1" fill="#171b24" d="M 138.5,188.5 C 131.11,188.764 123.777,188.43 116.5,187.5C 113.023,180.215 113.357,172.881 117.5,165.5C 119.47,163.184 121.804,161.351 124.5,160C 139.791,156.458 145.458,162.291 141.5,177.5C 135.167,177.5 128.833,177.5 122.5,177.5C 122.286,179.144 122.62,180.644 123.5,182C 128.823,182.499 134.156,182.666 139.5,182.5C 139.167,184.5 138.833,186.5 138.5,188.5 Z"/></g>
<g><path style="opacity:1" fill="#191e26" d="M 176.5,187.5 C 173.609,188.403 170.609,188.736 167.5,188.5C 168.014,186.383 168.347,184.216 168.5,182C 167.807,177.423 166.807,172.923 165.5,168.5C 168.5,168.5 171.5,168.5 174.5,168.5C 174.238,169.978 174.571,171.311 175.5,172.5C 180.048,167.444 184.048,161.944 187.5,156C 190.833,155.333 194.167,155.333 197.5,156C 192.121,163.257 186.621,170.423 181,177.5C 179.214,180.736 177.714,184.07 176.5,187.5 Z"/></g>
<g><path style="opacity:1" fill="#f3f9fb" d="M 133.5,167.5 C 133.5,168.5 133.5,169.5 133.5,170.5C 130.482,170.665 127.482,170.498 124.5,170C 125.252,169.329 125.586,168.496 125.5,167.5C 128.167,166.167 130.833,166.167 133.5,167.5 Z"/></g>
<g><path style="opacity:1" fill="#90929a" d="M 172.5,162.5 C 173.451,163.919 173.784,165.585 173.5,167.5C 167.5,167.5 161.5,167.5 155.5,167.5C 160.975,166.511 166.642,166.178 172.5,166.5C 172.5,165.167 172.5,163.833 172.5,162.5 Z"/></g>
<g><path style="opacity:1" fill="#6f767f" d="M 125.5,167.5 C 125.586,168.496 125.252,169.329 124.5,170C 127.482,170.498 130.482,170.665 133.5,170.5C 133.5,169.5 133.5,168.5 133.5,167.5C 134.434,168.568 134.768,169.901 134.5,171.5C 130.833,171.5 127.167,171.5 123.5,171.5C 123.229,169.62 123.896,168.287 125.5,167.5 Z"/></g>
<g><path style="opacity:1" fill="#181c27" d="M 88.5,159.5 C 90.8333,159.5 93.1667,159.5 95.5,159.5C 93.855,166.746 92.855,174.08 92.5,181.5C 95.5719,181.817 98.5719,181.484 101.5,180.5C 102.953,173.837 104.453,167.17 106,160.5C 108.381,159.565 110.881,159.232 113.5,159.5C 111.5,169.5 109.5,179.5 107.5,189.5C 101.491,189.666 95.4908,189.499 89.5,189C 85.765,187.2 84.0983,184.2 84.5,180C 85.1403,172.983 86.4737,166.15 88.5,159.5 Z"/></g>
<g><path style="opacity:1" fill="#181d27" d="M 61.5,151.5 C 69.966,149.657 76.466,152.323 81,159.5C 82.1911,166.912 81.0245,173.912 77.5,180.5C 78.8333,181.167 80.1667,181.833 81.5,182.5C 80.8333,184.5 80.1667,186.5 79.5,188.5C 70.8525,189.665 62.1858,189.832 53.5,189C 46.2412,185.307 43.7412,179.474 46,171.5C 47.6819,162.001 52.8486,155.334 61.5,151.5 Z"/></g>
<g><path style="opacity:1" fill="#f3f5f5" d="M 60.5,159.5 C 63.5184,159.335 66.5184,159.502 69.5,160C 70.6667,160.5 71.5,161.333 72,162.5C 71.9831,168.913 71.1498,175.247 69.5,181.5C 65.4862,181.666 61.4862,181.499 57.5,181C 56.3333,180.5 55.5,179.667 55,178.5C 54.8111,171.59 56.6444,165.257 60.5,159.5 Z"/></g>
<g><path style="opacity:1" fill="#151922" d="M 170.5,160.5 C 171.5,160.833 172.167,161.5 172.5,162.5C 172.5,163.833 172.5,165.167 172.5,166.5C 166.642,166.178 160.975,166.511 155.5,167.5C 153.574,174.384 152.074,181.384 151,188.5C 148.619,189.435 146.119,189.768 143.5,189.5C 144.857,180.745 146.524,172.079 148.5,163.5C 149.404,162.791 149.737,161.791 149.5,160.5C 156.5,160.5 163.5,160.5 170.5,160.5 Z"/></g>
<g><path style="opacity:1" fill="#181c25" d="M 31.5,200.5 C 28.5,200.5 25.5,200.5 22.5,200.5C 22.5,199.5 22.5,198.5 22.5,197.5C 22.4326,194.234 24.0992,192.734 27.5,193C 28.1258,192.25 28.6258,191.416 29,190.5C 30.9935,183.525 32.8269,176.525 34.5,169.5C 37.0865,168.52 39.7531,168.187 42.5,168.5C 40.7332,177.166 38.8999,185.833 37,194.5C 35.669,196.996 33.8356,198.996 31.5,200.5 Z"/></g>
<g><path style="opacity:1" fill="#626269" d="M 116.5,187.5 C 123.777,188.43 131.11,188.764 138.5,188.5C 131.679,189.655 124.679,189.821 117.5,189C 116.944,188.617 116.611,188.117 116.5,187.5 Z"/></g>
<g><path style="opacity:1" fill="#81838d" d="M 176.5,187.5 C 175.486,188.765 173.986,189.431 172,189.5C 170.293,189.492 168.793,189.158 167.5,188.5C 170.609,188.736 173.609,188.403 176.5,187.5 Z"/></g>
<g><path style="opacity:1" fill="#585a5c" d="M 22.5,197.5 C 22.5,198.5 22.5,199.5 22.5,200.5C 25.5,200.5 28.5,200.5 31.5,200.5C 28.3752,201.479 25.0419,201.813 21.5,201.5C 21.2322,199.901 21.5655,198.568 22.5,197.5 Z"/></g>
</svg>
