<?xml version="1.0" encoding="UTF-8"?>
<!DOCTYPE svg PUBLIC "-//W3C//DTD SVG 1.1//EN" "http://www.w3.org/Graphics/SVG/1.1/DTD/svg11.dtd">
<svg xmlns="http://www.w3.org/2000/svg" version="1.1" width="220px" height="220px" style="shape-rendering:geometricPrecision; text-rendering:geometricPrecision; image-rendering:optimizeQuality; fill-rule:evenodd; clip-rule:evenodd" xmlns:xlink="http://www.w3.org/1999/xlink">
<g><path style="opacity:1" fill="#fcfcfc" d="M -0.5,-0.5 C 72.8333,-0.5 146.167,-0.5 219.5,-0.5C 219.5,72.8333 219.5,146.167 219.5,219.5C 146.167,219.5 72.8333,219.5 -0.5,219.5C -0.5,146.167 -0.5,72.8333 -0.5,-0.5 Z"/></g>
<g><path style="opacity:1" fill="#db5a4c" d="M 75.5,53.5 C 75.5,54.5 75.5,55.5 75.5,56.5C 72.9407,56.1984 70.6074,56.5318 68.5,57.5C 62.1575,58.1009 55.8242,58.7676 49.5,59.5C 48.2502,59.5774 47.4169,60.244 47,61.5C 46.5065,59.8659 46.3398,58.1992 46.5,56.5C 49.3854,56.8064 52.0521,56.4731 54.5,55.5C 60.4516,54.5041 66.4516,53.5041 72.5,52.5C 73.7261,52.5195 74.7261,52.8529 75.5,53.5 Z"/></g>
<g><path style="opacity:1" fill="#db685d" d="M 75.5,53.5 C 79.2646,58.0272 82.2646,63.0272 84.5,68.5C 83.8826,68.3893 83.3826,68.056 83,67.5C 82.51,68.7932 82.3433,70.1266 82.5,71.5C 80.1095,67.0634 77.4428,62.73 74.5,58.5C 72.604,57.5344 70.604,57.2011 68.5,57.5C 70.6074,56.5318 72.9407,56.1984 75.5,56.5C 75.5,55.5 75.5,54.5 75.5,53.5 Z"/></g>
<g><path style="opacity:1" fill="#d46c62" d="M 54.5,55.5 C 52.0521,56.4731 49.3854,56.8064 46.5,56.5C 46.3398,58.1992 46.5065,59.8659 47,61.5C 47.4169,60.244 48.2502,59.5774 49.5,59.5C 49.8333,60.8333 50.1667,62.1667 50.5,63.5C 48.8041,61.871 47.8041,62.2043 47.5,64.5C 45.9125,62.7857 44.5792,60.7857 43.5,58.5C 43.8333,57.8333 44.1667,57.1667 44.5,56.5C 47.7577,55.5827 51.091,55.2493 54.5,55.5 Z"/></g>
<g><path style="opacity:1" fill="#fbfbfa" d="M 93.5,91.5 C 94.1667,91.5 94.5,91.8333 94.5,92.5C 94.5858,93.4959 94.2524,94.3292 93.5,95C 96.1242,95.5764 96.7908,96.9098 95.5,99C 99.422,101.568 99.422,104.068 95.5,106.5C 97.004,109.832 96.004,112.165 92.5,113.5C 88.2772,113.44 83.9439,113.273 79.5,113C 78.2249,110.506 76.8916,108.006 75.5,105.5C 78.7362,98.7322 77.4029,97.3989 71.5,101.5C 65.4596,91.0574 59.793,80.3907 54.5,69.5C 54.1244,66.3733 54.1244,63.3733 54.5,60.5C 59.1374,60.4148 63.804,60.0815 68.5,59.5C 70.5767,59.6922 72.5767,60.1922 74.5,61C 74.6088,64.4199 74.4421,67.9199 74,71.5C 74.3333,71.1667 74.6667,70.8333 75,70.5C 77.0065,71.6687 79.1732,72.3354 81.5,72.5C 83.5107,76.7039 85.344,81.0373 87,85.5C 88.9802,87.8987 91.1469,89.8987 93.5,91.5 Z"/></g>
<g><path style="opacity:1" fill="#fcf1e7" d="M 68.5,57.5 C 70.604,57.2011 72.604,57.5344 74.5,58.5C 77.4428,62.73 80.1095,67.0634 82.5,71.5C 86.1949,78.1837 89.8616,84.8503 93.5,91.5C 91.1469,89.8987 88.9802,87.8987 87,85.5C 85.344,81.0373 83.5107,76.7039 81.5,72.5C 79.1732,72.3354 77.0065,71.6687 75,70.5C 74.6667,70.8333 74.3333,71.1667 74,71.5C 74.4421,67.9199 74.6088,64.4199 74.5,61C 72.5767,60.1922 70.5767,59.6922 68.5,59.5C 63.804,60.0815 59.1374,60.4148 54.5,60.5C 54.1244,63.3733 54.1244,66.3733 54.5,69.5C 53.1798,67.5368 51.8465,65.5368 50.5,63.5C 50.1667,62.1667 49.8333,60.8333 49.5,59.5C 55.8242,58.7676 62.1575,58.1009 68.5,57.5 Z"/></g>
<g><path style="opacity:1" fill="#feede4" d="M 169.5,87.5 C 168.167,86.1667 166.833,84.8333 165.5,83.5C 163.873,78.8988 160.873,75.5655 156.5,73.5C 149.724,74.9581 143.058,76.6248 136.5,78.5C 136.586,77.5041 136.252,76.6708 135.5,76C 142.398,74.9341 149.231,73.4341 156,71.5C 157.711,71.4393 159.044,72.1059 160,73.5C 160.333,73.1667 160.667,72.8333 161,72.5C 164.348,77.1948 167.181,82.1948 169.5,87.5 Z"/></g>
<g><path style="opacity:1" fill="#fdede8" d="M 163.5,85.5 C 165.091,88.4309 167.091,91.0976 169.5,93.5C 166.789,95.276 163.789,96.6093 160.5,97.5C 161.784,95.3862 163.784,94.3862 166.5,94.5C 165.032,93.2482 164.032,91.2482 163.5,88.5C 160.477,88.8948 159.477,87.8948 160.5,85.5C 157.176,84.8408 155.843,82.8408 156.5,79.5C 155.022,79.238 153.689,79.5713 152.5,80.5C 153.59,81.6086 153.59,82.6086 152.5,83.5C 151.197,81.5224 149.531,81.5224 147.5,83.5C 150.305,87.4451 152.305,91.7784 153.5,96.5C 149.61,91.7452 145.944,86.7452 142.5,81.5C 147.279,79.3701 152.279,78.5368 157.5,79C 158.998,81.6637 160.998,83.8304 163.5,85.5 Z"/></g>
<g><path style="opacity:1" fill="#d55f56" d="M 165.5,83.5 C 164.167,83.5 163.5,84.1667 163.5,85.5C 160.998,83.8304 158.998,81.6637 157.5,79C 152.279,78.5368 147.279,79.3701 142.5,81.5C 145.944,86.7452 149.61,91.7452 153.5,96.5C 153.5,97.1667 153.5,97.8333 153.5,98.5C 152.518,97.8592 151.518,97.1925 150.5,96.5C 149.702,96.9569 149.369,97.6236 149.5,98.5C 145.354,92.9009 141.188,87.2343 137,81.5C 136.517,80.552 136.351,79.552 136.5,78.5C 143.058,76.6248 149.724,74.9581 156.5,73.5C 160.873,75.5655 163.873,78.8988 165.5,83.5 Z"/></g>
<g><path style="opacity:1" fill="#fafaf8" d="M 160.5,97.5 C 158.236,98.2186 155.903,98.552 153.5,98.5C 153.5,97.8333 153.5,97.1667 153.5,96.5C 152.305,91.7784 150.305,87.4451 147.5,83.5C 149.531,81.5224 151.197,81.5224 152.5,83.5C 153.59,82.6086 153.59,81.6086 152.5,80.5C 153.689,79.5713 155.022,79.238 156.5,79.5C 155.843,82.8408 157.176,84.8408 160.5,85.5C 159.477,87.8948 160.477,88.8948 163.5,88.5C 164.032,91.2482 165.032,93.2482 166.5,94.5C 163.784,94.3862 161.784,95.3862 160.5,97.5 Z"/></g>
<g><path style="opacity:1" fill="#da5c50" d="M 50.5,63.5 C 51.8465,65.5368 53.1798,67.5368 54.5,69.5C 59.793,80.3907 65.4596,91.0574 71.5,101.5C 73.7033,107.045 76.37,112.378 79.5,117.5C 80.3333,117.833 81.1667,118.167 82,118.5C 89.815,116.305 97.6483,114.305 105.5,112.5C 104.908,109.309 103.741,106.309 102,103.5C 99.4772,99.7674 96.9772,96.1008 94.5,92.5C 94.5,91.8333 94.1667,91.5 93.5,91.5C 89.8616,84.8503 86.1949,78.1837 82.5,71.5C 82.3433,70.1266 82.51,68.7932 83,67.5C 83.3826,68.056 83.8826,68.3893 84.5,68.5C 93.1686,81.8634 101.502,95.53 109.5,109.5C 110.167,109.833 110.833,110.167 111.5,110.5C 122.072,107.385 132.739,104.552 143.5,102C 146.152,101.647 148.152,100.48 149.5,98.5C 149.369,97.6236 149.702,96.9569 150.5,96.5C 151.518,97.1925 152.518,97.8592 153.5,98.5C 155.903,98.552 158.236,98.2186 160.5,97.5C 163.789,96.6093 166.789,95.276 169.5,93.5C 167.091,91.0976 165.091,88.4309 163.5,85.5C 163.5,84.1667 164.167,83.5 165.5,83.5C 166.833,84.8333 168.167,86.1667 169.5,87.5C 170.793,89.2959 172.293,90.9625 174,92.5C 175.009,94.0249 175.509,95.6916 175.5,97.5C 170.167,98.8333 164.833,100.167 159.5,101.5C 157.365,99.631 154.698,98.9644 151.5,99.5C 151.527,101.199 152.194,102.533 153.5,103.5C 149.838,103.723 146.505,104.723 143.5,106.5C 132.991,107.958 122.991,110.958 113.5,115.5C 117.247,122.663 121.247,129.663 125.5,136.5C 126.689,137.429 128.022,137.762 129.5,137.5C 133.936,136.586 137.936,134.919 141.5,132.5C 142.609,132.443 143.609,132.11 144.5,131.5C 146.781,131.077 148.448,131.744 149.5,133.5C 142.06,136.354 134.56,139.02 127,141.5C 124.44,141.099 122.607,139.766 121.5,137.5C 121.5,137.167 121.5,136.833 121.5,136.5C 117.36,130.17 113.36,123.67 109.5,117C 104.412,116.048 99.7449,116.881 95.5,119.5C 89.4987,120.834 83.4987,122.168 77.5,123.5C 67.2806,104.063 57.2806,84.3961 47.5,64.5C 47.8041,62.2043 48.8041,61.871 50.5,63.5 Z"/></g>
<g><path style="opacity:1" fill="#f34c3f" d="M 159.5,101.5 C 159.167,101.5 158.833,101.5 158.5,101.5C 156.989,102.502 155.322,103.169 153.5,103.5C 152.194,102.533 151.527,101.199 151.5,99.5C 154.698,98.9644 157.365,99.631 159.5,101.5 Z"/></g>
<g><path style="opacity:1" fill="#fee4d4" d="M 153.5,103.5 C 154.861,105.85 156.194,108.184 157.5,110.5C 153.925,110.094 151.758,108.094 151,104.5C 148.699,105.867 146.199,106.534 143.5,106.5C 146.505,104.723 149.838,103.723 153.5,103.5 Z"/></g>
<g><path style="opacity:1" fill="#fbf9f7" d="M 157.5,110.5 C 161.323,114.652 164.323,119.319 166.5,124.5C 163.933,124.721 161.599,125.388 159.5,126.5C 154.216,127.595 149.216,129.261 144.5,131.5C 143.609,132.11 142.609,132.443 141.5,132.5C 137.064,133.414 133.064,135.081 129.5,137.5C 128.022,137.762 126.689,137.429 125.5,136.5C 121.247,129.663 117.247,122.663 113.5,115.5C 122.991,110.958 132.991,107.958 143.5,106.5C 146.199,106.534 148.699,105.867 151,104.5C 151.758,108.094 153.925,110.094 157.5,110.5 Z"/></g>
<g><path style="opacity:1" fill="#d95b4e" d="M 158.5,101.5 C 158.389,102.117 158.056,102.617 157.5,103C 163.181,110.156 168.181,117.656 172.5,125.5C 166.935,127.782 161.268,129.782 155.5,131.5C 153.801,131.66 152.134,131.494 150.5,131C 153.686,129.643 156.686,128.143 159.5,126.5C 161.599,125.388 163.933,124.721 166.5,124.5C 164.323,119.319 161.323,114.652 157.5,110.5C 156.194,108.184 154.861,105.85 153.5,103.5C 155.322,103.169 156.989,102.502 158.5,101.5 Z"/></g>
<g><path style="opacity:1" fill="#fdf2f1" d="M 94.5,92.5 C 96.9772,96.1008 99.4772,99.7674 102,103.5C 103.741,106.309 104.908,109.309 105.5,112.5C 97.6483,114.305 89.815,116.305 82,118.5C 81.1667,118.167 80.3333,117.833 79.5,117.5C 76.37,112.378 73.7033,107.045 71.5,101.5C 77.4029,97.3989 78.7362,98.7322 75.5,105.5C 76.8916,108.006 78.2249,110.506 79.5,113C 83.9439,113.273 88.2772,113.44 92.5,113.5C 96.004,112.165 97.004,109.832 95.5,106.5C 99.422,104.068 99.422,101.568 95.5,99C 96.7908,96.9098 96.1242,95.5764 93.5,95C 94.2524,94.3292 94.5858,93.4959 94.5,92.5 Z"/></g>
<g><path style="opacity:1" fill="#fdeade" d="M 121.5,136.5 C 120.417,136.461 119.417,136.127 118.5,135.5C 116.159,130.482 112.659,126.482 108,123.5C 107.833,123.167 107.667,122.833 107.5,122.5C 108.376,121.749 109.376,121.249 110.5,121C 110.043,120.586 109.709,120.086 109.5,119.5C 104.844,118.431 100.178,118.431 95.5,119.5C 99.7449,116.881 104.412,116.048 109.5,117C 113.36,123.67 117.36,130.17 121.5,136.5 Z"/></g>
<g><path style="opacity:1" fill="#d26c65" d="M 159.5,126.5 C 156.686,128.143 153.686,129.643 150.5,131C 152.134,131.494 153.801,131.66 155.5,131.5C 153.698,132.458 151.698,133.125 149.5,133.5C 148.448,131.744 146.781,131.077 144.5,131.5C 149.216,129.261 154.216,127.595 159.5,126.5 Z"/></g>
<g><path style="opacity:1" fill="#d77570" d="M 141.5,132.5 C 137.936,134.919 133.936,136.586 129.5,137.5C 133.064,135.081 137.064,133.414 141.5,132.5 Z"/></g>
<g><path style="opacity:1" fill="#fceee2" d="M 172.5,125.5 C 170.027,127.347 167.527,129.347 165,131.5C 152.949,135.698 140.782,139.531 128.5,143C 129.654,143.914 129.487,144.747 128,145.5C 125.001,144.317 122.501,142.484 120.5,140C 121.252,139.329 121.586,138.496 121.5,137.5C 122.607,139.766 124.44,141.099 127,141.5C 134.56,139.02 142.06,136.354 149.5,133.5C 151.698,133.125 153.698,132.458 155.5,131.5C 161.268,129.782 166.935,127.782 172.5,125.5 Z"/></g>
<g><path style="opacity:1" fill="#727272" d="M 106.5,152.5 C 109.505,152.253 112.005,153.253 114,155.5C 114.333,154.833 114.667,154.167 115,153.5C 115.828,157.871 115.661,162.205 114.5,166.5C 111.604,166.293 108.604,166.127 105.5,166C 101.366,161.119 101.7,156.619 106.5,152.5 Z"/></g>
<g><path style="opacity:1" fill="#f4f4f4" d="M 106.5,154.5 C 112.499,154.002 114.666,156.669 113,162.5C 109.477,166.701 106.477,166.368 104,161.5C 103.162,158.519 103.995,156.186 106.5,154.5 Z"/></g>
<g><path style="opacity:1" fill="#999999" d="M 148.5,148.5 C 149.816,151.087 150.483,154.087 150.5,157.5C 150.167,160.5 149.833,163.5 149.5,166.5C 148.504,160.537 148.171,154.537 148.5,148.5 Z"/></g>
<g><path style="opacity:1" fill="#797979" d="M 72.5,147.5 C 73.8182,150.258 74.4848,153.424 74.5,157C 74.1667,160.167 73.8333,163.333 73.5,166.5C 72.5037,160.202 72.1703,153.868 72.5,147.5 Z"/></g>
<g><path style="opacity:1" fill="#616161" d="M 94.5,153.5 C 96.3138,153.772 98.3138,153.939 100.5,154C 98.0103,154.495 96.5103,155.995 96,158.5C 95.6667,161.167 95.3333,163.833 95,166.5C 94.501,162.179 94.3343,157.846 94.5,153.5 Z"/></g>
<g><path style="opacity:1" fill="#6b6b6b" d="M 118.5,153.5 C 119.376,153.369 120.043,153.702 120.5,154.5C 121.764,157.125 122.931,159.792 124,162.5C 125.935,159.629 127.601,156.629 129,153.5C 128.486,157.876 126.819,161.876 124,165.5C 121.864,161.567 120.031,157.567 118.5,153.5 Z"/></g>
<g><path style="opacity:1" fill="#797979" d="M 79.5,163.5 C 76.5247,159.529 77.1914,156.029 81.5,153C 84.6363,151.959 87.1363,152.793 89,155.5C 89.3076,154.692 89.8076,154.025 90.5,153.5C 91.8333,157.833 91.8333,162.167 90.5,166.5C 89.676,164.252 88.676,164.086 87.5,166C 85.5,166.667 83.5,166.667 81.5,166C 80.244,165.583 79.5774,164.75 79.5,163.5 Z"/></g>
<g><path style="opacity:1" fill="#f6f6f6" d="M 79.5,163.5 C 78.66,154.47 81.8266,152.47 89,157.5C 90.3097,161.7 88.8097,164.367 84.5,165.5C 82.9246,164.544 81.258,163.877 79.5,163.5 Z"/></g>
<g><path style="opacity:1" fill="#6a6a6a" d="M 142.5,154.5 C 145.084,155.048 146.084,156.715 145.5,159.5C 141.833,159.5 138.167,159.5 134.5,159.5C 136.49,166.651 139.99,167.317 145,161.5C 145.445,163.594 144.612,165.094 142.5,166C 136.613,167.565 133.28,165.398 132.5,159.5C 133.121,155.546 135.454,153.213 139.5,152.5C 140.739,152.942 141.739,153.609 142.5,154.5 Z"/></g>
<g><path style="opacity:1" fill="#eeeeee" d="M 142.5,154.5 C 143.141,155.482 143.807,156.482 144.5,157.5C 141.167,158.833 137.833,158.833 134.5,157.5C 136.425,154.828 139.092,153.828 142.5,154.5 Z"/></g>
</svg>
