<svg width="85" height="79" viewBox="0 0 85 79" fill="none" xmlns="http://www.w3.org/2000/svg">
<path d="M21.2135 58.7986V69.3903C21.2135 72.3101 23.5895 74.6862 26.5093 74.6862C28.9066 74.6862 31.0037 73.0515 31.611 70.7107C31.8546 69.7681 32.8078 69.1961 33.7646 69.4468C34.7073 69.6904 35.2757 70.6578 35.0286 71.6004C34.0153 75.4982 30.513 78.2167 26.5058 78.2167C21.6371 78.2167 17.6793 74.259 17.6793 69.3903V58.7986C17.6793 53.9299 21.6371 49.9722 26.5058 49.9722C30.513 49.9722 34.0153 52.6942 35.0286 56.5885C35.2722 57.5347 34.7038 58.4985 33.7646 58.7421C32.8078 58.9892 31.8546 58.4138 31.611 57.4782C31.0037 55.1374 28.903 53.5027 26.5093 53.5027C23.5895 53.5027 21.2135 55.8788 21.2135 58.7986ZM79.4855 49.9722C78.2781 49.9722 77.1553 50.8266 76.5163 52.2317L72.4067 61.27L68.2971 52.2317C67.6581 50.8266 66.5354 49.9722 65.3279 49.9722C63.5062 49.9722 61.9915 51.0137 61.8397 53.5027L60.1768 76.4514C60.1062 77.4047 60.8618 78.2167 61.8185 78.2167C62.6835 78.2167 63.7321 77.5459 63.7921 76.6845L65.3279 54.23L70.9098 66.5058C71.4958 67.791 73.3211 67.791 73.9037 66.5058L79.4855 54.23L81.3567 76.7092C81.4273 77.56 82.1405 78.2167 82.9949 78.2167C83.9517 78.2167 84.7037 77.4047 84.6366 76.4514L82.9737 53.5027C82.8219 51.0137 81.3073 49.9722 79.4855 49.9722ZM52.5896 66.1351L55.8413 75.8901C56.1484 76.8151 55.6471 77.8142 54.7256 78.1249C54.5385 78.1885 54.3549 78.2132 54.1678 78.2132C53.4299 78.2132 52.7414 77.7436 52.4908 77.0057L49.3097 67.4591C48.7837 67.5579 48.2506 67.6215 47.6963 67.6215H42.4004V76.4479C42.4004 77.4224 41.6096 78.2132 40.6351 78.2132C39.6607 78.2132 38.8698 77.4224 38.8698 76.4479V55.2645C38.8698 52.3447 41.2459 49.9686 44.1657 49.9686H47.6963C52.5649 49.9686 56.5227 53.9264 56.5227 58.7951C56.5227 61.8525 54.9586 64.5534 52.5896 66.1351ZM52.9921 58.7986C52.9921 55.8788 50.616 53.5027 47.6963 53.5027H44.1657C43.1948 53.5027 42.4004 54.2971 42.4004 55.268V64.0945H47.6963C50.616 64.0945 52.9921 61.7184 52.9921 58.7986ZM14.1523 11.1359C12.2034 11.1359 10.6217 12.7176 10.6217 14.6665C10.6217 16.6153 12.2034 18.197 14.1523 18.197C16.1012 18.197 17.6829 16.6153 17.6829 14.6665C17.6829 12.7176 16.1012 11.1359 14.1523 11.1359ZM84.7637 16.4318V41.1457C84.7637 42.1202 83.9729 42.911 82.9984 42.911C82.024 42.911 81.2331 42.1202 81.2331 41.1457V28.7887H3.5606V62.3292C3.5606 66.7283 5.92961 70.8272 9.7391 73.0339C10.5829 73.5211 10.8724 74.6014 10.3852 75.4452C10.0568 76.0101 9.46371 76.3279 8.85645 76.3279C8.55636 76.3279 8.2492 76.2537 7.97381 76.0913C3.07338 73.2563 0.0300293 67.9851 0.0300293 62.3327V16.4318C0.0300293 7.67241 7.15825 0.544189 15.9176 0.544189H68.8762C77.6355 0.544189 84.7637 7.67241 84.7637 16.4318ZM81.2331 16.4318C81.2331 9.61775 75.6901 4.07476 68.8762 4.07476H15.9176C9.10359 4.07476 3.5606 9.61775 3.5606 16.4318V25.2582H81.2331V16.4318ZM35.3357 11.1359C33.3869 11.1359 31.8052 12.7176 31.8052 14.6665C31.8052 16.6153 33.3869 18.197 35.3357 18.197C37.2846 18.197 38.8663 16.6153 38.8663 14.6665C38.8663 12.7176 37.2846 11.1359 35.3357 11.1359ZM24.744 11.1359C22.7951 11.1359 21.2135 12.7176 21.2135 14.6665C21.2135 16.6153 22.7951 18.197 24.744 18.197C26.6929 18.197 28.2746 16.6153 28.2746 14.6665C28.2746 12.7176 26.6929 11.1359 24.744 11.1359Z" fill="#323F49"/>
</svg>
