<svg width="240" height="166" viewBox="0 0 240 166" fill="none" xmlns="http://www.w3.org/2000/svg">
<mask id="mask0_618_702" style="mask-type:luminance" maskUnits="userSpaceOnUse" x="70" y="22" width="111" height="110">
<path d="M180.134 22.2373H70.4863V131.885H180.134V22.2373Z" fill="white"/>
</mask>
<g mask="url(#mask0_618_702)">
</g>
<g clip-path="url(#clip0_618_702)">
<path fill-rule="evenodd" clip-rule="evenodd" d="M161.099 57.2973C161.126 57.3972 161.14 57.5002 161.14 57.6037V73.6911C161.14 73.8976 161.085 74.1004 160.982 74.2791C160.878 74.4578 160.73 74.606 160.55 74.7087L147.048 82.4826V97.8912C147.048 98.3105 146.825 98.6976 146.461 98.9087L118.276 115.134C118.212 115.171 118.141 115.194 118.071 115.219C118.045 115.228 118.02 115.244 117.992 115.251C117.795 115.303 117.588 115.303 117.391 115.251C117.358 115.242 117.329 115.225 117.298 115.213C117.234 115.19 117.166 115.169 117.105 115.134L88.9254 98.9087C88.7463 98.8059 88.5976 98.6577 88.4941 98.479C88.3906 98.3004 88.3361 98.0976 88.3359 97.8912V49.6289C88.3359 49.5233 88.3506 49.4207 88.377 49.321C88.3858 49.2873 88.4063 49.2565 88.418 49.2228C88.44 49.1612 88.4606 49.0981 88.4928 49.041C88.5148 49.0028 88.5471 48.972 88.5735 48.9369C88.6072 48.8899 88.638 48.8416 88.6776 48.8005C88.7113 48.7668 88.7553 48.7419 88.7934 48.7125C88.8359 48.6773 88.874 48.6392 88.9224 48.6114L103.014 40.4987C103.193 40.3961 103.395 40.342 103.601 40.342C103.807 40.342 104.009 40.3961 104.187 40.4987L118.278 48.6114H118.281C118.328 48.6407 118.367 48.6773 118.41 48.7111C118.448 48.7404 118.49 48.7668 118.524 48.799C118.565 48.8416 118.594 48.8899 118.63 48.9369C118.655 48.972 118.688 49.0028 118.709 49.041C118.742 49.0996 118.762 49.1612 118.785 49.2228C118.797 49.2565 118.817 49.2873 118.826 49.3225C118.853 49.4224 118.867 49.5254 118.867 49.6289V79.773L130.609 73.0123V57.6022C130.609 57.4996 130.623 57.3955 130.65 57.2973C130.66 57.2621 130.679 57.2313 130.691 57.1976C130.714 57.136 130.735 57.0729 130.767 57.0158C130.789 56.9776 130.821 56.9468 130.846 56.9117C130.881 56.8647 130.911 56.8163 130.952 56.7753C130.985 56.7416 131.028 56.7166 131.066 56.6873C131.11 56.6521 131.148 56.614 131.195 56.5862L145.288 48.4735C145.467 48.3707 145.669 48.3166 145.875 48.3166C146.081 48.3166 146.283 48.3707 146.461 48.4735L160.552 56.5862C160.602 56.6155 160.64 56.6521 160.684 56.6859C160.72 56.7152 160.763 56.7416 160.797 56.7738C160.838 56.8163 160.867 56.8647 160.902 56.9117C160.929 56.9468 160.961 56.9776 160.981 57.0158C161.015 57.0729 161.034 57.136 161.058 57.1976C161.071 57.2313 161.09 57.2621 161.099 57.2973ZM158.791 73.0123V59.6344L153.86 62.473L147.048 66.3952V79.773L158.792 73.0123H158.791ZM144.701 97.2123V83.8257L138 87.6525L118.866 98.5729V112.086L144.701 97.2123ZM90.6848 51.6596V97.2123L116.517 112.084V98.5744L103.022 90.9369L103.017 90.9339L103.011 90.931C102.966 90.9046 102.928 90.8665 102.885 90.8342C102.849 90.8049 102.806 90.7814 102.774 90.7492L102.771 90.7448C102.733 90.7081 102.706 90.6627 102.674 90.6216C102.645 90.582 102.61 90.5483 102.586 90.5073L102.585 90.5028C102.558 90.4589 102.542 90.4061 102.523 90.3562C102.504 90.3122 102.479 90.2712 102.467 90.2243C102.453 90.1686 102.45 90.1084 102.444 90.0513C102.438 90.0073 102.426 89.9633 102.426 89.9193V89.9164V58.4204L95.6157 54.4968L90.6848 51.6596ZM103.602 42.8711L91.8622 49.6289L103.599 56.3867L115.338 49.6275L103.599 42.8711H103.602ZM109.708 85.0456L116.518 81.1249V51.6596L111.587 54.4982L104.775 58.4204V87.8856L109.708 85.0456ZM145.875 50.8459L134.136 57.6037L145.875 64.3615L157.612 57.6022L145.875 50.8459ZM144.701 66.3952L137.888 62.473L132.958 59.6344V73.0123L139.768 76.9329L144.701 79.773V66.3952ZM117.69 96.5422L134.908 86.7127L143.514 81.8008L131.785 75.0474L118.279 82.8228L105.97 89.909L117.69 96.5422Z" fill="#FF2D20"/>
</g>
<line x1="24.7108" y1="48.9684" x2="61.0477" y2="64.2682" stroke="#B6C3CD" stroke-width="0.637489" stroke-dasharray="1.27 1.27"/>
<line x1="195.552" y1="106.977" x2="238.901" y2="124.19" stroke="#B6C3CD" stroke-width="0.637489" stroke-dasharray="1.27 1.27"/>
<line x1="188.908" y1="52.1691" x2="238.632" y2="25.3945" stroke="#B6C3CD" stroke-width="0.637489" stroke-dasharray="1.27 1.27"/>
<line x1="0.881621" y1="131.439" x2="60.8816" y2="107.439" stroke="#B6C3CD" stroke-width="0.637489" stroke-dasharray="1.27 1.27"/>
<line x1="119.892" y1="165.422" x2="119.892" y2="118.885" stroke="#B6C3CD" stroke-width="0.637489" stroke-dasharray="1.27 1.27"/>
<line x1="124.992" y1="39.0623" x2="124.992" y2="0.812923" stroke="#B6C3CD" stroke-width="0.637489" stroke-dasharray="1.27 1.27"/>
<defs>
<clipPath id="clip0_618_702">
<rect width="73.3112" height="76.2437" fill="white" transform="translate(88.3359 40.3423)"/>
</clipPath>
</defs>
</svg>
