<svg width="86" height="89" viewBox="0 0 86 89" fill="none" xmlns="http://www.w3.org/2000/svg">
<path d="M40.4145 85.4831C40.7529 86.4396 40.2526 87.4918 39.2961 87.8303C37.9201 88.3159 36.478 88.5661 35.0027 88.5661H31.3238C24.2234 88.5661 18.4475 82.7901 18.4475 75.6898V74.4095C18.4475 68.1295 15.806 62.1917 11.2036 58.1081C2.88553 50.7428 -1.16131 39.7244 0.383843 28.6324C2.42566 14.0159 14.5625 2.18441 29.2489 0.499449C46.6503 -1.49822 62.7015 10.3774 65.7587 27.5434C65.939 28.5441 65.2694 29.5006 64.2724 29.6772C63.2607 29.8538 62.3189 29.1916 62.1386 28.1909C59.4236 12.9343 45.1529 2.38675 29.6683 4.15632C16.6227 5.65733 5.83604 16.1644 4.026 29.1437C2.65007 39.0107 6.2444 48.8114 13.6391 55.3599C17.0274 58.3619 19.507 62.2211 20.8829 66.4961H31.3201V38.7495C26.107 37.8702 22.1227 33.3267 22.1227 27.8671C22.1227 26.8517 22.9468 26.0277 23.9622 26.0277C24.9776 26.0277 25.8017 26.8517 25.8017 27.8671C25.8017 31.925 29.1017 35.225 33.1596 35.225C37.2174 35.225 40.5175 31.925 40.5175 27.8671C40.5175 26.8517 41.3415 26.0277 42.3569 26.0277C43.3723 26.0277 44.1964 26.8517 44.1964 27.8671C44.1964 33.3267 40.2121 37.8702 34.999 38.7495V68.3355C34.999 69.3509 34.175 70.175 33.1596 70.175H21.7732C22.005 71.5657 22.1227 72.982 22.1227 74.4132V75.6934C22.1227 80.763 26.2505 84.8908 31.3201 84.8908H34.999C36.0549 84.8908 37.085 84.7142 38.0636 84.3684C39.0128 84.0262 40.0686 84.5266 40.4108 85.4868L40.4145 85.4831ZM69.9527 62.8134C69.9527 66.8713 66.6527 70.1713 62.5948 70.1713C58.5369 70.1713 55.2369 66.8713 55.2369 62.8134C55.2369 58.7556 58.5369 55.4555 62.5948 55.4555C66.6527 55.4555 69.9527 58.7556 69.9527 62.8134ZM66.2738 62.8134C66.2738 60.7863 64.6256 59.1345 62.5948 59.1345C60.564 59.1345 58.9159 60.7863 58.9159 62.8134C58.9159 64.8405 60.564 66.4924 62.5948 66.4924C64.6256 66.4924 66.2738 64.8405 66.2738 62.8134ZM85.4043 71.6135C85.7832 73.0409 85.5772 74.5272 84.8341 75.7964C84.0909 77.0694 82.8989 77.9781 81.4715 78.3533C80.0514 78.7286 78.5651 78.5262 77.2849 77.7794L74.9267 76.4035C72.9547 78.2025 70.637 79.5379 68.1096 80.3326V83.0476C68.1096 86.0901 65.6336 88.5661 62.5911 88.5661C59.5487 88.5661 57.0727 86.0901 57.0727 83.0476V80.3326C54.5453 79.5379 52.2312 78.2025 50.2556 76.4035L47.8974 77.7794C46.6208 78.5262 45.1382 78.7286 43.7108 78.3533C42.2834 77.9781 41.0914 77.0694 40.3482 75.7964C39.6051 74.5272 39.4027 73.0409 39.7743 71.6135C40.1459 70.1861 41.0583 68.9904 42.3312 68.2472L44.7078 66.8603C44.362 65.4439 44.1927 64.1121 44.1927 62.8134C44.1927 61.5148 44.362 60.183 44.7078 58.7629L42.3312 57.376C41.0583 56.6328 40.1496 55.4372 39.7743 54.0097C39.3991 52.5823 39.6051 51.096 40.3482 49.8268C41.0914 48.5538 42.2834 47.6488 43.7108 47.2736C45.1382 46.8983 46.6245 47.1043 47.8974 47.8438L50.2556 49.2197C52.2312 47.4244 54.5453 46.0853 57.0727 45.2943V42.5792C57.0727 39.5367 59.5487 37.0608 62.5911 37.0608C65.6336 37.0608 68.1096 39.5367 68.1096 42.5792V45.2943C70.637 46.089 72.9474 47.4244 74.9267 49.2197L77.2885 47.8438C78.5651 47.1007 80.0514 46.902 81.4715 47.2736C82.8989 47.6488 84.0909 48.5575 84.8341 49.8304C85.5772 51.1034 85.7832 52.5896 85.4043 54.0134C85.029 55.4408 84.124 56.6328 82.8511 57.3796L80.4745 58.7629C80.8203 60.1793 80.9896 61.5148 80.9896 62.8134C80.9896 64.1121 80.8203 65.4476 80.4745 66.8603L82.8511 68.2472C84.1277 68.9904 85.0327 70.1861 85.4043 71.6135ZM81.8467 72.5479C81.7217 72.0733 81.42 71.676 80.9969 71.4295L77.3952 69.3252C76.6521 68.8911 76.3099 68.0044 76.5675 67.184C77.0752 65.5727 77.3106 64.182 77.3106 62.8171C77.3106 61.4522 77.0752 60.0616 76.5675 58.4465C76.3099 57.6261 76.6521 56.7395 77.3952 56.3054L80.9969 54.2047C81.42 53.9582 81.7217 53.5609 81.8467 53.0863C81.9718 52.6117 81.9056 52.1151 81.6554 51.692C81.409 51.2689 81.0079 50.9636 80.5334 50.8422C80.0441 50.7134 79.5584 50.787 79.139 51.0298L75.5631 53.1157C74.8273 53.5462 73.8818 53.4137 73.2969 52.7883C71.2735 50.6324 68.7019 49.1498 65.8617 48.5023C65.0229 48.311 64.4306 47.5679 64.4306 46.7107V42.5903C64.4306 41.5749 63.6029 40.7508 62.5911 40.7508C61.5794 40.7508 60.7517 41.5749 60.7517 42.5903V46.7107C60.7517 47.5679 60.1594 48.3147 59.3206 48.5023C56.4804 49.1498 53.9052 50.6324 51.8854 52.7883C51.3005 53.4137 50.3513 53.5462 49.6192 53.1157L46.0469 51.0298C45.6202 50.7833 45.1235 50.7134 44.6526 50.8422C44.178 50.9672 43.7807 51.2689 43.5305 51.692C43.284 52.1187 43.2141 52.6117 43.3392 53.0863C43.4643 53.5609 43.766 53.9619 44.1891 54.2084L47.7907 56.3091C48.5339 56.7395 48.876 57.6261 48.6185 58.4465C48.1108 60.0653 47.8754 61.4559 47.8754 62.8171C47.8754 64.1783 48.1108 65.569 48.6185 67.1877C48.876 68.0081 48.5339 68.8947 47.7907 69.3289L44.1891 71.4332C43.766 71.6797 43.4606 72.0807 43.3392 72.5553C43.2141 73.0299 43.2804 73.5229 43.5305 73.9459C43.777 74.3727 44.178 74.6744 44.6526 74.7994C45.1309 74.9245 45.6238 74.8583 46.0469 74.6081L49.6229 72.5222C49.9098 72.353 50.2299 72.272 50.55 72.272C51.0466 72.272 51.5359 72.4707 51.8891 72.8533C53.9125 75.0091 56.4841 76.4918 59.3242 77.1393C60.163 77.3306 60.7554 78.0737 60.7554 78.9309V83.0513C60.7554 84.0667 61.5831 84.8908 62.5948 84.8908C63.6065 84.8908 64.4343 84.0667 64.4343 83.0513V78.9309C64.4343 78.0737 65.0266 77.3269 65.8654 77.1393C68.7056 76.4918 71.2808 75.0091 73.3006 72.8533C73.8855 72.2242 74.831 72.0881 75.5668 72.5222L79.1427 74.6081C79.5732 74.8583 80.0661 74.9209 80.537 74.7994C81.0116 74.6744 81.409 74.3727 81.6591 73.9496C81.9056 73.5229 81.9755 73.0299 81.8504 72.5553L81.8467 72.5479Z" fill="#323F49"/>
</svg>
