<svg width="78" height="81" viewBox="0 0 78 81" fill="none" xmlns="http://www.w3.org/2000/svg">
<g clip-path="url(#clip0_618_564)">
<path fill-rule="evenodd" clip-rule="evenodd" d="M77.2657 18.5914C77.294 18.6962 77.3085 18.8043 77.3087 18.9129V35.7929C77.3087 36.0095 77.2516 36.2224 77.143 36.4098C77.0344 36.5973 76.8782 36.7528 76.6903 36.8606L62.5226 45.0175V61.1852C62.5226 61.6252 62.2887 62.0313 61.9072 62.2529L32.3334 79.2775C32.2657 79.316 32.1918 79.3406 32.118 79.3667C32.0903 79.376 32.0641 79.3929 32.0349 79.4006C31.8282 79.455 31.6109 79.455 31.4041 79.4006C31.3703 79.3913 31.3395 79.3729 31.3072 79.3606C31.2395 79.336 31.1687 79.3144 31.1041 79.2775L1.53643 62.2529C1.3486 62.145 1.19252 61.9895 1.08394 61.802C0.975366 61.6146 0.918118 61.4018 0.917969 61.1852L0.917969 10.5452C0.917969 10.4344 0.933353 10.3267 0.961046 10.2221C0.970276 10.1867 0.991815 10.1544 1.00412 10.119C1.0272 10.0544 1.04874 9.98828 1.08258 9.92828C1.10566 9.88828 1.13951 9.85597 1.1672 9.81904C1.20258 9.76981 1.23489 9.71904 1.27643 9.67597C1.31181 9.64058 1.35797 9.61443 1.39797 9.58366C1.44258 9.54674 1.48258 9.50674 1.53335 9.47751L16.3195 0.965199C16.5067 0.857476 16.7189 0.800781 16.9349 0.800781C17.1509 0.800781 17.3631 0.857476 17.5503 0.965199L32.3349 9.47751H32.338C32.3872 9.50828 32.4287 9.54674 32.4734 9.58212C32.5134 9.61289 32.558 9.64058 32.5934 9.67443C32.6364 9.71904 32.6672 9.76981 32.7041 9.81904C32.7303 9.85597 32.7657 9.88828 32.7872 9.92828C32.8226 9.98981 32.8426 10.0544 32.8672 10.119C32.8795 10.1544 32.901 10.1867 32.9103 10.2237C32.9386 10.3285 32.9531 10.4366 32.9534 10.5452V42.1744L45.2734 35.0806V18.9114C45.2734 18.8037 45.2887 18.6944 45.3164 18.5914C45.3272 18.5544 45.3472 18.5221 45.3595 18.4867C45.3841 18.4221 45.4057 18.356 45.4395 18.296C45.4626 18.256 45.4964 18.2237 45.5226 18.1867C45.5595 18.1375 45.5903 18.0867 45.6334 18.0437C45.6687 18.0083 45.7134 17.9821 45.7534 17.9514C45.7995 17.9144 45.8395 17.8744 45.8887 17.8452L60.6764 9.33289C60.8636 9.22502 61.0758 9.16824 61.2918 9.16824C61.5078 9.16824 61.7201 9.22502 61.9072 9.33289L76.6918 17.8452C76.7441 17.876 76.7841 17.9144 76.8303 17.9498C76.8687 17.9806 76.9134 18.0083 76.9487 18.0421C76.9918 18.0867 77.0226 18.1375 77.0595 18.1867C77.0872 18.2237 77.121 18.256 77.1426 18.296C77.178 18.356 77.198 18.4221 77.2226 18.4867C77.2364 18.5221 77.2564 18.5544 77.2657 18.5914ZM74.8441 35.0806V21.0437L69.6703 24.0221L62.5226 28.1375V42.1744L74.8457 35.0806H74.8441ZM60.0595 60.4729V46.4267L53.0287 50.4421L32.9518 61.9006V76.079L60.0595 60.4729ZM3.38258 12.676V60.4729L30.4872 76.0775V61.9021L16.3272 53.8883L16.3226 53.8852L16.3164 53.8821C16.2687 53.8544 16.2287 53.8144 16.1841 53.7806C16.1457 53.7498 16.101 53.7252 16.0672 53.6913L16.0641 53.6867C16.0241 53.6483 15.9964 53.6006 15.9626 53.5575C15.9318 53.516 15.8949 53.4806 15.8703 53.4375L15.8687 53.4329C15.841 53.3867 15.8241 53.3313 15.8041 53.279C15.7841 53.2329 15.758 53.1898 15.7457 53.1406C15.7303 53.0821 15.7272 53.019 15.721 52.959C15.7149 52.9129 15.7026 52.8667 15.7026 52.8206V52.8175V19.7698L8.55643 15.6529L3.38258 12.676ZM16.9364 3.45443L4.61797 10.5452L16.9334 17.636L29.2503 10.5437L16.9334 3.45443H16.9364ZM23.3426 47.7067L30.4887 43.5929V12.676L25.3149 15.6544L18.1672 19.7698V50.6867L23.3426 47.7067ZM61.2918 11.8221L48.9749 18.9129L61.2918 26.0037L73.6072 18.9114L61.2918 11.8221ZM60.0595 28.1375L52.9118 24.0221L47.738 21.0437V35.0806L54.8841 39.1944L60.0595 42.1744V28.1375ZM31.718 59.7698L49.7841 49.456L58.8149 44.3021L46.5072 37.216L32.3364 45.3744L19.421 52.8098L31.718 59.7698Z" fill="#FF2D20"/>
</g>
<defs>
<clipPath id="clip0_618_564">
<rect width="76.9231" height="80" fill="white" transform="translate(0.917969 0.800781)"/>
</clipPath>
</defs>
</svg>
