<svg width="117" height="122" viewBox="0 0 117 122" fill="none" xmlns="http://www.w3.org/2000/svg">
<g clip-path="url(#clip0_618_5556)">
<g clip-path="url(#clip1_618_5556)">
<path d="M20.6257 23.0077L0.9375 22.9771C0.9375 22.9771 1.91704 21.7053 2.99676 21.5467C2.99676 21.5467 5.10611 15.3021 8.62076 15.2632C11.8878 15.227 13.1901 19.1118 13.1901 19.1118C13.1901 19.1118 14.7178 17.3725 16.1732 18.1656C17.6286 18.9587 18.4356 21.2462 18.4356 21.2462C18.4356 21.2462 20.0497 22.1311 20.6257 23.0077Z" fill="#EBEBEB"/>
<path d="M91.0981 28.5732L115.996 28.6094C115.996 28.6094 115.996 27.0204 112.57 26.7032C112.57 26.7032 109.448 19.7462 104.664 20.6729C101.687 21.2489 100.159 25.334 100.159 25.334C100.159 25.334 97.9132 22.1144 96.1127 22.7349C94.3123 23.3555 93.2381 26.7922 93.2381 26.7922C93.2381 26.7922 91.382 27.6744 91.0981 28.5732Z" fill="#EBEBEB"/>
<path d="M86.9951 52.394L103.926 52.419C103.926 52.419 102.331 50.9302 101.619 50.9302C100.906 50.9302 98.8359 45.9212 96.1978 46.1411C93.5597 46.3609 92.1433 50.0537 92.1433 50.0537C92.1433 50.0537 88.9208 49.0546 86.9951 52.394Z" fill="#EBEBEB"/>
<path d="M84.4746 9.39153L98.9451 9.41379C98.9451 9.41379 98.2271 8.47321 97.434 8.35633C97.434 8.35633 95.8979 3.75917 93.3127 3.723C90.9112 3.68682 89.9428 6.54196 89.9428 6.54196C89.9428 6.54196 88.8297 5.25909 87.7694 5.84348C86.7092 6.42786 86.0998 8.1031 86.0998 8.1031C86.0998 8.1031 84.9087 8.74592 84.4746 9.39153Z" fill="#EBEBEB"/>
<path d="M10.5552 44.4296L25.0256 44.4518C25.0256 44.4518 24.3077 43.514 23.5118 43.3944C23.5118 43.3944 21.9757 38.7972 19.3933 38.761C16.989 38.7276 16.0233 41.5828 16.0233 41.5828C16.0233 41.5828 14.9102 40.2999 13.8472 40.8843C12.7842 41.4687 12.1775 43.1439 12.1775 43.1439C12.1775 43.1439 10.9893 43.7867 10.5552 44.4296Z" fill="#EBEBEB"/>
<path d="M2.30811 46.0407V99.1946H114.638V68.3558H104.893V80.191H102.383V73.4928H89.9936V84.1008H88.3518V42.2283H77.5824V66.035H72.0613V74.5392H70.3889V69.1934H60.5991V85.1471H57.7356V72.1794H48.7806V62.3227H42.6946V56.7127H35.6514V81.6019H33.2805V54.236H21.6791V69.1044H20.0762V56.9687H8.31057V46.0407H2.30811Z" fill="#EBEBEB"/>
<path d="M111.792 72.1072H113.439V69.8448H111.792V72.1072Z" fill="white"/>
<path d="M108.934 72.1072H110.582V69.8448H108.934V72.1072Z" fill="white"/>
<path d="M106.078 72.1072H107.725V69.8448H106.078V72.1072Z" fill="white"/>
<path d="M111.792 75.5132H113.439V73.2508H111.792V75.5132Z" fill="white"/>
<path d="M108.934 75.5132H110.582V73.2508H108.934V75.5132Z" fill="white"/>
<path d="M106.078 75.5132H107.725V73.2508H106.078V75.5132Z" fill="white"/>
<path d="M111.792 78.9165H113.439V76.6541H111.792V78.9165Z" fill="white"/>
<path d="M108.934 78.9165H110.582V76.6541H108.934V78.9165Z" fill="white"/>
<path d="M106.078 78.9165H107.725V76.6541H106.078V78.9165Z" fill="white"/>
<path d="M111.792 82.3198H113.439V80.0574H111.792V82.3198Z" fill="white"/>
<path d="M108.934 82.3198H110.582V80.0574H108.934V82.3198Z" fill="white"/>
<path d="M106.078 82.3198H107.725V80.0574H106.078V82.3198Z" fill="white"/>
<path d="M54.7134 75.6831H56.3608V73.7964H54.7134V75.6831Z" fill="white"/>
<path d="M51.8541 75.6831H53.5015V73.7964H51.8541V75.6831Z" fill="white"/>
<path d="M48.9961 75.6831H50.6436V73.7964H48.9961V75.6831Z" fill="white"/>
<path d="M54.7134 78.5215H56.3608V76.6347H54.7134V78.5215Z" fill="white"/>
<path d="M51.8541 78.5215H53.5015V76.6347H51.8541V78.5215Z" fill="white"/>
<path d="M48.9961 78.5215H50.6436V76.6347H48.9961V78.5215Z" fill="white"/>
<path d="M54.7134 81.3625H56.3608V79.4758H54.7134V81.3625Z" fill="white"/>
<path d="M51.8541 81.3625H53.5015V79.4758H51.8541V81.3625Z" fill="white"/>
<path d="M48.9961 81.3625H50.6436V79.4758H48.9961V81.3625Z" fill="white"/>
<path d="M54.7134 84.2012H56.3608V82.3144H54.7134V84.2012Z" fill="white"/>
<path d="M51.8541 84.2012H53.5015V82.3144H51.8541V84.2012Z" fill="white"/>
<path d="M48.9961 84.2012H50.6436V82.3144H48.9961V84.2012Z" fill="white"/>
<path d="M54.7134 87.1118H56.3608V85.2251H54.7134V87.1118Z" fill="white"/>
<path d="M51.8541 87.1118H53.5015V85.2251H51.8541V87.1118Z" fill="white"/>
<path d="M48.9961 87.1118H50.6436V85.2251H48.9961V87.1118Z" fill="white"/>
<path d="M54.7134 90.0227H56.3608V88.136H54.7134V90.0227Z" fill="white"/>
<path d="M51.8541 90.0227H53.5015V88.136H51.8541V90.0227Z" fill="white"/>
<path d="M48.9961 90.0227H50.6436V88.136H48.9961V90.0227Z" fill="white"/>
<path d="M54.7134 92.9333H56.3608V91.0466H54.7134V92.9333Z" fill="white"/>
<path d="M51.8541 92.9333H53.5015V91.0466H51.8541V92.9333Z" fill="white"/>
<path d="M48.9961 92.9333H50.6436V91.0466H48.9961V92.9333Z" fill="white"/>
<path d="M54.7134 95.8442H56.3608V93.9575H54.7134V95.8442Z" fill="white"/>
<path d="M51.8541 95.8442H53.5015V93.9575H51.8541V95.8442Z" fill="white"/>
<path d="M48.9961 95.8442H50.6436V93.9575H48.9961V95.8442Z" fill="white"/>
<path d="M91.484 76.3564H100.976V74.94H91.484V76.3564Z" fill="white"/>
<path d="M91.484 79.103H100.976V77.6866H91.484V79.103Z" fill="white"/>
<path d="M91.484 81.8496H100.976V80.4332H91.484V81.8496Z" fill="white"/>
<path d="M91.484 84.5935H100.976V83.1771H91.484V84.5935Z" fill="white"/>
<path d="M91.484 87.3401H100.976V85.9264H91.484V87.3401Z" fill="white"/>
<path d="M91.484 90.0867H100.976V88.6702H91.484V90.0867Z" fill="white"/>
<path d="M91.484 92.8306H100.976V91.4141H91.484V92.8306Z" fill="white"/>
<path d="M91.484 95.5771H100.976V94.1607H91.484V95.5771Z" fill="white"/>
<path d="M23.1477 56.9717H31.8745V55.5552H23.1477V56.9717Z" fill="white"/>
<path d="M23.1477 59.718H31.8745V58.3016H23.1477V59.718Z" fill="white"/>
<path d="M23.1477 62.4648H31.8745V61.0512H23.1477V62.4648Z" fill="white"/>
<path d="M23.1477 65.2087H31.8745V63.7951H23.1477V65.2087Z" fill="white"/>
<path d="M31.8757 66.5415H23.1489V67.9579H31.8757V66.5415Z" fill="white"/>
<path d="M23.1477 70.7017H31.8745V69.2852H23.1477V70.7017Z" fill="white"/>
<path d="M23.1477 73.4456H31.8745V72.0291H23.1477V73.4456Z" fill="white"/>
<path d="M23.1477 76.1921H31.8745V74.7757H23.1477V76.1921Z" fill="white"/>
<path d="M23.1477 78.8025H31.8745V77.3861H23.1477V78.8025Z" fill="white"/>
<path d="M23.1477 81.4099H31.8745V79.9935H23.1477V81.4099Z" fill="white"/>
<path d="M23.1477 84.0203H31.8745V82.6038H23.1477V84.0203Z" fill="white"/>
<path d="M23.1477 86.6277H31.8745V85.214H23.1477V86.6277Z" fill="white"/>
<path d="M9.03748 60.2886H18.2568V58.8749H9.03748V60.2886Z" fill="white"/>
<path d="M9.03748 63.0352H18.2568V61.6187H9.03748V63.0352Z" fill="white"/>
<path d="M9.03748 65.7817H18.2568V64.3681H9.03748V65.7817Z" fill="white"/>
<path d="M9.03748 68.5256H18.2568V67.1092H9.03748V68.5256Z" fill="white"/>
<path d="M9.03748 71.2722H18.2568V69.8558H9.03748V71.2722Z" fill="white"/>
<path d="M9.03748 74.0188H18.2568V72.6051H9.03748V74.0188Z" fill="white"/>
<path d="M9.03748 76.7627H18.2568V75.349H9.03748V76.7627Z" fill="white"/>
<path d="M9.03748 79.5093H18.2568V78.0928H9.03748V79.5093Z" fill="white"/>
<path d="M9.03748 81.9666H18.2568V80.5501H9.03748V81.9666Z" fill="white"/>
<path d="M9.03748 84.4265H18.2568V83.0101H9.03748V84.4265Z" fill="white"/>
<path d="M9.03748 86.8809H18.2568V85.4644H9.03748V86.8809Z" fill="white"/>
<path d="M64.5932 71.8398H67.5234V70.4735H64.5932V71.8398Z" fill="white"/>
<path d="M64.5932 74.4919H67.5234V73.1256H64.5932V74.4919Z" fill="white"/>
<path d="M64.5932 77.1411H67.5234V75.7748H64.5932V77.1411Z" fill="white"/>
<path d="M64.5932 79.7932H67.5234V78.4269H64.5932V79.7932Z" fill="white"/>
<path d="M64.5932 82.448H67.5234V81.0817H64.5932V82.448Z" fill="white"/>
<path d="M64.5932 85.0972H67.5234V83.7308H64.5932V85.0972Z" fill="white"/>
<path d="M64.5932 87.749H67.5234V86.3827H64.5932V87.749Z" fill="white"/>
<path d="M64.5932 90.4011H67.5234V89.0348H64.5932V90.4011Z" fill="white"/>
<path d="M60.6054 71.8398H63.5356V70.4735H60.6054V71.8398Z" fill="white"/>
<path d="M60.6054 74.4919H63.5356V73.1256H60.6054V74.4919Z" fill="white"/>
<path d="M60.6054 77.1411H63.5356V75.7748H60.6054V77.1411Z" fill="white"/>
<path d="M60.6054 79.793H63.5356V78.4266H60.6054V79.793Z" fill="white"/>
<path d="M60.6054 82.448H63.5356V81.0817H60.6054V82.448Z" fill="white"/>
<path d="M60.6054 85.0972H63.5356V83.7308H60.6054V85.0972Z" fill="white"/>
<path d="M60.6054 87.7493H63.5356V86.3829H60.6054V87.7493Z" fill="white"/>
<path d="M60.6054 90.4011H63.5356V89.0348H60.6054V90.4011Z" fill="white"/>
<path d="M83.6636 45.8152H86.7163V43.6613H83.6636V45.8152Z" fill="white"/>
<path d="M79.1109 45.8152H82.1636V43.6613H79.1109V45.8152Z" fill="white"/>
<path d="M83.6636 48.9792H86.7163V46.8254H83.6636V48.9792Z" fill="white"/>
<path d="M79.1109 48.9792H82.1636V46.8254H79.1109V48.9792Z" fill="white"/>
<path d="M83.6636 52.1462H86.7163V49.9924H83.6636V52.1462Z" fill="white"/>
<path d="M79.1109 52.1462H82.1636V49.9924H79.1109V52.1462Z" fill="white"/>
<path d="M83.6636 55.313H86.7163V53.1591H83.6636V55.313Z" fill="white"/>
<path d="M79.1109 55.313H82.1636V53.1591H79.1109V55.313Z" fill="white"/>
<path d="M83.6636 58.4771H86.7163V56.3232H83.6636V58.4771Z" fill="white"/>
<path d="M79.1109 58.4771H82.1636V56.3232H79.1109V58.4771Z" fill="white"/>
<path d="M83.6636 61.6438H86.7163V59.4899H83.6636V61.6438Z" fill="white"/>
<path d="M79.1109 61.6438H82.1636V59.4899H79.1109V61.6438Z" fill="white"/>
<path d="M83.6636 64.8108H86.7163V62.6569H83.6636V64.8108Z" fill="white"/>
<path d="M79.1109 64.8108H82.1636V62.6569H79.1109V64.8108Z" fill="white"/>
<path d="M83.6636 67.9746H86.7163V65.8207H83.6636V67.9746Z" fill="white"/>
<path d="M79.1109 67.9746H82.1636V65.8207H79.1109V67.9746Z" fill="white"/>
<path d="M73.4702 69.124H76.5229V66.9702H73.4702V69.124Z" fill="white"/>
<path d="M73.4702 72.2881H76.5229V70.1342H73.4702V72.2881Z" fill="white"/>
<path d="M73.4702 75.4548H76.5229V73.301H73.4702V75.4548Z" fill="white"/>
<path d="M73.4702 78.6216H76.5229V76.4677H73.4702V78.6216Z" fill="white"/>
<path d="M73.4702 81.7856H76.5229V79.6318H73.4702V81.7856Z" fill="white"/>
<path d="M73.4702 84.9524H76.5229V82.7985H73.4702V84.9524Z" fill="white"/>
<path d="M83.6636 71.1025H86.7163V68.9487H83.6636V71.1025Z" fill="white"/>
<path d="M79.1109 71.1025H82.1636V68.9487H79.1109V71.1025Z" fill="white"/>
<path d="M73.4702 88.0776H76.5229V85.9238H73.4702V88.0776Z" fill="white"/>
<path d="M83.6636 74.2305H86.7163V72.0766H83.6636V74.2305Z" fill="white"/>
<path d="M79.1109 74.2305H82.1636V72.0766H79.1109V74.2305Z" fill="white"/>
<path d="M73.4702 91.2083H76.5229V89.0544H73.4702V91.2083Z" fill="white"/>
<path d="M83.6636 77.3582H86.7163V75.2043H83.6636V77.3582Z" fill="white"/>
<path d="M79.1109 77.3582H82.1636V75.2043H79.1109V77.3582Z" fill="white"/>
<path d="M73.4702 94.3359H76.5229V92.1821H73.4702V94.3359Z" fill="white"/>
<path d="M83.6636 80.4861H86.7163V78.3322H83.6636V80.4861Z" fill="white"/>
<path d="M79.1109 80.4861H82.1636V78.3322H79.1109V80.4861Z" fill="white"/>
<path d="M83.6636 83.614H86.7163V81.4601H83.6636V83.614Z" fill="white"/>
<path d="M79.1109 83.6138H82.1636V81.4599H79.1109V83.6138Z" fill="white"/>
<path d="M45.8863 65.6008H47.5337V63.7141H45.8863V65.6008Z" fill="white"/>
<path d="M43.0298 65.6008H44.6772V63.7141H43.0298V65.6008Z" fill="white"/>
<path d="M45.8863 68.4395H47.5337V66.5527H45.8863V68.4395Z" fill="white"/>
<path d="M43.0298 68.4395H44.6772V66.5527H43.0298V68.4395Z" fill="white"/>
<path d="M45.8863 71.2808H47.5337V69.394H45.8863V71.2808Z" fill="white"/>
<path d="M43.0298 71.2805H44.6772V69.3938H43.0298V71.2805Z" fill="white"/>
<path d="M45.8863 74.1218H47.5337V72.2351H45.8863V74.1218Z" fill="white"/>
<path d="M43.0298 74.1218H44.6772V72.2351H43.0298V74.1218Z" fill="white"/>
<path d="M45.8863 77.0327H47.5337V75.146H45.8863V77.0327Z" fill="white"/>
<path d="M43.0298 77.0327H44.6772V75.146H43.0298V77.0327Z" fill="white"/>
<path d="M45.8863 79.9407H47.5337V78.0539H45.8863V79.9407Z" fill="white"/>
<path d="M43.0298 79.9407H44.6772V78.0539H43.0298V79.9407Z" fill="white"/>
<path d="M45.8863 82.8513H47.5337V80.9646H45.8863V82.8513Z" fill="white"/>
<path d="M43.0298 82.8513H44.6772V80.9646H43.0298V82.8513Z" fill="white"/>
<path d="M45.8863 85.7622H47.5337V83.8755H45.8863V85.7622Z" fill="white"/>
<path d="M43.0298 85.7622H44.6772V83.8755H43.0298V85.7622Z" fill="white"/>
<path d="M45.8863 88.7036H47.5337V86.8169H45.8863V88.7036Z" fill="white"/>
<path d="M43.0298 88.7036H44.6772V86.8169H43.0298V88.7036Z" fill="white"/>
<path d="M45.8863 91.645H47.5337V89.7583H45.8863V91.645Z" fill="white"/>
<path d="M43.0298 91.645H44.6772V89.7583H43.0298V91.645Z" fill="white"/>
<path d="M45.8863 94.5864H47.5337V92.6997H45.8863V94.5864Z" fill="white"/>
<path d="M43.0298 94.5864H44.6772V92.6997H43.0298V94.5864Z" fill="white"/>
<path d="M5.62701 49.2661H7.27441V47.0427H5.62701V49.2661Z" fill="white"/>
<path d="M2.76631 49.2661H4.4165V47.0427H2.76631V49.2661Z" fill="white"/>
<path d="M5.62701 52.6138H7.27441V50.3903H5.62701V52.6138Z" fill="white"/>
<path d="M2.76631 52.6138H4.4165V50.3903H2.76631V52.6138Z" fill="white"/>
<path d="M5.62701 55.9585H7.27441V53.7351H5.62701V55.9585Z" fill="white"/>
<path d="M2.76631 55.9585H4.4165V53.7351H2.76631V55.9585Z" fill="white"/>
<path d="M5.62701 59.3035H7.27441V57.08H5.62701V59.3035Z" fill="white"/>
<path d="M2.76631 59.3035H4.4165V57.08H2.76631V59.3035Z" fill="white"/>
<path d="M5.62701 62.7346H7.27441V60.5112H5.62701V62.7346Z" fill="white"/>
<path d="M2.76631 62.7346H4.4165V60.5112H2.76631V62.7346Z" fill="white"/>
<path d="M5.62701 66.1602H7.27441V63.9367H5.62701V66.1602Z" fill="white"/>
<path d="M2.76631 66.1602H4.4165V63.9367H2.76631V66.1602Z" fill="white"/>
<path d="M5.62701 69.5913H7.27441V67.3679H5.62701V69.5913Z" fill="white"/>
<path d="M2.76631 69.5913H4.4165V67.3679H2.76631V69.5913Z" fill="white"/>
<path d="M5.62701 73.0198H7.27441V70.7963H5.62701V73.0198Z" fill="white"/>
<path d="M2.76631 73.0198H4.4165V70.7963H2.76631V73.0198Z" fill="white"/>
<path d="M5.62701 76.4844H7.27441V74.2609H5.62701V76.4844Z" fill="white"/>
<path d="M2.76631 76.4844H4.4165V74.2609H2.76631V76.4844Z" fill="white"/>
<path d="M5.62701 79.9517H7.27441V77.7282H5.62701V79.9517Z" fill="white"/>
<path d="M2.76631 79.9517H4.4165V77.7282H2.76631V79.9517Z" fill="white"/>
<path d="M5.62701 83.4163H7.27441V81.1928H5.62701V83.4163Z" fill="white"/>
<path d="M2.76631 83.4163H4.4165V81.1928H2.76631V83.4163Z" fill="white"/>
<path d="M5.62701 86.8809H7.27441V84.6574H5.62701V86.8809Z" fill="white"/>
<path d="M2.76631 86.8809H4.4165V84.6574H2.76631V86.8809Z" fill="white"/>
<path d="M39.7779 65.6008H41.4253V63.7141H39.7779V65.6008Z" fill="white"/>
<path d="M36.9185 65.6008H38.5659V63.7141H36.9185V65.6008Z" fill="white"/>
<path d="M39.7779 62.6873H41.4253V60.8005H39.7779V62.6873Z" fill="white"/>
<path d="M36.9185 62.6875H38.5659V60.8008H36.9185V62.6875Z" fill="white"/>
<path d="M39.7779 59.7766H41.4253V57.8899H39.7779V59.7766Z" fill="white"/>
<path d="M36.9185 59.7764H38.5659V57.8896H36.9185V59.7764Z" fill="white"/>
<path d="M39.7779 68.4395H41.4253V66.5527H39.7779V68.4395Z" fill="white"/>
<path d="M36.9185 68.4395H38.5659V66.5527H36.9185V68.4395Z" fill="white"/>
<path d="M39.7779 71.2805H41.4253V69.3938H39.7779V71.2805Z" fill="white"/>
<path d="M36.9185 71.2808H38.5659V69.394H36.9185V71.2808Z" fill="white"/>
<path d="M39.7779 74.1218H41.4253V72.2351H39.7779V74.1218Z" fill="white"/>
<path d="M36.9185 74.1218H38.5659V72.2351H36.9185V74.1218Z" fill="white"/>
<path d="M39.7779 77.0327H41.4253V75.146H39.7779V77.0327Z" fill="white"/>
<path d="M36.9185 77.0327H38.5659V75.146H36.9185V77.0327Z" fill="white"/>
<path d="M39.7779 79.9407H41.4253V78.0539H39.7779V79.9407Z" fill="white"/>
<path d="M36.9185 79.9407H38.5659V78.0539H36.9185V79.9407Z" fill="white"/>
<path d="M39.7779 82.8513H41.4253V80.9646H39.7779V82.8513Z" fill="white"/>
<path d="M36.9185 82.8513H38.5659V80.9646H36.9185V82.8513Z" fill="white"/>
<path d="M39.7779 85.7622H41.4253V83.8755H39.7779V85.7622Z" fill="white"/>
<path d="M36.9185 85.7622H38.5659V83.8755H36.9185V85.7622Z" fill="white"/>
<path d="M39.7779 88.7036H41.4253V86.8169H39.7779V88.7036Z" fill="white"/>
<path d="M36.9185 88.7036H38.5659V86.8169H36.9185V88.7036Z" fill="white"/>
<path d="M39.7779 91.645H41.4253V89.7583H39.7779V91.645Z" fill="white"/>
<path d="M36.9185 91.645H38.5659V89.7583H36.9185V91.645Z" fill="white"/>
<path d="M39.7779 94.5864H41.4253V92.6997H39.7779V94.5864Z" fill="white"/>
<path d="M36.9185 94.5864H38.5659V92.6997H36.9185V94.5864Z" fill="white"/>
<path d="M58.474 121.19C90.4889 121.19 116.442 118.444 116.442 115.057C116.442 111.669 90.4889 108.923 58.474 108.923C26.4591 108.923 0.505859 111.669 0.505859 115.057C0.505859 118.444 26.4591 121.19 58.474 121.19Z" fill="#EBEBEB"/>
<path d="M116.53 97.1714H0.413086V99.1945H116.53V97.1714Z" fill="#C7C7C7"/>
<path d="M8.55565 97.1714C8.73743 97.8335 8.73743 98.5324 8.55565 99.1945C8.45755 98.866 8.41062 98.5243 8.41651 98.1815C8.41211 97.8398 8.45901 97.4992 8.55565 97.1714Z" fill="#263238"/>
<path d="M17.628 97.1714C17.7247 97.4992 17.7716 97.8398 17.7672 98.1815C17.7731 98.5243 17.7261 98.866 17.628 99.1945C17.4463 98.5324 17.4463 97.8335 17.628 97.1714Z" fill="#263238"/>
<path d="M26.7065 97.1714C26.8883 97.8335 26.8883 98.5324 26.7065 99.1945C26.6084 98.866 26.5615 98.5243 26.5674 98.1815C26.563 97.8398 26.6099 97.4992 26.7065 97.1714Z" fill="#263238"/>
<path d="M35.7818 97.1714C35.8785 97.4992 35.9254 97.8398 35.921 98.1815C35.9269 98.5243 35.8799 98.866 35.7818 99.1945C35.6001 98.5324 35.6001 97.8335 35.7818 97.1714Z" fill="#263238"/>
<path d="M44.8603 97.1714C45.0421 97.8335 45.0421 98.5324 44.8603 99.1945C44.7622 98.866 44.7153 98.5243 44.7212 98.1815C44.7168 97.8398 44.7637 97.4992 44.8603 97.1714Z" fill="#263238"/>
<path d="M53.9342 97.1714C54.0308 97.4992 54.0777 97.8398 54.0733 98.1815C54.0792 98.5243 54.0323 98.866 53.9342 99.1945C53.7524 98.5324 53.7524 97.8335 53.9342 97.1714Z" fill="#263238"/>
<path d="M63.0112 97.1714C63.193 97.8335 63.193 98.5324 63.0112 99.1945C62.9131 98.866 62.8662 98.5243 62.8721 98.1815C62.8677 97.8398 62.9146 97.4992 63.0112 97.1714Z" fill="#263238"/>
<path d="M72.0851 97.1714C72.1817 97.4992 72.2286 97.8398 72.2242 98.1815C72.2301 98.5243 72.1832 98.866 72.0851 99.1945C71.9033 98.5324 71.9033 97.8335 72.0851 97.1714Z" fill="#263238"/>
<path d="M81.1636 97.1714C81.3453 97.8335 81.3453 98.5324 81.1636 99.1945C81.0655 98.866 81.0185 98.5243 81.0244 98.1815C81.02 97.8398 81.0669 97.4992 81.1636 97.1714Z" fill="#263238"/>
<path d="M90.2389 97.1714C90.3355 97.4992 90.3824 97.8398 90.378 98.1815C90.3839 98.5243 90.337 98.866 90.2389 99.1945C90.0571 98.5324 90.0571 97.8335 90.2389 97.1714Z" fill="#263238"/>
<path d="M99.3174 97.1714C99.4991 97.8335 99.4991 98.5324 99.3174 99.1945C99.2193 98.866 99.1723 98.5243 99.1782 98.1815C99.1738 97.8398 99.2207 97.4992 99.3174 97.1714Z" fill="#263238"/>
<path d="M108.391 97.1714C108.488 97.4992 108.535 97.8398 108.53 98.1815C108.536 98.5243 108.489 98.866 108.391 99.1945C108.209 98.5324 108.209 97.8335 108.391 97.1714Z" fill="#263238"/>
<path d="M0.413086 99.1946L14.9281 99.1278L29.4431 99.1027L58.4731 99.0554L87.5031 99.1027L102.018 99.125L116.533 99.1946L102.018 99.2614L87.5031 99.2864L58.4731 99.3337L29.4431 99.2864L14.9281 99.2614L0.413086 99.1946Z" fill="#263238"/>
<path d="M105.967 78.9639C107.495 75.825 110.169 74.2109 113.18 75.1014C116.191 75.9919 116.659 80.1939 114.41 81.2542C112.162 82.3144 109.913 79.2172 108.725 78.5827C107.537 77.9482 105.967 78.9639 105.967 78.9639Z" fill="#34A1D3"/>
<path d="M104.489 87.3206C104.489 86.9421 104.511 86.5637 104.525 86.1852C104.553 85.4283 104.578 84.6742 104.606 83.9172C104.656 82.5259 104.806 81.179 105.38 79.9045C105.886 78.7531 106.73 77.7827 107.801 77.1217C108.198 76.8783 108.627 76.6911 109.075 76.5651C109.481 76.1546 109.997 75.8705 110.561 75.747C111.258 75.6056 111.975 75.5877 112.679 75.6941C112.704 75.6941 112.704 75.7359 112.679 75.7331C112.008 75.6486 111.327 75.6978 110.675 75.8778C110.395 75.9532 110.123 76.0586 109.865 76.1922C109.703 76.2787 109.548 76.3773 109.401 76.4872C110.231 76.303 111.098 76.3828 111.88 76.7154C112.045 76.6794 112.213 76.6654 112.381 76.6737C112.601 76.6804 112.819 76.7112 113.032 76.7655C113.469 76.8889 113.886 77.0715 114.273 77.3081C114.296 77.3081 114.273 77.3527 114.251 77.3415C113.871 77.1345 113.465 76.981 113.043 76.8852C112.838 76.8392 112.63 76.8085 112.42 76.7933C112.306 76.7933 112.189 76.7933 112.075 76.7933C112.934 77.192 113.624 77.8821 114.023 78.7413C114.023 78.7635 113.998 78.783 113.987 78.7607C113.75 78.2633 113.404 77.8259 112.974 77.4813C112.544 77.1368 112.042 76.8939 111.504 76.7711C111.438 76.7544 111.371 76.7432 111.304 76.7321C111.32 76.8326 111.33 76.9338 111.335 77.0354C111.357 77.1885 111.382 77.3387 111.413 77.4918C111.476 77.8024 111.558 78.1091 111.658 78.4101C111.759 78.7146 111.881 79.0121 112.022 79.3006C112.157 79.6063 112.328 79.8949 112.531 80.1605C112.534 80.1624 112.535 80.1648 112.537 80.1675C112.538 80.1702 112.538 80.1731 112.538 80.1761C112.538 80.179 112.537 80.1819 112.536 80.1845C112.535 80.1871 112.533 80.1894 112.53 80.1911C112.528 80.1928 112.525 80.194 112.522 80.1945C112.519 80.195 112.516 80.1949 112.513 80.1941C112.511 80.1933 112.508 80.1918 112.506 80.1899C112.504 80.1879 112.502 80.1855 112.501 80.1827C112.32 79.9045 112.108 79.6262 111.944 79.3479C111.784 79.0673 111.648 78.7741 111.535 78.4713C111.417 78.1657 111.324 77.8512 111.257 77.5308C111.226 77.361 111.198 77.1913 111.179 77.0187C111.158 76.9162 111.152 76.8113 111.159 76.7071C110.806 76.6539 110.446 76.6464 110.091 76.6848C110.224 77.4334 110.369 78.2153 110.787 78.8665C110.8 78.886 110.764 78.9082 110.753 78.886C110.556 78.5412 110.383 78.1832 110.236 77.8146C110.097 77.4576 110.01 77.0829 109.977 76.7015C109.355 76.7851 108.754 76.9862 108.207 77.2942C107.179 77.8943 106.358 78.793 105.853 79.8711C105.325 81.0324 105.032 82.2863 104.99 83.561C104.89 85.1667 104.868 86.7807 104.712 88.3808C104.712 88.4838 104.534 88.52 104.514 88.4031C104.47 88.0439 104.462 87.6814 104.489 87.3206Z" fill="#263238"/>
<path d="M108.021 76.8627C108.121 76.7405 108.237 76.632 108.366 76.5399C108.491 76.437 108.619 76.3368 108.755 76.245C109.019 76.0638 109.312 75.9283 109.621 75.8442C109.646 75.8442 109.657 75.8776 109.621 75.8832C109.309 75.9614 109.017 76.1046 108.764 76.3034C108.636 76.398 108.513 76.4982 108.394 76.6012C108.289 76.7136 108.171 76.8136 108.043 76.8989C108.039 76.8989 108.035 76.8978 108.031 76.8957C108.027 76.8936 108.024 76.8906 108.022 76.887C108.02 76.8834 108.018 76.8793 108.018 76.875C108.018 76.8708 108.019 76.8665 108.021 76.8627Z" fill="#263238"/>
<path d="M112.893 77.9955C113.145 78.2902 113.379 78.5996 113.594 78.9222C113.802 79.2491 113.976 79.5958 114.114 79.9574C114.114 79.9574 114.114 79.9741 114.098 79.9574C113.747 79.2717 113.335 78.6196 112.865 78.0094C112.848 77.9955 112.876 77.9788 112.893 77.9955Z" fill="#263238"/>
<path d="M104.704 79.0417C104.704 79.0417 102.542 76.3229 98.3675 77.2857C94.3993 78.2013 92.5682 85.4754 96.5782 86.3465C100.588 87.2175 99.8786 80.4998 101.34 79.3422C102.414 78.5046 103.953 78.6855 104.704 79.0417Z" fill="#34A1D3"/>
<path d="M95.143 81.2596C95.4147 81.021 95.702 80.8007 96.0028 80.6001C96.2867 80.406 96.5956 80.2515 96.9212 80.1409C97.0838 79.8944 97.2652 79.6609 97.4638 79.4425C97.8322 79.0462 98.2581 78.7076 98.7272 78.4379H98.602C98.3804 78.4267 98.1584 78.4267 97.9369 78.4379C97.4923 78.4667 97.0567 78.576 96.6512 78.7607C96.6262 78.7607 96.6095 78.7328 96.6318 78.7245C97.0451 78.5462 97.4773 78.4155 97.9202 78.3349C98.1351 78.2967 98.3531 78.2781 98.5714 78.2792C98.6882 78.2792 98.8051 78.2792 98.922 78.3015H98.9888C99.3716 78.1094 99.7749 77.961 100.191 77.859L100.077 77.8284C99.8722 77.7826 99.665 77.7492 99.4563 77.7283C99.0407 77.6805 98.6207 77.687 98.2068 77.7477C98.2026 77.7461 98.1989 77.7433 98.1963 77.7396C98.1937 77.7358 98.1923 77.7314 98.1923 77.7269C98.1923 77.7223 98.1937 77.7179 98.1963 77.7141C98.1989 77.7104 98.2026 77.7076 98.2068 77.706C98.625 77.656 99.0466 77.6392 99.4674 77.6559C99.8217 77.6669 100.174 77.7125 100.519 77.7923C100.77 77.7467 101.024 77.7179 101.279 77.706C102.734 77.6448 104.321 78.1874 105.217 79.3757C106.113 80.5639 106.288 82.1584 106.447 83.6138C106.694 85.6271 106.75 87.6593 106.614 89.6831C106.614 89.8027 106.436 89.7805 106.433 89.6831C106.377 87.9661 106.316 86.2519 106.154 84.5405C106.079 83.7502 105.996 82.9571 105.862 82.1724C105.767 81.4987 105.574 80.8425 105.289 80.2244C104.977 79.5924 104.487 79.066 103.878 78.7106C103.267 78.3601 102.585 78.1501 101.883 78.0956C101.253 78.0448 100.619 78.1042 100.01 78.2709C100.03 78.3935 100.03 78.5184 100.01 78.641C99.9978 78.7963 99.967 78.9495 99.9182 79.0974C99.8729 79.2377 99.8152 79.3737 99.7457 79.5037C99.6678 79.6456 99.5704 79.7819 99.4841 79.91C99.4702 79.9322 99.4368 79.91 99.4507 79.8877C99.6242 79.6393 99.7359 79.3531 99.7763 79.0529C99.8015 78.9121 99.8183 78.7699 99.8264 78.6271C99.8264 78.5213 99.8264 78.4128 99.8264 78.3043C99.1642 78.5089 98.546 78.8355 98.0037 79.2671C97.9035 79.3478 97.8033 79.4341 97.7087 79.5231C97.8463 79.6505 97.9653 79.7967 98.0621 79.9573C98.2057 80.1666 98.3305 80.3882 98.435 80.6196C98.6281 81.0842 98.7573 81.5728 98.819 82.0722C98.819 82.0972 98.7829 82.1028 98.7801 82.0722C98.704 81.5898 98.5439 81.1245 98.307 80.6975C98.1966 80.4858 98.073 80.2814 97.9369 80.0853C97.8645 79.9851 97.7922 79.8849 97.717 79.7903C97.6753 79.7374 97.6308 79.6845 97.5918 79.6289C97.1012 80.1105 96.7007 80.676 96.4091 81.2986C96.607 81.5055 96.7713 81.7421 96.8961 81.9998C97.0459 82.2688 97.177 82.5477 97.2885 82.8347C97.4903 83.3913 97.6567 83.9601 97.7866 84.5377C97.7866 84.5403 97.7861 84.5428 97.7851 84.5452C97.7841 84.5475 97.7827 84.5497 97.7809 84.5515C97.7791 84.5533 97.777 84.5547 97.7746 84.5557C97.7722 84.5567 97.7697 84.5572 97.7671 84.5572C97.7646 84.5572 97.762 84.5567 97.7597 84.5557C97.7573 84.5547 97.7552 84.5533 97.7534 84.5515C97.7515 84.5497 97.7501 84.5475 97.7491 84.5452C97.7482 84.5428 97.7477 84.5403 97.7477 84.5377C97.6197 83.9589 97.4206 83.398 97.1549 82.8681C97.0297 82.6065 96.8989 82.3505 96.7598 82.0944C96.6154 81.859 96.4844 81.6156 96.3674 81.3653C96.0893 81.9746 95.9279 82.6306 95.8915 83.2994C95.8915 83.3045 95.8895 83.3095 95.8858 83.3132C95.8822 83.3168 95.8772 83.3189 95.8721 83.3189C95.8669 83.3189 95.8619 83.3168 95.8583 83.3132C95.8546 83.3095 95.8526 83.3045 95.8526 83.2994C95.9304 82.2515 96.2505 81.236 96.7876 80.3329C96.5344 80.4415 96.2783 80.5472 96.0307 80.6808C95.7165 80.8462 95.4248 81.051 95.1625 81.2902C95.1513 81.3069 95.1235 81.2763 95.143 81.2596Z" fill="#263238"/>
<path d="M98.2045 81.4126C98.3297 81.8245 98.4827 82.2252 98.5996 82.6426C98.716 83.0416 98.7787 83.4543 98.7861 83.8698H98.7666C98.6542 83.0356 98.4537 82.2156 98.1683 81.4237C98.1668 81.4212 98.1658 81.4184 98.1656 81.4154C98.1653 81.4125 98.1658 81.4095 98.1668 81.4068C98.1679 81.404 98.1696 81.4015 98.1717 81.3995C98.1739 81.3975 98.1765 81.396 98.1793 81.3952C98.1821 81.3943 98.1851 81.3941 98.188 81.3945C98.1909 81.395 98.1937 81.3961 98.1961 81.3978C98.1985 81.3994 98.2005 81.4017 98.202 81.4042C98.2034 81.4068 98.2043 81.4097 98.2045 81.4126Z" fill="#263238"/>
<path d="M95.5605 80.3914C95.7252 80.2326 95.9128 80.0994 96.1171 79.9963C96.3236 79.9021 96.5377 79.8257 96.7571 79.7681C96.7794 79.7681 96.7878 79.8042 96.7571 79.8098C96.5413 79.8649 96.3342 79.9502 96.1421 80.063C95.9485 80.1655 95.7625 80.2817 95.5856 80.4109L95.5605 80.3914Z" fill="#263238"/>
<path d="M102.648 75.4102C102.648 75.4102 102.25 70.5264 98.6181 68.9458C95.5876 67.624 93.8512 71.0301 95.9939 73.12C97.7276 74.8008 100.508 74.0411 102.648 75.4102Z" fill="#34A1D3"/>
<path d="M96.667 69.892C97.2194 70.1144 97.7584 70.369 98.281 70.6544C98.7148 70.9074 99.133 71.1861 99.5333 71.4893C99.4748 71.3668 99.422 71.236 99.3607 71.1164C99.2661 70.9309 99.1631 70.7453 99.0518 70.5598C98.8286 70.1904 98.5604 69.8501 98.2532 69.5469C98.2337 69.5302 98.2532 69.5024 98.281 69.5191C98.5843 69.8234 98.8634 70.1509 99.1158 70.4986C99.2401 70.6777 99.3544 70.8635 99.4581 71.0552C99.5657 71.2282 99.6481 71.4155 99.703 71.6117L99.7448 71.6395C100.378 72.1463 100.958 72.715 101.478 73.337C101.478 73.2897 101.456 73.2396 101.445 73.1979C101.375 72.9586 101.303 72.722 101.225 72.4883C101.07 71.9865 100.849 71.5074 100.568 71.0635C100.555 71.0412 100.591 71.0218 100.605 71.044C100.888 71.4906 101.142 71.9554 101.364 72.4354C101.464 72.6696 101.548 72.9104 101.615 73.1562C101.668 73.3166 101.707 73.4814 101.732 73.6487C101.89 73.8491 102.046 74.0494 102.194 74.2581C103.752 76.4844 104.534 79.1614 104.72 81.8468C104.775 82.647 104.789 83.4495 104.762 84.2511C104.756 85.0598 104.685 85.8667 104.548 86.6638C104.548 86.7167 104.459 86.7 104.462 86.6499C104.478 85.9458 104.553 85.2418 104.565 84.5377C104.576 83.8337 104.565 83.1213 104.498 82.4173C104.385 81.012 104.122 79.6228 103.713 78.2737C103.291 76.8921 102.67 75.5796 101.868 74.3778C101.715 74.3472 101.565 74.3054 101.414 74.2693L100.858 74.1246C100.51 74.035 100.171 73.911 99.8477 73.7545C99.8429 73.7519 99.8393 73.7475 99.8378 73.7423C99.8362 73.7371 99.8368 73.7314 99.8394 73.7266C99.842 73.7218 99.8463 73.7183 99.8516 73.7167C99.8568 73.7151 99.8624 73.7157 99.8672 73.7183C100.187 73.8931 100.534 74.0135 100.894 74.0745C101.172 74.1301 101.473 74.1663 101.759 74.2331C101.5 73.8482 101.222 73.4767 100.925 73.12C100.233 73.182 99.5351 73.1303 98.8598 72.9669C98.5004 72.8802 98.1471 72.7696 97.8024 72.6358C97.4406 72.4966 97.0955 72.3158 96.7366 72.1683C96.7087 72.1544 96.7366 72.1154 96.7533 72.1321C97.4033 72.4859 98.1125 72.7179 98.8459 72.8167C99.4904 72.9184 100.141 72.9724 100.794 72.9781C100.535 72.6831 100.268 72.3937 99.9841 72.1237C99.0372 71.1699 97.8991 70.4273 96.6447 69.9448C96.6308 69.9254 96.642 69.8808 96.667 69.892Z" fill="#263238"/>
<path d="M99.6209 69.9058C99.7847 70.1119 99.9335 70.3295 100.066 70.557C100.202 70.7958 100.31 71.0499 100.386 71.3139C100.386 71.3139 100.386 71.3278 100.372 71.3139C100.25 71.0746 100.15 70.8269 100.027 70.5876C99.9071 70.3525 99.7615 70.1314 99.593 69.9281C99.5763 69.9253 99.6042 69.8863 99.6209 69.9058Z" fill="#263238"/>
<path d="M96.2462 71.531C96.483 71.661 96.7331 71.7655 96.992 71.8427C97.2404 71.9243 97.4931 71.9922 97.7489 72.0458V72.0681C97.4819 72.0387 97.2189 71.9809 96.9642 71.8955C96.7126 71.8006 96.4673 71.69 96.2295 71.5644C96.2045 71.5532 96.224 71.5171 96.2462 71.531Z" fill="#263238"/>
<path d="M105.469 74.5309C105.491 74.7424 106.026 72.7582 109.087 70.9967C111.87 69.3994 115.209 65.2392 112.471 62.6122C110.264 60.4889 104.451 65.1139 105.469 74.5309Z" fill="#34A1D3"/>
<path d="M103.356 85.9042C103.4 83.8391 103.563 81.7783 103.843 79.732C104.085 77.8511 104.52 76.0001 105.14 74.2081C105.368 73.5625 105.63 72.9281 105.914 72.3047C105.893 72.0612 105.893 71.8164 105.914 71.5728C105.928 71.2612 105.958 70.9495 105.986 70.6378C106.014 70.3262 106.047 70.0145 106.083 69.7028C106.12 69.3911 106.186 69.0822 106.2 68.7734C106.2 68.7708 106.201 68.7683 106.202 68.7659C106.203 68.7635 106.204 68.7614 106.206 68.7596C106.208 68.7578 106.21 68.7563 106.212 68.7554C106.215 68.7544 106.217 68.7539 106.22 68.7539C106.222 68.7539 106.225 68.7544 106.227 68.7554C106.23 68.7563 106.232 68.7578 106.234 68.7596C106.235 68.7614 106.237 68.7635 106.238 68.7659C106.239 68.7683 106.239 68.7708 106.239 68.7734C106.177 69.0993 106.14 69.4296 106.128 69.7612C106.106 70.0618 106.086 70.3623 106.078 70.6657C106.07 70.969 106.078 71.2695 106.078 71.5701C106.078 71.6814 106.078 71.7955 106.078 71.9123C106.356 71.3029 106.676 70.7018 107.01 70.1174C106.801 68.8457 107.071 67.5155 107.333 66.2689C107.333 66.2438 107.375 66.2689 107.369 66.2828C107.243 66.9321 107.176 67.5915 107.169 68.253C107.169 68.7761 107.169 69.2993 107.183 69.8225L107.405 69.4468C107.803 68.7984 108.24 68.1611 108.68 67.5434C108.644 67.2412 108.654 66.9353 108.71 66.6362C108.761 66.3011 108.835 65.97 108.933 65.6455C109.03 65.3198 109.143 64.9994 109.273 64.6855C109.406 64.3627 109.581 64.0593 109.709 63.7337C109.709 63.7087 109.762 63.7337 109.746 63.7504C109.584 64.0569 109.455 64.3796 109.362 64.7133C109.26 65.0265 109.177 65.3452 109.111 65.6678C109.047 65.9906 108.994 66.3162 108.947 66.6418C108.919 66.8588 108.9 67.0814 108.861 67.2985C109.518 66.4145 110.237 65.5776 111.012 64.794C111.028 64.7745 111.056 64.794 111.037 64.8218C109.872 66.1454 108.832 67.5745 107.931 69.0906L107.834 69.2603C108.001 69.1546 108.196 69.0711 108.354 68.9821C108.652 68.8151 108.95 68.6509 109.25 68.4895C109.551 68.3281 109.832 68.1751 110.119 68.0137C110.269 67.933 110.416 67.8467 110.567 67.7688C110.747 67.6902 110.921 67.5971 111.087 67.4905C111.109 67.4738 111.134 67.51 111.109 67.5239C110.814 67.6853 110.553 67.9274 110.274 68.1083C109.996 68.2892 109.696 68.4672 109.398 68.6342C108.841 68.9375 108.26 69.1574 107.728 69.4691C107.355 70.123 107.013 70.7909 106.696 71.4727C107.021 71.264 107.355 71.0664 107.692 70.8771C107.909 70.7547 108.129 70.635 108.349 70.5182C108.568 70.4167 108.775 70.2917 108.966 70.1453C108.986 70.1286 109.014 70.1453 108.994 70.1731C108.636 70.4939 108.24 70.7696 107.814 70.994C107.419 71.225 107.021 71.4476 106.612 71.648C106.284 72.3659 105.986 73.1006 105.724 73.8436C104.431 77.5029 103.957 81.3849 103.729 85.253C103.662 86.4023 103.629 87.5516 103.612 88.7037C103.596 89.8557 103.66 91.0022 103.657 92.1515C103.657 92.1849 103.601 92.1933 103.596 92.1515C103.459 91.1302 103.434 90.095 103.39 89.0682C103.345 88.0414 103.334 86.9505 103.356 85.9042Z" fill="#263238"/>
<path d="M108.933 69.3438C109.494 69.1 110.039 68.8211 110.564 68.5089C111.097 68.2098 111.614 67.8818 112.111 67.5266C111.641 67.9082 111.145 68.256 110.625 68.5674C110.086 68.8704 109.528 69.1399 108.956 69.3744C108.928 69.3883 108.908 69.3688 108.933 69.3438Z" fill="#263238"/>
<path d="M108.042 65.2086C108.09 65.0305 108.145 64.8551 108.204 64.6798V64.6604C108.243 64.563 108.282 64.4628 108.323 64.3654C108.323 64.3654 108.323 64.3403 108.337 64.3292C108.351 64.3181 108.351 64.293 108.359 64.2736C108.368 64.2541 108.373 64.2736 108.359 64.2736C108.346 64.2736 108.34 64.3431 108.329 64.3765C108.325 64.3954 108.319 64.414 108.312 64.4322C108.11 65.1148 107.958 65.8115 107.859 66.5165C107.859 66.5387 107.82 66.5387 107.822 66.5165C107.854 66.0745 107.927 65.6365 108.042 65.2086Z" fill="#263238"/>
<path d="M100.115 86.6472L100.332 89.2436L101.002 97.1606H108.185L108.855 89.2436L109.075 86.6472H100.115Z" fill="#455A64"/>
<path d="M100.115 86.6472L100.332 89.2436H108.855L109.075 86.6472H100.115Z" fill="#263238"/>
<path d="M99.4079 88.0969H109.779V85.6063H99.4079V88.0969Z" fill="#455A64"/>
<path d="M89.7508 7.21802H27.2411C25.672 7.21802 24.3999 8.49008 24.3999 10.0592V106.355C24.3999 107.924 25.672 109.196 27.2411 109.196H89.7508C91.3199 109.196 92.592 107.924 92.592 106.355V10.0592C92.592 8.49008 91.3199 7.21802 89.7508 7.21802Z" fill="#455A64"/>
<path d="M89.7123 14.4197H27.314V102.194H89.7123V14.4197Z" fill="white"/>
<path d="M65.8965 11.6037V11.2392C65.8965 11.0471 65.7407 10.8914 65.5486 10.8914H51.3954C51.2033 10.8914 51.0476 11.0471 51.0476 11.2392V11.6037C51.0476 11.7959 51.2033 11.9516 51.3954 11.9516H65.5486C65.7407 11.9516 65.8965 11.7959 65.8965 11.6037Z" fill="#37474F"/>
<path d="M58.4726 107.96C58.0921 107.961 57.7201 107.849 57.4035 107.638C57.0869 107.427 56.84 107.127 56.694 106.775C56.5481 106.424 56.5096 106.037 56.5835 105.664C56.6574 105.291 56.8403 104.948 57.1091 104.679C57.3779 104.409 57.7205 104.226 58.0936 104.152C58.4667 104.077 58.8535 104.115 59.205 104.261C59.5565 104.406 59.857 104.653 60.0684 104.969C60.2798 105.285 60.3927 105.657 60.3927 106.037C60.3927 106.547 60.1905 107.036 59.8305 107.396C59.4704 107.757 58.9821 107.96 58.4726 107.96Z" fill="#37474F"/>
<path opacity="0.6" d="M36.9103 92.5103C36.9103 92.8312 36.8151 93.1448 36.6368 93.4116C36.4586 93.6784 36.2052 93.8864 35.9087 94.0092C35.6123 94.132 35.2861 94.1641 34.9714 94.1015C34.6567 94.0389 34.3676 93.8844 34.1407 93.6575C33.9138 93.4306 33.7593 93.1415 33.6967 92.8268C33.6341 92.5121 33.6662 92.1859 33.789 91.8895C33.9118 91.593 34.1198 91.3396 34.3866 91.1614C34.6534 90.9831 34.967 90.8879 35.2879 90.8879C35.7182 90.8879 36.1308 91.0589 36.4351 91.3631C36.7393 91.6674 36.9103 92.08 36.9103 92.5103Z" fill="#34A1D3"/>
<path opacity="0.6" d="M38.8765 89.4048C38.8765 89.5611 38.8302 89.7139 38.7433 89.8439C38.6565 89.9739 38.5331 90.0751 38.3886 90.135C38.2442 90.1948 38.0853 90.2104 37.932 90.1799C37.7787 90.1494 37.6379 90.0742 37.5274 89.9636C37.4169 89.8531 37.3416 89.7123 37.3111 89.559C37.2806 89.4057 37.2962 89.2468 37.3561 89.1024C37.4159 88.958 37.5172 88.8345 37.6471 88.7477C37.7771 88.6609 37.9299 88.6145 38.0862 88.6145C38.2958 88.6145 38.4968 88.6978 38.645 88.846C38.7933 88.9942 38.8765 89.1952 38.8765 89.4048Z" fill="#34A1D3"/>
<path opacity="0.6" d="M73.5772 91.7256C73.5772 91.8819 73.5308 92.0347 73.444 92.1647C73.3572 92.2947 73.2337 92.3959 73.0893 92.4558C72.9449 92.5156 72.786 92.5312 72.6327 92.5007C72.4794 92.4702 72.3386 92.395 72.2281 92.2844C72.1175 92.1739 72.0423 92.0331 72.0118 91.8798C71.9813 91.7265 71.9969 91.5676 72.0567 91.4232C72.1166 91.2788 72.2179 91.1553 72.3478 91.0685C72.4778 90.9817 72.6306 90.9353 72.7869 90.9353C72.9965 90.9353 73.1975 91.0186 73.3457 91.1668C73.4939 91.315 73.5772 91.516 73.5772 91.7256Z" fill="#34A1D3"/>
<path opacity="0.6" d="M89.4034 98.9414C89.4034 99.0977 89.357 99.2505 89.2702 99.3805C89.1833 99.5105 89.0599 99.6118 88.9155 99.6716C88.7711 99.7314 88.6122 99.7471 88.4589 99.7166C88.3056 99.6861 88.1648 99.6108 88.0542 99.5003C87.9437 99.3897 87.8684 99.2489 87.8379 99.0956C87.8074 98.9423 87.8231 98.7834 87.8829 98.639C87.9427 98.4946 88.044 98.3712 88.174 98.2843C88.304 98.1975 88.4568 98.1511 88.6131 98.1511C88.8227 98.1511 89.0237 98.2344 89.1719 98.3826C89.3201 98.5308 89.4034 98.7318 89.4034 98.9414Z" fill="#34A1D3"/>
<path opacity="0.6" d="M88.1928 101.251C88.1928 101.501 88.0935 101.741 87.9165 101.918C87.7396 102.095 87.4997 102.195 87.2495 102.195H28.4882C28.3602 102.202 28.2321 102.182 28.1118 102.138C27.9915 102.094 27.8814 102.026 27.7883 101.938C27.6952 101.849 27.6211 101.743 27.5704 101.625C27.5198 101.508 27.4937 101.381 27.4937 101.253C27.4937 101.124 27.5198 100.998 27.5704 100.88C27.6211 100.762 27.6952 100.656 27.7883 100.568C27.8814 100.48 27.9915 100.411 28.1118 100.367C28.2321 100.323 28.3602 100.304 28.4882 100.311C28.5631 100.311 28.6378 100.319 28.7109 100.336C28.7118 99.9669 28.8224 99.6066 29.0286 99.3008C29.2348 98.9951 29.5274 98.7575 29.869 98.6185C30.2106 98.4795 30.5859 98.4452 30.9471 98.5201C31.3082 98.5949 31.6389 98.7755 31.8971 99.0389H31.9138C31.9138 98.9248 31.8971 98.8079 31.8971 98.6911C31.8957 98.0944 32.0462 97.5073 32.3346 96.985C32.623 96.4627 33.0397 96.0225 33.5454 95.7058C34.051 95.3892 34.6291 95.2067 35.2249 95.1754C35.8207 95.1441 36.4146 95.2651 36.9507 95.527C36.9898 94.9608 37.22 94.4247 37.6037 94.0064C37.9874 93.5882 38.5018 93.3127 39.0625 93.225C39.6233 93.1374 40.1972 93.2428 40.6902 93.5241C41.1832 93.8053 41.566 94.2456 41.776 94.7729C42.091 94.2698 42.5288 93.8551 43.0482 93.5679C43.5677 93.2806 44.1517 93.1303 44.7453 93.1311C44.9703 93.1324 45.1947 93.1538 45.4159 93.1951C45.3678 92.926 45.3435 92.6531 45.3436 92.3797C45.3431 91.4704 45.6037 90.5801 46.0946 89.8146C46.5854 89.0491 47.2857 88.4407 48.1123 88.0617C48.9389 87.6827 49.8569 87.5491 50.7572 87.6767C51.6576 87.8043 52.5023 88.1878 53.191 88.7816C53.27 88.628 53.3896 88.499 53.5368 88.4087C53.684 88.3184 53.8531 88.2703 54.0258 88.2695C54.1499 88.2704 54.2727 88.2949 54.3876 88.3419L55.2697 53.1035H60.4457L61.3279 88.3419C61.4427 88.2949 61.5655 88.2704 61.6896 88.2695C61.8622 88.2706 62.0313 88.3189 62.1784 88.4091C62.3256 88.4994 62.4453 88.6282 62.5245 88.7816C63.2131 88.1878 64.0579 87.8043 64.9582 87.6767C65.8585 87.5491 66.7766 87.6827 67.6031 88.0617C68.4297 88.4407 69.1301 89.0491 69.6209 89.8146C70.1117 90.5801 70.3724 91.4704 70.3719 92.3797C70.3719 92.6531 70.3477 92.926 70.2995 93.1951C70.5207 93.1538 70.7452 93.1324 70.9702 93.1311C71.5637 93.1306 72.1476 93.281 72.667 93.5682C73.1864 93.8554 73.6243 94.27 73.9394 94.7729C74.1412 94.2329 74.5231 93.779 75.0206 93.4879C75.5182 93.1967 76.1009 93.0861 76.6705 93.1747C77.2401 93.2634 77.7618 93.5458 78.1473 93.9743C78.5329 94.4028 78.7589 94.9513 78.787 95.527C79.322 95.2656 79.9147 95.1446 80.5094 95.1752C81.104 95.2058 81.6811 95.3872 82.1865 95.7022C82.6918 96.0171 83.1087 96.4554 83.398 96.9759C83.6874 97.4963 83.8397 98.0817 83.8406 98.6772C83.8406 98.794 83.8406 98.9109 83.8239 99.025H83.8406C84.0988 98.7616 84.4295 98.581 84.7907 98.5061C85.1518 98.4313 85.5271 98.4656 85.8687 98.6046C86.2103 98.7436 86.5029 98.9811 86.7091 99.2869C86.9153 99.5927 87.0259 99.9529 87.0269 100.322C87.0999 100.305 87.1746 100.296 87.2495 100.297C87.3743 100.297 87.4979 100.321 87.6131 100.37C87.7283 100.418 87.8328 100.488 87.9205 100.577C88.0083 100.666 88.0775 100.771 88.1243 100.887C88.171 101.003 88.1943 101.126 88.1928 101.251Z" fill="#34A1D3"/>
<path d="M48.5006 30.7522L38.6245 41.5216C38.6245 41.5216 48.509 64.1289 48.5006 64.2847L47.1092 45.4509L50.1703 42.298L48.5006 30.7522Z" fill="#34A1D3"/>
<path opacity="0.1" d="M48.5006 30.7522L38.6245 41.5216C38.6245 41.5216 48.509 64.1289 48.5006 64.2847L47.1092 45.4509L50.1703 42.298L48.5006 30.7522Z" fill="black"/>
<path opacity="0.1" d="M50.1493 42.295L48.065 44.4517L44.1162 35.5301L48.5019 30.7493L50.1493 42.295Z" fill="black"/>
<path d="M67.3081 30.7522L77.1842 41.5216C77.1842 41.5216 67.297 64.1289 67.3081 64.2847L68.7134 45.4509L65.6523 42.298L67.3081 30.7522Z" fill="#34A1D3"/>
<path opacity="0.1" d="M67.3081 30.7522L77.1842 41.5216C77.1842 41.5216 67.297 64.1289 67.3081 64.2847L68.7134 45.4509L65.6523 42.298L67.3081 30.7522Z" fill="black"/>
<path opacity="0.1" d="M65.6567 42.295L67.7438 44.4517L71.6926 35.5301L67.3069 30.7493L65.6567 42.295Z" fill="black"/>
<path d="M63.6184 49.6639H52.1645C52.1645 49.6639 46.7687 40.0188 47.4087 28.5148C47.7315 22.7739 49.2314 16.9941 51.0263 12.2105C53.5225 5.59578 56.5947 0.912354 57.9165 0.912354C59.2383 0.912354 62.3133 5.60134 64.7927 12.2132C66.5876 16.9968 68.0792 22.7878 68.3937 28.5231C69.0254 40.0244 63.6184 49.6639 63.6184 49.6639Z" fill="#EBEBEB"/>
<path opacity="0.2" d="M64.7625 27.0344C64.7619 28.3411 64.3738 29.6183 63.6474 30.7045C62.9209 31.7907 61.8886 32.637 60.681 33.1364C59.4735 33.6358 58.145 33.7659 56.8636 33.5103C55.5821 33.2546 54.4052 32.6246 53.4818 31.7C52.5584 30.7755 51.9299 29.5978 51.6759 28.316C51.4218 27.0342 51.5536 25.7059 52.0545 24.499C52.5555 23.2921 53.4031 22.2609 54.4902 21.5358C55.5773 20.8106 56.855 20.4242 58.1617 20.4253C59.0292 20.4253 59.8882 20.5963 60.6896 20.9285C61.491 21.2608 62.219 21.7477 62.8321 22.3616C63.4451 22.9754 63.9312 23.704 64.2624 24.5058C64.5936 25.3076 64.7636 26.1669 64.7625 27.0344Z" fill="black"/>
<path d="M64.5291 26.3611C64.5285 27.6673 64.1407 28.9441 63.4147 30.03C62.6887 31.1159 61.6571 31.9622 60.4502 32.462C59.2434 32.9618 57.9154 33.0925 56.6342 32.8377C55.3531 32.583 54.1762 31.9541 53.2523 31.0306C52.3285 30.1072 51.6991 28.9306 51.4438 27.6495C51.1885 26.3684 51.3187 25.0404 51.818 23.8334C52.3172 22.6263 53.1631 21.5943 54.2487 20.8678C55.3343 20.1414 56.6109 19.7531 57.9172 19.752C58.7854 19.7512 59.6453 19.9217 60.4477 20.2535C61.25 20.5853 61.9791 21.0721 62.5931 21.6859C63.2072 22.2997 63.6943 23.0286 64.0265 23.8308C64.3586 24.633 64.5294 25.4928 64.5291 26.3611Z" fill="#34A1D3"/>
<path opacity="0.1" d="M64.5291 26.3611C64.5285 27.6673 64.1407 28.9441 63.4147 30.03C62.6887 31.1159 61.6571 31.9622 60.4502 32.462C59.2434 32.9618 57.9154 33.0925 56.6342 32.8377C55.3531 32.583 54.1762 31.9541 53.2523 31.0306C52.3285 30.1072 51.6991 28.9306 51.4438 27.6495C51.1885 26.3684 51.3187 25.0404 51.818 23.8334C52.3172 22.6263 53.1631 21.5943 54.2487 20.8678C55.3343 20.1414 56.6109 19.7531 57.9172 19.752C58.7854 19.7512 59.6453 19.9217 60.4477 20.2535C61.25 20.5853 61.9791 21.0721 62.5931 21.6859C63.2072 22.2997 63.6943 23.0286 64.0265 23.8308C64.3586 24.633 64.5294 25.4928 64.5291 26.3611Z" fill="black"/>
<path d="M62.5027 26.3553C62.5044 27.2614 62.2373 28.1475 61.7352 28.9018C61.2332 29.656 60.5187 30.2444 59.6822 30.5925C58.8457 30.9406 57.9247 31.0329 57.0358 30.8575C56.1469 30.6822 55.33 30.2472 54.6883 29.6075C54.0467 28.9678 53.6091 28.1521 53.4311 27.2638C53.2531 26.3754 53.3425 25.4541 53.6881 24.6166C54.0337 23.779 54.6199 23.0628 55.3726 22.5584C56.1253 22.0541 57.0106 21.7843 57.9167 21.7832C59.131 21.7817 60.2962 22.2625 61.1562 23.1199C62.0162 23.9772 62.5005 25.141 62.5027 26.3553Z" fill="#455A64"/>
<g opacity="0.4">
<path d="M62.5061 26.3556C62.5073 26.9267 62.4016 27.493 62.1944 28.0252L59.587 30.6271C59.0547 30.8339 58.4883 30.9387 57.9173 30.936C57.5032 30.9367 57.0911 30.8795 56.6929 30.7663L62.3364 25.1228C62.4491 25.524 62.5062 25.9388 62.5061 26.3556Z" fill="white"/>
<path d="M58.5967 21.8251L53.3929 27.0289C53.3608 26.8068 53.344 26.5827 53.3428 26.3583C53.345 25.1456 53.8277 23.9833 54.6852 23.1258C55.5426 22.2683 56.705 21.7856 57.9177 21.7834C58.1447 21.7814 58.3716 21.7953 58.5967 21.8251Z" fill="white"/>
<path d="M61.9346 24.1375L55.7095 30.3626C55.5885 30.2981 55.4714 30.2266 55.3589 30.1483L61.7175 23.7869C61.7955 23.8982 61.865 24.0095 61.9346 24.1375Z" fill="white"/>
</g>
<path d="M64.8045 12.2132H51.0381C53.5231 5.59578 56.5953 0.912354 57.9171 0.912354C59.2389 0.912354 62.3251 5.60134 64.8045 12.2132Z" fill="#34A1D3"/>
<g opacity="0.1">
<path d="M53.4084 10.7828C53.4084 10.8593 53.3857 10.9341 53.3432 10.9977C53.3007 11.0613 53.2403 11.1109 53.1696 11.1402C53.0989 11.1695 53.0211 11.1771 52.9461 11.1622C52.8711 11.1473 52.8022 11.1104 52.7481 11.0563C52.694 11.0022 52.6571 10.9333 52.6422 10.8583C52.6273 10.7832 52.6349 10.7055 52.6642 10.6348C52.6935 10.5641 52.7431 10.5037 52.8067 10.4612C52.8703 10.4187 52.9451 10.396 53.0216 10.396C53.0725 10.3956 53.1229 10.4054 53.17 10.4247C53.2171 10.444 53.2599 10.4725 53.2959 10.5085C53.3319 10.5445 53.3604 10.5873 53.3797 10.6344C53.399 10.6814 53.4088 10.7319 53.4084 10.7828Z" fill="black"/>
<path d="M55.8576 10.783C55.8581 10.8597 55.8359 10.9349 55.7936 10.9989C55.7513 11.0629 55.6909 11.1129 55.6201 11.1426C55.5493 11.1722 55.4713 11.1801 55.396 11.1652C55.3207 11.1504 55.2515 11.1135 55.1973 11.0592C55.143 11.005 55.1061 10.9358 55.0913 10.8605C55.0764 10.7852 55.0843 10.7072 55.114 10.6364C55.1436 10.5656 55.1936 10.5053 55.2576 10.463C55.3217 10.4207 55.3968 10.3984 55.4736 10.3989C55.5752 10.3997 55.6724 10.4404 55.7443 10.5122C55.8162 10.5841 55.8569 10.6813 55.8576 10.783Z" fill="black"/>
<path d="M58.306 10.7857C58.3064 10.8369 58.2966 10.8876 58.2771 10.9348C58.2576 10.9821 58.2289 11.025 58.1926 11.0611C58.1563 11.0971 58.1132 11.1255 58.0658 11.1447C58.0183 11.1638 57.9676 11.1733 57.9164 11.1725C57.8398 11.1731 57.7648 11.1509 57.7008 11.1087C57.6368 11.0665 57.5868 11.0063 57.5571 10.9357C57.5274 10.8651 57.5193 10.7872 57.534 10.712C57.5486 10.6368 57.5852 10.5676 57.6392 10.5132C57.6931 10.4588 57.7621 10.4217 57.8372 10.4066C57.9123 10.3914 57.9902 10.3989 58.061 10.4281C58.1319 10.4573 58.1925 10.5069 58.2351 10.5705C58.2777 10.6342 58.3005 10.7091 58.3005 10.7857H58.306Z" fill="black"/>
<path d="M60.7541 10.7884C60.7541 10.865 60.7313 10.9399 60.6887 11.0036C60.6461 11.0673 60.5855 11.1169 60.5147 11.1461C60.4438 11.1752 60.3659 11.1827 60.2908 11.1676C60.2157 11.1524 60.1468 11.1153 60.0928 11.0609C60.0388 11.0066 60.0022 10.9374 59.9876 10.8622C59.973 10.787 59.981 10.7091 60.0107 10.6385C60.0404 10.5678 60.0904 10.5076 60.1544 10.4655C60.2184 10.4233 60.2934 10.4011 60.3701 10.4016C60.4207 10.4016 60.4709 10.4116 60.5177 10.4311C60.5644 10.4506 60.6069 10.4791 60.6426 10.5151C60.6783 10.551 60.7065 10.5937 60.7257 10.6406C60.7448 10.6875 60.7545 10.7378 60.7541 10.7884Z" fill="black"/>
<path d="M63.2048 10.7886C63.2053 10.8653 63.183 10.9405 63.1407 11.0045C63.0984 11.0685 63.0381 11.1186 62.9673 11.1482C62.8965 11.1778 62.8185 11.1857 62.7432 11.1709C62.6679 11.156 62.5987 11.1191 62.5445 11.0649C62.4902 11.0106 62.4533 10.9414 62.4384 10.8661C62.4236 10.7908 62.4315 10.7128 62.4611 10.642C62.4908 10.5713 62.5408 10.5109 62.6048 10.4686C62.6688 10.4263 62.744 10.404 62.8207 10.4046C62.9226 10.4046 63.0203 10.445 63.0923 10.517C63.1643 10.589 63.2048 10.6867 63.2048 10.7886Z" fill="black"/>
</g>
<path d="M53.3928 47.8968C53.3928 47.9734 53.37 48.0483 53.3274 48.112C53.2847 48.1757 53.2242 48.2253 53.1533 48.2544C53.0825 48.2836 53.0046 48.2911 52.9295 48.276C52.8543 48.2608 52.7854 48.2237 52.7314 48.1693C52.6775 48.115 52.6408 48.0458 52.6262 47.9706C52.6116 47.8954 52.6197 47.8175 52.6494 47.7469C52.6791 47.6762 52.7291 47.616 52.7931 47.5739C52.8571 47.5317 52.9321 47.5095 53.0087 47.51C53.0594 47.51 53.1096 47.52 53.1563 47.5395C53.2031 47.559 53.2456 47.5875 53.2813 47.6235C53.317 47.6594 53.3452 47.7021 53.3643 47.749C53.3835 47.7959 53.3931 47.8462 53.3928 47.8968Z" fill="#34A1D3"/>
<path d="M55.839 47.897C55.8396 47.9737 55.8173 48.0489 55.775 48.1129C55.7327 48.1769 55.6723 48.227 55.6015 48.2566C55.5308 48.2862 55.4527 48.2941 55.3775 48.2793C55.3022 48.2644 55.233 48.2275 55.1787 48.1733C55.1245 48.119 55.0876 48.0498 55.0727 47.9745C55.0579 47.8992 55.0658 47.8212 55.0954 47.7504C55.125 47.6796 55.175 47.6193 55.2391 47.577C55.3031 47.5347 55.3783 47.5124 55.455 47.5129C55.5569 47.5129 55.6545 47.5534 55.7266 47.6254C55.7986 47.6974 55.839 47.7951 55.839 47.897Z" fill="#34A1D3"/>
<path d="M58.2892 47.8998C58.2892 47.9764 58.2665 48.0513 58.2239 48.1149C58.1812 48.1786 58.1207 48.2282 58.0498 48.2574C57.979 48.2866 57.901 48.2941 57.8259 48.2789C57.7508 48.2638 57.6819 48.2266 57.6279 48.1723C57.5739 48.1179 57.5373 48.0487 57.5227 47.9735C57.5081 47.8983 57.5162 47.8204 57.5459 47.7498C57.5756 47.6792 57.6256 47.6189 57.6896 47.5768C57.7535 47.5346 57.8286 47.5124 57.9052 47.5129C57.9559 47.5129 58.006 47.523 58.0528 47.5424C58.0996 47.5619 58.1421 47.5905 58.1778 47.6264C58.2134 47.6624 58.2417 47.705 58.2608 47.7519C58.2799 47.7989 58.2896 47.8491 58.2892 47.8998Z" fill="#34A1D3"/>
<path d="M60.7414 47.8997C60.7419 47.9763 60.7197 48.0513 60.6775 48.1153C60.6354 48.1793 60.5752 48.2293 60.5045 48.259C60.4339 48.2887 60.356 48.2968 60.2808 48.2821C60.2056 48.2675 60.1364 48.2309 60.0821 48.1769C60.0277 48.1229 59.9906 48.054 59.9754 47.9789C59.9603 47.9038 59.9678 47.8259 59.9969 47.7551C60.0261 47.6842 60.0757 47.6236 60.1394 47.581C60.2031 47.5384 60.278 47.5156 60.3546 47.5156C60.4567 47.5156 60.5546 47.556 60.6271 47.6279C60.6996 47.6999 60.7406 47.7975 60.7414 47.8997Z" fill="#34A1D3"/>
<path d="M63.2014 47.9023C63.206 47.9557 63.1994 48.0094 63.1821 48.0601C63.1647 48.1108 63.1371 48.1574 63.1009 48.1968C63.0646 48.2362 63.0206 48.2677 62.9716 48.2893C62.9225 48.3108 62.8696 48.3219 62.816 48.3219C62.7624 48.3219 62.7095 48.3108 62.6604 48.2893C62.6114 48.2677 62.5674 48.2362 62.5311 48.1968C62.4949 48.1574 62.4673 48.1108 62.45 48.0601C62.4326 48.0094 62.4261 47.9557 62.4306 47.9023C62.4302 47.8518 62.4399 47.8017 62.4591 47.7549C62.4782 47.7082 62.5065 47.6657 62.5422 47.63C62.578 47.5942 62.6205 47.566 62.6672 47.5468C62.714 47.5276 62.7641 47.518 62.8146 47.5183C62.8653 47.518 62.9155 47.5276 62.9624 47.5468C63.0093 47.5659 63.052 47.5941 63.088 47.6298C63.1239 47.6655 63.1525 47.708 63.1719 47.7547C63.1914 47.8015 63.2014 47.8517 63.2014 47.9023Z" fill="#34A1D3"/>
<path d="M62.5596 53.1061L53.2456 53.1005L52.8115 49.6582L62.9993 49.6666L62.5596 53.1061Z" fill="#34A1D3"/>
<path opacity="0.1" d="M62.5596 53.1061L53.2456 53.1005L52.8115 49.6582L62.9993 49.6666L62.5596 53.1061Z" fill="black"/>
<path opacity="0.1" d="M62.9993 49.6666L62.7822 51.3418L52.9757 50.9745L52.8115 49.6582L62.9993 49.6666Z" fill="black"/>
<path d="M72.472 93.977L71.3171 94.1913L71.0583 95.4073L70.7995 94.1913L69.6475 93.977L70.7968 93.6959L71.0583 92.5466L71.3227 93.6959L72.472 93.977Z" fill="#FCFCFC"/>
<path d="M61.243 84.2206L60.0881 84.4321L59.8321 85.651L59.5733 84.4321L58.4185 84.2206L59.5677 83.9396L59.8321 82.7903L60.0937 83.9396L61.243 84.2206Z" fill="#FCFCFC"/>
<path d="M57.3841 55.2824L56.2292 55.4967L55.9704 56.7128L55.7116 55.4967L54.5596 55.2824L55.7089 55.0013L55.9704 53.8521L56.2348 55.0013L57.3841 55.2824Z" fill="#FCFCFC"/>
<path d="M44.469 96.2951L43.8261 96.4148L43.6814 97.0938L43.5367 96.4148L42.8911 96.2951L43.5339 96.1365L43.6814 95.4937L43.8289 96.1365L44.469 96.2951Z" fill="#FCFCFC"/>
<path d="M79.1818 98.3237L78.5362 98.4433L78.3943 99.1223L78.2496 98.4433L77.604 98.3237L78.2468 98.165L78.3943 97.5222L78.539 98.165L79.1818 98.3237Z" fill="#FCFCFC"/>
<path d="M35.592 100.706L34.9464 100.825L34.8017 101.507L34.6598 100.825L34.0142 100.706L34.6542 100.55L34.8017 99.907L34.9492 100.55L35.592 100.706Z" fill="#FCFCFC"/>
<path d="M63.654 100.141L63.0084 100.261L62.8665 100.94L62.7218 100.261L62.0762 100.141L62.719 99.9823L62.8665 99.3423L63.0112 99.9823L63.654 100.141Z" fill="#FCFCFC"/>
<path d="M58.9333 82.3699L58.2877 82.4896L58.143 83.1686L57.9983 82.4896L57.3555 82.3699L57.9955 82.2141L58.143 81.5713L58.2905 82.2141L58.9333 82.3699Z" fill="#FCFCFC"/>
<path d="M60.6643 64.7606L60.0187 64.8802L59.8739 65.5592L59.7292 64.8802L59.0864 64.7606L59.7265 64.6047L59.8739 63.9619L60.0214 64.6047L60.6643 64.7606Z" fill="#FCFCFC"/>
<path d="M80.7112 99.793C80.6654 99.7986 80.6231 99.8208 80.5925 99.8554C80.5618 99.89 80.5449 99.9346 80.5449 99.9808C80.5449 100.027 80.5618 100.072 80.5925 100.106C80.6231 100.141 80.6654 100.163 80.7112 100.169C80.7571 100.163 80.7994 100.141 80.83 100.106C80.8607 100.072 80.8776 100.027 80.8776 99.9808C80.8776 99.9346 80.8607 99.89 80.83 99.8554C80.7994 99.8208 80.7571 99.7986 80.7112 99.793Z" fill="#FCFCFC"/>
<path d="M56.4339 80.0103C56.388 80.0158 56.3458 80.038 56.3151 80.0726C56.2845 80.1073 56.2676 80.1519 56.2676 80.1981C56.2676 80.2443 56.2845 80.2889 56.3151 80.3235C56.3458 80.3581 56.388 80.3803 56.4339 80.3859C56.4798 80.3803 56.522 80.3581 56.5527 80.3235C56.5833 80.2889 56.6002 80.2443 56.6002 80.1981C56.6002 80.1519 56.5833 80.1073 56.5527 80.0726C56.522 80.038 56.4798 80.0158 56.4339 80.0103Z" fill="#FCFCFC"/>
<path d="M59.5488 56.5264C59.4993 56.5264 59.4519 56.546 59.4169 56.581C59.3819 56.6159 59.3623 56.6634 59.3623 56.7128C59.3623 56.7623 59.3819 56.8097 59.4169 56.8446C59.4519 56.8796 59.4993 56.8993 59.5488 56.8993C59.5982 56.8993 59.6456 56.8796 59.6806 56.8446C59.7156 56.8097 59.7352 56.7623 59.7352 56.7128C59.7352 56.6634 59.7156 56.6159 59.6806 56.581C59.6456 56.546 59.5982 56.5264 59.5488 56.5264Z" fill="#FCFCFC"/>
<path d="M40.4793 100.706C40.4334 100.711 40.3912 100.733 40.3605 100.768C40.3299 100.803 40.313 100.847 40.313 100.893C40.313 100.94 40.3299 100.984 40.3605 101.019C40.3912 101.053 40.4334 101.076 40.4793 101.081C40.5252 101.076 40.5674 101.053 40.5981 101.019C40.6287 100.984 40.6456 100.94 40.6456 100.893C40.6456 100.847 40.6287 100.803 40.5981 100.768C40.5674 100.733 40.5252 100.711 40.4793 100.706Z" fill="#FCFCFC"/>
<path d="M52.3315 98.1372C52.282 98.1372 52.2346 98.1568 52.1996 98.1918C52.1647 98.2268 52.145 98.2742 52.145 98.3236C52.145 98.3731 52.1647 98.4205 52.1996 98.4555C52.2346 98.4905 52.282 98.5101 52.3315 98.5101C52.3809 98.5101 52.4283 98.4905 52.4633 98.4555C52.4983 98.4205 52.5179 98.3731 52.5179 98.3236C52.5179 98.2742 52.4983 98.2268 52.4633 98.1918C52.4283 98.1568 52.3809 98.1372 52.3315 98.1372Z" fill="#FCFCFC"/>
<path d="M76.0235 96.4314C75.9918 96.436 75.9627 96.4519 75.9417 96.4762C75.9207 96.5005 75.9092 96.5315 75.9092 96.5636C75.9092 96.5957 75.9207 96.6267 75.9417 96.651C75.9627 96.6752 75.9918 96.6911 76.0235 96.6958C76.0553 96.6911 76.0843 96.6752 76.1053 96.651C76.1263 96.6267 76.1379 96.5957 76.1379 96.5636C76.1379 96.5315 76.1263 96.5005 76.1053 96.4762C76.0843 96.4519 76.0553 96.436 76.0235 96.4314Z" fill="#FCFCFC"/>
<path d="M59.6778 94.4473C59.6461 94.4519 59.617 94.4678 59.596 94.4921C59.575 94.5163 59.5635 94.5474 59.5635 94.5794C59.5635 94.6115 59.575 94.6426 59.596 94.6668C59.617 94.6911 59.6461 94.707 59.6778 94.7116C59.7096 94.707 59.7386 94.6911 59.7596 94.6668C59.7806 94.6426 59.7922 94.6115 59.7922 94.5794C59.7922 94.5474 59.7806 94.5163 59.7596 94.4921C59.7386 94.4678 59.7096 94.4519 59.6778 94.4473Z" fill="#FCFCFC"/>
<path d="M57.359 60.8896C57.3272 60.8943 57.2982 60.9102 57.2772 60.9344C57.2562 60.9587 57.2446 60.9897 57.2446 61.0218C57.2446 61.0539 57.2562 61.0849 57.2772 61.1092C57.2982 61.1335 57.3272 61.1494 57.359 61.154C57.3907 61.1494 57.4198 61.1335 57.4408 61.1092C57.4618 61.0849 57.4733 61.0539 57.4733 61.0218C57.4733 60.9897 57.4618 60.9587 57.4408 60.9344C57.4198 60.9102 57.3907 60.8943 57.359 60.8896Z" fill="#FCFCFC"/>
<path d="M47.711 91.8621C47.6793 91.8667 47.6502 91.8826 47.6292 91.9069C47.6082 91.9311 47.5967 91.9622 47.5967 91.9942C47.5967 92.0263 47.6082 92.0574 47.6292 92.0816C47.6502 92.1059 47.6793 92.1218 47.711 92.1264C47.7428 92.1218 47.7718 92.1059 47.7928 92.0816C47.8138 92.0574 47.8254 92.0263 47.8254 91.9942C47.8254 91.9622 47.8138 91.9311 47.7928 91.9069C47.7718 91.8826 47.7428 91.8667 47.711 91.8621Z" fill="#FCFCFC"/>
<path d="M68.1847 92.4019C68.0895 92.4019 67.9981 92.4397 67.9308 92.507C67.8635 92.5743 67.8257 92.6656 67.8257 92.7608C67.8257 92.856 67.8635 92.9474 67.9308 93.0147C67.9981 93.082 68.0895 93.1198 68.1847 93.1198C68.2799 93.1198 68.3712 93.082 68.4385 93.0147C68.5058 92.9474 68.5436 92.856 68.5436 92.7608C68.5436 92.6656 68.5058 92.5743 68.4385 92.507C68.3712 92.4397 68.2799 92.4019 68.1847 92.4019Z" fill="#FCFCFC"/>
<path d="M49.4068 90.646C49.3116 90.646 49.2203 90.6838 49.153 90.7511C49.0857 90.8185 49.0479 90.9098 49.0479 91.005C49.0479 91.1002 49.0857 91.1915 49.153 91.2588C49.2203 91.3261 49.3116 91.364 49.4068 91.364C49.502 91.364 49.5933 91.3261 49.6607 91.2588C49.728 91.1915 49.7658 91.1002 49.7658 91.005C49.7658 90.9098 49.728 90.8185 49.6607 90.7511C49.5933 90.6838 49.502 90.646 49.4068 90.646Z" fill="#FCFCFC"/>
<path d="M58.1427 69.0042C58.0475 69.0042 57.9562 69.042 57.8888 69.1093C57.8215 69.1766 57.7837 69.2679 57.7837 69.3631C57.7837 69.4583 57.8215 69.5496 57.8888 69.617C57.9562 69.6843 58.0475 69.7221 58.1427 69.7221C58.2379 69.7221 58.3292 69.6843 58.3965 69.617C58.4638 69.5496 58.5016 69.4583 58.5016 69.3631C58.5016 69.2679 58.4638 69.1766 58.3965 69.1093C58.3292 69.042 58.2379 69.0042 58.1427 69.0042Z" fill="#FCFCFC"/>
<path d="M70.6564 84.5461H46.2959V92.0569H70.6564V84.5461Z" fill="#37474F"/>
<path d="M53.1846 87.4208C53.1435 87.3786 53.0978 87.3412 53.0482 87.3094C52.9823 87.2666 52.9124 87.2302 52.8395 87.2009C52.755 87.1653 52.6675 87.1373 52.5779 87.1174C52.4867 87.096 52.3934 87.0848 52.2997 87.084C52.1275 87.071 51.9557 87.114 51.8099 87.2065C51.7591 87.2456 51.7184 87.2964 51.6913 87.3545C51.6642 87.4126 51.6514 87.4763 51.6541 87.5404C51.6514 87.6106 51.6688 87.6801 51.7041 87.7408C51.7427 87.7968 51.7943 87.8426 51.8544 87.8744C51.9361 87.9191 52.0231 87.9537 52.1132 87.9773C52.2134 88.0079 52.3331 88.0385 52.4722 88.0747C52.6261 88.1095 52.7776 88.1541 52.9258 88.2083C53.0494 88.2518 53.1657 88.3137 53.2708 88.3919C53.362 88.4616 53.4362 88.5511 53.4879 88.6535C53.5411 88.7734 53.5667 88.9037 53.563 89.0348C53.5679 89.1851 53.5353 89.3342 53.4684 89.4689C53.407 89.5881 53.3171 89.6903 53.2068 89.7666C53.0896 89.8444 52.9596 89.9009 52.8228 89.9336C52.6678 89.9701 52.509 89.9879 52.3497 89.9865C52.1021 89.9882 51.8559 89.9497 51.6207 89.8724C51.39 89.8001 51.1741 89.687 50.9834 89.5385L51.2199 89.0904C51.2739 89.1413 51.3326 89.187 51.3953 89.2268C51.483 89.2818 51.5763 89.3275 51.6735 89.3631C51.7798 89.4084 51.8896 89.4447 52.0019 89.4717C52.122 89.502 52.2454 89.517 52.3692 89.5162C52.5358 89.5256 52.7016 89.488 52.8479 89.4077C52.9019 89.3749 52.9459 89.3281 52.9754 89.2722C53.0048 89.2163 53.0184 89.1535 53.0148 89.0904C53.0171 89.0157 52.9946 88.9423 52.9508 88.8817C52.903 88.8201 52.8422 88.7697 52.7727 88.7342C52.684 88.687 52.5908 88.6487 52.4945 88.6201L52.1132 88.5116C51.9669 88.4748 51.8228 88.4292 51.6819 88.3753C51.5708 88.3342 51.4674 88.275 51.3758 88.1999C51.2983 88.1334 51.2349 88.052 51.1893 87.9606C51.1454 87.8549 51.1245 87.7411 51.1281 87.6267C51.1253 87.4769 51.1567 87.3284 51.2199 87.1926C51.2813 87.0695 51.3686 86.9613 51.476 86.8753C51.5892 86.7869 51.7187 86.7217 51.8572 86.6833C52.0116 86.6374 52.172 86.6149 52.3331 86.6165C52.5448 86.6145 52.7551 86.6512 52.9536 86.7251C53.131 86.7899 53.2986 86.8789 53.4517 86.9894L53.1846 87.4208Z" fill="white"/>
<path d="M56.6783 87.1035H55.5652V89.9615H55.0365V87.1035H53.9233V86.6416H56.6588L56.6783 87.1035Z" fill="white"/>
<path d="M57.9554 86.6416H58.4146L59.7197 89.9615H59.1631L58.8125 89.0598H57.5324L57.1957 89.9615H56.6392L57.9554 86.6416ZM58.7179 88.6675L58.1947 87.2427L57.6382 88.6675H58.7179Z" fill="white"/>
<path d="M60.3179 89.9615V86.6416H61.7621C61.9046 86.6403 62.0456 86.6717 62.174 86.7335C62.2964 86.7949 62.4067 86.8778 62.4996 86.9784C62.5893 87.0804 62.6608 87.1972 62.7111 87.3234C62.7612 87.4492 62.7876 87.5832 62.789 87.7186C62.7889 87.8279 62.7729 87.9366 62.7417 88.0414C62.7112 88.1397 62.6671 88.2334 62.6109 88.3197C62.5551 88.4064 62.4856 88.4835 62.405 88.5479C62.322 88.6122 62.2275 88.6604 62.1267 88.6898L62.9253 89.9615H62.3326L61.6119 88.8066H60.8466V89.9615H60.3179ZM60.841 88.3447H61.7566C61.8271 88.3452 61.8967 88.329 61.9597 88.2974C62.0209 88.2637 62.074 88.2172 62.1155 88.161C62.1607 88.1014 62.1955 88.0346 62.2185 87.9635C62.2434 87.8862 62.2556 87.8053 62.2547 87.7241C62.2534 87.565 62.1963 87.4113 62.0933 87.29C62.0468 87.2351 61.9901 87.1898 61.9263 87.1565C61.8648 87.1261 61.7973 87.11 61.7287 87.1092H60.841V88.3447Z" fill="white"/>
<path d="M65.9869 87.1035H64.8738V89.9615H64.345V87.1035H63.2319V86.6416H65.9869V87.1035Z" fill="white"/>
<path d="M69.6267 92.6747H47.3255L46.2959 92.0569H70.6536L69.6267 92.6747Z" fill="#263238"/>
<path d="M108.662 114.074C108.709 114.692 106.942 114.87 106.205 114.469C105.609 114.043 105.041 113.578 104.504 113.078C102.732 111.511 100.283 109.218 100.283 109.218L98.4686 110.036L89.6054 112.986L85.8682 103.319C85.8682 103.319 90.1564 101.504 94.2332 99.8793C94.8621 99.6289 95.4799 99.3868 96.081 99.153L96.1923 99.1085C98.9278 98.0566 101.201 97.2607 101.427 97.4388C102.056 97.8507 108.615 113.451 108.662 114.074Z" fill="#D3766A"/>
<path d="M108.664 114.074C108.712 114.695 106.945 114.87 106.207 114.472C105.611 114.046 105.043 113.581 104.507 113.081C102.734 111.517 100.285 109.224 100.285 109.224L98.4711 110.039L98.1761 110.137L94.0938 99.9238L94.2245 99.8709L96.0723 99.1474L96.1836 99.1028C98.9191 98.051 101.193 97.2523 101.421 97.4165C102.058 97.8534 108.617 113.454 108.664 114.074Z" fill="#EBEBEB"/>
<path d="M108.817 114.302C108.781 113.668 102.297 97.7003 101.666 97.2495C101.429 97.0742 99.047 97.884 96.1974 98.9442L96.1084 98.9776L100.174 109.324L100.347 109.252C100.347 109.252 105.562 114.261 106.31 114.675C107.059 115.09 108.859 114.934 108.817 114.302Z" fill="#34A1D3"/>
<path d="M108.129 114.372C106.969 111.709 102.547 100.851 101.604 98.1289C101.604 98.1067 101.604 98.1011 101.62 98.1289C102.828 100.745 107.161 111.639 108.171 114.364C108.193 114.411 108.151 114.428 108.129 114.372Z" fill="#263238"/>
<path d="M100.67 110.46C100.042 109.48 99.6798 108.119 100.114 107.003C100.131 106.962 100.192 106.984 100.195 107.023C100.278 108.168 100.484 109.3 100.81 110.401C100.817 110.42 100.817 110.44 100.81 110.459C100.802 110.477 100.788 110.492 100.769 110.5C100.751 110.508 100.73 110.508 100.712 110.5C100.693 110.493 100.678 110.478 100.67 110.46Z" fill="#263238"/>
<path d="M101.441 111.038C100.812 110.059 100.45 108.698 100.884 107.582C100.901 107.538 100.962 107.563 100.965 107.602C101.05 108.746 101.256 109.879 101.58 110.98C101.588 110.998 101.588 111.019 101.58 111.038C101.573 111.056 101.558 111.071 101.54 111.079C101.521 111.086 101.501 111.086 101.482 111.079C101.464 111.071 101.449 111.057 101.441 111.038Z" fill="#263238"/>
<path d="M102.213 111.614C101.587 110.635 101.222 109.274 101.656 108.158C101.673 108.116 101.734 108.139 101.737 108.178C101.822 109.323 102.029 110.455 102.355 111.556C102.363 111.575 102.363 111.596 102.355 111.615C102.347 111.633 102.332 111.648 102.313 111.656C102.294 111.664 102.273 111.664 102.254 111.656C102.236 111.648 102.221 111.633 102.213 111.614Z" fill="#263238"/>
<path d="M100.237 111.69C100.515 110.702 100.356 109.63 100.326 108.628C100.323 108.606 100.315 108.585 100.302 108.567C100.29 108.548 100.273 108.533 100.254 108.522C100.235 108.511 100.213 108.504 100.191 108.503C100.168 108.502 100.146 108.506 100.125 108.514C100.125 108.5 100.095 108.489 100.078 108.514C99.2702 109.216 98.6616 110.118 98.3138 111.13C98.1218 111.723 98.1775 112.602 98.9205 112.8C99.6217 112.95 100.073 112.263 100.237 111.69ZM99.4937 112.305C98.4057 112.961 98.5114 111.47 98.6589 111.036C98.7652 110.758 98.8916 110.488 99.0373 110.229C99.3423 109.695 99.6748 109.178 100.034 108.679C100.017 109.174 100.034 109.664 100.05 110.159C100.064 110.749 100.092 111.946 99.4937 112.305Z" fill="#263238"/>
<path d="M97.0274 105.623C96.4708 106.146 96.8521 106.942 97.3057 107.362C98.1056 108.073 99.0789 108.561 100.127 108.776C100.132 108.777 100.136 108.777 100.141 108.775C100.145 108.774 100.149 108.772 100.153 108.769C100.156 108.766 100.159 108.763 100.161 108.758C100.163 108.754 100.164 108.75 100.164 108.745C100.186 108.743 100.207 108.736 100.226 108.724C100.245 108.712 100.261 108.695 100.273 108.676C100.284 108.657 100.291 108.636 100.293 108.613C100.295 108.591 100.292 108.569 100.283 108.548C99.8157 107.657 99.4261 106.644 98.6998 105.924C98.2824 105.501 97.5533 105.128 97.0274 105.623ZM99.3037 107.34C99.543 107.774 99.7629 108.217 100.019 108.64C99.4611 108.381 98.9169 108.094 98.3882 107.78C98.1353 107.623 97.8927 107.45 97.6619 107.262C97.3112 106.964 96.4875 105.712 97.7565 105.751C98.4577 105.773 99.0171 106.825 99.3037 107.34Z" fill="#263238"/>
<path opacity="0.1" d="M108.82 114.303C108.862 114.937 107.058 115.096 106.315 114.675C105.572 114.255 100.352 109.252 100.352 109.252L100.179 109.327L96.9624 101.148L103.293 100.578C105.414 105.412 108.795 113.846 108.82 114.303Z" fill="black"/>
<path d="M96.8588 111.817C96.8588 111.817 77.5908 116.242 70.5031 114.965C67.1136 114.353 64.6592 109.989 66.2955 106.647C67.8149 103.528 77.1149 100.361 79.7419 98.5241C80.5767 97.9509 80.4821 95.669 80.4821 95.669L87.3834 95.5771C87.3834 95.5771 89.8434 99.487 88.8026 101.39C88.7859 101.421 88.7665 101.452 88.7442 101.485L91.8665 100.3L96.8588 111.817Z" fill="#37474F"/>
<path d="M92.5912 106.608C91.8232 104.939 90.98 103.308 90.198 101.646C90.1841 101.616 90.134 101.633 90.1479 101.666C90.8854 103.336 91.5644 105.039 92.3324 106.7C93.1005 108.361 93.9325 110.003 94.7395 111.653C94.759 111.698 94.8286 111.673 94.8091 111.628C94.0661 109.959 93.3565 108.272 92.5912 106.608Z" fill="#263238"/>
<path d="M88.7892 101.563C88.3133 101.841 87.8597 102.161 87.3978 102.462C86.9358 102.762 86.4822 103.046 86.0064 103.324C85.063 103.881 84.1002 104.407 83.1234 104.905C81.1576 105.913 79.1262 106.788 77.043 107.524C75.8798 107.933 74.7055 108.331 73.5117 108.637C73.4838 108.637 73.4978 108.681 73.5117 108.676C74.3827 108.467 75.2537 108.264 76.1136 108.019C75.6572 108.297 75.2092 108.606 74.7556 108.898C74.7525 108.902 74.7506 108.906 74.7502 108.911C74.7498 108.916 74.7509 108.921 74.7534 108.925C74.7559 108.929 74.7596 108.932 74.764 108.934C74.7684 108.935 74.7732 108.936 74.7778 108.935C75.2732 108.634 75.7769 108.347 76.2694 108.041C76.2752 108.038 76.2802 108.033 76.2841 108.028C76.288 108.022 76.2907 108.016 76.2921 108.01C76.2934 108.003 76.2933 107.996 76.2918 107.99C76.2903 107.983 76.2874 107.977 76.2833 107.972L76.723 107.844C77.7888 107.513 78.8407 107.142 79.8731 106.731C81.9178 105.907 83.8886 104.911 85.7643 103.753C86.293 103.425 86.8152 103.087 87.331 102.74C87.8498 102.401 88.3462 102.03 88.817 101.627C88.8754 101.594 88.8281 101.541 88.7892 101.563Z" fill="#263238"/>
<path d="M116.057 116.442C116.104 117.06 114.337 117.235 113.6 116.838C113.004 116.411 112.436 115.946 111.9 115.446C110.13 113.879 107.678 111.586 107.678 111.586L105.867 112.402L97.2678 115.343L93.2578 105.676C93.2578 105.676 97.5461 103.861 101.626 102.236L103.471 101.513L103.582 101.468C106.32 100.416 108.591 99.6204 108.819 99.7818C109.451 100.219 116.01 115.819 116.057 116.442Z" fill="#D3766A"/>
<path d="M116.057 116.442C116.104 117.06 114.337 117.238 113.6 116.838C113.004 116.411 112.436 115.946 111.9 115.446C110.13 113.88 107.678 111.587 107.678 111.587L105.867 112.405L105.625 112.488L101.397 102.337L101.631 102.245C102.257 101.994 102.875 101.752 103.476 101.518L103.588 101.474C106.326 100.422 108.597 99.6261 108.825 99.7903C109.451 100.219 116.01 115.819 116.057 116.442Z" fill="#EBEBEB"/>
<path d="M116.217 116.582C116.17 115.947 109.469 100.071 108.829 99.6289C108.589 99.4564 106.218 100.3 103.385 101.399L103.296 101.432L107.504 111.728L107.676 111.653C107.676 111.653 112.964 116.582 113.715 116.993C114.466 117.405 116.267 117.213 116.217 116.582Z" fill="#34A1D3"/>
<path d="M115.522 116.659C114.325 114.013 109.753 103.216 108.773 100.519C108.773 100.497 108.773 100.492 108.79 100.519C110.034 103.118 114.517 113.952 115.563 116.659C115.594 116.698 115.555 116.715 115.522 116.659Z" fill="#263238"/>
<path d="M108.006 112.853C107.363 111.881 106.982 110.526 107.394 109.405C107.408 109.36 107.472 109.382 107.475 109.421C107.578 110.562 107.804 111.688 108.148 112.78C108.158 112.799 108.159 112.821 108.153 112.841C108.146 112.861 108.132 112.878 108.113 112.887C108.094 112.897 108.073 112.899 108.052 112.892C108.032 112.886 108.016 112.871 108.006 112.853Z" fill="#263238"/>
<path d="M108.797 113.418C108.154 112.449 107.773 111.091 108.184 109.97C108.198 109.928 108.262 109.95 108.265 109.989C108.364 111.133 108.586 112.263 108.927 113.359C108.932 113.376 108.931 113.394 108.923 113.41C108.916 113.425 108.903 113.438 108.887 113.445C108.871 113.452 108.853 113.453 108.837 113.448C108.82 113.443 108.806 113.432 108.797 113.418Z" fill="#263238"/>
<path d="M109.576 113.985C108.934 113.014 108.552 111.659 108.964 110.537C108.978 110.493 109.039 110.518 109.045 110.557C109.144 111.7 109.366 112.829 109.707 113.924C109.714 113.941 109.714 113.96 109.707 113.977C109.7 113.994 109.687 114.008 109.67 114.016C109.654 114.024 109.635 114.025 109.617 114.019C109.6 114.013 109.585 114.001 109.576 113.985Z" fill="#263238"/>
<path d="M107.6 114.085C107.865 113.095 107.692 112.026 107.645 111.024C107.642 111.002 107.634 110.981 107.622 110.962C107.609 110.944 107.593 110.929 107.573 110.918C107.553 110.907 107.532 110.901 107.509 110.9C107.487 110.899 107.465 110.904 107.445 110.913C107.445 110.913 107.414 110.888 107.397 110.913C106.599 111.626 106.003 112.537 105.669 113.554C105.485 114.149 105.555 115.029 106.298 115.201C107.041 115.374 107.45 114.664 107.6 114.085ZM106.866 114.711C105.789 115.385 105.872 113.877 106.031 113.454C106.136 113.175 106.259 112.904 106.398 112.641C106.677 112.085 107.038 111.595 107.375 111.077C107.375 111.573 107.4 112.065 107.411 112.56C107.414 113.15 107.45 114.339 106.866 114.711Z" fill="#263238"/>
<path d="M104.308 108.063C103.751 108.595 104.152 109.385 104.617 109.8C105.426 110.499 106.405 110.974 107.455 111.175C107.48 111.175 107.492 111.161 107.494 111.141C107.516 111.139 107.537 111.131 107.556 111.119C107.575 111.107 107.59 111.09 107.601 111.071C107.612 111.052 107.619 111.03 107.62 111.008C107.621 110.986 107.617 110.964 107.608 110.944C107.13 110.059 106.729 109.054 105.992 108.342C105.56 107.927 104.826 107.563 104.308 108.063ZM106.609 109.753C106.854 110.181 107.077 110.621 107.341 111.041C106.78 110.791 106.232 110.512 105.699 110.206C105.443 110.055 105.197 109.886 104.965 109.7C104.611 109.408 103.771 108.166 105.04 108.189C105.741 108.197 106.314 109.241 106.615 109.753H106.609Z" fill="#263238"/>
<path d="M82.8554 95.6244L94.7239 95.4463C94.7239 95.4463 97.2285 101.847 96.1988 103.758C95.1692 105.67 84.2329 108.386 84.2329 108.386L99.2599 102.668L104.269 114.183C104.269 114.183 85.9804 118.165 76.2824 117.177C72.6453 116.807 70.3635 112.057 72.4951 108.406C74.7352 104.565 82.8665 99.3116 82.8665 99.3116L82.8554 95.6244Z" fill="#37474F"/>
<path d="M98.8602 102.64C94.2631 104.741 89.6214 106.75 84.8767 108.5C84.2163 108.745 83.5558 108.986 82.8954 109.224C82.2108 109.469 81.529 109.753 80.8278 109.95C80.7944 109.95 80.8111 110.014 80.8445 110.003C81.4483 109.775 82.0772 109.613 82.6922 109.413C83.3072 109.213 83.8916 109.015 84.4871 108.809L85.2607 108.531L85.1049 108.639C84.8684 108.795 84.6318 108.954 84.3981 109.118C83.9194 109.458 83.4714 109.858 82.9677 110.159C82.9371 110.176 82.9677 110.226 82.9983 110.203C83.477 109.864 84.0168 109.611 84.5094 109.291C84.7459 109.135 84.9797 108.971 85.2134 108.806C85.432 108.664 85.6386 108.504 85.8312 108.328C86.5881 108.049 87.3423 107.771 88.0908 107.493C90.4562 106.595 92.791 105.625 95.0951 104.582C96.3835 103.998 97.658 103.391 98.9186 102.751C98.9826 102.723 98.9298 102.606 98.8602 102.64Z" fill="#263238"/>
<path d="M100.253 108.884C99.485 107.215 98.6418 105.584 97.8599 103.923C97.846 103.892 97.7931 103.909 97.807 103.942C98.5444 105.612 99.2262 107.315 99.9943 108.976C100.762 110.637 101.594 112.282 102.399 113.932C102.421 113.974 102.49 113.952 102.468 113.907C101.725 112.224 101.018 110.537 100.253 108.884Z" fill="#263238"/>
<path d="M82.6603 99.4369C81.3544 100.179 80.1019 101.011 78.9119 101.927C77.7208 102.81 76.5688 103.742 75.4696 104.738C74.913 105.239 74.3787 105.762 73.8611 106.302C73.3588 106.81 72.9024 107.361 72.4975 107.949C71.7783 109.013 71.4318 110.285 71.5124 111.567C71.5604 112.248 71.7203 112.917 71.9855 113.546C72.2706 114.16 72.6407 114.732 73.0847 115.243C73.1014 115.265 73.132 115.243 73.1125 115.212C72.6959 114.741 72.3805 114.189 72.1859 113.59C71.8712 112.74 71.7494 111.83 71.8293 110.927C71.9092 110.023 72.1888 109.149 72.6478 108.367C73.3769 107.156 74.4483 106.155 75.4668 105.192C76.5188 104.2 77.6204 103.262 78.7672 102.381C79.409 101.886 80.0584 101.402 80.7151 100.931C81.3746 100.458 82.0481 100.005 82.6937 99.5092C82.7003 99.5033 82.7048 99.4953 82.7066 99.4866C82.7083 99.4779 82.7073 99.4689 82.7036 99.4608C82.6998 99.4527 82.6936 99.446 82.6858 99.4417C82.678 99.4374 82.6691 99.4357 82.6603 99.4369Z" fill="#263238"/>
<path d="M86.1108 99.9156C85.1242 99.6105 84.107 99.4155 83.0775 99.334C82.0674 99.2226 81.0545 99.167 80.036 99.1531C80.0081 99.1531 80.0109 99.192 80.036 99.1948C81.0684 99.2866 82.098 99.4174 83.1193 99.5705C84.1406 99.7235 85.1006 99.9323 86.0996 100.013C86.1581 100.016 86.1581 99.9323 86.1108 99.9156Z" fill="#263238"/>
<path d="M94.1815 100.055C93.5486 100.04 92.9174 99.9832 92.292 99.8849C91.7663 99.8595 91.2558 99.7005 90.8088 99.4229C89.9739 98.7912 89.6233 97.6809 89.4452 96.6902C89.4452 96.668 89.4007 96.6735 89.4034 96.6902C89.5482 97.7672 89.5955 99.0055 90.5444 99.729C91.0184 100.055 91.5801 100.231 92.1556 100.233C92.8334 100.261 93.5123 100.219 94.1815 100.107C94.185 100.107 94.1884 100.107 94.1916 100.105C94.1948 100.104 94.1977 100.102 94.2002 100.1C94.2026 100.097 94.2046 100.094 94.2059 100.091C94.2072 100.088 94.2079 100.085 94.2079 100.081C94.2079 100.078 94.2072 100.074 94.2059 100.071C94.2046 100.068 94.2026 100.065 94.2002 100.062C94.1977 100.06 94.1948 100.058 94.1916 100.057C94.1884 100.055 94.185 100.055 94.1815 100.055Z" fill="#263238"/>
<path d="M95.4837 101.766C95.4185 101.141 95.3068 100.521 95.1498 99.9126C95.0023 99.2865 94.8242 98.6687 94.6266 98.0565C94.4012 97.3636 94.1396 96.679 93.8669 96.0028C93.8669 95.9778 93.8168 96.0028 93.8252 96.0028C94.2175 97.1493 94.5765 98.3098 94.8743 99.4841C95.0227 100.067 95.1544 100.651 95.2694 101.237C95.4072 101.804 95.4072 102.396 95.2694 102.963C95.1065 103.538 94.7762 104.053 94.3205 104.44C94.3205 104.44 94.3205 104.454 94.3205 104.44C94.7189 104.124 95.0333 103.715 95.2362 103.248C95.439 102.782 95.524 102.273 95.4837 101.766Z" fill="#263238"/>
<path d="M97.5192 105.286C96.7178 105.495 95.933 105.77 95.1455 106.026C94.358 106.282 93.5705 106.536 92.7829 106.797C91.2107 107.323 89.644 107.866 88.0772 108.406C87.1868 108.715 86.3046 109.043 85.4197 109.366C85.3946 109.366 85.4058 109.413 85.4197 109.405C88.5865 108.421 91.7329 107.379 94.8589 106.277C95.7466 105.965 96.6482 105.676 97.5164 105.314C97.5443 105.306 97.5359 105.281 97.5192 105.286Z" fill="#263238"/>
<path d="M74.5576 86.664L76.5612 87.0925C77.3714 86.0709 77.8423 84.8217 77.9081 83.5194C77.9275 83.2217 78.2976 85.0221 77.5797 87.3124C79.6946 87.7687 82.5748 88.3837 85.0932 88.9013C85.3297 87.9218 85.5913 87.0285 85.5913 87.0285C85.5491 87.6901 85.5658 88.3541 85.6414 89.0126C85.9837 89.0878 86.3232 89.1518 86.646 89.2186C86.8978 87.8102 87.2267 86.4167 87.6311 85.0444C87.5348 86.5431 87.6862 88.0474 88.0791 89.4968C89.682 89.8085 90.7422 89.981 90.6894 89.892C88.7915 86.65 90.873 85.3867 90.6476 82.807C90.3694 79.7126 87.9344 78.7664 88.4214 76.5764C88.8193 74.7926 89.6597 71.5813 87.5254 70.4542C87.0253 69.7391 86.3262 69.1867 85.5148 68.8656C84.7034 68.5445 83.8156 68.4689 82.9616 68.6482C79.1186 69.3384 79.4859 75.1405 79.0267 76.2202C78.3756 77.7618 77.5018 78.182 76.5834 79.9074C75.6651 81.6327 76.2579 83.0436 76.1159 84.3181C75.974 85.5926 74.1569 86.5833 74.5576 86.664Z" fill="#263238"/>
<path d="M90.8364 89.5162C90.5952 88.9687 90.4331 88.3896 90.355 87.7964C90.3151 87.2165 90.4274 86.6361 90.6806 86.1129C90.9206 85.5521 91.1306 84.979 91.3095 84.3959C91.4933 83.7869 91.5529 83.1472 91.4848 82.5147C91.4011 81.8804 91.1747 81.2734 90.8225 80.7393C90.4763 80.2325 90.0901 79.7542 89.6677 79.3089C89.2573 78.8821 88.9038 78.4042 88.6158 77.8869C88.3477 77.3535 88.2312 76.7567 88.279 76.1616C88.1395 76.7663 88.1871 77.399 88.4154 77.976C88.6607 78.5433 88.99 79.0706 89.3921 79.5399C89.7739 79.9937 90.1262 80.4714 90.4468 80.9703C90.7454 81.4574 90.9352 82.0032 91.0034 82.5704C91.0595 83.1423 91.0095 83.7197 90.8559 84.2734C90.714 84.83 90.4969 85.3865 90.2993 85.9793C90.2002 86.2747 90.123 86.5769 90.0684 86.8837C90.0228 87.1993 90.0331 87.5206 90.099 87.8326C90.2418 88.4335 90.4916 89.0038 90.8364 89.5162Z" fill="#263238"/>
<path d="M80.55 70.3262C80.17 70.97 79.87 71.6578 79.6567 72.3743C79.4285 73.0839 79.2337 73.8046 79.0473 74.5226L78.769 75.594C78.6825 75.941 78.5613 76.2785 78.4072 76.6013C78.0701 77.2341 77.6203 77.7999 77.0799 78.271C76.8044 78.5308 76.5477 78.8097 76.3118 79.1058C76.0747 79.4143 75.8731 79.7485 75.7107 80.1021C75.5597 80.4548 75.4359 80.8185 75.3406 81.1902C75.2424 81.5645 75.191 81.9496 75.1876 82.3367C75.1876 82.7235 75.2182 83.0964 75.2404 83.4498C75.2651 83.8117 75.2549 84.1751 75.2098 84.5351C75.1528 84.8934 75.0112 85.233 74.7969 85.5258C74.5825 85.8186 74.3015 86.0561 73.9771 86.2186C74.3371 86.0873 74.6589 85.8684 74.9134 85.5818C75.168 85.2952 75.3473 84.9499 75.4352 84.5768C75.5137 84.2044 75.5538 83.8248 75.5549 83.4442C75.5549 83.0657 75.5354 82.6984 75.5549 82.3311C75.6147 81.6176 75.8033 80.9209 76.1114 80.2746C76.2647 79.9571 76.4513 79.6567 76.668 79.3786C76.8943 79.0967 77.1397 78.8307 77.4027 78.5827C77.6756 78.3179 77.9347 78.0393 78.1791 77.7478C78.4298 77.4482 78.6403 77.117 78.8052 76.7628C78.9601 76.4098 79.0804 76.0426 79.1642 75.6663C79.2532 75.3046 79.3283 74.94 79.4035 74.5755C79.5593 73.8492 79.7012 73.1229 79.8738 72.4049C80.0285 71.691 80.255 70.9945 80.55 70.3262Z" fill="#263238"/>
<path d="M85.4258 80.9479C83.3415 84.2567 79.2703 88.7397 76.4514 90.3064C75.2353 90.9827 69.9202 91.2331 66.6838 90.9521C65.4761 90.8463 66.7506 84.4431 68.0752 84.4125C68.9768 84.393 73.6741 85.1667 74.3448 84.9385C75.5804 84.5211 80.158 81.0648 83.2998 79.3228C85.0529 78.3516 86.7226 78.8887 85.4258 80.9479Z" fill="#D3766A"/>
<path d="M70.1243 84.9107C67.9426 84.0953 65.2739 82.9488 62.686 83.4052C62.3974 83.4487 62.1318 83.5878 61.9318 83.8003C60.7686 83.984 60.507 84.5879 60.507 84.5879C59.4746 85.0915 59.291 85.7483 59.291 85.7483C59.291 85.7483 57.9274 85.9793 57.9302 86.8252C57.9302 87.7769 59.8447 87.2677 61.0692 87.6294C63.877 88.4643 68.0456 90.5569 68.8331 90.877L70.1243 84.9107Z" fill="#D3766A"/>
<path d="M64.6192 86.4384C63.7984 86.1862 62.9617 85.9892 62.1147 85.8485C61.1815 85.7587 60.243 85.7382 59.3069 85.7873C59.3019 85.7855 59.2977 85.7823 59.2947 85.7781C59.2917 85.7739 59.29 85.7688 59.29 85.7636C59.29 85.7584 59.2917 85.7533 59.2947 85.7491C59.2977 85.7449 59.3019 85.7417 59.3069 85.7399C61.1107 85.4731 62.9532 85.707 64.6331 86.4162C64.6693 86.419 64.6609 86.4496 64.6192 86.4384Z" fill="#263238"/>
<path d="M65.3681 84.8188C64.5471 84.6407 63.1029 84.3374 60.5037 84.6213C60.5037 84.6213 60.4898 84.6074 60.5037 84.6046C62.1144 84.2075 63.804 84.2682 65.382 84.7799C65.4293 84.7938 65.4293 84.83 65.3681 84.8188Z" fill="#263238"/>
<path d="M65.7567 83.9394C64.494 83.7221 63.2076 83.6781 61.9331 83.8086V83.7947C63.6195 83.5164 64.2651 83.5916 65.7706 83.8921C65.8234 83.9032 65.8123 83.9505 65.7567 83.9394Z" fill="#263238"/>
<path d="M64.3892 88.8484C64.712 89.1016 64.5812 89.2714 63.8521 89.2714C63.123 89.2714 60.2345 88.6564 60.1065 89.6804C59.9785 90.7045 64.0608 91.3195 65.2741 91.4225C66.4881 91.5283 67.7096 91.3373 68.8333 90.8659C68.068 90.5598 65.878 89.4884 64.3892 88.8484Z" fill="#D3766A"/>
<path d="M77.918 82.1419L81.3324 87.3123C81.3324 87.3123 84.7219 83.6112 85.7209 81.0288C86.7199 78.4464 85.3758 78.3434 83.4947 79.1421C81.6135 79.9407 77.918 82.1419 77.918 82.1419Z" fill="#34A1D3"/>
<path d="M79.042 81.9665C79.0198 81.9303 78.9892 81.9359 79.0086 81.9665C79.8794 83.4685 80.8432 84.9147 81.8944 86.2965C81.8944 86.2965 81.9167 86.2965 81.9111 86.2965C81.5299 85.509 79.2814 82.3422 79.042 81.9665Z" fill="#263238"/>
<path opacity="0.1" d="M85.7233 81.0287C84.7242 83.6111 81.332 87.3122 81.332 87.3122L79.0195 83.8087L85.4645 78.7273C86.0934 78.8664 86.2993 79.5315 85.7233 81.0287Z" fill="black"/>
<path d="M80.3535 91.2136L79.9779 97.6335C79.9779 97.6335 92.4225 96.9183 95.8536 96.6623C95.8536 96.6623 92.3279 84.0201 88.6184 80.0045C86.7679 77.9954 84.5945 78.1456 83.2115 79.5482C82.8608 79.9044 79.4297 85.3002 78.99 87.4123C78.6171 89.274 80.3535 91.2136 80.3535 91.2136Z" fill="#34A1D3"/>
<path d="M85.0539 90.2062C84.3868 90.1464 83.7162 90.1353 83.0475 90.1729C82.7163 90.1979 82.388 90.2369 82.0596 90.2814C81.8954 90.3036 81.7312 90.3231 81.567 90.337C81.3943 90.3593 81.2194 90.3593 81.0467 90.337C81.0327 90.337 81.03 90.3565 81.0467 90.3593C81.206 90.3965 81.3678 90.4226 81.5309 90.4372C81.6892 90.4497 81.8484 90.4497 82.0067 90.4372C82.3434 90.4177 82.6802 90.3816 83.0169 90.3565C83.6959 90.3092 84.3721 90.2591 85.0539 90.2591C85.0817 90.2619 85.0845 90.209 85.0539 90.2062Z" fill="#263238"/>
<path d="M86.5792 91.0746C86.0496 90.9192 85.5117 90.7938 84.968 90.699C84.6897 90.6544 84.4114 90.6238 84.1471 90.6016L83.7519 90.5737C83.6072 90.5737 83.4597 90.5737 83.3178 90.5737C83.3011 90.5737 83.2983 90.596 83.3178 90.5988C83.4541 90.5988 83.5961 90.6461 83.7241 90.6683L84.1304 90.7323L84.9485 90.8604C85.4911 90.9411 86.0338 91.0245 86.5764 91.1247C86.5831 91.1251 86.5896 91.1228 86.5945 91.1184C86.5995 91.1139 86.6025 91.1077 86.6029 91.1011C86.6032 91.0944 86.6009 91.0879 86.5965 91.083C86.5921 91.078 86.5858 91.075 86.5792 91.0746Z" fill="#263238"/>
<path opacity="0.3" d="M87.3593 78.975L83.6081 79.206L83.7417 79.1058L87.2062 78.8943C87.2563 78.9193 87.3092 78.9444 87.3593 78.975ZM88.0383 79.4453L83.0654 79.7514C83.046 79.782 83.0209 79.8126 82.9987 79.8488L88.1412 79.5315C88.1089 79.5005 88.0745 79.4717 88.0383 79.4453ZM88.6366 80.0018L82.6397 80.3692C82.623 80.3998 82.6007 80.4332 82.5785 80.4666L88.7006 80.0881C88.6804 80.0612 88.6591 80.0352 88.6366 80.0102V80.0018ZM89.1152 80.5751L82.239 80.9981C82.2195 81.0287 82.2 81.0621 82.1777 81.0927L89.1848 80.6641C89.1631 80.636 89.1399 80.609 89.1152 80.5834V80.5751ZM89.5382 81.1483L81.8494 81.6298C81.8327 81.6632 81.8132 81.6938 81.7937 81.7272L89.5855 81.2457L89.5382 81.1483ZM89.9167 81.7299L81.4765 82.2475C81.4598 82.2809 81.4403 82.3115 81.4208 82.3449L89.9723 81.819C89.9561 81.7912 89.9384 81.7643 89.9194 81.7383L89.9167 81.7299ZM90.2673 82.3088L81.1147 82.8653C81.0954 82.8969 81.0778 82.9294 81.0618 82.9627L90.3202 82.4062L90.2673 82.3088ZM90.5984 82.8904L80.7585 83.497C80.7426 83.5294 80.7249 83.561 80.7057 83.5916L90.6457 82.9794C90.6318 82.9571 90.6151 82.9293 90.5984 82.8987V82.8904ZM90.9073 83.472L80.4218 84.1176C80.4029 84.1479 80.3862 84.1795 80.3717 84.2122L90.9463 83.561L90.9073 83.472ZM91.2051 84.0591L80.0934 84.7409L80.0461 84.8355L91.2496 84.1482L91.2051 84.0591ZM91.4834 84.6407L79.7818 85.3615L79.7372 85.4561L91.5251 84.7298L91.4834 84.6407ZM91.7616 85.2279L79.5007 85.982C79.4868 86.0154 79.4729 86.046 79.4617 86.0766L91.8006 85.3169C91.7867 85.2947 91.7728 85.2669 91.7616 85.2307V85.2279ZM92.0204 85.8123L79.2503 86.597C79.2363 86.6304 79.2252 86.661 79.2141 86.6916L92.0594 85.9013C92.0478 85.8738 92.0348 85.8468 92.0204 85.8206V85.8123ZM92.2737 86.3995L79.0471 87.2148C79.0471 87.2454 79.0304 87.276 79.0248 87.3066L92.3126 86.4885C92.3011 86.4609 92.2881 86.434 92.2737 86.4078V86.3995ZM92.5213 86.9866L78.9497 87.8215C78.9497 87.8521 78.9497 87.8827 78.9497 87.9133L92.5631 87.0785L92.5213 86.9866ZM92.7634 87.5738L78.9831 88.4309C78.9831 88.4615 78.9831 88.4921 78.997 88.5227L92.7996 87.6712C92.7857 87.6406 92.7746 87.6127 92.7634 87.5821V87.5738ZM92.9944 88.161L79.1139 89.0153C79.1139 89.0431 79.1334 89.0737 79.1445 89.1043L93.0306 88.25C93.0199 88.2225 93.0079 88.1956 92.9944 88.1693V88.161ZM93.2226 88.7481L79.3449 89.6136L79.3866 89.7026L93.2588 88.8483L93.2226 88.7481ZM93.4452 89.3353L79.6371 90.1868L79.6899 90.2759L93.4786 89.441C93.4703 89.4049 93.4564 89.377 93.4452 89.3436V89.3353ZM93.6651 89.9252L80.0127 90.7601L80.074 90.8491L93.6957 90.0143C93.6873 89.9948 93.6762 89.9614 93.6651 89.9336V89.9252ZM93.8793 90.5124L80.3467 91.3472V91.4391L93.9155 90.6042C93.902 90.5761 93.89 90.5473 93.8793 90.518V90.5124ZM94.0853 91.1051L80.3105 91.94V92.0346L94.1214 91.1831C94.1075 91.1747 94.0936 91.1441 94.0936 91.1135L94.0853 91.1051ZM94.2884 91.6923L80.2771 92.555V92.6496L94.3274 91.7841L94.2884 91.6923ZM94.4916 92.2823L80.2409 93.1588V93.2534L94.5277 92.3741C94.511 92.3518 94.4999 92.3212 94.4916 92.2906V92.2823ZM94.6864 92.8722L80.2159 93.7627V93.8573L94.7364 92.964L94.6864 92.8722ZM94.8784 93.4621L80.1797 94.3777V94.4695L94.9285 93.5623C94.9006 93.5317 94.8895 93.5011 94.8784 93.4705V93.4621ZM95.0676 94.0521L80.1352 94.9704V95.065L95.1038 94.1467C95.0899 94.1356 95.0787 94.0911 95.0676 94.0605V94.0521ZM95.254 94.6448L80.099 95.5771V95.6689L95.2874 94.7339C95.2735 94.7116 95.2652 94.6921 95.254 94.6532V94.6448ZM95.4349 95.2348L80.0628 96.1781V96.2755L95.4683 95.3266C95.4544 95.3044 95.4461 95.2737 95.4349 95.2487V95.2348ZM95.6158 95.8247L80.0322 96.7848V96.8766L95.6492 95.9166C95.6325 95.8971 95.6241 95.8637 95.6158 95.8331V95.8247ZM95.7883 96.4147L79.9933 97.3887V97.4833L95.8189 96.5093C95.805 96.4898 95.7967 96.4592 95.7883 96.423V96.4147Z" fill="#37474F"/>
<path d="M90.0934 82.1252C91.8437 86.0211 94.6488 93.6348 93.864 95.5438C92.2862 99.3868 85.9526 102.829 84.1104 103.614C83.2449 103.976 79.196 98.552 79.8833 97.8285C80.6347 97.0354 87.2549 93.0978 87.369 92.2073C87.4636 91.467 87.0128 86.7586 86.7345 83.1437C86.3867 78.5716 88.6129 78.8304 90.0934 82.1252Z" fill="#D3766A"/>
<path d="M81.8031 96.5483C81.8031 96.5483 78.9479 97.0353 77.0946 97.4416C76.0622 97.667 74.3257 98.2152 73.6412 98.7273C72.6199 99.4981 68.8381 103.363 69.7453 104.293C70.5801 105.142 73.4046 101.407 73.4046 101.407C73.4046 101.407 70.2183 104.922 71.4066 105.762C72.5948 106.603 75.2301 101.952 75.2301 101.952C75.2301 101.952 72.0355 105.64 73.3963 106.31C74.4259 106.817 77.0501 102.746 77.0501 102.746C77.0501 102.746 74.3257 105.932 75.3637 106.5C76.5074 107.123 79.165 103.516 79.165 103.516C82.0396 104.513 83.8178 103.811 85.0227 103.16C85.3233 103.013 81.8031 96.5483 81.8031 96.5483Z" fill="#D3766A"/>
<path d="M74.2934 100.3C71.7472 102.709 71.2324 104.671 71.263 104.624C71.8334 103.455 73.069 101.889 73.4224 101.454C73.7758 101.02 73.9595 100.745 74.3101 100.311C74.3185 100.302 74.3018 100.291 74.2934 100.3Z" fill="#263238"/>
<path d="M76.0257 101.371C74.9531 102.3 74.0542 103.413 73.371 104.657C73.3459 104.707 73.371 104.705 73.4071 104.657C73.8385 104.101 75.5805 101.919 76.0396 101.379C76.048 101.371 76.0341 101.371 76.0257 101.371Z" fill="#263238"/>
<path d="M77.5778 102.206C76.7626 102.944 76.0909 103.827 75.5965 104.81C75.5715 104.858 75.6132 104.855 75.6466 104.81C76.2866 103.931 76.7848 103.238 77.5945 102.233C77.6196 102.206 77.5945 102.181 77.5778 102.206Z" fill="#263238"/>
<path d="M86.4091 87.8049L92.5702 87.1509C92.5702 87.1509 90.8448 82.4369 89.011 80.3609C87.1771 78.285 86.4675 79.4343 86.3172 81.474C86.167 83.5138 86.4091 87.8049 86.4091 87.8049Z" fill="#34A1D3"/>
<path d="M86.7723 86.7251C86.7306 86.7251 86.7222 86.7585 86.7723 86.7557C88.506 86.674 90.2329 86.4835 91.9427 86.1853V86.163C91.0717 86.1519 87.2175 86.6862 86.7723 86.7251Z" fill="#263238"/>
<path d="M86.2378 83.0436C86.2378 84.6409 86.3074 86.3161 86.3658 87.8745C86.3658 87.9023 86.6246 87.83 86.7304 87.8105C86.7721 87.8105 86.7498 87.7604 86.7109 87.766C86.635 87.7729 86.5586 87.7729 86.4827 87.766C86.4242 86.1909 86.363 84.6159 86.2573 83.0352C86.2573 83.0325 86.2378 83.0325 86.2378 83.0436Z" fill="#263238"/>
<path d="M86.3001 79.5289C86.2334 79.8072 84.9088 81.5798 83.6398 81.5103C83.2307 81.4852 83.2613 79.2395 83.2613 79.2395L83.2252 79.0753L82.7271 76.7461L85.4737 75.0236L85.8688 74.7954C85.8688 74.7954 85.9634 75.441 86.072 76.2452L86.0886 76.3593C86.0886 76.4066 86.0887 76.4484 86.1081 76.4901C86.1248 76.6126 86.1443 76.735 86.1582 76.8575C86.1721 76.9799 86.1833 77.0411 86.1916 77.1357C86.2 77.2303 86.2111 77.3305 86.2222 77.4279C86.2967 78.1256 86.3228 78.8276 86.3001 79.5289Z" fill="#D3766A"/>
<path d="M86.069 76.2452C85.8287 76.8955 85.4495 77.4856 84.9579 77.9743C84.4662 78.4631 83.8739 78.8388 83.2222 79.0753L82.7241 76.7461L85.4707 75.0236L85.8659 74.7954C85.8659 74.7954 85.9605 75.441 86.069 76.2452Z" fill="#263238"/>
<path d="M80.0141 71.3308C77.7879 74.8621 79.6412 76.5986 80.4037 77.0772C81.0938 77.5141 83.5037 78.9139 86.0917 75.633C88.6797 72.3521 87.7419 70.201 86.2141 69.1185C84.6864 68.036 82.2487 67.8022 80.0141 71.3308Z" fill="#D3766A"/>
<path d="M80.9285 71.1581C81.0196 71.1904 81.1125 71.2174 81.2068 71.2388C81.2999 71.2819 81.4047 71.2927 81.5046 71.2694C81.5342 71.2558 81.5586 71.2331 81.5742 71.2045C81.5897 71.1759 81.5956 71.143 81.5908 71.1108C81.5709 71.048 81.5346 70.9918 81.4857 70.9477C81.4368 70.9037 81.377 70.8735 81.3126 70.8603C81.1873 70.8115 81.0483 70.8115 80.923 70.8603C80.8927 70.8721 80.8668 70.8928 80.8487 70.9198C80.8306 70.9468 80.8212 70.9787 80.8218 71.0111C80.8224 71.0436 80.833 71.0751 80.8521 71.1014C80.8712 71.1277 80.8978 71.1474 80.9285 71.1581Z" fill="#263238"/>
<path d="M83.2773 72.5132C83.2003 72.4556 83.1269 72.3933 83.0575 72.3268C82.97 72.2735 82.9032 72.192 82.8682 72.0958C82.8628 72.0631 82.8684 72.0296 82.884 72.0004C82.8996 71.9713 82.9243 71.948 82.9545 71.9344C83.0176 71.9169 83.0842 71.9167 83.1473 71.9339C83.2105 71.951 83.2679 71.9848 83.3135 72.0318C83.4216 72.1113 83.4961 72.2285 83.5222 72.3602C83.5275 72.3907 83.5236 72.4221 83.511 72.4505C83.4983 72.4788 83.4776 72.5027 83.4513 72.5191C83.425 72.5356 83.3944 72.5438 83.3634 72.5427C83.3324 72.5417 83.3024 72.5314 83.2773 72.5132Z" fill="#263238"/>
<path d="M82.2879 73.1785C82.2879 73.1785 82.3018 73.2007 82.2879 73.2091C82.1404 73.454 82.0096 73.7656 82.1877 73.966C81.9317 73.7851 82.107 73.3844 82.2879 73.1785Z" fill="#263238"/>
<path d="M82.653 73.045C83.0677 73.2425 82.653 74.0551 82.2607 73.8798C81.8683 73.7045 82.3052 72.8808 82.653 73.045Z" fill="#263238"/>
<path d="M82.7962 73.1702C82.8435 73.2537 82.8685 73.3733 82.952 73.4262C83.0355 73.4791 83.1635 73.4401 83.272 73.3928C83.272 73.3928 83.2859 73.3928 83.272 73.4095C83.2457 73.4904 83.1897 73.5582 83.1154 73.5995C83.0411 73.6408 82.9539 73.6525 82.8713 73.6321C82.7071 73.5737 82.671 73.3789 82.7127 73.2008C82.7294 73.1674 82.7767 73.1368 82.7962 73.1702Z" fill="#263238"/>
<path d="M80.9195 72.3352C80.9195 72.3352 80.8944 72.3352 80.8889 72.3352C80.7664 72.5912 80.5855 72.8667 80.3128 72.8333C80.3128 72.8333 80.2989 72.8472 80.3128 72.85C80.6078 72.9669 80.8471 72.5996 80.9195 72.3352Z" fill="#263238"/>
<path d="M80.827 71.9567C80.4347 71.7174 79.9922 72.5133 80.3512 72.7387C80.7102 72.9641 81.1554 72.1515 80.827 71.9567Z" fill="#263238"/>
<path d="M80.6294 71.9153C80.5432 71.9153 80.4374 71.9654 80.3512 71.9153C80.2649 71.8652 80.2426 71.7511 80.2343 71.637C80.2343 71.6231 80.2343 71.637 80.2176 71.637C80.1635 71.6997 80.1338 71.7797 80.1338 71.8624C80.1338 71.9452 80.1635 72.0252 80.2176 72.0879C80.3345 72.1908 80.4959 72.1129 80.6294 71.9821C80.6628 71.9682 80.6656 71.9125 80.6294 71.9153Z" fill="#263238"/>
<path d="M81.3115 75.1431C81.2272 75.1914 81.1293 75.21 81.0332 75.196C80.9381 75.1488 80.8538 75.0825 80.7855 75.0012C80.7855 75.0012 80.766 75.0012 80.7688 75.0012C80.7816 75.0692 80.8127 75.1323 80.8588 75.1838C80.9049 75.2354 80.9643 75.2733 81.0304 75.2934C81.0893 75.3038 81.15 75.2966 81.2049 75.2729C81.2598 75.2491 81.3065 75.2098 81.3393 75.1598C81.3393 75.1598 81.3254 75.1404 81.3115 75.1431Z" fill="#263238"/>
<path d="M80.736 73.6766C80.736 73.6766 80.4856 74.0245 80.391 74.1998C80.391 74.2165 80.4188 74.2471 80.4772 74.2833C80.614 74.3919 80.7781 74.4606 80.9515 74.4818C81.1249 74.5029 81.3007 74.4756 81.4596 74.4029C81.4818 74.4029 81.4596 74.364 81.4457 74.3667C81.1377 74.3991 80.8276 74.3318 80.5607 74.1747C80.5746 74.1191 81.0143 73.5959 80.9865 73.5792C80.8428 73.5167 80.691 73.4746 80.5357 73.454C81.0394 72.7166 81.6488 72.0626 82.1497 71.3224C82.1664 71.2973 82.1302 71.2667 82.108 71.2862C81.4243 71.9656 80.81 72.7114 80.2741 73.5124C80.2268 73.607 80.6609 73.6683 80.736 73.6766Z" fill="#263238"/>
<path d="M80.5488 74.2302C80.573 74.432 80.6498 74.624 80.7715 74.7868C80.8431 74.8735 80.9406 74.9349 81.0497 74.9621C81.2779 75.0261 81.3892 74.8452 81.4421 74.6671C81.4697 74.5719 81.4865 74.4739 81.4922 74.3749C81.1704 74.4309 80.8391 74.3801 80.5488 74.2302Z" fill="#263238"/>
<path d="M80.7715 74.7787C80.8431 74.8654 80.9406 74.9268 81.0498 74.954C81.278 75.018 81.3893 74.8371 81.4421 74.659C81.3336 74.5989 81.2077 74.5779 81.0855 74.5997C80.9634 74.6215 80.8525 74.6847 80.7715 74.7787Z" fill="#FF99BA"/>
<path d="M85.6668 75.6273C84.7735 75.1209 85.9673 72.1878 86.1176 71.8288C86.0119 72.0487 85.4442 73.2202 85.3329 73.2202C85.3022 73.2202 85.2132 73.1451 85.0741 73.0171C85.1463 72.8792 85.2077 72.7359 85.2577 72.5885C85.2828 72.5218 85.1603 72.7166 84.9961 72.9447L84.8514 72.8112C85.015 72.5219 85.1395 72.2121 85.2215 71.8901C85.2522 71.7676 84.9683 72.2435 84.6399 72.6164C83.983 71.9818 83.2579 71.4218 82.4777 70.9467C82.2551 70.8187 82.0575 70.7213 81.8794 70.6378C82.0547 70.2983 82.2829 69.956 82.2189 70.02C82.0435 70.1897 81.885 70.3761 81.7459 70.5766L81.4676 70.4597C81.693 69.9672 82.3219 69.3216 82.1828 69.3967C81.7674 69.6403 81.4013 69.9593 81.103 70.3373C80.7413 70.2315 80.6188 70.2482 80.655 70.1592C81.2445 69.266 82.1321 68.6111 83.1595 68.3114C84.8542 67.8328 87.2641 68.7455 87.6843 71.0636C87.6843 71.0636 88.38 72.2991 87.9626 73.4929C87.5452 74.6868 86.1844 75.9195 85.6668 75.6273Z" fill="#263238"/>
<path d="M85.1704 75.3379C85.1704 75.3379 86.5785 74.6004 86.9542 75.1597C87.3299 75.7191 85.8411 77.0854 85.1176 76.9936C85.0225 76.9888 84.9295 76.9647 84.844 76.9229C84.7585 76.8811 84.6824 76.8224 84.6202 76.7504C84.558 76.6783 84.5111 76.5944 84.4823 76.5038C84.4535 76.4131 84.4433 76.3175 84.4525 76.2228L85.1704 75.3379Z" fill="#D3766A"/>
<path d="M86.516 75.5411C86.516 75.5411 86.516 75.5606 86.516 75.5578C86.2674 75.5532 86.0205 75.6003 85.7911 75.6961C85.5616 75.7919 85.3546 75.9344 85.1831 76.1144C85.2303 76.086 85.2831 76.0679 85.3379 76.0614C85.3927 76.0549 85.4482 76.0601 85.5008 76.0767C85.5534 76.0933 85.6019 76.1209 85.6431 76.1576C85.6843 76.1943 85.7172 76.2393 85.7396 76.2897C85.7396 76.2897 85.7396 76.3148 85.7174 76.3064C85.6537 76.2428 85.572 76.2003 85.4833 76.1849C85.3947 76.1694 85.3034 76.1818 85.222 76.2201C85.0876 76.2876 84.96 76.3678 84.8408 76.4595C84.8018 76.4873 84.7406 76.4316 84.7796 76.3927C85.069 75.8389 85.8955 75.2907 86.516 75.5411Z" fill="#263238"/>
</g>
</g>
<defs>
<clipPath id="clip0_618_5556">
<rect width="116.32" height="120.973" fill="white" transform="translate(0.310547 0.912598)"/>
</clipPath>
<clipPath id="clip1_618_5556">
<rect width="116.32" height="120.494" fill="white" transform="translate(0.310547 0.912598)"/>
</clipPath>
</defs>
</svg>
