<svg width="61" height="55" viewBox="0 0 61 55" fill="none" xmlns="http://www.w3.org/2000/svg">
<rect width="50.8599" height="39.1895" rx="19.5947" transform="matrix(0.94514 0.326667 -0.2993 0.954159 12.4434 0.640137)" fill="#DDF0FA"/>
<g clip-path="url(#clip0_5088_1636)">
<path d="M44.7839 7.80708C42.9352 5.95458 40.2633 5.3752 37.7677 6.3202L5.75769 20.4708C2.51207 21.6915 1.51269 24.7196 1.95894 27.1758C2.40519 29.6358 4.41144 32.1165 7.87832 32.1165H20.4596L20.3321 44.844C20.3321 48.3108 22.8108 50.3133 25.2708 50.7615C25.6364 50.829 26.0152 50.8646 26.4014 50.8646C28.5933 50.8646 30.9389 49.734 31.9627 47.0171L46.2858 14.769C47.2083 12.3221 46.6327 9.65395 44.7839 7.80708ZM44.5496 14.0565L30.2264 46.3046C29.3283 48.6915 27.1702 49.2052 25.6064 48.9183C24.0371 48.6333 22.2071 47.394 22.2071 44.8533L22.3439 31.1883C22.3439 30.9371 22.2483 30.6971 22.0721 30.5208C21.8958 30.3446 21.6558 30.2433 21.4064 30.2433H7.87832C5.32832 30.2433 4.08894 28.4115 3.80207 26.844C3.51894 25.2765 4.03082 23.1277 6.46644 22.2071L38.4764 8.05458C39.0277 7.84833 39.5958 7.74708 40.1546 7.74708C41.3714 7.74708 42.5527 8.2252 43.4602 9.13083C44.7802 10.4527 45.1889 12.3596 44.5496 14.0565Z" fill="#323F49"/>
</g>
<defs>
<clipPath id="clip0_5088_1636">
<rect width="45" height="45" fill="white" transform="translate(1.71875 5.8667)"/>
</clipPath>
</defs>
</svg>
