<svg width="87" height="87" viewBox="0 0 87 87" fill="none" xmlns="http://www.w3.org/2000/svg">
<path d="M43.6546 36.1373C39.7237 36.1373 36.5271 39.334 36.5271 43.2648C36.5271 47.1956 39.7237 50.3923 43.6546 50.3923C47.5854 50.3923 50.7821 47.1956 50.7821 43.2648C50.7821 39.334 47.5854 36.1373 43.6546 36.1373ZM43.6546 46.8285C41.6909 46.8285 40.0908 45.2284 40.0908 43.2648C40.0908 41.3012 41.6909 39.701 43.6546 39.701C45.6182 39.701 47.2183 41.3012 47.2183 43.2648C47.2183 45.2284 45.6182 46.8285 43.6546 46.8285ZM1.40987 3.54323C0.714939 2.84473 0.714939 1.71859 1.40987 1.02009C2.1048 0.321599 3.23451 0.325163 3.933 1.02009L32.9241 30.0148L32.9633 12.9693C32.9633 11.9858 33.7652 11.191 34.7452 11.191C35.7288 11.191 36.5271 11.9929 36.5235 12.9765L36.4807 30.838C36.4807 33.7603 34.1037 36.1373 31.1779 36.1373H13.3627C12.3791 36.1373 11.5808 35.339 11.5808 34.3554C11.5808 33.3718 12.3791 32.5735 13.3627 32.5735H30.4437L1.40987 3.54323ZM50.8213 30.8344L50.7785 12.9765C50.7785 11.9929 51.5732 11.1946 52.5568 11.191C53.5368 11.191 54.3387 11.9858 54.3387 12.9693L54.3779 30.0148L83.3761 1.02009C84.071 0.325163 85.2008 0.325163 85.8957 1.02009C86.5906 1.71503 86.5906 2.84473 85.8957 3.53967L56.8654 32.5735H73.9464C74.93 32.5735 75.7283 33.3718 75.7283 34.3554C75.7283 35.339 74.93 36.1373 73.9464 36.1373H56.1277C53.2018 36.1373 50.8248 33.7603 50.8248 30.8344H50.8213ZM36.5235 55.7379V73.5567C36.5235 74.5403 35.7252 75.3385 34.7416 75.3385C33.758 75.3385 32.9597 74.5403 32.9597 73.5567V56.4756L3.933 85.5095C3.58376 85.8587 3.1276 86.0298 2.67144 86.0298C2.21528 86.0298 1.75912 85.8552 1.40987 85.5095C0.714939 84.8145 0.714939 83.6848 1.40987 82.9899L30.4045 53.9952L13.3591 53.956C12.3755 53.956 11.5772 53.1542 11.5808 52.1706C11.5844 51.187 12.3827 50.3923 13.3627 50.3923L31.2242 50.4351C34.1465 50.4351 36.5235 52.8156 36.5235 55.7379ZM85.8957 82.9863C86.5906 83.6813 86.5906 84.811 85.8957 85.5059C85.5464 85.8552 85.0903 86.0262 84.6341 86.0262C84.178 86.0262 83.7218 85.8516 83.3726 85.5059L54.385 56.5148L54.3458 73.5602C54.3458 74.5438 53.544 75.3385 52.5639 75.3385C51.5803 75.3385 50.7821 74.5367 50.7856 73.5531L50.8284 55.6916C50.8284 52.7729 53.2054 50.3923 56.1312 50.3923H73.95C74.9336 50.3923 75.7319 51.1906 75.7319 52.1742C75.7319 53.1578 74.9336 53.956 73.95 53.956H56.8689L85.8957 82.9863Z" fill="#323F49"/>
</svg>
