<?xml version="1.0" encoding="UTF-8"?>
<!DOCTYPE svg PUBLIC "-//W3C//DTD SVG 1.1//EN" "http://www.w3.org/Graphics/SVG/1.1/DTD/svg11.dtd">
<svg xmlns="http://www.w3.org/2000/svg" version="1.1" width="220px" height="220px" style="shape-rendering:geometricPrecision; text-rendering:geometricPrecision; image-rendering:optimizeQuality; fill-rule:evenodd; clip-rule:evenodd" xmlns:xlink="http://www.w3.org/1999/xlink">
<g><path style="opacity:1" fill="#fcfcfb" d="M -0.5,-0.5 C 72.8333,-0.5 146.167,-0.5 219.5,-0.5C 219.5,72.8333 219.5,146.167 219.5,219.5C 184.5,219.5 149.5,219.5 114.5,219.5C 120.396,215.782 125.896,211.449 131,206.5C 132.297,207.784 133.464,207.617 134.5,206C 133.833,205.667 133.167,205.333 132.5,205C 133.397,202.913 134.064,200.746 134.5,198.5C 136.903,198.607 138.736,197.607 140,195.5C 142.726,188.873 145.892,182.539 149.5,176.5C 148.652,174.591 148.318,172.591 148.5,170.5C 148.5,170.167 148.5,169.833 148.5,169.5C 149.708,168.766 151.041,168.433 152.5,168.5C 152.938,158.986 153.605,149.486 154.5,140C 153.224,132.397 151.557,124.897 149.5,117.5C 149.043,116.702 148.376,116.369 147.5,116.5C 147.068,115.29 146.401,114.29 145.5,113.5C 145.672,112.508 145.338,111.842 144.5,111.5C 142.421,103.348 139.255,95.6812 135,88.5C 128.386,80.1601 121.552,72.1601 114.5,64.5C 113.737,62.6316 112.737,60.9649 111.5,59.5C 110.89,57.5659 109.89,55.8993 108.5,54.5C 107.279,55.0283 106.113,55.695 105,56.5C 101.661,62.5281 96.9941,67.1948 91,70.5C 88.6972,72.5472 88.1972,74.8806 89.5,77.5C 85.4016,83.5948 81.735,89.9281 78.5,96.5C 74.6666,103.663 71.9999,111.33 70.5,119.5C 68.716,120.574 67.5494,122.24 67,124.5C 66.1674,136.514 66.3341,148.514 67.5,160.5C 68.1757,161.602 68.8423,162.602 69.5,163.5C 70.9159,175.075 74.9159,185.741 81.5,195.5C 83.5355,196.885 85.5355,198.218 87.5,199.5C 88.6056,202.054 89.439,204.721 90,207.5C 91.3561,208.38 92.8561,208.714 94.5,208.5C 94.5,210.167 94.5,211.833 94.5,213.5C 95.9778,213.238 97.3112,213.571 98.5,214.5C 100.567,215.767 102.234,217.433 103.5,219.5C 68.8333,219.5 34.1667,219.5 -0.5,219.5C -0.5,146.167 -0.5,72.8333 -0.5,-0.5 Z"/></g>
<g><path style="opacity:1" fill="#bababa" d="M 145.5,9.5 C 152.655,8.34485 159.988,8.17818 167.5,9C 175.894,14.7711 177.727,22.2711 173,31.5C 167.903,36.4887 161.736,38.4887 154.5,37.5C 151.5,37.1667 148.5,36.8333 145.5,36.5C 146.689,35.5713 148.022,35.238 149.5,35.5C 149.666,27.4931 149.5,19.4931 149,11.5C 148.184,10.1772 147.017,9.51056 145.5,9.5 Z"/></g>
<g><path style="opacity:1" fill="#f9f9f9" d="M 153.5,9.5 C 170.346,10.8277 174.679,18.9943 166.5,34C 162.55,35.6062 158.55,35.7729 154.5,34.5C 153.53,26.222 153.197,17.8886 153.5,9.5 Z"/></g>
<g><path style="opacity:1" fill="#3e3e3e" d="M 9.5,18.5 C 11.4918,18.3285 13.1585,18.9951 14.5,20.5C 18.3872,17.8726 22.2205,17.8726 26,20.5C 29.3137,18.6933 32.8137,18.1933 36.5,19C 37.8932,20.1711 38.7265,21.6711 39,23.5C 38.9277,28.3082 39.761,32.8082 41.5,37C 38.5,37.6667 35.5,37.6667 32.5,37C 33.4162,36.6258 34.2496,36.1258 35,35.5C 35.6667,31.5 35.6667,27.5 35,23.5C 32.5823,21.3199 29.9156,20.9865 27,22.5C 26.501,26.8206 26.3343,31.1539 26.5,35.5C 27.675,35.281 28.675,35.6143 29.5,36.5C 24.7606,37.9068 22.4273,37.9068 22.5,36.5C 22.6657,32.1539 22.499,27.8206 22,23.5C 19.7627,19.9801 17.0961,19.6468 14,22.5C 13.3333,26.8333 13.3333,31.1667 14,35.5C 14.7504,36.1258 15.5838,36.6258 16.5,37C 13.1667,37.6667 9.83333,37.6667 6.5,37C 7.41623,36.6258 8.24956,36.1258 9,35.5C 9.82831,30.798 9.66164,26.1313 8.5,21.5C 7.69194,21.1924 7.02527,20.6924 6.5,20C 7.73747,19.7679 8.73747,19.2679 9.5,18.5 Z"/></g>
<g><path style="opacity:1" fill="#3f3f3f" d="M 82.5,17.5 C 85.3245,17.0807 87.4912,18.0807 89,20.5C 90.3254,25.4012 90.8254,30.4012 90.5,35.5C 91.675,35.281 92.675,35.6143 93.5,36.5C 90.2156,37.657 86.8823,37.8236 83.5,37C 84.4162,36.6258 85.2496,36.1258 86,35.5C 86.6667,31.5 86.6667,27.5 86,23.5C 83.5823,21.3199 80.9156,20.9865 78,22.5C 77.501,26.8206 77.3343,31.1539 77.5,35.5C 78.675,35.281 79.675,35.6143 80.5,36.5C 77.2156,37.657 73.8823,37.8236 70.5,37C 71.4162,36.6258 72.2496,36.1258 73,35.5C 73.6667,31.1667 73.6667,26.8333 73,22.5C 71.7949,21.9288 70.6283,21.2621 69.5,20.5C 72.6391,18.2706 75.6391,18.2706 78.5,20.5C 79.9014,19.4793 81.2347,18.4793 82.5,17.5 Z"/></g>
<g><path style="opacity:1" fill="#3c3c3c" d="M 51.5,18.5 C 62.1566,16.6581 66.6566,20.9915 65,31.5C 60.1082,39.4838 54.1082,40.4838 47,34.5C 44.1787,27.8112 45.6787,22.4778 51.5,18.5 Z"/></g>
<g><path style="opacity:1" fill="#f3f3f3" d="M 51.5,20.5 C 59.9553,20.696 63.122,25.0293 61,33.5C 57.3032,37.5822 53.9699,37.2488 51,32.5C 48.8624,28.3562 49.029,24.3562 51.5,20.5 Z"/></g>
<g><path style="opacity:1" fill="#383839" d="M 102.5,18.5 C 107.423,19.0641 112.256,19.0641 117,18.5C 117.333,20.9342 116.166,21.9342 113.5,21.5C 113.752,24.3198 113.252,26.9865 112,29.5C 109.358,31.2376 106.525,32.5709 103.5,33.5C 103.709,34.086 104.043,34.586 104.5,35C 108.287,35.1596 111.954,35.8263 115.5,37C 117.915,43.6141 115.582,47.6141 108.5,49C 104.495,50.0981 100.995,49.2648 98,46.5C 97.3333,44.8333 97.3333,43.1667 98,41.5C 101.822,40.2135 102.322,38.2135 99.5,35.5C 100.313,34.1861 101.313,33.0195 102.5,32C 99.3171,30.9817 97.9838,28.815 98.5,25.5C 98.6667,24.1667 98.8333,22.8333 99,21.5C 100.518,20.8366 101.685,19.8366 102.5,18.5 Z"/></g>
<g><path style="opacity:1" fill="#e9e9e9" d="M 104.5,19.5 C 110.407,21.1579 111.74,24.6579 108.5,30C 102.925,30.0768 100.758,27.2435 102,21.5C 102.995,20.9341 103.828,20.2674 104.5,19.5 Z"/></g>
<g><path style="opacity:1" fill="#bbbbba" d="M 178.5,9.5 C 181.482,8.83511 184.648,8.50178 188,8.5C 191.95,8.40666 195.784,8.90666 199.5,10C 202.398,13.8649 202.065,17.3649 198.5,20.5C 199.945,22.0627 201.611,23.396 203.5,24.5C 205.744,31.1143 203.41,35.281 196.5,37C 190.804,37.8299 185.137,37.6632 179.5,36.5C 180.934,35.7702 182.1,34.7702 183,33.5C 183.5,25.8406 183.666,18.1739 183.5,10.5C 181.708,10.634 180.042,10.3007 178.5,9.5 Z"/></g>
<g><path style="opacity:1" fill="#f8f8f8" d="M 187.5,22.5 C 191.459,22.0713 194.959,23.0713 198,25.5C 200.359,33.939 197.193,36.939 188.5,34.5C 187.567,30.5705 187.234,26.5705 187.5,22.5 Z"/></g>
<g><path style="opacity:1" fill="#f9f9f9" d="M 187.5,10.5 C 195.686,9.81893 198.02,12.9856 194.5,20C 192.19,20.4966 189.857,20.6633 187.5,20.5C 187.5,17.1667 187.5,13.8333 187.5,10.5 Z"/></g>
<g><path style="opacity:1" fill="#3a3a3a" d="M 126.5,18.5 C 137.604,16.7709 142.104,21.4375 140,32.5C 133.216,40.7896 126.883,40.4563 121,31.5C 120.114,25.9465 121.947,21.6131 126.5,18.5 Z"/></g>
<g><path style="opacity:1" fill="#f2f2f2" d="M 127.5,20.5 C 131.49,19.6155 134.323,20.9489 136,24.5C 136.667,27.5 136.667,30.5 136,33.5C 132.399,37.6148 129.066,37.2814 126,32.5C 123.584,28.0174 124.084,24.0174 127.5,20.5 Z"/></g>
<g><path style="opacity:1" fill="#efeff1" d="M 103.5,38.5 C 106.649,38.2114 109.649,38.7114 112.5,40C 114.721,44.9598 113.055,47.4598 107.5,47.5C 100.311,46.7116 98.9774,43.7116 103.5,38.5 Z"/></g>
<g><path style="opacity:1" fill="#eafce3" d="M 108.5,54.5 C 108.509,56.3084 108.009,57.9751 107,59.5C 100.936,65.3952 95.1031,71.3952 89.5,77.5C 88.1972,74.8806 88.6972,72.5472 91,70.5C 96.9941,67.1948 101.661,62.5281 105,56.5C 106.113,55.695 107.279,55.0283 108.5,54.5 Z"/></g>
<g><path style="opacity:1" fill="#69ab5a" d="M 108.5,54.5 C 109.89,55.8993 110.89,57.5659 111.5,59.5C 110.833,59.5 110.5,59.8333 110.5,60.5C 108.672,61.7945 106.672,62.7945 104.5,63.5C 103.5,67.8333 100.833,70.5 96.5,71.5C 95.3444,75.5001 92.8444,78.5001 89,80.5C 85.9666,85.3717 83.1332,90.3717 80.5,95.5C 80.0431,96.2975 79.3764,96.6309 78.5,96.5C 81.735,89.9281 85.4016,83.5948 89.5,77.5C 95.1031,71.3952 100.936,65.3952 107,59.5C 108.009,57.9751 108.509,56.3084 108.5,54.5 Z"/></g>
<g><path style="opacity:1" fill="#41a136" d="M 111.5,59.5 C 112.737,60.9649 113.737,62.6316 114.5,64.5C 114.619,68.1252 116.453,70.4585 120,71.5C 119.654,76.3241 121.82,79.1574 126.5,80C 130.197,85.8856 134.03,91.7189 138,97.5C 138.505,99.5183 139.005,101.518 139.5,103.5C 139.694,106.33 140.361,108.996 141.5,111.5C 139.5,111.5 137.5,111.5 135.5,111.5C 135.662,109.473 135.495,107.473 135,105.5C 132.911,101.332 131.411,96.9983 130.5,92.5C 129.5,92.5 128.5,92.5 127.5,92.5C 128.467,96.2403 129.134,100.074 129.5,104C 127.888,111.65 127.221,119.483 127.5,127.5C 122.238,127.456 116.904,127.789 111.5,128.5C 111.575,105.826 111.241,83.1589 110.5,60.5C 110.5,59.8333 110.833,59.5 111.5,59.5 Z"/></g>
<g><path style="opacity:1" fill="#5b9c53" d="M 114.5,64.5 C 121.552,72.1601 128.386,80.1601 135,88.5C 139.255,95.6812 142.421,103.348 144.5,111.5C 143.061,108.794 141.394,106.127 139.5,103.5C 139.005,101.518 138.505,99.5183 138,97.5C 134.03,91.7189 130.197,85.8856 126.5,80C 121.82,79.1574 119.654,76.3241 120,71.5C 116.453,70.4585 114.619,68.1252 114.5,64.5 Z"/></g>
<g><path style="opacity:1" fill="#4cae3d" d="M 110.5,60.5 C 111.241,83.1589 111.575,105.826 111.5,128.5C 111.5,141.5 111.5,154.5 111.5,167.5C 111.666,175.174 111.5,182.841 111,190.5C 107.918,196.41 106.751,202.743 107.5,209.5C 106.596,210.209 106.263,211.209 106.5,212.5C 105.127,212.657 103.793,212.49 102.5,212C 100.852,209.517 98.6852,207.684 96,206.5C 94.3333,203.833 92.6667,201.167 91,198.5C 86.8042,196.112 84.9709,192.445 85.5,187.5C 82.922,186.587 80.5887,185.254 78.5,183.5C 77.6814,179.542 76.1814,175.875 74,172.5C 70.1088,154.988 69.4421,137.321 72,119.5C 73.7306,111.662 75.8973,103.995 78.5,96.5C 79.3764,96.6309 80.0431,96.2975 80.5,95.5C 83.1332,90.3717 85.9666,85.3717 89,80.5C 92.8444,78.5001 95.3444,75.5001 96.5,71.5C 100.833,70.5 103.5,67.8333 104.5,63.5C 106.672,62.7945 108.672,61.7945 110.5,60.5 Z"/></g>
<g><path style="opacity:1" fill="#4f8e49" d="M 145.5,113.5 C 146.401,114.29 147.068,115.29 147.5,116.5C 152.42,134.077 152.753,151.744 148.5,169.5C 148.5,169.833 148.5,170.167 148.5,170.5C 147.027,174.251 145.36,177.917 143.5,181.5C 144.523,174.741 146.19,168.074 148.5,161.5C 149.636,152.912 149.802,144.245 149,135.5C 148.929,127.861 147.762,120.528 145.5,113.5 Z"/></g>
<g><path style="opacity:1" fill="#409c38" d="M 139.5,103.5 C 141.394,106.127 143.061,108.794 144.5,111.5C 145.338,111.842 145.672,112.508 145.5,113.5C 147.762,120.528 148.929,127.861 149,135.5C 149.802,144.245 149.636,152.912 148.5,161.5C 147.5,161.5 146.5,161.5 145.5,161.5C 145.905,157.952 145.405,154.619 144,151.5C 143.774,154.095 143.274,156.595 142.5,159C 132.506,159.5 122.506,159.666 112.5,159.5C 112.806,162.385 112.473,165.052 111.5,167.5C 111.5,154.5 111.5,141.5 111.5,128.5C 116.904,127.789 122.238,127.456 127.5,127.5C 127.221,119.483 127.888,111.65 129.5,104C 129.134,100.074 128.467,96.2403 127.5,92.5C 128.5,92.5 129.5,92.5 130.5,92.5C 131.411,96.9983 132.911,101.332 135,105.5C 135.495,107.473 135.662,109.473 135.5,111.5C 137.5,111.5 139.5,111.5 141.5,111.5C 140.361,108.996 139.694,106.33 139.5,103.5 Z"/></g>
<g><path style="opacity:1" fill="#e9fde7" d="M 70.5,119.5 C 66.8565,134.048 66.5232,148.715 69.5,163.5C 68.8423,162.602 68.1757,161.602 67.5,160.5C 66.3341,148.514 66.1674,136.514 67,124.5C 67.5494,122.24 68.716,120.574 70.5,119.5 Z"/></g>
<g><path style="opacity:1" fill="#58a053" d="M 78.5,96.5 C 75.8973,103.995 73.7306,111.662 72,119.5C 69.4421,137.321 70.1088,154.988 74,172.5C 76.1814,175.875 77.6814,179.542 78.5,183.5C 76.8639,182.251 75.6972,180.584 75,178.5C 73.0353,173.429 71.202,168.429 69.5,163.5C 66.5232,148.715 66.8565,134.048 70.5,119.5C 71.9999,111.33 74.6666,103.663 78.5,96.5 Z"/></g>
<g><path style="opacity:1" fill="#ebfde8" d="M 147.5,116.5 C 148.376,116.369 149.043,116.702 149.5,117.5C 151.557,124.897 153.224,132.397 154.5,140C 153.605,149.486 152.938,158.986 152.5,168.5C 151.041,168.433 149.708,168.766 148.5,169.5C 152.753,151.744 152.42,134.077 147.5,116.5 Z"/></g>
<g><path style="opacity:1" fill="#3d9637" d="M 148.5,161.5 C 146.19,168.074 144.523,174.741 143.5,181.5C 143.34,183.153 142.674,184.486 141.5,185.5C 141.565,185.062 141.399,184.728 141,184.5C 138.42,187.422 136.42,190.755 135,194.5C 133.989,195.337 132.822,195.67 131.5,195.5C 130.695,201.432 127.361,205.099 121.5,206.5C 121.5,207.833 121.5,209.167 121.5,210.5C 117.888,211.076 114.888,210.076 112.5,207.5C 112.167,207.5 111.833,207.5 111.5,207.5C 110.892,203.528 110.392,199.528 110,195.5C 109.32,200.336 108.486,205.003 107.5,209.5C 106.751,202.743 107.918,196.41 111,190.5C 111.5,182.841 111.666,175.174 111.5,167.5C 112.473,165.052 112.806,162.385 112.5,159.5C 122.506,159.666 132.506,159.5 142.5,159C 143.274,156.595 143.774,154.095 144,151.5C 145.405,154.619 145.905,157.952 145.5,161.5C 146.5,161.5 147.5,161.5 148.5,161.5 Z"/></g>
<g><path style="opacity:1" fill="#e8fae4" d="M 148.5,170.5 C 148.318,172.591 148.652,174.591 149.5,176.5C 145.892,182.539 142.726,188.873 140,195.5C 138.736,197.607 136.903,198.607 134.5,198.5C 137.264,194.402 139.597,190.068 141.5,185.5C 142.674,184.486 143.34,183.153 143.5,181.5C 145.36,177.917 147.027,174.251 148.5,170.5 Z"/></g>
<g><path style="opacity:1" fill="#e1f8df" d="M 69.5,163.5 C 71.202,168.429 73.0353,173.429 75,178.5C 75.6972,180.584 76.8639,182.251 78.5,183.5C 80.671,189.328 83.671,194.662 87.5,199.5C 85.5355,198.218 83.5355,196.885 81.5,195.5C 74.9159,185.741 70.9159,175.075 69.5,163.5 Z"/></g>
<g><path style="opacity:1" fill="#559c4d" d="M 78.5,183.5 C 80.5887,185.254 82.922,186.587 85.5,187.5C 84.9709,192.445 86.8042,196.112 91,198.5C 92.6667,201.167 94.3333,203.833 96,206.5C 98.6852,207.684 100.852,209.517 102.5,212C 103.793,212.49 105.127,212.657 106.5,212.5C 106.263,211.209 106.596,210.209 107.5,209.5C 107.5,211.5 107.5,213.5 107.5,215.5C 106.749,216.573 105.749,216.74 104.5,216C 98.2763,210.941 92.6096,205.441 87.5,199.5C 83.671,194.662 80.671,189.328 78.5,183.5 Z"/></g>
<g><path style="opacity:1" fill="#bce7ad" d="M 111.5,207.5 C 110.072,210.072 108.738,212.739 107.5,215.5C 107.5,213.5 107.5,211.5 107.5,209.5C 108.486,205.003 109.32,200.336 110,195.5C 110.392,199.528 110.892,203.528 111.5,207.5 Z"/></g>
<g><path style="opacity:1" fill="#46843f" d="M 141.5,185.5 C 139.597,190.068 137.264,194.402 134.5,198.5C 129.177,204.821 123.177,210.488 116.5,215.5C 113.794,213.476 112.461,210.81 112.5,207.5C 114.888,210.076 117.888,211.076 121.5,210.5C 121.5,209.167 121.5,207.833 121.5,206.5C 127.361,205.099 130.695,201.432 131.5,195.5C 132.822,195.67 133.989,195.337 135,194.5C 136.42,190.755 138.42,187.422 141,184.5C 141.399,184.728 141.565,185.062 141.5,185.5 Z"/></g>
<g><path style="opacity:1" fill="#e5f5de" d="M 134.5,198.5 C 134.064,200.746 133.397,202.913 132.5,205C 133.167,205.333 133.833,205.667 134.5,206C 133.464,207.617 132.297,207.784 131,206.5C 125.896,211.449 120.396,215.782 114.5,219.5C 110.833,219.5 107.167,219.5 103.5,219.5C 102.234,217.433 100.567,215.767 98.5,214.5C 97.3112,213.571 95.9778,213.238 94.5,213.5C 94.5,211.833 94.5,210.167 94.5,208.5C 92.8561,208.714 91.3561,208.38 90,207.5C 89.439,204.721 88.6056,202.054 87.5,199.5C 92.6096,205.441 98.2763,210.941 104.5,216C 105.749,216.74 106.749,216.573 107.5,215.5C 108.738,212.739 110.072,210.072 111.5,207.5C 111.833,207.5 112.167,207.5 112.5,207.5C 112.461,210.81 113.794,213.476 116.5,215.5C 123.177,210.488 129.177,204.821 134.5,198.5 Z"/></g>
</svg>
