<svg width="86" height="86" viewBox="0 0 86 86" fill="none" xmlns="http://www.w3.org/2000/svg">
<path d="M81.8981 53.9258L50.6889 39.7626C47.466 38.6718 43.9668 39.4828 41.5691 41.8805C39.1148 44.3314 38.371 47.866 39.6425 51.4855L53.6108 82.2095C54.4537 84.0618 56.3131 85.2837 58.3814 85.3226H58.4487C60.471 85.3226 62.2914 84.1999 63.2016 82.3866L69.4916 69.803L82.0787 63.513C83.8991 62.5993 85.0502 60.6974 85.0148 58.6645C84.9793 56.628 83.7575 54.7651 81.9016 53.9258H81.8981ZM80.492 60.3433L66.8531 67.161L60.0354 80.7999C59.7308 81.4055 59.1677 81.7845 58.4912 81.7845C57.8148 81.7739 57.1171 81.363 56.8373 80.7433L42.9291 50.168C42.1677 47.9828 42.582 45.8755 44.0766 44.3845C45.0683 43.3893 46.3787 42.851 47.7883 42.851C48.4152 42.851 49.0633 42.9572 49.7079 43.1803L80.4318 57.1487C81.0481 57.4285 81.4554 58.0483 81.466 58.7247C81.4766 59.4012 81.0977 60.0387 80.492 60.3433ZM42.5537 0.326172C42.536 0.326172 42.5183 0.326172 42.497 0.326172C42.497 0.326172 42.497 0.326172 42.4935 0.326172C19.0866 0.358047 0.0537109 19.4122 0.0537109 42.8262C0.0537109 66.2401 19.1185 85.3262 42.5537 85.3262C43.17 85.3262 43.7862 85.312 44.3989 85.2872C45.3764 85.2447 46.1343 84.4195 46.0954 83.442C46.0529 82.468 45.21 81.6853 44.2537 81.7456C43.9279 81.7597 43.5985 81.7703 43.2727 81.7739C41.261 79.7551 33.5791 71.6093 28.7908 60.531H33.7031C34.6806 60.531 35.4739 59.7376 35.4739 58.7601C35.4739 57.7826 34.6806 56.9893 33.7031 56.9893H27.406C25.8583 52.5799 24.8489 47.8022 24.8489 42.8226C24.8489 37.843 25.8583 33.0653 27.4095 28.656H57.7156C58.3602 30.4905 58.9127 32.3924 59.3341 34.3403C59.5148 35.1691 60.2479 35.7393 61.0625 35.7393C61.1864 35.7393 61.3104 35.7287 61.4379 35.7003C62.3941 35.4949 62.9998 34.5528 62.7943 33.5966C62.4295 31.9072 61.9762 30.2603 61.4591 28.656H78.8487C80.57 33.0476 81.5156 37.8289 81.5156 42.8226C81.5156 43.3893 81.505 43.9524 81.4802 44.5155C81.4377 45.493 82.1956 46.3183 83.1731 46.3608C84.1718 46.4528 84.9793 45.6489 85.0183 44.6678C85.0466 44.0551 85.0573 43.4389 85.0573 42.8191C85.0537 19.391 65.9889 0.326172 42.5537 0.326172ZM3.59538 42.8262C3.59538 37.8324 4.541 33.0512 6.26225 28.6595H23.6341C22.2104 33.0724 21.3037 37.836 21.3037 42.8262C21.3037 47.8164 22.2104 52.5799 23.6341 56.9928H6.26225C4.541 52.6012 3.59538 47.8199 3.59538 42.8262ZM24.9127 60.5345C28.6881 69.9872 34.5566 77.4814 38.1691 81.5366C24.9339 80.0491 13.682 71.9033 7.856 60.5345H24.9127ZM24.9127 25.1178H7.856C13.682 13.7491 24.9339 5.60326 38.1727 4.11576C34.5602 8.17096 28.6881 15.6651 24.9127 25.1178ZM28.7943 25.1178C33.1293 15.0985 39.8337 7.46617 42.5537 4.61159C45.2808 7.46971 51.9923 15.1055 56.3237 25.1178H28.7943ZM60.1735 25.1178C56.391 15.6545 50.5331 8.16742 46.9277 4.11576C60.1664 5.60326 71.4183 13.7491 77.2479 25.1178H60.1735Z" fill="#323F49"/>
</svg>
