<svg width="84" height="82" viewBox="0 0 84 82" fill="none" xmlns="http://www.w3.org/2000/svg">
<path d="M59.6619 11.3446L65.4396 1.2421C65.8995 0.427167 66.9575 0.137563 67.7908 0.592174C68.6241 1.04342 68.9249 2.06714 68.4582 2.88207L62.6804 12.9845C62.3658 13.5368 61.7745 13.85 61.1695 13.85C60.8825 13.85 60.5955 13.7793 60.3293 13.6378C59.496 13.1866 59.1951 12.1595 59.6619 11.3446ZM83.5023 18.1738C83.115 17.3219 82.0985 16.9413 81.2237 17.3084L70.8508 21.7569C69.976 22.1306 69.5784 23.1274 69.9622 23.976C70.2492 24.6091 70.8819 24.9829 71.5458 24.9829C71.7775 24.9829 72.0161 24.9358 72.2408 24.8415L82.6137 20.393C83.4885 20.0192 83.8861 19.0224 83.5023 18.1738ZM21.628 12.9812C21.9426 13.5334 22.5339 13.8466 23.139 13.8466C23.4259 13.8466 23.7129 13.7759 23.9792 13.6345C24.8125 13.1832 25.1133 12.1595 24.6465 11.3446L18.8722 1.2421C18.4089 0.427167 17.3543 0.14093 16.5211 0.592174C15.6878 1.04342 15.3869 2.06714 15.8537 2.88207L21.6314 12.9845L21.628 12.9812ZM13.461 21.7569L3.08815 17.3084C2.22028 16.9447 1.19683 17.3185 0.809571 18.1738C0.425774 19.0224 0.823402 20.0192 1.69818 20.393L12.0711 24.8415C12.2958 24.9358 12.5344 24.9829 12.7661 24.9829C13.4299 24.9829 14.0627 24.6091 14.3497 23.976C14.7335 23.1274 14.3358 22.1306 13.461 21.7569ZM69.817 40.7832C69.817 49.4814 65.4638 57.688 58.1717 62.7358C56.8025 63.6855 55.9865 65.2143 55.9865 66.8273V71.094C55.9865 76.6638 51.3325 81.1964 45.6136 81.1964H38.6983C32.8791 81.1964 28.3254 76.5594 28.3254 70.636V66.824C28.3254 65.2143 27.499 63.6787 26.1125 62.719C17.6206 56.8192 13.2847 46.8716 14.7957 36.7523C16.5695 24.8954 26.7487 15.335 39.0095 14.015C46.9862 13.1529 54.6622 15.5304 60.6024 20.7062C66.4562 25.8147 69.817 33.1289 69.817 40.7832ZM52.5288 71.0906V67.7231H31.783V70.6326C31.783 74.7342 34.7531 77.8256 38.6983 77.8256H45.6136C49.4273 77.8256 52.5288 74.8049 52.5288 71.0906ZM66.3594 40.7832C66.3594 34.0886 63.4204 27.6836 58.2962 23.215C53.7978 19.2952 48.1618 17.2107 42.1905 17.2107C41.2639 17.2107 40.3303 17.2613 39.3864 17.3623C28.6677 18.514 19.7643 26.8721 18.2188 37.2372C16.8945 46.1004 20.6875 54.8155 28.118 59.9745C29.6877 61.0656 30.7838 62.6247 31.3439 64.3556H40.4271V47.3464C36.4854 46.5652 33.5119 43.164 33.5119 39.0994C33.5119 38.17 34.2864 37.4157 35.2407 37.4157C36.195 37.4157 36.9695 38.17 36.9695 39.0994C36.9695 41.8843 39.2965 44.1507 42.1559 44.1507C45.0154 44.1507 47.3424 41.8843 47.3424 39.0994C47.3424 38.17 48.1169 37.4157 49.0712 37.4157C50.0255 37.4157 50.8 38.17 50.8 39.0994C50.8 43.1674 47.8265 46.5652 43.8848 47.3464V64.3556H52.9645C53.5212 62.6281 54.6069 61.0723 56.1663 59.9913C62.5525 55.5732 66.3594 48.3937 66.3594 40.7832Z" fill="#323F49"/>
</svg>
