<?xml version="1.0" encoding="UTF-8"?>
<!DOCTYPE svg PUBLIC "-//W3C//DTD SVG 1.1//EN" "http://www.w3.org/Graphics/SVG/1.1/DTD/svg11.dtd">
<svg xmlns="http://www.w3.org/2000/svg" version="1.1" width="210px" height="220px" style="shape-rendering:geometricPrecision; text-rendering:geometricPrecision; image-rendering:optimizeQuality; fill-rule:evenodd; clip-rule:evenodd" xmlns:xlink="http://www.w3.org/1999/xlink">
<g><path style="opacity:1" fill="#fafafb" d="M -0.5,-0.5 C 26.1667,-0.5 52.8333,-0.5 79.5,-0.5C 79.5,-0.166667 79.5,0.166667 79.5,0.5C 61.8012,1.04028 44.8012,4.37361 28.5,10.5C 16.0247,13.8786 6.35806,20.8786 -0.5,31.5C -0.5,20.8333 -0.5,10.1667 -0.5,-0.5 Z"/></g>
<g><path style="opacity:1" fill="#f9fafa" d="M 114.5,-0.5 C 146.167,-0.5 177.833,-0.5 209.5,-0.5C 209.5,63.1667 209.5,126.833 209.5,190.5C 208.609,189.89 207.609,189.557 206.5,189.5C 203.997,187.167 201.331,185.001 198.5,183C 200.679,181.858 203.012,181.025 205.5,180.5C 206.521,179.998 206.688,179.332 206,178.5C 201.654,174.162 196.654,170.829 191,168.5C 188.092,161.686 184.926,155.019 181.5,148.5C 183.443,147.922 183.777,146.922 182.5,145.5C 184.186,144.143 185.852,142.81 187.5,141.5C 189.388,142.94 191.055,144.606 192.5,146.5C 195.91,144.024 198.076,140.69 199,136.5C 199.667,125.833 199.667,115.167 199,104.5C 198.617,105.056 198.117,105.389 197.5,105.5C 195.661,104.248 193.828,104.248 192,105.5C 191.506,103.866 191.34,102.199 191.5,100.5C 193.167,100.5 194.833,100.5 196.5,100.5C 196.498,98.1691 197.331,96.1691 199,94.5C 199.497,92.1902 199.663,89.8568 199.5,87.5C 199.667,76.495 199.5,65.495 199,54.5C 192.032,60.4039 184.199,64.9039 175.5,68C 164.964,71.7949 154.298,74.6282 143.5,76.5C 126.261,78.9255 108.927,79.9255 91.5,79.5C 65.592,79.4367 40.592,74.7701 16.5,65.5C 10.6412,62.4072 4.97452,59.0739 -0.5,55.5C -0.5,49.5 -0.5,43.5 -0.5,37.5C 2.89868,44.0679 7.89868,49.2345 14.5,53C 40.6382,64.8868 68.1382,70.3868 97,69.5C 111.244,69.4427 125.411,68.4427 139.5,66.5C 141.435,65.8505 143.435,65.5172 145.5,65.5C 153.122,64.1171 160.455,62.1171 167.5,59.5C 178.7,57.1512 188.2,51.8178 196,43.5C 200.845,36.8994 200.511,30.5661 195,24.5C 186.131,16.8117 175.964,11.3117 164.5,8C 147.854,4.1602 131.188,1.32686 114.5,-0.5 Z"/></g>
<g><path style="opacity:1" fill="#6b7385" d="M 79.5,0.5 C 84.8333,0.5 90.1667,0.5 95.5,0.5C 95.5,5.5 95.5,10.5 95.5,15.5C 100.833,15.5 106.167,15.5 111.5,15.5C 110.776,21.0083 111.776,26.0083 114.5,30.5C 118.783,31.4922 123.116,31.8256 127.5,31.5C 127.5,35.8333 127.5,40.1667 127.5,44.5C 130.167,44.5 132.833,44.5 135.5,44.5C 135.5,45.5 135.5,46.5 135.5,47.5C 138.167,47.5 140.833,47.5 143.5,47.5C 143.028,53.7171 143.695,59.7171 145.5,65.5C 143.435,65.5172 141.435,65.8505 139.5,66.5C 138.378,65.8442 137.045,65.5108 135.5,65.5C 127.48,66.3346 119.48,66.8346 111.5,67C 114.167,66.3333 114.167,65.6667 111.5,65C 113.392,64.0266 115.392,63.3599 117.5,63C 113.496,60.5289 111.496,57.0289 111.5,52.5C 108.833,52.5 106.167,52.5 103.5,52.5C 103.5,49.8333 103.5,47.1667 103.5,44.5C 100.833,44.5 98.1667,44.5 95.5,44.5C 95.7852,42.712 95.4519,41.0453 94.5,39.5C 91.8333,37.5 89.5,35.1667 87.5,32.5C 84.9135,31.52 82.2469,31.1866 79.5,31.5C 79.5,28.8333 79.5,26.1667 79.5,23.5C 75.1667,23.5 70.8333,23.5 66.5,23.5C 66.6641,20.8127 66.4974,18.146 66,15.5C 65.6667,15.8333 65.3333,16.1667 65,16.5C 63.98,15.1095 63.1466,13.6095 62.5,12C 57.5801,11.0452 52.7468,9.87856 48,8.5C 45.689,12.4532 42.189,14.2865 37.5,14C 39.5951,14.5556 39.7618,15.0556 38,15.5C 34.4588,14.2264 31.2921,12.5598 28.5,10.5C 44.8012,4.37361 61.8012,1.04028 79.5,0.5 Z"/></g>
<g><path style="opacity:1" fill="#70778d" d="M 95.5,0.5 C 105.402,0.610474 115.069,1.77714 124.5,4C 128.5,4.66667 128.5,5.33333 124.5,6C 126.762,6.64188 128.929,7.47521 131,8.5C 135.873,8.29999 141.54,7.63333 148,6.5C 150.261,7.68245 152.095,9.34911 153.5,11.5C 152.094,13.026 150.928,14.6927 150,16.5C 148.333,16.1667 146.667,15.8333 145,15.5C 144.333,20.8333 144.333,26.1667 145,31.5C 153.561,30.3681 163.061,30.3681 173.5,31.5C 174.192,30.9747 174.692,30.3081 175,29.5C 175.5,30.6667 176.333,31.5 177.5,32C 176.833,32.3333 176.167,32.6667 175.5,33C 176.071,40.3815 176.404,47.5482 176.5,54.5C 173.302,55.9932 170.302,57.6599 167.5,59.5C 160.455,62.1171 153.122,64.1171 145.5,65.5C 143.695,59.7171 143.028,53.7171 143.5,47.5C 140.833,47.5 138.167,47.5 135.5,47.5C 135.5,46.5 135.5,45.5 135.5,44.5C 132.833,44.5 130.167,44.5 127.5,44.5C 127.5,40.1667 127.5,35.8333 127.5,31.5C 123.116,31.8256 118.783,31.4922 114.5,30.5C 111.776,26.0083 110.776,21.0083 111.5,15.5C 106.167,15.5 100.833,15.5 95.5,15.5C 95.5,10.5 95.5,5.5 95.5,0.5 Z"/></g>
<g><path style="opacity:1" fill="#666c7e" d="M 139.5,66.5 C 125.411,68.4427 111.244,69.4427 97,69.5C 68.1382,70.3868 40.6382,64.8868 14.5,53C 7.89868,49.2345 2.89868,44.0679 -0.5,37.5C -0.5,35.5 -0.5,33.5 -0.5,31.5C 6.35806,20.8786 16.0247,13.8786 28.5,10.5C 31.2921,12.5598 34.4588,14.2264 38,15.5C 39.7618,15.0556 39.5951,14.5556 37.5,14C 42.189,14.2865 45.689,12.4532 48,8.5C 52.7468,9.87856 57.5801,11.0452 62.5,12C 63.1466,13.6095 63.98,15.1095 65,16.5C 65.3333,16.1667 65.6667,15.8333 66,15.5C 66.4974,18.146 66.6641,20.8127 66.5,23.5C 70.8333,23.5 75.1667,23.5 79.5,23.5C 79.5,26.1667 79.5,28.8333 79.5,31.5C 82.2469,31.1866 84.9135,31.52 87.5,32.5C 89.5,35.1667 91.8333,37.5 94.5,39.5C 95.4519,41.0453 95.7852,42.712 95.5,44.5C 98.1667,44.5 100.833,44.5 103.5,44.5C 103.5,47.1667 103.5,49.8333 103.5,52.5C 106.167,52.5 108.833,52.5 111.5,52.5C 111.496,57.0289 113.496,60.5289 117.5,63C 115.392,63.3599 113.392,64.0266 111.5,65C 114.167,65.6667 114.167,66.3333 111.5,67C 119.48,66.8346 127.48,66.3346 135.5,65.5C 137.045,65.5108 138.378,65.8442 139.5,66.5 Z"/></g>
<g><path style="opacity:1" fill="#737d90" d="M 79.5,0.5 C 79.5,0.166667 79.5,-0.166667 79.5,-0.5C 91.1667,-0.5 102.833,-0.5 114.5,-0.5C 131.188,1.32686 147.854,4.1602 164.5,8C 175.964,11.3117 186.131,16.8117 195,24.5C 200.511,30.5661 200.845,36.8994 196,43.5C 188.2,51.8178 178.7,57.1512 167.5,59.5C 170.302,57.6599 173.302,55.9932 176.5,54.5C 176.404,47.5482 176.071,40.3815 175.5,33C 176.167,32.6667 176.833,32.3333 177.5,32C 176.333,31.5 175.5,30.6667 175,29.5C 174.692,30.3081 174.192,30.9747 173.5,31.5C 163.061,30.3681 153.561,30.3681 145,31.5C 144.333,26.1667 144.333,20.8333 145,15.5C 146.667,15.8333 148.333,16.1667 150,16.5C 150.928,14.6927 152.094,13.026 153.5,11.5C 152.095,9.34911 150.261,7.68245 148,6.5C 141.54,7.63333 135.873,8.29999 131,8.5C 128.929,7.47521 126.762,6.64188 124.5,6C 128.5,5.33333 128.5,4.66667 124.5,4C 115.069,1.77714 105.402,0.610474 95.5,0.5C 90.1667,0.5 84.8333,0.5 79.5,0.5 Z"/></g>
<g><path style="opacity:1" fill="#5d6173" d="M -0.5,55.5 C 4.97452,59.0739 10.6412,62.4072 16.5,65.5C 16.0825,66.2216 15.4158,66.7216 14.5,67C 18.9293,67.7126 22.596,69.7126 25.5,73C 30.5157,74.1172 35.849,75.1172 41.5,76C 35.8252,76.4641 35.4919,77.1307 40.5,78C 37.5682,78.9533 34.5682,79.4533 31.5,79.5C 31.5,82.1667 31.5,84.8333 31.5,87.5C 34.1667,87.5 36.8333,87.5 39.5,87.5C 39.5,90.1667 39.5,92.8333 39.5,95.5C 42.1667,95.5 44.8333,95.5 47.5,95.5C 47.5,98.1667 47.5,100.833 47.5,103.5C 52.8333,103.5 58.1667,103.5 63.5,103.5C 63.7771,106.448 63.4438,109.281 62.5,112C 70.0168,111.376 77.6835,111.376 85.5,112C 77.6365,114.719 69.6365,115.219 61.5,113.5C 59.7165,112.545 57.7165,111.878 55.5,111.5C 50.1396,111.319 44.8063,111.652 39.5,112.5C 25.9382,109.803 14.1049,103.803 4,94.5C 2.47576,92.1019 0.97576,89.7686 -0.5,87.5C -0.5,76.8333 -0.5,66.1667 -0.5,55.5 Z"/></g>
<g><path style="opacity:1" fill="#6d7588" d="M 199.5,87.5 C 195.886,94.4472 190.553,99.7805 183.5,103.5C 183.265,102.903 182.765,102.57 182,102.5C 179.773,103.363 177.607,104.363 175.5,105.5C 173.109,105.001 170.776,104.668 168.5,104.5C 164.14,103.833 160.807,101.5 158.5,97.5C 158.709,96.914 159.043,96.414 159.5,96C 156.854,95.5026 154.187,95.3359 151.5,95.5C 151.5,92.8333 151.5,90.1667 151.5,87.5C 149.5,87.5 147.5,87.5 145.5,87.5C 145.336,84.8127 145.503,82.146 146,79.5C 146.333,79.8333 146.667,80.1667 147,80.5C 147.772,79.1509 148.939,78.3176 150.5,78C 148.187,77.338 145.854,76.838 143.5,76.5C 154.298,74.6282 164.964,71.7949 175.5,68C 184.199,64.9039 192.032,60.4039 199,54.5C 199.5,65.495 199.667,76.495 199.5,87.5 Z"/></g>
<g><path style="opacity:1" fill="#616678" d="M 16.5,65.5 C 40.592,74.7701 65.592,79.4367 91.5,79.5C 91.5,80.5 91.5,81.5 91.5,82.5C 92.8333,82.5 94.1667,82.5 95.5,82.5C 95.7035,84.3904 95.0368,85.8904 93.5,87C 95.3213,89.456 95.988,92.2893 95.5,95.5C 100.833,96.1667 106.167,96.8333 111.5,97.5C 111.337,99.8568 111.503,102.19 112,104.5C 114.697,106.7 117.197,109.033 119.5,111.5C 117.951,111.736 116.451,111.736 115,111.5C 113.221,113.017 113.721,113.851 116.5,114C 113.416,115.063 110.416,116.23 107.5,117.5C 98.805,117.134 89.1384,116.968 78.5,117C 72.3664,117.116 66.6997,115.949 61.5,113.5C 69.6365,115.219 77.6365,114.719 85.5,112C 77.6835,111.376 70.0168,111.376 62.5,112C 63.4438,109.281 63.7771,106.448 63.5,103.5C 58.1667,103.5 52.8333,103.5 47.5,103.5C 47.5,100.833 47.5,98.1667 47.5,95.5C 44.8333,95.5 42.1667,95.5 39.5,95.5C 39.5,92.8333 39.5,90.1667 39.5,87.5C 36.8333,87.5 34.1667,87.5 31.5,87.5C 31.5,84.8333 31.5,82.1667 31.5,79.5C 34.5682,79.4533 37.5682,78.9533 40.5,78C 35.4919,77.1307 35.8252,76.4641 41.5,76C 35.849,75.1172 30.5157,74.1172 25.5,73C 22.596,69.7126 18.9293,67.7126 14.5,67C 15.4158,66.7216 16.0825,66.2216 16.5,65.5 Z"/></g>
<g><path style="opacity:1" fill="#676d80" d="M 143.5,76.5 C 145.854,76.838 148.187,77.338 150.5,78C 148.939,78.3176 147.772,79.1509 147,80.5C 146.667,80.1667 146.333,79.8333 146,79.5C 145.503,82.146 145.336,84.8127 145.5,87.5C 147.5,87.5 149.5,87.5 151.5,87.5C 151.5,90.1667 151.5,92.8333 151.5,95.5C 154.187,95.3359 156.854,95.5026 159.5,96C 159.043,96.414 158.709,96.914 158.5,97.5C 160.807,101.5 164.14,103.833 168.5,104.5C 168.428,106.311 167.595,107.644 166,108.5C 160.906,111.279 155.573,112.279 150,111.5C 142.868,114.717 135.368,116.05 127.5,115.5C 127.5,114.167 127.5,112.833 127.5,111.5C 124.021,112.056 121.355,112.056 119.5,111.5C 117.197,109.033 114.697,106.7 112,104.5C 111.503,102.19 111.337,99.8568 111.5,97.5C 106.167,96.8333 100.833,96.1667 95.5,95.5C 95.988,92.2893 95.3213,89.456 93.5,87C 95.0368,85.8904 95.7035,84.3904 95.5,82.5C 94.1667,82.5 92.8333,82.5 91.5,82.5C 91.5,81.5 91.5,80.5 91.5,79.5C 108.927,79.9255 126.261,78.9255 143.5,76.5 Z"/></g>
<g><path style="opacity:1" fill="#f7f7f9" d="M -0.5,87.5 C 0.97576,89.7686 2.47576,92.1019 4,94.5C 14.1049,103.803 25.9382,109.803 39.5,112.5C 81.2582,122.141 122.925,121.641 164.5,111C 171.079,109.041 177.412,106.541 183.5,103.5C 190.553,99.7805 195.886,94.4472 199.5,87.5C 199.663,89.8568 199.497,92.1902 199,94.5C 197.331,96.1691 196.498,98.1691 196.5,100.5C 194.833,100.5 193.167,100.5 191.5,100.5C 191.34,102.199 191.506,103.866 192,105.5C 193.828,104.248 195.661,104.248 197.5,105.5C 193.241,109.641 188.241,112.808 182.5,115C 174.943,118.144 167.277,120.977 159.5,123.5C 171.122,125.976 180.455,131.976 187.5,141.5C 185.852,142.81 184.186,144.143 182.5,145.5C 183.777,146.922 183.443,147.922 181.5,148.5C 177.668,144.836 173.668,141.336 169.5,138C 166.102,136.084 162.435,135.084 158.5,135C 155.298,132.072 151.631,130.738 147.5,131C 146.426,131.739 145.759,132.739 145.5,134C 149.378,139.257 152.044,145.09 153.5,151.5C 152.255,152.602 150.922,153.602 149.5,154.5C 146.102,150.768 145.768,151.268 148.5,156C 147.309,156.698 146.309,157.531 145.5,158.5C 143.468,150.772 140.134,143.772 135.5,137.5C 135.26,134.421 135.593,131.421 136.5,128.5C 130.841,127.589 125.174,127.755 119.5,129C 95.2696,130.629 71.2696,129.129 47.5,124.5C 29.7973,121.641 13.7973,114.974 -0.5,104.5C -0.5,98.8333 -0.5,93.1667 -0.5,87.5 Z"/></g>
<g><path style="opacity:1" fill="#616673" d="M 183.5,103.5 C 177.412,106.541 171.079,109.041 164.5,111C 122.925,121.641 81.2582,122.141 39.5,112.5C 44.8063,111.652 50.1396,111.319 55.5,111.5C 57.7165,111.878 59.7165,112.545 61.5,113.5C 66.6997,115.949 72.3664,117.116 78.5,117C 89.1384,116.968 98.805,117.134 107.5,117.5C 110.416,116.23 113.416,115.063 116.5,114C 113.721,113.851 113.221,113.017 115,111.5C 116.451,111.736 117.951,111.736 119.5,111.5C 121.355,112.056 124.021,112.056 127.5,111.5C 127.5,112.833 127.5,114.167 127.5,115.5C 135.368,116.05 142.868,114.717 150,111.5C 155.573,112.279 160.906,111.279 166,108.5C 167.595,107.644 168.428,106.311 168.5,104.5C 170.776,104.668 173.109,105.001 175.5,105.5C 177.607,104.363 179.773,103.363 182,102.5C 182.765,102.57 183.265,102.903 183.5,103.5 Z"/></g>
<g><path style="opacity:1" fill="#6a7181" d="M 187.5,141.5 C 180.455,131.976 171.122,125.976 159.5,123.5C 167.277,120.977 174.943,118.144 182.5,115C 188.241,112.808 193.241,109.641 197.5,105.5C 198.117,105.389 198.617,105.056 199,104.5C 199.667,115.167 199.667,125.833 199,136.5C 198.076,140.69 195.91,144.024 192.5,146.5C 191.055,144.606 189.388,142.94 187.5,141.5 Z"/></g>
<g><path style="opacity:1" fill="#5c6072" d="M 47.5,124.5 C 71.2696,129.129 95.2696,130.629 119.5,129C 125.174,127.755 130.841,127.589 136.5,128.5C 135.593,131.421 135.26,134.421 135.5,137.5C 134.335,142.078 134.335,145.745 135.5,148.5C 135.846,149.696 136.346,149.696 137,148.5C 137.492,149.549 137.326,150.549 136.5,151.5C 141.185,154.539 143.185,158.872 142.5,164.5C 136.204,165.551 130.204,165.551 124.5,164.5C 118.976,164.923 113.642,165.923 108.5,167.5C 100.087,166.879 90.4202,166.879 79.5,167.5C 78.7742,165.43 78.1075,163.763 77.5,162.5C 70.1595,162.945 62.9928,163.278 56,163.5C 52.4818,162.745 48.9818,161.912 45.5,161C 44.3909,159.187 45.0576,158.354 47.5,158.5C 47.5,156.167 47.5,153.833 47.5,151.5C 44.8333,151.5 42.1667,151.5 39.5,151.5C 39.6641,148.813 39.4974,146.146 39,143.5C 36.9077,144.64 34.741,144.64 32.5,143.5C 31.52,140.914 31.1866,138.247 31.5,135.5C 28.8333,135.5 26.1667,135.5 23.5,135.5C 22.8333,146.167 22.1667,146.167 21.5,135.5C 19.5,135.5 17.5,135.5 15.5,135.5C 15.5,132.833 15.5,130.167 15.5,127.5C 12.8333,127.5 10.1667,127.5 7.5,127.5C 7.33591,124.813 7.50258,122.146 8,119.5C 9.39881,118.773 10.8988,118.273 12.5,118C 11.3044,117.346 11.3044,116.846 12.5,116.5C 19.9797,120.539 27.9797,123.039 36.5,124C 38.5212,124.401 39.8545,125.568 40.5,127.5C 42.7427,128.474 45.076,128.808 47.5,128.5C 47.5,127.167 47.5,125.833 47.5,124.5 Z"/></g>
<g><path style="opacity:1" fill="#595c6a" d="M -0.5,104.5 C 13.7973,114.974 29.7973,121.641 47.5,124.5C 47.5,125.833 47.5,127.167 47.5,128.5C 45.076,128.808 42.7427,128.474 40.5,127.5C 39.8545,125.568 38.5212,124.401 36.5,124C 27.9797,123.039 19.9797,120.539 12.5,116.5C 11.3044,116.846 11.3044,117.346 12.5,118C 10.8988,118.273 9.39881,118.773 8,119.5C 7.50258,122.146 7.33591,124.813 7.5,127.5C 10.1667,127.5 12.8333,127.5 15.5,127.5C 15.5,130.167 15.5,132.833 15.5,135.5C 17.5,135.5 19.5,135.5 21.5,135.5C 22.1667,146.167 22.8333,146.167 23.5,135.5C 26.1667,135.5 28.8333,135.5 31.5,135.5C 31.1866,138.247 31.52,140.914 32.5,143.5C 34.741,144.64 36.9077,144.64 39,143.5C 39.4974,146.146 39.6641,148.813 39.5,151.5C 42.1667,151.5 44.8333,151.5 47.5,151.5C 47.5,153.833 47.5,156.167 47.5,158.5C 45.0576,158.354 44.3909,159.187 45.5,161C 48.9818,161.912 52.4818,162.745 56,163.5C 62.9928,163.278 70.1595,162.945 77.5,162.5C 78.1075,163.763 78.7742,165.43 79.5,167.5C 90.4202,166.879 100.087,166.879 108.5,167.5C 113.642,165.923 118.976,164.923 124.5,164.5C 130.204,165.551 136.204,165.551 142.5,164.5C 143.185,158.872 141.185,154.539 136.5,151.5C 137.326,150.549 137.492,149.549 137,148.5C 136.346,149.696 135.846,149.696 135.5,148.5C 134.335,145.745 134.335,142.078 135.5,137.5C 140.134,143.772 143.468,150.772 145.5,158.5C 144.527,160.948 144.194,163.615 144.5,166.5C 111.02,171.163 77.6867,170.33 44.5,164C 31.552,161.19 19.552,156.19 8.5,149C 4.49052,145.839 1.49052,142.006 -0.5,137.5C -0.5,126.5 -0.5,115.5 -0.5,104.5 Z"/></g>
<g><path style="opacity:1" fill="#f9f9f9" d="M 206.5,189.5 C 207.609,189.557 208.609,189.89 209.5,190.5C 209.5,195.833 209.5,201.167 209.5,206.5C 201.5,206.5 193.5,206.5 185.5,206.5C 185.158,186.544 184.158,186.544 182.5,206.5C 181.669,199.858 181.169,193.191 181,186.5C 180.626,185.584 180.126,184.75 179.5,184C 177.579,183.64 175.912,182.806 174.5,181.5C 173.571,182.689 173.238,184.022 173.5,185.5C 172.713,187.104 171.38,187.771 169.5,187.5C 169.389,186.883 169.056,186.383 168.5,186C 161.5,185.333 154.5,185.333 147.5,186C 144.579,186.752 142.913,188.585 142.5,191.5C 141.834,194.358 141.167,197.358 140.5,200.5C 139.77,199.066 138.77,197.9 137.5,197C 132.231,195.894 126.897,195.227 121.5,195C 120.248,193.172 120.248,191.339 121.5,189.5C 127.5,189.5 133.5,189.5 139.5,189.5C 139.5,188.167 139.5,186.833 139.5,185.5C 136.165,184.865 132.832,183.865 129.5,182.5C 133.912,179.522 137.912,179.855 141.5,183.5C 143.483,182.53 145.483,181.53 147.5,180.5C 145.56,179.472 143.56,179.472 141.5,180.5C 140,180.547 139,179.881 138.5,178.5C 139.912,177.194 141.579,176.36 143.5,176C 138.106,174.967 133.106,175.967 128.5,179C 127.289,180.113 127.289,181.28 128.5,182.5C 126.955,183.452 125.288,183.785 123.5,183.5C 123.5,182.5 123.5,181.5 123.5,180.5C 122.5,180.5 121.5,180.5 120.5,180.5C 120.608,182.514 119.942,184.18 118.5,185.5C 114.826,186.029 113.159,188.195 113.5,192C 113.11,195.124 114.11,197.624 116.5,199.5C 117.412,200.738 117.579,202.072 117,203.5C 115.301,202.594 113.467,202.261 111.5,202.5C 111.5,203.5 111.5,204.5 111.5,205.5C 114.85,205.665 118.183,205.498 121.5,205C 123.179,201.703 125.846,200.703 129.5,202C 130.337,203.011 130.67,204.178 130.5,205.5C 125.29,205.608 120.29,206.275 115.5,207.5C 114.414,207.62 113.747,208.287 113.5,209.5C 113.543,210.416 113.876,211.083 114.5,211.5C 120.983,212.761 127.649,213.261 134.5,213C 138.721,211.314 140.555,208.147 140,203.5C 140.852,204.571 141.685,205.571 142.5,206.5C 143.11,207.391 143.443,208.391 143.5,209.5C 143.5,210.5 143.5,211.5 143.5,212.5C 149.509,212.334 155.509,212.501 161.5,213C 162.056,213.383 162.389,213.883 162.5,214.5C 165.008,216.237 168.008,217.07 171.5,217C 172.252,217.671 172.586,218.504 172.5,219.5C 149.833,219.5 127.167,219.5 104.5,219.5C 106.103,218.404 107.603,217.07 109,215.5C 109.5,208.174 109.666,200.841 109.5,193.5C 107.5,193.5 105.5,193.5 103.5,193.5C 103.5,198.5 103.5,203.5 103.5,208.5C 98.8215,208.666 94.1548,208.499 89.5,208C 88.5308,203.263 88.1975,198.43 88.5,193.5C 86.5,193.5 84.5,193.5 82.5,193.5C 82.1953,198.762 82.5286,203.928 83.5,209C 84.6721,209.419 85.6721,210.085 86.5,211C 92.1569,211.499 97.8236,211.666 103.5,211.5C 103.67,212.822 103.337,213.989 102.5,215C 95.8417,215.5 89.175,215.666 82.5,215.5C 82.5,216.833 82.5,218.167 82.5,219.5C 54.8333,219.5 27.1667,219.5 -0.5,219.5C -0.5,208.5 -0.5,197.5 -0.5,186.5C 3.28885,195.12 9.62218,201.287 18.5,205C 21.7584,206.467 25.0917,207.633 28.5,208.5C 28.3336,200.493 28.5003,192.493 29,184.5C 33.0636,176.39 39.5636,173.557 48.5,176C 52.4685,176.964 55.6351,179.131 58,182.5C 59.6851,180.983 61.1851,179.316 62.5,177.5C 39.72,174.899 18.72,167.566 -0.5,155.5C -0.5,149.5 -0.5,143.5 -0.5,137.5C 1.49052,142.006 4.49052,145.839 8.5,149C 19.552,156.19 31.552,161.19 44.5,164C 77.6867,170.33 111.02,171.163 144.5,166.5C 144.194,163.615 144.527,160.948 145.5,158.5C 146.309,157.531 147.309,156.698 148.5,156C 145.768,151.268 146.102,150.768 149.5,154.5C 150.922,153.602 152.255,152.602 153.5,151.5C 154.479,152.765 155.479,154.099 156.5,155.5C 153.406,162.486 154.073,168.986 158.5,175C 159.793,175.49 161.127,175.657 162.5,175.5C 162.201,173.396 162.534,171.396 163.5,169.5C 165.174,172.844 167.34,175.844 170,178.5C 170.167,178.167 170.333,177.833 170.5,177.5C 167.481,173.461 164.981,169.128 163,164.5C 161.206,167.214 160.04,170.214 159.5,173.5C 155.949,167.818 155.616,161.818 158.5,155.5C 155.524,151.214 153.357,146.547 152,141.5C 149.33,139.021 147.83,136.021 147.5,132.5C 151.024,132.929 154.024,134.429 156.5,137C 166.914,138.378 175.081,143.545 181,152.5C 183.41,158.318 186.077,163.985 189,169.5C 194.22,171.861 199.053,174.861 203.5,178.5C 193.017,179.176 192.017,182.343 200.5,188C 202.421,188.36 204.088,189.194 205.5,190.5C 206.107,190.376 206.44,190.043 206.5,189.5 Z"/></g>
<g><path style="opacity:1" fill="#4f4e52" d="M 181.5,148.5 C 184.926,155.019 188.092,161.686 191,168.5C 196.654,170.829 201.654,174.162 206,178.5C 206.688,179.332 206.521,179.998 205.5,180.5C 203.012,181.025 200.679,181.858 198.5,183C 201.331,185.001 203.997,187.167 206.5,189.5C 206.44,190.043 206.107,190.376 205.5,190.5C 204.088,189.194 202.421,188.36 200.5,188C 192.017,182.343 193.017,179.176 203.5,178.5C 199.053,174.861 194.22,171.861 189,169.5C 186.077,163.985 183.41,158.318 181,152.5C 175.081,143.545 166.914,138.378 156.5,137C 154.024,134.429 151.024,132.929 147.5,132.5C 147.83,136.021 149.33,139.021 152,141.5C 153.357,146.547 155.524,151.214 158.5,155.5C 155.616,161.818 155.949,167.818 159.5,173.5C 160.04,170.214 161.206,167.214 163,164.5C 164.981,169.128 167.481,173.461 170.5,177.5C 170.333,177.833 170.167,178.167 170,178.5C 167.34,175.844 165.174,172.844 163.5,169.5C 162.534,171.396 162.201,173.396 162.5,175.5C 161.127,175.657 159.793,175.49 158.5,175C 154.073,168.986 153.406,162.486 156.5,155.5C 155.479,154.099 154.479,152.765 153.5,151.5C 152.044,145.09 149.378,139.257 145.5,134C 145.759,132.739 146.426,131.739 147.5,131C 151.631,130.738 155.298,132.072 158.5,135C 162.435,135.084 166.102,136.084 169.5,138C 173.668,141.336 177.668,144.836 181.5,148.5 Z"/></g>
<g><path style="opacity:1" fill="#5e5f5d" d="M 158.5,142.5 C 159.189,141.226 160.023,141.226 161,142.5C 161.667,143.5 161.667,144.5 161,145.5C 160.148,144.429 159.315,143.429 158.5,142.5 Z"/></g>
<g><path style="opacity:1" fill="#767676" d="M 197.5,155.5 C 198.649,155.791 199.316,156.624 199.5,158C 199.333,158.833 199.167,159.667 199,160.5C 197.731,159.095 197.231,157.429 197.5,155.5 Z"/></g>
<g><path style="opacity:1" fill="#525563" d="M -0.5,155.5 C 18.72,167.566 39.72,174.899 62.5,177.5C 61.1851,179.316 59.6851,180.983 58,182.5C 55.6351,179.131 52.4685,176.964 48.5,176C 39.5636,173.557 33.0636,176.39 29,184.5C 28.5003,192.493 28.3336,200.493 28.5,208.5C 25.0917,207.633 21.7584,206.467 18.5,205C 9.62218,201.287 3.28885,195.12 -0.5,186.5C -0.5,176.167 -0.5,165.833 -0.5,155.5 Z"/></g>
<g><path style="opacity:1" fill="#5e5c67" d="M 84.5,180.5 C 92.3225,179.344 100.323,179.177 108.5,180C 107.833,181 107.167,182 106.5,183C 99.8333,183.667 93.1667,183.667 86.5,183C 85.9341,182.005 85.2674,181.172 84.5,180.5 Z"/></g>
<g><path style="opacity:1" fill="#fbfde9" d="M 139.5,185.5 C 132.5,185.5 125.5,185.5 118.5,185.5C 119.942,184.18 120.608,182.514 120.5,180.5C 121.5,180.5 122.5,180.5 123.5,180.5C 123.5,181.5 123.5,182.5 123.5,183.5C 125.288,183.785 126.955,183.452 128.5,182.5C 127.289,181.28 127.289,180.113 128.5,179C 133.106,175.967 138.106,174.967 143.5,176C 141.579,176.36 139.912,177.194 138.5,178.5C 139,179.881 140,180.547 141.5,180.5C 143.56,179.472 145.56,179.472 147.5,180.5C 145.483,181.53 143.483,182.53 141.5,183.5C 137.912,179.855 133.912,179.522 129.5,182.5C 132.832,183.865 136.165,184.865 139.5,185.5 Z"/></g>
<g><path style="opacity:1" fill="#99ad2e" d="M 118.5,185.5 C 125.5,185.5 132.5,185.5 139.5,185.5C 139.5,186.833 139.5,188.167 139.5,189.5C 133.5,189.5 127.5,189.5 121.5,189.5C 119.656,191.279 118.99,193.612 119.5,196.5C 125.732,195.939 131.732,196.772 137.5,199C 138.617,202.073 138.784,205.24 138,208.5C 136.352,209.717 134.519,210.55 132.5,211C 126.509,211.499 120.509,211.666 114.5,211.5C 113.876,211.083 113.543,210.416 113.5,209.5C 113.747,208.287 114.414,207.62 115.5,207.5C 120.844,207.666 126.177,207.499 131.5,207C 133.602,205.267 133.935,203.267 132.5,201C 127.134,200.677 121.801,200.177 116.5,199.5C 114.11,197.624 113.11,195.124 113.5,192C 113.159,188.195 114.826,186.029 118.5,185.5 Z"/></g>
<g><path style="opacity:1" fill="#97ab22" d="M 169.5,187.5 C 170.423,194.109 170.756,200.776 170.5,207.5C 169.548,208.452 168.548,209.452 167.5,210.5C 173.432,214.77 172.765,216.437 165.5,215.5C 164.71,214.206 163.71,213.039 162.5,212C 157.167,211.667 151.833,211.333 146.5,211C 145.473,210.487 144.473,209.987 143.5,209.5C 143.443,208.391 143.11,207.391 142.5,206.5C 142.5,201.5 142.5,196.5 142.5,191.5C 142.913,188.585 144.579,186.752 147.5,186C 154.5,185.333 161.5,185.333 168.5,186C 169.056,186.383 169.389,186.883 169.5,187.5 Z"/></g>
<g><path style="opacity:1" fill="#fcfbf9" d="M 149.5,206.5 C 149.5,206.167 149.5,205.833 149.5,205.5C 149.939,200.597 150.606,195.763 151.5,191C 155.5,190.333 159.5,190.333 163.5,191C 164.464,195.066 164.797,199.233 164.5,203.5C 160.998,202.083 157.331,201.416 153.5,201.5C 153.5,203.167 153.5,204.833 153.5,206.5C 152.167,206.5 150.833,206.5 149.5,206.5 Z"/></g>
<g><path style="opacity:1" fill="#f0f6b6" d="M 173.5,185.5 C 173.833,185.5 174.167,185.5 174.5,185.5C 174.5,192.833 174.5,200.167 174.5,207.5C 173.957,201.509 173.124,195.509 172,189.5C 171.828,195.681 171.328,201.681 170.5,207.5C 170.756,200.776 170.423,194.109 169.5,187.5C 171.38,187.771 172.713,187.104 173.5,185.5 Z"/></g>
<g><path style="opacity:1" fill="#f7fade" d="M 209.5,206.5 C 209.5,206.833 209.5,207.167 209.5,207.5C 205.949,207.914 202.282,207.914 198.5,207.5C 192.242,207.81 186.076,207.476 180,206.5C 179.5,199.508 179.334,192.508 179.5,185.5C 177.833,185.5 176.167,185.5 174.5,185.5C 174.167,185.5 173.833,185.5 173.5,185.5C 173.238,184.022 173.571,182.689 174.5,181.5C 175.912,182.806 177.579,183.64 179.5,184C 180.126,184.75 180.626,185.584 181,186.5C 181.169,193.191 181.669,199.858 182.5,206.5C 184.158,186.544 185.158,186.544 185.5,206.5C 193.5,206.5 201.5,206.5 209.5,206.5 Z"/></g>
<g><path style="opacity:1" fill="#646669" d="M 189.5,193.5 C 194.757,194.97 194.757,196.304 189.5,197.5C 189.5,196.167 189.5,194.833 189.5,193.5 Z"/></g>
<g><path style="opacity:1" fill="#eff3c4" d="M 149.5,206.5 C 150.833,206.5 152.167,206.5 153.5,206.5C 153.5,204.833 153.5,203.167 153.5,201.5C 157.331,201.416 160.998,202.083 164.5,203.5C 164.797,199.233 164.464,195.066 163.5,191C 159.5,190.333 155.5,190.333 151.5,191C 150.606,195.763 149.939,200.597 149.5,205.5C 148.176,200.433 148.176,195.266 149.5,190C 154.5,189.333 159.5,189.333 164.5,190C 165.833,195.667 165.833,201.333 164.5,207C 162.192,205.767 159.692,204.6 157,203.5C 153.987,204.045 153.821,205.211 156.5,207C 153.961,207.796 151.628,207.629 149.5,206.5 Z"/></g>
<g><path style="opacity:1" fill="#4e4e57" d="M 72.5,211.5 C 72.8306,204.137 72.4973,196.803 71.5,189.5C 70.7025,189.957 70.3691,190.624 70.5,191.5C 68.2886,197.593 65.7886,203.593 63,209.5C 59.8695,212.122 56.7028,212.122 53.5,209.5C 50.6335,203.559 47.9669,197.559 45.5,191.5C 45.44,190.957 45.1067,190.624 44.5,190.5C 43.503,197.468 43.1697,204.468 43.5,211.5C 41.8333,211.5 40.1667,211.5 38.5,211.5C 38.3336,203.493 38.5003,195.493 39,187.5C 41.4699,185.513 44.3033,185.013 47.5,186C 51.9065,192.648 55.4065,199.814 58,207.5C 60.6183,200.263 63.785,193.263 67.5,186.5C 70.4459,185.345 73.4459,185.179 76.5,186C 77.4832,194.415 77.8166,202.915 77.5,211.5C 75.8333,211.5 74.1667,211.5 72.5,211.5 Z"/></g>
<g><path style="opacity:1" fill="#ababb4" d="M 72.5,211.5 C 71.8333,204.833 71.1667,198.167 70.5,191.5C 70.3691,190.624 70.7025,189.957 71.5,189.5C 72.4973,196.803 72.8306,204.137 72.5,211.5 Z"/></g>
<g><path style="opacity:1" fill="#919198" d="M 45.5,191.5 C 44.8333,198.167 44.1667,204.833 43.5,211.5C 43.1697,204.468 43.503,197.468 44.5,190.5C 45.1067,190.624 45.44,190.957 45.5,191.5 Z"/></g>
<g><path style="opacity:1" fill="#fbfce4" d="M 116.5,199.5 C 121.801,200.177 127.134,200.677 132.5,201C 133.935,203.267 133.602,205.267 131.5,207C 126.177,207.499 120.844,207.666 115.5,207.5C 120.29,206.275 125.29,205.608 130.5,205.5C 130.67,204.178 130.337,203.011 129.5,202C 125.846,200.703 123.179,201.703 121.5,205C 118.183,205.498 114.85,205.665 111.5,205.5C 111.5,204.5 111.5,203.5 111.5,202.5C 113.467,202.261 115.301,202.594 117,203.5C 117.579,202.072 117.412,200.738 116.5,199.5 Z"/></g>
<g><path style="opacity:1" fill="#56555f" d="M 104.5,219.5 C 97.1667,219.5 89.8333,219.5 82.5,219.5C 82.5,218.167 82.5,216.833 82.5,215.5C 89.175,215.666 95.8417,215.5 102.5,215C 103.337,213.989 103.67,212.822 103.5,211.5C 97.8236,211.666 92.1569,211.499 86.5,211C 85.6721,210.085 84.6721,209.419 83.5,209C 82.5286,203.928 82.1953,198.762 82.5,193.5C 84.5,193.5 86.5,193.5 88.5,193.5C 88.1975,198.43 88.5308,203.263 89.5,208C 94.1548,208.499 98.8215,208.666 103.5,208.5C 103.5,203.5 103.5,198.5 103.5,193.5C 105.5,193.5 107.5,193.5 109.5,193.5C 109.666,200.841 109.5,208.174 109,215.5C 107.603,217.07 106.103,218.404 104.5,219.5 Z"/></g>
<g><path style="opacity:1" fill="#95a821" d="M 174.5,185.5 C 176.167,185.5 177.833,185.5 179.5,185.5C 179.334,192.508 179.5,199.508 180,206.5C 186.076,207.476 192.242,207.81 198.5,207.5C 199.234,208.708 199.567,210.041 199.5,211.5C 199.167,211.5 198.833,211.5 198.5,211.5C 192.158,211.666 185.825,211.5 179.5,211C 177.093,210.743 175.427,209.576 174.5,207.5C 174.5,200.167 174.5,192.833 174.5,185.5 Z"/></g>
<g><path style="opacity:1" fill="#cad48c" d="M 198.5,207.5 C 202.282,207.914 205.949,207.914 209.5,207.5C 209.5,208.833 209.5,210.167 209.5,211.5C 206.167,211.5 202.833,211.5 199.5,211.5C 199.567,210.041 199.234,208.708 198.5,207.5 Z"/></g>
<g><path style="opacity:1" fill="#f5fac4" d="M 121.5,189.5 C 120.248,191.339 120.248,193.172 121.5,195C 126.897,195.227 132.231,195.894 137.5,197C 138.77,197.9 139.77,199.066 140.5,200.5C 141.167,197.358 141.834,194.358 142.5,191.5C 142.5,196.5 142.5,201.5 142.5,206.5C 141.685,205.571 140.852,204.571 140,203.5C 140.555,208.147 138.721,211.314 134.5,213C 127.649,213.261 120.983,212.761 114.5,211.5C 120.509,211.666 126.509,211.499 132.5,211C 134.519,210.55 136.352,209.717 138,208.5C 138.784,205.24 138.617,202.073 137.5,199C 131.732,196.772 125.732,195.939 119.5,196.5C 118.99,193.612 119.656,191.279 121.5,189.5 Z"/></g>
<g><path style="opacity:1" fill="#f4f8bf" d="M 143.5,209.5 C 144.473,209.987 145.473,210.487 146.5,211C 151.833,211.333 157.167,211.667 162.5,212C 163.71,213.039 164.71,214.206 165.5,215.5C 164.391,215.443 163.391,215.11 162.5,214.5C 162.389,213.883 162.056,213.383 161.5,213C 155.509,212.501 149.509,212.334 143.5,212.5C 143.5,211.5 143.5,210.5 143.5,209.5 Z"/></g>
<g><path style="opacity:1" fill="#fcfafa" d="M 198.5,211.5 C 198.833,211.5 199.167,211.5 199.5,211.5C 202.833,211.5 206.167,211.5 209.5,211.5C 209.5,214.167 209.5,216.833 209.5,219.5C 198.167,219.5 186.833,219.5 175.5,219.5C 175.611,218.883 175.944,218.383 176.5,218C 184.628,217.424 192.628,216.924 200.5,216.5C 191.19,215.502 181.857,215.168 172.5,215.5C 172.5,214.167 172.5,212.833 172.5,211.5C 181.308,212.759 189.975,212.759 198.5,211.5 Z"/></g>
<g><path style="opacity:1" fill="#fbfce4" d="M 174.5,207.5 C 175.427,209.576 177.093,210.743 179.5,211C 185.825,211.5 192.158,211.666 198.5,211.5C 189.975,212.759 181.308,212.759 172.5,211.5C 172.5,212.833 172.5,214.167 172.5,215.5C 181.857,215.168 191.19,215.502 200.5,216.5C 192.628,216.924 184.628,217.424 176.5,218C 175.944,218.383 175.611,218.883 175.5,219.5C 174.5,219.5 173.5,219.5 172.5,219.5C 172.586,218.504 172.252,217.671 171.5,217C 168.008,217.07 165.008,216.237 162.5,214.5C 163.391,215.11 164.391,215.443 165.5,215.5C 172.765,216.437 173.432,214.77 167.5,210.5C 168.548,209.452 169.548,208.452 170.5,207.5C 171.328,201.681 171.828,195.681 172,189.5C 173.124,195.509 173.957,201.509 174.5,207.5 Z"/></g>
</svg>
