<?xml version="1.0" encoding="UTF-8"?>
<!DOCTYPE svg PUBLIC "-//W3C//DTD SVG 1.1//EN" "http://www.w3.org/Graphics/SVG/1.1/DTD/svg11.dtd">
<svg xmlns="http://www.w3.org/2000/svg" version="1.1" width="392px" height="220px" style="shape-rendering:geometricPrecision; text-rendering:geometricPrecision; image-rendering:optimizeQuality; fill-rule:evenodd; clip-rule:evenodd" xmlns:xlink="http://www.w3.org/1999/xlink">
<g><path style="opacity:1" fill="#fcfcfc" d="M -0.5,-0.5 C 130.167,-0.5 260.833,-0.5 391.5,-0.5C 391.5,72.8333 391.5,146.167 391.5,219.5C 260.833,219.5 130.167,219.5 -0.5,219.5C -0.5,146.167 -0.5,72.8333 -0.5,-0.5 Z"/></g>
<g><path style="opacity:1" fill="#a83853" d="M 204.5,33.5 C 207.831,33.0181 210.497,34.0181 212.5,36.5C 212.649,37.552 212.483,38.552 212,39.5C 209.626,41.539 207.626,43.8723 206,46.5C 205.741,44.0095 205.907,41.5095 206.5,39C 206.605,36.8218 205.939,34.9885 204.5,33.5 Z"/></g>
<g><path style="opacity:1" fill="#ac3f54" d="M 229.5,47.5 C 230.101,49.578 230.434,51.7446 230.5,54C 230.7,56.8655 230.033,59.3655 228.5,61.5C 228.666,57.1539 228.499,52.8206 228,48.5C 224.377,39.9108 218.877,38.4108 211.5,44C 209.531,45.4998 208.198,47.3331 207.5,49.5C 207.343,48.1266 207.51,46.7932 208,45.5C 210.063,43.2659 212.229,41.2659 214.5,39.5C 215.234,38.2921 215.567,36.9587 215.5,35.5C 222.229,37.1837 226.896,41.1837 229.5,47.5 Z"/></g>
<g><path style="opacity:1" fill="#fbeef3" d="M 253.5,111.5 C 254.532,103.528 254.698,95.5279 254,87.5C 253.721,84.5432 252.887,81.8766 251.5,79.5C 248.844,71.1769 244.511,63.8436 238.5,57.5C 237.356,60.9363 236.023,64.2696 234.5,67.5C 229.136,74.3447 222.136,77.0114 213.5,75.5C 216.908,74.3814 219.908,72.7148 222.5,70.5C 226.103,68.5647 228.103,65.5647 228.5,61.5C 230.033,59.3655 230.7,56.8655 230.5,54C 230.434,51.7446 230.101,49.578 229.5,47.5C 231.827,47.7529 233.827,47.0863 235.5,45.5C 239.082,46.3206 239.248,47.3206 236,48.5C 235.333,51.1667 235.333,53.8333 236,56.5C 236.689,55.6433 237.522,54.9767 238.5,54.5C 239.85,55.9501 241.516,56.6168 243.5,56.5C 244.236,61.7731 246.902,65.6064 251.5,68C 250.424,69.7261 250.257,71.5594 251,73.5C 254.882,81.1969 256.382,89.3636 255.5,98C 255.493,102.886 254.826,107.386 253.5,111.5 Z"/></g>
<g><path style="opacity:1" fill="#b13852" d="M 201.5,49.5 C 202.671,50.3446 204.005,51.0113 205.5,51.5C 205.44,52.0431 205.107,52.3764 204.5,52.5C 192.577,47.966 180.577,47.466 168.5,51C 166.473,53.6805 163.807,55.3472 160.5,56C 158.5,58 156.5,60 154.5,62C 149.54,65.3122 144.374,68.1455 139,70.5C 138.333,71.8333 138.333,73.1667 139,74.5C 140.481,75.4709 141.315,76.8042 141.5,78.5C 135.221,74.4996 134.887,69.9996 140.5,65C 143.859,64.2287 147.192,63.3953 150.5,62.5C 155.714,58.1117 161.048,53.9451 166.5,50C 178.103,46.8925 189.77,46.7259 201.5,49.5 Z"/></g>
<g><path style="opacity:1" fill="#f1c8d7" d="M 204.5,33.5 C 205.939,34.9885 206.605,36.8218 206.5,39C 205.907,41.5095 205.741,44.0095 206,46.5C 207.626,43.8723 209.626,41.539 212,39.5C 212.483,38.552 212.649,37.552 212.5,36.5C 213.167,37.5 213.833,38.5 214.5,39.5C 212.229,41.2659 210.063,43.2659 208,45.5C 207.51,46.7932 207.343,48.1266 207.5,49.5C 207.5,50.8333 206.833,51.5 205.5,51.5C 204.005,51.0113 202.671,50.3446 201.5,49.5C 202.873,49.6567 204.207,49.49 205.5,49C 204.808,44.1987 204.142,39.3654 203.5,34.5C 203.624,33.8933 203.957,33.56 204.5,33.5 Z"/></g>
<g><path style="opacity:1" fill="#dd214d" d="M 228.5,61.5 C 228.103,65.5647 226.103,68.5647 222.5,70.5C 218.76,72.2975 214.76,73.2975 210.5,73.5C 210.227,75.451 210.893,76.951 212.5,78C 216.868,78.7089 221.201,78.5423 225.5,77.5C 227.334,78.7545 229.334,79.4211 231.5,79.5C 231.863,77.0885 230.863,75.5885 228.5,75C 231.817,73.5198 233.817,71.0198 234.5,67.5C 236.134,66.7934 237.468,65.6268 238.5,64C 239.833,63.3333 241.167,63.3333 242.5,64C 245.23,69.3959 248.23,74.5626 251.5,79.5C 253.166,90.1447 253.499,100.811 252.5,111.5C 251.784,114.598 250.784,117.598 249.5,120.5C 248.25,120.577 247.417,121.244 247,122.5C 246.667,119.5 246.333,116.5 246,113.5C 244.89,111.963 243.39,111.297 241.5,111.5C 240.833,116.5 240.167,121.5 239.5,126.5C 239.5,126.833 239.5,127.167 239.5,127.5C 237.209,129.124 235.209,131.124 233.5,133.5C 232.669,131.527 232.502,129.527 233,127.5C 231.301,126.594 229.467,126.261 227.5,126.5C 227.657,127.873 227.49,129.207 227,130.5C 224.337,133.168 222.17,136.168 220.5,139.5C 220.158,140.338 219.492,140.672 218.5,140.5C 214.736,142.92 210.736,144.92 206.5,146.5C 205.833,146.167 205.167,145.833 204.5,145.5C 206.316,143.183 208.316,141.016 210.5,139C 210.272,138.601 209.938,138.435 209.5,138.5C 209.5,137.833 209.5,137.167 209.5,136.5C 207.329,135.755 204.995,135.588 202.5,136C 210.051,128.014 213.218,118.514 212,107.5C 208.331,105.991 206.831,107.324 207.5,111.5C 205.373,115.071 203.206,118.738 201,122.5C 197.855,125.304 194.688,127.97 191.5,130.5C 185.942,132.189 180.275,132.689 174.5,132C 171.788,131.361 169.788,129.861 168.5,127.5C 167.833,127.5 167.5,127.167 167.5,126.5C 167.688,124.897 167.188,123.563 166,122.5C 165.333,119.167 165.333,115.833 166,112.5C 168.333,111.833 170.667,111.167 173,110.5C 173.186,113.036 173.686,115.369 174.5,117.5C 176.775,120.389 179.608,121.056 183,119.5C 183.791,118.255 184.291,116.922 184.5,115.5C 185.1,116.9 186.1,117.9 187.5,118.5C 189.806,119.785 191.639,119.118 193,116.5C 194.667,117.833 196.333,117.833 198,116.5C 198.079,110.374 197.245,104.374 195.5,98.5C 192.447,98.4279 189.781,97.4279 187.5,95.5C 184.21,87.5863 178.21,84.253 169.5,85.5C 168.508,85.6716 167.842,85.3382 167.5,84.5C 163.019,83.3516 158.352,83.1849 153.5,84C 151.867,84.4796 150.534,85.3129 149.5,86.5C 149.167,86.5 148.833,86.5 148.5,86.5C 147.122,83.1219 144.789,80.7886 141.5,79.5C 141.5,79.1667 141.5,78.8333 141.5,78.5C 141.315,76.8042 140.481,75.4709 139,74.5C 138.333,73.1667 138.333,71.8333 139,70.5C 144.374,68.1455 149.54,65.3122 154.5,62C 156.5,60 158.5,58 160.5,56C 163.807,55.3472 166.473,53.6805 168.5,51C 180.577,47.466 192.577,47.966 204.5,52.5C 205.107,52.3764 205.44,52.0431 205.5,51.5C 206.833,51.5 207.5,50.8333 207.5,49.5C 208.198,47.3331 209.531,45.4998 211.5,44C 218.877,38.4108 224.377,39.9108 228,48.5C 228.499,52.8206 228.666,57.1539 228.5,61.5 Z"/></g>
<g><path style="opacity:1" fill="#b2425d" d="M 251.5,79.5 C 248.23,74.5626 245.23,69.3959 242.5,64C 241.167,63.3333 239.833,63.3333 238.5,64C 237.468,65.6268 236.134,66.7934 234.5,67.5C 236.023,64.2696 237.356,60.9363 238.5,57.5C 244.511,63.8436 248.844,71.1769 251.5,79.5 Z"/></g>
<g><path style="opacity:1" fill="#bf3251" d="M 234.5,67.5 C 233.817,71.0198 231.817,73.5198 228.5,75C 230.863,75.5885 231.863,77.0885 231.5,79.5C 229.334,79.4211 227.334,78.7545 225.5,77.5C 221.201,78.5423 216.868,78.7089 212.5,78C 210.893,76.951 210.227,75.451 210.5,73.5C 214.76,73.2975 218.76,72.2975 222.5,70.5C 219.908,72.7148 216.908,74.3814 213.5,75.5C 222.136,77.0114 229.136,74.3447 234.5,67.5 Z"/></g>
<g><path style="opacity:1" fill="#a44258" d="M 141.5,79.5 C 144.789,80.7886 147.122,83.1219 148.5,86.5C 148.44,87.0431 148.107,87.3764 147.5,87.5C 145.11,85.1122 143.11,82.4455 141.5,79.5 Z"/></g>
<g><path style="opacity:1" fill="#a32a46" d="M 167.5,84.5 C 163.486,84.3345 159.486,84.5012 155.5,85C 153.36,85.9733 151.693,87.4733 150.5,89.5C 149.614,88.675 149.281,87.675 149.5,86.5C 150.534,85.3129 151.867,84.4796 153.5,84C 158.352,83.1849 163.019,83.3516 167.5,84.5 Z"/></g>
<g><path style="opacity:1" fill="#b93d57" d="M 169.5,85.5 C 178.21,84.253 184.21,87.5863 187.5,95.5C 182.175,90.8172 176.175,87.4839 169.5,85.5 Z"/></g>
<g><path style="opacity:1" fill="#a53049" d="M 251.5,79.5 C 252.887,81.8766 253.721,84.5432 254,87.5C 254.698,95.5279 254.532,103.528 253.5,111.5C 253.167,111.5 252.833,111.5 252.5,111.5C 253.499,100.811 253.166,90.1447 251.5,79.5 Z"/></g>
<g><path style="opacity:1" fill="#c33154" d="M 187.5,95.5 C 189.781,97.4279 192.447,98.4279 195.5,98.5C 197.245,104.374 198.079,110.374 198,116.5C 196.333,117.833 194.667,117.833 193,116.5C 191.639,119.118 189.806,119.785 187.5,118.5C 187.5,118.167 187.5,117.833 187.5,117.5C 188.552,117.649 189.552,117.483 190.5,117C 191.591,115.45 192.924,114.283 194.5,113.5C 195.117,113.611 195.617,113.944 196,114.5C 195.374,107.242 192.54,100.908 187.5,95.5 Z"/></g>
<g><path style="opacity:1" fill="#fce4f0" d="M 184.5,115.5 C 184.291,116.922 183.791,118.255 183,119.5C 179.608,121.056 176.775,120.389 174.5,117.5C 175.864,109.037 172.864,106.704 165.5,110.5C 165.588,107.691 167.088,106.358 170,106.5C 172.472,107.322 174.972,107.989 177.5,108.5C 177.214,110.277 176.547,111.944 175.5,113.5C 176.046,115.135 176.38,116.801 176.5,118.5C 178.5,118.5 180.5,118.5 182.5,118.5C 182.285,116.821 182.952,115.821 184.5,115.5 Z"/></g>
<g><path style="opacity:1" fill="#a54660" d="M 194.5,113.5 C 192.924,114.283 191.591,115.45 190.5,117C 189.552,117.483 188.552,117.649 187.5,117.5C 188.614,116.115 189.614,114.615 190.5,113C 191.928,112.421 193.262,112.588 194.5,113.5 Z"/></g>
<g><path style="opacity:1" fill="#b3304b" d="M 249.5,120.5 C 248.56,122.612 247.394,124.612 246,126.5C 245.007,122.558 244.34,118.558 244,114.5C 243.095,118.837 241.595,122.837 239.5,126.5C 240.167,121.5 240.833,116.5 241.5,111.5C 243.39,111.297 244.89,111.963 246,113.5C 246.333,116.5 246.667,119.5 247,122.5C 247.417,121.244 248.25,120.577 249.5,120.5 Z"/></g>
<g><path style="opacity:1" fill="#b3435f" d="M 174.5,117.5 C 173.686,115.369 173.186,113.036 173,110.5C 170.667,111.167 168.333,111.833 166,112.5C 165.333,115.833 165.333,119.167 166,122.5C 167.188,123.563 167.688,124.897 167.5,126.5C 163.07,121.728 162.403,116.395 165.5,110.5C 172.864,106.704 175.864,109.037 174.5,117.5 Z"/></g>
<g><path style="opacity:1" fill="#a22e44" d="M 207.5,111.5 C 205.781,120.885 200.448,127.218 191.5,130.5C 194.688,127.97 197.855,125.304 201,122.5C 203.206,118.738 205.373,115.071 207.5,111.5 Z"/></g>
<g><path style="opacity:1" fill="#bf2f51" d="M 209.5,136.5 C 205.664,138.259 201.664,139.092 197.5,139C 204.809,132.882 208.809,125.048 209.5,115.5C 209.415,113.667 208.748,112.334 207.5,111.5C 206.831,107.324 208.331,105.991 212,107.5C 213.218,118.514 210.051,128.014 202.5,136C 204.995,135.588 207.329,135.755 209.5,136.5 Z"/></g>
<g><path style="opacity:1" fill="#a0354d" d="M 168.5,127.5 C 169.788,129.861 171.788,131.361 174.5,132C 180.275,132.689 185.942,132.189 191.5,130.5C 189.852,131.927 187.852,132.76 185.5,133C 181.167,133.667 176.833,133.667 172.5,133C 169.888,132.361 167.554,131.194 165.5,129.5C 166.602,128.824 167.602,128.158 168.5,127.5 Z"/></g>
<g><path style="opacity:1" fill="#ad314e" d="M 239.5,127.5 C 236.593,133.973 232.26,139.306 226.5,143.5C 225.957,143.44 225.624,143.107 225.5,142.5C 226.763,139.397 228.263,136.397 230,133.5C 230.667,131.833 230.667,130.167 230,128.5C 227.716,132.949 224.549,136.616 220.5,139.5C 222.17,136.168 224.337,133.168 227,130.5C 227.49,129.207 227.657,127.873 227.5,126.5C 229.467,126.261 231.301,126.594 233,127.5C 232.502,129.527 232.669,131.527 233.5,133.5C 235.209,131.124 237.209,129.124 239.5,127.5 Z"/></g>
<g><path style="opacity:1" fill="#f7d8e2" d="M 226.5,143.5 C 225.878,144.627 225.045,145.627 224,146.5C 224.498,144.473 224.331,142.473 223.5,140.5C 221.026,141.32 218.693,142.32 216.5,143.5C 217.167,142.5 217.833,141.5 218.5,140.5C 219.492,140.672 220.158,140.338 220.5,139.5C 224.549,136.616 227.716,132.949 230,128.5C 230.667,130.167 230.667,131.833 230,133.5C 228.263,136.397 226.763,139.397 225.5,142.5C 225.624,143.107 225.957,143.44 226.5,143.5 Z"/></g>
<g><path style="opacity:1" fill="#ac3450" d="M 209.5,138.5 C 209.938,138.435 210.272,138.601 210.5,139C 208.316,141.016 206.316,143.183 204.5,145.5C 205.167,145.833 205.833,146.167 206.5,146.5C 210.736,144.92 214.736,142.92 218.5,140.5C 217.833,141.5 217.167,142.5 216.5,143.5C 209.329,147.705 201.663,150.205 193.5,151C 199.407,147.549 204.741,143.382 209.5,138.5 Z"/></g>
<g><path style="opacity:1" fill="#0d0d0d" d="M 144.5,170.5 C 146.857,170.337 149.19,170.503 151.5,171C 154.38,175.258 156.88,179.758 159,184.5C 159.499,179.845 159.666,175.179 159.5,170.5C 161.167,170.5 162.833,170.5 164.5,170.5C 164.5,177.5 164.5,184.5 164.5,191.5C 161.753,191.813 159.086,191.48 156.5,190.5C 154.588,186.34 152.421,182.34 150,178.5C 149.501,182.821 149.334,187.154 149.5,191.5C 147.833,191.5 146.167,191.5 144.5,191.5C 144.5,184.5 144.5,177.5 144.5,170.5 Z"/></g>
<g><path style="opacity:1" fill="#040404" d="M 224.5,170.5 C 226.167,170.5 227.833,170.5 229.5,170.5C 229.666,178.174 229.5,185.841 229,193.5C 228.535,194.931 227.701,196.097 226.5,197C 224.19,197.497 221.857,197.663 219.5,197.5C 219.5,196.167 219.5,194.833 219.5,193.5C 221.144,193.714 222.644,193.38 224,192.5C 224.5,185.174 224.666,177.841 224.5,170.5 Z"/></g>
<g><path style="opacity:1" fill="#101010" d="M 188.5,175.5 C 191.833,175.5 195.167,175.5 198.5,175.5C 198.5,176.833 198.5,178.167 198.5,179.5C 196.401,178.769 194.401,178.769 192.5,179.5C 195.833,180.833 198.167,183.167 199.5,186.5C 199.023,187.931 198.357,189.264 197.5,190.5C 193.906,191.426 190.24,191.759 186.5,191.5C 186.215,189.712 186.548,188.045 187.5,186.5C 189.516,187.706 191.516,187.706 193.5,186.5C 191.024,185.185 188.857,183.518 187,181.5C 186.252,179.16 186.752,177.16 188.5,175.5 Z"/></g>
<g><path style="opacity:1" fill="#0a0a0a" d="M 209.5,179.5 C 208.527,181.948 208.194,184.615 208.5,187.5C 209.833,187.5 211.167,187.5 212.5,187.5C 212.5,188.833 212.5,190.167 212.5,191.5C 209.315,191.98 206.481,191.314 204,189.5C 203.928,185.469 203.094,181.636 201.5,178C 203.112,176.518 204.112,174.685 204.5,172.5C 205.833,172.5 207.167,172.5 208.5,172.5C 208.5,173.5 208.5,174.5 208.5,175.5C 209.833,175.5 211.167,175.5 212.5,175.5C 212.5,176.833 212.5,178.167 212.5,179.5C 211.5,179.5 210.5,179.5 209.5,179.5 Z"/></g>
<g><path style="opacity:1" fill="#0d0d0d" d="M 237.5,170.5 C 240.187,170.336 242.854,170.503 245.5,171C 247.875,172.51 247.709,174.01 245,175.5C 243.234,174.767 241.401,174.433 239.5,174.5C 239.33,175.822 239.663,176.989 240.5,178C 246.787,178.953 248.954,182.453 247,188.5C 243.319,191.36 239.152,192.193 234.5,191C 233.62,189.644 233.286,188.144 233.5,186.5C 235.547,186.511 237.547,186.844 239.5,187.5C 241,187.547 242,186.881 242.5,185.5C 239.573,183.756 236.739,181.756 234,179.5C 232.665,175.392 233.832,172.392 237.5,170.5 Z"/></g>
<g><path style="opacity:1" fill="#0e0e0e" d="M 171.5,175.5 C 179.61,173.293 183.61,176.293 183.5,184.5C 180.102,184.18 176.768,184.513 173.5,185.5C 175.799,187.769 178.466,188.102 181.5,186.5C 182.83,188.347 182.497,189.847 180.5,191C 173.048,193.117 168.714,190.45 167.5,183C 167.927,179.977 169.261,177.477 171.5,175.5 Z"/></g>
<g><path style="opacity:1" fill="#cecece" d="M 174.5,178.5 C 176.346,178.222 177.68,178.889 178.5,180.5C 176.833,181.833 175.167,181.833 173.5,180.5C 173.863,179.817 174.196,179.15 174.5,178.5 Z"/></g>
<g><path style="opacity:1" fill="#878787" d="M 209.5,179.5 C 209.5,181.833 209.5,184.167 209.5,186.5C 210.833,186.5 212.167,186.5 213.5,186.5C 213.784,188.415 213.451,190.081 212.5,191.5C 212.5,190.167 212.5,188.833 212.5,187.5C 211.167,187.5 209.833,187.5 208.5,187.5C 208.194,184.615 208.527,181.948 209.5,179.5 Z"/></g>
</svg>
