<svg width="54" height="54" viewBox="0 0 54 54" fill="none" xmlns="http://www.w3.org/2000/svg">
<g clip-path="url(#clip0_645_3154)">
<path d="M16.4136 44.9194C16.374 44.8494 16.3387 44.777 16.3079 44.7027C16.0949 44.2098 16.0293 43.6656 16.1191 43.1361H3.51375L22.2469 10.1697L28.3969 20.9807L30.1802 17.8252L24.8192 8.38079C24.5622 7.89703 24.188 7.48541 23.7309 7.18358C23.2738 6.88176 22.7483 6.69936 22.2025 6.65308C21.6579 6.67801 21.1313 6.85523 20.6825 7.1646C20.2337 7.47396 19.8807 7.90306 19.6636 8.40309L0.686015 41.7694C0.402297 42.2406 0.238709 42.7742 0.209646 43.3234C0.180583 43.8726 0.286934 44.4205 0.519342 44.919C0.811266 45.3792 1.22613 45.7485 1.71702 45.9852C2.20791 46.2219 2.75523 46.3165 3.29709 46.2583H19.1914C18.6495 46.3174 18.1019 46.2232 17.6108 45.9866C17.1198 45.7499 16.705 45.3801 16.4136 44.9194Z" fill="#00C492"/>
<path d="M52.9577 41.7695L37.3635 14.2975C37.1077 13.8086 36.7329 13.392 36.2736 13.0861C35.8144 12.7803 35.2855 12.5951 34.7357 12.5476C34.1915 12.5711 33.6649 12.7471 33.216 13.0555C32.7671 13.364 32.4139 13.7924 32.1968 14.292L30.1802 17.8253L31.9746 20.9808L34.7519 16.0642L50.18 43.1362H44.3134C44.3885 43.5837 44.3464 44.0431 44.1912 44.4695C44.1585 44.5637 44.1176 44.6548 44.0689 44.7417L44.0189 44.8417C43.7001 45.2918 43.2754 45.6565 42.7822 45.9035C42.289 46.1505 41.7426 46.2723 41.1912 46.258H50.3689C50.9203 46.2728 51.467 46.1513 51.9602 45.9043C52.4535 45.6572 52.8782 45.2922 53.1966 44.8417C53.448 44.3585 53.5588 43.8145 53.5166 43.2715C53.4744 42.7284 53.2808 42.2081 52.9577 41.7695Z" fill="#008776"/>
<path d="M44.0189 44.8423L44.0689 44.7423C44.1176 44.6553 44.1585 44.5642 44.1912 44.4701C44.3464 44.0436 44.3885 43.5843 44.3134 43.1368C44.2269 42.6541 44.0538 42.191 43.8023 41.7701L31.9861 20.9814L30.1806 17.8259L28.3862 20.9814L16.5752 41.7706C16.3459 42.1966 16.1918 42.659 16.1196 43.1373C16.0246 43.6652 16.0844 44.2093 16.2919 44.704C16.3227 44.7783 16.3579 44.8506 16.3976 44.9206C16.6896 45.3807 17.1045 45.75 17.5954 45.9866C18.0863 46.2232 18.6336 46.3177 19.1754 46.2595H41.1746C41.7287 46.2758 42.2783 46.1549 42.7745 45.9077C43.2707 45.6604 43.6982 45.2945 44.0189 44.8423ZM30.1802 24.1369L40.9801 43.1368H19.3859L30.1802 24.1369Z" fill="#2D4A5D"/>
</g>
<defs>
<clipPath id="clip0_645_3154">
<rect width="53.3204" height="53.3204" fill="white" transform="translate(0.204956 0.408203)"/>
</clipPath>
</defs>
</svg>
