<svg width="288" height="213" viewBox="0 0 288 213" fill="none" xmlns="http://www.w3.org/2000/svg">
<mask id="mask0_618_334" style="mask-type:luminance" maskUnits="userSpaceOnUse" x="84" y="35" width="133" height="133">
<path d="M216.265 35.7098H84.5015V167.474H216.265V35.7098Z" fill="white"/>
</mask>
<g mask="url(#mask0_618_334)">
</g>
<g clip-path="url(#clip0_618_334)">
<path d="M149.22 146.452C148.721 146.452 148.255 146.319 147.822 146.087L143.396 143.467C142.73 143.102 143.063 142.969 143.263 142.903C144.161 142.604 144.328 142.538 145.26 142.007C145.36 141.941 145.493 141.974 145.593 142.04L148.988 144.064C149.121 144.13 149.287 144.13 149.387 144.064L162.667 136.401C162.8 136.335 162.866 136.202 162.866 136.037V120.746C162.866 120.58 162.8 120.447 162.667 120.381L149.387 112.752C149.254 112.685 149.087 112.685 148.988 112.752L135.708 120.381C135.575 120.447 135.508 120.613 135.508 120.745V136.036C135.508 136.169 135.575 136.335 135.708 136.401L139.335 138.491C141.299 139.486 142.531 138.325 142.531 137.164V122.072C142.531 121.873 142.697 121.674 142.93 121.674H144.627C144.827 121.674 145.027 121.84 145.027 122.072V137.164C145.027 139.784 143.596 141.31 141.099 141.31C140.334 141.31 139.735 141.31 138.037 140.481L134.543 138.491C133.677 137.994 133.145 137.065 133.145 136.07V120.779C133.145 119.784 133.677 118.855 134.543 118.357L147.822 110.695C148.655 110.231 149.786 110.231 150.618 110.695L163.898 118.357C164.763 118.855 165.296 119.784 165.296 120.779V136.07C165.296 137.065 164.763 137.994 163.898 138.491L150.618 146.153C150.186 146.352 149.686 146.452 149.22 146.452ZM153.314 135.937C147.49 135.937 146.291 133.284 146.291 131.028C146.291 130.829 146.458 130.63 146.691 130.63H148.422C148.621 130.63 148.788 130.763 148.788 130.962C149.054 132.72 149.82 133.582 153.347 133.582C156.143 133.582 157.342 132.952 157.342 131.459C157.342 130.597 157.008 129.967 152.649 129.535C149.021 129.17 146.757 128.375 146.757 125.489C146.757 122.802 149.021 121.21 152.815 121.21C157.075 121.21 159.172 122.669 159.438 125.853C159.438 125.953 159.405 126.053 159.339 126.152C159.272 126.218 159.172 126.285 159.072 126.285H157.341C157.175 126.285 157.008 126.152 156.975 125.986C156.576 124.162 155.544 123.565 152.815 123.565C149.753 123.565 149.387 124.626 149.387 125.422C149.387 126.384 149.82 126.683 153.947 127.213C158.04 127.744 159.971 128.507 159.971 131.359C159.937 134.278 157.541 135.937 153.314 135.937Z" fill="#539E43"/>
<path d="M108.013 86.6473C108.013 86.0505 107.68 85.4862 107.147 85.1878L93.0354 77.0945C92.8023 76.9616 92.536 76.8954 92.2701 76.8621H92.1367C91.8707 76.8621 91.6042 76.9616 91.3714 77.0945L77.2594 85.1878C76.7267 85.4862 76.394 86.05 76.394 86.6473L76.4275 108.406C76.4275 108.705 76.5939 109.003 76.86 109.136C77.1264 109.302 77.459 109.302 77.6922 109.136L86.0795 104.36C86.612 104.061 86.9448 103.497 86.9448 102.9V92.7172C86.9448 92.1204 87.2775 91.5563 87.8102 91.2579L91.3714 89.2014C91.6376 89.0355 91.9371 88.9688 92.2367 88.9688C92.536 88.9688 92.8356 89.0355 93.069 89.2014L96.63 91.2579C97.1627 91.5563 97.4953 92.12 97.4953 92.7172V102.9C97.4953 103.497 97.8282 104.061 98.3607 104.36L106.748 109.136C107.014 109.302 107.347 109.302 107.613 109.136C107.88 109.003 108.046 108.705 108.046 108.406L108.013 86.6473ZM175.843 56.6954C175.577 56.5625 175.244 56.5625 175.011 56.6954C174.745 56.8611 174.578 57.1264 174.578 57.4248V78.9852C174.578 79.1841 174.479 79.3829 174.279 79.5158C174.079 79.6151 173.879 79.6151 173.68 79.5158L170.152 77.4926C169.893 77.3457 169.601 77.2685 169.303 77.2685C169.005 77.2685 168.713 77.3457 168.454 77.4926L154.342 85.619C153.81 85.9176 153.477 86.4815 153.477 87.0785V103.298C153.477 103.895 153.81 104.459 154.342 104.758L168.454 112.884C168.713 113.031 169.005 113.108 169.303 113.108C169.601 113.108 169.893 113.031 170.152 112.884L184.264 104.758C184.796 104.459 185.129 103.895 185.129 103.298V62.8648C185.129 62.2345 184.796 61.6708 184.264 61.3722L175.843 56.6954ZM174.545 97.9582C174.545 98.1239 174.479 98.2565 174.345 98.3228L169.519 101.109C169.452 101.142 169.378 101.159 169.303 101.159C169.228 101.159 169.154 101.142 169.087 101.109L164.261 98.3228C164.127 98.2565 164.061 98.0906 164.061 97.9582V92.3855C164.061 92.2197 164.127 92.0871 164.261 92.0207L169.087 89.2343C169.154 89.2017 169.228 89.1845 169.303 89.1845C169.378 89.1845 169.452 89.2017 169.519 89.2343L174.345 92.0207C174.479 92.0869 174.545 92.2528 174.545 92.3855V97.9582ZM222.805 92.2528C223.338 91.9545 223.637 91.3906 223.637 90.7933V86.8463C223.637 86.2494 223.305 85.6855 222.805 85.3869L208.793 77.2938C208.535 77.1469 208.242 77.0699 207.944 77.0699C207.647 77.0699 207.354 77.1469 207.096 77.2938L192.984 85.42C192.451 85.7183 192.119 86.2822 192.119 86.8794V103.099C192.119 103.696 192.451 104.26 192.984 104.559L206.996 112.519C207.529 112.818 208.161 112.818 208.66 112.519L217.147 107.81C217.413 107.677 217.58 107.378 217.58 107.08C217.58 106.781 217.413 106.483 217.147 106.35L202.969 98.2235C202.703 98.058 202.536 97.7924 202.536 97.4941V92.419C202.536 92.1207 202.703 91.8221 202.969 91.6892L207.395 89.1683C207.525 89.0871 207.675 89.044 207.828 89.044C207.981 89.044 208.131 89.0871 208.261 89.1683L212.687 91.6892C212.954 91.8552 213.12 92.1204 213.12 92.419V96.3994C213.12 96.698 213.286 96.9964 213.552 97.129C213.819 97.2947 214.152 97.2947 214.418 97.129L222.805 92.2528Z" fill="#333333"/>
<path d="M207.734 91.4897C207.784 91.4573 207.842 91.4399 207.901 91.4399C207.96 91.4399 208.018 91.4573 208.067 91.4897L210.763 93.0487C210.863 93.1147 210.93 93.2142 210.93 93.3471V96.4649C210.93 96.5976 210.863 96.6971 210.763 96.7636L208.067 98.3224C208.018 98.3547 207.96 98.3721 207.901 98.3721C207.842 98.3721 207.784 98.3547 207.734 98.3224L205.039 96.7636C204.939 96.6971 204.872 96.5976 204.872 96.4649V93.3471C204.872 93.2142 204.939 93.1147 205.039 93.0487L207.734 91.4897Z" fill="#539E43"/>
<mask id="mask1_618_334" style="mask-type:alpha" maskUnits="userSpaceOnUse" x="115" y="77" width="32" height="36">
<path d="M131.613 77.3584C131.354 77.2117 131.062 77.1345 130.764 77.1345C130.467 77.1345 130.174 77.2117 129.916 77.3584L115.904 85.4181C115.371 85.7165 115.071 86.2806 115.071 86.8773V103.031C115.071 103.628 115.404 104.192 115.904 104.491L129.916 112.551C130.174 112.697 130.467 112.775 130.764 112.775C131.062 112.775 131.354 112.697 131.613 112.551L145.625 104.491C146.158 104.192 146.457 103.628 146.457 103.031V86.8778C146.457 86.2808 146.124 85.7169 145.625 85.4183L131.613 77.3584Z" fill="white"/>
</mask>
<g mask="url(#mask1_618_334)">
<path d="M131.613 77.3585C131.354 77.2118 131.062 77.1346 130.764 77.1346C130.467 77.1346 130.174 77.2118 129.916 77.3585L115.904 85.4182C115.371 85.7166 115.071 86.2807 115.071 86.8775V103.031C115.071 103.628 115.404 104.192 115.904 104.491L129.916 112.551C130.174 112.698 130.467 112.775 130.764 112.775C131.062 112.775 131.354 112.698 131.613 112.551L145.625 104.491C146.158 104.192 146.457 103.628 146.457 103.031V86.8779C146.457 86.2809 146.124 85.7171 145.625 85.4184L131.613 77.3585Z" fill="url(#paint0_linear_618_334)"/>
<path d="M145.647 85.4167L131.569 77.3568C131.431 77.2872 131.285 77.2318 131.136 77.191L115.36 104.125C115.491 104.284 115.648 104.419 115.826 104.523L129.905 112.583C130.304 112.815 130.77 112.881 131.203 112.749L146.014 85.7489C145.914 85.6163 145.78 85.516 145.647 85.4167Z" fill="url(#paint1_linear_618_334)"/>
<path fill-rule="evenodd" clip-rule="evenodd" d="M145.687 104.492C146.087 104.26 146.386 103.862 146.52 103.431L131.076 77.1608C130.677 77.0943 130.244 77.1274 129.878 77.3596L115.899 85.3867L130.976 112.785C131.195 112.749 131.408 112.682 131.608 112.586L145.687 104.492Z" fill="url(#paint2_linear_618_334)"/>
<path fill-rule="evenodd" clip-rule="evenodd" d="M145.693 104.493L131.647 112.553C131.449 112.654 131.235 112.721 131.015 112.752L131.281 113.25L146.858 104.261V104.062L146.458 103.398C146.392 103.863 146.092 104.261 145.693 104.493Z" fill="url(#paint3_linear_618_334)"/>
<path fill-rule="evenodd" clip-rule="evenodd" d="M145.693 104.493L131.647 112.553C131.449 112.654 131.235 112.721 131.015 112.752L131.281 113.25L146.858 104.261V104.062L146.458 103.398C146.392 103.863 146.092 104.261 145.693 104.493Z" fill="url(#paint4_linear_618_334)"/>
</g>
</g>
<line x1="29.4781" y1="58.2044" x2="62.419" y2="70.4615" stroke="#B6C3CD" stroke-width="0.766069" stroke-dasharray="1.53 1.53"/>
<line x1="234.792" y1="127.92" x2="286.885" y2="148.604" stroke="#B6C3CD" stroke-width="0.766069" stroke-dasharray="1.53 1.53"/>
<line x1="234.468" y1="58.2269" x2="286.561" y2="29.8823" stroke="#B6C3CD" stroke-width="0.766069" stroke-dasharray="1.53 1.53"/>
<line x1="0.812213" y1="160.14" x2="62.0977" y2="125.667" stroke="#B6C3CD" stroke-width="0.766069" stroke-dasharray="1.53 1.53"/>
<line x1="143.872" y1="212.566" x2="143.872" y2="160.474" stroke="#B6C3CD" stroke-width="0.766069" stroke-dasharray="1.53 1.53"/>
<line x1="150.001" y1="41.7097" x2="150.001" y2="0.34198" stroke="#B6C3CD" stroke-width="0.766069" stroke-dasharray="1.53 1.53"/>
<defs>
<linearGradient id="paint0_linear_618_334" x1="136.473" y1="83.3672" x2="121.189" y2="107.465" gradientUnits="userSpaceOnUse">
<stop stop-color="#41873F"/>
<stop offset="0.3288" stop-color="#418B3D"/>
<stop offset="0.6352" stop-color="#419637"/>
<stop offset="0.9319" stop-color="#3FA92D"/>
<stop offset="1" stop-color="#3FAE2A"/>
</linearGradient>
<linearGradient id="paint1_linear_618_334" x1="128.626" y1="96.845" x2="167.031" y2="75.9085" gradientUnits="userSpaceOnUse">
<stop offset="0.1376" stop-color="#41873F"/>
<stop offset="0.4032" stop-color="#54A044"/>
<stop offset="0.7136" stop-color="#66B848"/>
<stop offset="0.9081" stop-color="#6CC04A"/>
</linearGradient>
<linearGradient id="paint2_linear_618_334" x1="114.555" y1="94.9564" x2="146.979" y2="94.9564" gradientUnits="userSpaceOnUse">
<stop offset="0.09192" stop-color="#6CC04A"/>
<stop offset="0.2864" stop-color="#66B848"/>
<stop offset="0.5968" stop-color="#54A044"/>
<stop offset="0.8624" stop-color="#41873F"/>
</linearGradient>
<linearGradient id="paint3_linear_618_334" x1="114.561" y1="108.351" x2="146.984" y2="108.351" gradientUnits="userSpaceOnUse">
<stop offset="0.09192" stop-color="#6CC04A"/>
<stop offset="0.2864" stop-color="#66B848"/>
<stop offset="0.5968" stop-color="#54A044"/>
<stop offset="0.8624" stop-color="#41873F"/>
</linearGradient>
<linearGradient id="paint4_linear_618_334" x1="151.707" y1="82.6055" x2="143.547" y2="125.51" gradientUnits="userSpaceOnUse">
<stop stop-color="#41873F"/>
<stop offset="0.3288" stop-color="#418B3D"/>
<stop offset="0.6352" stop-color="#419637"/>
<stop offset="0.9319" stop-color="#3FA92D"/>
<stop offset="1" stop-color="#3FAE2A"/>
</linearGradient>
<clipPath id="clip0_618_334">
<rect width="147.888" height="90.3962" fill="white" transform="translate(76.0747 56.3937)"/>
</clipPath>
</defs>
</svg>
