<?xml version="1.0" encoding="UTF-8"?>
<!DOCTYPE svg PUBLIC "-//W3C//DTD SVG 1.1//EN" "http://www.w3.org/Graphics/SVG/1.1/DTD/svg11.dtd">
<svg xmlns="http://www.w3.org/2000/svg" version="1.1" width="231px" height="220px" style="shape-rendering:geometricPrecision; text-rendering:geometricPrecision; image-rendering:optimizeQuality; fill-rule:evenodd; clip-rule:evenodd" xmlns:xlink="http://www.w3.org/1999/xlink">
<g><path style="opacity:1" fill="#fcfcfc" d="M -0.5,-0.5 C 35.1667,-0.5 70.8333,-0.5 106.5,-0.5C 106.5,0.5 106.5,1.5 106.5,2.5C 103.624,2.92716 100.791,3.59382 98,4.5C 95.996,6.83952 93.496,8.33952 90.5,9C 88.2716,13.4893 84.6049,15.8227 79.5,16C 75.1363,17.5124 71.4696,20.0124 68.5,23.5C 65.8392,24.4992 63.1725,25.4992 60.5,26.5C 59.5713,27.6888 59.238,29.0222 59.5,30.5C 58.0048,30.9887 56.6715,31.6554 55.5,32.5C 51.3477,32.4025 48.3477,34.0692 46.5,37.5C 46.1667,37.5 45.8333,37.5 45.5,37.5C 39.8959,39.0621 35.0625,42.0621 31,46.5C 30.3333,79.5 30.3333,112.5 31,145.5C 31.8333,147 33,148.167 34.5,149C 41.1805,153.137 47.8471,156.97 54.5,160.5C 51.5,160.167 50.1667,161.5 50.5,164.5C 41.96,164.377 35.2933,168.043 30.5,175.5C 29.2508,180.181 30.0841,184.514 33,188.5C 34.0674,189.191 35.2341,189.691 36.5,190C 37.1466,191.609 37.98,193.109 39,194.5C 44.0379,194.846 49.0379,196.179 54,198.5C 57.1064,196.835 59.9398,197.168 62.5,199.5C 63.086,199.291 63.586,198.957 64,198.5C 77.0118,200.846 90.1785,202.18 103.5,202.5C 118.174,202.334 132.841,202.334 147.5,202.5C 152.712,200.197 158.046,199.863 163.5,201.5C 167.437,200.349 171.437,199.516 175.5,199C 173.5,198.667 171.5,198.333 169.5,198C 173.659,197.043 177.992,196.71 182.5,197C 185.492,194.89 188.825,193.557 192.5,193C 195.313,191.022 197.48,188.522 199,185.5C 199.333,186.167 199.667,186.833 200,187.5C 200.956,186.421 201.789,185.255 202.5,184C 201.875,181.2 201.208,178.366 200.5,175.5C 198.095,173.358 196.762,170.691 196.5,167.5C 193.058,167.968 190.391,166.802 188.5,164C 185.264,162.848 181.931,162.015 178.5,161.5C 177.287,161.253 176.62,160.586 176.5,159.5C 178.288,159.785 179.955,159.452 181.5,158.5C 184.35,156.573 187.017,154.406 189.5,152C 191.804,151.105 194.138,150.271 196.5,149.5C 197.372,147.55 198.039,145.55 198.5,143.5C 199.167,143.5 199.833,143.5 200.5,143.5C 201.664,111.336 201.831,79.0026 201,46.5C 197.749,42.9091 194.249,39.7424 190.5,37C 185.643,34.7414 180.643,32.7414 175.5,31C 174.663,29.9887 174.33,28.8221 174.5,27.5C 171.722,26.6114 169.055,25.4447 166.5,24C 164.19,23.5034 161.857,23.3367 159.5,23.5C 159.5,22.1667 159.5,20.8333 159.5,19.5C 156.182,19.09 153.349,17.7567 151,15.5C 148.538,14.8405 146.038,14.5072 143.5,14.5C 140.497,9.14504 135.83,5.97838 129.5,5C 127.237,3.38301 125.237,1.54968 123.5,-0.5C 159.167,-0.5 194.833,-0.5 230.5,-0.5C 230.5,72.8333 230.5,146.167 230.5,219.5C 153.5,219.5 76.5,219.5 -0.5,219.5C -0.5,146.167 -0.5,72.8333 -0.5,-0.5 Z"/></g>
<g><path style="opacity:1" fill="#e2f2de" d="M 119.5,-0.5 C 120.833,-0.5 122.167,-0.5 123.5,-0.5C 125.237,1.54968 127.237,3.38301 129.5,5C 135.83,5.97838 140.497,9.14504 143.5,14.5C 135.698,10.4318 128.032,6.09849 120.5,1.5C 120.167,0.833333 119.833,0.166667 119.5,-0.5 Z"/></g>
<g><path style="opacity:1" fill="#89ae7b" d="M 111.5,0.5 C 111.5,1.83333 111.5,3.16667 111.5,4.5C 106.962,5.43578 102.962,7.43578 99.5,10.5C 96.2957,11.3833 93.6291,13.0499 91.5,15.5C 90.1667,15.5 88.8333,15.5 87.5,15.5C 88.6253,13.8712 89.9586,12.3712 91.5,11C 98.278,7.777 104.945,4.277 111.5,0.5 Z"/></g>
<g><path style="opacity:1" fill="#edfbe7" d="M 106.5,-0.5 C 108.167,-0.5 109.833,-0.5 111.5,-0.5C 111.5,-0.166667 111.5,0.166667 111.5,0.5C 104.945,4.277 98.278,7.777 91.5,11C 89.9586,12.3712 88.6253,13.8712 87.5,15.5C 86.8333,15.5 86.1667,15.5 85.5,15.5C 77.1554,21.0073 68.4888,26.0073 59.5,30.5C 59.238,29.0222 59.5713,27.6888 60.5,26.5C 63.1725,25.4992 65.8392,24.4992 68.5,23.5C 71.4696,20.0124 75.1363,17.5124 79.5,16C 84.6049,15.8227 88.2716,13.4893 90.5,9C 93.496,8.33952 95.996,6.83952 98,4.5C 100.791,3.59382 103.624,2.92716 106.5,2.5C 106.5,1.5 106.5,0.5 106.5,-0.5 Z"/></g>
<g><path style="opacity:1" fill="#719869" d="M 120.5,1.5 C 128.032,6.09849 135.698,10.4318 143.5,14.5C 143.5,14.8333 143.5,15.1667 143.5,15.5C 140.039,16.1105 137.372,14.9439 135.5,12C 129.227,10.1879 123.894,7.02121 119.5,2.5C 119.624,1.89333 119.957,1.55999 120.5,1.5 Z"/></g>
<g><path style="opacity:1" fill="#73aa63" d="M 123.5,12.5 C 124.452,13.452 125.452,14.452 126.5,15.5C 127.08,18.447 128.08,21.1137 129.5,23.5C 130.094,25.8553 131.094,28.022 132.5,30C 132.333,30.5 132.167,31 132,31.5C 131.581,30.3279 130.915,29.3279 130,28.5C 130.413,37.4411 130.58,46.4411 130.5,55.5C 131.5,55.5 132.5,55.5 133.5,55.5C 133.336,58.1873 133.503,60.854 134,63.5C 135,64.8333 136,64.8333 137,63.5C 137.499,68.4889 137.666,73.4889 137.5,78.5C 135.473,78.3379 133.473,78.5045 131.5,79C 130.663,80.0113 130.33,81.1779 130.5,82.5C 128.891,83.7709 127.058,84.7709 125,85.5C 124.181,91.6812 124.347,97.6812 125.5,103.5C 126.167,103.833 126.833,104.167 127.5,104.5C 127.762,106.564 128.929,107.897 131,108.5C 131.483,109.448 131.649,110.448 131.5,111.5C 130.5,111.5 129.5,111.5 128.5,111.5C 127.833,111.5 127.5,111.167 127.5,110.5C 126.335,107.41 124.002,106.076 120.5,106.5C 120.806,103.615 120.473,100.948 119.5,98.5C 119.5,97.5 119.5,96.5 119.5,95.5C 120.638,92.6965 120.805,89.6965 120,86.5C 118.855,85.3636 117.688,84.3636 116.5,83.5C 121.392,84.1243 122.558,82.4576 120,78.5C 119.333,57.8333 119.333,37.1667 120,16.5C 120.5,15.3333 121.333,14.5 122.5,14C 121.16,11.8215 121.493,11.3215 123.5,12.5 Z"/></g>
<g><path style="opacity:1" fill="#75b460" d="M 90.5,84.5 C 90.7869,82.8793 91.7869,81.8793 93.5,81.5C 96.496,82.8329 98.1626,81.8329 98.5,78.5C 97.5,78.5 96.5,78.5 95.5,78.5C 95.6666,61.83 95.4999,45.1633 95,28.5C 93.9537,27.228 93.4537,25.728 93.5,24C 94.0278,21.1187 94.6945,18.2854 95.5,15.5C 94.1667,15.5 92.8333,15.5 91.5,15.5C 93.6291,13.0499 96.2957,11.3833 99.5,10.5C 101.199,10.6602 102.866,10.4935 104.5,10C 106.204,7.45294 108.537,5.95294 111.5,5.5C 112.32,9.15783 110.987,11.4912 107.5,12.5C 107,13.5 106.5,14.5 106,15.5C 105.924,36.9902 105.091,58.3236 103.5,79.5C 101.24,80.1389 99.2396,81.3055 97.5,83C 95.0796,83.2904 92.7463,83.7904 90.5,84.5 Z"/></g>
<g><path style="opacity:1" fill="#77af63" d="M 111.5,-0.5 C 113.5,-0.5 115.5,-0.5 117.5,-0.5C 117.771,3.62565 119.605,6.95898 123,9.5C 123.483,10.448 123.649,11.448 123.5,12.5C 121.493,11.3215 121.16,11.8215 122.5,14C 121.333,14.5 120.5,15.3333 120,16.5C 119.333,37.1667 119.333,57.8333 120,78.5C 122.558,82.4576 121.392,84.1243 116.5,83.5C 114.003,81.1289 111.003,80.1289 107.5,80.5C 102.592,82.5334 97.7584,84.8667 93,87.5C 92.5006,92.8229 92.334,98.1563 92.5,103.5C 91.7513,99.9464 90.918,96.2797 90,92.5C 88.9486,97.2389 88.1153,101.906 87.5,106.5C 87.5,100.167 87.5,93.8333 87.5,87.5C 87.4431,86.391 87.1098,85.391 86.5,84.5C 87.8333,84.5 89.1667,84.5 90.5,84.5C 92.7463,83.7904 95.0796,83.2904 97.5,83C 99.2396,81.3055 101.24,80.1389 103.5,79.5C 105.091,58.3236 105.924,36.9902 106,15.5C 106.5,14.5 107,13.5 107.5,12.5C 110.987,11.4912 112.32,9.15783 111.5,5.5C 108.537,5.95294 106.204,7.45294 104.5,10C 102.866,10.4935 101.199,10.6602 99.5,10.5C 102.962,7.43578 106.962,5.43578 111.5,4.5C 111.5,3.16667 111.5,1.83333 111.5,0.5C 111.5,0.166667 111.5,-0.166667 111.5,-0.5 Z"/></g>
<g><path style="opacity:1" fill="#73bc5a" d="M 84.5,83.5 C 82.7175,82.8865 81.3841,81.7198 80.5,80C 76.8484,79.5014 73.1817,79.3347 69.5,79.5C 71.6074,78.5318 73.9407,78.1984 76.5,78.5C 76.5255,65.5918 77.5255,52.7584 79.5,40C 78.7382,28.7547 73.4049,25.9214 63.5,31.5C 66.9879,27.5832 71.3212,24.9166 76.5,23.5C 81.8196,23.663 85.8196,21.4963 88.5,17C 89.448,16.5172 90.448,16.3505 91.5,16.5C 91.665,19.8499 91.4983,23.1832 91,26.5C 88.114,27.7599 85.2806,29.0932 82.5,30.5C 83.7357,31.3567 85.069,32.0234 86.5,32.5C 87.3329,47.8225 87.8329,63.1558 88,78.5C 89.981,81.9468 88.8143,83.6134 84.5,83.5 Z"/></g>
<g><path style="opacity:1" fill="#e9f6e6" d="M 143.5,15.5 C 143.5,15.1667 143.5,14.8333 143.5,14.5C 146.038,14.5072 148.538,14.8405 151,15.5C 153.349,17.7567 156.182,19.09 159.5,19.5C 159.5,20.8333 159.5,22.1667 159.5,23.5C 154.392,20.3944 149.059,17.7277 143.5,15.5 Z"/></g>
<g><path style="opacity:1" fill="#79a070" d="M 143.5,15.5 C 149.059,17.7277 154.392,20.3944 159.5,23.5C 164.167,26.5 168.833,29.5 173.5,32.5C 171.473,32.6621 169.473,32.4955 167.5,32C 160.83,28.3965 154.163,24.8965 147.5,21.5C 145.565,19.9646 144.232,17.9646 143.5,15.5 Z"/></g>
<g><path style="opacity:1" fill="#6ea561" d="M 147.5,21.5 C 154.163,24.8965 160.83,28.3965 167.5,32C 169.473,32.4955 171.473,32.6621 173.5,32.5C 174.492,32.3284 175.158,32.6618 175.5,33.5C 175.369,34.2389 175.536,34.9056 176,35.5C 180.219,36.8829 183.385,39.5496 185.5,43.5C 189.335,44.5888 193.001,45.9222 196.5,47.5C 196.5,47.8333 196.5,48.1667 196.5,48.5C 193.857,52.4346 191.19,56.4346 188.5,60.5C 187.07,60.5792 185.736,60.2458 184.5,59.5C 184.646,60.9762 183.813,62.3095 182,63.5C 180.337,61.6716 178.504,60.0049 176.5,58.5C 175.548,60.0453 175.215,61.712 175.5,63.5C 174.5,63.5 173.5,63.5 172.5,63.5C 172.5,60.8333 172.5,58.1667 172.5,55.5C 170.833,55.5 169.167,55.5 167.5,55.5C 167.5,52.8333 167.5,50.1667 167.5,47.5C 165.833,47.5 164.167,47.5 162.5,47.5C 162.5,44.8333 162.5,42.1667 162.5,39.5C 159.14,37.6592 156.14,35.1592 153.5,32C 154.5,31.6667 155.5,31.3333 156.5,31C 154.866,30.5065 153.199,30.3398 151.5,30.5C 151.5,31.8333 151.5,33.1667 151.5,34.5C 149.077,34.5764 147.244,33.5764 146,31.5C 143.922,32.943 143.089,32.2763 143.5,29.5C 151.164,27.9151 151.164,25.7484 143.5,23C 144.563,21.8118 145.897,21.3118 147.5,21.5 Z"/></g>
<g><path style="opacity:1" fill="#85b673" d="M 85.5,15.5 C 83.3404,19.1973 80.3404,21.864 76.5,23.5C 71.3212,24.9166 66.9879,27.5832 63.5,31.5C 59.5665,31.1337 56.8998,32.8003 55.5,36.5C 51.4437,37.6159 47.777,39.2826 44.5,41.5C 42.9382,41.7329 41.6049,42.3995 40.5,43.5C 39.1667,43.8333 37.8333,44.1667 36.5,44.5C 39.319,41.925 42.319,39.5917 45.5,37.5C 45.8333,37.5 46.1667,37.5 46.5,37.5C 49.7326,36.2709 52.7326,34.6042 55.5,32.5C 56.6715,31.6554 58.0048,30.9887 59.5,30.5C 68.4888,26.0073 77.1554,21.0073 85.5,15.5 Z"/></g>
<g><path style="opacity:1" fill="#6da561" d="M 129.5,23.5 C 133.438,29.326 137.438,35.326 141.5,41.5C 142.428,48.4619 142.761,55.4619 142.5,62.5C 146.329,61.931 149.663,62.5977 152.5,64.5C 150.283,63.6314 147.95,63.298 145.5,63.5C 144.5,63.5 143.5,63.5 142.5,63.5C 140.715,68.0675 139.882,73.0675 140,78.5C 137.595,79.2744 135.095,79.7744 132.5,80C 131.934,80.9947 131.267,81.828 130.5,82.5C 130.33,81.1779 130.663,80.0113 131.5,79C 133.473,78.5045 135.473,78.3379 137.5,78.5C 137.666,73.4889 137.499,68.4889 137,63.5C 136,64.8333 135,64.8333 134,63.5C 133.503,60.854 133.336,58.1873 133.5,55.5C 132.5,55.5 131.5,55.5 130.5,55.5C 130.58,46.4411 130.413,37.4411 130,28.5C 130.915,29.3279 131.581,30.3279 132,31.5C 132.167,31 132.333,30.5 132.5,30C 131.094,28.022 130.094,25.8553 129.5,23.5 Z"/></g>
<g><path style="opacity:1" fill="#75b85e" d="M 85.5,15.5 C 86.1667,15.5 86.8333,15.5 87.5,15.5C 88.8333,15.5 90.1667,15.5 91.5,15.5C 92.8333,15.5 94.1667,15.5 95.5,15.5C 94.6945,18.2854 94.0278,21.1187 93.5,24C 93.4537,25.728 93.9537,27.228 95,28.5C 95.4999,45.1633 95.6666,61.83 95.5,78.5C 96.5,78.5 97.5,78.5 98.5,78.5C 98.1626,81.8329 96.496,82.8329 93.5,81.5C 91.7869,81.8793 90.7869,82.8793 90.5,84.5C 89.1667,84.5 87.8333,84.5 86.5,84.5C 85.5084,84.6716 84.8417,84.3382 84.5,83.5C 88.8143,83.6134 89.981,81.9468 88,78.5C 87.8329,63.1558 87.3329,47.8225 86.5,32.5C 85.069,32.0234 83.7357,31.3567 82.5,30.5C 85.2806,29.0932 88.114,27.7599 91,26.5C 91.4983,23.1832 91.665,19.8499 91.5,16.5C 90.448,16.3505 89.448,16.5172 88.5,17C 85.8196,21.4963 81.8196,23.663 76.5,23.5C 80.3404,21.864 83.3404,19.1973 85.5,15.5 Z"/></g>
<g><path style="opacity:1" fill="#679f5b" d="M 117.5,-0.5 C 118.167,-0.5 118.833,-0.5 119.5,-0.5C 119.833,0.166667 120.167,0.833333 120.5,1.5C 119.957,1.55999 119.624,1.89333 119.5,2.5C 123.894,7.02121 129.227,10.1879 135.5,12C 137.372,14.9439 140.039,16.1105 143.5,15.5C 144.232,17.9646 145.565,19.9646 147.5,21.5C 145.897,21.3118 144.563,21.8118 143.5,23C 151.164,25.7484 151.164,27.9151 143.5,29.5C 143.089,32.2763 143.922,32.943 146,31.5C 147.244,33.5764 149.077,34.5764 151.5,34.5C 151.5,33.1667 151.5,31.8333 151.5,30.5C 153.199,30.3398 154.866,30.5065 156.5,31C 155.5,31.3333 154.5,31.6667 153.5,32C 156.14,35.1592 159.14,37.6592 162.5,39.5C 162.5,42.1667 162.5,44.8333 162.5,47.5C 164.167,47.5 165.833,47.5 167.5,47.5C 167.5,50.1667 167.5,52.8333 167.5,55.5C 169.167,55.5 170.833,55.5 172.5,55.5C 172.5,58.1667 172.5,60.8333 172.5,63.5C 171.175,64.9526 170.342,64.6192 170,62.5C 169.333,65.1667 168.667,65.1667 168,62.5C 167.573,65.4927 166.406,65.9927 164.5,64C 162.141,63.7922 159.974,63.6256 158,63.5C 157.501,67.4862 157.334,71.4862 157.5,75.5C 162.722,75.3808 164.389,77.7141 162.5,82.5C 159.67,83.5103 157.17,85.1769 155,87.5C 153.905,79.8315 153.072,72.1649 152.5,64.5C 149.663,62.5977 146.329,61.931 142.5,62.5C 142.761,55.4619 142.428,48.4619 141.5,41.5C 137.438,35.326 133.438,29.326 129.5,23.5C 128.08,21.1137 127.08,18.447 126.5,15.5C 125.452,14.452 124.452,13.452 123.5,12.5C 123.649,11.448 123.483,10.448 123,9.5C 119.605,6.95898 117.771,3.62565 117.5,-0.5 Z"/></g>
<g><path style="opacity:1" fill="#e6f7dd" d="M 55.5,32.5 C 52.7326,34.6042 49.7326,36.2709 46.5,37.5C 48.3477,34.0692 51.3477,32.4025 55.5,32.5 Z"/></g>
<g><path style="opacity:1" fill="#6bbf48" d="M 39.5,45.5 C 39.8333,44.8333 40.1667,44.1667 40.5,43.5C 41.6049,42.3995 42.9382,41.7329 44.5,41.5C 48.2782,41.3483 51.7782,40.3483 55,38.5C 57.9709,39.8325 59.8042,42.1658 60.5,45.5C 59.8551,46.646 59.0217,47.646 58,48.5C 56.7968,57.1886 57.7968,65.522 61,73.5C 61.5354,71.7295 62.3687,71.3961 63.5,72.5C 62.7517,74.4159 62.7517,76.4159 63.5,78.5C 66.9571,78.6672 67.2904,79.6672 64.5,81.5C 62.8513,80.3523 61.3513,79.019 60,77.5C 58.7344,73.3563 56.9011,69.5229 54.5,66C 54.9574,65.586 55.2907,65.086 55.5,64.5C 53.5352,63.7078 51.5352,63.0412 49.5,62.5C 48.5342,58.7626 47.2008,55.2626 45.5,52C 46.1667,51.6667 46.8333,51.3333 47.5,51C 46.3595,50.2588 46.3595,49.4255 47.5,48.5C 54.4695,47.7823 54.9695,46.1156 49,43.5C 46.8636,45.4592 44.3636,46.7926 41.5,47.5C 40.2867,47.2528 39.62,46.5862 39.5,45.5 Z"/></g>
<g><path style="opacity:1" fill="#7ca773" d="M 175.5,33.5 C 183.702,37.4278 191.369,42.0944 198.5,47.5C 197.833,47.5 197.167,47.5 196.5,47.5C 193.001,45.9222 189.335,44.5888 185.5,43.5C 183.385,39.5496 180.219,36.8829 176,35.5C 175.536,34.9056 175.369,34.2389 175.5,33.5 Z"/></g>
<g><path style="opacity:1" fill="#f0fbee" d="M 45.5,37.5 C 42.319,39.5917 39.319,41.925 36.5,44.5C 34.7356,45.326 33.4023,46.6593 32.5,48.5C 31.336,79.664 31.1693,110.997 32,142.5C 32.3826,143.056 32.8826,143.389 33.5,143.5C 38.3068,148.409 43.9735,152.076 50.5,154.5C 56.8319,159.002 63.4986,163.002 70.5,166.5C 70.5,166.833 70.5,167.167 70.5,167.5C 67.3652,165.977 64.0318,165.31 60.5,165.5C 58.4807,163.81 56.4807,162.144 54.5,160.5C 47.8471,156.97 41.1805,153.137 34.5,149C 33,148.167 31.8333,147 31,145.5C 30.3333,112.5 30.3333,79.5 31,46.5C 35.0625,42.0621 39.8959,39.0621 45.5,37.5 Z"/></g>
<g><path style="opacity:1" fill="#6fbc50" d="M 69.5,79.5 C 69.0472,80.4584 68.3805,81.2917 67.5,82C 64.382,83.0221 61.382,84.1887 58.5,85.5C 56.6559,79.4933 53.4892,74.1599 49,69.5C 48.4338,67.2774 47.6005,65.2774 46.5,63.5C 42.7269,58.327 39.7269,52.6603 37.5,46.5C 37.9569,45.7025 38.6236,45.3691 39.5,45.5C 39.62,46.5862 40.2867,47.2528 41.5,47.5C 44.3636,46.7926 46.8636,45.4592 49,43.5C 54.9695,46.1156 54.4695,47.7823 47.5,48.5C 46.3595,49.4255 46.3595,50.2588 47.5,51C 46.8333,51.3333 46.1667,51.6667 45.5,52C 47.2008,55.2626 48.5342,58.7626 49.5,62.5C 51.5352,63.0412 53.5352,63.7078 55.5,64.5C 55.2907,65.086 54.9574,65.586 54.5,66C 56.9011,69.5229 58.7344,73.3563 60,77.5C 61.3513,79.019 62.8513,80.3523 64.5,81.5C 67.2904,79.6672 66.9571,78.6672 63.5,78.5C 62.7517,76.4159 62.7517,74.4159 63.5,72.5C 62.3687,71.3961 61.5354,71.7295 61,73.5C 57.7968,65.522 56.7968,57.1886 58,48.5C 59.0217,47.646 59.8551,46.646 60.5,45.5C 59.8042,42.1658 57.9709,39.8325 55,38.5C 51.7782,40.3483 48.2782,41.3483 44.5,41.5C 47.777,39.2826 51.4437,37.6159 55.5,36.5C 56.8998,32.8003 59.5665,31.1337 63.5,31.5C 73.4049,25.9214 78.7382,28.7547 79.5,40C 77.5255,52.7584 76.5255,65.5918 76.5,78.5C 73.9407,78.1984 71.6074,78.5318 69.5,79.5 Z"/></g>
<g><path style="opacity:1" fill="#def8dd" d="M 198.5,47.5 C 200.493,79.1492 201.159,111.149 200.5,143.5C 199.833,143.5 199.167,143.5 198.5,143.5C 198.5,142.833 198.5,142.167 198.5,141.5C 199.828,110.264 199.828,78.931 198.5,47.5 Z"/></g>
<g><path style="opacity:1" fill="#5b9056" d="M 36.5,44.5 C 36.5,44.8333 36.5,45.1667 36.5,45.5C 36.3584,56.3202 36.1918,67.3202 36,78.5C 35.6667,71.8333 35.3333,65.1667 35,58.5C 34.9631,65.6682 34.2965,72.6682 33,79.5C 32.5002,69.172 32.3335,58.8387 32.5,48.5C 33.4023,46.6593 34.7356,45.326 36.5,44.5 Z"/></g>
<g><path style="opacity:1" fill="#569944" d="M 40.5,43.5 C 40.1667,44.1667 39.8333,44.8333 39.5,45.5C 38.6236,45.3691 37.9569,45.7025 37.5,46.5C 39.7269,52.6603 42.7269,58.327 46.5,63.5C 44.5328,63.7394 42.6995,63.4061 41,62.5C 40.2081,58.921 38.8747,55.5877 37,52.5C 36.5034,50.1902 36.3367,47.8568 36.5,45.5C 36.5,45.1667 36.5,44.8333 36.5,44.5C 37.8333,44.1667 39.1667,43.8333 40.5,43.5 Z"/></g>
<g><path style="opacity:1" fill="#669e5d" d="M 188.5,60.5 C 185.445,66.942 182.112,73.2753 178.5,79.5C 178.685,80.5837 179.018,81.5837 179.5,82.5C 177.302,82.4088 176.969,83.0755 178.5,84.5C 176.973,84.573 175.973,83.9063 175.5,82.5C 175.126,80.0503 173.626,79.0503 171,79.5C 168.093,80.2265 165.26,81.2265 162.5,82.5C 164.389,77.7141 162.722,75.3808 157.5,75.5C 157.334,71.4862 157.501,67.4862 158,63.5C 159.974,63.6256 162.141,63.7922 164.5,64C 166.406,65.9927 167.573,65.4927 168,62.5C 168.667,65.1667 169.333,65.1667 170,62.5C 170.342,64.6192 171.175,64.9526 172.5,63.5C 173.5,63.5 174.5,63.5 175.5,63.5C 175.215,61.712 175.548,60.0453 176.5,58.5C 178.504,60.0049 180.337,61.6716 182,63.5C 183.813,62.3095 184.646,60.9762 184.5,59.5C 185.736,60.2458 187.07,60.5792 188.5,60.5 Z"/></g>
<g><path style="opacity:1" fill="#789f6f" d="M 142.5,63.5 C 142.829,69.5368 142.496,75.5368 141.5,81.5C 140.005,80.2947 138.672,80.2947 137.5,81.5C 135.181,81.9925 133.181,82.9925 131.5,84.5C 129.393,84.7221 127.726,85.7221 126.5,87.5C 125.505,92.7921 125.172,98.1254 125.5,103.5C 124.347,97.6812 124.181,91.6812 125,85.5C 127.058,84.7709 128.891,83.7709 130.5,82.5C 131.267,81.828 131.934,80.9947 132.5,80C 135.095,79.7744 137.595,79.2744 140,78.5C 139.882,73.0675 140.715,68.0675 142.5,63.5 Z"/></g>
<g><path style="opacity:1" fill="#f1fcf1" d="M 159.5,23.5 C 161.857,23.3367 164.19,23.5034 166.5,24C 169.055,25.4447 171.722,26.6114 174.5,27.5C 174.33,28.8221 174.663,29.9887 175.5,31C 180.643,32.7414 185.643,34.7414 190.5,37C 194.249,39.7424 197.749,42.9091 201,46.5C 201.831,79.0026 201.664,111.336 200.5,143.5C 201.159,111.149 200.493,79.1492 198.5,47.5C 191.369,42.0944 183.702,37.4278 175.5,33.5C 175.158,32.6618 174.492,32.3284 173.5,32.5C 168.833,29.5 164.167,26.5 159.5,23.5 Z"/></g>
<g><path style="opacity:1" fill="#659e5d" d="M 36.5,45.5 C 36.3367,47.8568 36.5034,50.1902 37,52.5C 38.8747,55.5877 40.2081,58.921 41,62.5C 42.6995,63.4061 44.5328,63.7394 46.5,63.5C 47.6005,65.2774 48.4338,67.2774 49,69.5C 53.4892,74.1599 56.6559,79.4933 58.5,85.5C 59.1667,86.1667 59.8333,86.8333 60.5,87.5C 60.5,93.1667 60.5,98.8333 60.5,104.5C 59.71,103.391 59.21,102.058 59,100.5C 55.637,106.009 52.137,111.342 48.5,116.5C 47.2054,114.628 47.3721,112.962 49,111.5C 49.889,107.848 50.2224,104.182 50,100.5C 49.586,100.043 49.086,99.7093 48.5,99.5C 47.4164,100.665 46.5831,101.998 46,103.5C 43.1623,99.9723 41.3289,96.3056 40.5,92.5C 39.2011,93.09 38.3678,94.09 38,95.5C 37.6667,94.5 37.3333,93.5 37,92.5C 36.5005,98.8246 36.3338,105.158 36.5,111.5C 35.5,111.5 34.5,111.5 33.5,111.5C 33.5,116.833 33.5,122.167 33.5,127.5C 33.307,131.566 33.6403,135.566 34.5,139.5C 34.5,140.833 34.5,142.167 34.5,143.5C 34.1667,143.5 33.8333,143.5 33.5,143.5C 32.8826,143.389 32.3826,143.056 32,142.5C 31.1693,110.997 31.336,79.664 32.5,48.5C 32.3335,58.8387 32.5002,69.172 33,79.5C 34.2965,72.6682 34.9631,65.6682 35,58.5C 35.3333,65.1667 35.6667,71.8333 36,78.5C 36.1918,67.3202 36.3584,56.3202 36.5,45.5 Z"/></g>
<g><path style="opacity:1" fill="#3f893f" d="M 197.5,57.5 C 197.5,73.1667 197.5,88.8333 197.5,104.5C 196.224,106.562 195.39,108.896 195,111.5C 194.333,100.833 193.667,100.833 193,111.5C 192.503,108.854 192.336,106.187 192.5,103.5C 188.865,104.114 185.198,104.448 181.5,104.5C 178.818,103.099 176.152,101.599 173.5,100C 177.211,99.1557 180.877,98.1557 184.5,97C 186.229,95.2111 186.896,93.0444 186.5,90.5C 187.163,92.0419 187.83,93.7086 188.5,95.5C 190.08,88.8481 187.414,84.0148 180.5,81C 182.225,77.2265 185.225,75.7265 189.5,76.5C 189.831,80.9145 190.665,85.2478 192,89.5C 192.333,88.8333 192.667,88.1667 193,87.5C 193.168,76.4849 193.668,65.4849 194.5,54.5C 195.086,54.2907 195.586,53.9574 196,53.5C 196.21,55.0581 196.71,56.3915 197.5,57.5 Z"/></g>
<g><path style="opacity:1" fill="#497e48" d="M 196.5,47.5 C 197.167,47.5 197.833,47.5 198.5,47.5C 199.828,78.931 199.828,110.264 198.5,141.5C 197.85,139.565 197.517,137.565 197.5,135.5C 197.5,125.167 197.5,114.833 197.5,104.5C 197.5,88.8333 197.5,73.1667 197.5,57.5C 197.736,54.3915 197.403,51.3915 196.5,48.5C 196.5,48.1667 196.5,47.8333 196.5,47.5 Z"/></g>
<g><path style="opacity:1" fill="#3f843e" d="M 196.5,48.5 C 197.403,51.3915 197.736,54.3915 197.5,57.5C 196.71,56.3915 196.21,55.0581 196,53.5C 195.586,53.9574 195.086,54.2907 194.5,54.5C 193.668,65.4849 193.168,76.4849 193,87.5C 192.667,88.1667 192.333,88.8333 192,89.5C 190.665,85.2478 189.831,80.9145 189.5,76.5C 185.225,75.7265 182.225,77.2265 180.5,81C 187.414,84.0148 190.08,88.8481 188.5,95.5C 187.83,93.7086 187.163,92.0419 186.5,90.5C 186.649,89.448 186.483,88.448 186,87.5C 183.648,85.9697 181.481,84.3031 179.5,82.5C 179.018,81.5837 178.685,80.5837 178.5,79.5C 182.112,73.2753 185.445,66.942 188.5,60.5C 191.19,56.4346 193.857,52.4346 196.5,48.5 Z"/></g>
<g><path style="opacity:1" fill="#cfe7c6" d="M 142.5,63.5 C 143.5,63.5 144.5,63.5 145.5,63.5C 145.5,63.8333 145.5,64.1667 145.5,64.5C 143.547,70.0738 142.88,76.0738 143.5,82.5C 141.856,82.2865 140.356,82.6198 139,83.5C 138.722,82.5842 138.222,81.9175 137.5,81.5C 138.672,80.2947 140.005,80.2947 141.5,81.5C 142.496,75.5368 142.829,69.5368 142.5,63.5 Z"/></g>
<g><path style="opacity:1" fill="#86ab81" d="M 150.5,66.5 C 152.473,75.7755 153.14,85.4422 152.5,95.5C 152.5,97.8333 152.5,100.167 152.5,102.5C 152.5,103.167 152.167,103.5 151.5,103.5C 151.813,91.0867 151.479,78.7533 150.5,66.5 Z"/></g>
<g><path style="opacity:1" fill="#f3fcef" d="M 145.5,64.5 C 147.05,65.4408 148.716,66.1075 150.5,66.5C 151.479,78.7533 151.813,91.0867 151.5,103.5C 147.53,106.736 143.03,109.069 138,110.5C 134.407,108.622 130.907,106.622 127.5,104.5C 126.833,104.167 126.167,103.833 125.5,103.5C 125.172,98.1254 125.505,92.7921 126.5,87.5C 127.726,85.7221 129.393,84.7221 131.5,84.5C 133.181,82.9925 135.181,81.9925 137.5,81.5C 138.222,81.9175 138.722,82.5842 139,83.5C 140.356,82.6198 141.856,82.2865 143.5,82.5C 142.88,76.0738 143.547,70.0738 145.5,64.5 Z"/></g>
<g><path style="opacity:1" fill="#fcfafc" d="M 135.5,91.5 C 135.5,91.8333 135.5,92.1667 135.5,92.5C 133.83,92.7512 132.33,93.4178 131,94.5C 131.152,97.447 131.319,100.447 131.5,103.5C 127.254,102.38 125.587,99.5468 126.5,95C 126.667,93.1667 126.833,91.3333 127,89.5C 129.391,88.61 130.891,86.9433 131.5,84.5C 133.582,84.472 135.416,85.1387 137,86.5C 139.235,84.7976 141.735,83.7976 144.5,83.5C 145.023,78.8828 145.19,74.2162 145,69.5C 146.333,68.1667 147.667,68.1667 149,69.5C 149.232,79.023 149.732,88.523 150.5,98C 150.385,99.8951 149.718,101.562 148.5,103C 147.551,103.617 146.718,103.451 146,102.5C 145.718,98.5118 144.885,94.6785 143.5,91C 140.428,88.9403 137.762,89.107 135.5,91.5 Z"/></g>
<g><path style="opacity:1" fill="#81b06f" d="M 69.5,79.5 C 73.1817,79.3347 76.8484,79.5014 80.5,80C 81.3841,81.7198 82.7175,82.8865 84.5,83.5C 84.8417,84.3382 85.5084,84.6716 86.5,84.5C 87.1098,85.391 87.4431,86.391 87.5,87.5C 86.8333,87.1667 86.1667,86.8333 85.5,86.5C 81.815,84.3392 77.9817,82.3392 74,80.5C 69.6985,82.6446 65.5318,84.9779 61.5,87.5C 61.1667,87.5 60.8333,87.5 60.5,87.5C 59.8333,86.8333 59.1667,86.1667 58.5,85.5C 61.382,84.1887 64.382,83.0221 67.5,82C 68.3805,81.2917 69.0472,80.4584 69.5,79.5 Z"/></g>
<g><path style="opacity:1" fill="#e3f6e1" d="M 175.5,82.5 C 175.973,83.9063 176.973,84.573 178.5,84.5C 183.875,87.2183 184.541,90.5516 180.5,94.5C 180.679,91.9385 180.345,89.2718 179.5,86.5C 175.77,86.1459 172.437,84.8126 169.5,82.5C 168.23,83.5622 167.063,84.5622 166,85.5C 165.329,84.7476 164.496,84.4142 163.5,84.5C 166.923,80.3104 170.923,79.6437 175.5,82.5 Z"/></g>
<g><path style="opacity:1" fill="#fbfcfc" d="M 112.5,86.5 C 111,90.3301 110.333,94.3301 110.5,98.5C 104.74,98.9853 99.0737,98.9853 93.5,98.5C 92.8999,94.4836 93.8999,90.9836 96.5,88C 99.6085,86.7269 102.608,85.2269 105.5,83.5C 108.087,84.0541 110.42,85.0541 112.5,86.5 Z"/></g>
<g><path style="opacity:1" fill="#def3d6" d="M 107.5,80.5 C 110.009,81.9213 112.343,83.5879 114.5,85.5C 113.508,85.3284 112.842,85.6618 112.5,86.5C 110.42,85.0541 108.087,84.0541 105.5,83.5C 102.608,85.2269 99.6085,86.7269 96.5,88C 93.8999,90.9836 92.8999,94.4836 93.5,98.5C 93.5,100.167 93.5,101.833 93.5,103.5C 93.1667,103.5 92.8333,103.5 92.5,103.5C 92.334,98.1563 92.5006,92.8229 93,87.5C 97.7584,84.8667 102.592,82.5334 107.5,80.5 Z"/></g>
<g><path style="opacity:1" fill="#f7faf5" d="M 180.5,94.5 C 178.68,96.4611 176.68,96.7944 174.5,95.5C 173.619,90.89 171.286,89.89 167.5,92.5C 166.614,93.325 166.281,94.325 166.5,95.5C 165.379,97.0894 165.546,98.7561 167,100.5C 169.101,101.924 171.267,103.258 173.5,104.5C 174.386,105.325 174.719,106.325 174.5,107.5C 171.635,107.945 169.135,107.278 167,105.5C 165.187,106.609 164.354,105.942 164.5,103.5C 163.167,103.5 161.833,103.5 160.5,103.5C 158.306,98.0125 157.973,92.3458 159.5,86.5C 160.833,85.8333 162.167,85.1667 163.5,84.5C 164.496,84.4142 165.329,84.7476 166,85.5C 167.063,84.5622 168.23,83.5622 169.5,82.5C 172.437,84.8126 175.77,86.1459 179.5,86.5C 180.345,89.2718 180.679,91.9385 180.5,94.5 Z"/></g>
<g><path style="opacity:1" fill="#84a977" d="M 107.5,80.5 C 111.003,80.1289 114.003,81.1289 116.5,83.5C 117.688,84.3636 118.855,85.3636 120,86.5C 120.805,89.6965 120.638,92.6965 119.5,95.5C 120.48,90.6094 118.814,87.2761 114.5,85.5C 112.343,83.5879 110.009,81.9213 107.5,80.5 Z"/></g>
<g><path style="opacity:1" fill="#669160" d="M 145.5,64.5 C 145.5,64.1667 145.5,63.8333 145.5,63.5C 147.95,63.298 150.283,63.6314 152.5,64.5C 153.072,72.1649 153.905,79.8315 155,87.5C 157.17,85.1769 159.67,83.5103 162.5,82.5C 165.26,81.2265 168.093,80.2265 171,79.5C 173.626,79.0503 175.126,80.0503 175.5,82.5C 170.923,79.6437 166.923,80.3104 163.5,84.5C 162.167,85.1667 160.833,85.8333 159.5,86.5C 158.883,86.6107 158.383,86.944 158,87.5C 157.171,92.8643 157.337,98.1977 158.5,103.5C 161.393,105.772 164.393,107.772 167.5,109.5C 166.167,109.5 164.833,109.5 163.5,109.5C 161.377,107.203 158.71,105.87 155.5,105.5C 155.5,102.167 155.5,98.8333 155.5,95.5C 154.5,95.5 153.5,95.5 152.5,95.5C 153.14,85.4422 152.473,75.7755 150.5,66.5C 148.716,66.1075 147.05,65.4408 145.5,64.5 Z"/></g>
<g><path style="opacity:1" fill="#b5d3b0" d="M 60.5,87.5 C 60.8333,87.5 61.1667,87.5 61.5,87.5C 60.8771,94.2547 61.5437,100.588 63.5,106.5C 62.791,107.404 61.791,107.737 60.5,107.5C 60.5,106.5 60.5,105.5 60.5,104.5C 60.5,98.8333 60.5,93.1667 60.5,87.5 Z"/></g>
<g><path style="opacity:1" fill="#66a45c" d="M 48.5,116.5 C 48.7409,119.034 47.7409,120.7 45.5,121.5C 45.2163,118.368 44.383,115.368 43,112.5C 40.9592,111.577 38.7925,111.244 36.5,111.5C 36.3338,105.158 36.5005,98.8246 37,92.5C 37.3333,93.5 37.6667,94.5 38,95.5C 38.3678,94.09 39.2011,93.09 40.5,92.5C 41.3289,96.3056 43.1623,99.9723 46,103.5C 46.5831,101.998 47.4164,100.665 48.5,99.5C 49.086,99.7093 49.586,100.043 50,100.5C 50.2224,104.182 49.889,107.848 49,111.5C 47.3721,112.962 47.2054,114.628 48.5,116.5 Z"/></g>
<g><path style="opacity:1" fill="#538451" d="M 179.5,82.5 C 181.481,84.3031 183.648,85.9697 186,87.5C 186.483,88.448 186.649,89.448 186.5,90.5C 186.896,93.0444 186.229,95.2111 184.5,97C 180.877,98.1557 177.211,99.1557 173.5,100C 176.152,101.599 178.818,103.099 181.5,104.5C 179.777,108.209 176.777,110.209 172.5,110.5C 174.469,108.841 176.469,107.175 178.5,105.5C 175.426,103.493 172.426,101.493 169.5,99.5C 170.167,99.5 170.5,99.1667 170.5,98.5C 172.19,98.1436 173.19,97.1436 173.5,95.5C 173.833,95.5 174.167,95.5 174.5,95.5C 176.68,96.7944 178.68,96.4611 180.5,94.5C 184.541,90.5516 183.875,87.2183 178.5,84.5C 176.969,83.0755 177.302,82.4088 179.5,82.5 Z"/></g>
<g><path style="opacity:1" fill="#6a7e6a" d="M 174.5,95.5 C 174.167,95.5 173.833,95.5 173.5,95.5C 172.948,93.3914 171.614,92.5581 169.5,93C 168.02,95.2345 168.353,97.0679 170.5,98.5C 170.5,99.1667 170.167,99.5 169.5,99.5C 167.738,98.7377 166.738,97.4044 166.5,95.5C 166.281,94.325 166.614,93.325 167.5,92.5C 171.286,89.89 173.619,90.89 174.5,95.5 Z"/></g>
<g><path style="opacity:1" fill="#7d9f6e" d="M 135.5,92.5 C 135.5,92.1667 135.5,91.8333 135.5,91.5C 136.265,91.0766 137.098,90.7432 138,90.5C 139.3,91.7073 140.8,92.3739 142.5,92.5C 143.134,96.4757 141.634,99.1424 138,100.5C 134.478,98.7513 133.645,96.0846 135.5,92.5 Z"/></g>
<g><path style="opacity:1" fill="#d4f3c8" d="M 85.5,86.5 C 86.1667,86.8333 86.8333,87.1667 87.5,87.5C 87.5,93.8333 87.5,100.167 87.5,106.5C 87.2648,107.097 86.7648,107.43 86,107.5C 84.3336,106.652 82.8336,105.652 81.5,104.5C 82.9305,104.579 84.2638,104.246 85.5,103.5C 86.7416,97.8118 86.7416,92.1452 85.5,86.5 Z"/></g>
<g><path style="opacity:1" fill="#daf1d9" d="M 173.5,95.5 C 173.19,97.1436 172.19,98.1436 170.5,98.5C 168.353,97.0679 168.02,95.2345 169.5,93C 171.614,92.5581 172.948,93.3914 173.5,95.5 Z"/></g>
<g><path style="opacity:1" fill="#f2fded" d="M 85.5,86.5 C 86.7416,92.1452 86.7416,97.8118 85.5,103.5C 84.2638,104.246 82.9305,104.579 81.5,104.5C 80.2905,104.068 79.2905,103.401 78.5,102.5C 78.8204,99.1016 78.487,95.7683 77.5,92.5C 76.1502,91.0499 74.4835,90.3832 72.5,90.5C 72.9169,89.8761 73.5836,89.5427 74.5,89.5C 76.5771,90.9371 78.9105,91.6038 81.5,91.5C 81.5,95.1667 81.5,98.8333 81.5,102.5C 82.8333,102.5 84.1667,102.5 85.5,102.5C 85.6657,98.1539 85.499,93.8206 85,89.5C 78.7867,82.6306 72.2867,82.1306 65.5,88C 64.9781,88.5613 64.6448,89.228 64.5,90C 67.0212,93.5407 67.8546,97.3741 67,101.5C 68.0739,98.5 68.9072,95.5 69.5,92.5C 69.9843,96.8274 69.3177,100.827 67.5,104.5C 65.9382,104.733 64.6049,105.4 63.5,106.5C 61.5437,100.588 60.8771,94.2547 61.5,87.5C 65.5318,84.9779 69.6985,82.6446 74,80.5C 77.9817,82.3392 81.815,84.3392 85.5,86.5 Z"/></g>
<g><path style="opacity:1" fill="#fafafa" d="M 72.5,90.5 C 71.2905,90.9321 70.2905,91.5987 69.5,92.5C 68.9072,95.5 68.0739,98.5 67,101.5C 67.8546,97.3741 67.0212,93.5407 64.5,90C 64.6448,89.228 64.9781,88.5613 65.5,88C 72.2867,82.1306 78.7867,82.6306 85,89.5C 85.499,93.8206 85.6657,98.1539 85.5,102.5C 84.1667,102.5 82.8333,102.5 81.5,102.5C 81.5,98.8333 81.5,95.1667 81.5,91.5C 78.9105,91.6038 76.5771,90.9371 74.5,89.5C 73.5836,89.5427 72.9169,89.8761 72.5,90.5 Z"/></g>
<g><path style="opacity:1" fill="#f2fcf0" d="M 114.5,85.5 C 118.814,87.2761 120.48,90.6094 119.5,95.5C 119.5,96.5 119.5,97.5 119.5,98.5C 119.784,100.415 119.451,102.081 118.5,103.5C 118.666,98.8215 118.499,94.1548 118,89.5C 116.915,88.7069 115.748,88.0402 114.5,87.5C 114.052,92.419 112.885,97.0857 111,101.5C 108.301,101.664 105.468,101.83 102.5,102C 101.075,103.714 101.408,105.047 103.5,106C 105.81,106.497 108.143,106.663 110.5,106.5C 110.5,105.5 110.5,104.5 110.5,103.5C 112.833,103.5 115.167,103.5 117.5,103.5C 113.964,106.191 110.131,108.524 106,110.5C 101.905,108.539 98.0719,106.205 94.5,103.5C 94.1667,103.5 93.8333,103.5 93.5,103.5C 93.5,101.833 93.5,100.167 93.5,98.5C 99.0737,98.9853 104.74,98.9853 110.5,98.5C 110.333,94.3301 111,90.3301 112.5,86.5C 112.842,85.6618 113.508,85.3284 114.5,85.5 Z"/></g>
<g><path style="opacity:1" fill="#fcfafc" d="M 118.5,103.5 C 118.167,103.5 117.833,103.5 117.5,103.5C 115.167,103.5 112.833,103.5 110.5,103.5C 110.5,104.5 110.5,105.5 110.5,106.5C 108.143,106.663 105.81,106.497 103.5,106C 101.408,105.047 101.075,103.714 102.5,102C 105.468,101.83 108.301,101.664 111,101.5C 112.885,97.0857 114.052,92.419 114.5,87.5C 115.748,88.0402 116.915,88.7069 118,89.5C 118.499,94.1548 118.666,98.8215 118.5,103.5 Z"/></g>
<g><path style="opacity:1" fill="#90b983" d="M 72.5,90.5 C 74.4835,90.3832 76.1502,91.0499 77.5,92.5C 78.487,95.7683 78.8204,99.1016 78.5,102.5C 76.8906,99.8511 76.0572,96.8511 76,93.5C 74.3005,92.5939 72.4672,92.2606 70.5,92.5C 70.5,96.8333 70.5,101.167 70.5,105.5C 69.609,104.89 68.609,104.557 67.5,104.5C 69.3177,100.827 69.9843,96.8274 69.5,92.5C 70.2905,91.5987 71.2905,90.9321 72.5,90.5 Z"/></g>
<g><path style="opacity:1" fill="#e2f3e0" d="M 159.5,86.5 C 157.973,92.3458 158.306,98.0125 160.5,103.5C 161.833,103.5 163.167,103.5 164.5,103.5C 164.354,105.942 165.187,106.609 167,105.5C 169.135,107.278 171.635,107.945 174.5,107.5C 174.719,106.325 174.386,105.325 173.5,104.5C 171.267,103.258 169.101,101.924 167,100.5C 165.546,98.7561 165.379,97.0894 166.5,95.5C 166.738,97.4044 167.738,98.7377 169.5,99.5C 172.426,101.493 175.426,103.493 178.5,105.5C 176.469,107.175 174.469,108.841 172.5,110.5C 170.708,110.634 169.042,110.301 167.5,109.5C 164.393,107.772 161.393,105.772 158.5,103.5C 157.337,98.1977 157.171,92.8643 158,87.5C 158.383,86.944 158.883,86.6107 159.5,86.5 Z"/></g>
<g><path style="opacity:1" fill="#76b75e" d="M 78.5,102.5 C 79.2905,103.401 80.2905,104.068 81.5,104.5C 82.8336,105.652 84.3336,106.652 86,107.5C 86.7648,107.43 87.2648,107.097 87.5,106.5C 88.1153,101.906 88.9486,97.2389 90,92.5C 90.918,96.2797 91.7513,99.9464 92.5,103.5C 92.8333,103.5 93.1667,103.5 93.5,103.5C 93.8333,103.5 94.1667,103.5 94.5,103.5C 95.1667,106.833 97.1667,108.833 100.5,109.5C 100.5,110.5 100.5,111.5 100.5,112.5C 101.675,112.281 102.675,112.614 103.5,113.5C 101.992,120.148 101.492,126.815 102,133.5C 101.74,135.618 100.74,137.284 99,138.5C 98.5,137.5 98,136.5 97.5,135.5C 98.2122,132.352 98.8789,129.186 99.5,126C 99.3865,124.72 98.7199,123.887 97.5,123.5C 93.8402,126.816 92.8402,130.816 94.5,135.5C 93.5,135.5 92.5,135.5 91.5,135.5C 91.8134,132.753 91.48,130.086 90.5,127.5C 89.8333,127.167 89.1667,126.833 88.5,126.5C 87.6701,120.862 87.1701,115.196 87,109.5C 83.6842,107.931 80.8508,108.598 78.5,111.5C 77.6667,110.5 76.8333,109.5 76,108.5C 75.6667,103.833 75.3333,99.1667 75,94.5C 74,93.1667 73,93.1667 72,94.5C 71.5012,98.4862 71.3345,102.486 71.5,106.5C 70.8333,106.5 70.5,106.167 70.5,105.5C 70.5,101.167 70.5,96.8333 70.5,92.5C 72.4672,92.2606 74.3005,92.5939 76,93.5C 76.0572,96.8511 76.8906,99.8511 78.5,102.5 Z"/></g>
<g><path style="opacity:1" fill="#679e5a" d="M 152.5,102.5 C 153.947,103.622 154.947,105.122 155.5,107C 154.576,107.85 154.576,108.85 155.5,110C 154.968,112.02 153.635,112.853 151.5,112.5C 151.5,128.833 151.5,145.167 151.5,161.5C 153.619,161.468 154.952,162.468 155.5,164.5C 153.797,167.632 151.13,169.299 147.5,169.5C 145.856,169.714 144.356,169.38 143,168.5C 142.382,154.822 142.549,141.155 143.5,127.5C 142.5,127.5 141.5,127.5 140.5,127.5C 140.707,124.761 141.707,122.427 143.5,120.5C 143.06,118.235 142.394,116.068 141.5,114C 143.996,112.669 145.996,110.836 147.5,108.5C 149.367,107.24 150.7,105.573 151.5,103.5C 152.167,103.5 152.5,103.167 152.5,102.5 Z"/></g>
<g><path style="opacity:1" fill="#5f9b55" d="M 152.5,95.5 C 153.5,95.5 154.5,95.5 155.5,95.5C 155.5,98.8333 155.5,102.167 155.5,105.5C 158.71,105.87 161.377,107.203 163.5,109.5C 161.833,109.5 160.167,109.5 158.5,109.5C 159.14,127.209 159.806,144.876 160.5,162.5C 159.07,163.537 157.403,164.204 155.5,164.5C 154.952,162.468 153.619,161.468 151.5,161.5C 151.5,145.167 151.5,128.833 151.5,112.5C 153.635,112.853 154.968,112.02 155.5,110C 154.576,108.85 154.576,107.85 155.5,107C 154.947,105.122 153.947,103.622 152.5,102.5C 152.5,100.167 152.5,97.8333 152.5,95.5 Z"/></g>
<g><path style="opacity:1" fill="#66a856" d="M 36.5,111.5 C 38.7925,111.244 40.9592,111.577 43,112.5C 44.383,115.368 45.2163,118.368 45.5,121.5C 44.0272,125.779 42.0272,129.779 39.5,133.5C 38.8365,131.958 38.1698,130.291 37.5,128.5C 36.2638,127.754 34.9305,127.421 33.5,127.5C 33.5,122.167 33.5,116.833 33.5,111.5C 34.5,111.5 35.5,111.5 36.5,111.5 Z"/></g>
<g><path style="opacity:1" fill="#7da671" d="M 119.5,98.5 C 120.473,100.948 120.806,103.615 120.5,106.5C 124.002,106.076 126.335,107.41 127.5,110.5C 124.999,109.174 122.332,108.674 119.5,109C 115.916,111.041 112.416,113.208 109,115.5C 108.333,120.833 108.333,126.167 109,131.5C 111.025,133.879 113.525,134.713 116.5,134C 117.823,133.184 118.489,132.017 118.5,130.5C 122.649,131.08 126.316,130.414 129.5,128.5C 129.833,128.5 130.167,128.5 130.5,128.5C 131.302,127.048 131.802,125.382 132,123.5C 132.497,125.81 132.663,128.143 132.5,130.5C 129.447,132.241 126.447,134.074 123.5,136C 121.5,136 119.5,136 117.5,136C 118.997,138.207 120.997,138.874 123.5,138C 127.875,136.284 131.709,133.784 135,130.5C 135.667,125.5 135.667,120.5 135,115.5C 132.416,114.731 130.25,113.398 128.5,111.5C 129.5,111.5 130.5,111.5 131.5,111.5C 131.649,110.448 131.483,109.448 131,108.5C 128.929,107.897 127.762,106.564 127.5,104.5C 130.907,106.622 134.407,108.622 138,110.5C 143.03,109.069 147.53,106.736 151.5,103.5C 150.7,105.573 149.367,107.24 147.5,108.5C 145.303,109.845 142.97,111.011 140.5,112C 139.402,112.77 139.402,113.603 140.5,114.5C 138.654,114.222 137.32,114.889 136.5,116.5C 137.32,118.111 138.654,118.778 140.5,118.5C 139.158,123.712 138.158,129.045 137.5,134.5C 134.69,135.199 132.023,136.199 129.5,137.5C 128.596,138.209 128.263,139.209 128.5,140.5C 124.941,140.716 121.441,140.382 118,139.5C 114.816,137.355 111.483,135.355 108,133.5C 106.572,126.391 106.072,119.391 106.5,112.5C 104.412,111.799 102.412,110.799 100.5,109.5C 97.1667,108.833 95.1667,106.833 94.5,103.5C 98.0719,106.205 101.905,108.539 106,110.5C 110.131,108.524 113.964,106.191 117.5,103.5C 117.833,103.5 118.167,103.5 118.5,103.5C 119.451,102.081 119.784,100.415 119.5,98.5 Z"/></g>
<g><path style="opacity:1" fill="#dcf7d3" d="M 127.5,110.5 C 127.5,111.167 127.833,111.5 128.5,111.5C 130.25,113.398 132.416,114.731 135,115.5C 135.667,120.5 135.667,125.5 135,130.5C 131.709,133.784 127.875,136.284 123.5,138C 120.997,138.874 118.997,138.207 117.5,136C 119.5,136 121.5,136 123.5,136C 126.447,134.074 129.447,132.241 132.5,130.5C 133.833,125.833 133.833,121.167 132.5,116.5C 130.287,115.227 127.954,114.227 125.5,113.5C 124.809,111.978 123.642,110.978 122,110.5C 117.762,112.252 113.929,114.586 110.5,117.5C 110.334,121.846 110.501,126.179 111,130.5C 112.506,132.065 114.006,132.399 115.5,131.5C 115.865,126.906 116.865,122.573 118.5,118.5C 118.5,118.833 118.5,119.167 118.5,119.5C 118.5,123.167 118.5,126.833 118.5,130.5C 118.489,132.017 117.823,133.184 116.5,134C 113.525,134.713 111.025,133.879 109,131.5C 108.333,126.167 108.333,120.833 109,115.5C 112.416,113.208 115.916,111.041 119.5,109C 122.332,108.674 124.999,109.174 127.5,110.5 Z"/></g>
<g><path style="opacity:1" fill="#79a869" d="M 125.5,113.5 C 125.167,114.833 124.833,116.167 124.5,117.5C 122.446,117.365 120.779,118.032 119.5,119.5C 119.167,119.5 118.833,119.5 118.5,119.5C 118.5,119.167 118.5,118.833 118.5,118.5C 117.053,117.115 116.053,117.448 115.5,119.5C 114.523,122.287 114.19,125.287 114.5,128.5C 113.5,128.5 112.5,128.5 111.5,128.5C 111.815,124.629 111.482,120.962 110.5,117.5C 113.929,114.586 117.762,112.252 122,110.5C 123.642,110.978 124.809,111.978 125.5,113.5 Z"/></g>
<g><path style="opacity:1" fill="#7d9e74" d="M 125.5,113.5 C 127.954,114.227 130.287,115.227 132.5,116.5C 132.662,118.527 132.495,120.527 132,122.5C 131.148,121.429 130.315,120.429 129.5,119.5C 128.22,118.069 126.553,117.402 124.5,117.5C 124.833,116.167 125.167,114.833 125.5,113.5 Z"/></g>
<g><path style="opacity:1" fill="#a3d197" d="M 140.5,114.5 C 141.833,115.833 141.833,117.167 140.5,118.5C 138.654,118.778 137.32,118.111 136.5,116.5C 137.32,114.889 138.654,114.222 140.5,114.5 Z"/></g>
<g><path style="opacity:1" fill="#39853c" d="M 60.5,104.5 C 60.5,105.5 60.5,106.5 60.5,107.5C 61.791,107.737 62.791,107.404 63.5,106.5C 64.6049,105.4 65.9382,104.733 67.5,104.5C 68.609,104.557 69.609,104.89 70.5,105.5C 70.5,106.167 70.8333,106.5 71.5,106.5C 72.1109,109.721 73.2776,112.721 75,115.5C 81.2355,124.529 86.7355,133.863 91.5,143.5C 96.6787,153.007 101.679,162.674 106.5,172.5C 106.932,173.71 107.599,174.71 108.5,175.5C 110.647,179.729 112.647,184.062 114.5,188.5C 109.744,186.575 105.41,183.908 101.5,180.5C 92.0504,176.303 82.7171,171.969 73.5,167.5C 73.0629,165.926 72.0629,164.759 70.5,164C 66.9975,162.297 63.6641,160.464 60.5,158.5C 60.528,156.418 59.8613,154.584 58.5,153C 55.2889,151.847 51.9555,151.18 48.5,151C 44.749,146.627 40.0823,144.127 34.5,143.5C 34.5,142.167 34.5,140.833 34.5,139.5C 36.8598,138.135 38.5265,136.135 39.5,133.5C 42.0272,129.779 44.0272,125.779 45.5,121.5C 47.7409,120.7 48.7409,119.034 48.5,116.5C 52.137,111.342 55.637,106.009 59,100.5C 59.21,102.058 59.71,103.391 60.5,104.5 Z"/></g>
<g><path style="opacity:1" fill="#71bb5b" d="M 94.5,135.5 C 96.0395,137.838 96.7062,140.505 96.5,143.5C 94.8333,143.5 93.1667,143.5 91.5,143.5C 86.7355,133.863 81.2355,124.529 75,115.5C 73.2776,112.721 72.1109,109.721 71.5,106.5C 71.3345,102.486 71.5012,98.4862 72,94.5C 73,93.1667 74,93.1667 75,94.5C 75.3333,99.1667 75.6667,103.833 76,108.5C 76.8333,109.5 77.6667,110.5 78.5,111.5C 80.8508,108.598 83.6842,107.931 87,109.5C 87.1701,115.196 87.6701,120.862 88.5,126.5C 89.1667,126.833 89.8333,127.167 90.5,127.5C 91.48,130.086 91.8134,132.753 91.5,135.5C 92.5,135.5 93.5,135.5 94.5,135.5 Z"/></g>
<g><path style="opacity:1" fill="#3a853b" d="M 197.5,135.5 C 197.517,137.565 197.85,139.565 198.5,141.5C 198.5,142.167 198.5,142.833 198.5,143.5C 198.167,143.5 197.833,143.5 197.5,143.5C 190.381,147.966 183.048,151.966 175.5,155.5C 173.577,155.205 171.91,154.372 170.5,153C 171.5,152.667 172.5,152.333 173.5,152C 172.178,138.896 172.178,125.729 173.5,112.5C 176.353,110.023 179.353,109.523 182.5,111C 186.162,116.437 189.162,122.271 191.5,128.5C 194.171,130.466 196.171,132.8 197.5,135.5 Z"/></g>
<g><path style="opacity:1" fill="#4f9149" d="M 197.5,104.5 C 197.5,114.833 197.5,125.167 197.5,135.5C 196.171,132.8 194.171,130.466 191.5,128.5C 189.162,122.271 186.162,116.437 182.5,111C 179.353,109.523 176.353,110.023 173.5,112.5C 172.178,125.729 172.178,138.896 173.5,152C 172.5,152.333 171.5,152.667 170.5,153C 171.91,154.372 173.577,155.205 175.5,155.5C 175.5,156.167 175.5,156.833 175.5,157.5C 174.486,158.674 173.153,159.34 171.5,159.5C 169.473,159.338 167.473,159.505 165.5,160C 163.922,161.094 162.255,161.928 160.5,162.5C 159.806,144.876 159.14,127.209 158.5,109.5C 160.167,109.5 161.833,109.5 163.5,109.5C 164.833,109.5 166.167,109.5 167.5,109.5C 169.042,110.301 170.708,110.634 172.5,110.5C 176.777,110.209 179.777,108.209 181.5,104.5C 185.198,104.448 188.865,104.114 192.5,103.5C 192.336,106.187 192.503,108.854 193,111.5C 193.667,100.833 194.333,100.833 195,111.5C 195.39,108.896 196.224,106.562 197.5,104.5 Z"/></g>
<g><path style="opacity:1" fill="#badbaf" d="M 118.5,118.5 C 116.865,122.573 115.865,126.906 115.5,131.5C 115.5,127.5 115.5,123.5 115.5,119.5C 116.053,117.448 117.053,117.115 118.5,118.5 Z"/></g>
<g><path style="opacity:1" fill="#96b093" d="M 132.5,116.5 C 133.833,121.167 133.833,125.833 132.5,130.5C 132.663,128.143 132.497,125.81 132,123.5C 131.802,125.382 131.302,127.048 130.5,128.5C 130.714,126.856 130.38,125.356 129.5,124C 126.743,123.122 124.076,122.122 121.5,121C 123.952,118.871 126.286,119.037 128.5,121.5C 129.298,121.043 129.631,120.376 129.5,119.5C 130.315,120.429 131.148,121.429 132,122.5C 132.495,120.527 132.662,118.527 132.5,116.5 Z"/></g>
<g><path style="opacity:1" fill="#8da988" d="M 118.5,119.5 C 118.833,119.5 119.167,119.5 119.5,119.5C 119.33,120.822 119.663,121.989 120.5,123C 123.47,123.738 126.136,124.904 128.5,126.5C 125.603,127.909 122.937,127.576 120.5,125.5C 119.269,126.651 119.269,127.817 120.5,129C 123.592,129.736 126.592,129.569 129.5,128.5C 126.316,130.414 122.649,131.08 118.5,130.5C 118.5,126.833 118.5,123.167 118.5,119.5 Z"/></g>
<g><path style="opacity:1" fill="#e6f7e1" d="M 124.5,117.5 C 126.553,117.402 128.22,118.069 129.5,119.5C 129.631,120.376 129.298,121.043 128.5,121.5C 126.286,119.037 123.952,118.871 121.5,121C 124.076,122.122 126.743,123.122 129.5,124C 130.38,125.356 130.714,126.856 130.5,128.5C 130.167,128.5 129.833,128.5 129.5,128.5C 126.592,129.569 123.592,129.736 120.5,129C 119.269,127.817 119.269,126.651 120.5,125.5C 122.937,127.576 125.603,127.909 128.5,126.5C 126.136,124.904 123.47,123.738 120.5,123C 119.663,121.989 119.33,120.822 119.5,119.5C 120.779,118.032 122.446,117.365 124.5,117.5 Z"/></g>
<g><path style="opacity:1" fill="#7ea374" d="M 110.5,117.5 C 111.482,120.962 111.815,124.629 111.5,128.5C 112.5,128.5 113.5,128.5 114.5,128.5C 114.19,125.287 114.523,122.287 115.5,119.5C 115.5,123.5 115.5,127.5 115.5,131.5C 114.006,132.399 112.506,132.065 111,130.5C 110.501,126.179 110.334,121.846 110.5,117.5 Z"/></g>
<g><path style="opacity:1" fill="#5da748" d="M 33.5,127.5 C 34.9305,127.421 36.2638,127.754 37.5,128.5C 38.1698,130.291 38.8365,131.958 39.5,133.5C 38.5265,136.135 36.8598,138.135 34.5,139.5C 33.6403,135.566 33.307,131.566 33.5,127.5 Z"/></g>
<g><path style="opacity:1" fill="#77b461" d="M 100.5,109.5 C 102.412,110.799 104.412,111.799 106.5,112.5C 105.536,119.746 105.203,127.08 105.5,134.5C 104.957,134.56 104.624,134.893 104.5,135.5C 105.106,137.709 105.773,139.876 106.5,142C 105.975,142.692 105.308,143.192 104.5,143.5C 103.338,148.467 103.171,153.467 104,158.5C 105.399,158.501 106.899,158.835 108.5,159.5C 108.833,160.5 109.167,161.5 109.5,162.5C 108.843,164.472 108.843,166.305 109.5,168C 108.103,169.31 107.103,170.81 106.5,172.5C 101.679,162.674 96.6787,153.007 91.5,143.5C 93.1667,143.5 94.8333,143.5 96.5,143.5C 96.7062,140.505 96.0395,137.838 94.5,135.5C 92.8402,130.816 93.8402,126.816 97.5,123.5C 98.7199,123.887 99.3865,124.72 99.5,126C 98.8789,129.186 98.2122,132.352 97.5,135.5C 98,136.5 98.5,137.5 99,138.5C 100.74,137.284 101.74,135.618 102,133.5C 101.492,126.815 101.992,120.148 103.5,113.5C 102.675,112.614 101.675,112.281 100.5,112.5C 100.5,111.5 100.5,110.5 100.5,109.5 Z"/></g>
<g><path style="opacity:1" fill="#6ea461" d="M 147.5,108.5 C 145.996,110.836 143.996,112.669 141.5,114C 142.394,116.068 143.06,118.235 143.5,120.5C 141.707,122.427 140.707,124.761 140.5,127.5C 141.5,127.5 142.5,127.5 143.5,127.5C 142.549,141.155 142.382,154.822 143,168.5C 144.356,169.38 145.856,169.714 147.5,169.5C 146.167,171.5 144.833,173.5 143.5,175.5C 142.127,175.343 140.793,175.51 139.5,176C 137.26,178.286 134.593,179.786 131.5,180.5C 131.937,178.926 132.937,177.759 134.5,177C 132.559,175.097 130.226,174.264 127.5,174.5C 127.334,169.821 127.501,165.155 128,160.5C 128.414,160.043 128.914,159.709 129.5,159.5C 130.995,153.853 132.329,148.187 133.5,142.5C 132.388,140.581 131.054,138.914 129.5,137.5C 132.023,136.199 134.69,135.199 137.5,134.5C 138.158,129.045 139.158,123.712 140.5,118.5C 141.833,117.167 141.833,115.833 140.5,114.5C 139.402,113.603 139.402,112.77 140.5,112C 142.97,111.011 145.303,109.845 147.5,108.5 Z"/></g>
<g><path style="opacity:1" fill="#76b062" d="M 105.5,134.5 C 106.983,136.094 108.483,137.76 110,139.5C 111.183,138.269 112.349,138.269 113.5,139.5C 110.839,141.18 111.006,142.513 114,143.5C 118.243,141.67 122.743,141.004 127.5,141.5C 127.5,142.5 127.5,143.5 127.5,144.5C 124.833,144.5 122.167,144.5 119.5,144.5C 119.667,155.172 119.5,165.839 119,176.5C 116.699,177.867 114.199,178.534 111.5,178.5C 111.5,177.5 111.5,176.5 111.5,175.5C 110.5,175.5 109.5,175.5 108.5,175.5C 107.599,174.71 106.932,173.71 106.5,172.5C 107.103,170.81 108.103,169.31 109.5,168C 108.843,166.305 108.843,164.472 109.5,162.5C 109.167,161.5 108.833,160.5 108.5,159.5C 106.899,158.835 105.399,158.501 104,158.5C 103.171,153.467 103.338,148.467 104.5,143.5C 105.308,143.192 105.975,142.692 106.5,142C 105.773,139.876 105.106,137.709 104.5,135.5C 104.624,134.893 104.957,134.56 105.5,134.5 Z"/></g>
<g><path style="opacity:1" fill="#408047" d="M 33.5,143.5 C 33.8333,143.5 34.1667,143.5 34.5,143.5C 40.0823,144.127 44.749,146.627 48.5,151C 51.9555,151.18 55.2889,151.847 58.5,153C 59.8613,154.584 60.528,156.418 60.5,158.5C 59.1634,157.685 58.1634,156.518 57.5,155C 55.1902,154.503 52.8568,154.337 50.5,154.5C 43.9735,152.076 38.3068,148.409 33.5,143.5 Z"/></g>
<g><path style="opacity:1" fill="#72ac64" d="M 106.5,112.5 C 106.072,119.391 106.572,126.391 108,133.5C 111.483,135.355 114.816,137.355 118,139.5C 121.441,140.382 124.941,140.716 128.5,140.5C 128.263,139.209 128.596,138.209 129.5,137.5C 131.054,138.914 132.388,140.581 133.5,142.5C 132.329,148.187 130.995,153.853 129.5,159.5C 128.914,159.709 128.414,160.043 128,160.5C 127.501,165.155 127.334,169.821 127.5,174.5C 130.226,174.264 132.559,175.097 134.5,177C 132.937,177.759 131.937,178.926 131.5,180.5C 127.585,182.826 123.585,185.326 119.5,188C 118.207,188.49 116.873,188.657 115.5,188.5C 115.167,188.5 114.833,188.5 114.5,188.5C 112.647,184.062 110.647,179.729 108.5,175.5C 109.5,175.5 110.5,175.5 111.5,175.5C 111.5,176.5 111.5,177.5 111.5,178.5C 114.199,178.534 116.699,177.867 119,176.5C 119.5,165.839 119.667,155.172 119.5,144.5C 122.167,144.5 124.833,144.5 127.5,144.5C 127.5,143.5 127.5,142.5 127.5,141.5C 122.743,141.004 118.243,141.67 114,143.5C 111.006,142.513 110.839,141.18 113.5,139.5C 112.349,138.269 111.183,138.269 110,139.5C 108.483,137.76 106.983,136.094 105.5,134.5C 105.203,127.08 105.536,119.746 106.5,112.5 Z"/></g>
<g><path style="opacity:1" fill="#e5f7e3" d="M 197.5,143.5 C 197.833,143.5 198.167,143.5 198.5,143.5C 198.039,145.55 197.372,147.55 196.5,149.5C 194.138,150.271 191.804,151.105 189.5,152C 187.017,154.406 184.35,156.573 181.5,158.5C 179.955,159.452 178.288,159.785 176.5,159.5C 174.958,160.301 173.292,160.634 171.5,160.5C 171.5,160.167 171.5,159.833 171.5,159.5C 173.153,159.34 174.486,158.674 175.5,157.5C 180.621,154.437 185.954,151.604 191.5,149C 193.996,147.669 195.996,145.836 197.5,143.5 Z"/></g>
<g><path style="opacity:1" fill="#447142" d="M 197.5,143.5 C 195.996,145.836 193.996,147.669 191.5,149C 185.954,151.604 180.621,154.437 175.5,157.5C 175.5,156.833 175.5,156.167 175.5,155.5C 183.048,151.966 190.381,147.966 197.5,143.5 Z"/></g>
<g><path style="opacity:1" fill="#4d7f4f" d="M 50.5,154.5 C 52.8568,154.337 55.1902,154.503 57.5,155C 58.1634,156.518 59.1634,157.685 60.5,158.5C 63.6641,160.464 66.9975,162.297 70.5,164C 72.0629,164.759 73.0629,165.926 73.5,167.5C 72.391,167.443 71.391,167.11 70.5,166.5C 63.4986,163.002 56.8319,159.002 50.5,154.5 Z"/></g>
<g><path style="opacity:1" fill="#f6f6f6" d="M 176.5,159.5 C 176.62,160.586 177.287,161.253 178.5,161.5C 181.931,162.015 185.264,162.848 188.5,164C 190.391,166.802 193.058,167.968 196.5,167.5C 196.762,170.691 198.095,173.358 200.5,175.5C 201.208,178.366 201.875,181.2 202.5,184C 201.789,185.255 200.956,186.421 200,187.5C 199.667,186.833 199.333,186.167 199,185.5C 197.48,188.522 195.313,191.022 192.5,193C 188.825,193.557 185.492,194.89 182.5,197C 177.992,196.71 173.659,197.043 169.5,198C 171.5,198.333 173.5,198.667 175.5,199C 171.437,199.516 167.437,200.349 163.5,201.5C 158.046,199.863 152.712,200.197 147.5,202.5C 132.841,202.334 118.174,202.334 103.5,202.5C 90.1785,202.18 77.0118,200.846 64,198.5C 63.586,198.957 63.086,199.291 62.5,199.5C 59.9398,197.168 57.1064,196.835 54,198.5C 49.0379,196.179 44.0379,194.846 39,194.5C 37.98,193.109 37.1466,191.609 36.5,190C 35.2341,189.691 34.0674,189.191 33,188.5C 30.0841,184.514 29.2508,180.181 30.5,175.5C 35.2933,168.043 41.96,164.377 50.5,164.5C 50.1667,161.5 51.5,160.167 54.5,160.5C 56.4807,162.144 58.4807,163.81 60.5,165.5C 59.8333,165.5 59.1667,165.5 58.5,165.5C 50.3013,164.1 43.1346,166.1 37,171.5C 33.902,176.035 32.902,181.035 34,186.5C 40.2817,191.393 47.4483,194.56 55.5,196C 86.7493,200.731 118.083,201.565 149.5,198.5C 150.689,198.756 151.856,199.089 153,199.5C 164.765,197.601 176.432,195.268 188,192.5C 191.928,190.541 195.261,187.874 198,184.5C 200.063,176.459 197.23,170.959 189.5,168C 184.099,167.15 178.766,165.983 173.5,164.5C 172.584,164.543 171.917,164.876 171.5,165.5C 170.167,165.5 168.833,165.5 167.5,165.5C 168.6,164.442 169.934,163.608 171.5,163C 170.402,162.23 170.402,161.397 171.5,160.5C 173.292,160.634 174.958,160.301 176.5,159.5 Z"/></g>
<g><path style="opacity:1" fill="#cadec6" d="M 171.5,160.5 C 170.402,161.397 170.402,162.23 171.5,163C 169.934,163.608 168.6,164.442 167.5,165.5C 164.782,166.104 162.449,167.437 160.5,169.5C 158.95,170.441 157.284,171.107 155.5,171.5C 155.833,170.833 156.167,170.167 156.5,169.5C 161.233,166.11 166.233,163.11 171.5,160.5 Z"/></g>
<g><path style="opacity:1" fill="#66935f" d="M 171.5,159.5 C 171.5,159.833 171.5,160.167 171.5,160.5C 166.233,163.11 161.233,166.11 156.5,169.5C 152.167,171.5 147.833,173.5 143.5,175.5C 144.833,173.5 146.167,171.5 147.5,169.5C 151.13,169.299 153.797,167.632 155.5,164.5C 157.403,164.204 159.07,163.537 160.5,162.5C 162.255,161.928 163.922,161.094 165.5,160C 167.473,159.505 169.473,159.338 171.5,159.5 Z"/></g>
<g><path style="opacity:1" fill="#ececec" d="M 171.5,165.5 C 171.917,164.876 172.584,164.543 173.5,164.5C 178.766,165.983 184.099,167.15 189.5,168C 197.23,170.959 200.063,176.459 198,184.5C 195.261,187.874 191.928,190.541 188,192.5C 176.432,195.268 164.765,197.601 153,199.5C 151.856,199.089 150.689,198.756 149.5,198.5C 118.083,201.565 86.7493,200.731 55.5,196C 47.4483,194.56 40.2817,191.393 34,186.5C 32.902,181.035 33.902,176.035 37,171.5C 43.1346,166.1 50.3013,164.1 58.5,165.5C 59.5981,166.397 59.5981,167.23 58.5,168C 53.4482,168.744 48.4482,169.744 43.5,171C 42.0267,171.71 41.3601,172.876 41.5,174.5C 38.6408,174.801 37.3075,176.467 37.5,179.5C 37.6667,180.833 37.8333,182.167 38,183.5C 39.3613,185.028 40.528,186.695 41.5,188.5C 56.1461,192.413 70.9794,195.413 86,197.5C 103.605,197.428 121.439,197.261 139.5,197C 155.163,196.549 170.496,194.216 185.5,190C 189.366,188.783 192.699,186.783 195.5,184C 195.942,180.332 195.275,176.665 193.5,173C 186.548,169.405 179.214,166.905 171.5,165.5 Z"/></g>
<g><path style="opacity:1" fill="#a0bda2" d="M 70.5,166.5 C 71.391,167.11 72.391,167.443 73.5,167.5C 73.9528,168.458 74.6195,169.292 75.5,170C 86.393,175.941 97.0597,182.108 107.5,188.5C 100.415,186.257 93.7483,183.257 87.5,179.5C 86.2876,178.77 85.2876,177.77 84.5,176.5C 80.2094,175.021 76.2094,173.021 72.5,170.5C 72.2178,169.222 71.5511,168.222 70.5,167.5C 70.5,167.167 70.5,166.833 70.5,166.5 Z"/></g>
<g><path style="opacity:1" fill="#e1e1e1" d="M 167.5,165.5 C 168.833,165.5 170.167,165.5 171.5,165.5C 179.214,166.905 186.548,169.405 193.5,173C 195.275,176.665 195.942,180.332 195.5,184C 192.699,186.783 189.366,188.783 185.5,190C 170.496,194.216 155.163,196.549 139.5,197C 121.439,197.261 103.605,197.428 86,197.5C 70.9794,195.413 56.1461,192.413 41.5,188.5C 40.528,186.695 39.3613,185.028 38,183.5C 37.8333,182.167 37.6667,180.833 37.5,179.5C 37.3075,176.467 38.6408,174.801 41.5,174.5C 40.2599,175.973 39.2599,177.64 38.5,179.5C 39.2485,181.332 40.2485,182.999 41.5,184.5C 47.3664,186.734 53.1997,189.067 59,191.5C 66.9356,192.232 74.769,193.399 82.5,195C 102.833,195.667 123.167,195.667 143.5,195C 157.456,194.554 171.123,192.387 184.5,188.5C 193.856,184.856 194.856,179.689 187.5,173C 182.642,172.383 178.309,170.716 174.5,168C 171.961,167.204 169.628,167.371 167.5,168.5C 165.139,168.674 162.806,169.007 160.5,169.5C 162.449,167.437 164.782,166.104 167.5,165.5 Z"/></g>
<g><path style="opacity:1" fill="#d5d5d4" d="M 58.5,165.5 C 59.1667,165.5 59.8333,165.5 60.5,165.5C 64.0318,165.31 67.3652,165.977 70.5,167.5C 71.5511,168.222 72.2178,169.222 72.5,170.5C 69.9105,170.604 67.5771,169.937 65.5,168.5C 58.4635,170.693 51.4635,172.859 44.5,175C 44.8333,175.333 45.1667,175.667 45.5,176C 43.6161,176.216 41.9494,176.883 40.5,178C 41.0509,179.398 41.3842,180.732 41.5,182C 48.3504,185.748 55.6837,188.415 63.5,190C 100.912,194.907 138.245,194.407 175.5,188.5C 179.192,187.436 182.858,186.27 186.5,185C 189.451,181.265 189.118,177.931 185.5,175C 178.787,173.458 172.12,171.791 165.5,170C 166.416,169.722 167.082,169.222 167.5,168.5C 169.628,167.371 171.961,167.204 174.5,168C 178.309,170.716 182.642,172.383 187.5,173C 194.856,179.689 193.856,184.856 184.5,188.5C 171.123,192.387 157.456,194.554 143.5,195C 123.167,195.667 102.833,195.667 82.5,195C 74.769,193.399 66.9356,192.232 59,191.5C 53.1997,189.067 47.3664,186.734 41.5,184.5C 40.2485,182.999 39.2485,181.332 38.5,179.5C 39.2599,177.64 40.2599,175.973 41.5,174.5C 41.3601,172.876 42.0267,171.71 43.5,171C 48.4482,169.744 53.4482,168.744 58.5,168C 59.5981,167.23 59.5981,166.397 58.5,165.5 Z"/></g>
<g><path style="opacity:1" fill="#c4c5c5" d="M 72.5,170.5 C 70.0987,171.539 67.7654,172.873 65.5,174.5C 60.1925,173.808 54.8592,173.974 49.5,175C 45.2052,176.845 44.5385,179.512 47.5,183C 52.5888,184.683 57.7554,186.183 63,187.5C 71.3182,185.79 79.3182,186.79 87,190.5C 90.4898,190.156 92.9898,188.489 94.5,185.5C 99.5063,186.835 104.173,189.002 108.5,192C 113.489,192.499 118.489,192.666 123.5,192.5C 123.33,191.178 123.663,190.011 124.5,189C 129.291,187.765 133.958,186.265 138.5,184.5C 138.5,185.5 138.5,186.5 138.5,187.5C 151.956,187.081 165.289,185.581 178.5,183C 180.833,181.757 181.5,180.091 180.5,178C 175.715,177.294 171.215,175.794 167,173.5C 161.707,172.909 156.541,173.575 151.5,175.5C 152.527,173.806 153.861,172.473 155.5,171.5C 157.284,171.107 158.95,170.441 160.5,169.5C 162.806,169.007 165.139,168.674 167.5,168.5C 167.082,169.222 166.416,169.722 165.5,170C 172.12,171.791 178.787,173.458 185.5,175C 189.118,177.931 189.451,181.265 186.5,185C 182.858,186.27 179.192,187.436 175.5,188.5C 138.245,194.407 100.912,194.907 63.5,190C 55.6837,188.415 48.3504,185.748 41.5,182C 41.3842,180.732 41.0509,179.398 40.5,178C 41.9494,176.883 43.6161,176.216 45.5,176C 45.1667,175.667 44.8333,175.333 44.5,175C 51.4635,172.859 58.4635,170.693 65.5,168.5C 67.5771,169.937 69.9105,170.604 72.5,170.5 Z"/></g>
<g><path style="opacity:1" fill="#7ba36f" d="M 143.5,175.5 C 135.801,181.123 127.801,186.29 119.5,191C 116.633,191.801 113.966,191.634 111.5,190.5C 113.199,190.66 114.866,190.494 116.5,190C 115.944,189.617 115.611,189.117 115.5,188.5C 116.873,188.657 118.207,188.49 119.5,188C 123.585,185.326 127.585,182.826 131.5,180.5C 134.593,179.786 137.26,178.286 139.5,176C 140.793,175.51 142.127,175.343 143.5,175.5 Z"/></g>
<g><path style="opacity:1" fill="#aebcac" d="M 156.5,169.5 C 156.167,170.167 155.833,170.833 155.5,171.5C 153.861,172.473 152.527,173.806 151.5,175.5C 149.393,176.468 147.059,176.802 144.5,176.5C 144.657,177.873 144.49,179.207 144,180.5C 141.833,181.488 140,182.821 138.5,184.5C 133.958,186.265 129.291,187.765 124.5,189C 123.663,190.011 123.33,191.178 123.5,192.5C 118.489,192.666 113.489,192.499 108.5,192C 104.173,189.002 99.5063,186.835 94.5,185.5C 92.7408,184.129 90.7408,183.129 88.5,182.5C 87.6143,181.675 87.281,180.675 87.5,179.5C 93.7483,183.257 100.415,186.257 107.5,188.5C 108.833,189.167 110.167,189.833 111.5,190.5C 113.966,191.634 116.633,191.801 119.5,191C 127.801,186.29 135.801,181.123 143.5,175.5C 147.833,173.5 152.167,171.5 156.5,169.5 Z"/></g>
<g><path style="opacity:1" fill="#477e4b" d="M 73.5,167.5 C 82.7171,171.969 92.0504,176.303 101.5,180.5C 105.41,183.908 109.744,186.575 114.5,188.5C 114.833,188.5 115.167,188.5 115.5,188.5C 115.611,189.117 115.944,189.617 116.5,190C 114.866,190.494 113.199,190.66 111.5,190.5C 110.167,189.833 108.833,189.167 107.5,188.5C 97.0597,182.108 86.393,175.941 75.5,170C 74.6195,169.292 73.9528,168.458 73.5,167.5 Z"/></g>
<g><path style="opacity:1" fill="#b7b6b7" d="M 72.5,170.5 C 76.2094,173.021 80.2094,175.021 84.5,176.5C 85.2876,177.77 86.2876,178.77 87.5,179.5C 87.281,180.675 87.6143,181.675 88.5,182.5C 90.7408,183.129 92.7408,184.129 94.5,185.5C 92.9898,188.489 90.4898,190.156 87,190.5C 79.3182,186.79 71.3182,185.79 63,187.5C 57.7554,186.183 52.5888,184.683 47.5,183C 44.5385,179.512 45.2052,176.845 49.5,175C 54.8592,173.974 60.1925,173.808 65.5,174.5C 67.7654,172.873 70.0987,171.539 72.5,170.5 Z"/></g>
<g><path style="opacity:1" fill="#b5b4b5" d="M 138.5,184.5 C 140,182.821 141.833,181.488 144,180.5C 144.49,179.207 144.657,177.873 144.5,176.5C 147.059,176.802 149.393,176.468 151.5,175.5C 156.541,173.575 161.707,172.909 167,173.5C 171.215,175.794 175.715,177.294 180.5,178C 181.5,180.091 180.833,181.757 178.5,183C 165.289,185.581 151.956,187.081 138.5,187.5C 138.5,186.5 138.5,185.5 138.5,184.5 Z"/></g>
</svg>
