<svg width="43" height="42" viewBox="0 0 43 42" fill="none" xmlns="http://www.w3.org/2000/svg">
<g clip-path="url(#clip0_645_3159)">
<mask id="mask0_645_3159" style="mask-type:luminance" maskUnits="userSpaceOnUse" x="0" y="0" width="43" height="42">
<path d="M42.4923 0.174072H0.700684V41.9657H42.4923V0.174072Z" fill="white"/>
</mask>
<g mask="url(#mask0_645_3159)">
<path d="M21.5965 40.3323C32.2353 40.3323 40.8598 31.7079 40.8598 21.069C40.8598 10.4302 32.2353 1.80566 21.5965 1.80566C10.9576 1.80566 2.33313 10.4302 2.33313 21.069C2.33313 31.7079 10.9576 40.3323 21.5965 40.3323Z" fill="black" stroke="black" stroke-width="2.61198" stroke-linecap="round" stroke-linejoin="round"/>
<path d="M28.4661 28.905V13.2332V28.905Z" fill="black"/>
<path d="M28.4661 28.905V13.2332" stroke="url(#paint0_linear_645_3159)" stroke-width="2.61198" stroke-miterlimit="1.41421" stroke-linejoin="round"/>
<path fill-rule="evenodd" clip-rule="evenodd" d="M16.3595 13.2354L13.0945 13.2332V28.905H16.3595V18.3735L32.9886 38.5892C33.9041 37.9929 34.7697 37.3266 35.5784 36.5981L16.3595 13.2354Z" fill="url(#paint1_linear_645_3159)"/>
</g>
</g>
<defs>
<linearGradient id="paint0_linear_645_3159" x1="-nan" y1="-nan" x2="-nan" y2="-nan" gradientUnits="userSpaceOnUse">
<stop stop-color="white"/>
<stop offset="0.609375" stop-color="white" stop-opacity="0.57"/>
<stop offset="0.796875" stop-color="white" stop-opacity="0"/>
<stop offset="1" stop-color="white" stop-opacity="0"/>
</linearGradient>
<linearGradient id="paint1_linear_645_3159" x1="26.6572" y1="23.8443" x2="36.1123" y2="35.1717" gradientUnits="userSpaceOnUse">
<stop stop-color="white"/>
<stop offset="1" stop-color="white" stop-opacity="0"/>
</linearGradient>
<clipPath id="clip0_645_3159">
<rect width="41.7917" height="41.7917" fill="white" transform="translate(0.700684 0.172363)"/>
</clipPath>
</defs>
</svg>
