<svg width="88" height="88" viewBox="0 0 88 88" fill="none" xmlns="http://www.w3.org/2000/svg">
<mask id="mask0_618_735" style="mask-type:luminance" maskUnits="userSpaceOnUse" x="0" y="0" width="88" height="88">
<path d="M87.2734 0.814453H0.273438V87.8145H87.2734V0.814453Z" fill="white"/>
</mask>
<g mask="url(#mask0_618_735)">
<path d="M43.7734 84.416C65.9209 84.416 83.875 66.4619 83.875 44.3145C83.875 22.167 65.9209 4.21289 43.7734 4.21289C21.626 4.21289 3.67188 22.167 3.67188 44.3145C3.67188 66.4619 21.626 84.416 43.7734 84.416Z" fill="black" stroke="black" stroke-width="5.4375" stroke-linecap="round" stroke-linejoin="round"/>
<path d="M58.074 60.627V28.002V60.627Z" fill="black"/>
<path d="M58.074 60.627V28.002" stroke="url(#paint0_linear_618_735)" stroke-width="5.4375" stroke-miterlimit="1.41421" stroke-linejoin="round"/>
<path fill-rule="evenodd" clip-rule="evenodd" d="M32.8713 28.0067L26.0745 28.002V60.6269H32.8713V38.7028L67.4892 80.787C69.395 79.5456 71.197 78.1585 72.8805 76.642L32.8713 28.0067Z" fill="url(#paint1_linear_618_735)"/>
</g>
<defs>
<linearGradient id="paint0_linear_618_735" x1="-nan" y1="-nan" x2="-nan" y2="-nan" gradientUnits="userSpaceOnUse">
<stop stop-color="white"/>
<stop offset="0.609375" stop-color="white" stop-opacity="0.57"/>
<stop offset="0.796875" stop-color="white" stop-opacity="0"/>
<stop offset="1" stop-color="white" stop-opacity="0"/>
</linearGradient>
<linearGradient id="paint1_linear_618_735" x1="54.3087" y1="50.0918" x2="73.9919" y2="73.6726" gradientUnits="userSpaceOnUse">
<stop stop-color="white"/>
<stop offset="1" stop-color="white" stop-opacity="0"/>
</linearGradient>
</defs>
</svg>
