<svg width="287" height="286" viewBox="0 0 287 286" fill="none" xmlns="http://www.w3.org/2000/svg">
<path d="M180.181 97.1815V127.244H184.401V134.537L191.694 127.244H231.716V97.1815H180.181Z" fill="#EBEBEB"/>
<path d="M215.691 112.213C215.69 112.696 215.833 113.169 216.101 113.572C216.368 113.975 216.75 114.289 217.196 114.475C217.643 114.661 218.135 114.71 218.609 114.616C219.084 114.523 219.52 114.29 219.862 113.949C220.204 113.607 220.438 113.172 220.533 112.697C220.627 112.223 220.579 111.731 220.394 111.284C220.21 110.837 219.896 110.455 219.494 110.186C219.092 109.918 218.619 109.774 218.136 109.774C217.488 109.774 216.868 110.031 216.409 110.488C215.951 110.945 215.693 111.565 215.691 112.213Z" fill="white"/>
<path d="M203.504 112.213C203.503 112.696 203.645 113.169 203.913 113.572C204.181 113.975 204.562 114.289 205.009 114.475C205.455 114.661 205.947 114.71 206.422 114.616C206.896 114.523 207.332 114.29 207.675 113.949C208.017 113.607 208.25 113.172 208.345 112.697C208.44 112.223 208.392 111.731 208.207 111.284C208.022 110.837 207.709 110.455 207.307 110.186C206.905 109.918 206.432 109.774 205.948 109.774C205.301 109.774 204.68 110.031 204.222 110.488C203.764 110.945 203.505 111.565 203.504 112.213Z" fill="white"/>
<path d="M191.322 112.213C191.321 112.697 191.464 113.17 191.732 113.573C192 113.976 192.382 114.29 192.829 114.475C193.275 114.661 193.767 114.71 194.242 114.616C194.717 114.522 195.153 114.289 195.495 113.947C195.837 113.605 196.07 113.168 196.164 112.694C196.258 112.219 196.209 111.727 196.024 111.28C195.838 110.833 195.524 110.452 195.121 110.184C194.718 109.915 194.245 109.773 193.761 109.774C193.115 109.776 192.495 110.033 192.038 110.49C191.581 110.947 191.324 111.566 191.322 112.213Z" fill="white"/>
<path d="M262.466 171.953C263.224 161.924 255.707 153.179 245.678 152.421C235.648 151.663 226.903 159.18 226.145 169.21C225.388 179.239 232.904 187.984 242.934 188.742C252.964 189.5 261.709 181.983 262.466 171.953Z" fill="#EBEBEB"/>
<path opacity="0.5" d="M236.382 186.987C233.809 185.742 231.565 183.91 229.832 181.638C228.099 179.366 226.924 176.717 226.404 173.907C225.884 171.097 226.032 168.204 226.837 165.462C227.642 162.72 229.081 160.205 231.038 158.122C232.994 156.039 235.414 154.446 238.1 153.471C240.787 152.497 243.665 152.168 246.502 152.512C249.339 152.855 252.056 153.862 254.432 155.45C256.808 157.038 258.777 159.163 260.18 161.653C258.185 158.409 255.088 155.993 251.457 154.847C247.825 153.701 243.902 153.903 240.407 155.415C236.912 156.927 234.08 159.648 232.429 163.08C230.777 166.511 230.418 170.423 231.417 174.097C232.416 177.772 234.707 180.963 237.868 183.086C241.029 185.209 244.85 186.122 248.629 185.656C252.409 185.19 255.894 183.378 258.445 180.551C260.997 177.724 262.444 174.072 262.521 170.265C262.579 173.121 261.956 175.95 260.705 178.517C259.665 180.671 258.21 182.599 256.424 184.19C254.639 185.781 252.557 187.005 250.298 187.792C248.04 188.578 245.648 188.912 243.26 188.774C240.872 188.636 238.535 188.028 236.382 186.987Z" fill="#DBDBDB"/>
<path d="M240.357 164.674C240.135 165.13 239.783 165.511 239.346 165.767C238.908 166.023 238.405 166.144 237.898 166.114C237.392 166.084 236.906 165.905 236.502 165.599C236.097 165.293 235.793 164.874 235.627 164.394C235.461 163.915 235.44 163.398 235.568 162.907C235.697 162.416 235.967 161.975 236.346 161.638C236.725 161.301 237.196 161.084 237.698 161.015C238.201 160.945 238.712 161.026 239.169 161.247C239.473 161.393 239.745 161.598 239.969 161.849C240.194 162.101 240.366 162.395 240.477 162.713C240.587 163.032 240.634 163.369 240.613 163.706C240.592 164.042 240.505 164.371 240.357 164.674Z" fill="#C7C7C7"/>
<path d="M256.017 172.252C255.795 172.708 255.444 173.089 255.006 173.345C254.568 173.601 254.065 173.722 253.558 173.692C253.052 173.662 252.566 173.483 252.162 173.177C251.758 172.871 251.453 172.451 251.287 171.972C251.121 171.493 251.101 170.976 251.229 170.485C251.357 169.994 251.627 169.552 252.007 169.216C252.386 168.879 252.856 168.662 253.358 168.592C253.861 168.523 254.373 168.604 254.829 168.825C255.132 168.972 255.404 169.177 255.628 169.428C255.852 169.68 256.024 169.973 256.135 170.292C256.245 170.61 256.291 170.947 256.271 171.284C256.251 171.62 256.164 171.949 256.017 172.252Z" fill="#C7C7C7"/>
<path d="M249.699 168.329C249.244 169.236 248.449 169.928 247.488 170.254C246.527 170.581 245.476 170.516 244.562 170.075C243.648 169.633 242.945 168.85 242.603 167.894C242.262 166.938 242.31 165.886 242.738 164.965L249.699 168.329Z" fill="#C7C7C7"/>
<path d="M247.872 170.138C247.349 170.384 246.778 170.509 246.201 170.506C245.624 170.503 245.054 170.37 244.535 170.118C244.015 169.867 243.558 169.502 243.198 169.051C242.838 168.599 242.583 168.073 242.452 167.511C243.52 167.223 244.657 167.333 245.65 167.819C246.65 168.294 247.44 169.119 247.872 170.138Z" fill="#DBDBDB"/>
<path d="M24.4258 167.769V209.824H30.3309V220.03L40.5306 209.824H96.5149V167.769H24.4258Z" fill="white"/>
<path d="M24.4265 167.768C24.575 180.16 24.6835 197.636 24.7691 209.823L24.4265 209.486L30.3316 209.452H30.6971V209.823L30.7542 220.006L30.0289 219.703L40.1887 209.458L40.3257 209.315C56.8875 209.286 80.1824 209.229 96.5157 209.241L95.9446 209.812L96.0188 167.756L96.5042 168.242C78.5376 168.173 42.3817 167.911 24.4151 167.756L24.4265 167.768ZM24.4265 167.768C42.6444 167.614 78.7832 167.345 97.0068 167.277V167.768L97.0753 209.823V210.394C80.6678 210.446 57.173 210.326 40.537 210.326L40.8797 210.183L30.6286 220.326L29.8976 221.051V220.006L29.949 209.8L30.3259 210.171L24.4208 210.143H24.0781C24.0781 197.762 24.3522 180.275 24.4208 167.745L24.4265 167.768Z" fill="#EBEBEB"/>
<path d="M74.1006 188.797C74.1006 189.475 74.3016 190.137 74.6781 190.701C75.0546 191.264 75.5897 191.703 76.2159 191.963C76.842 192.222 77.5309 192.29 78.1956 192.158C78.8603 192.026 79.4709 191.699 79.9501 191.22C80.4293 190.741 80.7557 190.13 80.8879 189.466C81.0201 188.801 80.9522 188.112 80.6929 187.486C80.4335 186.86 79.9943 186.324 79.4308 185.948C78.8673 185.571 78.2049 185.37 77.5271 185.37C76.6184 185.37 75.7468 185.731 75.1042 186.374C74.4616 187.017 74.1006 187.888 74.1006 188.797Z" fill="#EBEBEB"/>
<path d="M57.0527 188.797C57.0527 189.475 57.2537 190.137 57.6302 190.701C58.0067 191.264 58.5419 191.703 59.168 191.963C59.7941 192.222 60.4831 192.29 61.1478 192.158C61.8125 192.026 62.423 191.699 62.9022 191.22C63.3815 190.741 63.7078 190.13 63.84 189.466C63.9722 188.801 63.9044 188.112 63.645 187.486C63.3857 186.86 62.9465 186.324 62.383 185.948C61.8195 185.571 61.157 185.37 60.4793 185.37C59.5705 185.37 58.699 185.731 58.0564 186.374C57.4137 187.017 57.0527 187.888 57.0527 188.797Z" fill="#EBEBEB"/>
<path d="M40.0117 188.797C40.0117 189.475 40.2127 190.137 40.5892 190.701C40.9657 191.264 41.5009 191.703 42.127 191.963C42.7531 192.222 43.4421 192.29 44.1068 192.158C44.7715 192.026 45.382 191.699 45.8612 191.22C46.3404 190.741 46.6668 190.13 46.799 189.466C46.9312 188.801 46.8634 188.112 46.604 187.486C46.3447 186.86 45.9055 186.324 45.342 185.948C44.7785 185.571 44.116 185.37 43.4383 185.37C42.5295 185.37 41.6579 185.731 41.0153 186.374C40.3727 187.017 40.0117 187.888 40.0117 188.797Z" fill="#EBEBEB"/>
<path d="M84.5068 60.3722C86.3789 51.8997 81.0282 43.5138 72.5558 41.6417C64.0833 39.7696 55.6974 45.1203 53.8253 53.5927C51.9532 62.0652 57.3038 70.4511 65.7763 72.3232C74.2488 74.1953 82.6347 68.8446 84.5068 60.3722Z" fill="#EBEBEB"/>
<path opacity="0.5" d="M71.6381 72.4984C69.2036 72.8859 66.7121 72.695 64.3651 71.9413C62.018 71.1875 59.8812 69.892 58.1275 68.1596C56.3738 66.4271 55.0524 64.3063 54.2701 61.9686C53.4878 59.6309 53.2666 57.1419 53.6243 54.7028C53.9821 52.2638 54.9088 49.9432 56.3295 47.9286C57.7502 45.914 59.625 44.262 61.8023 43.1061C63.9797 41.9503 66.3985 41.323 68.8632 41.2751C71.3278 41.2271 73.7692 41.7598 75.9899 42.8301C72.9799 41.5192 69.5982 41.3372 66.4649 42.3174C63.3316 43.2977 60.6565 45.3744 58.9302 48.167C57.2039 50.9595 56.542 54.2808 57.0658 57.5218C57.5896 60.7628 59.2641 63.7064 61.7822 65.813C64.3003 67.9195 67.4934 69.0479 70.776 68.9911C74.0585 68.9344 77.2107 67.6964 79.6545 65.504C82.0983 63.3117 83.6701 60.312 84.0816 57.0548C84.4931 53.7976 83.7168 50.5013 81.895 47.77C83.4697 49.9464 84.46 52.4901 84.7714 55.1583C85.0828 57.8264 84.7049 60.5299 83.6738 63.0103C82.6426 65.4908 80.9927 67.6655 78.8816 69.3266C76.7705 70.9877 74.2687 72.0797 71.6153 72.4984H71.6381Z" fill="#DBDBDB"/>
<path d="M63.449 54.749C63.517 55.1807 63.4555 55.6228 63.2723 56.0195C63.089 56.4163 62.7923 56.7498 62.4196 56.9779C62.0468 57.206 61.6149 57.3185 61.1782 57.3012C60.7415 57.2839 60.3198 57.1375 59.9663 56.8806C59.6129 56.6237 59.3435 56.2677 59.1922 55.8577C59.041 55.4477 59.0147 55.0021 59.1167 54.5771C59.2186 54.1522 59.4443 53.767 59.7651 53.4703C60.0859 53.1736 60.4875 52.9786 60.9191 52.9101C61.206 52.8645 61.499 52.8759 61.7815 52.9437C62.064 53.0115 62.3303 53.1343 62.5653 53.3051C62.8002 53.4759 62.9992 53.6913 63.1509 53.939C63.3025 54.1868 63.4038 54.462 63.449 54.749Z" fill="#C7C7C7"/>
<path d="M78.2693 52.3849C78.3373 52.8166 78.2758 53.2588 78.0926 53.6555C77.9093 54.0522 77.6126 54.3857 77.2399 54.6139C76.8672 54.842 76.4352 54.9545 75.9985 54.9372C75.5619 54.9199 75.1401 54.7735 74.7867 54.5166C74.4332 54.2596 74.1638 53.9037 74.0125 53.4937C73.8613 53.0837 73.835 52.638 73.937 52.2131C74.0389 51.7882 74.2646 51.403 74.5854 51.1063C74.9062 50.8095 75.3078 50.6146 75.7394 50.546C76.0264 50.4997 76.3197 50.5105 76.6024 50.578C76.8852 50.6455 77.1518 50.7682 77.387 50.9391C77.6221 51.11 77.8211 51.3258 77.9726 51.5739C78.124 51.822 78.2249 52.0977 78.2693 52.3849Z" fill="#C7C7C7"/>
<path d="M72.0895 56.1536C72.4265 58.2781 71.3585 60.2084 69.7081 60.4711C68.0576 60.7338 66.4357 59.2318 66.093 57.1073C65.7504 54.9829 66.824 53.0526 68.4802 52.7899C70.1364 52.5272 71.7697 54.0348 72.0895 56.1536Z" fill="#C7C7C7"/>
<path d="M57.9609 52.4316C57.9609 52.4316 59.2231 49.8788 62.5297 50.8325L57.9609 52.4316Z" fill="#C7C7C7"/>
<path d="M78.4 49.1688C78.4 49.1688 76.4069 47.1357 73.54 49.0775L78.4 49.1688Z" fill="#C7C7C7"/>
<path d="M111.438 51.2427L113.516 54.3437L117.103 55.3603L114.796 58.2957L114.939 62.0192L111.438 60.7343L107.937 62.0192L108.074 58.2957L105.772 55.3603L109.359 54.3437L111.438 51.2427Z" fill="#EBEBEB"/>
<path d="M127.457 51.2427L129.536 54.3437L133.122 55.3603L130.821 58.2957L130.958 62.0192L127.457 60.7343L123.956 62.0192L124.093 58.2957L121.792 55.3603L125.378 54.3437L127.457 51.2427Z" fill="#EBEBEB"/>
<path d="M143.477 51.2427L145.556 54.3437L149.142 55.3603L146.841 58.2957L146.978 62.0192L143.477 60.7343L139.976 62.0192L140.113 58.2957L137.812 55.3603L141.398 54.3437L143.477 51.2427Z" fill="#EBEBEB"/>
<path d="M159.496 51.2427L161.575 54.3437L165.162 55.3603L162.86 58.2957L162.997 62.0192L159.496 60.7343L155.996 62.0192L156.133 58.2957L153.831 55.3603L157.418 54.3437L159.496 51.2427Z" fill="#EBEBEB"/>
<path d="M171.716 62.4366L171.865 58.3875L169.363 55.2008L173.258 54.0986L175.543 50.7349L177.798 54.0986L181.699 55.2008L179.169 58.3875L179.317 62.4366L175.514 61.0431L171.716 62.4366ZM175.514 60.432L178.718 61.5742L178.586 58.1477L180.694 55.5321L177.416 54.6012L175.514 51.7457L173.618 54.6012L170.317 55.5321L172.419 58.2105L172.293 61.637L175.514 60.432Z" fill="#EBEBEB"/>
<path d="M175.515 60.7343V51.2427L173.436 54.3437L169.85 55.3603L172.157 58.2957L172.014 62.0192L175.515 60.7343Z" fill="#EBEBEB"/>
<path d="M53.758 233.464C50.497 233.584 46.8592 233.767 44.1579 231.654C41.6622 229.718 39.4407 226.788 39.7662 223.436C39.8633 222.482 40.0803 221.894 41.1026 222.294C42.6616 222.916 43.8609 224.635 44.9346 225.834C46.306 227.405 47.8223 228.843 49.4634 230.129C50.6056 231.02 51.8734 231.791 53.0555 232.648L53.501 232.979C53.5524 233.019 53.6152 233.059 53.6666 233.104H53.7637C53.7898 233.103 53.8158 233.108 53.839 233.12C53.8621 233.132 53.8815 233.151 53.8951 233.173C53.9004 233.192 53.9004 233.211 53.8951 233.23C53.9062 233.254 53.9113 233.281 53.9099 233.307C53.9086 233.334 53.9009 233.36 53.8875 233.383C53.874 233.406 53.8552 233.425 53.8327 233.439C53.8102 233.454 53.7845 233.462 53.758 233.464Z" fill="#455A64"/>
<path d="M53.919 233.252C51.0636 233.201 47.9568 233.332 45.6667 231.385C44.6144 230.455 43.7162 229.364 43.0054 228.152C42.6685 227.61 41.6748 225.999 42.0917 225.36C42.8341 224.218 46.2493 228.923 46.7233 229.357C48.5158 230.98 50.6976 232.111 53.0567 232.641L53.5021 232.973C51.8272 232.627 50.2202 232.01 48.7449 231.145C46.7118 229.934 45.5754 228.135 43.9877 226.462C43.6394 226.097 42.6057 224.88 42.2116 225.64C41.9546 226.137 42.9141 227.713 43.1197 228.05C43.799 229.197 44.6481 230.235 45.6382 231.128C47.9226 233.121 51.0065 233.052 53.8962 233.172C53.9054 233.183 53.9121 233.196 53.9161 233.21C53.92 233.224 53.921 233.238 53.919 233.252Z" fill="white"/>
<path d="M55.5576 235.457C55.5576 235.582 55.5062 235.708 55.4834 235.834C55.4796 235.849 55.4725 235.863 55.4627 235.874C55.4528 235.886 55.4403 235.896 55.4263 235.902C55.3943 235.914 55.359 235.914 55.3274 235.901C55.2957 235.888 55.2699 235.864 55.255 235.834C55.2457 235.81 55.2457 235.783 55.255 235.759V235.708L55.2892 235.594C55.2917 235.582 55.2917 235.571 55.2892 235.56C54.7181 233.401 54.4897 231.156 53.8786 228.998C53.3075 226.936 52.5765 224.914 52.1653 222.807C51.8969 221.482 50.9775 214.812 53.8786 215.657C55.1807 216.028 56.0716 217.907 56.5628 219.032C57.2081 220.547 57.5738 222.167 57.6421 223.812C57.8706 227.873 56.38 231.568 55.5576 235.457Z" fill="#455A64"/>
<path d="M56.4988 227.171C56.5558 225.651 56.3962 224.13 56.0248 222.654C55.8934 222.146 55.2595 219.696 54.4314 219.758C53.8946 219.793 53.8032 220.849 53.7576 221.198C53.5691 222.677 54.0488 224.19 54.3287 225.635C54.9027 228.567 55.2615 231.537 55.4023 234.521C55.4023 234.71 55.3509 234.904 55.3281 235.092C55.3052 235.281 55.2881 235.406 55.2652 235.566C55.2652 235.618 55.2652 235.669 55.2652 235.726V235.852C55.2811 235.882 55.307 235.905 55.3383 235.917C55.3697 235.93 55.4045 235.931 55.4366 235.92L55.488 235.555C55.488 235.658 55.488 235.749 55.488 235.852C55.488 235.749 55.5279 235.646 55.5451 235.543V235.475C55.5451 235.309 55.5451 235.144 55.5451 234.978C56.0167 232.397 56.3351 229.79 56.4988 227.171ZM55.5279 233.887C55.448 232.145 55.2767 230.404 55.0311 228.679C54.8312 227.28 54.5685 225.898 54.2773 224.527C54.0837 223.753 53.9576 222.964 53.9003 222.168C53.9003 221.563 53.9632 219.313 55.1225 220.706C55.9563 221.717 56.1562 223.865 56.2647 225.104C56.3608 226.482 56.334 227.865 56.1847 229.239C55.9962 230.798 55.7393 232.345 55.5279 233.887Z" fill="white"/>
<path d="M57.3165 244.407H57.1966C54.2098 244.258 50.235 244.538 47.7564 242.562C45.9232 241.14 44.1071 238.239 44.6782 235.795C45.3407 233.042 49.0585 236.366 50.0465 237.148C52.6125 239.38 55.0512 241.753 57.3508 244.258L57.3908 244.31C57.4479 244.367 57.3851 244.395 57.3165 244.407Z" fill="#455A64"/>
<path d="M57.4191 244.321L56.9051 243.995C54.9406 242.762 53.0274 241.443 51.1942 240.032C50.7259 239.678 47.3736 236.691 46.8653 237.748C46.5626 238.393 47.6705 239.706 48.0075 240.152C48.651 240.95 49.423 241.635 50.2918 242.179C52.2793 243.413 54.695 243.681 56.9451 244.281C57.0479 244.281 57.1564 244.332 57.2649 244.361L57.3163 244.395C57.3848 244.395 57.4419 244.367 57.4191 244.321ZM51.5311 242.625C50.5807 242.193 49.7099 241.604 48.9555 240.883C48.4529 240.409 46.6711 238.599 47.1623 237.89C47.4078 237.502 47.6134 237.708 48.0874 237.942C48.3074 238.046 48.5192 238.166 48.7213 238.302C49.2239 238.633 49.6808 239.015 50.1491 239.387C50.9638 240.042 51.7957 240.677 52.6448 241.294C54.0325 242.305 55.4602 243.253 56.9165 244.15C55.1119 243.607 53.2444 243.39 51.5311 242.625Z" fill="white"/>
<path d="M62.7657 238.285C61.98 241.708 60.1903 244.818 57.6259 247.217C57.6073 247.223 57.5873 247.223 57.5688 247.217C57.541 247.226 57.511 247.226 57.4832 247.216C57.4555 247.207 57.4314 247.189 57.4146 247.165C57.3929 247.142 57.3809 247.112 57.3809 247.08C57.3809 247.048 57.3929 247.017 57.4146 246.994L57.5631 246.84C58.0599 242.785 58.6025 238.753 59.0194 234.687C59.1222 233.728 59.8703 227.628 61.7435 228.622C62.8857 229.233 62.977 231.734 63.0741 232.86C63.2546 234.673 63.1505 236.504 62.7657 238.285Z" fill="#455A64"/>
<path d="M61.6797 232.83C61.5827 232.488 61.4056 232.139 61.023 232.379C60.2977 232.83 60.0064 235.697 59.8808 236.491C59.3782 239.763 58.6073 242.91 57.8192 246.114C57.7506 246.382 57.6878 246.651 57.6193 246.925L57.4365 247.17C57.4527 247.195 57.4767 247.213 57.5047 247.223C57.5327 247.232 57.563 247.232 57.5907 247.222C57.594 247.195 57.594 247.168 57.5907 247.142C57.6764 247.039 57.762 246.925 57.8363 246.816C59.1132 245.062 60.1093 243.12 60.7888 241.06C61.2168 239.761 61.5077 238.421 61.6569 237.062C61.8111 235.788 62.0624 234.058 61.6797 232.83ZM57.8534 246.594C57.8192 246.645 57.7792 246.696 57.7449 246.753C57.7792 246.645 57.8134 246.536 57.842 246.428C58.6123 243.996 59.2228 241.516 59.6695 239.004C59.8865 237.725 60.0236 236.434 60.2863 235.166C60.3948 234.629 60.6632 233.099 61.1029 232.853C61.5427 232.607 61.5427 233.201 61.5884 233.544C61.5884 233.79 61.5884 234.241 61.6226 234.475C61.6729 238.811 60.3539 243.051 57.8534 246.594Z" fill="white"/>
<path d="M58.1446 255.937H57.5735L57.5393 254.366C57.465 252.248 57.3793 250.129 57.2537 248.01C57.1852 246.799 57.0995 245.6 56.9739 244.412C56.971 244.372 56.971 244.332 56.9739 244.292C56.9565 244.194 56.9451 244.095 56.9396 243.995C56.9396 243.898 56.9396 243.79 56.8996 243.687C56.6308 240.999 55.9388 238.37 54.8494 235.897C54.4725 235.075 54.0556 234.27 53.6216 233.47L53.4959 233.242C53.4845 233.221 53.4711 233.202 53.4559 233.185C53.416 233.099 53.3703 233.025 53.3246 232.945L53.2275 232.768C51.8454 230.341 50.2692 228.016 48.773 225.68C48.3389 225.012 47.9106 224.344 47.4937 223.67C47.4632 223.633 47.4364 223.593 47.4138 223.55C47.3795 223.505 47.3509 223.453 47.3167 223.402C45.4378 220.432 43.5874 217.44 41.6057 214.527C41.5315 214.418 41.7085 214.327 41.7771 214.43C43.0963 216.36 44.4669 218.262 45.8204 220.175C46.0032 220.426 46.1802 220.689 46.3915 220.94L47.4537 222.454C48.1619 223.465 48.8643 224.475 49.5439 225.498C51.5535 228.346 53.3882 231.313 55.0379 234.384C55.1521 234.618 55.2663 234.852 55.3748 235.086C55.4833 235.321 55.5176 235.383 55.5747 235.526C55.6318 235.669 55.7346 235.869 55.8088 236.04C57.0235 239.03 57.702 242.21 57.8134 245.435C57.8134 245.657 57.8134 245.886 57.8534 246.114C57.8534 246.211 57.8534 246.32 57.8534 246.428C57.8534 246.537 57.8534 246.537 57.8534 246.594C57.8534 246.651 57.8534 246.737 57.8534 246.811C57.8534 246.862 57.8534 246.914 57.8534 246.971C57.8534 247.165 57.8534 247.353 57.8534 247.542C57.939 249.661 57.9961 251.779 58.0418 253.892C58.0989 254.583 58.1218 255.257 58.1446 255.937Z" fill="#455A64"/>
<path d="M40.3434 217.554C38.7101 215.361 36.6141 210.826 39.0242 208.473C39.4623 208.014 40.0557 207.733 40.689 207.687C41.3223 207.641 41.9502 207.831 42.4507 208.222C43.7243 209.142 44.2954 210.878 44.7351 212.317C45.8373 216.16 46.5683 220.072 47.9446 223.836C48.0009 223.968 48.0504 224.104 48.0931 224.241C48.0931 224.321 47.996 224.356 47.9675 224.276C47.9389 224.196 47.8818 224.03 47.8361 223.91C45.1863 222.025 42.2794 220.158 40.3434 217.554Z" fill="#455A64"/>
<path d="M47.9219 223.847C47.9219 223.847 47.9219 223.801 47.8819 223.779C47.315 222.859 46.8058 221.906 46.3571 220.923C45.4444 218.88 44.6604 216.782 44.0099 214.641C43.7472 213.819 42.5707 209.781 41.1544 211.392C40.549 212.071 40.6347 213.265 40.7318 214.099C40.8942 215.429 41.3193 216.714 41.9825 217.879C43.2789 220.209 45.2891 221.974 47.4022 223.544L47.6934 223.761L47.7505 223.859L47.7905 223.927C47.7998 223.941 47.8141 223.951 47.8305 223.956C47.842 223.961 47.8546 223.964 47.8674 223.965C47.8802 223.965 47.8929 223.963 47.9047 223.958C47.9166 223.953 47.9273 223.946 47.9361 223.937C47.945 223.927 47.9518 223.916 47.9561 223.904C47.9563 223.892 47.9532 223.881 47.9472 223.871C47.9411 223.861 47.9324 223.852 47.9219 223.847ZM47.2822 223.402C45.5353 222.103 43.995 220.547 42.7135 218.787C42.0629 217.853 41.5583 216.824 41.2172 215.738C41.0657 215.253 40.9568 214.756 40.8917 214.253C40.8368 213.875 40.8139 213.493 40.8232 213.111C40.8517 212.283 41.1944 211.397 41.6855 211.289C42.2909 211.18 42.4965 211.534 42.8905 212.231C43.0263 212.465 43.1465 212.707 43.2503 212.956C43.5021 213.582 43.7213 214.221 43.9071 214.87C44.244 215.937 44.5924 217 44.975 218.051C45.232 218.764 45.5118 219.473 45.8145 220.164C46.329 221.363 46.9263 222.525 47.6021 223.642L47.2822 223.402Z" fill="white"/>
<path d="M233.471 223.694C233.202 225.869 232.785 228.022 232.328 230.17C232.083 231.392 231.82 232.603 231.575 233.825C231.3 235.172 230.901 236.537 231.266 237.897C231.274 237.959 231.274 238.023 231.266 238.085C231.248 238.108 231.224 238.126 231.197 238.137C231.169 238.147 231.139 238.15 231.11 238.145C231.082 238.14 231.055 238.126 231.033 238.107C231.011 238.087 230.995 238.062 230.986 238.034C230.984 238.005 230.984 237.977 230.986 237.948V237.919C230.786 237.558 230.629 237.175 230.518 236.777C230.093 235.751 229.731 234.7 229.433 233.631C228.799 231.445 228.444 229.189 228.376 226.914C228.315 224.879 228.529 222.845 229.01 220.867C229.399 219.29 229.947 216.932 231.129 215.727C232.197 214.63 233.082 216.384 233.413 217.269C234.064 219.313 233.71 221.632 233.471 223.694Z" fill="#455A64"/>
<path d="M231.523 219.074C230.73 219.074 230.153 221.638 229.873 222.746C229.43 224.491 229.202 226.285 229.193 228.085C229.206 231.319 229.768 234.526 230.855 237.571C230.895 237.691 230.935 237.817 230.981 237.943C230.981 237.943 230.981 237.943 230.981 237.971C230.981 238 230.981 238.028 230.981 238.057C230.989 238.085 231.005 238.11 231.027 238.13C231.049 238.149 231.076 238.163 231.105 238.168C231.134 238.173 231.164 238.17 231.191 238.16C231.219 238.149 231.243 238.131 231.261 238.108C231.215 237.84 231.175 237.577 231.141 237.309C231.107 237.04 231.084 236.829 231.072 236.589C230.855 233.985 231.226 231.324 231.558 228.737C231.997 225.721 232.569 219.079 231.523 219.074ZM230.952 237.103C230.992 237.457 231.049 237.805 231.112 238.148C231.032 237.897 230.952 237.64 230.878 237.389C230.005 234.68 229.502 231.866 229.382 229.022C229.326 227.419 229.443 225.814 229.73 224.236C229.883 223.39 230.089 222.555 230.347 221.735C230.455 221.392 231.032 219.245 231.523 219.353C231.866 219.428 231.952 221.358 231.952 221.398C231.952 221.786 231.952 222.175 231.952 222.54C231.952 223.34 231.889 224.139 231.82 224.933C231.672 226.646 231.421 228.36 231.215 230.073C230.85 232.398 230.762 234.758 230.952 237.103Z" fill="white"/>
<path d="M245.971 229.718C244.515 232.573 242.059 234.737 239.524 236.571C238.165 237.57 236.76 238.507 235.383 239.472C234.1 240.266 232.9 241.188 231.803 242.224L231.666 242.373C231.383 242.687 231.134 243.029 230.923 243.395C230.917 243.408 230.907 243.42 230.895 243.428C230.883 243.436 230.869 243.44 230.855 243.441C230.855 243.487 230.826 243.527 230.809 243.567C230.792 243.607 230.746 243.567 230.752 243.567V243.424C230.739 243.408 230.732 243.389 230.732 243.37C230.732 243.35 230.739 243.331 230.752 243.315V243.27V243.133C231.169 239.809 233.493 236.451 235.458 233.892C237.422 231.334 239.849 229.072 242.882 227.901C243.647 227.61 245.378 226.799 246.154 227.422C246.931 228.044 246.274 229.101 245.971 229.718Z" fill="#455A64"/>
<path d="M243.721 229.718C243.03 229.027 240.991 230.735 240.477 231.134C238.957 232.377 237.547 233.749 236.263 235.235C234.063 237.532 232.238 240.161 230.854 243.024C230.826 243.059 230.809 243.087 230.78 243.116V243.259C230.769 243.272 230.759 243.288 230.752 243.304C230.74 243.321 230.734 243.341 230.734 243.361C230.734 243.382 230.74 243.402 230.752 243.419L230.854 243.299C231.106 242.984 231.374 242.682 231.648 242.385L231.785 242.236C233.76 240.25 235.858 238.39 238.067 236.668C239.592 235.444 240.997 234.079 242.265 232.591C242.625 232.208 244.304 230.289 243.721 229.718ZM243.082 231.237C241.368 234.093 238.387 236.177 235.857 238.256C234.115 239.621 232.509 241.151 231.06 242.825C232.401 240.278 234.076 237.921 236.04 235.817C237.115 234.579 238.259 233.402 239.467 232.294C240.118 231.69 240.813 231.134 241.545 230.632C241.984 230.326 242.455 230.072 242.95 229.872C243.915 229.569 243.379 230.752 243.082 231.237Z" fill="white"/>
<path d="M230.461 250.186C230.444 250.211 230.422 250.231 230.397 250.245C230.371 250.259 230.342 250.266 230.312 250.266C230.324 250.284 230.337 250.302 230.352 250.318C230.357 250.322 230.361 250.328 230.364 250.334C230.367 250.341 230.368 250.348 230.368 250.355C230.368 250.362 230.367 250.368 230.364 250.375C230.361 250.381 230.357 250.387 230.352 250.392C230.348 250.397 230.343 250.401 230.337 250.403C230.331 250.406 230.324 250.407 230.318 250.407C230.311 250.407 230.305 250.406 230.299 250.403C230.293 250.401 230.288 250.397 230.284 250.392C227.588 247.651 224.995 244.321 223.653 240.683C223.074 239.153 222.748 237.538 222.688 235.903C222.659 234.761 222.602 232.534 223.556 231.717C225.481 230.078 227.234 237.028 227.497 238.073C227.976 239.986 228.29 241.928 228.73 243.847C229.21 245.949 229.844 248.01 230.478 250.066C230.483 250.086 230.484 250.107 230.481 250.128C230.479 250.149 230.471 250.168 230.461 250.186Z" fill="#455A64"/>
<path d="M230.461 250.18C230.358 250.003 230.255 249.826 230.158 249.649C228.528 246.734 227.359 243.584 226.692 240.311C226.403 238.658 225.975 237.032 225.412 235.451C225.252 235.069 224.773 233.584 224.139 234.309C223.808 234.703 224.082 237.507 224.213 238.233C224.536 239.88 225.06 241.481 225.772 243.001C226.938 245.567 228.421 247.977 230.187 250.174L230.341 250.368C230.346 250.363 230.35 250.358 230.353 250.351C230.355 250.345 230.357 250.338 230.357 250.331C230.357 250.324 230.355 250.317 230.353 250.311C230.35 250.305 230.346 250.299 230.341 250.294C230.325 250.28 230.313 250.263 230.307 250.243C230.336 250.247 230.365 250.244 230.393 250.233C230.42 250.222 230.443 250.203 230.461 250.18ZM226.555 244.212C225.778 242.737 225.157 241.185 224.704 239.58C224.532 238.939 224.397 238.289 224.299 237.633C224.216 237.119 224.172 236.6 224.167 236.079C224.167 234.812 224.276 234.48 224.493 234.435C224.624 234.435 224.801 234.549 225.178 235.303C225.409 235.798 225.591 236.314 225.721 236.845C225.915 237.599 226.086 238.347 226.252 239.129C226.577 240.643 226.886 242.167 227.326 243.646C227.945 245.776 228.846 247.814 230.004 249.706C228.7 247.976 227.546 246.138 226.555 244.212Z" fill="white"/>
<path d="M239.102 243.521C238.785 244.858 238.183 246.11 237.337 247.193C235.738 249.403 233.694 251.236 231.946 253.326C231.683 253.635 231.432 253.955 231.186 254.28C231.158 254.314 230.958 254.777 230.958 254.737L231.049 254.257C231.329 252.795 232.249 248.375 233.397 246.119C234.08 244.687 234.938 243.344 235.949 242.121C236.441 241.55 237.606 240.351 238.479 240.614C239.353 240.876 239.239 242.818 239.102 243.521Z" fill="#455A64"/>
<path d="M237.708 242.63C236.772 242.058 234.361 246.353 234.036 246.913C232.837 248.973 231.911 251.181 231.283 253.48C231.209 253.737 231.141 253.994 231.078 254.257C231.015 254.52 230.986 254.725 230.986 254.737C230.986 254.748 231.186 254.32 231.215 254.28L231.34 254.109C231.546 253.84 231.757 253.577 231.974 253.326C233.019 251.761 234.099 250.208 235.115 248.615C235.859 247.476 236.509 246.278 237.057 245.034C237.137 244.748 238.091 242.881 237.708 242.63ZM237.44 243.84C236.109 247.587 233.391 250.539 231.318 253.869L231.22 254.029C231.249 253.932 231.272 253.834 231.306 253.737C231.865 251.848 232.601 250.017 233.505 248.266C234.056 247.201 234.674 246.17 235.355 245.182C235.701 244.623 236.082 244.087 236.497 243.578C236.692 243.366 237.24 242.807 237.428 242.898C237.617 242.989 237.497 243.595 237.411 243.84H237.44Z" fill="white"/>
<path d="M248.496 212.585C245.714 218.975 238.422 221.951 235.258 228.101V228.136C235.161 228.324 235.069 228.512 234.984 228.707C234.975 228.727 234.962 228.744 234.946 228.757C234.929 228.771 234.909 228.779 234.888 228.783C234.866 228.786 234.845 228.784 234.824 228.777C234.804 228.77 234.786 228.757 234.772 228.741C234.762 228.725 234.757 228.706 234.757 228.687C234.757 228.667 234.762 228.649 234.772 228.632C234.791 228.586 234.812 228.54 234.835 228.495C235.332 224.658 236.908 220.706 238.741 217.319C240.34 214.372 242.528 211.608 245.555 210.072C246.303 209.684 247.759 208.878 248.593 209.501C249.427 210.123 248.838 211.808 248.496 212.585Z" fill="#455A64"/>
<path d="M245.989 212.871C245.64 212.608 245.103 212.922 244.801 213.082C244.042 213.477 243.333 213.96 242.688 214.521C241.376 215.681 240.243 217.028 239.324 218.519C237.676 221.023 236.345 223.722 235.361 226.554C235.149 227.194 234.961 227.839 234.79 228.496C234.79 228.581 234.755 228.661 234.732 228.741C234.747 228.756 234.764 228.768 234.784 228.775C234.804 228.782 234.825 228.784 234.845 228.781C234.866 228.778 234.886 228.771 234.903 228.759C234.92 228.747 234.934 228.731 234.944 228.713C235.024 228.519 235.115 228.342 235.206 228.142V228.09C235.747 226.816 236.41 225.597 237.188 224.452C238.466 222.719 239.854 221.071 241.346 219.518C241.968 218.907 247.217 213.762 245.989 212.871ZM245.549 214.344C244.704 215.846 243.39 217.068 242.248 218.342C241.106 219.615 239.929 220.906 238.793 222.208C237.89 223.245 237.078 224.357 236.366 225.532C235.765 226.507 235.254 227.536 234.841 228.604C235.137 227.517 235.5 226.449 235.926 225.406V225.372C236.711 223.527 237.611 221.734 238.622 220.004L238.656 219.935C239.505 218.388 240.536 216.948 241.728 215.646C242.385 214.943 243.121 214.318 243.921 213.784C244.835 213.213 245.635 212.808 245.863 213.099C246.034 213.31 245.8 213.904 245.549 214.344Z" fill="white"/>
<path d="M238.787 220.077C237.953 221.876 237.154 223.704 236.365 225.537C235.989 226.394 235.617 227.25 235.258 228.107V228.158L234.858 229.089C233.659 231.893 232.334 234.76 231.597 237.73C231.226 239.305 231.003 240.911 230.929 242.527C230.929 242.693 230.929 242.858 230.929 243.024C230.929 243.115 230.929 243.207 230.929 243.298C230.926 243.349 230.926 243.401 230.929 243.452C230.877 244.851 230.929 246.256 230.929 247.621C230.963 249.529 231.129 251.419 231.311 253.332C231.306 253.387 231.306 253.443 231.311 253.498C231.311 253.583 231.311 253.669 231.311 253.755C231.314 253.799 231.314 253.842 231.311 253.886C231.311 253.966 231.311 254.046 231.311 254.126C231.374 254.737 231.426 255.342 231.477 255.954H230.906C230.533 254.098 230.298 252.218 230.203 250.328C230.201 250.29 230.201 250.252 230.203 250.214C230.203 250.031 230.203 249.843 230.175 249.643C230.146 249.443 230.175 249.192 230.175 248.963C230.175 248.392 230.141 247.878 230.129 247.341C230.072 244.223 230.129 240.979 230.797 237.924C230.797 237.838 230.837 237.758 230.854 237.673C230.861 237.636 230.87 237.599 230.883 237.564C230.883 237.501 230.883 237.444 230.923 237.382L230.997 237.096C231.043 236.925 231.094 236.753 231.146 236.582L231.191 236.434C232.083 233.778 233.155 231.187 234.401 228.678C234.612 228.221 234.824 227.764 235.041 227.307C235.166 227.056 235.286 226.805 235.406 226.554C235.595 226.171 235.789 225.788 235.977 225.411V225.377C236.868 223.584 237.793 221.808 238.673 220.009C238.684 219.929 238.85 220.009 238.787 220.077Z" fill="#455A64"/>
<path d="M26.0879 255.935C101.295 255.587 185.657 255.581 260.865 255.935C185.657 256.289 101.295 256.284 26.0879 255.935Z" fill="#263238"/>
<path d="M186.439 33.8075V82.6417H193.293V94.4919L205.137 82.6417H255.353V33.8075H186.439Z" fill="white"/>
<path d="M186.439 33.8305C186.376 33.8019 186.827 83.3329 186.439 82.5048H193.463V82.6704V94.5206L193.161 94.3664L205.051 82.442C205.119 82.4934 255.273 82.3278 255.353 82.3677L255.067 82.6476C255.319 82.8703 254.736 32.8082 255.353 34.0132C238.174 34.0132 203.612 33.8819 186.439 33.8133V33.8305ZM186.439 33.8305C203.612 33.7619 238.18 33.6306 255.353 33.6249H255.558V33.8305C255.604 34.2931 255.598 82.5048 255.638 82.9445H255.353C255.381 82.8474 204.617 83.0074 205.285 82.8075L193.423 94.6405L193.104 94.9546V94.5092V82.659L193.275 82.8303H186.422H186.308V82.6704L186.439 33.8305Z" fill="#263238"/>
<path fill-rule="evenodd" clip-rule="evenodd" d="M216.798 71.4145C216.079 70.9633 215.445 70.3066 214.48 70.4037C214.108 70.4436 214.188 70.1353 214.183 69.9297C214.183 66.2937 214.169 62.6577 214.143 59.0218C214.143 58.7591 214.143 58.5363 214.445 58.3936C217.215 56.983 218.443 54.2246 220.105 51.8603C220.974 50.6882 221.599 49.3527 221.94 47.9338C222.282 46.5149 222.333 45.0416 222.092 43.6022C221.972 42.7856 222.355 42.4144 223.092 42.2487C223.983 42.0431 224.862 42.283 225.17 42.8941C225.973 44.3764 226.516 45.9854 226.775 47.6513C226.935 49.0333 226.45 50.3754 226.278 51.7403C226.158 52.7397 225.924 53.7277 225.741 54.7386C225.987 54.9156 226.267 54.8242 226.53 54.8299H235.747C237.043 54.8299 237.677 55.1954 237.86 56.0521C237.96 56.581 237.885 57.1282 237.644 57.6099C237.404 58.0916 237.012 58.4812 236.529 58.7191C236.301 58.839 235.884 58.7191 235.861 59.096C235.838 59.4729 236.261 59.4215 236.472 59.57C237.615 60.3296 237.386 61.9001 236.101 62.8195C235.793 63.0366 235.193 62.9338 235.182 63.3906C235.182 63.7504 235.753 63.7447 235.993 64.0017C236.889 64.8869 236.45 66.5431 235.113 67.217C234.928 67.2745 234.746 67.3451 234.571 67.4283C234.422 67.5311 234.268 67.6453 234.571 67.8566C235.907 68.7989 235.884 70.141 234.571 71.0947L234.171 71.3802C233.687 71.6756 233.118 71.8021 232.555 71.74C227.735 71.7705 222.916 71.7876 218.1 71.7914C217.869 71.8205 217.634 71.802 217.41 71.7372C217.186 71.6724 216.978 71.5626 216.798 71.4145Z" fill="#34A1D3"/>
<path fill-rule="evenodd" clip-rule="evenodd" d="M203.081 65.0468C203.081 62.7624 203.081 60.4266 203.047 58.1137C203.047 57.6454 203.093 57.4113 203.664 57.417C206.485 57.4474 209.304 57.4474 212.122 57.417C212.693 57.417 212.761 57.5997 212.755 58.0909C212.755 62.7396 212.773 67.3883 212.807 72.037C212.807 72.6081 212.653 72.7965 212.059 72.7908C209.323 72.7908 206.588 72.7908 203.858 72.8251C203.178 72.8251 203.081 72.5966 203.087 72.0027C203.115 69.6669 203.087 67.3597 203.081 65.0468Z" fill="#34A1D3"/>
<path d="M95.0711 118.378V155.156H89.9084V164.077L80.9879 155.156H43.1758V118.378H95.0711Z" fill="white"/>
<path d="M95.0705 118.354C95.0705 129.307 95.2532 144.493 95.2304 155.292H95.0705H89.9306L90.102 155.121V164.041V164.487L89.7822 164.173L80.8388 155.304C81.6212 155.492 43.0039 155.367 43.1752 155.441H42.8896V155.155L42.9639 118.354V118.148H43.1695C56.1105 118.183 82.1352 118.263 95.0648 118.354H95.0705ZM95.0705 118.354C82.1409 118.451 56.1048 118.531 43.1752 118.56L43.3808 118.354L43.455 155.132L43.1752 154.847L81.073 154.927L81.1358 154.984L90.0391 163.921L89.725 164.053V155.132V154.961H89.8907H95.0305L94.8706 155.121C94.8706 149.029 94.8934 142.913 94.9391 136.772L95.0305 118.342L95.0705 118.354Z" fill="#263238"/>
<path fill-rule="evenodd" clip-rule="evenodd" d="M66.6356 127.538C66.0645 127.88 65.6191 128.377 64.8881 128.309C64.6082 128.28 64.6711 128.509 64.6711 128.663C64.6711 131.404 64.6711 134.143 64.6711 136.881C64.6711 137.081 64.6711 137.241 64.8995 137.349C66.9897 138.406 67.8978 140.484 69.177 142.255C69.8344 143.135 70.3078 144.139 70.5688 145.207C70.8298 146.274 70.8731 147.384 70.6961 148.468C70.6104 149.085 70.896 149.365 71.45 149.491C71.7291 149.586 72.0313 149.589 72.3127 149.501C72.594 149.413 72.8399 149.237 73.0148 148.999C73.6187 147.881 74.0226 146.665 74.2083 145.407C74.3283 144.368 73.9571 143.357 73.8257 142.329C73.7343 141.575 73.5573 140.833 73.4145 140.073C73.5973 139.942 73.8143 140.01 73.9856 140.005H80.9415C81.9181 140.005 82.3978 139.725 82.5349 139.074C82.6084 138.675 82.5494 138.263 82.3669 137.901C82.1844 137.539 81.8883 137.247 81.524 137.069C81.3527 136.984 81.0386 137.069 81.0158 136.789C80.9929 136.51 81.3185 136.544 81.4784 136.43C82.3179 135.859 82.1637 134.671 81.1928 133.985C80.9587 133.825 80.5075 133.9 80.4961 133.557C80.4847 133.214 80.913 133.289 81.1071 133.094C81.781 132.426 81.4441 131.181 80.4333 130.679C80.2951 130.633 80.1597 130.58 80.0278 130.519C79.9136 130.445 79.7993 130.353 80.0278 130.199C81.0329 129.479 81.0101 128.486 80.0278 127.76L79.7251 127.543C79.3599 127.323 78.9326 127.229 78.5087 127.275H67.5894C67.2493 127.234 66.9066 127.328 66.6356 127.538Z" fill="#455A64"/>
<path fill-rule="evenodd" clip-rule="evenodd" d="M56.3164 132.369C56.3164 134.111 56.3164 135.852 56.3164 137.589C56.3164 137.943 56.3507 138.114 56.7847 138.114C58.9092 138.114 61.0279 138.114 63.1524 138.114C63.5693 138.114 63.6321 137.977 63.6321 137.606C63.6321 134.107 63.6321 130.606 63.6321 127.103C63.6321 126.658 63.5122 126.532 63.061 126.532C60.9994 126.532 58.9434 126.561 56.8875 126.532C56.3735 126.532 56.3164 126.704 56.3164 127.155C56.3335 128.885 56.3164 130.627 56.3164 132.369Z" fill="#455A64"/>
<path d="M108.239 62.9415V107.652H101.963V118.498L91.118 107.652H31.5986V62.9415H108.239Z" fill="white"/>
<path d="M108.24 62.9577L108.4 107.669V107.829H108.24H101.958L102.124 107.657V118.508V118.925L101.81 118.611L90.9589 107.76C91.7584 107.954 31.4052 107.811 31.5651 107.886H31.291V107.611L31.3938 62.9577V62.7521H31.5994C50.7082 62.7863 89.1371 62.8606 108.24 62.9577ZM108.24 62.9577C89.1428 63.0605 50.6911 63.1347 31.5994 63.169C32.0848 61.8726 31.7536 107.948 31.8735 107.669L31.5994 107.394C31.7479 107.457 91.1759 107.343 91.2616 107.52L102.112 118.371L101.793 118.502V107.651V107.503H101.964H108.246C107.846 108.468 108.354 62.7635 108.246 62.9577H108.24Z" fill="#263238"/>
<path d="M101.604 70.8444H38.2354V71.5297H101.604V70.8444Z" fill="#263238"/>
<path d="M101.604 76.2755H38.2354V76.9608H101.604V76.2755Z" fill="#263238"/>
<path d="M101.604 81.7123H38.2354V82.3976H101.604V81.7123Z" fill="#263238"/>
<path d="M101.604 87.1434H38.2354V87.8287H101.604V87.1434Z" fill="#263238"/>
<path d="M101.604 92.5746H38.2354V93.2599H101.604V92.5746Z" fill="#263238"/>
<path d="M78.5317 98.0114H38.2354V98.6967H78.5317V98.0114Z" fill="#263238"/>
<path d="M106.557 119.895C104.506 136.503 99.2523 156.091 105.083 172.436C109.652 185.234 120.68 194.463 132.319 200.745C157.926 214.548 194.95 218.963 215.578 194.08C223.814 184.138 226.789 162.328 215.11 153.356C209.102 148.787 201.661 147.222 194.676 144.732C185.447 141.477 179.063 135.657 175.385 126.543C168.195 108.793 170.873 96.4119 170.685 77.7999C170.639 74.3448 170.114 70.9011 166.933 67.743C164.306 64.5677 160.571 62.2376 156.442 60.8042C152.969 59.0909 149.269 57.9487 145.351 58.0744C137.099 58.2914 128.652 65.2302 121.936 69.4391C115.22 73.6481 111.822 78.4567 110.697 86.4577C109.166 97.5712 107.944 108.742 106.557 119.895Z" fill="#263238"/>
<path d="M103.883 127.588C106.739 112.488 109.897 97.4623 112.952 82.4026C112.952 82.3169 113.112 82.3283 113.095 82.4026C110.942 94.8638 108.96 107.342 106.642 119.781C104.357 131.974 101.199 144.338 100 156.696C97.3159 184.411 124.98 197.929 148.686 198.386C149.765 198.386 149.611 200.099 148.52 200.065C127.715 198.991 103.495 189.974 98.9835 166.942C96.5163 154.36 101.548 139.935 103.883 127.588Z" fill="#263238"/>
<path d="M169.457 76.223C169.463 76.1624 169.493 76.1067 169.54 76.0681C169.587 76.0296 169.648 76.0113 169.709 76.0174C169.769 76.0234 169.825 76.0533 169.863 76.1004C169.902 76.1476 169.92 76.2081 169.914 76.2687C169.423 91.5854 167.413 109.392 175.054 123.372C178.835 130.251 184.608 135.826 191.616 139.363C197.161 142.144 203.226 142.818 209.125 144.463C232.203 150.888 229.965 182.549 211.981 193.577C211.604 193.811 211.193 193.172 211.564 192.92C224.294 184.302 229.593 167.221 220.816 153.738C213.768 142.887 198.452 144.971 188.183 138.621C166.893 125.44 167.264 98.3643 169.457 76.223Z" fill="#263238"/>
<path d="M219.061 224.343C215.292 241.476 192.545 244.428 189.21 240.596C175.715 225.102 161.866 195.451 146.904 162.356C135.196 136.497 143.334 135.978 154.065 143.15C178.993 159.826 221.089 215.12 219.061 224.343Z" fill="#34A1D3"/>
<path opacity="0.4" d="M148.441 140.054C147.596 140.587 146.737 141.095 145.866 141.579C144.348 142.429 142.769 143.166 141.143 143.783C141.143 143.538 141.143 143.309 141.171 143.086C143.436 142.184 145.611 141.073 147.67 139.768C147.921 139.854 148.178 139.951 148.441 140.054ZM175.197 161.756C171.709 162.842 168.094 163.468 164.443 163.617C158.53 163.801 152.615 163.322 146.808 162.19L146.882 162.349C146.962 162.532 147.048 162.709 147.128 162.892C155.123 164.308 163.181 165.028 171.285 163.463C172.789 163.18 174.273 162.798 175.728 162.321L175.197 161.756ZM202.815 203.657C203.509 201.279 203.934 198.831 204.083 196.358L203.512 195.553C203.405 199.348 202.574 203.087 201.062 206.569C199.6 209.756 197.213 213.28 193.74 214.467C190.268 215.655 187.258 213.645 185.539 210.761C181.37 203.799 184.923 195.296 184.786 187.797C184.688 182.378 182.678 176.033 177.116 173.983C171.976 172.087 166.105 174.885 162.896 178.985C160.457 182.104 159.56 185.941 159.583 189.836C159.829 190.35 160.074 190.858 160.314 191.367C159.994 186.016 161.279 180.659 165.665 177.089C168.07 175.131 171.194 173.851 174.335 174.057C177.87 174.285 180.731 176.57 182.33 179.659C186.019 186.878 182.952 195.005 182.901 202.6C182.901 207.54 184.945 214.547 190.702 215.398C197.064 216.341 201.296 208.751 202.815 203.662V203.657ZM213.038 209.727C211.844 211.149 210.599 212.543 209.314 213.891C204.174 219.265 198.463 224.456 195.328 231.32C193.757 234.658 192.975 238.312 193.044 242L193.752 242.057C193.636 240.12 193.815 238.178 194.283 236.295C196.173 228.551 201.707 222.674 207.11 217.123C209.28 214.89 211.387 212.623 213.392 210.27C213.26 210.099 213.152 209.916 213.038 209.727Z" fill="white"/>
<path opacity="0.1" d="M219.062 224.342C215.293 241.475 192.546 244.428 189.211 240.596C175.716 225.102 161.867 195.451 146.904 162.356C141.234 149.826 140.011 142.065 142.496 139.872L218.862 220.899C219.182 222.018 219.25 223.194 219.062 224.342Z" fill="black"/>
<path d="M194.305 236.632C187.343 227.592 189.736 208.843 194.756 163.904C195.453 157.684 242.271 154.949 241.871 161.619C241.369 170.032 234.624 203.503 232.683 208.449C223.18 232.795 199.022 242.76 194.305 236.632Z" fill="#F7A9A0"/>
<path d="M243.585 144.167C244.653 153.213 239.587 172.556 236.589 176.759C233.591 180.963 200.399 173.464 198.154 168.655C195.91 163.847 194.676 133.128 199.599 125.252C204.522 117.377 242.477 134.801 243.585 144.167Z" fill="#F7A9A0"/>
<path d="M194.47 138.913C198.914 140.791 200.221 137.045 200.221 137.045C200.221 137.045 198.171 146.183 202.746 148.918C207.16 151.551 210.29 144.584 210.518 144.087C210.415 144.572 208.754 153.013 213.631 155.297C218.702 157.667 220.644 150.157 220.764 149.643C220.809 150.129 221.517 156.571 225.618 157.462C232.665 158.992 231.329 142.47 235.281 138.182C235.281 138.182 243.316 144.07 243.585 144.189C243.585 144.189 242.619 128.45 236.537 123.424C235.665 122.687 234.569 122.268 233.427 122.236C232.286 122.204 231.167 122.561 230.255 123.247C230.255 123.247 230.506 118.136 226.72 116.217C224.773 115.235 221.477 117.474 221.477 117.474C221.477 117.474 221.477 113.379 218.051 111.877C215.281 110.678 212.403 113.111 212.403 113.111C212.403 113.111 216.755 92.654 211.523 90.8893C202.511 87.8511 195.658 132.134 191.901 133.995C189.999 134.915 192.534 138.067 194.47 138.913Z" fill="#F7A9A0"/>
<path d="M211.85 113.402C211.858 113.396 211.864 113.388 211.869 113.379C211.874 113.37 211.876 113.36 211.876 113.349C211.877 113.339 211.874 113.329 211.87 113.32C211.866 113.31 211.86 113.302 211.852 113.295C211.844 113.289 211.835 113.284 211.825 113.282C211.815 113.279 211.804 113.279 211.794 113.281C211.784 113.283 211.775 113.287 211.766 113.293C211.758 113.3 211.752 113.308 211.747 113.317C205.762 119.707 201.142 128.571 200.039 137.303C200.005 137.588 200.611 138.793 200.662 138.473C202.181 130.524 206.653 121.106 211.85 113.402Z" fill="#263238"/>
<path d="M221.472 117.314C221.529 117.235 221.392 117.137 221.318 117.217C215.184 123.842 210.256 133.962 210.17 144.19C210.17 144.544 210.518 144.858 210.553 144.459C211.124 137.663 216.76 124.225 221.472 117.314Z" fill="#263238"/>
<path d="M221.004 150.335C221.466 140.529 225.001 131.86 229.959 123.493C230.021 123.385 229.861 123.305 229.787 123.379C226.252 126.806 223.665 132.488 222.026 137.085C220.425 141.308 219.955 145.875 220.661 150.335C220.695 150.495 220.998 150.546 221.004 150.335Z" fill="#263238"/>
<path d="M200.079 137.103C200.033 137.446 200.953 136.892 200.919 137.24C200.599 140.998 200.348 147.748 203.351 148.702C205.756 149.461 208.44 146.76 209.062 145.315L210.633 141.689L210.416 145.641C210.306 147.398 210.484 149.161 210.941 150.861C211.404 152.511 212.306 154.03 213.717 154.693C214.378 155.063 215.147 155.196 215.894 155.068C216.641 154.94 217.322 154.559 217.823 153.99C218.917 152.692 219.664 151.138 219.993 149.473L221.055 144.904L221.541 149.541C221.675 150.834 221.975 152.105 222.432 153.322C222.82 154.49 223.543 155.519 224.511 156.28C224.961 156.603 225.492 156.794 226.045 156.832C226.598 156.869 227.151 156.751 227.64 156.492C228.617 155.92 229.319 154.738 229.873 153.556C230.981 151.135 231.586 148.445 232.312 145.806C232.666 144.481 233.02 143.151 233.454 141.809C233.888 140.467 234.339 139.142 235.293 138.125C234.459 139.227 234.151 140.604 233.819 141.912C233.488 143.219 233.248 144.584 233.003 145.909C232.569 148.651 231.875 151.346 230.93 153.956C230.359 155.247 229.725 156.623 228.36 157.559C227.659 157.99 226.847 158.207 226.024 158.184C225.202 158.161 224.404 157.898 223.728 157.428C222.498 156.519 221.566 155.265 221.05 153.825C220.52 152.479 220.166 151.07 219.999 149.633L221.547 149.707C221.195 151.684 220.328 153.534 219.034 155.07C218.293 155.906 217.283 156.456 216.178 156.623C215.092 156.754 213.992 156.555 213.02 156.052C211.044 155.064 209.993 153.054 209.502 151.203C209.025 149.326 208.861 147.383 209.017 145.452L210.376 145.784C209.519 147.588 206.841 150.923 202.952 150.227C198.052 148.622 199.657 138.862 200.079 137.103Z" fill="#263238"/>
<path d="M198.154 168.656C198.154 168.656 182.735 148.736 183.357 140.244C183.98 131.752 200.633 122.848 207.229 120.57C216.332 117.429 217.663 124.276 214.653 128.513C211.152 133.431 203.694 138.747 203.18 139.124C203.18 139.124 216.469 145.549 217.577 156.257C218.685 166.965 198.154 168.656 198.154 168.656Z" fill="#F7A9A0"/>
<path d="M195.03 126.741C198.166 124.563 201.492 122.67 204.967 121.088C206.715 120.231 208.586 119.653 210.513 119.374C215.698 118.803 218.125 123.098 215.795 127.552C214.852 129.267 213.689 130.851 212.334 132.264C209.747 135.124 206.751 137.586 203.442 139.568L203.374 138.649C210.044 141.538 215.51 147.392 217.297 154.491C214.893 147.426 209.011 141.767 202.049 139.225C205.572 137.14 208.757 134.531 211.495 131.487C211.963 130.967 212.877 129.888 213.311 129.34C215.418 126.941 217.206 122.036 213.202 120.579C210.541 119.666 207.794 120.785 205.236 121.721C201.722 123.155 198.312 124.83 195.03 126.736V126.741Z" fill="#263238"/>
<path d="M243.419 193.069L192.192 181.619C192.192 181.619 180.644 230.859 187.966 239.454C191.238 243.303 201.775 252.789 210.729 251.047C231.323 247.026 243.419 193.069 243.419 193.069Z" fill="#34A1D3"/>
<path opacity="0.4" d="M190.695 215.405C189.107 215.174 187.642 214.418 186.532 213.258C186.572 212.938 186.612 212.624 186.646 212.304C188.423 214.297 190.964 215.417 193.722 214.475C197.195 213.287 199.582 209.763 201.044 206.576C204.031 200.032 203.825 192.447 203.088 185.446C203.037 184.972 202.985 184.498 202.928 184.024L203.591 184.167C204.31 190.648 204.699 197.347 202.814 203.664C201.295 208.752 197.063 216.342 190.695 215.405ZM226.629 189.324L225.966 189.175C221.858 198.301 216.227 206.662 209.313 213.898C204.173 219.272 198.462 224.463 195.327 231.328C193.5 235.325 192.472 240.134 193.3 244.525C193.608 244.777 193.922 245.022 194.242 245.268C193.497 242.326 193.497 239.244 194.242 236.302C196.132 228.558 201.666 222.681 207.069 217.13C212.209 211.859 216.949 206.399 220.861 200.146C223.035 196.678 224.962 193.062 226.629 189.324ZM229.142 226.29C226.537 226.496 224.316 228.141 222.671 230.071C218.588 234.88 218.308 241.093 216.235 246.793C215.906 247.71 215.509 248.602 215.047 249.46C215.39 249.271 215.727 249.071 216.063 248.854C217.105 246.426 217.912 243.904 218.473 241.322C219.244 238.169 220.033 235.108 221.803 232.338C223.516 229.694 226.138 227.027 229.478 226.919C230.297 226.888 231.114 227.018 231.883 227.301C231.974 227.107 232.066 226.913 232.151 226.73C231.193 226.363 230.165 226.213 229.142 226.29Z" fill="white"/>
<path d="M191.598 195.08C197.406 196.222 203.26 197.004 209.114 197.798C214.967 198.592 220.832 199.391 226.709 200.037C230.027 200.402 233.345 200.791 236.675 201.036C236.76 201.036 236.795 200.899 236.703 200.882C230.907 199.74 225.047 198.929 219.211 198.101C213.374 197.273 207.486 196.502 201.615 195.788C198.303 195.382 194.979 195.04 191.65 194.788C191.484 194.777 191.45 195.045 191.598 195.08Z" fill="#263238"/>
<path d="M192.752 181.419C192.226 181.202 191.501 180.968 191.467 181.088C190.69 184.286 190.188 187.775 189.685 191.031C189.182 194.286 188.771 197.467 188.4 200.694C188.194 202.407 188.029 204.172 187.915 205.913C186.97 208.062 186.441 210.37 186.355 212.715C186.355 212.829 186.555 212.847 186.567 212.715C186.721 210.628 187.161 208.572 187.875 206.604C187.553 210.86 187.873 215.139 188.823 219.3C188.823 219.3 188.868 219.3 188.863 219.3C187.492 213.081 188.754 206.467 189.491 200.242C189.856 197.124 190.296 194.018 190.747 190.911C191.198 187.804 191.775 184.726 192.192 181.625C192.192 181.625 192.763 181.756 192.855 181.773C192.946 181.79 192.849 181.459 192.752 181.419Z" fill="#263238"/>
<path d="M179.056 255.93L174.819 211.333C174.819 211.333 182.363 195.519 174.276 181.802C170.193 174.857 159.754 149.421 147.344 140.255C132.741 129.472 118.726 139.398 113.278 146.788C102.359 161.585 86.1567 192.944 77.2305 255.947L179.056 255.93Z" fill="#34A1D3"/>
<path opacity="0.4" d="M147.698 140.518C147.093 140.889 146.482 141.243 145.865 141.586C140.725 144.441 134.489 146.486 128.652 144.715C124.917 143.573 122.998 141.455 122.313 138.799L122.884 138.479C123.086 139.353 123.461 140.179 123.986 140.906C126.099 143.813 130.034 144.733 133.438 144.693C138.401 144.636 142.941 142.631 147.144 140.124L147.355 140.278L147.698 140.518ZM148.777 217.153C144.517 214.463 138.72 214.869 134.391 217.153C129.006 220.008 126.168 226.073 125.157 231.859C123.763 239.825 125.614 247.901 126.71 255.913H127.281C126.231 248.232 124.5 240.494 125.631 232.858C126.585 226.393 129.754 219.586 136.168 217.027C141.507 214.903 148.697 215.731 151.696 221.179C155.562 228.221 150.388 236.684 147.567 243.121C145.853 247.073 144.54 251.527 144.603 255.907H145.271C145.256 255.093 145.286 254.279 145.362 253.469C146.036 245.959 150.428 239.763 152.626 232.692C154.363 227.21 154.151 220.58 148.777 217.153ZM95.6656 218.866C91.5677 218.309 87.3957 218.903 83.6155 220.58C83.5584 220.837 83.5013 221.094 83.4385 221.356C87.6531 219.449 92.536 218.684 96.9734 219.803C99.8618 220.466 102.395 222.191 104.072 224.634C106.128 227.747 106.396 231.539 105.625 235.108C103.986 242.692 98.6524 249.317 93.564 254.937C93.2556 255.279 92.9415 255.61 92.6217 255.942H93.5183C96.0447 253.206 98.3892 250.308 100.537 247.267C104.192 242.098 107.641 235.451 106.465 228.912C105.471 223.435 101.057 219.723 95.677 218.866H95.6656ZM132.107 174.155C125.717 175.132 119.857 178.107 114.055 180.809C108.253 183.51 101.953 186.342 95.3458 186.12C94.7404 186.12 94.1236 186.051 93.5069 185.977L93.2841 186.594C99.3035 187.37 105.186 185.452 110.645 183.059C116.876 180.357 122.884 176.948 129.526 175.332C135.985 173.756 144.808 174.03 148.006 181.008C150.993 187.525 147.624 195.12 142.678 199.609C137.732 204.098 130.942 206.382 124.329 206.873C112.119 207.77 100.708 203.007 89.1894 199.255L89.0181 199.826C102.867 204.263 117.538 210.494 132.198 206.108C137.824 204.395 143.095 201.202 146.476 196.319C149.731 191.631 151.107 184.858 148.041 179.724C144.802 174.264 137.858 173.304 132.119 174.178L132.107 174.155ZM164.876 163.573H164.431C147.384 164.373 131.205 157.359 114.295 156.549C111.798 156.419 109.295 156.45 106.802 156.64L106.414 157.32C111.853 156.929 117.318 157.173 122.701 158.045C136.761 160.118 150.913 165.109 165.231 164.19L164.876 163.573ZM176.156 225.485C170.393 216.85 164.42 208.324 161.507 198.227C159.434 191.043 159.325 182.202 165.636 177.096C167.069 175.919 168.72 175.038 170.496 174.504L170.199 173.933C167.313 174.85 164.768 176.612 162.895 178.993C158.623 184.452 159.091 192.128 160.907 198.41C163.951 208.964 170.308 217.855 176.327 226.913L176.156 225.485Z" fill="white"/>
<path d="M134.408 207.25C139.369 207.125 144.332 207.365 149.257 207.97C151.701 208.307 154.111 208.752 156.527 209.249C157.732 209.501 158.937 209.706 160.153 209.906C161.416 210.156 162.705 210.25 163.991 210.186C164.014 210.186 164.036 210.195 164.052 210.211C164.068 210.227 164.077 210.249 164.077 210.272C164.077 210.294 164.068 210.316 164.052 210.332C164.036 210.348 164.014 210.357 163.991 210.357C162.792 210.556 161.58 210.672 160.365 210.706C159.186 210.702 158.008 210.618 156.841 210.454C154.357 210.14 151.89 209.706 149.417 209.363C144.414 208.678 139.417 207.987 134.374 207.65C134.33 207.636 134.291 207.607 134.265 207.568C134.239 207.53 134.227 207.483 134.231 207.437C134.235 207.39 134.255 207.346 134.287 207.312C134.319 207.279 134.362 207.257 134.408 207.25Z" fill="#263238"/>
<path d="M122.775 212.984C126.78 212.097 130.832 211.436 134.911 211.002C136.95 210.797 138.983 210.705 141.033 210.665C142.01 210.665 142.992 210.665 143.969 210.665C145.048 210.665 146.122 210.831 147.195 210.831C147.309 210.831 147.327 211.002 147.195 211.008C146.184 211.036 145.168 211.242 144.157 211.333L141.107 211.602C139.074 211.784 137.047 211.99 135.008 212.173C130.93 212.498 126.876 212.87 122.815 213.315C122.593 213.344 122.57 213.029 122.775 212.984Z" fill="#263238"/>
<path d="M111.285 147.313C82.159 176.188 45.2663 237.187 51.891 249.711C59.2581 263.657 99.8115 223.178 99.6801 220.79C99.583 218.98 114.1 181.842 125.1 154.835C136.099 127.828 118.481 140.175 111.285 147.313Z" fill="#F7A9A0"/>
<path d="M99.9373 220.836C101.205 216.838 120.942 167.89 126.602 152.402C131.679 138.495 129.154 132.739 117.464 141.265C95.9168 156.959 53.0791 205.319 44.9639 230.487C37.1456 254.736 57.2938 256.946 73.9412 245.907C87.5732 236.878 99.9373 220.836 99.9373 220.836Z" fill="#34A1D3"/>
<path opacity="0.4" d="M95.6768 218.865C97.2241 219.1 98.7217 219.591 100.108 220.316C100.036 220.522 99.979 220.687 99.9371 220.813L99.88 220.887C98.9627 220.406 97.9904 220.038 96.9846 219.791C91.2394 218.34 84.7517 220.053 79.926 223.309C73.7696 227.46 69.2522 233.543 63.8326 238.523C59.3723 242.64 54.3867 245.707 48.2417 246.421C47.0306 246.562 45.8093 246.594 44.5924 246.518C44.4751 246.297 44.3703 246.07 44.2783 245.838C45.4806 245.952 46.691 245.952 47.8933 245.838C54.6151 245.136 59.9377 241.447 64.6664 236.861C69.6806 232.006 74.0951 226.295 80.0288 222.486C84.5633 219.585 90.3199 218.06 95.6768 218.865ZM77.1162 195.965C73.4749 195.238 69.7668 194.899 66.0541 194.954L65.563 195.605C73.3584 195.319 81.0796 197.278 88.4638 199.602C94.1748 201.419 100.04 203.566 105.979 205.171C106.048 205.005 106.111 204.839 106.179 204.668C96.4363 202.081 86.939 197.866 77.1162 195.987V195.965ZM95.3569 186.119C91.7705 185.993 87.8813 185.028 85.2886 182.401C83.4204 180.388 82.4158 177.722 82.4902 174.977C82.2846 175.217 82.0733 175.451 81.862 175.691C81.9424 178.236 82.8962 180.676 84.5633 182.601C86.6992 184.96 89.8573 186.119 92.9355 186.57C99.0805 187.472 105.088 185.496 110.639 183.081C112.301 182.361 113.952 181.59 115.602 180.796L115.945 179.923L114.049 180.813C108.212 183.555 101.965 186.365 95.3569 186.142V186.119ZM114.306 156.616C108.927 156.271 103.528 156.793 98.3152 158.164C97.984 158.484 97.6527 158.815 97.3215 159.146C97.6128 159.049 97.8926 158.963 98.201 158.878C106.151 156.593 114.586 156.919 122.695 158.113C123.266 158.192 123.797 158.278 124.351 158.37C124.431 158.17 124.506 157.97 124.58 157.77C121.18 157.186 117.75 156.801 114.306 156.616ZM123.98 140.923C123.369 140.075 122.963 139.098 122.792 138.067C122.604 138.147 122.404 138.238 122.221 138.336C122.792 141.191 124.711 143.527 128.669 144.726L128.8 144.766C128.84 144.549 128.874 144.332 128.903 144.126C126.946 143.637 125.212 142.503 123.98 140.905V140.923Z" fill="white"/>
<path d="M97.4189 227.164C103.891 208.508 111.104 190.138 119.058 172.054C112.585 190.709 105.372 209.08 97.4189 227.164Z" fill="#263238"/>
<path d="M115.061 182.79C116.229 180.464 117.671 178.286 119.355 176.302C118.333 178.71 116.878 180.909 115.061 182.79Z" fill="#263238"/>
<path d="M52.3539 249.418C60.1836 257.585 77.8875 256.631 122.701 258.402C128.903 258.647 142.404 215.353 135.796 214.747C127.47 213.993 95.0089 212.851 92.6217 213.068C72.5078 214.867 47.0484 243.879 52.3539 249.418Z" fill="#F7A9A0"/>
<path d="M128.857 216.347C128.857 216.347 145.699 211.259 155.373 211.327C168.325 211.413 179.473 216.827 184.008 219.374C193.471 224.697 212.677 244.108 208.051 250.613C203.865 256.506 185.235 235.673 185.235 235.673C185.235 235.673 207.737 253.777 201.392 259.944C195.047 266.112 174.796 240.693 174.796 240.693C174.796 240.693 197.491 259.819 189.941 265.141C184.23 269.139 164.602 247.18 164.602 247.18C164.602 247.18 184.019 263.742 178.308 268.14C172.026 272.988 152.609 253.862 152.609 253.862C136.27 262.583 124.922 260.053 117.064 257.289C115.174 256.598 128.857 216.347 128.857 216.347Z" fill="#F7A9A0"/>
<path d="M177.858 228.912C180.576 230.945 183.34 232.978 185.853 235.245C188.366 237.512 190.839 239.871 193.146 242.361C198.805 248.472 201.393 253.183 201.204 252.909C196.67 246.439 187.738 238.186 185.213 235.919C182.689 233.652 180.279 231.27 177.755 229.003C177.704 228.946 177.789 228.866 177.858 228.912Z" fill="#263238"/>
<path d="M169.508 237.9C172.866 240.641 176.304 243.245 179.547 246.135C182.791 249.025 185.578 252.029 188.594 255.124C188.828 255.358 188.622 255.41 188.382 255.176C185.241 252.206 182.1 249.704 178.936 246.769C175.772 243.834 172.7 240.778 169.433 237.974C169.382 237.928 169.456 237.854 169.508 237.9Z" fill="#263238"/>
<path d="M160.953 244.326C166.304 248.255 170.924 253.167 175.338 258.095C175.561 258.341 175.287 258.369 175.047 258.135C170.353 253.464 166.703 249.769 160.815 244.509C160.724 244.429 160.838 244.241 160.953 244.326Z" fill="#263238"/>
<path d="M127.75 209.574L96.517 267.443C96.517 267.443 52.2059 258.585 46.6948 249.505C42.7543 243.017 69.5957 215.588 91.8112 212.846L127.75 209.574Z" fill="#34A1D3"/>
<path opacity="0.4" d="M100.531 247.267C98.3361 250.373 95.938 253.33 93.3524 256.119C90.7825 258.894 87.8356 261.259 85.2885 264.068C85.0772 264.303 84.8716 264.537 84.6832 264.777L83.9979 264.611C84.4488 264.035 84.9331 263.486 85.4484 262.966C88.1097 260.242 90.9938 257.769 93.558 254.937C98.6464 249.317 103.98 242.692 105.619 235.108C106.39 231.539 106.122 227.747 104.066 224.634C102.392 222.199 99.8649 220.479 96.9845 219.814C91.2393 218.364 84.7517 220.077 79.926 223.332C73.7696 227.484 69.2522 233.566 63.8325 238.546C59.3723 242.641 54.3867 245.708 48.2417 246.422C47.6706 246.49 47.0995 246.53 46.4941 246.553C46.5426 246.332 46.6055 246.115 46.6826 245.902C47.0881 245.902 47.4936 245.856 47.8933 245.816C54.6151 245.137 59.9377 241.447 64.6663 236.862C69.6805 232.007 74.0951 226.296 80.0288 222.487C84.5575 219.586 90.3085 218.061 95.671 218.889C101.034 219.717 105.465 223.429 106.453 228.912C107.635 235.428 104.186 242.099 100.531 247.267Z" fill="white"/>
<path d="M66.7788 225.37C69.5601 221.944 79.0174 214.577 91.827 212.806C91.9412 212.806 91.9926 212.966 91.8784 212.995C82.4611 215.239 69.8627 222.429 66.9045 225.502C66.8245 225.582 66.7103 225.456 66.7788 225.37Z" fill="#263238"/>
<path d="M89.5835 256.826C92.1534 251.012 95.0317 245.341 97.9215 239.693C100.811 234.045 103.701 228.351 106.733 222.76C108.447 219.602 110.16 216.426 111.97 213.331C112.016 213.245 112.165 213.331 112.125 213.394C109.566 219.202 106.711 224.89 103.861 230.561C101.011 236.232 98.0814 241.903 95.1117 247.534C93.4384 250.715 91.6851 253.862 89.8747 256.963C89.7948 257.128 89.5092 256.991 89.5835 256.826Z" fill="#263238"/>
<path d="M127.67 209.013C125.191 208.942 122.711 209.038 120.245 209.299C117.778 209.487 115.311 209.722 112.85 209.973C107.956 210.481 97.5159 210.995 88.8638 213.348C88.7668 213.348 89.3835 213.708 89.4806 213.674C93.5468 212.343 124.711 210.293 127.173 209.813C127.116 210 127.074 210.191 127.047 210.384C127.047 210.515 127.19 210.641 127.293 210.521C127.544 210.236 127.693 209.922 127.915 209.619C127.962 209.569 127.994 209.506 128.006 209.439C128.019 209.371 128.012 209.301 127.986 209.238C127.96 209.174 127.917 209.119 127.861 209.079C127.805 209.04 127.738 209.017 127.67 209.013Z" fill="#263238"/>
<path d="M115.962 142.38C115.962 142.38 131.222 160.467 144.071 161.226C156.921 161.986 158.388 146.304 158.388 146.304C158.388 146.304 150.25 137.137 139.131 135.487C135 134.885 130.788 135.19 126.787 136.381C122.786 137.571 119.092 139.618 115.962 142.38Z" fill="#F7A9A0"/>
<path d="M127.978 140.895C128.378 142.911 136.545 155.509 145.648 153.864C152.038 152.722 150.159 139.821 150.159 139.821L154.848 121.917L132.673 106.715C132.673 106.715 127.824 140.055 127.978 140.895Z" fill="#F7A9A0"/>
<path d="M130.981 118.422C132.647 122.972 135.23 127.131 138.57 130.64C141.91 134.149 145.937 136.934 150.399 138.822L154.836 121.917L132.66 106.715C132.66 106.715 131.907 112.003 130.981 118.422Z" fill="#263238"/>
<path d="M178.811 93.9959C182.883 124.041 165.316 129.861 158.823 130.729C152.929 131.517 132.764 133.447 125.602 103.979C118.441 74.5102 131.148 63.1283 144.528 60.6154C157.909 58.1026 174.739 63.9449 178.811 93.9959Z" fill="#F7A9A0"/>
<path d="M171.702 90.6382C171.002 90.5707 170.306 90.4659 169.617 90.3241C168.818 90.1928 168.172 90.1756 167.556 89.5988C167.398 89.4189 167.305 89.1917 167.29 88.9529C167.276 88.7141 167.341 88.4772 167.476 88.2796C168.104 87.4686 169.12 87.383 170.091 87.4972C171.069 87.5859 171.979 88.0311 172.65 88.7479C172.799 88.9187 172.894 89.1301 172.923 89.3552C172.951 89.5802 172.912 89.8087 172.811 90.0114C172.709 90.2142 172.549 90.3821 172.352 90.4937C172.154 90.6054 171.928 90.6557 171.702 90.6382Z" fill="#263238"/>
<path d="M150.833 92.7961C151.518 92.6408 152.195 92.4502 152.86 92.2251C153.643 92.0023 154.283 91.911 154.831 91.2656C154.965 91.0676 155.029 90.831 155.015 90.5924C155 90.3539 154.908 90.1268 154.751 89.9464C154.031 89.2154 153.009 89.2439 152.067 89.4724C151.106 89.6726 150.252 90.2194 149.668 91.0086C149.532 91.1958 149.456 91.4197 149.451 91.6509C149.445 91.8821 149.509 92.1095 149.635 92.3033C149.762 92.497 149.944 92.6478 150.158 92.7358C150.372 92.8239 150.607 92.8449 150.833 92.7961Z" fill="#263238"/>
<path d="M155.694 99.2276C155.694 99.1533 155.54 99.3418 155.551 99.4217C155.785 101.483 155.705 103.882 153.889 104.721C153.832 104.75 153.849 104.853 153.889 104.836C156.179 104.327 156.248 101.141 155.694 99.2276Z" fill="#263238"/>
<path d="M153.666 97.2231C150.319 97.2231 150.605 103.928 153.706 103.911C156.807 103.894 156.476 97.2231 153.666 97.2231Z" fill="#263238"/>
<path d="M152.369 97.6286C151.798 98.0341 151.255 98.7251 150.553 98.8222C149.736 98.9421 149.091 98.2511 148.531 97.6172C148.468 97.5486 148.417 97.6172 148.417 97.6971C148.451 98.9764 148.988 100.273 150.387 100.404C151.649 100.524 152.506 99.3533 152.769 98.0512C152.82 97.7942 152.615 97.4687 152.369 97.6286Z" fill="#263238"/>
<path d="M167.595 98.0389C167.595 97.959 167.761 98.1303 167.761 98.216C167.761 100.289 168.126 102.665 170.045 103.287C170.102 103.287 170.102 103.413 170.045 103.407C167.709 103.162 167.269 100.003 167.595 98.0389Z" fill="#263238"/>
<path d="M169.371 95.8118C172.7 95.4406 173.197 102.094 170.113 102.459C167.029 102.825 166.578 96.1202 169.371 95.8118Z" fill="#263238"/>
<path d="M170.798 96.1488C171.369 96.4629 171.94 97.0683 172.557 97.0626C173.294 97.0626 173.779 96.2916 174.196 95.5663C174.236 95.4921 174.293 95.5663 174.305 95.6291C174.436 96.9027 174.11 98.2676 172.9 98.5988C171.798 98.9072 170.895 97.8735 170.495 96.6228C170.421 96.3944 170.575 96.0232 170.798 96.1488Z" fill="#263238"/>
<path d="M157.469 115.893C157.966 116.384 158.457 117.035 159.211 117.121C159.984 117.108 160.745 116.931 161.444 116.601C161.459 116.595 161.475 116.593 161.49 116.597C161.506 116.601 161.52 116.609 161.53 116.621C161.54 116.634 161.546 116.649 161.547 116.665C161.548 116.68 161.544 116.696 161.535 116.709C161.24 117.12 160.838 117.443 160.374 117.644C159.909 117.846 159.399 117.917 158.897 117.852C157.955 117.686 157.492 116.869 157.269 116.013C157.235 115.87 157.395 115.824 157.469 115.893Z" fill="#263238"/>
<path d="M165.75 107.943C165.75 107.943 166.35 111.01 166.43 112.472C166.43 112.609 166.087 112.689 165.59 112.746C165.59 112.746 165.556 112.746 165.533 112.746C164.291 113.042 162.992 112.991 161.777 112.599C160.562 112.206 159.479 111.486 158.646 110.518C158.537 110.381 158.714 110.222 158.852 110.307C160.856 111.615 163.003 111.866 165.293 111.781C165.379 111.369 164.094 106.555 164.328 106.527C165.122 106.412 166.727 106.869 167.686 107.098C166.63 100.667 164.545 94.4593 163.586 88.0402C163.58 87.9935 163.591 87.9463 163.617 87.9068C163.642 87.8674 163.681 87.8383 163.726 87.8246C163.771 87.811 163.82 87.8137 163.863 87.8322C163.906 87.8508 163.942 87.884 163.963 87.926C166.607 94.2823 167.989 101.632 169.251 108.263C169.394 109.091 166.321 108.16 165.75 107.943Z" fill="#263238"/>
<path d="M164.608 112.317C163.936 113.38 163.002 114.251 161.895 114.847C161.283 115.155 160.59 115.262 159.914 115.156C158.44 114.91 158.28 113.591 158.44 112.437C158.532 111.823 158.695 111.221 158.926 110.644C160.593 111.794 162.584 112.381 164.608 112.317Z" fill="#263238"/>
<path d="M161.895 114.847C161.283 115.154 160.59 115.262 159.914 115.155C158.44 114.909 158.28 113.59 158.44 112.437C159.999 112.454 161.627 113.356 161.895 114.847Z" fill="#FF9CBD"/>
<path d="M127.487 105.738C132.981 106.555 134.666 93.9736 134.666 93.9736C134.666 93.9736 158.218 90.507 160.622 71.4439C160.622 71.4439 165.91 83.3855 178.075 89.1478C178.075 89.1478 175.453 65.4475 158.937 61.0158C158.937 61.0158 140.799 54.1626 127.955 70.0162C114.815 86.2981 123.821 105.218 127.487 105.738Z" fill="#263238"/>
<path d="M160.753 70.0328C160.967 72.9874 160.544 75.9534 159.514 78.7306C158.527 81.5724 156.955 84.1756 154.899 86.3718C154.395 86.924 153.855 87.4429 153.283 87.9252L152.472 88.6562C152.175 88.8789 151.867 89.0902 151.559 89.3073C150.942 89.7241 150.342 90.1639 149.708 90.5579C149.074 90.952 148.389 91.2433 147.727 91.5688C147.395 91.7344 147.07 91.9114 146.727 92.0599L145.688 92.4368L143.609 93.185C142.181 93.5448 140.753 93.836 139.309 94.1044C140.668 93.5333 142.061 93.1336 143.392 92.5682L145.351 91.6659L146.333 91.2204C146.647 91.0491 146.944 90.8492 147.253 90.6493C147.864 90.2724 148.475 89.9069 149.091 89.5528C149.708 89.1987 150.234 88.7019 150.805 88.285L151.656 87.6454L152.432 86.9201C152.963 86.4529 153.468 85.9572 153.946 85.4352C155.878 83.3501 157.443 80.9516 158.572 78.3423C159.151 77.0323 159.619 75.6759 159.971 74.2875C160.355 72.8948 160.617 71.4711 160.753 70.0328Z" fill="#263238"/>
<path d="M160.89 100.432L160.039 99.507C161.341 98.1478 164.448 96.1889 166.892 98.5133L166.053 99.507C163.854 97.3997 161.01 100.307 160.89 100.432Z" fill="#37474F"/>
<path d="M118.732 109.661L117.464 109.376C117.601 108.805 118.834 103.568 121.519 102.374C124.026 101.266 141.278 98.4108 142.009 98.2909L142.221 99.5701C137.275 100.381 123.98 102.7 122.044 103.568C120.274 104.35 119.052 108.234 118.732 109.661Z" fill="#37474F"/>
<path d="M150.245 107.822C148.086 107.708 146.127 107.251 145.002 106.406C141.912 104.087 140.011 95.4753 139.931 95.1098L139.748 94.276H140.622C141.279 94.276 156.732 94.3445 160.29 97.7597C162.203 99.5929 161.204 104.127 159.925 105.487C158.326 107.171 153.985 108.017 150.245 107.822ZM141.473 95.6638C142.164 98.445 143.831 103.802 145.83 105.304C148.52 107.325 157.046 106.52 158.903 104.544C159.788 103.602 160.553 99.9355 159.319 98.7534C156.858 96.3948 146.333 95.7437 141.473 95.6638Z" fill="#37474F"/>
<path d="M171.581 105.057C170.142 104.983 168.622 104.572 167.68 103.573C166.538 102.339 165.367 99.1238 166.332 96.531C167.749 92.7104 177.143 91.0828 178.211 90.9058L179.028 90.7744V91.6025C179.028 91.9394 178.862 100.009 177.549 102.59C176.92 103.818 175.418 104.692 173.425 104.978C172.815 105.064 172.197 105.091 171.581 105.057ZM177.611 92.4135C174.516 93.0188 168.502 94.6407 167.623 96.9822C166.835 99.0952 167.897 101.762 168.68 102.596C169.462 103.43 171.352 103.852 173.208 103.584C174.733 103.367 175.887 102.75 176.304 101.934C177.172 100.255 177.52 95.0919 177.611 92.4135Z" fill="#37474F"/>
<path d="M131.896 103.557C131.896 103.557 124.82 94.4196 120.634 96.9781C116.448 99.5366 122.09 113.003 127.224 114.642C132.358 116.281 133.969 111.564 133.969 111.564L131.896 103.557Z" fill="#F7A9A0"/>
<path d="M122.347 100.797C122.267 100.797 122.255 100.906 122.347 100.928C125.95 102.196 127.972 105.377 129.44 108.712C128.297 107.456 126.858 106.811 125.162 108.141C125.071 108.21 125.162 108.353 125.265 108.324C126.698 107.947 127.761 108.147 128.794 109.261C129.489 110.102 130.092 111.015 130.593 111.985C130.77 112.293 131.336 112.099 131.198 111.739L131.164 111.659C131.021 107.153 127.212 101.02 122.347 100.797Z" fill="#263238"/>
</svg>
