<svg width="258" height="259" viewBox="0 0 258 259" fill="none" xmlns="http://www.w3.org/2000/svg">
<path d="M119.933 40.0315L123.323 34.5981L121.656 33.5661C121.419 33.414 121.228 33.2 121.103 32.9472C120.979 32.6944 120.926 32.4124 120.95 32.1316C120.981 31.8144 120.991 31.4955 120.981 31.177C120.977 30.8978 121.049 30.6228 121.189 30.3812C121.329 30.1396 121.531 29.9403 121.775 29.8044L123.499 28.8756L120.459 23.2409L118.736 24.1645C118.488 24.2969 118.207 24.3574 117.927 24.3392C117.646 24.3209 117.376 24.2247 117.147 24.0613C116.886 23.8747 116.616 23.7024 116.337 23.5453C116.09 23.4104 115.885 23.2109 115.743 22.9682C115.601 22.7255 115.528 22.4487 115.532 22.1676L115.593 20.2068L109.205 20.0107L109.143 21.9715C109.133 22.2532 109.045 22.5265 108.888 22.7607C108.731 22.995 108.512 23.1809 108.256 23.2977C108.111 23.3647 107.972 23.4318 107.833 23.5092C107.693 23.5866 107.559 23.6589 107.425 23.7414C107.186 23.8884 106.911 23.9662 106.631 23.9662C106.35 23.9662 106.075 23.8884 105.836 23.7414L104.159 22.7094L100.789 28.1429L102.456 29.1749C102.693 29.3266 102.883 29.5397 103.008 29.7915C103.132 30.0433 103.186 30.3243 103.163 30.6042C103.132 30.9214 103.122 31.2403 103.132 31.5588C103.137 31.8389 103.065 32.1149 102.925 32.3575C102.785 32.6002 102.582 32.8003 102.337 32.9365L100.619 33.886L103.638 39.5207L105.366 38.5971C105.614 38.4657 105.893 38.4058 106.173 38.424C106.453 38.4422 106.722 38.5379 106.95 38.7003C107.214 38.8809 107.466 39.046 107.761 39.2163C108.009 39.3485 108.217 39.5474 108.359 39.7907C108.501 40.0341 108.573 40.3122 108.566 40.594L108.504 42.5548L114.897 42.756L114.959 40.7901C114.969 40.5097 115.058 40.2379 115.214 40.0053C115.371 39.7728 115.59 39.5888 115.846 39.4743C115.986 39.4072 116.13 39.3349 116.269 39.2575C116.409 39.1801 116.543 39.1079 116.677 39.0253C116.918 38.8797 117.195 38.8027 117.477 38.8027C117.759 38.8027 118.035 38.8797 118.277 39.0253L119.933 40.0315ZM114.551 35.9964C113.638 36.4859 112.601 36.6937 111.57 36.5934C110.539 36.4932 109.56 36.0895 108.759 35.4333C107.957 34.7771 107.368 33.898 107.066 32.9071C106.764 31.9161 106.763 30.8579 107.063 29.8663C107.362 28.8746 107.949 27.9941 108.749 27.336C109.549 26.6779 110.526 26.2718 111.557 26.169C112.588 26.0663 113.626 26.2716 114.54 26.7588C115.454 27.2461 116.203 27.9935 116.693 28.9066C117.018 29.5126 117.221 30.1768 117.29 30.8613C117.358 31.5458 117.291 32.237 117.092 32.8956C116.893 33.5541 116.566 34.1669 116.13 34.699C115.694 35.2311 115.158 35.672 114.551 35.9964Z" fill="#EBEBEB"/>
<path d="M30.0773 110.068L33.9576 107.814L33.2713 106.627C33.1738 106.455 33.126 106.259 33.1333 106.061C33.1406 105.863 33.2027 105.672 33.3126 105.507C33.4313 105.321 33.5448 105.13 33.648 104.929C33.7334 104.757 33.8651 104.612 34.0283 104.511C34.1915 104.41 34.3796 104.356 34.5716 104.356H35.9648V99.8723H34.5716C34.3745 99.8747 34.1808 99.8206 34.0134 99.7163C33.8461 99.6121 33.7121 99.4621 33.6273 99.2841C33.5241 99.0828 33.4106 98.8919 33.2919 98.7062C33.182 98.5416 33.12 98.3498 33.1127 98.1521C33.1054 97.9544 33.1532 97.7586 33.2507 97.5864L33.9369 96.3996L30.0566 94.1602L29.4116 95.3522C29.311 95.5208 29.1657 95.6583 28.9917 95.7494C28.8178 95.8405 28.622 95.8816 28.4261 95.8682C28.3177 95.8682 28.2042 95.8682 28.0958 95.8682C27.9875 95.8682 27.8739 95.8682 27.7656 95.8682C27.5698 95.881 27.3742 95.8396 27.2003 95.7486C27.0265 95.6576 26.881 95.5204 26.78 95.3522L26.0886 94.155L22.1876 96.3996L22.8791 97.5916C22.9767 97.7628 23.0245 97.9578 23.0173 98.1548C23.01 98.3517 22.9478 98.5427 22.8378 98.7062C22.7161 98.8929 22.6042 99.0858 22.5024 99.2841C22.4176 99.4621 22.2836 99.6121 22.1163 99.7163C21.949 99.8206 21.7553 99.8747 21.5581 99.8723H20.1855V104.356H21.5581C21.7553 104.354 21.949 104.408 22.1163 104.512C22.2836 104.617 22.4176 104.767 22.5024 104.945C22.6042 105.143 22.7161 105.336 22.8378 105.523C22.9478 105.686 23.01 105.877 23.0173 106.074C23.0245 106.271 22.9767 106.466 22.8791 106.637L22.1876 107.814L26.0679 110.053L26.7594 108.861C26.8595 108.692 27.0048 108.554 27.1789 108.463C27.3529 108.372 27.549 108.331 27.7449 108.345H28.0752H28.4054C28.6014 108.331 28.7974 108.372 28.9715 108.463C29.1456 108.554 29.2908 108.692 29.391 108.861L30.0773 110.068ZM28.0752 105.786C27.3472 105.787 26.6354 105.571 26.03 105.167C25.4246 104.763 24.9529 104.188 24.6748 103.515C24.3968 102.843 24.3248 102.102 24.4681 101.389C24.6113 100.675 24.9634 100.02 25.4796 99.5066C25.9958 98.9933 26.6528 98.6449 27.3673 98.5057C28.0818 98.3664 28.8216 98.4426 29.4928 98.7245C30.1639 99.0063 30.7362 99.4812 31.137 100.089C31.5378 100.697 31.7491 101.41 31.7439 102.138C31.7385 103.107 31.3496 104.035 30.6621 104.718C29.9747 105.402 29.0446 105.786 28.0752 105.786Z" fill="#EBEBEB"/>
<path d="M147.106 44.8612L144.867 40.9809L143.68 41.6671C143.509 41.7655 143.314 41.8143 143.118 41.8079C142.921 41.8015 142.729 41.7402 142.565 41.631C142.378 41.5082 142.183 41.3962 141.982 41.2956C141.802 41.2078 141.649 41.0706 141.543 40.8998C141.438 40.729 141.382 40.5317 141.384 40.3307V38.9581H136.905V40.3307C136.907 40.5284 136.852 40.7225 136.747 40.8899C136.642 41.0573 136.491 41.191 136.312 41.275C136.113 41.3767 135.92 41.4887 135.734 41.6104C135.57 41.7196 135.378 41.7808 135.181 41.7872C134.985 41.7936 134.79 41.7449 134.619 41.6465L133.432 40.9602L131.203 44.8612L132.395 45.5475C132.564 45.6489 132.702 45.7951 132.793 45.97C132.884 46.1448 132.925 46.3415 132.911 46.5382C132.911 46.6465 132.911 46.7549 132.911 46.8684C132.911 46.9819 132.911 47.0903 132.911 47.1987C132.927 47.3942 132.887 47.5903 132.796 47.764C132.704 47.9376 132.565 48.0816 132.395 48.1791L131.203 48.8705L133.443 52.7508L134.629 52.0645C134.802 51.967 134.997 51.9193 135.195 51.9266C135.393 51.9338 135.585 51.9959 135.749 52.1058C135.935 52.2245 136.126 52.338 136.327 52.4412C136.503 52.5289 136.651 52.6636 136.755 52.8302C136.858 52.9969 136.914 53.1891 136.915 53.3855V54.7581H141.384V53.3855C141.385 53.1891 141.441 52.9969 141.545 52.8302C141.648 52.6636 141.796 52.5289 141.972 52.4412C142.173 52.338 142.364 52.2245 142.55 52.1058C142.713 51.9958 142.904 51.9336 143.101 51.9263C143.298 51.919 143.493 51.9669 143.665 52.0645L144.856 52.7508L147.096 48.8705L145.904 48.1842C145.735 48.0836 145.598 47.9383 145.507 47.7643C145.416 47.5904 145.375 47.3946 145.388 47.1987C145.388 47.0903 145.388 46.9768 145.388 46.8684C145.388 46.7601 145.388 46.6465 145.388 46.5382C145.374 46.3415 145.415 46.1448 145.506 45.97C145.597 45.7951 145.735 45.6489 145.904 45.5475L147.106 44.8612ZM142.823 46.8684C142.822 47.5938 142.606 48.3026 142.203 48.9053C141.799 49.5079 141.226 49.9773 140.555 50.2542C139.885 50.5311 139.147 50.603 138.436 50.4609C137.724 50.3187 137.071 49.9689 136.559 49.4556C136.046 48.9423 135.697 48.2886 135.556 47.5771C135.415 46.8656 135.488 46.1282 135.766 45.4581C136.044 44.788 136.514 44.2153 137.117 43.8124C137.72 43.4095 138.429 43.1945 139.155 43.1945C140.125 43.1945 141.056 43.5789 141.743 44.2636C142.431 44.9482 142.819 45.8774 142.823 46.8478V46.8684Z" fill="#EBEBEB"/>
<path d="M232.717 169.481L225.828 169.625L222.433 169.682C221.303 169.708 220.183 169.682 219.053 169.713L219.285 169.481L219.311 175.255L219.053 174.997L225.885 175.028C228.165 175.028 230.441 175.089 232.717 175.115L232.577 175.255C232.577 174.31 232.624 173.361 232.644 172.396L232.717 169.481ZM232.717 169.481L232.794 172.339C232.794 173.299 232.851 174.274 232.861 175.255V175.409H232.717C230.441 175.409 228.165 175.492 225.885 175.497L219.053 175.528H218.795V175.27L218.826 169.496V169.264H219.053C220.209 169.264 221.359 169.264 222.51 169.29L225.947 169.346L232.717 169.481Z" fill="#EBEBEB"/>
<path d="M163.679 123.082H150.016V128.856H163.679V123.082Z" fill="#EBEBEB"/>
<path d="M156.058 115.801L149.17 115.94L145.775 116.002C144.644 116.002 143.52 116.002 142.395 116.002L142.627 115.775V121.544L142.369 121.291L149.201 121.322C151.481 121.322 153.757 121.379 156.033 121.405L155.893 121.544C155.893 120.6 155.94 119.65 155.96 118.691L156.058 115.801ZM156.058 115.801L156.131 118.655C156.156 119.619 156.193 120.595 156.203 121.57V121.709H156.058C153.783 121.735 151.507 121.792 149.227 121.792L142.395 121.823H142.137V121.56L142.168 115.791V115.553H142.415C143.566 115.553 144.722 115.553 145.873 115.579L149.309 115.641L156.058 115.801Z" fill="#EBEBEB"/>
<path d="M171.311 115.801L164.417 115.94L161.022 116.002C159.892 116.002 158.772 116.002 157.647 116.002L157.874 115.775L157.905 121.544L157.647 121.291L164.479 121.322C166.755 121.322 169.03 121.379 171.311 121.405L171.166 121.544C171.166 120.6 171.213 119.65 171.234 118.691L171.311 115.801ZM171.311 115.801L171.383 118.655C171.383 119.619 171.44 120.595 171.45 121.57V121.709H171.311C169.03 121.735 166.755 121.792 164.479 121.792L157.647 121.823H157.379V121.56L157.405 115.791V115.553H157.637C158.788 115.553 159.938 115.553 161.089 115.579L164.526 115.641L171.311 115.801Z" fill="#EBEBEB"/>
<path d="M32.8847 31.4144L39.7733 31.275L43.1686 31.2131C44.2986 31.2131 45.4235 31.2131 46.5484 31.2131L46.3162 31.4402L46.2904 25.6661L46.5484 25.9241L39.732 25.8674C37.4513 25.8674 35.1758 25.8106 32.9002 25.7848L33.0395 25.6403C33.0395 26.5898 32.9931 27.5392 32.9724 28.499L32.8847 31.4144ZM32.8847 31.4144L32.8073 28.5609C32.8073 27.596 32.7506 26.6207 32.7402 25.6403V25.501H32.8847C35.1603 25.501 37.4358 25.4184 39.7166 25.4184L46.5484 25.3823H46.8064V25.6403L46.7754 31.4144V31.6466H46.5484C45.3977 31.6466 44.2419 31.6466 43.0912 31.6156L39.6546 31.5588L32.8847 31.4144Z" fill="#EBEBEB"/>
<path d="M25.2582 38.7001H38.9219V32.926H25.2582V38.7001Z" fill="#EBEBEB"/>
<path d="M219.073 31.4451L225.967 31.3007L229.362 31.2439C230.492 31.2439 231.612 31.2439 232.737 31.2129L232.51 31.4451L232.484 25.6711L232.737 25.9291L225.905 25.8723C223.629 25.8723 221.354 25.8156 219.073 25.7898L219.217 25.6505C219.217 26.5947 219.171 27.5442 219.15 28.5039L219.073 31.4451ZM219.073 31.4451L219.001 28.5865C219.001 27.6216 218.944 26.6463 218.934 25.6711V25.5111H219.073C221.354 25.4853 223.629 25.4286 225.905 25.4286L232.716 25.3925H232.979V25.6556L232.969 31.4451V31.6773H232.716C231.565 31.6773 230.415 31.6773 229.264 31.6773L225.827 31.6154L219.073 31.4451Z" fill="#EBEBEB"/>
<path d="M127.236 200.936H113.572V206.71H127.236V200.936Z" fill="#EBEBEB"/>
<path d="M38.9277 171.638L32.0339 171.798L28.6386 171.854C27.5086 171.88 26.3889 171.854 25.264 171.885L25.491 171.653L25.5168 177.427L25.264 177.169L32.0958 177.2C34.3714 177.2 36.647 177.262 38.9277 177.288L38.7832 177.427C38.7832 176.483 38.8296 175.533 38.8503 174.568L38.9277 171.638ZM38.9277 171.638L38.9999 174.496C38.9999 175.456 39.0567 176.431 39.067 177.412V177.551H38.9277C36.647 177.577 34.3714 177.634 32.0958 177.639L25.2846 177.67H25.0215V177.412V171.638V171.405H25.2846C26.4353 171.405 27.586 171.405 28.7367 171.436L32.1732 171.493L38.9277 171.638Z" fill="#EBEBEB"/>
<path d="M119.613 193.655L112.719 193.799L109.324 193.856C108.199 193.882 107.074 193.856 105.949 193.887L106.176 193.655L106.207 199.429L105.949 199.171L112.781 199.207C115.057 199.207 117.338 199.264 119.613 199.29L119.474 199.429C119.474 198.485 119.515 197.535 119.541 196.575L119.613 193.655ZM119.613 193.655L119.685 196.513C119.711 197.478 119.742 198.448 119.752 199.429V199.568H119.613C117.338 199.594 115.057 199.646 112.781 199.651L105.949 199.682H105.691V199.424V193.65V193.417H105.924C107.074 193.417 108.23 193.417 109.376 193.443L112.812 193.5L119.613 193.655Z" fill="#EBEBEB"/>
<path d="M169.795 143.67V221.586H216.901V143.67H169.795ZM212.623 192.84H174.073V172.551H212.623V192.84ZM212.623 167.721H174.073V147.437H212.623V167.721Z" fill="#DBDBDB"/>
<path d="M238.207 143.675H216.906V221.597H238.207V143.675Z" fill="#EBEBEB"/>
<path d="M183.231 147.437H174.072V167.721H183.231V147.437Z" fill="#EBEBEB"/>
<path d="M212.757 216.834H174.186V197.226H212.757V216.834ZM174.444 216.576H212.499V197.484H174.444V216.576Z" fill="#EBEBEB"/>
<path d="M197.277 202.804H189.666V205.585H197.277V202.804Z" fill="#EBEBEB"/>
<path d="M183.231 172.556H174.072V192.84H183.231V172.556Z" fill="#EBEBEB"/>
<path d="M207.35 192.835V174.135H200.905V192.835H207.35Z" fill="#A6A6A6"/>
<path d="M207.354 189.837V185.801H200.909V189.837H207.354Z" fill="#DBDBDB"/>
<path d="M207.35 182.551V180.157H200.905V182.551H207.35Z" fill="#DBDBDB"/>
<path d="M201.607 152.07H185.316V167.721H201.607V152.07Z" fill="#EBEBEB"/>
<path d="M207.794 152.07H201.602V167.721H207.794V152.07Z" fill="#C7C7C7"/>
<path d="M185.316 159.898H201.601L188.882 160.301L185.316 159.898Z" fill="#C7C7C7"/>
<path d="M201.601 165.832H185.316L198.036 166.235L201.601 165.832Z" fill="#C7C7C7"/>
<path d="M185.316 155.523H195.631L186.462 155.853L185.316 155.523Z" fill="#C7C7C7"/>
<path d="M201.6 163.526H191.285L200.454 163.856L201.6 163.526Z" fill="#C7C7C7"/>
<path d="M189.223 153.779H200.858L198.918 153.975L189.223 153.779Z" fill="#C7C7C7"/>
<path d="M186.9 161.575H198.536L196.596 161.771L186.9 161.575Z" fill="#C7C7C7"/>
<path d="M194.053 157.014H201.602L202.954 157.54L194.053 157.014Z" fill="#EBEBEB"/>
<path d="M183.236 157.014H190.785L192.132 157.54L183.236 157.014Z" fill="#EBEBEB"/>
<path d="M192.921 164.047H185.372L184.025 164.573L192.921 164.047Z" fill="#EBEBEB"/>
<path d="M201.602 162.261H207.665L209.011 162.788L201.602 162.261Z" fill="#C7C7C7"/>
<path d="M203.717 159.898H208.418L207.793 159.465L203.717 159.898Z" fill="#C7C7C7"/>
<path d="M212.627 172.886H207.354V192.834H212.627V172.886Z" fill="#EBEBEB"/>
<path d="M210.012 176.823C209.795 176.824 209.582 176.76 209.4 176.64C209.219 176.52 209.077 176.349 208.993 176.148C208.909 175.947 208.887 175.726 208.929 175.513C208.971 175.299 209.075 175.103 209.228 174.948C209.382 174.794 209.578 174.689 209.791 174.646C210.004 174.603 210.226 174.625 210.427 174.708C210.628 174.791 210.8 174.932 210.921 175.113C211.042 175.294 211.106 175.506 211.106 175.724C211.106 176.014 210.991 176.293 210.786 176.499C210.581 176.705 210.303 176.822 210.012 176.823Z" fill="white"/>
<path d="M210.012 176.353C209.887 176.355 209.765 176.318 209.66 176.25C209.556 176.181 209.475 176.083 209.426 175.968C209.378 175.854 209.365 175.727 209.388 175.604C209.412 175.482 209.472 175.369 209.56 175.281C209.647 175.192 209.759 175.132 209.882 175.107C210.004 175.082 210.131 175.094 210.246 175.142C210.362 175.189 210.46 175.27 210.53 175.374C210.599 175.477 210.636 175.599 210.636 175.724C210.636 175.89 210.57 176.049 210.453 176.167C210.336 176.285 210.178 176.352 210.012 176.353Z" fill="#A6A6A6"/>
<path d="M212.627 189.698V184.842H207.353V189.698H212.627Z" fill="white"/>
<path d="M200.904 188.717H180.955V192.866H200.904V188.717Z" fill="#C7C7C7"/>
<path d="M196.973 190.791C196.973 190.574 197.037 190.361 197.158 190.181C197.279 190 197.45 189.859 197.651 189.776C197.852 189.693 198.073 189.671 198.286 189.713C198.499 189.756 198.695 189.86 198.849 190.014C199.003 190.168 199.107 190.364 199.15 190.577C199.192 190.79 199.17 191.011 199.087 191.212C199.004 191.413 198.863 191.584 198.682 191.705C198.502 191.826 198.289 191.89 198.072 191.89C197.927 191.891 197.784 191.863 197.65 191.808C197.517 191.753 197.395 191.672 197.293 191.57C197.191 191.468 197.11 191.346 197.055 191.213C197 191.079 196.972 190.936 196.973 190.791Z" fill="white"/>
<path d="M197.441 190.791C197.441 190.667 197.478 190.545 197.548 190.442C197.617 190.338 197.715 190.257 197.83 190.21C197.945 190.162 198.072 190.15 198.194 190.174C198.316 190.198 198.428 190.258 198.516 190.346C198.604 190.434 198.664 190.546 198.688 190.668C198.713 190.791 198.7 190.917 198.653 191.032C198.605 191.147 198.524 191.246 198.421 191.315C198.317 191.384 198.195 191.421 198.071 191.421C197.988 191.421 197.906 191.406 197.829 191.374C197.753 191.343 197.683 191.297 197.624 191.238C197.566 191.179 197.519 191.11 197.488 191.033C197.457 190.956 197.441 190.874 197.441 190.791Z" fill="#A6A6A6"/>
<path d="M184.098 192.871H188.953V188.722H184.098V192.871Z" fill="white"/>
<path d="M232.754 114.101C237.164 101.423 230.619 87.6261 218.135 83.2837C205.652 78.9413 191.957 85.6982 187.547 98.3757C183.137 111.053 189.682 124.85 202.166 129.193C214.65 133.535 228.345 126.778 232.754 114.101Z" fill="#EBEBEB"/>
<path d="M227.771 112.356C231.211 102.467 226.105 91.7045 216.367 88.3171C206.628 84.9297 195.946 90.2003 192.506 100.089C189.066 109.978 194.172 120.741 203.91 124.128C213.648 127.516 224.331 122.245 227.771 112.356Z" fill="white"/>
<path d="M223.634 106.018C223.669 109.628 222.281 113.107 219.77 115.702C217.259 118.297 213.828 119.799 210.218 119.883C208.443 119.903 206.682 119.571 205.036 118.906C203.391 118.241 201.893 117.256 200.631 116.008C199.369 114.761 198.367 113.275 197.683 111.637C196.999 109.999 196.647 108.242 196.647 106.467C196.612 102.856 198 99.3772 200.511 96.7824C203.022 94.1876 206.453 92.6858 210.063 92.6018C211.838 92.5814 213.599 92.9133 215.245 93.5783C216.89 94.2433 218.388 95.2283 219.65 96.4761C220.912 97.724 221.914 99.2099 222.598 100.848C223.282 102.486 223.634 104.243 223.634 106.018Z" fill="#EBEBEB"/>
<path d="M218.36 106.1C218.377 108.293 217.531 110.405 216.005 111.981C214.479 113.556 212.394 114.469 210.202 114.521C209.121 114.534 208.049 114.331 207.047 113.926C206.045 113.52 205.134 112.92 204.366 112.16C203.598 111.399 202.988 110.494 202.573 109.497C202.157 108.499 201.944 107.429 201.946 106.348C201.925 104.152 202.769 102.036 204.295 100.457C205.822 98.8786 207.908 97.964 210.104 97.9112C211.186 97.8982 212.26 98.1007 213.263 98.5067C214.266 98.9128 215.178 99.5145 215.947 100.277C216.715 101.039 217.324 101.946 217.738 102.946C218.153 103.946 218.364 105.018 218.36 106.1Z" fill="white"/>
<path d="M213.805 106.177C213.816 107.152 213.444 108.092 212.768 108.795C212.092 109.498 211.168 109.907 210.193 109.934C209.711 109.943 209.232 109.855 208.784 109.676C208.336 109.497 207.929 109.23 207.586 108.891C207.243 108.552 206.972 108.148 206.788 107.702C206.603 107.256 206.51 106.778 206.514 106.296C206.503 105.321 206.875 104.381 207.551 103.678C208.227 102.976 209.151 102.567 210.126 102.54C210.608 102.531 211.087 102.618 211.535 102.797C211.983 102.977 212.39 103.243 212.733 103.583C213.076 103.922 213.347 104.326 213.531 104.771C213.715 105.217 213.809 105.695 213.805 106.177Z" fill="#EBEBEB"/>
<path d="M175.006 87.5806L174.814 87.9464L209.957 106.318L210.148 105.952L175.006 87.5806Z" fill="#C7C7C7"/>
<path d="M173.335 88.5873L173.422 88.5512L175.032 88.0558L171.859 86.3943L170.141 86.9154L173.335 88.5873Z" fill="#C7C7C7"/>
<path d="M171.477 84.3611L172.049 86.0329L175.223 87.6893C174.971 87.1576 174.782 86.5982 174.66 86.0226L171.477 84.3611Z" fill="#C7C7C7"/>
<path d="M210.919 105.827L210.254 107.019L208.494 106.869L209.65 105.92L209.769 104.434L210.919 105.827Z" fill="#C7C7C7"/>
<path d="M92.5694 154.434C92.7487 155.389 92.6817 156.373 92.3747 157.295C92.0678 158.217 91.531 159.045 90.815 159.702L84.8191 160.822C83.8894 160.456 83.0713 159.855 82.4455 159.076C81.8197 158.298 81.4079 157.369 81.251 156.383C81.094 155.397 81.1973 154.386 81.5506 153.452C81.9038 152.518 82.4949 151.692 83.2652 151.056C84.0356 150.42 84.9586 149.996 85.9429 149.827C86.9272 149.657 87.9388 149.747 88.8775 150.089C89.8163 150.43 90.6497 151.01 91.2954 151.772C91.9411 152.534 92.3767 153.452 92.5591 154.434H92.5694Z" fill="#EBEBEB"/>
<path d="M93.8007 159.148L81.834 161.377L82.1552 163.102L94.1219 160.873L93.8007 159.148Z" fill="#EBEBEB"/>
<path d="M104.353 181.764L80.1152 186.278L80.4365 188.003L104.674 183.489L104.353 181.764Z" fill="#DBDBDB"/>
<path d="M105.255 186.6L81.0176 191.114L81.3388 192.838L105.577 188.324L105.255 186.6Z" fill="#DBDBDB"/>
<path d="M103.772 183.658L81.3398 187.836L81.919 190.945L104.351 186.768L103.772 183.658Z" fill="#EBEBEB"/>
<path d="M93.0217 161.083L83.2617 162.9L83.5829 164.625L93.343 162.807L93.0217 161.083Z" fill="#DBDBDB"/>
<path d="M102.168 182.169L82.3379 185.864C82.3379 185.864 86.017 180.497 85.9499 174.904C85.888 170.193 85.1965 164.326 85.1965 164.326L91.7394 163.108C91.7394 163.108 93.2048 168.83 94.8354 173.247C96.791 178.505 102.168 182.169 102.168 182.169Z" fill="#EBEBEB"/>
<path d="M69.494 244.331C95.7178 244.331 116.976 242.148 116.976 239.455C116.976 236.762 95.7178 234.579 69.494 234.579C43.2703 234.579 22.0117 236.762 22.0117 239.455C22.0117 242.148 43.2703 244.331 69.494 244.331Z" fill="#EBEBEB"/>
<path d="M19.7988 221.596L47.1004 221.467L74.3968 221.426L129 221.338L183.603 221.426L210.905 221.467L238.201 221.596L210.905 221.72L183.603 221.766L129 221.854L74.3968 221.766L47.1004 221.72L19.7988 221.596Z" fill="#263238"/>
<path d="M35.4604 58.7518C35.4253 54.7831 36.0603 50.8371 37.3386 47.0798C39.3085 41.4141 42.705 36.3515 47.2006 32.3802C51.6961 28.4089 57.139 25.6628 63.0044 24.4068C64.9547 24.011 66.9342 23.7763 68.923 23.705C69.439 23.705 69.9188 23.6741 70.4142 23.6741L71.9054 23.7308C72.9013 23.7308 73.892 23.8856 74.8776 23.994C78.8433 24.4896 82.6881 25.692 86.2296 27.5441C89.7608 29.3606 92.9533 31.7711 95.6672 34.67C98.3651 37.5842 100.562 40.9249 102.169 44.5566C98.8207 37.3434 93.1403 31.4685 86.0438 27.8795C84.2855 26.9997 82.46 26.2612 80.5846 25.671C79.6403 25.413 78.696 25.155 77.7362 24.9331L76.2914 24.6648L75.5639 24.5255L74.8208 24.4429C73.8471 24.3107 72.8671 24.2297 71.8848 24.2004L70.4142 24.1488C69.8982 24.1488 69.4338 24.1488 68.9436 24.1798C66.9817 24.2661 65.03 24.5111 63.1076 24.9125C59.2607 25.7299 55.5796 27.1919 52.22 29.2366C48.8673 31.3118 45.8806 33.9271 43.381 36.9766C38.3555 43.1311 35.5635 50.8068 35.4604 58.7518Z" fill="#263238"/>
<path d="M40.8789 33.1324C42.5132 31.0028 44.4001 29.0795 46.4981 27.4048C50.7078 24.0218 55.659 21.6842 60.9461 20.5833C61.6066 20.4698 62.2671 20.3305 62.9276 20.2376C63.5881 20.1447 64.2589 20.057 64.9245 19.9951L66.9318 19.8867H68.939L66.9421 20.0106L64.9555 20.2324C64.295 20.3202 63.6397 20.4388 62.9843 20.542C62.329 20.6452 61.684 20.8207 61.0339 20.9548C55.8566 22.1966 50.9909 24.4924 46.7407 27.699C44.6145 29.3149 42.6512 31.1347 40.8789 33.1324Z" fill="#263238"/>
<path d="M193.934 95.0472C201.791 93.7986 208.991 89.92 214.357 84.0461C217.002 81.1296 219.146 77.796 220.704 74.1802C222.242 70.5595 223.153 66.7031 223.397 62.7766C223.518 60.8176 223.478 58.8519 223.279 56.8994C223.217 56.4143 223.165 55.9241 223.098 55.4391L222.83 53.9891C222.657 53.0238 222.434 52.068 222.164 51.1253C222.097 50.888 222.04 50.6506 221.973 50.4132L221.736 49.7166L221.256 48.3234C220.91 47.405 220.508 46.5071 220.11 45.6093C219.253 43.8427 218.257 42.1467 217.133 40.537C212.553 34.0357 205.917 29.2676 198.294 27.0023C202.119 28.0586 205.743 29.743 209.016 31.9869C212.288 34.253 215.144 37.0669 217.458 40.3048C219.803 43.532 221.55 47.153 222.618 50.9963C222.897 51.9525 223.128 52.9221 223.309 53.9014L223.583 55.3668C223.655 55.8828 223.707 56.3524 223.774 56.8478C223.985 58.8288 224.033 60.8238 223.918 62.8127C223.425 70.8255 220.167 78.4189 214.7 84.2974C209.232 90.1759 201.895 93.9753 193.939 95.0472H193.934Z" fill="#263238"/>
<path d="M227.918 59.2522C227.84 56.5874 227.503 53.9364 226.912 51.3368C225.717 46.1487 223.463 41.2633 220.291 36.9868C219.879 36.4708 219.492 35.9239 219.063 35.4388C218.635 34.9538 218.202 34.4068 217.753 33.9373L216.375 32.477L214.92 31.0941L216.468 32.3738L217.933 33.7464C218.408 34.2211 218.852 34.7216 219.311 35.2118C219.77 35.702 220.173 36.2438 220.606 36.7598C222.265 38.8776 223.676 41.1785 224.812 43.6174C225.927 46.0662 226.761 48.6333 227.299 51.2697C227.828 53.8957 228.036 56.5761 227.918 59.2522Z" fill="#263238"/>
<path d="M169.507 102.498C167.137 111.6 161.699 119.605 154.113 125.165C146.526 130.724 137.254 133.496 127.861 133.014C125.53 132.879 123.214 132.551 120.936 132.034C120.369 131.895 119.801 131.766 119.239 131.616L117.567 131.1C116.452 130.759 115.355 130.361 114.28 129.908C114.012 129.8 113.738 129.696 113.47 129.583L112.68 129.201L111.106 128.453C110.59 128.205 110.074 127.88 109.558 127.602C109.042 127.323 108.526 127.024 108.047 126.714C106.081 125.459 104.226 124.036 102.505 122.462L101.225 121.281L100.028 120.006C99.1972 119.18 98.48 118.246 97.7576 117.349C97.3757 116.91 97.061 116.42 96.7256 115.945L95.74 114.521L94.837 113.03C94.5377 112.514 94.223 112.039 93.9753 111.513C91.8012 107.396 90.3227 102.948 89.5996 98.3495C91.1912 107.549 95.8399 115.943 102.794 122.173C104.517 123.709 106.362 125.103 108.31 126.342C108.795 126.647 109.306 126.92 109.801 127.215C110.296 127.509 110.792 127.808 111.318 128.05L112.866 128.793L113.645 129.17C113.908 129.284 114.161 129.382 114.45 129.485C115.512 129.934 116.597 130.325 117.701 130.656L119.357 131.172C119.915 131.317 120.477 131.441 121.034 131.58C123.286 132.08 125.574 132.396 127.876 132.524C132.492 132.771 137.116 132.23 141.55 130.925C148.23 128.946 154.298 125.304 159.186 120.34C164.073 115.377 167.621 109.254 169.497 102.545L169.507 102.498Z" fill="#263238"/>
<path d="M155.58 129.893C153.075 131.797 150.35 133.393 147.464 134.645C141.664 137.184 135.349 138.327 129.027 137.984C128.243 137.917 127.479 137.875 126.674 137.783C125.869 137.69 125.126 137.587 124.342 137.452C123.558 137.318 122.794 137.148 122.035 136.978L119.76 136.364L122.061 136.843C122.83 136.972 123.609 137.081 124.378 137.205C125.147 137.329 125.926 137.375 126.705 137.458C127.484 137.54 128.253 137.54 129.043 137.587C132.155 137.686 135.268 137.453 138.331 136.89C141.4 136.341 144.403 135.467 147.288 134.284C150.191 133.098 152.969 131.627 155.58 129.893Z" fill="#263238"/>
<path d="M158.447 92.8808C158.13 95.7854 157.379 98.6259 156.218 101.307L161.45 105.064L158.741 109.749L152.889 107.102C151.16 109.458 149.091 111.545 146.749 113.294L149.401 119.166L144.716 121.864L140.97 116.658C138.296 117.834 135.461 118.602 132.559 118.934L131.919 125.358H126.511L125.872 118.97C122.969 118.652 120.131 117.902 117.45 116.746L113.694 121.973L109.009 119.269L111.645 113.412C109.291 111.682 107.205 109.615 105.453 107.277L99.5865 109.878L96.893 105.234L102.11 101.488C100.931 98.8146 100.162 95.9791 99.8291 93.0768L93.3945 92.4164V87.0087L99.7878 86.374C100.105 83.4678 100.856 80.6257 102.017 77.9426L96.7847 74.1861L99.4937 69.506L105.345 72.1479C107.073 69.7902 109.142 67.7033 111.485 65.9559L108.875 60.0993L113.56 57.3903L117.301 62.6019C119.972 61.4335 122.804 60.6717 125.701 60.3418L126.336 53.9382H131.744L132.383 60.3263C135.287 60.6391 138.126 61.3889 140.805 62.5503L144.566 57.3232L149.246 60.0322L146.61 65.8836C148.964 67.6154 151.05 69.6844 152.802 72.024L158.674 69.3718L161.378 74.0622L156.161 77.8032C157.328 80.4692 158.086 83.296 158.411 86.1882L164.83 86.8332V92.2461L158.447 92.8808Z" fill="#34A1D3"/>
<path d="M93.6481 65.5019C93.0586 68.5972 91.8588 71.544 90.1186 74.1707L93.937 78.8818L87.9721 84.5578L83.7357 80.7343C81.0492 82.5795 78.0156 83.8593 74.8192 84.4959L74.2258 90.1409L66.0472 89.9242L65.7479 84.5939C62.4341 83.9993 59.2852 82.7046 56.5115 80.7962L52.3268 84.1863L46.6508 78.2317L50.1235 74.3875C48.2173 71.5771 46.9363 68.3905 46.367 65.0427L41.0625 64.4699L41.2792 56.2552L46.5631 55.9869C47.2456 52.7186 48.6101 49.631 50.5672 46.9259L47.0275 42.5606L52.9873 36.8846L57.1669 40.6565C59.8871 38.9251 62.9284 37.7598 66.1091 37.2303L66.7335 31.2705L74.9431 31.4872L75.2475 37.4728C78.3053 38.1579 81.1972 39.4416 83.7563 41.2499L88.6377 37.2871L94.2879 43.252L90.1599 47.8341C91.8593 50.4165 93.0405 53.3046 93.6377 56.3378L99.9071 56.9931L99.6904 65.2027L93.6481 65.5019Z" fill="#455A64"/>
<path d="M73.3689 68.9024L67.2801 68.8456V68.7424C67.0956 67.7749 66.8561 66.8188 66.5628 65.8786C66.2669 65.3554 65.8664 64.8987 65.3863 64.537C64.347 63.6929 63.4907 62.6458 62.8697 61.4596C62.2486 60.2734 61.8759 58.9731 61.7743 57.6381C61.6915 56.3919 61.8609 55.1419 62.2723 53.9627C62.6837 52.7836 63.3286 51.6995 64.1686 50.7753C64.9863 49.9027 65.9762 49.2093 67.0756 48.7387C68.1749 48.2681 69.36 48.0307 70.5558 48.0414C71.7516 48.052 72.9322 48.3106 74.023 48.8007C75.1138 49.2908 76.0911 50.0018 76.8931 50.8888C77.7178 51.8281 78.3445 52.9242 78.7355 54.1114C79.1265 55.2986 79.2738 56.5525 79.1687 57.798C79.0388 59.1332 78.6378 60.4278 77.9901 61.6025C77.3424 62.7773 76.4617 63.8074 75.4019 64.6299C74.9145 64.9812 74.5066 65.4313 74.2048 65.9508C73.8929 66.8848 73.6345 67.8358 73.4308 68.7992L73.3689 68.9024ZM67.4916 68.5979L73.1676 68.6495C73.3648 67.7059 73.6198 66.7754 73.9313 65.8631C74.243 65.3027 74.6747 64.8181 75.1955 64.4441C76.5423 63.2625 78.3844 61.6422 78.8746 57.7774C78.9768 56.5678 78.8334 55.35 78.453 54.1973C78.0726 53.0445 77.463 51.9806 76.6609 51.0694C75.8832 50.2095 74.9355 49.5202 73.8778 49.0451C72.8201 48.5701 71.6754 48.3195 70.5159 48.3094C69.3565 48.2992 68.2075 48.5296 67.1417 48.986C66.0758 49.4424 65.1162 50.1149 64.3234 50.961C63.5063 51.8573 62.8785 52.9092 62.4777 54.0539C62.077 55.1986 61.9114 56.4124 61.9911 57.6226C62.409 61.4926 64.2202 63.149 65.5463 64.3564C66.0584 64.7411 66.4809 65.2322 66.7847 65.796C67.0781 66.7145 67.3142 67.6502 67.4916 68.5979Z" fill="white"/>
<path d="M67.508 59.3387L67.127 59.4061L68.7858 68.7755L69.1668 68.708L67.508 59.3387Z" fill="white"/>
<path d="M73.5037 59.3944L71.6719 68.7314L72.0516 68.806L73.8835 59.4689L73.5037 59.3944Z" fill="white"/>
<path d="M70.4746 62.5348C69.9225 62.5348 69.4426 62.0188 69.1175 61.4099C69.0556 61.488 68.9774 61.5516 68.8882 61.5962C68.799 61.6408 68.7012 61.6652 68.6015 61.6679C67.7037 61.6679 67.3631 59.8258 67.3477 59.7484L67.5386 59.7174C67.6263 60.2024 67.9875 61.4718 68.6015 61.477C68.6831 61.4667 68.7616 61.4394 68.8318 61.3967C68.9021 61.354 68.9625 61.297 69.0092 61.2293C68.7552 60.7108 68.6128 60.1447 68.5912 59.5678C68.5912 59.0518 68.7976 58.7525 69.1433 58.7525C69.2476 58.7486 69.3509 58.7735 69.4419 58.8244C69.533 58.8754 69.6082 58.9505 69.6593 59.0414C69.9328 59.5265 69.7161 60.4759 69.3601 61.0745C69.3259 61.1381 69.2862 61.1985 69.2414 61.2551C69.5561 61.8588 69.9947 62.3387 70.4695 62.3438C70.9029 62.3438 71.2847 61.9568 71.5634 61.4357C71.2117 60.9841 71.0291 60.4236 71.0474 59.8516C71.0474 59.1859 71.3105 58.7731 71.7182 58.7783C72.0484 58.7783 72.2342 59.1085 72.2342 59.6761C72.2079 60.2746 72.0586 60.8613 71.7956 61.3996C71.9455 61.5476 72.1474 61.6309 72.358 61.6318C72.874 61.6318 73.3591 60.3676 73.5035 59.8774L73.6893 59.929C73.6325 60.125 73.1165 61.833 72.3529 61.8278C72.1127 61.8201 71.8828 61.7289 71.7027 61.5698C71.6019 61.8251 71.4351 62.049 71.2193 62.2185C71.0035 62.3881 70.7465 62.4972 70.4746 62.5348ZM71.7182 58.9692C71.3673 58.9692 71.2435 59.4439 71.2383 59.8516C71.2312 60.3502 71.3791 60.8388 71.6614 61.2499C71.8914 60.7557 72.0211 60.2208 72.0433 59.6761C72.0433 59.4646 72.0175 58.9692 71.7182 58.9692ZM69.1382 58.9692C68.8441 58.9692 68.7821 59.3098 68.777 59.5987C68.7969 60.1126 68.9179 60.6176 69.133 61.0848L69.1795 61.0022C69.5045 60.4862 69.6955 59.5678 69.4736 59.1653C69.4417 59.1044 69.3933 59.0538 69.334 59.0191C69.2747 58.9844 69.2068 58.9671 69.1382 58.9692Z" fill="white"/>
<path d="M74.0703 70.0739L66.5625 70.0068V68.3298L74.0755 68.3969L74.0703 70.0739ZM66.8205 69.7488L73.8123 69.8159V68.6549L66.8308 68.5982L66.8205 69.7488Z" fill="white"/>
<path d="M74.0548 71.7197L66.5625 71.6526V69.9756L74.0755 70.0427L74.0548 71.7197ZM66.805 71.3946L73.802 71.4617V70.3007L66.805 70.2387V71.3946Z" fill="white"/>
<path d="M74.0403 73.3659L66.5273 73.2988V71.6218L74.0403 71.6941V73.3659ZM66.7905 73.0408L73.7875 73.1079V71.9469L66.7905 71.885V73.0408Z" fill="white"/>
<path d="M140.866 80.3628L135.773 76.018L135.835 75.92C135.887 75.8426 137.094 74.0727 138.818 73.856C139.258 73.8073 139.703 73.8551 140.123 73.9959C140.543 74.1367 140.927 74.3671 141.248 74.6713C141.603 74.9433 141.895 75.289 142.103 75.6845C142.311 76.08 142.432 76.5159 142.456 76.9623C142.523 78.7219 141.016 80.2338 140.954 80.2957L140.866 80.3628ZM136.119 75.9716L140.851 80.0067C141.16 79.6662 142.254 78.371 142.198 76.9468C142.173 76.5373 142.061 76.1378 141.869 75.7754C141.677 75.413 141.409 75.0963 141.083 74.8467C140.789 74.5664 140.437 74.3538 140.052 74.2237C139.667 74.0936 139.258 74.0491 138.854 74.0934C137.481 74.274 136.408 75.6052 136.135 75.9716H136.119Z" fill="white"/>
<path d="M121.611 103.701L121.41 103.536L140.806 80.0684L136.085 76.0436L116.693 99.5061L116.492 99.341L136.054 75.6772L141.167 80.0374L141.09 80.1355L121.611 103.701Z" fill="white"/>
<path d="M140.748 81.3997L134.809 76.3377L135.748 75.2025L141.682 80.2696L140.748 81.3997ZM135.19 76.3016L140.732 81.0333L141.346 80.2954L135.799 75.5637L135.19 76.3016Z" fill="white"/>
<path d="M139.892 82.4318L133.953 77.3698L134.892 76.2346L140.831 81.2966L139.892 82.4318ZM134.314 77.3389L139.836 82.0654L140.45 81.3275L134.903 76.601L134.314 77.3389Z" fill="white"/>
<path d="M115.758 105.492L116.511 99.4185H116.614L117.548 99.2637L117.698 99.2379V100.208L118.678 100.074V101.044L119.628 100.884V101.854L120.567 101.689V102.664L121.362 102.525H121.506V103.748L115.758 105.492ZM116.743 99.661L116.062 105.125L117.234 104.764L121.253 103.51V102.778L120.464 102.917L120.314 102.943V101.968L119.37 102.133V101.163L118.42 101.323V100.352L117.471 100.512V99.5578L116.743 99.661Z" fill="white"/>
<path d="M115.852 105.316L116.161 102.876L118.184 104.599L115.852 105.316ZM116.368 103.381L116.166 104.955L117.668 104.491L116.368 103.381Z" fill="white"/>
<path d="M119.145 99.1295C120.373 97.4164 121.663 95.7497 122.963 94.0933C124.263 92.437 125.605 90.8167 126.926 89.1707C128.247 87.5246 129.624 85.9457 131.007 84.3564C132.39 82.7671 133.789 81.1882 135.239 79.6556C134.01 81.3739 132.72 83.0354 131.42 84.697C130.12 86.3585 128.778 87.9736 127.457 89.6144C126.136 91.2553 124.759 92.8446 123.371 94.4287C121.983 96.0128 120.594 97.597 119.145 99.1295Z" fill="white"/>
<path d="M121.379 100.987C122.612 99.269 123.902 97.6075 125.197 95.9459C126.492 94.2844 127.839 92.6693 129.16 91.0285C130.481 89.3876 131.859 87.7983 133.247 86.209C134.635 84.6198 136.023 83.0408 137.473 81.5134C136.245 83.2265 134.955 84.8932 133.655 86.5496C132.354 88.2059 131.013 89.8314 129.692 91.4671C128.371 93.1028 126.993 94.6972 125.61 96.2865C124.227 97.8758 122.808 99.4548 121.379 100.987Z" fill="white"/>
<path d="M210.681 65.5018C210.092 68.597 208.892 71.5439 207.152 74.1706L210.97 78.8816L205.005 84.5576L200.769 80.7341C198.086 82.5896 195.054 83.88 191.858 84.5267L191.264 90.1717L183.055 89.955L182.781 84.5938C179.467 83.9992 176.318 82.7044 173.545 80.796L169.36 84.1861L163.684 78.2315L167.157 74.3873C165.249 71.5778 163.968 68.3908 163.4 65.0425L158.096 64.4698L158.312 56.255L163.596 55.9867C164.279 52.7175 165.645 49.6296 167.606 46.9258L164.086 42.5707L170.046 36.8947L174.226 40.6667C176.946 38.9352 179.987 37.7699 183.168 37.2404L183.792 31.2806L192.002 31.4974L192.306 37.483C195.354 38.1692 198.237 39.4492 200.79 41.2498L205.666 37.2869L211.342 43.2518L207.214 47.8339C208.913 50.4163 210.094 53.3044 210.692 56.3376L216.961 56.9929L216.718 65.1818L210.681 65.5018Z" fill="#455A64"/>
<path d="M180.79 74.6815H179.531V50.3882H180.79V74.6815ZM179.789 74.4235H180.532V50.6462H179.789V74.4235Z" fill="white"/>
<path d="M197.771 62.6641H180.531V50.9354H197.771L191.894 56.7972L197.771 62.6641ZM180.789 62.4061H197.146L191.527 56.7972L197.146 51.1934H180.789V62.4061Z" fill="white"/>
<path d="M183.443 145.977H74.5566V152.855H183.443V145.977Z" fill="white"/>
<path d="M183.443 152.85L74.5666 153.036H74.3809V152.85V145.977V145.781H74.5769L128.999 145.843L183.443 145.956V152.85ZM183.443 152.85V145.977L128.999 146.111L74.5563 146.168L74.7472 145.977V152.85L74.5615 152.67L183.443 152.85Z" fill="#263238"/>
<path d="M146.337 147.19H75.8828V151.638H146.337V147.19Z" fill="#34A1D3"/>
<path opacity="0.1" d="M82.9675 147.19H79.3194L75.8828 151.638H79.5309L82.9675 147.19Z" fill="black"/>
<path opacity="0.1" d="M90.0098 147.19H86.3616L82.9199 151.638H86.568L90.0098 147.19Z" fill="black"/>
<path opacity="0.1" d="M97.0547 147.19H93.4066L89.9648 151.638H93.613L97.0547 147.19Z" fill="black"/>
<path opacity="0.1" d="M104.092 147.19H100.444L97.002 151.638H100.65L104.092 147.19Z" fill="black"/>
<path opacity="0.1" d="M111.135 147.19H107.487L104.045 151.638H107.693L111.135 147.19Z" fill="black"/>
<path opacity="0.1" d="M118.175 147.19H114.532L111.09 151.638H114.738L118.175 147.19Z" fill="black"/>
<path opacity="0.1" d="M125.217 147.19H121.569L118.127 151.638H121.775L125.217 147.19Z" fill="black"/>
<path opacity="0.1" d="M132.26 147.19H128.612L125.17 151.638H128.818L132.26 147.19Z" fill="black"/>
<path opacity="0.1" d="M139.3 147.19H135.651L132.215 151.638H135.863L139.3 147.19Z" fill="black"/>
<path opacity="0.1" d="M146.331 147.205V147.19H142.694L139.252 151.638H142.9L146.331 147.205Z" fill="black"/>
<path opacity="0.1" d="M146.331 151.637V151.591L146.295 151.637H146.331Z" fill="black"/>
<path d="M119.712 157.386H119.196V158.242C119.196 158.271 119.191 158.299 119.18 158.325C119.169 158.352 119.153 158.376 119.133 158.396C119.113 158.416 119.089 158.432 119.063 158.443C119.036 158.454 119.008 158.459 118.98 158.459C118.922 158.459 118.866 158.437 118.825 158.396C118.783 158.356 118.759 158.3 118.758 158.242V155.91C118.758 155.881 118.764 155.853 118.775 155.826C118.786 155.799 118.802 155.775 118.823 155.755C118.844 155.735 118.868 155.719 118.895 155.708C118.922 155.698 118.951 155.693 118.98 155.693H119.712C119.937 155.693 120.152 155.783 120.311 155.941C120.469 156.1 120.559 156.315 120.559 156.54C120.559 156.764 120.469 156.979 120.311 157.138C120.152 157.297 119.937 157.386 119.712 157.386ZM119.222 156.947H119.712C119.821 156.947 119.924 156.904 120.001 156.828C120.077 156.751 120.12 156.648 120.12 156.54C120.12 156.432 120.077 156.328 120.001 156.251C119.924 156.175 119.821 156.132 119.712 156.132H119.196L119.222 156.947Z" fill="black"/>
<path d="M122.9 158.129C122.909 158.156 122.913 158.185 122.912 158.214C122.91 158.243 122.902 158.272 122.889 158.298C122.876 158.324 122.858 158.347 122.836 158.365C122.814 158.384 122.788 158.399 122.76 158.407H122.678C122.623 158.409 122.57 158.395 122.523 158.366C122.47 158.33 122.426 158.282 122.394 158.227C122.332 158.076 122.304 157.914 122.312 157.752C122.314 157.692 122.298 157.632 122.265 157.582C122.235 157.535 122.194 157.496 122.146 157.468C122.079 157.423 122.004 157.392 121.925 157.375H121.46V158.232C121.46 158.261 121.454 158.289 121.443 158.316C121.432 158.343 121.416 158.367 121.395 158.387C121.374 158.407 121.35 158.423 121.323 158.434C121.296 158.444 121.267 158.449 121.238 158.449C121.21 158.449 121.182 158.443 121.155 158.432C121.129 158.421 121.105 158.405 121.085 158.385C121.065 158.365 121.049 158.341 121.038 158.315C121.027 158.288 121.022 158.26 121.022 158.232V155.9C121.021 155.871 121.026 155.842 121.037 155.816C121.047 155.789 121.063 155.765 121.083 155.745C121.104 155.724 121.128 155.708 121.155 155.698C121.181 155.687 121.21 155.682 121.238 155.683H121.945C122.057 155.683 122.167 155.705 122.27 155.748C122.373 155.791 122.467 155.853 122.545 155.932C122.624 156.012 122.686 156.106 122.728 156.209C122.771 156.312 122.792 156.423 122.791 156.534C122.792 156.658 122.764 156.78 122.71 156.892C122.657 157.004 122.579 157.102 122.482 157.179C122.535 157.221 122.581 157.269 122.621 157.324C122.705 157.451 122.75 157.6 122.75 157.752C122.744 157.829 122.744 157.907 122.75 157.984C122.785 157.993 122.818 158.011 122.844 158.037C122.87 158.062 122.889 158.094 122.9 158.129ZM122.348 156.545C122.348 156.491 122.338 156.437 122.318 156.387C122.298 156.337 122.268 156.291 122.23 156.253C122.192 156.215 122.147 156.184 122.097 156.163C122.047 156.142 121.994 156.132 121.94 156.132H121.455V156.947H121.94C122.047 156.947 122.15 156.905 122.226 156.829C122.303 156.754 122.346 156.652 122.348 156.545Z" fill="black"/>
<path d="M125.655 156.039C125.91 156.309 126.051 156.666 126.051 157.037C126.051 157.409 125.91 157.766 125.655 158.036C125.535 158.168 125.389 158.273 125.227 158.346C125.064 158.419 124.889 158.457 124.711 158.459C124.528 158.458 124.348 158.421 124.182 158.348C124.015 158.275 123.865 158.169 123.74 158.036C123.488 157.765 123.348 157.408 123.348 157.037C123.348 156.667 123.488 156.31 123.74 156.039C123.864 155.905 124.014 155.798 124.181 155.725C124.348 155.652 124.528 155.615 124.711 155.616C124.889 155.616 125.065 155.654 125.228 155.727C125.39 155.8 125.536 155.906 125.655 156.039ZM125.603 157.035C125.603 156.779 125.507 156.533 125.335 156.343C125.255 156.256 125.157 156.185 125.048 156.137C124.939 156.09 124.822 156.065 124.703 156.065C124.584 156.065 124.466 156.09 124.357 156.137C124.249 156.185 124.151 156.256 124.071 156.343C123.9 156.533 123.805 156.779 123.805 157.035C123.805 157.29 123.9 157.537 124.071 157.726C124.15 157.815 124.247 157.887 124.356 157.936C124.465 157.984 124.583 158.01 124.703 158.01C124.822 158.01 124.94 157.984 125.049 157.936C125.158 157.887 125.255 157.815 125.335 157.726C125.507 157.537 125.603 157.291 125.603 157.035Z" fill="black"/>
<path d="M126.59 157.035C126.598 156.656 126.754 156.295 127.025 156.029C127.296 155.764 127.661 155.616 128.04 155.616C128.369 155.614 128.691 155.721 128.953 155.92C128.997 155.96 129.025 156.014 129.033 156.072C129.041 156.131 129.027 156.191 128.994 156.24C128.956 156.286 128.902 156.316 128.843 156.323C128.783 156.331 128.723 156.316 128.674 156.281C128.496 156.136 128.27 156.059 128.04 156.065C127.775 156.064 127.52 156.166 127.328 156.348C127.236 156.438 127.163 156.545 127.114 156.664C127.064 156.782 127.038 156.909 127.038 157.037C127.038 157.166 127.064 157.293 127.114 157.411C127.163 157.529 127.236 157.636 127.328 157.726C127.522 157.906 127.775 158.007 128.04 158.01C128.27 158.01 128.493 157.934 128.674 157.793C128.724 157.761 128.783 157.747 128.842 157.755C128.901 157.762 128.955 157.791 128.994 157.835C129.028 157.883 129.042 157.942 129.034 158C129.027 158.058 128.998 158.111 128.953 158.149C128.692 158.353 128.37 158.462 128.04 158.459C127.659 158.46 127.294 158.312 127.022 158.045C126.751 157.778 126.595 157.415 126.59 157.035Z" fill="black"/>
<path d="M129.758 158.242V155.91C129.757 155.881 129.762 155.853 129.773 155.826C129.784 155.8 129.8 155.776 129.82 155.755C129.84 155.735 129.864 155.719 129.891 155.708C129.917 155.698 129.946 155.693 129.975 155.693H131.265C131.322 155.693 131.377 155.716 131.418 155.757C131.458 155.798 131.481 155.853 131.481 155.91C131.482 155.939 131.477 155.968 131.466 155.995C131.456 156.022 131.44 156.046 131.42 156.067C131.4 156.087 131.375 156.104 131.349 156.115C131.322 156.126 131.293 156.132 131.265 156.132H130.196V156.834H131.115C131.172 156.835 131.226 156.858 131.267 156.899C131.307 156.939 131.33 156.993 131.332 157.051C131.332 157.079 131.327 157.108 131.317 157.135C131.306 157.162 131.29 157.186 131.27 157.207C131.25 157.228 131.226 157.244 131.199 157.255C131.172 157.267 131.144 157.272 131.115 157.272H130.196V158H131.265C131.317 158.008 131.365 158.035 131.399 158.075C131.434 158.115 131.453 158.166 131.453 158.219C131.453 158.272 131.434 158.323 131.399 158.364C131.365 158.404 131.317 158.43 131.265 158.439H129.975C129.921 158.439 129.868 158.419 129.828 158.383C129.788 158.346 129.763 158.296 129.758 158.242Z" fill="black"/>
<path d="M132.012 157.773C132.047 157.732 132.097 157.706 132.15 157.7C132.204 157.694 132.258 157.709 132.301 157.742C132.511 157.925 132.776 158.032 133.054 158.046C133.237 158.055 133.418 158.004 133.57 157.902C133.62 157.872 133.661 157.83 133.691 157.781C133.72 157.731 133.737 157.676 133.741 157.618C133.74 157.573 133.727 157.528 133.705 157.489C133.672 157.443 133.632 157.403 133.586 157.37C133.417 157.279 133.234 157.217 133.044 157.185C132.866 157.157 132.693 157.107 132.528 157.035C132.379 156.969 132.252 156.861 132.162 156.725C132.104 156.627 132.074 156.514 132.074 156.4C132.078 156.286 132.108 156.174 132.163 156.074C132.218 155.974 132.295 155.887 132.389 155.822C132.588 155.684 132.827 155.611 133.07 155.616C133.382 155.631 133.683 155.741 133.932 155.931C133.976 155.96 134.007 156.006 134.018 156.058C134.028 156.111 134.018 156.165 133.988 156.209C133.975 156.232 133.956 156.252 133.935 156.268C133.913 156.284 133.889 156.295 133.862 156.3C133.836 156.306 133.809 156.307 133.783 156.302C133.757 156.297 133.732 156.286 133.71 156.271C133.527 156.124 133.304 156.036 133.07 156.018C132.913 156.014 132.759 156.061 132.631 156.153C132.587 156.178 132.55 156.214 132.523 156.257C132.496 156.3 132.48 156.35 132.476 156.4C132.475 156.439 132.486 156.477 132.507 156.509C132.534 156.55 132.569 156.586 132.611 156.612C132.769 156.704 132.945 156.763 133.127 156.787C133.313 156.821 133.495 156.877 133.668 156.952C133.829 157.023 133.967 157.137 134.066 157.283C134.129 157.383 134.161 157.5 134.159 157.618C134.155 157.74 134.123 157.859 134.065 157.965C134.007 158.072 133.924 158.164 133.823 158.232C133.608 158.38 133.352 158.457 133.091 158.454C132.712 158.443 132.348 158.305 132.059 158.062C132.015 158.029 131.986 157.98 131.977 157.927C131.969 157.873 131.981 157.818 132.012 157.773Z" fill="black"/>
<path d="M134.604 157.773C134.639 157.732 134.688 157.706 134.742 157.7C134.796 157.694 134.85 157.709 134.893 157.742C135.105 157.924 135.372 158.031 135.651 158.046C135.826 158.05 135.997 158 136.141 157.902C136.191 157.872 136.232 157.83 136.262 157.781C136.291 157.731 136.308 157.676 136.312 157.618C136.313 157.572 136.301 157.527 136.276 157.489C136.246 157.442 136.208 157.402 136.162 157.37C135.993 157.279 135.81 157.217 135.62 157.185C135.443 157.157 135.269 157.107 135.104 157.035C134.955 156.969 134.828 156.861 134.738 156.725C134.679 156.627 134.647 156.515 134.645 156.4C134.649 156.285 134.679 156.173 134.735 156.073C134.791 155.972 134.87 155.886 134.965 155.822C135.165 155.684 135.403 155.611 135.646 155.616C135.959 155.631 136.259 155.741 136.508 155.931C136.545 155.964 136.57 156.009 136.577 156.059C136.583 156.109 136.571 156.159 136.544 156.201C136.516 156.242 136.474 156.272 136.426 156.285C136.377 156.298 136.326 156.293 136.281 156.271C136.1 156.124 135.878 156.036 135.646 156.018C135.488 156.015 135.332 156.062 135.202 156.153C135.16 156.179 135.124 156.215 135.098 156.259C135.072 156.302 135.056 156.35 135.053 156.4C135.051 156.439 135.062 156.477 135.084 156.509C135.108 156.552 135.144 156.587 135.187 156.612C135.346 156.704 135.521 156.763 135.703 156.787C135.889 156.821 136.071 156.877 136.245 156.952C136.406 157.023 136.543 157.137 136.642 157.283C136.703 157.384 136.735 157.5 136.735 157.618C136.731 157.74 136.699 157.86 136.639 157.966C136.58 158.073 136.496 158.164 136.394 158.232C136.181 158.38 135.926 158.458 135.667 158.454C135.288 158.443 134.925 158.305 134.635 158.062C134.594 158.027 134.568 157.977 134.562 157.923C134.556 157.87 134.571 157.816 134.604 157.773Z" fill="black"/>
<path d="M137.534 157.897C137.613 157.898 137.688 157.93 137.743 157.986C137.798 158.042 137.829 158.118 137.829 158.196C137.827 158.273 137.796 158.347 137.741 158.401C137.686 158.455 137.612 158.485 137.534 158.485C137.496 158.486 137.458 158.479 137.422 158.465C137.387 158.451 137.354 158.429 137.327 158.402C137.299 158.376 137.278 158.343 137.263 158.308C137.248 158.273 137.24 158.235 137.24 158.196C137.24 158.157 137.247 158.118 137.261 158.082C137.276 158.046 137.297 158.013 137.325 157.985C137.352 157.957 137.385 157.935 137.421 157.92C137.457 157.905 137.495 157.897 137.534 157.897Z" fill="black"/>
<path d="M138.443 157.897C138.521 157.898 138.596 157.93 138.651 157.986C138.706 158.042 138.737 158.118 138.737 158.196C138.735 158.273 138.704 158.347 138.649 158.401C138.594 158.455 138.52 158.485 138.443 158.485C138.404 158.486 138.366 158.479 138.33 158.465C138.295 158.451 138.262 158.429 138.235 158.402C138.208 158.376 138.186 158.343 138.171 158.308C138.156 158.273 138.148 158.235 138.148 158.196C138.148 158.157 138.155 158.118 138.169 158.082C138.184 158.046 138.205 158.013 138.233 157.985C138.26 157.957 138.293 157.935 138.329 157.92C138.365 157.905 138.404 157.897 138.443 157.897Z" fill="black"/>
<path d="M139.351 157.897C139.429 157.898 139.504 157.93 139.559 157.986C139.614 158.042 139.645 158.118 139.645 158.196C139.644 158.273 139.612 158.347 139.557 158.401C139.502 158.455 139.428 158.485 139.351 158.485C139.312 158.486 139.274 158.479 139.239 158.465C139.203 158.451 139.171 158.429 139.143 158.402C139.116 158.376 139.094 158.343 139.079 158.308C139.064 158.273 139.057 158.235 139.057 158.196C139.056 158.157 139.063 158.118 139.078 158.082C139.092 158.046 139.114 158.013 139.141 157.985C139.168 157.957 139.201 157.935 139.237 157.92C139.273 157.905 139.312 157.897 139.351 157.897Z" fill="black"/>
<path d="M51.3326 83.6231C52.9425 95.5221 58.1747 107.746 60.1459 109.588C62.2924 111.601 72.9788 112.658 78.4019 112.927C80.177 113.02 81.565 100.837 80.1357 99.583C78.7064 98.3291 69.5009 99.7172 67.9168 98.551C67.4008 98.1795 60.0169 88.3858 56.152 82.555C52.5452 77.106 50.8424 80.006 51.3326 83.6231Z" fill="#F7A9A0"/>
<path d="M76.8849 114.645L78.6186 98.5557C78.6186 98.5557 69.7641 98.9633 68.6547 98.1739C67.5453 97.3844 59.119 85.6712 55.9508 81.6619C52.7825 77.6525 49.0467 77.7918 51.3068 87.1779C53.7216 97.3173 57.184 107.472 59.3151 109.593C62.0808 112.369 76.8849 114.645 76.8849 114.645Z" fill="#34A1D3"/>
<path d="M73.5254 112.901C73.5359 112.322 73.5824 111.745 73.6647 111.172C73.706 110.656 73.7421 110.14 73.7885 109.624C73.8969 108.499 74.0001 107.379 74.1136 106.26C74.2272 105.14 74.3303 104.02 74.4542 102.901C74.578 101.781 74.6657 100.671 74.8463 99.5672C74.8493 99.5593 74.8546 99.5525 74.8615 99.5477C74.8684 99.5429 74.8766 99.5403 74.885 99.5403C74.8935 99.5403 74.9017 99.5429 74.9086 99.5477C74.9155 99.5525 74.9208 99.5593 74.9237 99.5672C74.9547 100.687 74.8773 101.812 74.8154 102.932C74.7535 104.051 74.6554 105.135 74.5471 106.229C74.4387 107.323 74.2942 108.463 74.1446 109.578C74.0723 110.094 73.9795 110.651 73.8917 111.182C73.828 111.76 73.7245 112.332 73.5822 112.895C73.5803 112.901 73.5768 112.906 73.572 112.91C73.5673 112.914 73.5615 112.916 73.5555 112.917C73.5494 112.917 73.5433 112.916 73.538 112.913C73.5326 112.91 73.5283 112.906 73.5254 112.901Z" fill="#263238"/>
<path opacity="0.1" d="M69.629 113.272C65.4494 112.343 60.7383 111.033 59.278 109.578C57.1469 107.457 53.6639 97.3019 51.2697 87.1728C49.8507 81.2079 50.8414 78.9736 52.5648 79.1645L69.629 113.272Z" fill="black"/>
<path d="M80.7231 78.3185C82.424 76.6588 84.5543 75.5067 86.8743 74.9917C89.1942 74.4766 91.6119 74.6191 93.8553 75.4031L86.3733 82.7097L88.9017 88.1896L94.3197 90.8522L101.812 83.5611C102.51 85.7275 102.616 88.0409 102.12 90.2622C101.624 92.4835 100.544 94.532 98.991 96.1958C97.438 97.8596 95.4687 99.0784 93.2868 99.7261C91.1049 100.374 88.7896 100.427 86.5803 99.8797C84.3711 99.3327 82.348 98.2054 80.7205 96.6145C79.0929 95.0235 77.9198 93.0267 77.3226 90.8304C76.7255 88.6342 76.7258 86.3183 77.3236 84.1222C77.9215 81.9261 79.0951 79.9296 80.7231 78.3392V78.3185Z" fill="#DBDBDB"/>
<path d="M46.0323 147.901C44.3328 149.561 42.2035 150.714 39.8842 151.229C37.5648 151.744 35.1477 151.601 32.9053 150.817L40.3873 143.51L37.8589 138.03L32.4357 135.368L24.9485 142.679C24.2499 140.513 24.1429 138.199 24.6385 135.977C25.134 133.755 26.2142 131.706 27.7673 130.042C29.3203 128.378 31.2899 127.158 33.4721 126.511C35.6544 125.863 37.9701 125.81 40.1797 126.357C42.3894 126.904 44.4126 128.032 46.0403 129.623C47.6679 131.215 48.8408 133.212 49.4375 135.409C50.0343 137.606 50.0333 139.922 49.4346 142.119C48.8359 144.315 47.6613 146.311 46.0323 147.901Z" fill="#DBDBDB"/>
<path d="M38.2204 129.722L46.1719 137.867L90.6351 94.4624L82.6836 86.3171L38.2204 129.722Z" fill="#DBDBDB"/>
<path d="M53.6373 119.352L56.9102 122.704L75.2205 104.83L71.9476 101.477L53.6373 119.352Z" fill="#C7C7C7"/>
<path d="M70.8944 109.124C70.7293 107.426 72.8243 108.205 72.8243 108.205C72.8243 108.205 70.074 106.358 70.5796 104.542C71.0853 102.725 73.5724 103.819 73.753 103.891C73.6086 103.793 71.1266 102.029 71.8232 100.279C72.5198 98.5301 74.8779 99.8975 75.0276 99.9904C74.9244 99.8562 73.5363 98.0296 74.3723 96.8067C75.8067 94.6962 80.2082 99.5776 82.267 99.7118L84.8058 96.8222C84.5583 97.7804 84.5959 98.7901 84.9141 99.7272C85.3269 101.089 85.6107 102.003 85.4559 102.88C85.3984 103.278 85.2143 103.647 84.9309 103.932C84.6475 104.218 84.2798 104.404 83.8821 104.464C83.8821 104.464 85.1876 105.713 84.6871 107.127C84.4239 107.849 83.0307 108.081 83.0307 108.081C83.312 108.379 83.5056 108.748 83.5903 109.149C83.6749 109.55 83.6474 109.966 83.5106 110.352C83.0926 111.337 81.7614 111.409 81.7614 111.409C81.7614 111.409 82.2774 112.865 81.5085 113.726C79.9812 115.455 71.2504 112.761 70.8944 109.124Z" fill="#F7A9A0"/>
<path d="M82.9531 99.1186L84.7591 96.8637C84.8468 96.7966 84.9346 96.7244 85.0171 96.6676C88.0202 94.5108 92.5817 95.7698 90.9666 97.8699C89.7385 99.4695 86.3226 99.1857 85.2906 101.007L82.9531 99.1186Z" fill="#F7A9A0"/>
<path d="M83.0757 108.092C83.1118 108.092 83.0757 108.153 83.0757 108.153C79.5315 107.92 76.1879 106.426 73.6483 103.943C73.5658 103.855 73.5761 103.685 73.6845 103.783C75.4647 105.388 80.1809 107.462 83.0757 108.092Z" fill="#263238"/>
<path d="M74.918 99.7323C77.4206 102.132 80.4443 103.494 83.7467 104.443C83.7932 104.443 83.7467 104.516 83.7467 104.516C82.0027 104.49 79.9593 103.664 78.4216 102.89C76.9805 102.187 75.7479 101.12 74.8457 99.7942C74.8199 99.7632 74.8612 99.6807 74.918 99.7323Z" fill="#263238"/>
<path d="M87.2044 239.661C86.0124 240.033 52.2764 239.31 51.007 238.469C50.5271 238.155 50.3465 233.232 50.2949 227.282C50.2949 225.998 50.2949 224.672 50.2949 223.32C50.2949 221.725 50.2949 220.11 50.3259 218.541C50.4188 211.493 50.6303 203.743 50.6303 203.743L72.5913 204.15L72.3384 218.949L72.2456 223.727L72.0546 227.685C72.0546 227.685 84.8463 233.743 86.1414 234.811C87.4366 235.879 88.3912 239.295 87.2044 239.661Z" fill="#F7A9A0"/>
<path d="M87.2044 239.661C86.0124 240.033 52.2764 239.31 51.007 238.469C50.5271 238.154 50.3465 233.232 50.2949 227.282C50.2949 225.997 50.2949 224.671 50.2949 223.319C50.2949 221.725 50.2949 220.11 50.3259 218.541L72.3384 218.949L72.2456 223.727L72.0546 227.685C72.0546 227.685 84.8463 233.743 86.1414 234.811C87.4366 235.879 88.3912 239.295 87.2044 239.661Z" fill="white"/>
<path d="M87.308 239.713C86.534 239.95 72.1634 239.739 61.7041 239.326C59.284 239.228 57.06 239.125 55.285 239.011C52.8288 238.851 51.157 238.686 50.9145 238.495C50.3262 238.103 50.1766 230.884 50.1818 223.268L72.2562 223.676L72.0653 227.654C72.0653 227.654 84.9292 233.743 86.2295 234.821C87.5299 235.9 88.4999 239.336 87.308 239.713Z" fill="#34A1D3"/>
<path d="M86.8493 238.361C81.1733 238.098 58.2164 237.582 52.5817 237.757C52.5353 237.757 52.5353 237.788 52.5817 237.793C58.2061 238.175 81.1578 238.505 86.8493 238.454C86.9679 238.438 86.9731 238.361 86.8493 238.361Z" fill="#263238"/>
<path d="M72.8953 226.421C70.6662 225.956 67.9211 226.24 66.1873 227.799C66.1202 227.86 66.1873 227.953 66.2802 227.933C68.4341 227.292 70.6497 226.88 72.8902 226.705C72.9233 226.699 72.9534 226.682 72.9753 226.656C72.9972 226.631 73.0095 226.598 73.0101 226.565C73.0108 226.531 72.9996 226.498 72.9787 226.472C72.9577 226.446 72.9282 226.428 72.8953 226.421Z" fill="#263238"/>
<path d="M74.491 227.432C72.2619 226.968 69.5168 227.252 67.783 228.81C67.716 228.867 67.783 228.965 67.8759 228.944C70.0286 228.298 72.2448 227.886 74.4859 227.716C74.519 227.71 74.5491 227.693 74.571 227.668C74.5929 227.642 74.6052 227.61 74.6059 227.576C74.6065 227.543 74.5953 227.51 74.5744 227.484C74.5534 227.457 74.5239 227.439 74.491 227.432Z" fill="#263238"/>
<path d="M76.0848 228.438C73.8557 227.974 71.1105 228.257 69.3768 229.816C69.3097 229.878 69.3768 229.971 69.4697 229.95C71.6224 229.304 73.8385 228.892 76.0796 228.722C76.1128 228.716 76.1429 228.699 76.1648 228.674C76.1867 228.648 76.199 228.616 76.1996 228.582C76.2002 228.548 76.1891 228.516 76.1681 228.489C76.1472 228.463 76.1177 228.445 76.0848 228.438Z" fill="#263238"/>
<path d="M77.6785 229.444C75.4494 228.98 72.7043 229.264 70.9705 230.822C70.9035 230.884 70.9705 230.977 71.0634 230.956C73.2173 230.315 75.433 229.903 77.6734 229.728C77.7065 229.722 77.7366 229.705 77.7585 229.68C77.7804 229.654 77.7927 229.622 77.7934 229.588C77.794 229.555 77.7828 229.522 77.7619 229.496C77.7409 229.469 77.7114 229.451 77.6785 229.444Z" fill="#263238"/>
<path d="M77.1431 221.333C76.2865 220.1 74.6405 220.61 73.6859 221.374C72.0798 222.718 70.854 224.46 70.1306 226.426C70.1274 226.434 70.1263 226.444 70.1273 226.453C70.1283 226.463 70.1314 226.472 70.1364 226.48C70.1413 226.487 70.148 226.494 70.156 226.499C70.1639 226.504 70.1729 226.507 70.1822 226.508C70.1822 226.679 70.3319 226.864 70.5279 226.797C72.3907 226.152 74.4599 225.693 76.0698 224.496C77.0089 223.804 77.948 222.499 77.1431 221.333ZM73.1492 225.244C72.2411 225.579 71.3226 225.874 70.4299 226.245C71.1265 225.265 71.7767 224.253 72.5713 223.34C72.9461 222.895 73.3513 222.476 73.7839 222.086C74.4599 221.493 77.1276 220.259 76.6787 222.71C76.431 224.062 74.2328 224.842 73.1492 225.249V225.244Z" fill="#263238"/>
<path d="M64.4546 225.729C66.2864 226.555 68.4072 226.56 70.3628 226.792C70.4065 226.793 70.4498 226.784 70.4892 226.765C70.5286 226.746 70.563 226.718 70.5896 226.683C70.6162 226.649 70.6343 226.608 70.6424 226.565C70.6505 226.522 70.6484 226.478 70.6363 226.436C70.6456 226.433 70.6543 226.429 70.6615 226.422C70.6687 226.416 70.6743 226.408 70.6778 226.399C70.6813 226.39 70.6827 226.38 70.6817 226.37C70.6808 226.361 70.6776 226.351 70.6724 226.343C69.5448 224.577 67.9738 223.138 66.1161 222.169C65.0274 221.627 63.3039 221.477 62.7363 222.865C62.1945 224.171 63.3917 225.244 64.4546 225.729ZM63.469 224.109C62.5093 221.813 65.3782 222.452 66.1677 222.886C66.6734 223.173 67.158 223.495 67.6177 223.851C68.5615 224.598 69.4674 225.392 70.3319 226.23C69.3773 226.059 68.4175 225.972 67.4577 225.832C66.3225 225.667 64.0108 225.373 63.469 224.109Z" fill="#263238"/>
<path opacity="0.1" d="M70.0432 239.589C67.2 239.517 64.3311 239.424 61.7046 239.326C59.2846 239.233 57.0606 239.125 55.2856 239.011C52.8294 238.851 51.1576 238.686 50.9151 238.495C50.3991 238.15 50.2185 232.572 50.1875 226.075C55.2133 229.44 65.0173 236.163 70.0432 239.589Z" fill="black"/>
<path d="M72.6752 225.347L49.156 225.373C49.156 225.373 50.5337 169.47 50.2602 168.154C49.6152 165.017 35.3633 115.274 35.3633 115.274L55.1519 115.615L58.7639 115.734C58.7639 115.734 71.3182 157.566 72.6391 165.208C74.9302 178.443 72.6752 225.347 72.6752 225.347Z" fill="#263238"/>
<path d="M71.3436 221.157C67.4375 221.059 55.6521 220.641 50.4353 221.034C50.3992 221.034 50.3992 221.106 50.4353 221.111C52.2207 221.4 67.4323 221.317 71.3436 221.266C71.3521 221.268 71.3611 221.269 71.3699 221.268C71.3787 221.266 71.387 221.263 71.3942 221.257C71.4013 221.252 71.4072 221.245 71.4112 221.237C71.4152 221.229 71.4173 221.221 71.4173 221.212C71.4173 221.203 71.4152 221.194 71.4112 221.186C71.4072 221.178 71.4013 221.171 71.3942 221.166C71.387 221.161 71.3787 221.157 71.3699 221.156C71.3611 221.154 71.3521 221.155 71.3436 221.157Z" fill="#37474F"/>
<path d="M52.2258 166.905C51.4776 163.856 45.8945 144.857 44.1865 138.856C42.4786 132.854 40.879 126.828 39.4084 120.77C39.2175 120.001 39.0317 119.222 38.8253 118.468C38.8253 118.406 38.7169 118.432 38.7273 118.499C39.2897 121.549 40.0379 124.573 40.7551 127.591C41.4724 130.61 42.2361 133.618 43.041 136.616C44.6578 142.643 46.4225 148.625 48.3352 154.563C49.2898 157.524 50.8687 163.598 51.7047 166.591C52.5406 169.583 51.1887 218.191 51.2609 219.001C51.2681 219.043 51.2899 219.081 51.3225 219.108C51.355 219.136 51.3963 219.151 51.4389 219.151C51.4815 219.151 51.5228 219.136 51.5554 219.108C51.5879 219.081 51.6098 219.043 51.6169 219.001C51.7253 213.206 52.9689 169.919 52.2258 166.905Z" fill="#37474F"/>
<path d="M55.1563 115.61C55.1563 115.61 50.3163 168.407 50.2647 168.149C49.6403 165.115 36.2398 118.339 35.3987 115.414C35.3677 115.321 35.3574 115.274 35.3574 115.274L55.1563 115.61Z" fill="#37474F"/>
<path d="M61.2142 241.003C60.0222 241.374 26.2861 240.652 25.0168 239.811C24.5369 239.496 24.3563 234.573 24.3047 228.624C24.3047 227.339 24.3047 226.018 24.3047 224.666C24.3047 223.067 24.3047 221.451 24.3408 219.883C24.4285 212.839 24.6401 206.632 24.6401 206.632L46.6062 207.04L46.3379 220.301L46.245 225.079L46.0592 229.037C46.0592 229.037 58.8509 235.095 60.1409 236.168C61.4309 237.241 62.3958 240.636 61.2142 241.003Z" fill="#F7A9A0"/>
<path d="M61.2142 241.003C60.0222 241.375 26.2861 240.652 25.0168 239.811C24.5369 239.496 24.3563 234.574 24.3047 228.624C24.3047 227.339 24.3047 226.018 24.3047 224.666C24.3047 223.067 24.3047 221.452 24.3408 219.883L46.3379 220.301L46.245 225.079L46.0592 229.037C46.0592 229.037 58.8509 235.095 60.1409 236.168C61.4309 237.241 62.3958 240.637 61.2142 241.003Z" fill="white"/>
<path d="M61.3119 241.054C60.5379 241.297 46.1673 241.054 35.708 240.672C33.2879 240.574 31.064 240.466 29.2941 240.353C26.8328 240.198 25.1661 240.033 24.9184 239.837C24.3302 239.444 24.1805 232.22 24.1857 224.604L46.2602 225.012L46.0692 228.99C46.0692 228.99 58.9331 235.079 60.2386 236.157C61.5441 237.236 62.5038 240.683 61.3119 241.054Z" fill="#34A1D3"/>
<path d="M60.8583 239.687C55.1823 239.429 32.2255 238.908 26.5856 239.083C26.5392 239.083 26.5392 239.114 26.5856 239.119C32.21 239.501 55.1669 239.831 60.8532 239.78C60.9719 239.78 60.977 239.692 60.8583 239.687Z" fill="#263238"/>
<path d="M46.8997 227.767C44.6705 227.303 41.9306 227.587 40.1917 229.145C40.1194 229.202 40.1917 229.3 40.2794 229.279C42.4302 228.631 44.6445 228.215 46.8842 228.041C46.9134 228.033 46.9393 228.016 46.9583 227.992C46.9774 227.969 46.9885 227.94 46.9902 227.91C46.9919 227.879 46.9841 227.849 46.9679 227.824C46.9516 227.798 46.9278 227.779 46.8997 227.767Z" fill="#263238"/>
<path d="M48.5051 228.774C46.276 228.309 43.536 228.593 41.7971 230.151C41.7249 230.213 41.7971 230.306 41.8848 230.286C44.0416 229.645 46.2612 229.238 48.5051 229.073C48.5448 229.073 48.5829 229.057 48.6109 229.029C48.639 229.001 48.6548 228.963 48.6548 228.923C48.6548 228.884 48.639 228.846 48.6109 228.817C48.5829 228.789 48.5448 228.774 48.5051 228.774Z" fill="#263238"/>
<path d="M50.0891 229.78C47.86 229.316 45.12 229.599 43.3811 231.158C43.3089 231.22 43.3811 231.312 43.4688 231.292C45.6145 230.653 47.8213 230.242 50.053 230.064C50.0878 230.063 50.1212 230.05 50.1472 230.027C50.1731 230.004 50.1898 229.972 50.1942 229.938C50.1986 229.903 50.1904 229.868 50.1711 229.839C50.1518 229.81 50.1227 229.789 50.0891 229.78Z" fill="#263238"/>
<path d="M51.6829 230.791C49.4537 230.327 46.7138 230.611 44.9749 232.169C44.9026 232.226 44.9749 232.324 45.0626 232.303C47.2154 231.658 49.4315 231.246 51.6725 231.075C51.7058 231.07 51.7364 231.053 51.7588 231.028C51.7812 231.003 51.7942 230.971 51.7954 230.937C51.7966 230.904 51.7861 230.871 51.7655 230.844C51.745 230.817 51.7157 230.799 51.6829 230.791Z" fill="#263238"/>
<path d="M51.1472 222.68C50.2906 221.452 48.6446 221.957 47.6952 222.726C46.0851 224.068 44.857 225.81 44.1348 227.778C44.1348 227.824 44.1348 227.85 44.1864 227.86C44.1864 228.031 44.3412 228.211 44.5321 228.144C46.3948 227.499 48.464 227.04 50.0739 225.843C51.013 225.146 51.9522 223.841 51.1472 222.68ZM47.1585 226.591C46.2504 226.932 45.3267 227.22 44.434 227.597C45.0984 226.593 45.8131 225.624 46.5754 224.692C46.9503 224.245 47.3554 223.824 47.788 223.433C48.4692 222.845 51.1317 221.612 50.6828 224.057C50.4351 225.404 48.237 226.188 47.1585 226.591Z" fill="#263238"/>
<path d="M38.4631 227.071C40.2897 227.897 42.4105 227.902 44.3661 228.134C44.5673 228.16 44.6757 227.948 44.6447 227.778C44.6535 227.775 44.6616 227.771 44.6683 227.765C44.675 227.758 44.68 227.751 44.6831 227.742C44.6861 227.733 44.687 227.724 44.6857 227.715C44.6845 227.706 44.681 227.698 44.6757 227.69C43.5497 225.922 41.9784 224.48 40.1194 223.511C39.0307 222.969 37.3072 222.824 36.7396 224.207C36.172 225.59 37.3949 226.591 38.4631 227.071ZM37.4827 225.461C36.5229 223.165 39.3919 223.8 40.1813 224.233C40.6855 224.522 41.1699 224.844 41.6313 225.198C42.5775 225.944 43.4835 226.74 44.3455 227.582C43.3909 227.406 42.4311 227.319 41.4713 227.179C40.3258 227.009 38.0141 226.72 37.4827 225.461Z" fill="#263238"/>
<path d="M47.0186 227.386L23.2207 226.937C23.2207 226.937 30.0474 140.249 29.196 135.605C27.8079 127.999 28.9947 119.314 32.6532 115.192L56.3531 115.63C56.3531 115.63 56.6988 125.661 54.1807 129.588C54.1807 129.588 51.9309 130.955 50.837 131.554L47.0186 227.386Z" fill="#263238"/>
<path d="M46.3477 223.067C42.6583 222.902 44.2373 222.896 40.5479 222.773C38.7419 222.716 26.879 222.329 25.1814 222.566C25.1453 222.566 25.1453 222.633 25.1814 222.644C26.8635 222.963 38.7315 223.16 40.5375 223.16C44.2269 223.216 42.6531 223.16 46.3425 223.16C46.3503 223.155 46.3568 223.148 46.3615 223.14C46.3661 223.132 46.3688 223.124 46.3693 223.114C46.3698 223.105 46.3681 223.096 46.3644 223.088C46.3606 223.08 46.3549 223.072 46.3477 223.067Z" fill="#37474F"/>
<path d="M33.0247 135.367C32.8905 133.623 32.6377 131.89 32.4777 130.146C32.1863 126.651 32.4652 123.132 33.3033 119.728C33.3041 119.716 33.3007 119.704 33.2937 119.694C33.2867 119.684 33.2766 119.677 33.2649 119.674C33.2533 119.671 33.241 119.672 33.2301 119.677C33.2192 119.682 33.2104 119.691 33.2053 119.702C32.5706 122.72 32.0081 125.739 32.1062 128.84C32.2042 131.941 32.6841 134.955 32.6789 138.035C32.6738 141.116 32.3693 144.263 32.1113 147.37C31.8533 150.476 31.5953 153.618 31.3322 156.745C30.3002 169.305 29.3146 181.864 28.3136 194.413C28.0349 197.922 27.7976 201.426 27.5035 204.935C27.2093 208.443 26.8172 216.287 26.6211 219.847C26.6211 220.157 27.0649 220.141 27.0958 219.847C27.746 213.547 28.2723 203.015 28.7883 196.704C29.3043 190.394 29.7842 184.207 30.2847 177.958C30.7852 171.709 31.2703 165.461 31.7605 159.212C32.0013 156.085 32.2403 152.96 32.4777 149.836C32.7151 146.74 32.9937 143.613 33.1072 140.491C33.1746 138.783 33.147 137.073 33.0247 135.367Z" fill="#37474F"/>
<path d="M46.9569 123.293C46.9569 123.246 46.9053 123.174 46.864 123.216C45.6562 125.196 43.9821 126.85 41.9878 128.035C39.64 129.469 36.4202 130.212 34.6245 130.434C34.5058 130.434 34.5471 130.548 34.6555 130.553C36.5492 130.672 39.1808 130.187 42.0601 128.634C46.2087 126.389 46.8898 123.742 46.9569 123.293Z" fill="#37474F"/>
<path d="M54.8935 129.294C52.7087 130.088 50.5971 131.07 48.5828 132.23C48.5054 132.276 48.557 132.4 48.6447 132.359C50.7655 131.451 52.9327 130.574 55.007 129.547C55.0368 129.529 55.0592 129.502 55.0697 129.469C55.0803 129.436 55.0783 129.401 55.0642 129.369C55.0501 129.338 55.0248 129.313 54.9933 129.299C54.9618 129.285 54.9262 129.283 54.8935 129.294Z" fill="#37474F"/>
<path d="M55.6308 115.816C55.6308 115.749 55.4967 115.734 55.4967 115.816C55.4855 118.003 55.3563 120.187 55.1097 122.359C55.0013 123.391 54.0777 128.943 52.1994 128.551C51.8847 128.484 51.7247 128.2 51.6834 127.757C51.6948 127.178 51.7833 126.604 51.9466 126.049C52.1633 124.877 52.3387 123.706 52.4626 122.529C52.6923 120.338 52.6767 118.128 52.4161 115.94C52.4161 115.924 52.4096 115.908 52.398 115.896C52.3864 115.885 52.3706 115.878 52.3542 115.878C52.3378 115.878 52.3221 115.885 52.3104 115.896C52.2988 115.908 52.2923 115.924 52.2923 115.94C52.3337 118.986 52.1266 122.03 51.6731 125.042C51.4254 126.492 50.6411 128.654 52.2665 128.892C53.8919 129.129 55.0426 125.455 55.2541 124.454C55.7824 121.607 55.9092 118.699 55.6308 115.816Z" fill="#37474F"/>
<path d="M52.2511 128.669C52.0791 129.077 51.936 129.496 51.8228 129.923C51.6981 130.253 51.6386 130.603 51.6473 130.955C51.6473 131.022 51.7402 131.028 51.7763 130.986C51.9742 130.666 52.1237 130.318 52.2201 129.954C52.3646 129.567 52.5142 129.185 52.6484 128.793C52.6543 128.744 52.6429 128.695 52.616 128.653C52.5891 128.611 52.5486 128.581 52.5013 128.566C52.4541 128.551 52.4031 128.553 52.3574 128.572C52.3117 128.591 52.2741 128.626 52.2511 128.669Z" fill="#37474F"/>
<path d="M28.1016 122.39C28.179 122.483 61.172 123.247 61.5023 122.906C61.9667 122.416 58.9584 87.6941 53.5197 79.9283C52.1627 77.9882 47.2091 76.5847 45.0986 78.4939C38.9943 84.0047 37.6682 88.721 36.0119 92.5652C34.8044 95.4083 33.3132 100.274 31.9561 105.269C29.7115 113.489 27.8229 122.049 28.1016 122.39Z" fill="#34A1D3"/>
<path d="M40.2482 83.107C33.4267 91.363 25.6403 106.379 26.6516 109.485C29.3916 117.932 32.1109 125.233 34.8509 129.8C36.1202 131.91 47.787 125.357 46.6105 123.293C44.1956 119.113 39.5413 109.057 38.8189 107.632C38.401 106.812 42.3071 93.2825 44.6652 85.8108C47.2297 77.6941 43.5403 79.1131 40.2482 83.107Z" fill="#F7A9A0"/>
<path d="M30.8628 126.905L45.2334 119.882C45.2334 119.882 39.5574 107.276 39.5574 105.914C39.5574 104.552 44.2014 89.2729 45.6153 84.3451C47.0291 79.4173 44.9703 76.3368 38.835 83.7621C32.6998 91.1873 26.4046 103.37 25.7957 106.301C25.1868 109.232 30.8628 126.905 30.8628 126.905Z" fill="#34A1D3"/>
<path d="M43.3451 92.0852C43.7166 91.0842 44.1346 90.1038 44.5371 89.1079C44.568 89.0408 44.6919 89.1079 44.6661 89.1595C44.1913 90.4856 43.7424 91.8272 43.2987 93.1637C43.6341 92.5548 43.9746 91.9459 44.3307 91.3473C44.3368 91.3364 44.3471 91.3283 44.3592 91.325C44.3713 91.3216 44.3842 91.3231 44.3952 91.3293C44.4061 91.3354 44.4142 91.3457 44.4176 91.3578C44.4209 91.3699 44.4194 91.3828 44.4132 91.3938C44.0107 92.1317 43.5876 92.8592 43.1593 93.5816C43.051 93.9067 39.9137 105.088 39.8827 105.517C39.8646 106.003 39.9381 106.487 40.0995 106.946C40.3575 107.787 40.6516 108.623 40.9509 109.454C41.5494 111.12 42.1996 112.772 42.8859 114.407C43.665 116.265 44.5525 118.107 45.4349 119.918C45.4349 119.918 44.9189 120.063 44.8828 120.073C44.8467 120.083 44.8415 120.073 44.8518 120.042C44.8621 120.011 45.1924 119.867 45.2027 119.867C44.2997 118.293 43.4431 116.771 42.6898 115.104C41.9364 113.437 41.2708 111.807 40.6671 110.119C40.3575 109.247 40.0582 108.375 39.7795 107.493C39.4712 106.67 39.3875 105.779 39.537 104.913C39.7331 104.025 42.9375 93.1172 43.3451 92.0852Z" fill="#263238"/>
<path d="M30.6305 122.828C31.131 122.551 31.648 122.305 32.1785 122.091C32.6429 121.869 33.1073 121.647 33.582 121.435C34.614 120.971 35.646 120.501 36.678 120.042C37.71 119.583 38.742 119.124 39.774 118.675C40.806 118.226 41.838 117.751 42.87 117.364C42.9062 117.364 42.9371 117.41 42.901 117.431C41.9464 118.014 40.9247 118.504 39.9237 119.005C38.9226 119.505 37.9371 119.959 36.9309 120.408C35.9247 120.857 34.8669 121.301 33.8349 121.724C33.3189 121.925 32.8029 122.111 32.2869 122.297C31.7539 122.529 31.2057 122.724 30.646 122.88C30.6392 122.882 30.6318 122.881 30.6255 122.878C30.6192 122.875 30.6145 122.869 30.6125 122.862C30.6104 122.855 30.6112 122.848 30.6145 122.841C30.6179 122.835 30.6237 122.831 30.6305 122.828Z" fill="#263238"/>
<path d="M51.2603 83.4577C49.8001 83.7157 46.3893 81.3937 44.8981 79.2214C44.7949 79.0717 44.862 77.3947 44.8465 75.3514C44.8465 74.113 44.7846 72.7352 44.6504 71.4762L52.731 72.5598C52.4479 74.1775 52.363 75.8236 52.4781 77.4618C52.502 77.6361 52.5382 77.8086 52.5865 77.9778C52.5865 77.9778 52.5865 78.0294 52.5865 78.0604C52.8703 79.0201 53.5411 83.0449 51.2603 83.4577Z" fill="#F7A9A0"/>
<path d="M52.5865 77.9726C52.5849 78.0001 52.5849 78.0276 52.5865 78.0551C52.3202 78.1193 52.0494 78.1624 51.7764 78.1841C47.1994 78.566 45.4708 73.0654 45.0684 71.5432L52.6948 72.5752C52.4118 74.1929 52.3269 75.839 52.442 77.4772C52.4786 77.6455 52.5269 77.811 52.5865 77.9726Z" fill="#263238"/>
<path d="M43.3851 60.8568C42.4821 63.6484 43.8391 71.7857 45.8051 73.6278C48.6637 76.2956 53.4006 76.6206 55.6813 73.1738C57.895 69.8352 55.9393 59.2418 53.736 57.5802C50.4852 55.0983 44.7163 56.7288 43.3851 60.8568Z" fill="#F7A9A0"/>
<path d="M51.5073 65.9343C51.5073 65.9343 51.4712 65.9653 51.4763 65.9911C51.5898 66.5071 51.6363 67.1727 51.1719 67.4462C51.1719 67.4462 51.1719 67.4823 51.1719 67.4772C51.7704 67.2811 51.7085 66.4297 51.5073 65.9343Z" fill="#263238"/>
<path d="M50.915 65.4543C50.0275 65.5472 50.2803 67.3222 51.1059 67.2345C51.9315 67.1468 51.6632 65.3718 50.915 65.4543Z" fill="#263238"/>
<path d="M54.6299 65.434C54.6299 65.434 54.6764 65.434 54.6764 65.4752C54.7383 66.0274 54.9034 66.6517 55.4246 66.7601V66.7962C54.8054 66.7962 54.599 65.9654 54.6299 65.434Z" fill="#263238"/>
<path d="M55.0369 64.7887C55.9089 64.5926 56.234 66.3367 55.4239 66.5379C54.6137 66.7391 54.3041 64.9486 55.0369 64.7887Z" fill="#263238"/>
<path d="M50.0999 64.7423C50.3224 64.6401 50.5394 64.5265 50.7501 64.4017C50.9976 64.3134 51.2096 64.1467 51.3538 63.927C51.3841 63.8484 51.388 63.7619 51.3647 63.6809C51.3414 63.5999 51.2923 63.5287 51.2248 63.4781C51.0772 63.3999 50.9114 63.3625 50.7445 63.3698C50.5776 63.377 50.4156 63.4287 50.2754 63.5194C49.9616 63.6586 49.71 63.9084 49.5684 64.2211C49.5411 64.2949 49.5356 64.3751 49.5528 64.4519C49.57 64.5287 49.609 64.5989 49.6652 64.6541C49.7214 64.7092 49.7924 64.7468 49.8695 64.7625C49.9467 64.7781 50.0267 64.7711 50.0999 64.7423Z" fill="#263238"/>
<path d="M55.5529 64.0095C55.3074 63.9945 55.0629 63.967 54.8202 63.927C54.5595 63.9318 54.3043 63.8522 54.0926 63.6999C54.0358 63.639 54.0006 63.5611 53.9922 63.4781C53.9838 63.3952 54.0028 63.3118 54.0462 63.2407C54.1556 63.1135 54.297 63.0178 54.4557 62.9634C54.6144 62.909 54.7847 62.8978 54.9492 62.9311C55.2927 62.9488 55.6177 63.0921 55.8625 63.3336C55.9142 63.3927 55.9477 63.4655 55.959 63.5432C55.9703 63.6209 55.959 63.7003 55.9263 63.7717C55.8936 63.8431 55.8409 63.9035 55.7747 63.9457C55.7085 63.9879 55.6315 64.0101 55.5529 64.0095Z" fill="#263238"/>
<path d="M51.9054 69.4018C52.0767 69.5997 52.287 69.7601 52.5232 69.8728C52.7594 69.9856 53.0164 70.0483 53.278 70.0571C53.5054 70.068 53.7331 70.0454 53.9539 69.99C53.9964 69.9852 54.038 69.9748 54.0778 69.959L54.1964 69.9229C54.2249 69.9129 54.2494 69.8939 54.2661 69.8688C54.2829 69.8436 54.291 69.8137 54.2893 69.7836C54.2893 69.7836 54.2893 69.7475 54.2893 69.7268V69.6752C54.2377 69.2521 54.1087 68.6123 54.1087 68.6123C54.2738 68.669 55.1098 68.9116 55.0685 68.6897C54.7425 66.7878 54.2239 64.924 53.5205 63.1272C53.5155 63.1153 53.5063 63.1056 53.4946 63.1002C53.4829 63.0947 53.4696 63.0938 53.4573 63.0977C53.445 63.1016 53.4346 63.11 53.4281 63.1212C53.4217 63.1324 53.4196 63.1456 53.4224 63.1582C53.7062 64.9177 54.3048 66.6102 54.6196 68.3749C54.3218 68.2841 54.0124 68.2372 53.7011 68.2356C53.6443 68.2614 53.9797 69.4637 53.9849 69.6546C53.6432 69.7393 53.2879 69.7541 52.9404 69.6983C52.5928 69.6424 52.2601 69.517 51.9622 69.3295C51.9054 69.3192 51.8641 69.3656 51.9054 69.4018Z" fill="#263238"/>
<path d="M53.6651 69.8149C53.4739 70.1499 53.2004 70.4305 52.8704 70.6302C52.688 70.7309 52.4793 70.7741 52.2719 70.754C51.8126 70.7024 51.7559 70.2999 51.7559 69.9439C51.7749 69.7539 51.8164 69.5668 51.8797 69.3866C52.4129 69.7186 53.0393 69.8689 53.6651 69.8149Z" fill="#263238"/>
<path d="M52.8802 70.63C52.6977 70.7308 52.4891 70.7739 52.2816 70.7538C51.8224 70.7022 51.7656 70.2998 51.7656 69.9437C52.0021 69.9116 52.2424 69.9624 52.4456 70.0876C52.6488 70.2127 52.8024 70.4044 52.8802 70.63Z" fill="#FF9BBC"/>
<path d="M55.43 60.6763C55.3113 60.4493 54.6199 58.8445 54.2999 58.86C53.8975 58.86 53.6807 59.5566 52.9429 59.8198C51.9109 60.1965 49.9655 59.1696 48.5362 59.6753C47.1069 60.181 46.3432 61.6309 46.2555 64.2471C46.1678 66.8632 44.2741 69.1078 43.5671 67.4463C43.5671 67.3843 43.5001 67.276 43.4381 67.1263C43.0357 64.6547 42.8344 61.7548 43.2627 60.4183C44.5888 56.2903 51.0595 55.1964 53.9078 57.3223C54.3993 57.7293 54.7919 58.2427 55.0556 58.8238C55.3193 59.4049 55.4473 60.0384 55.43 60.6763Z" fill="#263238"/>
<path d="M45.6929 67.7248C45.6929 67.7248 43.8456 65.1086 42.6588 65.7691C41.472 66.4296 42.8652 70.2274 44.2636 70.7382C44.4385 70.8174 44.6276 70.8603 44.8195 70.8642C45.0114 70.8682 45.2022 70.8332 45.3802 70.7613C45.5582 70.6894 45.7197 70.5822 45.8551 70.4461C45.9904 70.3099 46.0968 70.1478 46.1676 69.9694L45.6929 67.7248Z" fill="#F7A9A0"/>
<path d="M43.086 66.8479C43.086 66.8479 43.0551 66.8789 43.086 66.884C44.0664 67.2762 44.5876 68.1843 44.9539 69.1235C44.8964 69.0255 44.8182 68.9413 44.7249 68.8766C44.6315 68.8118 44.5253 68.7681 44.4134 68.7485C44.3015 68.7289 44.1867 68.7338 44.0769 68.7629C43.9671 68.792 43.8649 68.8446 43.7775 68.9171C43.7775 68.9171 43.7775 68.9738 43.8033 68.9687C43.9753 68.913 44.1604 68.9119 44.3331 68.9654C44.5059 69.019 44.6578 69.1247 44.7682 69.2679C44.9514 69.5096 45.1071 69.771 45.2326 70.0471C45.279 70.1348 45.439 70.0884 45.4029 69.9852C45.408 68.7107 44.4276 66.9666 43.086 66.8479Z" fill="#263238"/>
<path d="M52.7921 78.7624L51.9459 82.7356L44.8251 77.5756L43.3906 79.6912C43.3906 79.6912 50.2637 88.5044 50.2483 88.071L52.2503 83.6489L54.8303 86.265L53.9944 80.2639L52.7921 78.7624Z" fill="#EBEBEB"/>
<path d="M54.5271 82.7355C54.3104 81.5694 54.3568 81.4765 54.0885 80.3206C54.0885 80.2794 54.0111 80.269 54.0059 80.3206C53.9079 81.4816 54.5219 84.846 54.6458 85.9192C54.5116 85.8109 52.2825 83.623 52.2618 83.6592C51.9161 84.3558 50.301 87.6117 50.234 87.8904C49.1452 86.492 45.012 81.4249 43.7685 80.1246C43.7617 80.1174 43.7526 80.1129 43.7428 80.1119C43.733 80.1109 43.7232 80.1134 43.7151 80.119C43.7069 80.1246 43.7011 80.133 43.6986 80.1425C43.6961 80.152 43.6971 80.1621 43.7014 80.171C44.6973 81.6726 50.1824 88.5044 50.2494 88.4786C51.0421 86.9792 51.7317 85.4277 52.3134 83.8346C52.7933 84.299 55.0844 86.7913 55.074 86.6158C54.9598 85.3137 54.7772 84.0185 54.5271 82.7355Z" fill="#263238"/>
<path d="M216.842 194.083C217.001 190.012 216.946 185.935 216.677 181.869C216.074 173.484 214.793 165.162 212.848 156.983C211.78 152.375 210.47 147.85 209.097 143.324C209.056 143.19 208.839 143.226 208.875 143.371C213.111 159.315 216.584 175.765 216.347 192.339C216.28 196.983 215.743 201.534 215.315 206.142C215.315 206.266 215.506 206.312 215.537 206.189C216.324 202.199 216.761 198.149 216.842 194.083Z" fill="#34A1D3"/>
<path d="M208.876 143.371C208.876 143.371 202.462 159.651 203.902 163.495C205.342 167.339 208.298 168.139 208.298 168.139C208.298 168.139 204.372 173.742 207.117 179.001C209.862 184.259 215.951 184.006 216.353 189.966C216.353 189.945 216.719 165.027 208.876 143.371Z" fill="#34A1D3"/>
<path d="M215.656 179.656C215.666 179.627 215.666 179.596 215.656 179.568C214.812 168.455 212.725 157.471 209.433 146.823C209.433 146.787 209.371 146.797 209.381 146.823C210.65 151.587 211.774 156.374 212.751 161.183C211.887 160.368 210.833 159.783 209.686 159.48C209.686 159.48 209.655 159.48 209.686 159.511C210.892 159.955 211.975 160.678 212.849 161.622C213.034 162.566 213.22 163.51 213.365 164.454C211.935 162.855 209.944 162.06 207.957 161.302C207.926 161.302 207.916 161.338 207.957 161.348C210.021 162.189 212.085 163.278 213.494 165.063C213.982 167.76 214.412 170.471 214.784 173.195C213.748 172.11 212.42 171.349 210.96 171.002C210.914 171.002 210.888 171.059 210.934 171.07C212.441 171.506 213.789 172.37 214.815 173.557C214.944 174.516 215.067 175.471 215.181 176.431C214.377 175.754 213.472 175.209 212.498 174.816C212.472 174.816 212.456 174.847 212.498 174.857C213.491 175.286 214.401 175.887 215.186 176.632H215.217C215.325 177.545 215.434 178.453 215.521 179.367C214.078 177.622 212.203 176.284 210.083 175.486C210.042 175.486 210.021 175.533 210.083 175.548C212.175 176.474 214.014 177.89 215.444 179.676C215.459 179.697 215.48 179.712 215.504 179.719C215.529 179.726 215.554 179.726 215.578 179.718C215.718 181.121 215.841 182.52 215.945 183.928H215.976C215.872 182.53 215.774 181.085 215.656 179.656Z" fill="#263238"/>
<path d="M210.528 157.865C209.367 157.144 208.043 156.73 206.678 156.663C206.671 156.663 206.665 156.665 206.66 156.67C206.655 156.675 206.652 156.682 206.652 156.689C206.652 156.695 206.655 156.702 206.66 156.707C206.665 156.712 206.671 156.714 206.678 156.714C207.997 156.958 209.278 157.376 210.486 157.958C210.528 157.989 210.553 157.901 210.528 157.865Z" fill="#263238"/>
<path d="M211.281 175.105C210.389 174.595 209.408 174.261 208.391 174.119C208.388 174.119 208.384 174.12 208.381 174.121C208.378 174.122 208.375 174.124 208.373 174.127C208.37 174.129 208.368 174.132 208.367 174.135C208.366 174.138 208.365 174.142 208.365 174.145C208.365 174.148 208.366 174.152 208.367 174.155C208.368 174.158 208.37 174.161 208.373 174.163C208.375 174.166 208.378 174.167 208.381 174.169C208.384 174.17 208.388 174.171 208.391 174.171C209.388 174.371 210.352 174.71 211.255 175.177C211.286 175.198 211.322 175.131 211.281 175.105Z" fill="#263238"/>
<path d="M233.706 163.742C230.993 165.623 228.502 167.806 226.281 170.249C223.991 172.828 222.223 175.826 221.074 179.078C218.641 185.853 217.33 192.98 217.194 200.177C217.114 204.164 217.498 208.147 218.34 212.045C218.348 212.072 218.365 212.095 218.389 212.109C218.413 212.124 218.441 212.129 218.469 212.124C218.496 212.119 218.521 212.104 218.538 212.082C218.555 212.059 218.564 212.032 218.561 212.004C217.515 205.121 217.555 198.116 218.68 191.245C219.779 184.537 221.513 177.184 225.791 171.709C228.123 168.727 231.028 166.384 233.902 163.969C234.052 163.846 233.861 163.634 233.706 163.742Z" fill="#34A1D3"/>
<path d="M218.139 195.332C219.683 192.833 221.498 190.513 223.552 188.412C226.761 185.203 229.465 182.927 229.878 180.801C230.29 178.675 226.668 177.117 226.668 177.117C226.668 177.117 231.106 177.917 232.344 176.054C233.583 174.191 234.145 163.396 234.145 163.396C234.145 163.396 226.064 169.165 222.277 177.246C218.49 185.326 218.139 195.332 218.139 195.332Z" fill="#34A1D3"/>
<path d="M231.24 173.52C230.707 173.445 230.168 173.426 229.63 173.464C229.569 173.464 229.574 173.577 229.63 173.577C230.146 173.577 230.693 173.577 231.225 173.577C231.231 173.577 231.238 173.575 231.243 173.57C231.248 173.566 231.251 173.561 231.253 173.554C231.255 173.548 231.255 173.541 231.252 173.535C231.25 173.529 231.246 173.524 231.24 173.52Z" fill="#263238"/>
<path d="M225.424 183.99C224.569 184.013 223.725 184.188 222.932 184.506C222.932 184.506 222.932 184.547 222.932 184.542C223.752 184.346 224.583 184.269 225.414 184.129C225.491 184.104 225.491 183.99 225.424 183.99Z" fill="#263238"/>
<path d="M223.681 180.373C223.326 180.369 222.971 180.402 222.623 180.471C222.615 180.471 222.607 180.474 222.601 180.48C222.595 180.486 222.592 180.494 222.592 180.502C222.592 180.51 222.595 180.518 222.601 180.524C222.607 180.53 222.615 180.533 222.623 180.533C222.976 180.552 223.331 180.535 223.681 180.481C223.692 180.478 223.702 180.47 223.709 180.461C223.717 180.451 223.72 180.439 223.72 180.427C223.72 180.415 223.717 180.403 223.709 180.393C223.702 180.384 223.692 180.376 223.681 180.373Z" fill="#263238"/>
<path d="M194.459 175.197C197.088 176.087 199.607 177.273 201.967 178.732C204.419 180.296 206.543 182.322 208.221 184.697C211.762 189.62 214.472 195.09 216.245 200.889C217.23 204.1 217.84 207.414 218.061 210.765C218.056 210.787 218.044 210.806 218.027 210.82C218.009 210.833 217.988 210.841 217.966 210.841C217.944 210.841 217.922 210.833 217.905 210.82C217.887 210.806 217.875 210.787 217.87 210.765C217.127 204.954 215.476 199.295 212.979 193.995C210.533 188.799 207.437 183.268 202.71 179.826C200.13 177.953 197.241 176.73 194.351 175.43C194.201 175.357 194.31 175.146 194.459 175.197Z" fill="#34A1D3"/>
<path d="M214.356 197.164C212.53 195.499 210.526 194.04 208.381 192.814C205.042 190.961 202.328 189.718 201.497 188.118C200.666 186.519 203.246 184.398 203.246 184.398C203.246 184.398 199.841 186.065 198.427 184.842C197.013 183.619 194.041 175.038 194.041 175.038C194.041 175.038 201.91 177.84 206.827 183.51C211.745 189.181 214.356 197.164 214.356 197.164Z" fill="#34A1D3"/>
<path d="M213.949 195.389C210.012 188 204.759 181.317 197.561 176.906C199.439 178.116 201.201 179.498 202.824 181.034C201.359 180.954 199.9 181.262 198.593 181.926C198.567 181.926 198.593 181.978 198.618 181.968C200.008 181.447 201.485 181.199 202.968 181.235C202.985 181.24 203.003 181.24 203.02 181.235L203.778 181.973C203.016 182.008 202.258 182.108 201.513 182.272C201.513 182.272 201.513 182.308 201.513 182.303C202.299 182.155 203.098 182.089 203.897 182.107C205.215 183.44 206.456 184.847 207.612 186.323C207.082 186.249 206.542 186.288 206.028 186.436C206.02 186.436 206.012 186.439 206.006 186.445C206 186.451 205.997 186.459 205.997 186.467C205.997 186.475 206 186.483 206.006 186.489C206.012 186.495 206.02 186.498 206.028 186.498C206.588 186.433 207.154 186.424 207.715 186.472C207.932 186.746 208.149 187.019 208.36 187.298C206.753 187.199 205.14 187.356 203.582 187.762C203.582 187.762 203.582 187.804 203.582 187.798C205.198 187.483 206.847 187.376 208.489 187.478C208.691 187.747 208.882 187.994 209.078 188.289C208.119 188.265 207.163 188.375 206.235 188.614C206.198 188.614 206.209 188.681 206.235 188.67C207.2 188.464 208.19 188.387 209.176 188.443C210.027 189.61 210.837 190.802 211.616 192.009C211.2 191.932 210.772 191.957 210.368 192.081C210.368 192.081 210.368 192.122 210.368 192.117C210.819 192.083 211.274 192.105 211.72 192.184C212.421 193.273 213.097 194.377 213.747 195.482C213.851 195.559 214 195.487 213.949 195.389Z" fill="#263238"/>
<path d="M207.823 189.259C207.05 189.209 206.275 189.303 205.537 189.537C205.537 189.537 205.537 189.579 205.537 189.574C206.29 189.447 207.05 189.37 207.813 189.341C207.869 189.341 207.88 189.264 207.823 189.259Z" fill="#263238"/>
<path d="M200.96 180.255C200.615 180.231 200.268 180.252 199.928 180.316C199.887 180.316 199.902 180.384 199.928 180.378C200.274 180.342 200.614 180.378 200.96 180.347C200.972 180.347 200.984 180.343 200.993 180.334C201.001 180.325 201.006 180.313 201.006 180.301C201.006 180.289 201.001 180.277 200.993 180.268C200.984 180.259 200.972 180.255 200.96 180.255Z" fill="#263238"/>
<path d="M224.51 221.596H206.744L209.273 203.041L209.923 198.283H221.326L221.976 203.041L224.51 221.596Z" fill="#455A64"/>
<path d="M221.977 203.041H209.273L209.924 198.283H221.327L221.977 203.041Z" fill="#263238"/>
<path d="M222.958 196.632H208.293V200.662H222.958V196.632Z" fill="#455A64"/>
</svg>
