<svg width="200" height="108" viewBox="0 0 200 108" fill="none" xmlns="http://www.w3.org/2000/svg">
<g clip-path="url(#clip0_673_867)">
<path d="M194.607 46.1295C160.039 27.0175 -2.8501 -1.70483 2.23237 41.6569C5.15932 44.0296 8.32732 46.2402 11.462 48.193C29.9141 17.6404 153.934 31.4751 194.607 46.1295Z" fill="#C2CDD6"/>
<path d="M48.9431 47.2774L60.0965 66.6656C50.1869 67.0298 29.4804 59.8815 11.3332 48.2099C8.31072 46.1115 5.15938 44.0298 2.23242 41.6571C9.00581 65.6729 27.2829 81.389 65.2026 88.9319L50.6741 102.208C50.6741 102.208 97.3883 89.6177 100.775 86.4286C89.284 78.6128 48.9431 47.2774 48.9431 47.2774Z" fill="#C2CDD6"/>
</g>
<defs>
<clipPath id="clip0_673_867">
<rect width="190.213" height="83.673" fill="white" transform="translate(0 24.3906) rotate(-7.36725)"/>
</clipPath>
</defs>
</svg>
