<svg width="466" height="311" viewBox="0 0 466 311" fill="none" xmlns="http://www.w3.org/2000/svg">
<path d="M99.1713 113.704C99.4655 113.522 99.8043 113.426 100.15 113.426C100.496 113.426 100.834 113.522 101.129 113.704C101.296 113.803 101.464 113.903 101.632 113.99L102.154 114.257C102.467 114.399 102.736 114.625 102.929 114.91C103.122 115.195 103.232 115.528 103.247 115.872L103.322 118.283L111.169 118.041L111.095 115.63C111.086 115.284 111.174 114.943 111.349 114.645C111.523 114.346 111.777 114.102 112.083 113.94C112.425 113.751 112.757 113.543 113.077 113.319C113.358 113.12 113.688 113.004 114.032 112.982C114.375 112.96 114.717 113.034 115.022 113.194L117.14 114.331L120.868 107.403L118.737 106.248C118.433 106.083 118.181 105.837 118.009 105.538C117.837 105.238 117.751 104.897 117.762 104.552C117.762 104.16 117.762 103.769 117.724 103.383C117.691 103.039 117.754 102.692 117.907 102.382C118.059 102.071 118.295 101.809 118.588 101.625L120.638 100.382L116.494 93.7093L114.437 94.983C114.144 95.1632 113.806 95.2587 113.462 95.2587C113.118 95.2587 112.78 95.1632 112.486 94.983C112.325 94.8836 112.157 94.7842 111.983 94.691L111.467 94.4362C111.152 94.2933 110.882 94.0653 110.689 93.7777C110.496 93.4902 110.387 93.1545 110.374 92.8083L110.306 90.3976L102.452 90.6399L102.533 93.0445C102.542 93.3911 102.455 93.7335 102.28 94.0332C102.106 94.3328 101.851 94.5778 101.545 94.7407C101.203 94.93 100.871 95.1374 100.551 95.362C100.269 95.5614 99.9372 95.6785 99.5928 95.7005C99.2483 95.7224 98.9045 95.6483 98.5997 95.4863L96.4809 94.3555L92.7529 101.277L94.8717 102.408C95.1755 102.572 95.4276 102.818 95.5999 103.118C95.7722 103.417 95.8578 103.759 95.8472 104.104C95.8472 104.494 95.8596 104.885 95.8845 105.279C95.9179 105.623 95.8548 105.97 95.7022 106.28C95.5497 106.591 95.3138 106.853 95.0208 107.037L92.9766 108.28L97.1271 114.946L99.1713 113.704ZM101.141 101.277C101.742 100.155 102.662 99.237 103.784 98.6383C104.907 98.0396 106.182 97.7874 107.448 97.9137C108.715 98.04 109.915 98.5391 110.897 99.3478C111.88 100.157 112.6 101.239 112.967 102.457C113.335 103.675 113.332 104.975 112.96 106.192C112.588 107.409 111.864 108.488 110.879 109.293C109.893 110.098 108.691 110.593 107.424 110.714C106.158 110.836 104.883 110.579 103.763 109.976C102.265 109.166 101.149 107.797 100.658 106.167C100.167 104.537 100.34 102.779 101.141 101.277Z" fill="#DBDBDB"/>
<path d="M355.657 127.417C355.866 127.545 356.035 127.73 356.145 127.949C356.255 128.169 356.301 128.415 356.279 128.659C356.279 128.79 356.279 128.926 356.279 129.063C356.279 129.2 356.279 129.337 356.279 129.473C356.296 129.712 356.247 129.951 356.138 130.164C356.028 130.376 355.862 130.554 355.657 130.679L354.197 131.524L356.943 136.289L358.41 135.444C358.62 135.325 358.859 135.267 359.1 135.276C359.342 135.284 359.576 135.36 359.777 135.494C360.006 135.643 360.242 135.779 360.485 135.904C360.702 136.012 360.884 136.177 361.012 136.382C361.141 136.588 361.21 136.824 361.212 137.066V138.75H366.711V137.066C366.713 136.824 366.782 136.588 366.91 136.382C367.039 136.177 367.221 136.012 367.438 135.904C367.681 135.779 367.917 135.643 368.146 135.494C368.347 135.36 368.581 135.284 368.823 135.276C369.064 135.267 369.303 135.325 369.513 135.444L370.979 136.289L373.726 131.524L372.259 130.679C372.055 130.553 371.889 130.373 371.779 130.16C371.669 129.946 371.621 129.707 371.638 129.467C371.638 129.337 371.638 129.2 371.638 129.063C371.638 128.926 371.638 128.79 371.638 128.659C371.615 128.415 371.661 128.169 371.77 127.949C371.88 127.729 372.05 127.545 372.259 127.417L373.719 126.578L370.973 121.812L369.513 122.651C369.303 122.772 369.063 122.832 368.82 122.825C368.578 122.817 368.342 122.742 368.14 122.608C367.912 122.458 367.675 122.321 367.432 122.197C367.215 122.09 367.032 121.924 366.904 121.719C366.776 121.514 366.707 121.277 366.705 121.036V119.352H361.206V121.036C361.204 121.277 361.135 121.514 361.006 121.719C360.878 121.924 360.695 122.09 360.479 122.197C360.236 122.322 360 122.459 359.771 122.608C359.568 122.742 359.333 122.817 359.09 122.825C358.848 122.832 358.608 122.772 358.397 122.651L356.937 121.812L354.191 126.578L355.657 127.417ZM363.958 124.527C364.851 124.526 365.723 124.79 366.466 125.285C367.209 125.78 367.788 126.484 368.13 127.308C368.473 128.132 368.563 129.039 368.389 129.915C368.216 130.79 367.787 131.594 367.156 132.226C366.526 132.857 365.722 133.288 364.847 133.462C363.972 133.637 363.064 133.548 362.24 133.206C361.415 132.865 360.71 132.287 360.214 131.545C359.718 130.803 359.454 129.931 359.454 129.038C359.454 127.843 359.928 126.697 360.773 125.851C361.617 125.005 362.763 124.529 363.958 124.527Z" fill="#DBDBDB"/>
<path d="M383.158 174.408C383.158 178.645 384.414 182.787 386.768 186.31C389.122 189.834 392.468 192.579 396.383 194.201C400.297 195.822 404.605 196.247 408.761 195.42C412.917 194.593 416.734 192.553 419.73 189.557C422.726 186.561 424.767 182.743 425.593 178.588C426.42 174.432 425.996 170.124 424.374 166.21C422.753 162.295 420.007 158.949 416.484 156.595C412.961 154.241 408.818 152.985 404.581 152.985C401.768 152.985 398.982 153.539 396.383 154.615C393.784 155.692 391.422 157.27 389.433 159.259C387.443 161.249 385.865 163.611 384.788 166.21C383.712 168.809 383.158 171.595 383.158 174.408ZM394.578 174.408C394.577 172.428 395.163 170.492 396.262 168.845C397.362 167.198 398.925 165.914 400.754 165.155C402.583 164.397 404.597 164.198 406.539 164.584C408.481 164.97 410.265 165.924 411.665 167.324C413.066 168.724 414.019 170.508 414.405 172.451C414.791 174.393 414.592 176.406 413.834 178.235C413.076 180.065 411.792 181.628 410.145 182.727C408.498 183.827 406.562 184.413 404.581 184.412C401.928 184.412 399.384 183.358 397.508 181.482C395.632 179.606 394.578 177.061 394.578 174.408Z" fill="#EBEBEB"/>
<path d="M400.462 153.873H408.701L408.247 148.039H400.922L400.462 153.873Z" fill="#EBEBEB"/>
<path d="M416.144 156.651L421.972 162.479L425.775 158.03L420.593 152.848L416.144 156.651Z" fill="#EBEBEB"/>
<path d="M425.271 169.699V177.937L431.106 177.484V170.158L425.271 169.699Z" fill="#EBEBEB"/>
<path d="M422.494 185.381L416.672 191.209L421.114 195.012L426.296 189.83L422.494 185.381Z" fill="#EBEBEB"/>
<path d="M409.446 194.508H401.207L401.661 200.343H408.986L409.446 194.508Z" fill="#EBEBEB"/>
<path d="M393.763 191.731L387.935 185.909L384.133 190.352L389.315 195.534L393.763 191.731Z" fill="#EBEBEB"/>
<path d="M384.636 178.683V170.444L378.802 170.898V178.223L384.636 178.683Z" fill="#EBEBEB"/>
<path d="M387.414 163L393.236 157.172L388.794 153.37L383.612 158.552L387.414 163Z" fill="#EBEBEB"/>
<path d="M39.25 71.1798C39.25 75.417 40.5065 79.559 42.8605 83.0821C45.2146 86.6052 48.5605 89.3511 52.4751 90.9726C56.3898 92.5941 60.6973 93.0184 64.8531 92.1917C69.0089 91.3651 72.8262 89.3247 75.8223 86.3285C78.8185 83.3324 80.8589 79.5151 81.6855 75.3593C82.5121 71.2036 82.0879 66.896 80.4664 62.9813C78.8449 59.0667 76.099 55.7208 72.5759 53.3667C69.0528 51.0127 64.9108 49.7562 60.6736 49.7562C54.9917 49.7562 49.5425 52.0133 45.5248 56.031C41.5071 60.0487 39.25 65.4979 39.25 71.1798ZM50.6701 71.1798C50.6689 69.1995 51.255 67.2634 52.3545 65.6164C53.4539 63.9693 55.0171 62.6854 56.8464 61.927C58.6757 61.1687 60.6888 60.9699 62.6311 61.3559C64.5733 61.742 66.3574 62.6954 67.7577 64.0957C69.158 65.4959 70.1114 67.28 70.4974 69.2223C70.8835 71.1646 70.6847 73.1777 69.9263 75.007C69.168 76.8363 67.884 78.3995 66.237 79.4989C64.59 80.5983 62.6538 81.1845 60.6736 81.1833C58.0205 81.1833 55.4761 80.1293 53.6001 78.2533C51.724 76.3773 50.6701 73.8329 50.6701 71.1798Z" fill="#EBEBEB"/>
<path d="M56.5542 50.6449H64.7931L64.3395 44.8168H57.014L56.5542 50.6449Z" fill="#EBEBEB"/>
<path d="M72.2363 53.4222L78.0644 59.2503L81.867 54.8015L76.6851 49.6196L72.2363 53.4222Z" fill="#EBEBEB"/>
<path d="M81.3638 66.4703V74.7092L87.1981 74.2556V66.9301L81.3638 66.4703Z" fill="#EBEBEB"/>
<path d="M78.5861 82.1526L72.7642 87.9808L77.2067 91.7833L82.3886 86.6014L78.5861 82.1526Z" fill="#EBEBEB"/>
<path d="M65.5382 91.28H57.2993L57.7529 97.1143H65.0784L65.5382 91.28Z" fill="#EBEBEB"/>
<path d="M49.8558 88.5028L44.0277 82.6809L40.2251 87.1234L45.407 92.3054L49.8558 88.5028Z" fill="#EBEBEB"/>
<path d="M40.7284 75.4547V67.2158L34.894 67.6694V74.9949L40.7284 75.4547Z" fill="#EBEBEB"/>
<path d="M43.5062 59.7721L49.3281 53.944L44.8855 50.1414L39.7036 55.3233L43.5062 59.7721Z" fill="#EBEBEB"/>
<path d="M264.894 96.2257C261.166 96.2878 251.69 96.4431 248.062 96.4804L242.389 96.5115H242.109V96.2257V89.2729V88.9623H242.42L253.672 89.0058C256.475 89.0058 262.123 89.0865 264.925 89.13H265.074V89.2729L264.931 96.2257H264.894ZM264.894 96.2257L264.751 89.2729L264.894 89.4159C262.085 89.4594 256.45 89.5153 253.641 89.5401L242.389 89.5836L242.7 89.2729V96.2257L242.414 95.9399H248.006C251.572 95.9834 261.24 96.1387 264.931 96.2008L264.894 96.2257Z" fill="#EBEBEB"/>
<path d="M252.343 105.005C248.615 105.067 239.133 105.223 235.511 105.26L229.838 105.291H229.552V105.005V98.0525V97.7419H229.863L241.115 97.7854C243.911 97.7854 249.565 97.8662 252.368 97.9096H252.511V98.0525L252.343 105.005ZM252.343 105.005L252.194 98.0525L252.343 98.1955C249.534 98.2389 243.893 98.2949 241.09 98.3197L229.838 98.3632L230.149 98.0525L230.118 105.005L229.838 104.719H235.43C238.997 104.763 248.671 104.918 252.361 104.98L252.343 105.005Z" fill="#EBEBEB"/>
<path d="M277.444 98.0402H254.939V104.993H277.444V98.0402Z" fill="#EBEBEB"/>
<path d="M182.672 155.333C178.944 155.395 169.462 155.551 165.84 155.588L160.167 155.619H159.881V155.333V148.38V148.07H160.192L171.444 148.113C174.247 148.113 179.894 148.194 182.697 148.238H182.84V148.38L182.672 155.333ZM182.672 155.333L182.523 148.38L182.672 148.523C179.863 148.567 174.222 148.623 171.42 148.648L160.167 148.691L160.478 148.38L160.416 155.333L160.136 155.047L165.728 155.078C169.295 155.116 178.969 155.271 182.659 155.333H182.672Z" fill="#EBEBEB"/>
<path d="M416.542 39.523C412.814 39.5851 403.339 39.7404 399.71 39.7839H394.037H393.758V39.4981V32.5454V32.2347H394.068L405.321 32.2782C408.123 32.2782 413.771 32.3652 416.573 32.4025H416.722V32.5454L416.579 39.4981L416.542 39.523ZM416.542 39.523L416.399 32.5703L416.542 32.7194C413.734 32.7567 408.098 32.8188 405.29 32.8374L394.037 32.8809L394.348 32.5703V39.523L394.062 39.2434H399.654C403.221 39.2807 412.889 39.436 416.579 39.4981L416.542 39.523Z" fill="#EBEBEB"/>
<path d="M429.094 41.3373H406.589V48.29H429.094V41.3373Z" fill="#EBEBEB"/>
<path d="M59.4116 39.5291C55.6836 39.5975 46.2021 39.7528 42.5797 39.7901H36.9069H36.6211V39.5043V32.5578V32.2409H36.9318L48.1593 32.3093C50.9553 32.3093 56.6094 32.3962 59.4116 32.4335H59.5545V32.5764L59.4116 39.5229V39.5291ZM59.4116 39.5291L59.2625 32.5826L59.4116 32.7255C56.6032 32.7628 50.9615 32.825 48.1593 32.8498L36.9069 32.8871L37.2176 32.5826V39.5291L36.938 39.2495H42.53C46.0964 39.2868 55.7706 39.4484 59.4613 39.5043L59.4116 39.5291Z" fill="#EBEBEB"/>
<path d="M49.4583 247.993C53.1863 247.93 62.7797 247.775 66.3835 247.732H71.9755L71.6896 248.017V241.065L72.0003 241.375L60.748 241.332C57.9457 241.332 52.2978 241.245 49.4956 241.208L49.6385 241.065L49.4956 248.017L49.4583 247.993ZM49.4583 247.993L49.3154 241.04V240.897H49.4645C52.273 240.866 57.9085 240.797 60.7169 240.779L71.9692 240.735H72.2799V241.046V247.999V248.285H72.0003H66.3275C62.7424 248.247 53.1988 248.092 49.4956 248.03L49.4583 247.993Z" fill="#EBEBEB"/>
<path d="M36.9006 256.753H59.4053V249.801H36.9006V256.753Z" fill="#EBEBEB"/>
<path d="M406.588 247.999C410.316 247.937 419.91 247.782 423.52 247.738H429.112L428.832 248.024V241.071L429.143 241.382L417.89 241.338C415.088 241.338 409.44 241.251 406.638 241.214L406.787 241.071L406.638 248.024L406.588 247.999ZM406.588 247.999L406.445 241.077V240.934H406.588C409.397 240.897 415.038 240.829 417.841 240.81L429.093 240.767H429.404V241.077V248.03V248.316H429.118L423.445 248.285C419.86 248.248 410.316 248.092 406.613 248.03L406.588 247.999Z" fill="#EBEBEB"/>
<path d="M416.107 256.965H346.437V289.628H416.107V256.965Z" fill="#EBEBEB"/>
<path opacity="0.1" d="M416.113 256.965H393.043V289.628H416.113V256.965Z" fill="#020100"/>
<path opacity="0.1" d="M416.107 256.965H346.437V264.141L416.107 260.556V256.965Z" fill="#020100"/>
<path d="M419.127 250.77H343.411V258.959H419.127V250.77Z" fill="#EBEBEB"/>
<path opacity="0.1" d="M419.132 250.77H394.062V258.959H419.132V250.77Z" fill="#020100"/>
<path d="M377.814 263.377H361.666V268.385H377.814V263.377Z" fill="#A6A6A6"/>
<path d="M385.065 213.478H340.26V245.955H385.065V213.478Z" fill="#EBEBEB"/>
<path d="M356.092 210.11H340.26V213.478H356.999L356.092 210.11Z" fill="#EBEBEB"/>
<g opacity="0.3">
<path d="M385.065 213.477H340.26V245.955H385.065V213.477Z" fill="black"/>
<path d="M356.092 210.11H340.26V213.478H356.999L356.092 210.11Z" fill="black"/>
</g>
<path d="M354.763 211.427H341.814V213.385H354.763V211.427Z" fill="white"/>
<path d="M385.065 245.955H340.261L339.938 215.491H384.742L385.065 245.955Z" fill="#EBEBEB"/>
<path d="M355.732 212.403H339.9L339.938 215.491H356.676L355.732 212.403Z" fill="#EBEBEB"/>
<g opacity="0.1">
<path d="M385.065 245.955H340.261L339.938 215.491H384.742L385.065 245.955Z" fill="black"/>
<path d="M355.732 212.403H339.901L339.938 215.491H356.677L355.732 212.403Z" fill="black"/>
</g>
<path d="M379.294 215.926H334.489V248.403H379.294V215.926Z" fill="#EBEBEB"/>
<path d="M350.321 212.558H334.489V215.926H351.228L350.321 212.558Z" fill="#EBEBEB"/>
<g opacity="0.2">
<path d="M379.294 215.926H334.489V248.403H379.294V215.926Z" fill="white"/>
<path d="M350.321 212.558H334.489V215.926H351.228L350.321 212.558Z" fill="white"/>
</g>
<path d="M348.99 213.875H336.042V215.832H348.99V213.875Z" fill="white"/>
<path d="M379.293 248.403H334.489L334.16 217.939H378.964L379.293 248.403Z" fill="#EBEBEB"/>
<path d="M349.959 214.851H334.128L334.159 217.939H350.898L349.959 214.851Z" fill="#EBEBEB"/>
<g opacity="0.4">
<path d="M379.293 248.403H334.489L334.16 217.939H378.964L379.293 248.403Z" fill="white"/>
<path d="M349.96 214.851H334.128L334.159 217.939H350.898L349.96 214.851Z" fill="white"/>
</g>
<path d="M402.276 218.113H332.606V250.776H402.276V218.113Z" fill="#DBDBDB"/>
<path d="M402.283 218.113H379.212V250.776H402.283V218.113Z" fill="#C7C7C7"/>
<path opacity="0.1" d="M402.282 218.113H332.606V225.289L402.282 221.698V218.113Z" fill="#020100"/>
<path d="M363.984 224.519H347.835V229.527H363.984V224.519Z" fill="#A6A6A6"/>
<path d="M415.425 215.771L341.223 201.385L339.667 209.411L413.869 223.797L415.425 215.771Z" fill="#DBDBDB"/>
<path d="M417.171 214.827L392.541 210.151L391.013 218.196L415.644 222.873L417.171 214.827Z" fill="#C7C7C7"/>
<path d="M244.172 51.384L224.457 89.9005L218.909 81.3137L153.165 123.819L140.764 104.639L206.501 62.1393L200.952 53.5587L244.172 51.384Z" fill="#EBEBEB"/>
<path d="M115.966 120.675L128.362 139.856L126.697 140.931L114.289 121.75L115.966 120.675Z" fill="#EBEBEB"/>
<path d="M124.652 115.058L137.054 134.233L131.375 137.911L118.979 118.73L124.652 115.058Z" fill="#EBEBEB"/>
<path d="M136.886 107.149L149.288 126.323L140.521 131.996L128.119 112.809L136.886 107.149Z" fill="#EBEBEB"/>
<path d="M136.613 162.696L125.224 184.927L122.024 179.975L84.0918 204.499L76.9341 193.433L114.873 168.903L111.673 163.951L136.613 162.696Z" fill="#DBDBDB"/>
<path d="M74.6962 194.881L81.8477 205.947L76.7901 209.221L69.6323 198.149L74.6962 194.881Z" fill="#DBDBDB"/>
<path d="M67.0994 199.653L63.8218 201.76L70.9415 212.836L74.2192 210.728L67.0994 199.653Z" fill="#DBDBDB"/>
<path d="M62.6183 202.685L69.7761 213.757L68.813 214.379L61.6553 203.306L62.6183 202.685Z" fill="#DBDBDB"/>
<path d="M117.29 239.039C112.847 232.416 106.727 223.313 102.483 216.671L104.931 215.074C109.138 221.636 115.258 231.173 119.284 237.734L119.315 237.784H119.266L117.29 238.989V239.039ZM117.29 239.039L119.203 237.734V237.815C114.966 231.602 108.759 222.083 104.596 215.689L105.031 215.783L103.08 217.025L103.173 216.609C107.311 223.009 113.214 232.453 117.308 239.033L117.29 239.039Z" fill="#EBEBEB"/>
<path d="M253.641 135.109C253.318 135.513 231.037 179.783 230.77 180.137L230.614 179.895L224.165 169.953C225.407 169.798 147.871 219.399 148.176 219.43L147.933 219.585L147.772 219.343L133.382 197.074L133.22 196.826L133.469 196.671C133.531 196.876 210.278 146.722 209.768 147.691L203.344 137.75L203.189 137.507C203.431 137.507 253.367 135.165 253.641 135.14V135.109ZM253.641 135.109C253.641 134.947 202.76 138.216 203.617 137.538L210.073 147.48C210.502 147.797 133.854 196.907 133.792 197.143L133.879 196.739L148.263 219.001L147.859 218.914C148.114 218.964 224.339 169.208 224.463 169.736L230.894 179.708C229.881 180.33 253.883 135.041 253.641 135.096V135.109Z" fill="#EBEBEB"/>
<path d="M114.947 209.004C117.395 212.676 123.584 221.952 125.933 225.519L129.58 231.111L129.735 231.347L129.493 231.509L122.913 235.783L122.658 235.951L122.484 235.69C120.111 231.962 114.04 222.543 111.772 218.945L108.237 213.353L108.156 213.235L108.274 213.161L114.947 209.004ZM114.947 209.004L108.43 213.384L108.473 213.185L112.127 218.715C114.457 222.213 120.639 231.707 123.006 235.355L122.577 235.261L129.182 231.03L129.101 231.422L125.51 225.879C123.255 222.332 117.209 212.688 114.904 209.004H114.947Z" fill="#EBEBEB"/>
<path d="M129.119 199.821C133.468 206.37 139.539 215.429 143.745 221.94L143.894 222.17L143.665 222.319L133.506 228.924L133.245 229.098L133.077 228.831L125.913 217.647C123.484 213.919 121.11 210.091 118.706 206.314L129.119 199.79V199.821ZM129.119 199.821C126.634 201.511 121.557 204.872 119.047 206.55L119.097 206.307C121.52 209.998 123.974 213.676 126.373 217.386L133.586 228.495L133.158 228.402L143.354 221.853L143.273 222.238C139.147 215.82 133.232 206.388 129.107 199.821H129.119Z" fill="#EBEBEB"/>
<path d="M36.8389 289.628C162.51 289.249 303.49 289.243 429.161 289.628C303.49 290.013 162.51 290.007 36.8389 289.628Z" fill="#263238"/>
<path d="M67.7882 158.104C67.7882 158.104 51.0681 155.768 54.9763 135.587C54.9763 135.587 73.6536 139.8 67.7882 158.104Z" fill="#34A1D3"/>
<path opacity="0.1" d="M67.7882 158.104C67.7882 158.104 51.0681 155.768 54.9763 135.587C54.9763 135.587 73.6536 139.8 67.7882 158.104Z" fill="black"/>
<path d="M66.9422 153.892C66.6129 152.873 66.2277 151.872 65.8051 150.884C65.8051 150.754 65.8051 150.63 65.7616 150.505C65.7616 150.226 65.7119 149.946 65.6933 149.673C65.6436 149.052 65.6063 148.467 65.569 147.865C65.5007 146.659 65.4199 145.448 65.4013 144.242C65.4013 144.18 65.3019 144.18 65.3019 144.242C65.3019 145.448 65.3019 146.653 65.3019 147.865C65.3019 148.486 65.3578 149.07 65.4013 149.673C65.4013 149.803 65.4013 149.94 65.4013 150.071C64.4654 148.061 63.3442 146.143 62.0523 144.342C61.4973 143.542 60.9022 142.77 60.2691 142.03C59.598 141.266 58.8959 140.539 58.2249 139.787C58.1814 139.738 58.1068 139.787 58.1503 139.862C59.3524 141.191 60.4317 142.626 61.375 144.149C61.8845 144.92 62.365 145.707 62.8165 146.51L62.6612 146.448C62.4624 146.367 62.2698 146.28 62.0399 146.206L60.6791 145.69C59.7782 145.355 58.8835 145.032 57.9888 144.69C57.9329 144.69 57.8956 144.764 57.9515 144.783C58.84 145.137 59.7223 145.51 60.5984 145.889L61.8907 146.448L62.5121 146.715C62.6544 146.786 62.8045 146.841 62.9594 146.877C63.295 147.498 63.6305 148.12 63.9349 148.741C64.7155 150.302 65.3983 151.91 65.9791 153.556C66.0226 153.668 66.0599 153.786 66.0972 153.898C65.6585 153.645 65.2016 153.425 64.7302 153.239L62.9967 152.45C61.8286 151.916 60.6605 151.369 59.5359 150.729C59.48 150.698 59.4303 150.791 59.4924 150.822C60.6357 151.444 61.7665 152.115 62.9159 152.742C63.4876 153.053 64.0654 153.364 64.6557 153.643C65.1441 153.931 65.6745 154.141 66.2276 154.265C66.7861 155.794 67.1534 157.386 67.3212 159.005C67.5076 161.286 67.489 163.591 67.5387 165.877C67.5387 165.915 67.6008 165.915 67.6008 165.877C67.7686 163.802 67.8618 161.708 67.8742 159.62C67.8723 157.673 67.5576 155.739 66.9422 153.892Z" fill="#263238"/>
<path d="M64.3703 142.024C64.209 143.204 64.1529 144.395 64.2026 145.585H64.2523C64.3206 144.404 64.3331 143.224 64.4698 142.049C64.476 141.987 64.3765 141.962 64.3703 142.024Z" fill="#263238"/>
<path d="M59.5861 143.037C58.8391 142.751 58.1196 142.397 57.4363 141.981C57.3866 141.944 57.3307 142.037 57.3866 142.068C58.056 142.52 58.7889 142.869 59.5613 143.105C59.5697 143.107 59.5782 143.105 59.5854 143.1C59.5926 143.096 59.5981 143.089 59.601 143.081C59.6039 143.073 59.604 143.065 59.6013 143.057C59.5986 143.049 59.5932 143.042 59.5861 143.037Z" fill="#263238"/>
<path d="M68.3473 190.128C68.3473 188.264 68.2976 186.431 68.279 184.586C68.2417 178.447 68.192 172.314 68.0801 166.182C67.9932 161.31 67.8792 156.439 67.7384 151.568C67.7367 151.556 67.7325 151.544 67.7261 151.533C67.7197 151.522 67.7112 151.513 67.7011 151.506C67.7011 150.176 67.7011 148.847 67.7011 147.517C67.7011 147.517 67.6639 147.467 67.6204 147.467C67.5769 147.467 67.5396 147.467 67.5396 147.523C67.5396 148.853 67.5396 150.184 67.5396 151.518C67.5291 151.524 67.5201 151.532 67.5136 151.541C67.5071 151.551 67.5032 151.562 67.5023 151.574C67.26 160.273 67.0363 168.909 66.9866 177.583C66.9866 179.342 66.9866 181.106 66.9866 182.871C66.9286 188.517 66.9079 194.169 66.9245 199.827C66.9245 200.728 66.9245 201.623 66.9245 202.524C66.9245 207.699 66.9742 212.869 66.9804 218.057C66.9804 218.336 67.2848 218.473 67.6017 218.486C67.9186 218.498 68.3784 218.355 68.3784 218.038C68.3784 212.334 68.4157 206.631 68.4157 200.927C68.3473 197.335 68.3473 193.738 68.3473 190.128Z" fill="#263238"/>
<path d="M61.338 184.536C61.338 184.536 53.298 178.577 45.668 182.604C38.038 186.63 36.8389 202.151 36.8389 202.151C36.8389 202.151 48.0229 203.748 55.0999 197.031C61.9035 190.557 61.338 184.536 61.338 184.536Z" fill="#34A1D3"/>
<path d="M63.5313 184.896C62.053 184.308 60.4521 184.094 58.8713 184.275C58.5471 184.217 58.2189 184.184 57.8896 184.176L56.7526 184.089L54.4101 183.927C52.8257 183.809 51.2351 183.71 49.6507 183.548C49.6397 183.552 49.6302 183.559 49.6235 183.568C49.6168 183.578 49.6132 183.589 49.6132 183.601C49.6132 183.612 49.6168 183.624 49.6235 183.633C49.6302 183.643 49.6397 183.65 49.6507 183.654C51.2165 183.852 52.7574 184.076 54.348 184.231C55.1557 184.312 55.9635 184.399 56.7774 184.455L57.3615 184.511C57.1254 184.567 56.883 184.623 56.6531 184.691C55.3897 185.057 54.1675 185.553 53.0059 186.17C52.3846 186.282 51.7632 186.462 51.1419 186.611C50.1478 186.841 49.1536 187.102 48.1657 187.357C46.2147 187.872 44.2824 188.444 42.3438 189.009C42.2817 189.009 42.3438 189.121 42.3749 189.109C44.3135 188.63 46.2582 188.196 48.1968 187.736L51.0239 187.059L51.7632 186.885C49.6036 188.224 47.6735 189.903 46.047 191.855C44.4793 193.778 43.1464 195.88 42.0767 198.118C42.0767 198.18 42.1326 198.236 42.1636 198.174C43.4841 195.872 45.0986 193.752 46.9666 191.868C46.9355 191.973 46.8982 192.079 46.8671 192.185C46.7118 192.663 46.5689 193.135 46.4198 193.607C46.1215 194.552 45.7984 195.502 45.5375 196.453C45.5375 196.515 45.612 196.534 45.6369 196.453C45.9724 195.533 46.2955 194.589 46.6186 193.688L47.097 192.327L47.3394 191.625L47.4139 191.408C48.3118 190.538 49.2644 189.727 50.2658 188.978C51.5904 188.002 53.0227 187.181 54.5344 186.53C54.5344 186.673 54.4847 186.81 54.4536 186.94C54.3728 187.307 54.2921 187.674 54.2175 188.04C54.0622 188.804 53.9131 189.569 53.7639 190.333C53.4595 191.886 53.2731 193.44 52.9811 195.018C52.9811 195.08 53.068 195.105 53.0805 195.018C53.4408 193.452 53.9068 191.911 54.2548 190.345C54.4288 189.562 54.6027 188.773 54.7705 187.991L54.9942 186.885C55.0315 186.679 55.0812 186.474 55.106 186.263L55.541 186.083C57.6535 185.306 59.9835 184.735 62.2327 185.17C63.2962 185.368 64.2944 185.825 65.1387 186.502C65.9831 187.178 66.6474 188.052 67.0729 189.047C67.1412 189.221 67.4208 189.115 67.3774 188.935C66.9114 187.077 65.2959 185.642 63.5313 184.896Z" fill="#263238"/>
<path d="M51.2226 191.526C50.9907 192.545 50.7649 193.564 50.5454 194.583C50.2889 195.559 50.1 196.551 49.98 197.553C49.98 197.596 50.0359 197.596 50.0483 197.553C50.3413 196.573 50.5696 195.574 50.7318 194.564C50.9306 193.558 51.1232 192.551 51.3221 191.545C51.3345 191.489 51.2351 191.464 51.2226 191.526Z" fill="#263238"/>
<path d="M43.4437 194.117C42.4247 194.633 41.4306 195.223 40.337 195.652C40.3282 195.652 40.3197 195.655 40.3124 195.66C40.3051 195.665 40.2993 195.672 40.2956 195.68C40.2919 195.688 40.2904 195.697 40.2913 195.706C40.2921 195.715 40.2953 195.723 40.3005 195.73C40.3057 195.738 40.3128 195.743 40.3209 195.747C40.329 195.75 40.3379 195.752 40.3467 195.751C40.3555 195.749 40.3638 195.746 40.3709 195.741C40.3779 195.735 40.3834 195.728 40.3867 195.72C41.4495 195.254 42.4865 194.731 43.4934 194.154C43.4934 194.154 43.4934 194.104 43.4437 194.117Z" fill="#263238"/>
<path d="M63.1468 173.588C63.1468 173.588 53.3236 174.209 48.7506 167.735C44.1775 161.261 45.2027 152.003 45.2027 152.003C45.2027 152.003 55.5293 153.246 59.6239 157.912C63.7185 162.578 63.1468 173.588 63.1468 173.588Z" fill="#34A1D3"/>
<path d="M67.7629 183.293C67.4212 182.243 66.9987 181.206 66.601 180.187C66.2033 179.168 65.8119 178.217 65.3583 177.248C64.4801 175.266 63.497 173.333 62.4132 171.457C61.7235 170.264 60.9779 169.102 60.2137 167.959C60.2137 167.785 60.164 167.611 60.1329 167.437C60.0894 167.132 60.0459 166.816 59.9962 166.523C59.903 165.902 59.7912 165.281 59.6856 164.659C59.4619 163.305 59.1823 161.957 58.9648 160.596C58.9648 160.534 58.853 160.534 58.8654 160.596C59.0642 161.932 59.1947 163.28 59.3873 164.622C59.4743 165.281 59.5613 165.946 59.6607 166.604L59.7725 167.313C58.2758 165.121 56.6535 163.017 54.9137 161.012C54.6776 160.739 54.4353 160.472 54.1992 160.205C54.1992 160.13 54.1371 160.055 54.106 159.981C54.0314 159.794 53.9631 159.608 53.8947 159.422C53.7456 159.03 53.6089 158.639 53.466 158.247C53.1926 157.477 52.9441 156.7 52.7328 155.911C52.7328 155.849 52.621 155.874 52.6396 155.911C52.8323 156.713 53.0435 157.52 53.261 158.316C53.379 158.701 53.5033 159.08 53.64 159.459C53.64 159.521 53.6835 159.583 53.7083 159.652C52.4657 158.278 51.1422 156.961 49.8188 155.656C49.8089 155.647 49.7958 155.643 49.7824 155.643C49.769 155.644 49.7564 155.65 49.7473 155.659C49.7383 155.669 49.7335 155.682 49.7341 155.696C49.7347 155.709 49.7406 155.722 49.7504 155.731C52.2902 158.388 54.6171 161.24 56.7094 164.262C56.4712 164.184 56.2284 164.122 55.9824 164.075C55.2244 163.926 54.4664 163.821 53.7021 163.727C52.0991 163.522 50.5023 163.317 48.9054 163.069C48.8433 163.069 48.8184 163.156 48.9054 163.168C50.4277 163.467 51.9375 163.79 53.4536 164.156C54.1681 164.318 54.8827 164.461 55.5972 164.604C56.1833 164.728 56.7603 164.892 57.3245 165.094C57.486 165.318 57.6476 165.542 57.8029 165.772C58.5237 166.822 59.2196 167.897 59.8968 168.972L58.8903 168.779C58.1322 168.63 57.3742 168.493 56.61 168.369C55.1125 168.12 53.6089 167.859 52.1301 167.524C52.117 167.524 52.1043 167.529 52.095 167.538C52.0857 167.548 52.0804 167.56 52.0804 167.574C52.0804 167.587 52.0857 167.599 52.095 167.609C52.1043 167.618 52.117 167.623 52.1301 167.623C53.6338 167.977 55.1188 168.387 56.61 168.785C57.3307 168.978 58.0577 169.152 58.7846 169.313L59.8782 169.549C60.0226 169.588 60.1703 169.613 60.3193 169.624C61.7567 171.956 63.1008 174.336 64.3518 176.763C64.8985 177.832 65.4267 178.911 65.9362 180C66.4643 181.119 66.9117 182.256 67.3963 183.386C67.4833 183.629 67.8374 183.536 67.7629 183.293Z" fill="#263238"/>
<path d="M57.7034 160.701C57.517 159.763 57.3182 158.837 57.0821 157.893C57.0821 157.831 56.9703 157.862 56.9889 157.893C57.1753 158.813 57.3493 159.757 57.517 160.664C57.6568 161.591 57.8434 162.509 58.0762 163.417C58.0159 162.504 57.8913 161.597 57.7034 160.701Z" fill="#263238"/>
<path d="M51.9676 160.428C51.514 160.198 51.0294 160.018 50.5572 159.807L49.8116 159.515L49.4326 159.366C49.2872 159.322 49.1474 159.262 49.0163 159.186C48.9417 159.13 48.892 159.26 48.9666 159.273C49.114 159.31 49.2561 159.366 49.3891 159.44L49.7619 159.608L50.4764 159.925C50.9493 160.146 51.4348 160.339 51.9303 160.503C51.9863 160.546 52.0235 160.453 51.9676 160.428Z" fill="#263238"/>
<path d="M73.2061 165.896C73.2061 165.896 79.1584 154.756 88.2299 153.034C97.3014 151.313 102.813 160.621 102.813 160.621C102.813 160.621 96.214 169.052 87.9006 170.525C79.5871 171.998 73.2061 165.896 73.2061 165.896Z" fill="#34A1D3"/>
<path d="M94.2687 158.011C91.9116 157.698 89.5217 157.728 87.1731 158.098L87.5707 157.881L89.5838 156.849C90.9594 156.085 92.3738 155.392 93.8213 154.774C93.8278 154.782 93.8365 154.788 93.8464 154.791C93.8563 154.794 93.8669 154.793 93.8766 154.79C93.8863 154.786 93.8947 154.78 93.9007 154.772C93.9066 154.763 93.9098 154.753 93.9098 154.743C93.9098 154.733 93.9066 154.723 93.9007 154.714C93.8947 154.706 93.8863 154.7 93.8766 154.696C93.8669 154.693 93.8563 154.692 93.8464 154.695C93.8365 154.698 93.8278 154.704 93.8213 154.712C92.4047 155.371 90.9383 155.955 89.5155 156.576C88.8072 156.899 88.1051 157.241 87.4154 157.607C86.968 157.843 86.4772 158.067 86.036 158.353C84.0495 158.751 82.1193 159.392 80.2887 160.26L81.4195 159.018C82.2645 158.092 83.0909 157.123 84.0167 156.284C84.0664 156.24 84.0167 156.172 83.9421 156.216C82.9977 157.073 81.9974 157.868 81.0778 158.763C80.6304 159.198 80.2079 159.645 79.7916 160.111C79.5866 160.341 79.3753 160.577 79.1703 160.826C76.063 162.489 73.363 164.821 71.2648 167.653C69.1666 170.485 67.7222 173.747 67.0356 177.204C67.0356 177.266 67.1164 177.304 67.1351 177.241C68.4079 173.006 70.6892 169.143 73.7833 165.983C77.1109 162.586 81.3021 160.16 85.9055 158.968C88.6374 158.273 91.4626 158.017 94.2749 158.21C94.3013 158.209 94.3262 158.198 94.3443 158.179C94.3623 158.16 94.372 158.134 94.3712 158.108C94.3704 158.081 94.3591 158.056 94.3399 158.038C94.3207 158.02 94.2951 158.01 94.2687 158.011Z" fill="#263238"/>
<path opacity="0.1" d="M102.787 160.627C102.787 160.627 96.1886 169.052 87.8752 170.525C81.5438 171.643 76.3308 168.344 74.2059 166.716L73.7461 165.964C73.7461 165.964 78.0333 162.354 86.1355 160.273C94.2377 158.191 102.787 160.627 102.787 160.627Z" fill="black"/>
<path d="M89.0124 154.053C88.3173 154.457 87.6452 154.899 86.9993 155.377C86.3716 155.855 85.7892 156.389 85.2596 156.974C85.2497 156.984 85.2441 156.997 85.2441 157.011C85.2441 157.025 85.2497 157.038 85.2596 157.048C85.2695 157.058 85.2829 157.064 85.2969 157.064C85.3108 157.064 85.3243 157.058 85.3341 157.048C85.9555 156.526 86.5395 156.004 87.1609 155.514C87.7674 155.016 88.4045 154.558 89.0684 154.14C89.0799 154.133 89.088 154.121 89.0909 154.108C89.0938 154.094 89.0913 154.08 89.0839 154.069C89.0765 154.057 89.0648 154.049 89.0514 154.046C89.038 154.043 89.024 154.046 89.0124 154.053Z" fill="#263238"/>
<path d="M93.977 155.955C93.6414 156.098 93.2997 156.216 92.9642 156.359L91.9576 156.775C91.8831 156.806 91.9204 156.924 91.9949 156.893L93.0015 156.483C93.337 156.346 93.6663 156.191 94.008 156.054C94.064 156.004 94.0391 155.905 93.977 155.955Z" fill="#263238"/>
<path d="M72.019 179.845C72.019 179.845 73.6097 190.867 81.8982 194.72C90.1868 198.572 100.283 194.72 100.283 194.72C100.283 194.72 96.307 170.867 72.019 179.845Z" fill="#34A1D3"/>
<path d="M94.5733 187.549C93.8091 187.462 93.051 187.332 92.293 187.195L91.1808 186.984C90.9944 186.947 90.7956 186.903 90.5968 186.872C90.3793 186.661 90.1556 186.45 89.9257 186.251C88.3565 184.869 86.6611 183.638 84.8619 182.573C83.8804 181.994 82.8659 181.473 81.8235 181.013H81.9789L84.7065 181.131C86.527 181.218 88.3413 181.255 90.1618 181.373C90.2302 181.373 90.224 181.274 90.1618 181.274C88.3351 181.15 86.5208 180.951 84.7003 180.789L82.0472 180.553L80.6803 180.435L80.3323 180.398C79.8601 180.224 79.3817 180.056 78.9033 179.907C76.6435 179.132 74.2132 178.999 71.8822 179.522C69.8007 180.056 67.7193 181.417 67.1787 183.616C67.1787 183.691 67.2781 183.747 67.3092 183.672C68.0859 181.808 70.1238 180.907 71.963 180.528C73.1924 180.292 74.4531 180.267 75.691 180.454C75.7796 181.021 75.9211 181.578 76.1135 182.119C76.3434 182.896 76.5671 183.672 76.8032 184.443C77.2754 185.99 77.7911 187.549 78.2509 189.078C78.2563 189.088 78.2653 189.097 78.2763 189.101C78.2873 189.106 78.2995 189.106 78.3108 189.102C78.322 189.099 78.3316 189.091 78.3377 189.081C78.3438 189.071 78.3461 189.059 78.3441 189.047C77.9588 187.5 77.6357 185.94 77.2629 184.393C77.0828 183.629 76.8902 182.871 76.6975 182.113C76.5944 181.58 76.4553 181.055 76.2812 180.541C77.0065 180.672 77.7242 180.842 78.4311 181.05C79.7019 181.43 80.9472 181.891 82.1591 182.43C82.2771 183.213 82.4573 183.989 82.6375 184.766C82.8612 185.741 83.1159 186.704 83.4204 187.655C83.4239 187.665 83.4303 187.673 83.4386 187.679C83.4469 187.684 83.4568 187.687 83.467 187.687C83.4771 187.687 83.487 187.684 83.4953 187.679C83.5037 187.673 83.51 187.665 83.5136 187.655L83.4763 187.475C83.2899 186.574 83.0911 185.673 82.9047 184.772C82.7493 184.045 82.6064 183.318 82.4511 182.591C83.4825 183.057 84.4891 183.56 85.4708 184.126C85.4708 184.35 85.5453 184.579 85.5764 184.784C85.6385 185.164 85.7069 185.536 85.7752 185.915C85.9306 186.767 86.0983 187.612 86.3033 188.45C86.6782 190.077 87.1534 191.679 87.7262 193.247C87.7201 193.256 87.7168 193.267 87.7168 193.278C87.7168 193.289 87.7201 193.3 87.7262 193.309L87.7697 193.365C87.807 193.402 87.8629 193.365 87.8567 193.309C87.4715 191.675 87.0365 190.06 86.6761 188.419C86.496 187.599 86.3158 186.785 86.1542 185.934C86.0672 185.524 85.9927 185.114 85.9181 184.691C85.9181 184.573 85.8746 184.449 85.856 184.325C86.9736 184.978 88.0524 185.696 89.0869 186.475C90.8844 187.816 92.5489 189.326 94.0576 190.985C94.1135 191.048 94.2316 190.985 94.1756 190.886C93.5603 190.048 92.9007 189.243 92.1998 188.475C91.7835 188.028 91.3548 187.599 90.9136 187.177H91.0503C91.4356 187.245 91.827 187.301 92.2184 187.357C92.9827 187.456 93.7531 187.531 94.5174 187.618C94.6168 187.643 94.6416 187.562 94.5733 187.549Z" fill="#263238"/>
<path d="M88.7517 191.29C88.7517 191.19 88.7206 191.097 88.7082 191.004C88.6958 190.911 88.6212 190.762 88.6026 190.644C88.4286 189.911 88.2857 189.165 88.1552 188.419C88.1552 188.37 88.062 188.382 88.062 188.419C88.1103 189.406 88.3202 190.378 88.6833 191.296C88.6833 191.296 88.7455 191.296 88.7393 191.296L88.7517 191.29Z" fill="#263238"/>
<path d="M81.8178 191.11C81.8163 191.098 81.8104 191.087 81.8012 191.078C81.7921 191.07 81.7803 191.066 81.7681 191.066C81.532 190.091 81.3083 189.115 81.1095 188.127C81.0039 187.612 80.8982 187.096 80.7988 186.58C80.7429 186.301 80.6932 186.021 80.6435 185.741C80.6218 185.495 80.561 185.254 80.4633 185.027C80.4598 185.017 80.4534 185.009 80.4451 185.003C80.4367 184.998 80.4268 184.994 80.4167 184.994C80.4066 184.994 80.3966 184.998 80.3883 185.003C80.38 185.009 80.3736 185.017 80.3701 185.027C80.3631 185.528 80.4343 186.027 80.5814 186.506C80.6808 187.046 80.7864 187.581 80.9045 188.115C81.1468 189.202 81.4139 190.29 81.7246 191.358C81.7246 191.414 81.8364 191.402 81.8302 191.358C81.824 191.315 81.824 191.19 81.8178 191.11Z" fill="#263238"/>
<path d="M93.8216 184.381C92.3056 184.169 90.7957 183.952 89.2797 183.759C89.2113 183.759 89.1865 183.852 89.2797 183.859C90.7895 184.082 92.3056 184.269 93.8216 184.48C93.8589 184.486 93.8838 184.387 93.8216 184.381Z" fill="#263238"/>
<path d="M67.7755 153.997C67.7755 153.997 62.7054 131.754 86.6081 122.751C86.6081 122.751 93.2315 152.034 67.7755 153.997Z" fill="#34A1D3"/>
<path d="M72.9321 141.384L73.1931 141.223L74.5414 140.471L77.3125 138.918C79.1393 137.899 80.9411 136.836 82.7741 135.811C82.8362 135.811 82.7741 135.693 82.7244 135.724C80.8604 136.724 78.9964 137.656 77.1324 138.638L74.3923 140.086L73.2739 140.707C74.0692 139.197 74.9266 137.712 75.8586 136.283C77.1013 134.382 78.4744 132.555 79.9035 130.791C79.9656 130.71 79.86 130.604 79.7855 130.679C77.6889 132.717 75.8334 134.989 74.2556 137.451C74.2556 137.377 74.2556 137.296 74.2556 137.221C74.2556 136.668 74.2929 136.115 74.3053 135.562C74.3053 134.475 74.268 133.388 74.3053 132.3C74.3053 132.238 74.2059 132.238 74.2059 132.3C74.1562 133.369 74.0319 134.432 73.9698 135.5C73.9698 136.035 73.9139 136.569 73.9014 137.097C73.9014 137.389 73.8641 137.718 73.9014 138.035C73.4044 138.818 72.9321 139.611 72.4848 140.415C71.6861 141.865 70.9745 143.361 70.3536 144.895C70.3536 144.342 70.2915 143.789 70.2604 143.236C70.1921 141.993 70.0429 140.806 69.987 139.582C69.987 139.52 69.8876 139.52 69.8876 139.582C69.8876 140.825 69.8876 142.018 69.8876 143.236C69.8876 143.857 69.9249 144.479 69.9684 145.063L70.0057 145.746C69.2461 147.732 68.6436 149.774 68.2038 151.854C67.7908 154.078 67.4921 156.322 67.3091 158.577C67.3091 158.577 67.3091 158.577 67.3401 158.577C67.5809 156.546 67.9967 154.54 68.5828 152.581C68.8748 151.531 69.2041 150.487 69.5272 149.474C70.5214 149.002 71.472 148.418 72.4351 147.883C73.3981 147.349 74.4358 146.796 75.4299 146.243C77.4244 145.15 79.4189 144.037 81.4755 143.074C81.5314 143.074 81.4755 142.956 81.4196 142.987C79.3381 143.932 77.238 144.851 75.2062 145.852C74.1872 146.367 73.1807 146.914 72.1865 147.473C71.3602 147.939 70.5089 148.405 69.7012 148.946C69.9311 148.256 70.1734 147.567 70.4406 146.883C71.1774 145.009 72.009 143.174 72.9321 141.384Z" fill="#263238"/>
<path d="M70.919 136.296C70.919 136.227 70.8134 136.233 70.8196 136.296C70.9004 137.538 70.9439 138.837 71.0806 140.098C71.0806 140.113 71.0864 140.127 71.0969 140.138C71.1074 140.148 71.1216 140.154 71.1365 140.154C71.1513 140.154 71.1655 140.148 71.176 140.138C71.1865 140.127 71.1924 140.113 71.1924 140.098C71.1489 138.824 71.0122 137.563 70.919 136.296Z" fill="#263238"/>
<path d="M82.3768 140.546C80.8856 141.167 79.3758 141.72 77.8846 142.341C77.8411 142.341 77.8846 142.428 77.8846 142.41C79.4006 141.844 80.8856 141.229 82.3892 140.639C82.47 140.62 82.4389 140.521 82.3768 140.546Z" fill="#263238"/>
<path d="M84.6504 130.281C83.1896 130.956 81.7704 131.717 80.4004 132.561C80.3905 132.572 80.3845 132.586 80.3831 132.601C80.3817 132.616 80.3852 132.63 80.3928 132.643C80.4005 132.655 80.4121 132.665 80.4258 132.671C80.4394 132.676 80.4545 132.677 80.4688 132.673C81.8543 131.859 83.2648 131.083 84.7063 130.368C84.7622 130.343 84.7063 130.256 84.6504 130.281Z" fill="#263238"/>
<path d="M84.2904 202.107H49.8188V238.443H84.2904V202.107Z" fill="#455A64"/>
<path d="M49.2094 214.963H47.4448V289.628H49.2094V214.963Z" fill="#263238"/>
<path d="M86.4775 214.963H84.7129V289.628H86.4775V214.963Z" fill="#263238"/>
<path d="M68.7812 214.963H67.0166V289.628H68.7812V214.963Z" fill="#263238"/>
<path d="M85.5942 236.113H48.3267V241.146H85.5942V236.113Z" fill="#263238"/>
<path d="M80.4746 289.367C101.19 285.913 155.134 274.642 170.45 267.13C255.386 226.196 295.959 84.4578 296.462 83.0723H364.846C364.337 84.4268 356.278 107.627 322.167 172.395C301.079 210.881 270.559 236.535 234.559 257.611C172.73 293.779 80.4746 289.367 80.4746 289.367Z" fill="#34A1D3"/>
<g opacity="0.1">
<path d="M80.4746 289.367C101.19 285.913 155.134 274.642 170.45 267.13C255.386 226.196 295.959 84.4578 296.462 83.0723H364.846C364.337 84.4268 356.278 107.627 322.167 172.395C301.079 210.881 270.559 236.535 234.559 257.611C172.73 293.779 80.4746 289.367 80.4746 289.367Z" fill="black"/>
</g>
<path d="M280.576 75.9703L296.463 83.0722C296.028 84.2279 274.859 193.297 210.098 245.65C164.653 282.383 135.569 291.008 36.8389 289.541V270.354C92.5538 270.354 132.301 268.553 168.562 249.633C250.397 206.941 280.451 76.2872 280.576 75.9703Z" fill="#34A1D3"/>
<path d="M280.576 75.9703H354.278L364.847 83.0722H296.463L280.576 75.9703Z" fill="#34A1D3"/>
<path d="M336.713 30.3024L384.636 90.9011L271.69 90.5966L336.713 30.3024Z" fill="#34A1D3"/>
<g opacity="0.1">
<path d="M336.713 30.3024L384.636 90.9011L271.69 90.5966L336.713 30.3024Z" fill="black"/>
</g>
<path d="M271.691 90.5966L255.263 83.0723L320.286 22.7781L336.714 30.3024L271.691 90.5966Z" fill="#34A1D3"/>
<path d="M392.894 75.9082C392.607 78.6671 391.558 81.2918 389.865 83.4891C388.172 85.6864 385.902 87.3699 383.308 88.3516C380.714 89.3332 377.897 89.5743 375.174 89.048C372.451 88.5217 369.927 87.2487 367.885 85.3712L360.374 86.4709L364.102 79.9966C363.243 77.8894 362.877 75.6142 363.03 73.3441C363.183 71.074 363.852 68.8686 364.985 66.8957C366.118 64.9227 367.686 63.2341 369.57 61.9582C371.454 60.6822 373.604 59.8526 375.857 59.5322C378.109 59.2119 380.405 59.4093 382.57 60.1095C384.735 60.8096 386.712 61.9942 388.35 63.573C389.988 65.1517 391.245 67.0833 392.025 69.2207C392.805 71.3582 393.087 73.6453 392.851 75.9082H392.894Z" fill="white"/>
<path d="M392.894 75.9083C392.604 78.6666 391.559 81.2916 389.874 83.4948C389.451 84.0403 388.997 84.561 388.514 85.0543C388.017 85.5328 387.49 85.979 386.935 86.3902C384.712 88.0679 382.066 89.096 379.293 89.3601C378.603 89.4243 377.91 89.4388 377.218 89.4036C376.522 89.3838 375.828 89.3111 375.143 89.1862C372.385 88.6783 369.823 87.4133 367.742 85.5327L367.916 85.5886L360.46 86.7319L359.92 86.8189L360.193 86.3405L363.921 79.8537V80.1085C362.828 77.4302 362.526 74.495 363.049 71.65C363.572 68.805 364.899 66.1693 366.872 64.0549C368.846 61.9404 371.385 60.4356 374.187 59.7185C376.989 59.0014 379.939 59.1019 382.686 60.0084C384.849 60.7412 386.822 61.9492 388.458 63.5437C390.083 65.1358 391.327 67.0754 392.095 69.2169C392.863 71.3583 393.137 73.6461 392.894 75.9083ZM392.894 75.9083C393.134 73.6528 392.852 71.3724 392.071 69.2429C391.29 67.1135 390.03 65.192 388.389 63.6268C386.747 62.0615 384.768 60.8943 382.604 60.2152C380.44 59.5361 378.148 59.3633 375.907 59.7101C373.686 60.0401 371.571 60.8755 369.725 62.152C367.896 63.4366 366.367 65.1028 365.245 67.0356C364.142 68.9754 363.494 71.1403 363.35 73.367C363.207 75.5928 363.566 77.8222 364.4 79.891L364.456 80.0215L364.387 80.1458L360.616 86.6076L360.349 86.21L367.829 85.1599H367.935L368.01 85.2283C370.008 87.1004 372.489 88.3785 375.174 88.919C375.843 89.0545 376.523 89.1376 377.205 89.1675C377.888 89.2141 378.573 89.2141 379.256 89.1675C380.622 89.0632 381.967 88.7684 383.251 88.2914C384.543 87.8207 385.759 87.1634 386.861 86.3405C387.414 85.9342 387.941 85.4943 388.439 85.0232C388.925 84.5372 389.38 84.0204 389.8 83.4761C391.51 81.2874 392.581 78.6681 392.894 75.9083Z" fill="#263238"/>
<path d="M375.888 82.8982L369.494 76.4301L371.638 74.3051L375.372 78.089L383.132 65.9233L385.68 67.5512L375.888 82.8982Z" fill="#34A1D3"/>
<path d="M291.237 289.814C292.641 290.268 332.649 289.752 334.158 288.764C334.736 288.398 335.003 282.551 335.122 275.505V275.281C335.122 273.828 331.394 249.434 331.394 249.434L304.633 249.701L309.274 275.331V275.766C309.274 275.766 294.051 282.818 292.498 284.08C290.945 285.341 289.833 289.367 291.237 289.814Z" fill="#AD6359"/>
<path d="M335.122 275.282V275.505C335.004 282.557 334.737 288.392 334.159 288.764C332.649 289.746 292.641 290.268 291.243 289.815C289.845 289.361 291.02 285.335 292.548 284.08C294.077 282.825 309.324 275.772 309.324 275.772V275.325L308.622 271.46H334.687C334.954 273.511 335.128 274.965 335.122 275.282Z" fill="#EBEBEB"/>
<path d="M291.237 289.815C291.957 290.044 302.825 290.02 313.449 289.815C315.587 289.771 317.712 289.721 319.737 289.665C327.311 289.46 333.574 289.144 334.152 288.764C334.73 288.385 334.991 282.731 335.109 275.803C335.109 275.704 335.109 275.611 335.109 275.511C335.109 275.412 335.109 275.356 335.109 275.282H335.078L309.293 275.331V275.772C309.293 275.772 294.07 282.818 292.517 284.08C290.963 285.341 289.832 289.367 291.237 289.815Z" fill="#34A1D3"/>
<path d="M291.672 288.261C298.413 288.007 325.628 287.64 332.313 287.882C332.369 287.882 332.369 287.926 332.313 287.926C325.634 288.323 298.419 288.485 291.672 288.367C291.529 288.367 291.529 288.261 291.672 288.261Z" fill="#263238"/>
<path d="M306.434 275.443C309.081 274.909 312.331 275.276 314.387 277.14C314.468 277.214 314.387 277.326 314.275 277.301C311.729 276.512 309.104 276.001 306.447 275.779C306.425 275.78 306.403 275.776 306.382 275.768C306.361 275.761 306.342 275.749 306.326 275.734C306.31 275.719 306.297 275.701 306.288 275.681C306.279 275.661 306.273 275.639 306.273 275.617C306.272 275.595 306.275 275.573 306.283 275.553C306.291 275.532 306.302 275.513 306.317 275.497C306.332 275.481 306.35 275.468 306.37 275.458C306.39 275.449 306.412 275.444 306.434 275.443Z" fill="#263238"/>
<path d="M304.534 276.617C307.181 276.089 310.436 276.456 312.487 278.32C312.568 278.394 312.487 278.506 312.375 278.475C309.829 277.692 307.206 277.182 304.552 276.953C304.508 276.955 304.464 276.94 304.431 276.91C304.398 276.881 304.378 276.839 304.375 276.794C304.373 276.75 304.388 276.706 304.418 276.673C304.448 276.64 304.489 276.62 304.534 276.617Z" fill="#263238"/>
<path d="M302.631 277.798C305.278 277.27 308.534 277.637 310.584 279.501C310.665 279.569 310.584 279.681 310.473 279.656C307.926 278.873 305.304 278.363 302.65 278.134C302.606 278.136 302.562 278.121 302.529 278.091C302.495 278.061 302.475 278.02 302.473 277.975C302.47 277.931 302.486 277.887 302.515 277.854C302.545 277.821 302.587 277.801 302.631 277.798Z" fill="#263238"/>
<path d="M306.435 275.25H335.967C335.967 275.25 326.864 215.602 327.094 214.434C327.206 213.813 368.456 151.847 368.456 151.847H337.719C337.719 151.847 303.048 196.18 299.146 207.345C296.313 215.484 306.435 275.25 306.435 275.25Z" fill="#263238"/>
<path d="M323.397 212.154C323.825 210.427 324.813 208.898 325.721 207.388C327.777 203.99 363.218 154.873 363.715 154.066C363.752 154.004 363.852 154.035 363.821 154.066C362.416 157.017 327.398 204.884 325.223 209.439C324.397 211.179 323.683 212.788 323.72 214.739C323.825 216.697 324.032 218.649 324.341 220.586C324.598 222.545 324.857 224.5 325.118 226.451C325.648 230.365 326.197 234.274 326.764 238.176C327.912 246.017 329.103 253.856 330.337 261.693C330.492 262.669 330.654 263.644 330.815 264.613C330.815 264.706 330.691 264.744 330.673 264.651C329.268 256.816 327.901 248.981 326.715 241.108C325.528 233.236 324.453 225.351 323.409 217.454C323.074 215.704 323.069 213.906 323.397 212.154Z" fill="#455A64"/>
<path d="M332.48 268.254C328.131 268.254 329.374 268.174 325.093 268.223C322.98 268.223 309.118 268.41 307.155 268.845C307.111 268.845 307.111 268.938 307.155 268.944C309.137 269.28 322.992 268.838 325.105 268.764C329.411 268.621 328.174 268.609 332.48 268.41C332.561 268.416 332.561 268.254 332.48 268.254Z" fill="#37474F"/>
<path d="M428.614 289.429C427.216 289.908 387.208 290.119 385.679 289.162C385.095 288.802 384.723 282.949 384.48 275.922C384.48 275.847 384.48 275.772 384.48 275.698C384.424 274.25 374.446 250.111 374.446 250.111L400.598 249.9L410.284 275.251V275.692C410.284 275.692 425.637 282.458 427.209 283.688C428.781 284.918 430.005 288.957 428.614 289.429Z" fill="#AD6359"/>
<path d="M428.614 289.429C427.216 289.908 387.208 290.119 385.68 289.162C385.096 288.802 384.723 282.949 384.481 275.922C384.481 275.847 384.481 275.773 384.481 275.698C384.481 275.623 382.548 270.858 382.542 270.647L408.358 270.367L410.291 275.275V275.717C410.291 275.717 425.644 282.483 427.216 283.713C428.788 284.943 430.006 288.957 428.614 289.429Z" fill="#EBEBEB"/>
<path d="M428.613 289.429C427.215 289.908 387.208 290.119 385.679 289.162C385.095 288.802 384.722 282.949 384.48 275.922C384.48 275.847 384.48 275.772 384.48 275.698L410.29 275.275V275.717C410.29 275.717 425.643 282.483 427.215 283.713C428.787 284.943 430.005 288.957 428.613 289.429Z" fill="#34A1D3"/>
<path d="M428.154 287.882C421.406 287.752 394.186 287.882 387.513 288.249C387.457 288.249 387.457 288.286 387.513 288.292C394.192 288.566 421.413 288.23 428.154 287.988C428.297 287.988 428.297 287.882 428.154 287.882Z" fill="#263238"/>
<path d="M413.186 275.331C410.533 274.853 407.29 275.275 405.271 277.195C405.19 277.27 405.271 277.382 405.382 277.357C407.914 276.521 410.528 275.961 413.18 275.685C413.227 275.686 413.272 275.668 413.306 275.636C413.34 275.603 413.359 275.558 413.36 275.511C413.361 275.464 413.343 275.419 413.311 275.385C413.278 275.351 413.233 275.332 413.186 275.331Z" fill="#263238"/>
<path d="M415.081 276.493C412.422 276.008 409.178 276.431 407.159 278.357C407.078 278.425 407.19 278.537 407.271 278.512C409.795 277.67 412.403 277.101 415.05 276.816C415.086 276.81 415.12 276.792 415.145 276.765C415.171 276.738 415.186 276.704 415.19 276.667C415.194 276.63 415.185 276.593 415.165 276.561C415.145 276.53 415.116 276.506 415.081 276.493Z" fill="#263238"/>
<path d="M417.001 277.624C414.341 277.139 411.098 277.568 409.079 279.488C409.004 279.563 409.11 279.668 409.197 279.643C411.726 278.809 414.338 278.251 416.988 277.978C417.035 277.98 417.081 277.963 417.115 277.931C417.149 277.899 417.17 277.854 417.171 277.807C417.173 277.76 417.156 277.715 417.124 277.68C417.092 277.646 417.047 277.626 417.001 277.624Z" fill="#263238"/>
<path d="M340.949 151.872C340.949 151.872 344.634 174.327 344.882 175.048C344.882 175.048 346.255 175.669 348.722 176.837L378.546 275.176L411.576 275.294L372.389 151.872H340.949Z" fill="#263238"/>
<path d="M343.684 174.352C346.55 175.548 349.307 176.991 351.923 178.664C351.941 178.679 351.953 178.698 351.958 178.721C351.963 178.743 351.96 178.766 351.95 178.787C351.94 178.807 351.923 178.823 351.902 178.833C351.881 178.842 351.858 178.844 351.836 178.838C349.059 177.484 346.244 176.185 343.516 174.682C343.479 174.656 343.452 174.618 343.441 174.574C343.43 174.53 343.435 174.484 343.456 174.443C343.476 174.403 343.511 174.372 343.553 174.355C343.595 174.338 343.641 174.337 343.684 174.352Z" fill="#455A64"/>
<path d="M344.747 161.491C345.2 164.175 345.449 166.903 345.753 169.612L345.977 171.563C345.993 172.161 346.153 172.747 346.443 173.271C347.027 174.178 348.071 174.601 349.021 175.017C349.127 175.061 349.084 175.235 348.965 175.197C347.945 174.952 347.003 174.455 346.225 173.75C345.362 172.836 345.387 171.451 345.256 170.276C344.879 167.367 344.671 164.437 344.635 161.503C344.622 161.435 344.734 161.416 344.747 161.491Z" fill="#455A64"/>
<path d="M348.014 162.311C348.107 164.249 348.325 166.188 348.486 168.114C348.567 169.071 348.635 170.022 348.691 170.978C348.747 171.935 348.865 172.942 348.834 173.917C348.834 173.979 348.728 173.998 348.716 173.917C348.555 172.998 348.536 172.053 348.455 171.109C348.374 170.164 348.312 169.152 348.256 168.17C348.144 166.219 348.095 164.249 347.915 162.298C347.946 162.249 348.008 162.255 348.014 162.311Z" fill="#455A64"/>
<path d="M352.233 180.963C354.519 186.555 378.95 266.459 379.217 267.155C379.217 267.211 379.149 267.242 379.124 267.192C375.856 260.798 355.004 188.699 352.916 183.082L352.134 180.994C352.121 180.945 352.208 180.907 352.233 180.963Z" fill="#455A64"/>
<path d="M378.311 269.659C379.268 269.528 380.255 269.528 381.219 269.46C382.182 269.391 383.151 269.379 384.12 269.354C386.059 269.311 387.997 269.286 389.936 269.261C393.78 269.22 397.628 269.199 401.48 269.199C403.673 269.199 405.873 269.317 408.066 269.367C408.075 269.364 408.084 269.363 408.093 269.364C408.101 269.365 408.11 269.369 408.117 269.374C408.124 269.379 408.13 269.386 408.134 269.394C408.139 269.402 408.141 269.41 408.141 269.419C408.141 269.428 408.139 269.437 408.134 269.445C408.13 269.453 408.124 269.46 408.117 269.465C408.11 269.47 408.101 269.474 408.093 269.475C408.084 269.476 408.075 269.475 408.066 269.472C406.134 269.553 404.195 269.671 402.257 269.746C400.318 269.82 398.386 269.826 396.447 269.857C392.539 269.913 388.637 269.976 384.735 269.963C383.648 269.963 382.567 269.963 381.479 269.926C380.392 269.889 379.342 269.926 378.298 269.77C378.23 269.746 378.255 269.659 378.311 269.659Z" fill="#455A64"/>
<path d="M351.947 118.755C345.79 113.573 336.855 101.457 335.277 96.8409C333.239 90.8947 330.462 70.7449 332.636 68.6013C333.842 67.4207 347.958 70.4653 348.648 72.1553C349.338 73.8453 348.275 91.2675 348.393 92.6096C348.511 93.9517 353.985 106.993 357.16 113.256C360.863 120.582 355.961 122.135 351.947 118.755Z" fill="#AD6359"/>
<path d="M332.083 74.5598C331.585 73.4065 331.468 72.1247 331.747 70.9002C332.288 68.9492 333.817 66.9547 333.537 65.7245C333.096 63.7673 331.511 60.5612 332.294 59.9336C333.891 58.6288 335.662 59.7597 337.507 63.438C337.986 64.3948 338.619 66.7621 339.297 66.9361C340.477 67.2467 341.161 65.1901 341.453 63.2764C342.031 59.5484 342.118 54.0931 344.64 53.5898C345.597 53.4034 345.926 54.789 345.988 56.4728C346.28 54.062 346.846 51.6885 347.896 51.4338C348.167 51.3703 348.453 51.4136 348.694 51.5547C348.934 51.6958 349.111 51.9239 349.188 52.1918C349.258 51.9138 349.408 51.6626 349.621 51.4701C349.833 51.2777 350.098 51.1526 350.381 51.1107C351.351 51.0299 351.947 51.9371 352.307 53.1735C352.398 53.0844 352.508 53.0182 352.629 52.9804C352.75 52.9425 352.878 52.9342 353.003 52.9561C355.576 53.217 355.924 62.6427 354.83 64.9105C352.556 69.3715 349.679 73.4986 346.28 77.1756C342.726 77.9523 332.083 74.5598 332.083 74.5598Z" fill="#AD6359"/>
<path d="M344.684 67.2654C345.571 65.7672 346.114 64.0907 346.274 62.3569C346.442 60.3189 346.057 58.2809 346.02 56.2492C346.02 56.1933 345.933 56.1995 345.933 56.2492C346.001 57.2433 345.933 58.2499 345.988 59.244C346.044 60.2381 346.063 61.2012 345.988 62.1767C345.924 63.9487 345.457 65.6827 344.622 67.2468L344.684 67.2654Z" fill="#263238"/>
<path d="M347.909 68.1538C348.773 66.3636 349.451 64.4899 349.934 62.5618C350.388 60.4493 350.09 58.2684 349.829 56.1435C349.675 54.8718 349.491 53.6001 349.276 52.3285C349.276 52.2788 349.183 52.2788 349.189 52.3285C349.475 54.4969 349.698 56.6778 349.854 58.8649C350.014 60.8936 349.769 62.9339 349.133 64.867C348.772 65.973 348.325 67.0479 347.89 68.1166C347.872 68.16 347.903 68.1725 347.909 68.1538Z" fill="#263238"/>
<path d="M351.27 68.2656C352.133 66.5942 352.898 65.159 353.134 63.2515C353.343 61.0608 353.279 58.8524 352.941 56.6778C352.78 55.5034 352.581 54.3416 352.363 53.1734C352.363 53.13 352.27 53.1734 352.276 53.1734C352.708 55.7798 352.969 58.4116 353.059 61.052C353.122 62.3074 352.989 63.5649 352.668 64.78C352.285 65.9691 351.805 67.1246 351.232 68.2346C351.232 68.2346 351.263 68.2718 351.27 68.2656Z" fill="#263238"/>
<path d="M349.474 78.0331L331.07 80.3693C331.07 80.3693 333.729 94.8526 335.021 98.2699C336.314 101.687 347.641 117.028 352.313 120.017C356.986 123.005 360.391 120.638 357.905 113.803C355.42 106.969 349.753 93.9827 349.455 92.5785C349.157 91.1743 349.474 78.0331 349.474 78.0331Z" fill="#455A64"/>
<path d="M355.097 106.639L342.975 110.051C341.446 108.106 339.98 106.124 338.731 104.334L352.543 100.445C353.363 102.408 354.246 104.552 355.097 106.639Z" fill="#37474F"/>
<path d="M348.281 82.8485C345.796 83.271 335.388 84.6441 333.12 84.7933C332.965 84.7933 332.922 84.7063 333.083 84.6752C338.104 83.7576 343.171 83.1146 348.262 82.7491C348.324 82.7429 348.349 82.8361 348.281 82.8485Z" fill="#263238"/>
<path opacity="0.1" d="M352.295 119.998C348.953 117.873 342.199 109.435 338.154 103.514L355.551 107.751C356.458 109.982 357.291 112.101 357.925 113.809C360.416 120.601 356.98 122.968 352.295 119.998Z" fill="black"/>
<path d="M374.887 160.459C374.887 160.459 331.151 159.645 331.071 159.558C330.99 159.471 336.899 121.657 342.739 111.094C344.933 107.118 352.569 107.41 355.433 109.64C362.597 115.214 375.005 157.918 374.887 160.459Z" fill="#455A64"/>
<path d="M373.421 154.091L332.059 153.469C332.295 152.096 332.568 150.543 332.873 148.859L372.097 149.424C372.601 151.152 373.048 152.717 373.421 154.091Z" fill="#37474F"/>
<path d="M374.198 157.048L331.574 156.427C331.649 155.979 331.73 155.482 331.823 154.954L373.819 155.575C373.955 156.097 374.086 156.576 374.198 157.048Z" fill="#37474F"/>
<path d="M344.379 114.394C346.293 115.015 351.941 111.908 353.308 108.92C353.401 108.715 352.947 106.652 352.512 104.117C352.258 102.582 352.003 100.861 351.891 99.2766L342.13 102.414C342.841 104.355 343.312 106.374 343.534 108.429C343.556 108.646 343.556 108.864 343.534 109.081C343.534 109.112 343.534 109.15 343.534 109.193C343.391 110.442 342.173 113.704 344.379 114.394Z" fill="#AD6359"/>
<path d="M351.388 99.4132C351.202 101.582 350.145 108.609 344.553 109.15C344.21 109.18 343.865 109.18 343.522 109.15C343.522 109.106 343.522 109.069 343.522 109.038C343.541 108.821 343.541 108.602 343.522 108.385C343.305 106.333 342.835 104.315 342.124 102.377L351.388 99.4132Z" fill="#263238"/>
<path d="M355.744 91.0439C355.862 94.7408 351.394 104.092 348.356 105.627C344.007 107.857 338.141 106.59 336.588 101.631C335.078 96.8223 341.136 84.7373 344.386 83.476C349.189 81.6244 355.582 85.5948 355.744 91.0439Z" fill="#AD6359"/>
<path opacity="0.3" d="M352.78 100.035C351.382 102.669 349.723 104.962 348.362 105.627C343.976 107.857 338.141 106.59 336.588 101.631C336.047 99.9041 336.476 97.2386 337.408 94.4675C337.936 96.4122 340.614 95.7598 340.614 95.7598L341.745 96.201C342.279 98.5061 345.809 99.3077 347.958 98.7422C349.518 98.3508 351.463 95.6666 351.463 95.6666L352.78 100.035Z" fill="#263238"/>
<path d="M353.19 99.1461C351.631 99.0591 351.326 97.5741 351.184 96.5675C350.91 94.4674 353.321 91.1247 353.048 88.6952C352.978 87.978 352.667 87.3056 352.166 86.7877C351.665 86.2698 351.003 85.9369 350.289 85.8433C349.003 85.7936 346.971 86.8188 346.132 86.4647C345.293 86.1105 345.722 84.1533 345.119 83.9793C343.802 83.5258 341.298 86.415 340.565 87.7881C340.565 87.7881 342.945 81.2082 349.475 82.8174C355.844 84.3521 356.31 89.1302 356.198 91.1744C356.024 95.0266 353.19 99.1461 353.19 99.1461Z" fill="#263238"/>
<path d="M344.286 94.3058C344.286 94.3058 344.286 94.3617 344.286 94.3866C343.956 95.0079 343.664 95.7597 344.143 96.2506C344.143 96.2506 344.143 96.2941 344.143 96.2816C343.497 95.8405 343.869 94.8339 344.286 94.3058Z" fill="#263238"/>
<path d="M345.168 93.9268C346.212 94.3493 345.286 96.4121 344.323 96.0144C343.36 95.6168 344.292 93.5726 345.168 93.9268Z" fill="#263238"/>
<path d="M340.77 92.5785C340.77 92.5785 340.702 92.5785 340.695 92.6158C340.428 93.2371 340.012 93.9579 339.341 93.9081C339.341 93.9081 339.341 93.9081 339.341 93.9454C340.08 94.1691 340.621 93.2433 340.77 92.5785Z" fill="#263238"/>
<path d="M340.49 91.6652C339.496 91.1309 338.495 93.1502 339.415 93.6473C340.335 94.1443 341.329 92.1126 340.49 91.6652Z" fill="#263238"/>
<path d="M346.995 92.5785C346.689 92.5304 346.386 92.4661 346.087 92.3859C345.759 92.366 345.446 92.237 345.199 92.0193C345.135 91.9352 345.101 91.8326 345.101 91.7272C345.101 91.6219 345.135 91.5193 345.199 91.4352C345.351 91.2889 345.54 91.1859 345.745 91.1367C345.95 91.0876 346.165 91.0941 346.367 91.1556C346.795 91.2183 347.183 91.4402 347.454 91.777C347.51 91.8563 347.543 91.9499 347.547 92.0469C347.552 92.1439 347.528 92.2401 347.48 92.3244C347.432 92.4086 347.36 92.4772 347.274 92.5223C347.188 92.5673 347.091 92.5868 346.995 92.5785Z" fill="#263238"/>
<path d="M340.105 90.3044C340.384 90.4338 340.67 90.5478 340.962 90.6461C341.248 90.811 341.58 90.8765 341.907 90.8325C342.006 90.7986 342.092 90.7327 342.15 90.6451C342.209 90.5574 342.237 90.453 342.23 90.3479C342.185 90.1423 342.086 89.9526 341.943 89.7985C341.799 89.6444 341.617 89.5315 341.416 89.4718C341.028 89.2854 340.584 89.2521 340.173 89.3786C340.079 89.4101 339.996 89.4687 339.936 89.547C339.875 89.6253 339.838 89.7199 339.831 89.8188C339.824 89.9177 339.846 90.0165 339.894 90.1029C339.943 90.1893 340.016 90.2594 340.105 90.3044Z" fill="#263238"/>
<path d="M342.976 97.779C342.703 97.9557 342.397 98.0749 342.076 98.1294C341.756 98.1839 341.427 98.1725 341.112 98.0959C340.832 98.03 340.564 97.9232 340.316 97.779C340.267 97.7558 340.219 97.7288 340.173 97.6982L340.043 97.6113C340.012 97.5893 339.99 97.558 339.979 97.5222C339.968 97.4863 339.968 97.4478 339.981 97.4124L340.018 97.3503V97.2944C340.229 96.7973 340.639 96.0517 340.639 96.0517C340.422 96.0517 339.322 96.0517 339.453 95.8094C340.498 93.6144 341.766 91.5324 343.237 89.596C343.247 89.5862 343.261 89.5801 343.276 89.5787C343.291 89.5774 343.305 89.5808 343.318 89.5885C343.331 89.5961 343.34 89.6077 343.346 89.6214C343.351 89.6351 343.352 89.6502 343.348 89.6644C342.385 91.6899 341.08 93.5353 340.086 95.5546C340.479 95.5492 340.87 95.5994 341.248 95.7038C341.31 95.7535 340.49 97.0893 340.416 97.3254C340.8 97.5457 341.225 97.6863 341.665 97.7386C342.104 97.7909 342.55 97.7539 342.976 97.6299C343.019 97.6796 343.05 97.7417 342.976 97.779Z" fill="#263238"/>
<path d="M340.707 97.661C340.824 98.1261 341.057 98.5537 341.384 98.9037C341.568 99.0934 341.807 99.2196 342.068 99.2641C342.633 99.3573 342.857 98.8975 342.944 98.4563C342.989 98.221 343.004 97.9808 342.987 97.7418C342.238 97.9581 341.439 97.9298 340.707 97.661Z" fill="#263238"/>
<path d="M341.384 98.9224C341.568 99.1121 341.807 99.2383 342.068 99.2827C342.633 99.3759 342.857 98.9161 342.944 98.475C342.672 98.3626 342.369 98.3456 342.086 98.4268C341.803 98.508 341.556 98.6827 341.384 98.9224Z" fill="#FF9CBD"/>
<path d="M343.373 97.7605C342.74 97.3231 342.305 96.6524 342.166 95.8953C342.026 95.1382 342.192 94.3566 342.628 93.7218C342.934 93.2716 343.36 92.9165 343.858 92.6971C344.356 92.4777 344.906 92.4029 345.445 92.4811C345.983 92.5593 346.489 92.7875 346.904 93.1395C347.319 93.4915 347.627 93.9532 347.792 94.4719C347.958 94.9905 347.974 95.5451 347.839 96.0724C347.704 96.5997 347.423 97.0784 347.029 97.4538C346.635 97.8292 346.143 98.0861 345.61 98.1953C345.076 98.3045 344.523 98.2614 344.013 98.0711C343.789 97.9924 343.574 97.8882 343.373 97.7605ZM342.945 93.9393C342.659 94.3472 342.5 94.8307 342.489 95.3286C342.479 95.8265 342.616 96.3165 342.884 96.7364C343.151 97.1564 343.538 97.4874 343.994 97.6876C344.45 97.8878 344.955 97.9482 345.445 97.8611C345.936 97.774 346.389 97.5433 346.748 97.1983C347.108 96.8533 347.356 96.4095 347.463 95.923C347.57 95.4365 347.53 94.9293 347.348 94.4656C347.167 94.0018 346.851 93.6024 346.443 93.318C346.273 93.1973 346.086 93.1011 345.89 93.0321C345.371 92.8442 344.806 92.8312 344.28 92.995C343.754 93.1589 343.295 93.4905 342.976 93.9393H342.945Z" fill="#263238"/>
<path d="M337.917 94.9644C336.855 94.4238 336.581 92.827 337.296 91.3979C337.613 90.7479 338.126 90.2135 338.762 89.8694C339.026 89.7032 339.328 89.6082 339.639 89.5936C339.951 89.579 340.26 89.6454 340.538 89.7862C340.816 89.9271 341.053 90.1376 341.225 90.3972C341.397 90.6568 341.499 90.9566 341.521 91.2674C341.618 91.9852 341.488 92.7154 341.148 93.3551C340.465 94.7096 339.129 95.4242 338.085 95.0452L337.917 94.9644ZM338.943 90.2112C338.382 90.5207 337.93 90.9959 337.65 91.5719C337.029 92.8146 337.221 94.1753 338.091 94.6226C338.961 95.07 340.185 94.4176 340.813 93.1812C341.116 92.6099 341.233 91.9583 341.148 91.3172C341.123 91.0708 341.04 90.834 340.905 90.6265C340.77 90.4189 340.587 90.2467 340.372 90.1242L340.235 90.0621C340.021 89.9956 339.796 89.9745 339.573 90.0002C339.35 90.0259 339.136 90.0977 338.943 90.2112Z" fill="#263238"/>
<path d="M342.558 94.0636L342.919 93.9144C342.695 93.3801 342.012 92.4792 341.055 92.8333L341.185 93.1999C342.043 92.8768 342.54 94.0139 342.558 94.0636Z" fill="#263238"/>
<path d="M353.756 100.587H354.16C354.16 100.407 354.122 98.8041 353.414 98.2884C352.706 97.7727 347.89 95.8839 347.685 95.8031L347.542 96.1635C348.94 96.7165 352.675 98.2263 353.19 98.5991C353.706 98.9719 353.756 100.146 353.756 100.587Z" fill="#263238"/>
<path d="M350.81 97.2199C350.81 97.2199 353.954 94.7035 355.159 95.9151C356.365 97.1267 353.351 101.227 351.481 101.364C351.242 101.397 350.999 101.381 350.766 101.318C350.533 101.254 350.316 101.144 350.126 100.995C349.937 100.845 349.78 100.658 349.665 100.446C349.55 100.234 349.478 100.001 349.456 99.7611L350.81 97.2199Z" fill="#AD6359"/>
<path d="M354.265 97.0708C354.265 97.0708 354.265 97.1143 354.265 97.1205C352.941 97.251 351.997 98.1644 351.226 99.1709C351.33 99.0734 351.454 98.9995 351.589 98.9542C351.724 98.909 351.868 98.8935 352.009 98.9089C352.151 98.9242 352.288 98.97 352.41 99.0431C352.532 99.1162 352.637 99.2149 352.718 99.3325C352.718 99.3325 352.718 99.4008 352.668 99.3822C352.482 99.2614 352.264 99.1998 352.042 99.2053C351.82 99.2108 351.605 99.2833 351.425 99.4132C351.12 99.6407 350.841 99.9012 350.593 100.19C350.506 100.277 350.332 100.19 350.406 100.053C350.81 98.5123 352.6 96.7477 354.265 97.0708Z" fill="#263238"/>
<path d="M345.951 121.62C337.458 120.004 320.887 112.772 318.302 110.883C312.884 106.931 301.812 87.496 302.769 84.3707C303.284 82.6496 318.041 82.0221 319.545 83.2088C321.048 84.3956 327.622 98.9658 328.461 100.153C329.3 101.339 345.989 112.498 349.661 115.686C356.272 121.452 351.481 122.676 345.951 121.62Z" fill="#AD6359"/>
<path d="M318.526 88.5834C318.526 88.5834 321.632 82.9914 323.496 79.2634C324.528 77.1757 325.982 73.429 326.031 71.5464C326.118 68.7318 324.664 56.9016 321.788 57.1936C319.184 57.4546 321.719 67.458 321.719 67.458C321.719 67.458 320.054 57.1377 316.972 58.0324C313.89 58.9271 318.271 69.8377 318.271 69.8377C318.271 69.8377 316.32 59.2751 313.3 60.6917C311.014 61.7666 314.419 71.8757 314.419 71.8757C314.419 71.8757 312.679 62.8042 310.274 63.7984C307.621 64.9044 310.181 74.4418 310.181 74.4418C304.508 78.0207 302.234 80.5247 302.725 85.0045C302.769 85.7439 318.526 88.5834 318.526 88.5834Z" fill="#AD6359"/>
<path d="M322.781 71.8384C322.626 70.5957 322.483 69.353 322.222 68.1849C321.961 67.0168 321.657 65.7866 321.29 64.6122C320.833 63.0736 320.208 61.5901 319.426 60.1884C320.669 62.7731 321.644 67.0665 321.912 68.2657C322.179 69.4649 322.496 70.6516 322.757 71.8508C322.744 71.8818 322.781 71.8694 322.781 71.8384Z" fill="#263238"/>
<path d="M318.458 72.8575C318.197 71.3103 317.992 69.7508 317.663 68.2223C317.333 66.6938 316.799 64.5627 316.37 63.059C316.333 62.9472 316.153 62.9472 316.184 63.059C316.557 64.5751 316.998 66.787 317.352 68.2969C317.706 69.8067 318.122 71.329 318.421 72.8637C318.427 72.8947 318.464 72.8823 318.458 72.8575Z" fill="#263238"/>
<path d="M314.903 74.3984C314.562 72.014 313.975 69.6715 313.151 67.4084C313.113 67.2966 313.058 67.3711 313.089 67.4892C313.71 69.8067 314.226 71.6148 314.828 74.4108C314.828 74.4543 314.909 74.4481 314.903 74.3984Z" fill="#263238"/>
<path d="M304.018 91.8204L322.707 86.1786C322.707 86.1786 327.796 98.5308 328.604 99.6305C329.411 100.73 347.53 112.56 351.146 115.53C354.762 118.5 354.165 124.061 346.399 122.576C339.701 121.296 321.545 113.878 318.153 111.61C314.76 109.342 304.018 91.8204 304.018 91.8204Z" fill="#455A64"/>
<path d="M342.516 109.404L335.563 119.203C333.438 118.414 331.257 117.562 329.176 116.717L337.029 105.658C338.813 106.869 340.708 108.162 342.516 109.404Z" fill="#37474F"/>
<path d="M308.105 95.4863C310.665 94.7966 321.035 91.5843 323.229 90.7331C323.384 90.6772 323.384 90.5653 323.229 90.6088C315.505 92.4728 310.572 94.5791 308.093 95.3869C308.018 95.4055 308.043 95.5049 308.105 95.4863Z" fill="#263238"/>
<path d="M336.507 119.538C339.566 120.223 342.547 121.216 345.405 122.502C342.346 121.818 339.365 120.825 336.507 119.538Z" fill="#263238"/>
<path d="M342.224 121.477C342.901 121.85 343.833 122.309 344.473 122.719C344.03 122.689 343.599 122.562 343.21 122.348C342.822 122.133 342.485 121.836 342.224 121.477Z" fill="#263238"/>
<path d="M351.146 115.531C349.402 114.658 347.815 113.503 346.448 112.113C348.192 112.985 349.779 114.14 351.146 115.531Z" fill="#263238"/>
</svg>
