<svg width="531" height="354" viewBox="0 0 531 354" fill="none" xmlns="http://www.w3.org/2000/svg">
<path d="M186.452 174.854H300.234V137.847H186.452V174.854Z" fill="#C7C7C7"/>
<path d="M300.234 137.854V174.861H477.595V171.251H473.772V141.465H477.595V137.854H300.234Z" fill="#A6A6A6"/>
<path d="M304.893 171.017L473.97 171.017V141.692L304.893 141.692V171.017Z" fill="white"/>
<path d="M304.886 171.017C347.033 170.897 431.837 170.748 473.97 170.698L473.652 171.017V141.692C448.001 142.704 373.597 141.564 347.196 141.897L304.921 141.798C305.042 141.168 304.921 171.152 304.921 171.017H304.886ZM304.886 171.017C304.886 170.918 304.787 141.685 304.787 141.593C304.787 141.5 347.132 141.5 347.16 141.486L473.97 141.338H474.324V141.692L474.289 171.017V171.336H473.97C431.83 171.293 347.019 171.144 304.886 171.017Z" fill="#DBDBDB"/>
<path d="M413.288 164.532C426.216 164.702 439.144 164.82 452.072 164.886L473.97 164.942V164.128L452.072 164.185C439.144 164.232 426.216 164.348 413.288 164.532Z" fill="#DBDBDB"/>
<path d="M304.886 157.6V158.351L333.114 158.429L374.029 158.322C386.957 158.261 399.885 158.146 412.813 157.976C399.885 157.806 386.957 157.69 374.029 157.629L333.114 157.522L304.886 157.6Z" fill="#DBDBDB"/>
<path d="M304.886 146.605V147.511L345.242 147.405C358.179 147.344 371.107 147.228 384.026 147.058C371.098 146.888 358.17 146.773 345.242 146.711L304.886 146.605Z" fill="#DBDBDB"/>
<path d="M304.886 164.61V165.36H315.725C328.653 165.303 341.584 165.188 354.517 165.013C341.579 164.853 328.649 164.737 315.725 164.666L304.886 164.61Z" fill="#DBDBDB"/>
<path d="M411.992 151.972C424.925 152.132 437.855 152.248 450.784 152.319L473.971 152.383V151.561L450.784 151.625C437.846 151.682 424.916 151.797 411.992 151.972Z" fill="#DBDBDB"/>
<path d="M462.72 154.981C453.823 154.934 444.919 154.898 436.008 154.875H407.836H380.387C371.481 154.875 362.576 154.91 353.674 154.981C362.581 155.028 371.485 155.063 380.387 155.087H407.836H436.008C444.914 155.063 453.819 155.028 462.72 154.981Z" fill="#DBDBDB"/>
<path d="M451.576 110.349H337.793V137.854H451.576V110.349Z" fill="#EBEBEB"/>
<path d="M337.786 137.854V110.349H160.425V113.032H164.248V135.171H160.425V137.854H337.786Z" fill="#DBDBDB"/>
<path d="M333.135 113.202H164.058V135.001H333.135V113.202Z" fill="white"/>
<path d="M333.135 113.202C290.988 113.329 206.184 113.478 164.058 113.527L164.383 113.202V135.001C162.146 134.024 249.074 135.065 248.572 134.753C269.627 134.753 312.065 134.852 333.114 134.923C332.993 135.39 333.114 113.11 333.114 113.202H333.135ZM333.135 113.202L333.213 135.001V135.079H333.135C312.044 135.15 269.677 135.242 248.593 135.249L164.058 135.355H163.704V135.001V113.202V112.876H164.029C206.169 112.926 290.981 113.074 333.107 113.202H333.135Z" fill="#DBDBDB"/>
<path d="M224.741 118.023C211.812 117.896 198.882 117.808 185.949 117.761L164.051 117.719V118.321L185.949 118.285C198.863 118.252 211.794 118.165 224.741 118.023Z" fill="#DBDBDB"/>
<path d="M333.135 123.192V122.632L304.914 122.576L263.999 122.654C251.071 122.701 238.14 122.786 225.208 122.908C238.136 123.036 251.066 123.123 263.999 123.17L304.914 123.248L333.135 123.192Z" fill="#DBDBDB"/>
<path d="M333.135 131.348V130.64L292.779 130.718C279.846 130.765 266.916 130.852 253.988 130.98C266.916 131.098 279.846 131.183 292.779 131.235L333.135 131.348Z" fill="#DBDBDB"/>
<path d="M333.135 117.967V117.407H322.295C309.367 117.45 296.439 117.537 283.511 117.669C296.439 117.792 309.367 117.877 322.295 117.924L333.135 117.967Z" fill="#DBDBDB"/>
<path d="M226.036 127.362C213.103 127.244 200.171 127.156 187.238 127.1L164.051 127.057V127.666L187.238 127.617C200.175 127.574 213.108 127.489 226.036 127.362Z" fill="#DBDBDB"/>
<path d="M175.301 125.125C184.207 125.162 193.112 125.188 202.014 125.202H230.192H257.634C266.541 125.202 275.445 125.176 284.347 125.125C275.445 125.082 266.541 125.056 257.634 125.047H230.192H202.014C193.107 125.061 184.203 125.087 175.301 125.125Z" fill="#DBDBDB"/>
<path d="M231.445 54.99H73.561V174.861H231.445V54.99Z" fill="#EBEBEB"/>
<path d="M291.448 54.99H231.445V174.861H291.448V54.99Z" fill="#DBDBDB"/>
<path d="M73.561 114.462H231.445L108.147 117.57L73.561 114.462Z" fill="#DBDBDB"/>
<path d="M231.445 160.27H73.561L196.866 163.378L231.445 160.27Z" fill="#DBDBDB"/>
<path d="M73.561 80.6975H173.573L84.6696 83.2321L73.561 80.6975Z" fill="#DBDBDB"/>
<path d="M231.445 142.485H131.44L220.336 145.019L231.445 142.485Z" fill="#DBDBDB"/>
<path d="M244.699 62.4453H144.694L233.597 64.987L244.699 62.4453Z" fill="#DBDBDB"/>
<path d="M142.025 70.042H254.823L236.019 71.5642L142.025 70.042Z" fill="#DBDBDB"/>
<path d="M88.9106 127.411H201.709L182.905 128.934L88.9106 127.411Z" fill="#DBDBDB"/>
<path d="M158.273 92.1953H231.445L244.521 96.2592L158.273 92.1953Z" fill="#EBEBEB"/>
<path d="M175.91 132.7H249.081L262.151 136.764L175.91 132.7Z" fill="#EBEBEB"/>
<path d="M159.816 150.549H232.988L246.065 154.613L159.816 150.549Z" fill="#EBEBEB"/>
<path d="M53.4043 92.1953H126.576L139.646 96.2592L53.4043 92.1953Z" fill="#DBDBDB"/>
<path d="M147.292 68.7747H74.1275L61.0508 72.8315L147.292 68.7747Z" fill="#EBEBEB"/>
<path d="M151.25 140.453H78.0782L65.0015 144.517L151.25 140.453Z" fill="#EBEBEB"/>
<path d="M147.292 146.492H74.1275L61.0508 150.549L147.292 146.492Z" fill="#DBDBDB"/>
<path d="M231.445 132.7H290.202L303.278 136.764L231.445 132.7Z" fill="#DBDBDB"/>
<path d="M251.956 114.462H297.523L291.448 111.141L251.956 114.462Z" fill="#DBDBDB"/>
<path d="M39.2656 174.875C184.207 174.444 346.792 174.436 491.734 174.875C346.792 175.314 184.207 175.307 39.2656 174.875Z" fill="#263238"/>
<path d="M330.955 275.107L401.266 257.825L490.602 270.272L417.253 288.835L330.955 275.107Z" fill="#DBDBDB"/>
<path d="M330.955 275.107L401.245 257.747C401.245 257.747 490.644 270.109 490.644 270.102L491.543 270.222L490.644 270.456L417.253 288.934C417.253 288.934 330.983 275.1 330.955 275.107ZM330.955 275.107C330.955 275.107 417.387 288.75 417.231 288.743L490.559 270.102V270.449C490.559 270.449 401.153 257.896 401.287 257.903L330.955 275.107Z" fill="#DBDBDB"/>
<path d="M414.456 284.021C418.782 282.69 423.242 281.451 427.717 280.226C432.191 279.001 436.737 277.826 441.296 276.686C445.856 275.546 450.5 274.392 455.159 273.309L462.182 271.687C464.575 271.178 466.919 270.64 469.34 270.158C467.216 270.831 464.965 271.447 462.777 272.098L456.086 273.946C451.626 275.185 447.067 276.353 442.507 277.486C437.947 278.619 433.303 279.78 428.644 280.863C423.986 281.946 419.285 283.03 414.456 284.021Z" fill="#C7C7C7"/>
<path d="M426.074 276.99C431.03 275.291 436.383 273.833 441.806 272.445C447.229 271.057 452.822 269.748 458.784 268.728C453.828 270.434 448.482 271.886 443.052 273.273C437.622 274.661 432 275.943 426.074 276.99Z" fill="#C7C7C7"/>
<path d="M393.273 281.21C397.599 279.879 402.059 278.64 406.534 277.415C411.008 276.19 415.554 275.015 420.113 273.875C424.673 272.735 429.317 271.581 433.969 270.498L440.999 268.884C443.385 268.374 445.736 267.836 448.157 267.347C446.033 268.02 443.782 268.643 441.594 269.287L434.903 271.142C430.436 272.374 425.883 273.542 421.324 274.682C416.764 275.822 412.12 276.976 407.461 278.059C402.803 279.143 398.102 280.219 393.273 281.21Z" fill="#C7C7C7"/>
<path d="M390.568 277.805C397.924 275.496 405.649 273.443 413.465 271.433C421.281 269.422 429.253 267.553 437.537 265.903C430.181 268.211 422.457 270.264 414.647 272.275C406.838 274.286 398.88 276.155 390.568 277.805Z" fill="#C7C7C7"/>
<path d="M399.758 271.397C403.815 269.924 408.254 268.7 412.764 267.539C417.274 266.377 421.968 265.33 426.973 264.508C422.916 265.988 418.477 267.206 413.974 268.367C409.472 269.528 404.77 270.576 399.758 271.397Z" fill="#C7C7C7"/>
<path d="M40.3984 202.53L137.961 184.065L232.104 211.571L135.03 230.701L40.3984 202.53Z" fill="#EBEBEB"/>
<path d="M40.3984 202.53L137.968 183.973C137.968 183.973 232.132 211.408 232.132 211.401L232.84 211.607L232.132 211.748L135.03 230.808C134.994 230.808 40.4268 202.551 40.3984 202.551V202.53ZM40.3984 202.53L135.058 230.609C134.824 230.659 232.132 211.38 232.054 211.401V211.741L137.94 184.129C138.124 184.087 40.3701 202.537 40.3984 202.537V202.53Z" fill="#DBDBDB"/>
<path d="M133.663 225.094C140.035 223.621 146.457 222.262 152.907 220.896C159.356 219.529 165.856 218.226 172.362 216.938C178.869 215.649 185.411 214.389 191.995 213.193L201.872 211.394C205.192 210.828 208.485 210.233 211.833 209.695C208.662 210.438 205.461 211.111 202.247 211.819L192.576 213.894C186.133 215.267 179.626 216.563 173.127 217.851C166.628 219.14 160.079 220.4 153.494 221.597C146.91 222.793 140.332 224.004 133.663 225.094Z" fill="#DBDBDB"/>
<path d="M158.67 215.302C165.622 213.511 172.83 211.996 180.059 210.552C187.287 209.107 194.65 207.791 202.212 206.721C195.259 208.513 188.052 210.028 180.823 211.472C173.595 212.916 166.231 214.233 158.67 215.302Z" fill="#DBDBDB"/>
<path d="M124.042 217.256C129.599 215.94 135.235 214.729 140.885 213.525C146.535 212.322 152.213 211.182 157.933 210.042C163.654 208.902 169.382 207.812 175.166 206.771L183.839 205.213C186.763 204.725 189.652 204.208 192.597 203.748C189.829 204.413 187.011 205.022 184.214 205.659L175.754 207.479C170.09 208.69 164.426 209.822 158.705 210.962C152.985 212.102 147.264 213.185 141.48 214.233C135.695 215.281 129.918 216.322 124.042 217.256Z" fill="#DBDBDB"/>
<path d="M119.503 213.285C124.636 212.053 129.847 210.92 135.079 209.801C140.312 208.683 145.579 207.621 150.861 206.573C156.142 205.525 161.481 204.505 166.819 203.55L174.855 202.134C177.567 201.688 180.25 201.213 182.983 200.795C180.427 201.426 177.814 201.985 175.237 202.587L167.407 204.279C162.189 205.405 156.907 206.459 151.625 207.507C146.344 208.555 141.005 209.568 135.667 210.53C130.329 211.493 124.955 212.4 119.503 213.285Z" fill="#DBDBDB"/>
<path d="M95.1978 213.207C101.57 211.734 107.991 210.375 114.441 209.001C120.891 207.628 127.391 206.339 133.897 205.043C140.404 203.748 146.945 202.502 153.523 201.298L163.435 199.5C166.755 198.94 170.048 198.339 173.396 197.801C170.225 198.551 167.024 199.217 163.81 199.925L154.146 201.978C147.703 203.344 141.197 204.64 134.697 205.935C128.198 207.231 121.649 208.477 115.064 209.681C108.48 210.884 101.867 212.109 95.1978 213.207Z" fill="#DBDBDB"/>
<path d="M94.3906 208.499C100.012 207.168 105.719 205.943 111.432 204.725C117.146 203.507 122.916 202.353 128.686 201.185C134.456 200.017 140.262 198.926 146.11 197.872L154.889 196.293C157.842 195.797 160.773 195.273 163.746 194.813C160.914 195.486 158.082 196.094 155.25 196.746L146.691 198.58C140.984 199.804 135.214 200.951 129.444 202.12C123.674 203.288 117.861 204.378 112.013 205.433C106.165 206.488 100.331 207.55 94.3906 208.499Z" fill="#DBDBDB"/>
<path d="M75.9614 207.26C82.3334 205.787 88.755 204.428 95.2119 203.061C101.669 201.695 108.161 200.364 114.696 199.103C121.231 197.843 127.745 196.555 134.329 195.358L144.206 193.56C147.526 192.993 150.825 192.399 154.167 191.861C150.995 192.604 147.795 193.277 144.588 193.985L134.924 196.045C128.481 197.411 121.974 198.707 115.468 199.996C108.961 201.284 102.419 202.544 95.835 203.741C89.2506 204.937 82.6379 206.169 75.9614 207.26Z" fill="#DBDBDB"/>
<path d="M98.313 197.992C105.712 196.109 113.344 194.508 121.033 192.979C128.722 191.45 136.51 190.041 144.517 188.887C137.118 190.77 129.493 192.363 121.797 193.9C114.101 195.436 106.32 196.824 98.313 197.992Z" fill="#DBDBDB"/>
<path d="M183.358 296.793L307.343 273.33L426.967 308.284L303.612 332.59L183.358 296.793Z" fill="#EBEBEB"/>
<path d="M183.372 296.793L307.343 273.238C307.343 273.238 426.995 308.121 426.995 308.114L427.703 308.319L426.995 308.461L303.612 332.682C303.576 332.689 183.372 296.793 183.372 296.793ZM183.372 296.793L303.654 332.505C303.435 332.505 427.002 308.1 426.945 308.114V308.454L307.315 273.415C307.499 273.358 183.33 296.829 183.358 296.779L183.372 296.793Z" fill="#DBDBDB"/>
<path d="M301.87 325.467C309.948 323.598 318.154 321.849 326.332 320.129C334.509 318.408 342.785 316.745 351.048 315.102C359.31 313.459 367.629 311.866 375.998 310.337L388.551 308.057C392.799 307.349 396.955 306.578 401.21 305.898C397.181 306.847 393.089 307.718 389.032 308.631L376.748 311.236C368.564 312.978 360.294 314.621 352.032 316.263C343.77 317.906 335.451 319.499 327.082 321.021C318.713 322.543 310.352 324.079 301.87 325.467Z" fill="#DBDBDB"/>
<path d="M333.652 313.021C342.488 310.748 351.621 308.822 360.825 306.988C370.029 305.155 379.374 303.448 388.989 302.117C380.153 304.397 371.013 306.323 361.809 308.157C352.605 309.99 343.259 311.661 333.652 313.021Z" fill="#DBDBDB"/>
<path d="M289.65 315.506C296.73 313.835 303.874 312.291 311.053 310.769C318.232 309.247 325.475 307.788 332.718 306.344C339.96 304.9 347.26 303.512 354.609 302.181L365.64 300.199C369.349 299.583 373.024 298.924 376.769 298.344C373.229 299.193 369.689 299.965 366.149 300.772L355.402 303.08C348.23 304.617 340.98 306.061 333.737 307.505C326.494 308.95 319.188 310.337 311.839 311.661C304.49 312.985 297.112 314.352 289.65 315.506Z" fill="#DBDBDB"/>
<path d="M283.908 310.458C290.429 308.893 297.056 307.456 303.732 306.04C310.409 304.624 317.071 303.264 323.783 301.926C330.495 300.588 337.235 299.307 344.06 298.089L354.283 296.262C357.724 295.703 361.13 295.094 364.606 294.563C361.356 295.363 358.043 296.078 354.758 296.836L344.81 298.96C338.183 300.376 331.472 301.728 324.76 303.066C318.048 304.404 311.308 305.686 304.483 306.903C297.658 308.121 290.804 309.396 283.908 310.458Z" fill="#DBDBDB"/>
<path d="M252.99 310.358C261.068 308.489 269.274 306.741 277.451 305.02C285.629 303.3 293.905 301.636 302.167 299.993C310.43 298.351 318.749 296.758 327.096 295.236L339.649 292.956C343.897 292.248 348.053 291.476 352.308 290.832C348.279 291.781 344.187 292.651 340.13 293.565L327.847 296.17C319.662 297.912 311.393 299.554 303.13 301.197C294.868 302.839 286.549 304.432 278.18 305.955C269.812 307.477 261.472 308.971 252.99 310.358Z" fill="#DBDBDB"/>
<path d="M251.97 304.376C259.114 302.691 266.364 301.126 273.628 299.59C280.892 298.053 288.213 296.574 295.576 295.108C302.939 293.643 310.288 292.241 317.722 290.903L328.845 288.864C332.604 288.24 336.321 287.575 340.109 286.98C336.569 287.837 332.923 288.616 329.326 289.437L318.451 291.773C311.194 293.324 303.86 294.789 296.503 296.248C289.147 297.706 281.791 299.08 274.357 300.453C266.923 301.827 259.517 303.172 251.97 304.376Z" fill="#DBDBDB"/>
<path d="M228.549 302.804C236.628 300.935 244.833 299.186 253.011 297.466C261.188 295.745 269.465 294.081 277.727 292.439C285.989 290.796 294.308 289.203 302.677 287.674L315.23 285.394C319.478 284.686 323.634 283.915 327.882 283.235C323.86 284.184 319.768 285.054 315.711 285.968L303.427 288.573C295.243 290.315 286.973 291.957 278.711 293.6C270.449 295.243 262.13 296.836 253.761 298.358C245.393 299.88 237.031 301.416 228.549 302.804Z" fill="#DBDBDB"/>
<path d="M256.954 291.023C266.356 288.637 276.07 286.605 285.819 284.651C295.568 282.697 305.495 280.913 315.669 279.447C306.266 281.84 296.553 283.872 286.796 285.819C277.04 287.766 267.128 289.572 256.954 291.023Z" fill="#DBDBDB"/>
<path d="M486.325 237.328L256.777 300.751V255.035L486.325 191.613C498.489 214.042 486.325 237.328 486.325 237.328Z" fill="#37474F"/>
<path d="M32.7803 269.039L256.777 300.751V289.161L53.2627 264.268L32.7803 265.499V269.039Z" fill="#455A64"/>
<path d="M256.785 255.248C265.153 275.39 256.785 300.751 256.785 300.751L43.5845 267.078V227.565L256.785 255.248Z" fill="#455A64"/>
<path d="M251.51 254.568C259.659 274.633 252.183 296.241 252.183 296.241L43.5845 266.916V227.551L251.51 254.568Z" fill="white"/>
<path d="M251.51 254.568C251.786 255.347 252.586 257.542 252.862 258.313C254.519 263.825 255.358 269.55 255.354 275.305C255.385 282.405 254.352 289.469 252.289 296.262C252.388 296.574 43.6057 267.156 43.5349 267.234L43.2305 267.192V266.916V227.551V227.19L43.5845 227.239L147.59 240.854L251.467 254.554L251.51 254.568ZM251.51 254.568C200.364 247.693 93.3356 235.006 43.896 227.565L43.9314 266.93L43.6269 266.576C43.6269 266.654 252.657 296.021 252.062 296.206C253.119 292.834 253.91 289.385 254.427 285.89C256.006 275.433 255.397 264.459 251.503 254.568H251.51Z" fill="#DBDBDB"/>
<path d="M144.517 244.614C179.322 248.862 218.305 254.101 252.99 259.248C218.184 255 179.202 249.754 144.517 244.614Z" fill="#DBDBDB"/>
<path d="M43.5845 241.966C73.4196 245.506 106.519 249.994 136.248 254.462C106.391 250.922 73.3063 246.447 43.5845 241.966Z" fill="#DBDBDB"/>
<path d="M48.5547 245.853C99.2546 252.225 156.057 259.885 206.623 267.17C155.93 260.798 99.1271 253.138 48.5547 245.853Z" fill="#DBDBDB"/>
<path d="M75.9614 259.227C128.552 265.733 187.478 273.549 239.941 280.969C187.358 274.47 128.431 266.646 75.9614 259.227Z" fill="#DBDBDB"/>
<path d="M111.312 267.553C157.176 273.288 208.612 280.212 254.37 286.853C208.485 281.132 157.077 274.194 111.312 267.553Z" fill="#DBDBDB"/>
<path d="M70.0918 267.475C128.856 274.965 194.7 283.844 253.315 292.191C194.551 284.708 128.707 275.822 70.0918 267.475Z" fill="#DBDBDB"/>
<path d="M256.784 255.248L486.325 191.613L254.37 181.106L32.7803 222.198V226.163L256.784 255.248Z" fill="#455A64"/>
<path d="M262.668 248.253C291.144 239.622 320.391 231.827 349.61 225.094C321.142 233.732 291.894 241.513 262.668 248.253Z" fill="#37474F"/>
<path d="M207.6 244.203C215.529 244.614 223.721 245.534 231.594 246.49C239.467 247.446 247.595 248.614 255.312 250.207C247.382 249.803 239.191 248.876 231.325 247.92C223.459 246.964 215.324 245.76 207.6 244.203Z" fill="#37474F"/>
<path d="M38.9399 222.97C92.8541 228.761 147.2 235.594 200.753 243.332C146.797 237.555 92.4577 230.708 38.9399 222.97Z" fill="#37474F"/>
<path d="M412.764 217.398C435.165 210.36 457.837 203.948 480.781 198.162C458.39 205.199 435.717 211.611 412.764 217.398Z" fill="#455A64"/>
<path d="M293.742 182.529C290.768 183.109 278.492 183.768 278.244 181.113C277.862 177.12 307.222 148.8 317.757 143.476C327.776 138.406 360.053 127.347 368.025 127.107L368.096 152.538C363.586 153.685 327.655 150.18 320.108 154.188C316.83 155.929 312.49 163.151 303.654 174.621C300.546 178.663 295.498 182.182 293.742 182.529Z" fill="#34A1D3"/>
<g opacity="0.3">
<path d="M293.742 182.529C290.768 183.109 278.492 183.768 278.244 181.113C277.862 177.12 307.222 148.8 317.757 143.476C327.776 138.406 360.053 127.347 368.025 127.107L368.096 152.538C363.586 153.685 327.655 150.18 320.108 154.188C316.83 155.929 312.49 163.151 303.654 174.621C300.546 178.663 295.498 182.182 293.742 182.529Z" fill="black"/>
</g>
<path d="M287.646 182.529C284.666 183.109 273.253 183.768 272.998 181.113C272.622 177.12 301.983 148.8 312.511 143.476C322.529 138.406 360.053 127.347 368.025 127.107L368.096 152.538C363.586 153.685 322.416 150.18 314.869 154.188C311.591 155.929 306.373 163.151 297.551 174.621C294.45 178.663 289.402 182.182 287.646 182.529Z" fill="#34A1D3"/>
<g opacity="0.2">
<path d="M287.646 182.529C284.666 183.109 273.253 183.768 272.998 181.113C272.622 177.12 301.983 148.8 312.511 143.476C322.529 138.406 360.053 127.347 368.025 127.107L368.096 152.538C363.586 153.685 322.416 150.18 314.869 154.188C311.591 155.929 306.373 163.151 297.551 174.621C294.45 178.663 289.402 182.182 287.646 182.529Z" fill="black"/>
</g>
<path d="M403.411 216.272C405.974 217.348 416.056 217.894 417.784 215.72C420.389 212.428 388.6 167.633 369.923 159.505C352.456 151.965 106.037 104.104 100.954 103.311L100.77 123.191C135.1 128.558 352.938 163.264 366.411 169.134C375.197 172.95 386.391 193.085 394.434 206.997C397.683 212.647 400.438 215.026 403.411 216.272Z" fill="#34A1D3"/>
<g opacity="0.2">
<path d="M403.411 216.272C405.974 217.348 416.056 217.894 417.784 215.72C420.389 212.428 388.6 167.633 369.923 159.505C352.456 151.965 106.037 104.104 100.954 103.311L100.77 123.191C135.1 128.558 352.938 163.264 366.411 169.134C375.197 172.95 386.391 193.085 394.434 206.997C397.683 212.647 400.438 215.026 403.411 216.272Z" fill="black"/>
</g>
<path d="M399.156 216.272C401.719 217.348 411.801 217.894 413.528 215.72C416.134 212.428 384.578 166.549 365.908 158.422C348.435 150.881 106.037 104.075 100.953 103.311L96.5142 123.191C130.845 128.558 348.683 163.264 362.156 169.134C370.942 172.95 382.135 193.085 390.178 206.997C393.428 212.647 396.182 215.026 399.156 216.272Z" fill="#34A1D3"/>
<g opacity="0.1">
<path d="M399.156 216.272C401.719 217.348 411.801 217.894 413.528 215.72C416.134 212.428 384.578 166.549 365.908 158.422C348.435 150.881 106.037 104.075 100.953 103.311L96.5142 123.191C130.845 128.558 348.683 163.264 362.156 169.134C370.942 172.95 382.135 193.085 390.178 206.997C393.428 212.647 396.182 215.026 399.156 216.272Z" fill="black"/>
</g>
<g opacity="0.1">
<path d="M148.68 112.486L130.031 128.523C114.519 126.045 102.617 124.168 96.5283 123.213L100.96 103.311C102.341 103.523 121.365 107.169 148.68 112.486Z" fill="black"/>
<path d="M196.37 139.256L184.787 137.351L174.026 117.442L191.082 120.812L196.37 139.256Z" fill="black"/>
<path d="M261.605 134.987L248.507 147.894L236.875 145.94L246.178 131.843C251.347 132.886 256.489 133.934 261.605 134.987Z" fill="black"/>
<path d="M364.308 157.834L359.798 168.376C357.631 167.767 354.368 167.003 350.169 166.118L346.919 153.267C355.09 155.193 361.122 156.758 364.308 157.834Z" fill="black"/>
</g>
<path d="M147.788 226.687C122.116 225.448 102.582 196.37 104.239 161.877C105.025 145.416 110.469 130.109 119.56 118.774C128.955 107.063 141.083 100.918 153.827 101.562C166.571 102.206 178.055 109.428 186.275 121.995C194.24 134.13 198.19 149.897 197.39 166.372C195.819 199.011 175.81 224.995 151.901 226.644C150.532 226.737 149.159 226.751 147.788 226.687ZM126.095 124.027C118.101 133.974 113.28 147.568 112.572 162.287C111.156 192.165 127.107 217.306 148.177 218.318C169.247 219.331 187.563 195.846 189.015 165.926C189.723 151.207 186.246 137.224 179.258 126.54C172.525 116.281 163.343 110.37 153.402 109.895C152.344 109.831 151.282 109.831 150.223 109.895C141.416 110.568 132.948 115.474 126.095 124.013V124.027ZM104.274 166.259C102.978 141.026 105.803 137.075 104.656 129.634C104.111 126.094 99.127 122.696 99.127 122.696L103.481 104.578C103.481 104.578 117.054 105.902 120.183 105.952C125.748 106.03 137.763 101.966 148.227 101.704C148.227 101.704 125.479 111.927 118.165 124.961C110.851 137.996 104.274 166.245 104.274 166.245V166.259Z" fill="#34A1D3"/>
<path opacity="0.1" d="M147.788 226.687C122.116 225.448 102.582 196.37 104.239 161.877C105.025 145.416 110.469 130.109 119.56 118.774C128.955 107.063 141.083 100.918 153.827 101.562C166.571 102.206 178.055 109.428 186.275 121.995C194.24 134.13 198.19 149.897 197.39 166.372C195.819 199.011 175.81 224.995 151.901 226.644C150.532 226.737 149.159 226.751 147.788 226.687ZM126.095 124.027C118.101 133.974 113.28 147.568 112.572 162.287C111.156 192.165 127.107 217.306 148.177 218.318C169.247 219.331 187.563 195.846 189.015 165.926C189.723 151.207 186.246 137.224 179.258 126.54C172.525 116.281 163.343 110.37 153.402 109.895C152.344 109.831 151.282 109.831 150.223 109.895C141.416 110.568 132.948 115.474 126.095 124.013V124.027ZM104.274 166.259C102.978 141.026 105.803 137.075 104.656 129.634C104.111 126.094 99.127 122.696 99.127 122.696L103.481 104.578C103.481 104.578 117.054 105.902 120.183 105.952C125.748 106.03 137.763 101.966 148.227 101.704C148.227 101.704 125.479 111.927 118.165 124.961C110.851 137.996 104.274 166.245 104.274 166.245V166.259Z" fill="black"/>
<path d="M144.297 226.687C118.618 225.448 99.0844 196.37 100.741 161.877C101.527 145.416 106.972 130.109 116.062 118.774C125.457 107.063 137.585 100.918 150.329 101.562C163.073 102.206 174.557 109.428 182.777 121.995C190.742 134.13 194.693 149.897 193.893 166.372C192.321 199.011 172.313 224.995 148.404 226.644C147.037 226.737 145.666 226.751 144.297 226.687ZM122.597 124.027C114.604 133.988 109.811 147.582 109.103 162.301C107.687 192.179 123.631 217.32 144.701 218.333C165.771 219.345 184.087 195.861 185.538 165.941C186.246 151.221 182.77 137.238 175.782 126.554C169.056 116.296 159.866 110.384 149.926 109.909C148.867 109.846 147.806 109.846 146.747 109.909C137.925 110.568 129.451 115.474 122.597 124.013V124.027ZM100.777 166.259C99.4809 141.026 102.306 137.075 101.159 129.634C100.614 126.094 95.6294 122.696 95.6294 122.696L100.182 102.504C100.182 102.504 113.981 104.946 117.103 104.989C122.668 105.074 134.265 101.966 144.715 101.732C144.715 101.732 121.967 111.956 114.653 124.99C107.34 138.024 100.777 166.245 100.777 166.245V166.259Z" fill="#34A1D3"/>
<path d="M113.79 111.743C113.627 112.996 111.297 113.718 108.586 113.357C105.874 112.996 103.821 111.686 103.991 110.44C104.161 109.194 106.483 108.465 109.195 108.826C111.906 109.187 113.988 110.49 113.79 111.743Z" fill="#A6A6A6"/>
<path d="M105.18 110.483C105.4 109.881 107.757 109.201 110.334 109.895L105.18 110.483Z" fill="white"/>
<path d="M99.1196 122.859C104.019 125.606 106.115 129.655 105.562 135.263C105.017 144.991 103.92 154.627 103.906 164.355C103.839 169.209 104.151 174.062 104.84 178.869C101.704 167.017 102.638 154.52 103.743 142.449L104.451 135.199C105.216 129.776 103.502 126.066 99.1055 122.859H99.1196Z" fill="white"/>
<path d="M124.707 106.157C131.504 104.217 138.563 102.617 145.671 102.936C138.591 103.566 131.716 105.152 124.707 106.157Z" fill="white"/>
<path opacity="0.1" d="M124.7 124.53C116.975 134.442 112.345 147.95 111.651 162.592C110.271 192.328 125.705 217.306 146.067 218.318C166.429 219.331 184.136 195.967 185.538 166.245C186.246 151.611 182.869 137.698 176.115 127.078C169.608 116.869 160.73 110.993 151.115 110.518C150.092 110.455 149.066 110.455 148.042 110.518C139.511 111.155 131.327 116.027 124.7 124.53Z" fill="#EBEBEB"/>
<g opacity="0.2">
<path d="M163.775 114.511L111.595 168.199C111.545 166.344 111.595 164.482 111.659 162.585C111.906 157.045 112.755 151.55 114.193 146.194L148.885 110.518C149.593 110.518 150.379 110.518 151.13 110.518C155.612 110.774 159.959 112.146 163.775 114.511Z" fill="white"/>
<path d="M181.956 139.476L121.188 201.999C120.071 200.266 119.059 198.466 118.158 196.611L179.549 133.443C180.465 135.407 181.268 137.421 181.956 139.476Z" fill="white"/>
<path d="M184.321 176.83C183.579 180.863 182.494 184.826 181.078 188.674L152.794 217.773C150.585 218.25 148.324 218.433 146.068 218.318C145.43 218.283 144.793 218.233 144.163 218.148L184.321 176.83Z" fill="white"/>
<path d="M184.434 149.097L126.484 208.718C126.208 208.449 125.946 208.166 125.691 207.875L184.165 147.695C184.271 148.163 184.349 148.637 184.434 149.097Z" fill="white"/>
</g>
<path d="M227.778 167.916L233.442 161.763C224.337 153.338 202.906 141.571 186.848 157.182L192.682 163.186C207.069 149.175 226.935 167.151 227.778 167.916Z" fill="#34A1D3"/>
<path d="M281.968 234.347C265.623 231.347 251.137 221.981 241.692 208.308C232.247 194.635 228.615 177.772 231.593 161.424C233.824 149.233 239.62 137.977 248.248 129.08C256.875 120.182 267.947 114.043 280.064 111.438C292.181 108.834 304.798 109.88 316.319 114.445C327.841 119.011 337.751 126.89 344.795 137.087C351.838 147.285 355.701 159.341 355.892 171.733C356.084 184.125 352.598 196.296 345.873 206.706C339.148 217.116 329.487 225.299 318.112 230.219C306.738 235.139 294.159 236.576 281.968 234.347ZM239.835 162.953C237.818 174.064 239.322 185.527 244.136 195.742C248.95 205.957 256.835 214.414 266.688 219.93C276.542 225.447 287.872 227.748 299.097 226.513C310.322 225.277 320.881 220.567 329.299 213.04C337.717 205.512 343.574 195.544 346.051 184.526C348.529 173.509 347.504 161.993 343.119 151.586C338.734 141.18 331.208 132.402 321.593 126.48C311.978 120.558 300.753 117.787 289.487 118.554C277.457 119.395 266.048 124.214 257.059 132.253C248.07 140.291 242.01 151.091 239.835 162.953Z" fill="#34A1D3"/>
<path d="M349.044 145.933C344.732 131.617 319.619 115.878 319.619 115.878C329.786 118.377 341.001 123.461 346.452 124.593C349.511 125.224 368.06 127.121 368.06 127.121L368.131 152.552C368.131 152.552 363.034 152.836 361.759 156.17C359.026 163.186 360.407 164.886 353.667 189.227C353.603 189.227 353.292 160.241 349.044 145.933Z" fill="#34A1D3"/>
<g opacity="0.1">
<path d="M281.968 234.347C265.623 231.347 251.137 221.981 241.692 208.308C232.247 194.635 228.615 177.772 231.593 161.424C233.824 149.233 239.62 137.977 248.248 129.08C256.875 120.182 267.947 114.043 280.064 111.438C292.181 108.834 304.798 109.88 316.319 114.445C327.841 119.011 337.751 126.89 344.795 137.087C351.838 147.285 355.701 159.341 355.892 171.733C356.084 184.125 352.598 196.296 345.873 206.706C339.148 217.116 329.487 225.299 318.112 230.219C306.738 235.139 294.159 236.576 281.968 234.347ZM239.835 162.953C237.818 174.064 239.322 185.527 244.136 195.742C248.95 205.957 256.835 214.414 266.688 219.93C276.542 225.447 287.872 227.748 299.097 226.513C310.322 225.277 320.881 220.567 329.299 213.04C337.717 205.512 343.574 195.544 346.051 184.526C348.529 173.509 347.504 161.993 343.119 151.586C338.734 141.18 331.208 132.402 321.593 126.48C311.978 120.558 300.753 117.787 289.487 118.554C277.457 119.395 266.048 124.214 257.059 132.253C248.07 140.291 242.01 151.091 239.835 162.953Z" fill="black"/>
<path d="M349.044 145.933C344.732 131.617 319.619 115.878 319.619 115.878C329.786 118.377 341.001 123.461 346.452 124.593C349.511 125.224 368.06 127.121 368.06 127.121L368.131 152.552C368.131 152.552 363.034 152.836 361.759 156.17C359.026 163.186 360.407 164.886 353.667 189.227C353.603 189.227 353.292 160.241 349.044 145.933Z" fill="black"/>
</g>
<path d="M276.396 233.434C260.064 230.433 245.589 221.077 236.146 207.418C226.703 193.759 223.062 176.913 226.022 160.574C228.238 148.369 234.025 137.096 242.651 128.182C251.276 119.268 262.352 113.112 274.477 110.495C286.602 107.877 299.231 108.915 310.766 113.478C322.3 118.04 332.222 125.922 339.276 136.125C346.33 146.329 350.198 158.395 350.392 170.798C350.585 183.201 347.095 195.382 340.363 205.801C333.632 216.219 323.96 224.407 312.574 229.327C301.187 234.247 288.597 235.679 276.396 233.441V233.434ZM234.263 162.075C232.237 173.195 233.736 184.67 238.55 194.896C243.364 205.123 251.252 213.59 261.113 219.115C270.973 224.639 282.314 226.946 293.549 225.711C304.784 224.476 315.353 219.763 323.779 212.229C332.205 204.694 338.066 194.716 340.544 183.688C343.023 172.661 341.994 161.134 337.602 150.719C333.21 140.305 325.674 131.522 316.047 125.599C306.421 119.676 295.184 116.909 283.908 117.683C271.88 118.525 260.474 123.344 251.486 131.381C242.499 139.418 236.439 150.216 234.263 162.075Z" fill="#34A1D3"/>
<path d="M343.436 145.055C339.124 130.739 314.012 115 314.012 115C324.179 117.499 335.393 122.583 340.845 123.715C343.903 124.346 362.453 126.243 362.453 126.243L362.524 149.529C362.524 149.529 357.426 151.073 356.152 154.4C353.412 161.416 354.793 164.008 348.052 188.384C348.031 188.328 347.748 159.363 343.436 145.055Z" fill="#34A1D3"/>
<path d="M354.509 136.7C354.34 137.953 352.01 138.675 349.306 138.314C346.601 137.953 344.534 136.651 344.704 135.397C344.874 134.144 347.203 133.422 349.907 133.783C352.612 134.144 354.708 135.454 354.509 136.7Z" fill="#A6A6A6"/>
<path d="M345.893 135.447C346.113 134.845 348.47 134.158 351.047 134.859L345.893 135.447Z" fill="white"/>
<path d="M259.007 119.56C264.376 115.471 270.951 113.282 277.699 113.336C271.327 115.205 265.195 117.23 259.007 119.56Z" fill="white"/>
<path d="M232.493 150.804C235.665 138.137 246.256 125.917 257.917 120.218C247 128.006 237.845 138.456 232.493 150.804Z" fill="white"/>
<path opacity="0.1" d="M236.847 162.075C231.608 191.506 250.71 219.826 279.44 225.2C308.171 230.574 335.797 210.99 341.036 181.566C346.275 152.142 327.167 123.807 298.436 118.441C294.116 117.627 289.709 117.373 285.324 117.683C261.726 119.347 241.279 137.189 236.847 162.075Z" fill="#EBEBEB"/>
<g opacity="0.2">
<path d="M341.851 174.323L291.377 226.007C287.38 226.192 283.374 225.911 279.441 225.172C277.738 224.856 276.053 224.452 274.393 223.961L339.84 156.921C341.439 162.576 342.118 168.452 341.851 174.323Z" fill="white"/>
<path d="M295.732 118.009L236.422 178.784C235.721 173.224 235.864 167.591 236.847 162.075C237.088 160.701 237.392 159.335 237.732 157.997L275.412 119.361C278.653 118.48 281.973 117.918 285.324 117.683C288.795 117.433 292.283 117.543 295.732 118.009Z" fill="white"/>
<path d="M333.249 142.159L259.978 217.207C258.304 216.093 256.699 214.88 255.17 213.575L329.716 137.231C330.988 138.804 332.168 140.449 333.249 142.159Z" fill="white"/>
<path d="M310.323 122.165L240.5 193.673C239.623 191.639 238.871 189.554 238.249 187.428L304.228 119.828C306.306 120.48 308.342 121.26 310.323 122.165Z" fill="white"/>
<path d="M341.171 180.816C341.136 181.063 341.086 181.318 341.044 181.566C340.973 182.005 340.888 182.444 340.796 182.869L299.732 224.952C299.073 225.094 298.401 225.221 297.721 225.335L341.171 180.816Z" fill="white"/>
<path d="M325.545 132.629L250.696 209.32C250.426 209.036 250.165 208.746 249.91 208.456L324.71 131.815L325.545 132.629Z" fill="white"/>
</g>
</svg>
