<svg width="81" height="69" viewBox="0 0 81 69" fill="none" xmlns="http://www.w3.org/2000/svg">
<g clip-path="url(#clip0_645_2079)">
<path d="M65.7554 68.5323H15.2461C6.89182 68.5323 0.0932617 61.7338 0.0932617 53.3795V16.3393C0.0932617 7.98508 6.89182 1.18652 15.2461 1.18652H65.7554C74.1096 1.18652 80.9082 7.98508 80.9082 16.3393V53.3795C80.9082 61.7338 74.1096 68.5323 65.7554 68.5323ZM15.2461 4.55381C8.7472 4.55381 3.46055 9.84046 3.46055 16.3393V53.3795C3.46055 59.8784 8.7472 65.165 15.2461 65.165H65.7554C72.2543 65.165 77.5409 59.8784 77.5409 53.3795V16.3393C77.5409 9.84046 72.2543 4.55381 65.7554 4.55381H15.2461ZM62.3881 38.2267H45.5517C42.7669 38.2267 40.5007 35.9605 40.5007 33.1758V23.0739C40.5007 20.2892 42.7669 18.023 45.5517 18.023H62.3881C65.1729 18.023 67.4391 20.2892 67.4391 23.0739V33.1758C67.4391 35.9605 65.1729 38.2267 62.3881 38.2267ZM45.5517 21.3903C44.6223 21.3903 43.868 22.1445 43.868 23.0739V33.1758C43.868 34.1051 44.6223 34.8594 45.5517 34.8594H62.3881C63.3175 34.8594 64.0718 34.1051 64.0718 33.1758V23.0739C64.0718 22.1445 63.3175 21.3903 62.3881 21.3903H45.5517ZM33.7662 36.5431C33.7662 35.6137 33.0119 34.8594 32.0825 34.8594H15.2461C14.3167 34.8594 13.5624 35.6137 13.5624 36.5431C13.5624 37.4724 14.3167 38.2267 15.2461 38.2267H32.0825C33.0119 38.2267 33.7662 37.4724 33.7662 36.5431ZM67.4391 50.0122C67.4391 49.0829 66.6848 48.3286 65.7554 48.3286H15.2461C14.3167 48.3286 13.5624 49.0829 13.5624 50.0122C13.5624 50.9416 14.3167 51.6959 15.2461 51.6959H65.7554C66.6848 51.6959 67.4391 50.9416 67.4391 50.0122Z" fill="#323F49"/>
</g>
<defs>
<clipPath id="clip0_645_2079">
<rect width="81" height="68" fill="white" transform="translate(0 0.866699)"/>
</clipPath>
</defs>
</svg>
