<svg width="61" height="59" viewBox="0 0 61 59" fill="none" xmlns="http://www.w3.org/2000/svg">
<rect width="50.8599" height="39.1895" rx="19.5947" transform="matrix(0.94514 0.326667 -0.2993 0.954159 12.5332 0.640137)" fill="#DDF0FA"/>
<g clip-path="url(#clip0_5088_1640)">
<path d="M45.8701 33.9917C45.3526 33.9917 44.9326 33.5717 44.9326 33.0542C44.9326 23.2329 36.9414 15.2417 27.1201 15.2417C26.6026 15.2417 26.1826 14.8217 26.1826 14.3042C26.1826 13.7867 26.6026 13.3667 27.1201 13.3667C37.9764 13.3667 46.8076 22.1979 46.8076 33.0542C46.8076 33.5717 46.3876 33.9917 45.8701 33.9917ZM39.3076 33.0542C39.3076 26.3342 33.8401 20.8667 27.1201 20.8667C26.6026 20.8667 26.1826 21.2867 26.1826 21.8042C26.1826 22.3217 26.6026 22.7417 27.1201 22.7417C32.807 22.7417 37.4326 27.3673 37.4326 33.0542C37.4326 33.5717 37.8526 33.9917 38.3701 33.9917C38.8876 33.9917 39.3076 33.5717 39.3076 33.0542ZM43.4964 55.1248L45.3301 53.0154C46.2826 52.063 46.8076 50.7954 46.8076 49.4492C46.8076 48.1029 46.2826 46.8336 45.2382 45.8023L40.652 42.2904C38.687 40.3254 35.4901 40.3236 33.5214 42.2848L30.6489 45.0861C23.7489 42.2754 18.1276 36.6486 15.0976 29.518L17.8876 26.6586C19.8545 24.6917 19.8545 21.4911 17.9682 19.6161L14.2951 14.8479C12.3882 12.9411 9.02074 12.9861 7.20762 14.8048L5.00637 16.7248C2.94199 18.7779 1.80762 21.5661 1.80762 24.5717C1.80762 39.1011 21.0732 58.3667 35.6026 58.3667C38.6082 58.3667 41.3945 57.2323 43.4964 55.1248ZM12.887 16.0779L16.5601 20.8461C17.7957 22.0817 17.7957 24.0936 16.5526 25.3386L13.3239 28.6498C13.0651 28.9161 12.9864 29.3098 13.1251 29.6548C16.367 37.7267 22.712 44.0698 30.5364 47.0548C30.8776 47.1861 31.2639 47.1054 31.5245 46.8523L34.8357 43.6236C34.8357 43.6236 34.8414 43.6179 34.8432 43.6142C36.0414 42.4142 38.0382 42.3373 39.4182 43.6948L44.0045 47.2067C45.2401 48.4423 45.2401 50.4523 43.9614 51.7367L42.1257 53.8461C40.4232 55.5523 38.1057 56.4917 35.6026 56.4917C22.1776 56.4917 3.68262 37.9967 3.68262 24.5717C3.68262 22.0686 4.62199 19.7511 6.28324 18.0917L8.48637 16.1698C9.11637 15.5398 9.94699 15.2323 10.7645 15.2323C11.5501 15.2323 12.3226 15.5173 12.8889 16.0798L12.887 16.0779Z" fill="#323F49"/>
</g>
<defs>
<clipPath id="clip0_5088_1640">
<rect width="45" height="45" fill="white" transform="translate(1.80762 13.3667)"/>
</clipPath>
</defs>
</svg>
