<?xml version="1.0" encoding="UTF-8"?>
<!DOCTYPE svg PUBLIC "-//W3C//DTD SVG 1.1//EN" "http://www.w3.org/Graphics/SVG/1.1/DTD/svg11.dtd">
<svg xmlns="http://www.w3.org/2000/svg" version="1.1" width="293px" height="220px" style="shape-rendering:geometricPrecision; text-rendering:geometricPrecision; image-rendering:optimizeQuality; fill-rule:evenodd; clip-rule:evenodd" xmlns:xlink="http://www.w3.org/1999/xlink">
<g><path style="opacity:1" fill="#fcfcfc" d="M -0.5,-0.5 C 97.1667,-0.5 194.833,-0.5 292.5,-0.5C 292.5,72.8333 292.5,146.167 292.5,219.5C 194.833,219.5 97.1667,219.5 -0.5,219.5C -0.5,146.167 -0.5,72.8333 -0.5,-0.5 Z"/></g>
<g><path style="opacity:1" fill="#595f75" d="M 143.5,58.5 C 148.833,58.5 154.167,58.5 159.5,58.5C 175.999,59.7663 191.999,63.2663 207.5,69C 210.865,70.3439 213.865,72.1773 216.5,74.5C 217.833,75.5 217.833,76.5 216.5,77.5C 193.387,66.3054 169.053,59.9721 143.5,58.5 Z"/></g>
<g><path style="opacity:1" fill="#c8cde0" d="M 159.5,58.5 C 154.167,58.5 148.833,58.5 143.5,58.5C 136.939,57.6334 130.939,58.9667 125.5,62.5C 109.245,63.867 93.9119,68.2003 79.5,75.5C 77.7839,75.3713 76.1172,75.038 74.5,74.5C 76.6107,73.2641 78.6107,71.7641 80.5,70C 106.119,60.1491 132.452,56.3158 159.5,58.5 Z"/></g>
<g><path style="opacity:1" fill="#919ab5" d="M 74.5,74.5 C 76.1172,75.038 77.7839,75.3713 79.5,75.5C 70.6043,80.4395 62.271,86.1062 54.5,92.5C 54.1667,92.5 53.8333,92.5 53.5,92.5C 58.9719,84.6931 65.9719,78.6931 74.5,74.5 Z"/></g>
<g><path style="opacity:1" fill="#6d7fb1" d="M 143.5,58.5 C 169.053,59.9721 193.387,66.3054 216.5,77.5C 223.851,82.1073 230.351,87.7739 236,94.5C 243.56,109.836 240.727,123.003 227.5,134C 220.599,138.95 213.266,143.116 205.5,146.5C 204.047,146.071 202.381,145.904 200.5,146C 197.577,142.827 193.911,141.66 189.5,142.5C 187.893,138.059 187.226,133.392 187.5,128.5C 192.58,128.75 197.58,128.25 202.5,127C 216.47,120.251 220.804,109.751 215.5,95.5C 215.167,95.5 214.833,95.5 214.5,95.5C 214.5,94.5 214.5,93.5 214.5,92.5C 214.461,91.4168 214.127,90.4168 213.5,89.5C 211.167,87.6667 208.833,85.8333 206.5,84C 195.172,83.5001 183.838,83.3335 172.5,83.5C 171.583,89.1255 169.249,89.7921 165.5,85.5C 158.866,84.5033 152.2,84.17 145.5,84.5C 146.167,80.1667 146.833,75.8333 147.5,71.5C 142.786,71.1734 138.12,71.5067 133.5,72.5C 131.601,80.1652 129.767,87.8318 128,95.5C 125.894,90.8526 122.394,87.686 117.5,86C 107.325,85.1751 97.3247,85.3417 87.5,86.5C 86.8826,86.6107 86.3826,86.944 86,87.5C 82.5063,104.134 79.3396,120.801 76.5,137.5C 75.8333,138.5 75.1667,139.5 74.5,140.5C 70.8346,137.681 67.0013,135.014 63,132.5C 62.6667,132.833 62.3333,133.167 62,133.5C 59.7173,129.551 57.0506,125.884 54,122.5C 50.7374,112.371 50.9041,102.371 54.5,92.5C 62.271,86.1062 70.6043,80.4395 79.5,75.5C 93.9119,68.2003 109.245,63.867 125.5,62.5C 130.939,58.9667 136.939,57.6334 143.5,58.5 Z"/></g>
<g><path style="opacity:1" fill="#07080a" d="M 214.5,95.5 C 215.682,106.649 212.016,115.649 203.5,122.5C 195.613,124.219 187.613,124.886 179.5,124.5C 178.446,129.107 177.779,133.773 177.5,138.5C 173.833,138.5 170.167,138.5 166.5,138.5C 169.286,121.118 172.286,103.785 175.5,86.5C 184.506,86.3336 193.506,86.5002 202.5,87C 207.773,88.1169 211.773,90.9502 214.5,95.5 Z"/></g>
<g><path style="opacity:1" fill="#7c85a2" d="M 214.5,92.5 C 211.838,89.3449 208.505,87.1782 204.5,86C 194.172,85.5002 183.839,85.3335 173.5,85.5C 171.996,95.5151 170.163,105.515 168,115.5C 167.809,113.292 167.309,111.292 166.5,109.5C 166.263,108.209 166.596,107.209 167.5,106.5C 167.369,107.239 167.536,107.906 168,108.5C 169.025,104.54 169.859,100.54 170.5,96.5C 170.175,90.6771 167.175,87.1771 161.5,86C 155.984,85.8267 150.651,85.3267 145.5,84.5C 152.2,84.17 158.866,84.5033 165.5,85.5C 169.249,89.7921 171.583,89.1255 172.5,83.5C 183.838,83.3335 195.172,83.5001 206.5,84C 208.833,85.8333 211.167,87.6667 213.5,89.5C 214.127,90.4168 214.461,91.4168 214.5,92.5 Z"/></g>
<g><path style="opacity:1" fill="#d6dce5" d="M 185.5,94.5 C 190.58,94.2497 195.58,94.7497 200.5,96C 204.442,101.49 204.276,106.99 200,112.5C 199.097,113.701 197.931,114.535 196.5,115C 191.599,116.325 186.599,116.825 181.5,116.5C 182.448,109.094 183.781,101.761 185.5,94.5 Z"/></g>
<g><path style="opacity:1" fill="#717ea2" d="M 199.5,109.5 C 199.453,106.432 198.953,103.432 198,100.5C 196.612,99.4464 195.112,99.2797 193.5,100C 193.833,100.333 194.167,100.667 194.5,101C 192.744,101.202 191.078,101.702 189.5,102.5C 187.868,105.991 186.868,109.658 186.5,113.5C 190.36,112.356 194.36,111.689 198.5,111.5C 197.571,112.315 196.571,113.148 195.5,114C 191.514,114.499 187.514,114.666 183.5,114.5C 184.715,108.54 185.715,102.54 186.5,96.5C 191.343,96.1165 196.009,96.7832 200.5,98.5C 201.789,102.397 201.456,106.064 199.5,109.5 Z"/></g>
<g><path style="opacity:1" fill="#b8bed4" d="M 214.5,95.5 C 214.833,95.5 215.167,95.5 215.5,95.5C 217.009,105.809 214.176,114.809 207,122.5C 206.014,121.829 204.847,121.829 203.5,122.5C 212.016,115.649 215.682,106.649 214.5,95.5 Z"/></g>
<g><path style="opacity:1" fill="#6c7eb5" d="M 199.5,109.5 C 199.167,110.167 198.833,110.833 198.5,111.5C 194.36,111.689 190.36,112.356 186.5,113.5C 186.868,109.658 187.868,105.991 189.5,102.5C 191.078,101.702 192.744,101.202 194.5,101C 194.167,100.667 193.833,100.333 193.5,100C 195.112,99.2797 196.612,99.4464 198,100.5C 198.953,103.432 199.453,106.432 199.5,109.5 Z"/></g>
<g><path style="opacity:1" fill="#5e677f" d="M 53.5,92.5 C 53.8333,92.5 54.1667,92.5 54.5,92.5C 50.9041,102.371 50.7374,112.371 54,122.5C 57.0506,125.884 59.7173,129.551 62,133.5C 62.3333,133.167 62.6667,132.833 63,132.5C 67.0013,135.014 70.8346,137.681 74.5,140.5C 81.4344,144.135 88.4344,147.469 95.5,150.5C 92.1933,149.949 88.8599,149.616 85.5,149.5C 71.331,145.161 60.1644,136.828 52,124.5C 50.0075,119.728 49.1742,114.728 49.5,109.5C 48.7467,103.246 50.0801,97.5791 53.5,92.5 Z"/></g>
<g><path style="opacity:1" fill="#dae1ea" d="M 145.5,84.5 C 150.651,85.3267 155.984,85.8267 161.5,86C 167.175,87.1771 170.175,90.6771 170.5,96.5C 169.859,100.54 169.025,104.54 168,108.5C 167.536,107.906 167.369,107.239 167.5,106.5C 167.766,103.334 168.099,100.167 168.5,97C 168.696,90.9066 165.696,87.5733 159.5,87C 154.177,86.5006 148.844,86.334 143.5,86.5C 144.007,82.1405 144.673,77.8072 145.5,73.5C 141.833,73.5 138.167,73.5 134.5,73.5C 131.396,90.4065 128.062,107.24 124.5,124C 128.423,124.793 132.256,124.626 136,123.5C 137.667,114.833 139.333,106.167 141,97.5C 143.213,96.2405 145.713,95.5738 148.5,95.5C 151.089,95.5272 153.589,95.8606 156,96.5C 156.034,105.966 154.867,115.3 152.5,124.5C 156.167,124.5 159.833,124.5 163.5,124.5C 164.373,119.469 165.373,114.469 166.5,109.5C 167.309,111.292 167.809,113.292 168,115.5C 170.163,105.515 171.996,95.5151 173.5,85.5C 183.839,85.3335 194.172,85.5002 204.5,86C 208.505,87.1782 211.838,89.3449 214.5,92.5C 214.5,93.5 214.5,94.5 214.5,95.5C 211.773,90.9502 207.773,88.1169 202.5,87C 193.506,86.5002 184.506,86.3336 175.5,86.5C 172.286,103.785 169.286,121.118 166.5,138.5C 170.167,138.5 173.833,138.5 177.5,138.5C 177.779,133.773 178.446,129.107 179.5,124.5C 187.613,124.886 195.613,124.219 203.5,122.5C 201.333,124.511 198.666,125.678 195.5,126C 190.511,126.499 185.511,126.666 180.5,126.5C 179.884,130.863 179.05,135.197 178,139.5C 173.333,140.833 168.667,140.833 164,139.5C 164.333,134.833 164.667,130.167 165,125.5C 160.599,126.467 156.099,126.8 151.5,126.5C 151.077,125.735 150.743,124.902 150.5,124C 152.528,115.201 154.028,106.368 155,97.5C 150.934,96.5363 146.767,96.203 142.5,96.5C 141.205,106.569 139.538,116.569 137.5,126.5C 132.833,126.5 128.167,126.5 123.5,126.5C 123.517,123.08 123.683,119.746 124,116.5C 120.908,120.928 116.741,123.761 111.5,125C 105.243,126.317 98.9092,126.817 92.5,126.5C 92.4061,131.243 91.4061,135.743 89.5,140C 85.5,140.667 81.5,140.667 77.5,140C 76.7476,139.329 76.4142,138.496 76.5,137.5C 79.3396,120.801 82.5063,104.134 86,87.5C 86.3826,86.944 86.8826,86.6107 87.5,86.5C 97.3247,85.3417 107.325,85.1751 117.5,86C 122.394,87.686 125.894,90.8526 128,95.5C 129.767,87.8318 131.601,80.1652 133.5,72.5C 138.12,71.5067 142.786,71.1734 147.5,71.5C 146.833,75.8333 146.167,80.1667 145.5,84.5 Z"/></g>
<g><path style="opacity:1" fill="#08080a" d="M 87.5,86.5 C 96.1731,86.3336 104.84,86.5002 113.5,87C 124.896,89.2768 129.063,96.1101 126,107.5C 123.719,116.781 117.886,122.281 108.5,124C 102.843,124.499 97.1764,124.666 91.5,124.5C 90.4456,129.107 89.779,133.773 89.5,138.5C 85.4454,138.824 81.4454,138.491 77.5,137.5C 81.3462,120.603 84.6795,103.603 87.5,86.5 Z"/></g>
<g><path style="opacity:1" fill="#d8dee5" d="M 97.5,94.5 C 102.58,94.2497 107.58,94.7497 112.5,96C 115.394,98.9087 116.227,102.409 115,106.5C 113.9,110.222 111.734,113.056 108.5,115C 103.599,116.325 98.5988,116.825 93.5,116.5C 94.4479,109.094 95.7813,101.761 97.5,94.5 Z"/></g>
<g><path style="opacity:1" fill="#6e7ba2" d="M 98.5,96.5 C 113.032,93.8732 117.032,99.0398 110.5,112C 105.777,114.235 100.777,115.069 95.5,114.5C 96.5,108.5 97.5,102.5 98.5,96.5 Z"/></g>
<g><path style="opacity:1" fill="#6d7fb5" d="M 99.5,98.5 C 103.531,99.5151 107.531,99.5151 111.5,98.5C 111.5,100.833 111.5,103.167 111.5,105.5C 109.323,105.414 107.323,104.747 105.5,103.5C 105.167,104.167 104.833,104.833 104.5,105.5C 105.467,107.762 106.134,110.095 106.5,112.5C 103.833,112.5 101.167,112.5 98.5,112.5C 99.1266,107.859 99.4599,103.193 99.5,98.5 Z"/></g>
<g><path style="opacity:1" fill="#090a0b" d="M 167.5,106.5 C 166.596,107.209 166.263,108.209 166.5,109.5C 165.373,114.469 164.373,119.469 163.5,124.5C 159.833,124.5 156.167,124.5 152.5,124.5C 154.867,115.3 156.034,105.966 156,96.5C 153.589,95.8606 151.089,95.5272 148.5,95.5C 145.713,95.5738 143.213,96.2405 141,97.5C 139.333,106.167 137.667,114.833 136,123.5C 132.256,124.626 128.423,124.793 124.5,124C 128.062,107.24 131.396,90.4065 134.5,73.5C 138.167,73.5 141.833,73.5 145.5,73.5C 144.673,77.8072 144.007,82.1405 143.5,86.5C 148.844,86.334 154.177,86.5006 159.5,87C 165.696,87.5733 168.696,90.9066 168.5,97C 168.099,100.167 167.766,103.334 167.5,106.5 Z"/></g>
<g><path style="opacity:1" fill="#6c7fb3" d="M 151.5,126.5 C 150.262,126.81 150.262,127.31 151.5,128C 155.089,128.207 158.589,128.707 162,129.5C 162.874,132.961 162.04,135.961 159.5,138.5C 159.833,139.167 160.167,139.833 160.5,140.5C 166.132,140.899 171.632,141.899 177,143.5C 177.772,143.355 178.439,143.022 179,142.5C 180.926,138.035 181.76,133.368 181.5,128.5C 182.822,128.33 183.989,128.663 185,129.5C 185.601,131.137 186.101,132.803 186.5,134.5C 184.806,137.664 184.306,140.998 185,144.5C 186.062,143.903 187.228,143.57 188.5,143.5C 191.017,145.164 193.683,146.664 196.5,148C 192.459,148.173 188.459,148.673 184.5,149.5C 182.869,151.297 180.869,152.464 178.5,153C 159.609,155.339 140.609,156.172 121.5,155.5C 112.92,152.528 104.253,149.528 95.5,146.5C 93.3523,145.687 92.0189,144.187 91.5,142C 93.036,137.485 94.036,132.818 94.5,128C 101.524,127.831 108.524,127.331 115.5,126.5C 117.567,125.866 119.4,124.866 121,123.5C 121.852,124.571 122.685,125.571 123.5,126.5C 128.167,126.5 132.833,126.5 137.5,126.5C 139.538,116.569 141.205,106.569 142.5,96.5C 146.767,96.203 150.934,96.5363 155,97.5C 154.028,106.368 152.528,115.201 150.5,124C 150.743,124.902 151.077,125.735 151.5,126.5 Z"/></g>
<g><path style="opacity:1" fill="#0f1119" d="M 216.5,74.5 C 228.76,79.5926 237.593,88.2593 243,100.5C 245.761,117.478 239.927,130.645 225.5,140C 207.864,151.413 188.53,157.913 167.5,159.5C 165.712,159.785 164.045,159.452 162.5,158.5C 163.243,157.818 163.909,157.151 164.5,156.5C 178.637,154.882 192.303,151.549 205.5,146.5C 213.266,143.116 220.599,138.95 227.5,134C 240.727,123.003 243.56,109.836 236,94.5C 230.351,87.7739 223.851,82.1073 216.5,77.5C 217.833,76.5 217.833,75.5 216.5,74.5 Z"/></g>
<g><path style="opacity:1" fill="#6e7ea8" d="M 215.5,95.5 C 220.804,109.751 216.47,120.251 202.5,127C 197.58,128.25 192.58,128.75 187.5,128.5C 187.226,133.392 187.893,138.059 189.5,142.5C 193.911,141.66 197.577,142.827 200.5,146C 202.381,145.904 204.047,146.071 205.5,146.5C 192.303,151.549 178.637,154.882 164.5,156.5C 154.861,157.36 145.194,157.693 135.5,157.5C 130.833,156.833 126.167,156.167 121.5,155.5C 140.609,156.172 159.609,155.339 178.5,153C 180.869,152.464 182.869,151.297 184.5,149.5C 188.459,148.673 192.459,148.173 196.5,148C 193.683,146.664 191.017,145.164 188.5,143.5C 187.228,143.57 186.062,143.903 185,144.5C 184.306,140.998 184.806,137.664 186.5,134.5C 186.101,132.803 185.601,131.137 185,129.5C 183.989,128.663 182.822,128.33 181.5,128.5C 181.76,133.368 180.926,138.035 179,142.5C 178.439,143.022 177.772,143.355 177,143.5C 171.632,141.899 166.132,140.899 160.5,140.5C 160.167,139.833 159.833,139.167 159.5,138.5C 162.04,135.961 162.874,132.961 162,129.5C 158.589,128.707 155.089,128.207 151.5,128C 150.262,127.31 150.262,126.81 151.5,126.5C 156.099,126.8 160.599,126.467 165,125.5C 164.667,130.167 164.333,134.833 164,139.5C 168.667,140.833 173.333,140.833 178,139.5C 179.05,135.197 179.884,130.863 180.5,126.5C 185.511,126.666 190.511,126.499 195.5,126C 198.666,125.678 201.333,124.511 203.5,122.5C 204.847,121.829 206.014,121.829 207,122.5C 214.176,114.809 217.009,105.809 215.5,95.5 Z"/></g>
<g><path style="opacity:1" fill="#707ea7" d="M 123.5,126.5 C 122.685,125.571 121.852,124.571 121,123.5C 119.4,124.866 117.567,125.866 115.5,126.5C 108.524,127.331 101.524,127.831 94.5,128C 94.036,132.818 93.036,137.485 91.5,142C 92.0189,144.187 93.3523,145.687 95.5,146.5C 104.253,149.528 112.92,152.528 121.5,155.5C 112.773,154.152 104.106,152.485 95.5,150.5C 88.4344,147.469 81.4344,144.135 74.5,140.5C 75.1667,139.5 75.8333,138.5 76.5,137.5C 76.4142,138.496 76.7476,139.329 77.5,140C 81.5,140.667 85.5,140.667 89.5,140C 91.4061,135.743 92.4061,131.243 92.5,126.5C 98.9092,126.817 105.243,126.317 111.5,125C 116.741,123.761 120.908,120.928 124,116.5C 123.683,119.746 123.517,123.08 123.5,126.5 Z"/></g>
<g><path style="opacity:1" fill="#58617a" d="M 95.5,150.5 C 104.106,152.485 112.773,154.152 121.5,155.5C 126.167,156.167 130.833,156.833 135.5,157.5C 126.801,157.581 118.135,157.081 109.5,156C 105.768,154.031 101.768,153.031 97.5,153C 96.244,152.583 95.5774,151.75 95.5,150.5 Z"/></g>
<g><path style="opacity:1" fill="#474c58" d="M 85.5,149.5 C 88.8599,149.616 92.1933,149.949 95.5,150.5C 95.5774,151.75 96.244,152.583 97.5,153C 101.768,153.031 105.768,154.031 109.5,156C 118.135,157.081 126.801,157.581 135.5,157.5C 145.194,157.693 154.861,157.36 164.5,156.5C 163.909,157.151 163.243,157.818 162.5,158.5C 164.045,159.452 165.712,159.785 167.5,159.5C 143.277,162.231 119.277,160.397 95.5,154C 91.7708,153.156 88.4374,151.656 85.5,149.5 Z"/></g>
</svg>
