<?xml version="1.0" encoding="UTF-8"?>
<!DOCTYPE svg PUBLIC "-//W3C//DTD SVG 1.1//EN" "http://www.w3.org/Graphics/SVG/1.1/DTD/svg11.dtd">
<svg xmlns="http://www.w3.org/2000/svg" version="1.1" width="220px" height="220px" style="shape-rendering:geometricPrecision; text-rendering:geometricPrecision; image-rendering:optimizeQuality; fill-rule:evenodd; clip-rule:evenodd" xmlns:xlink="http://www.w3.org/1999/xlink">
<g><path style="opacity:1" fill="#fcfcfc" d="M -0.5,-0.5 C 72.8333,-0.5 146.167,-0.5 219.5,-0.5C 219.5,72.8333 219.5,146.167 219.5,219.5C 146.167,219.5 72.8333,219.5 -0.5,219.5C -0.5,146.167 -0.5,72.8333 -0.5,-0.5 Z"/></g>
<g><path style="opacity:1" fill="#fa308a" d="M 95.5,30.5 C 101.069,31.1154 106.403,32.6154 111.5,35C 114.844,36.894 116.178,39.7273 115.5,43.5C 114.766,44.7079 114.433,46.0413 114.5,47.5C 113.5,47.5 112.5,47.5 111.5,47.5C 111.5,48.5 111.5,49.5 111.5,50.5C 111.5,50.8333 111.5,51.1667 111.5,51.5C 97.1512,51.1674 82.8179,51.5007 68.5,52.5C 67.6906,54.0709 67.3573,55.7376 67.5,57.5C 65.6801,58.7274 63.6801,59.7274 61.5,60.5C 53.7741,59.9022 46.1074,59.2355 38.5,58.5C 38.5,58.1667 38.5,57.8333 38.5,57.5C 38.1989,53.3811 40.1989,51.3811 44.5,51.5C 44.2907,50.914 43.9574,50.414 43.5,50C 44.717,48.3523 45.5503,46.519 46,44.5C 52.1298,42.266 55.9632,37.9327 57.5,31.5C 59.1958,31.3146 60.5291,30.4813 61.5,29C 67.1667,28.3333 72.8333,28.3333 78.5,29C 75.5,29.3333 72.5,29.6667 69.5,30C 71.3659,30.9847 73.3659,31.4847 75.5,31.5C 82.1413,30.6683 88.8079,30.3349 95.5,30.5 Z"/></g>
<g><path style="opacity:1" fill="#e84c8f" d="M 79.5,27.5 C 80.1667,27.5 80.8333,27.5 81.5,27.5C 86.1132,28.7895 90.7799,29.7895 95.5,30.5C 88.8079,30.3349 82.1413,30.6683 75.5,31.5C 73.3659,31.4847 71.3659,30.9847 69.5,30C 72.5,29.6667 75.5,29.3333 78.5,29C 72.8333,28.3333 67.1667,28.3333 61.5,29C 60.5291,30.4813 59.1958,31.3146 57.5,31.5C 58.2279,29.2654 59.5612,27.4321 61.5,26C 67.5548,25.8023 73.5548,26.3023 79.5,27.5 Z"/></g>
<g><path style="opacity:1" fill="#fde9fa" d="M 167.5,46.5 C 166.833,45.5 166.167,44.5 165.5,43.5C 165.67,42.1779 165.337,41.0113 164.5,40C 156.66,39.1391 148.993,37.6391 141.5,35.5C 136.743,33.8059 131.743,33.3059 126.5,34C 123.883,36.4423 121.55,38.9423 119.5,41.5C 118.778,42.5511 117.778,43.2178 116.5,43.5C 116.167,43.5 115.833,43.5 115.5,43.5C 116.178,39.7273 114.844,36.894 111.5,35C 106.403,32.6154 101.069,31.1154 95.5,30.5C 90.7799,29.7895 86.1132,28.7895 81.5,27.5C 82.2646,27.0766 83.0979,26.7432 84,26.5C 89.1678,29.4954 94.0012,29.162 98.5,25.5C 99.9501,26.8498 100.617,28.5165 100.5,30.5C 104.275,30.0719 107.775,30.7386 111,32.5C 111.772,32.3552 112.439,32.0219 113,31.5C 114.798,33.9725 117.132,35.6392 120,36.5C 120.494,34.8659 120.66,33.1992 120.5,31.5C 132.231,30.7714 143.564,32.6047 154.5,37C 157.5,37.3333 160.5,37.6667 163.5,38C 167.051,39.6771 168.384,42.5104 167.5,46.5 Z"/></g>
<g><path style="opacity:1" fill="#b174d7" d="M 141.5,35.5 C 136.489,35.3341 131.489,35.5007 126.5,36C 125.944,36.3826 125.611,36.8826 125.5,37.5C 123.5,38.8333 121.5,40.1667 119.5,41.5C 121.55,38.9423 123.883,36.4423 126.5,34C 131.743,33.3059 136.743,33.8059 141.5,35.5 Z"/></g>
<g><path style="opacity:1" fill="#ab4ee3" d="M 141.5,35.5 C 148.993,37.6391 156.66,39.1391 164.5,40C 165.337,41.0113 165.67,42.1779 165.5,43.5C 165.833,46.1667 166.167,48.8333 166.5,51.5C 164.19,48.2379 161.857,44.9046 159.5,41.5C 154.952,40.7026 150.452,39.7026 146,38.5C 144.161,40.141 141.994,41.141 139.5,41.5C 136.174,40.9534 132.84,40.4534 129.5,40C 131.952,39.7105 134.285,39.0438 136.5,38C 132.974,36.222 129.307,36.0553 125.5,37.5C 125.611,36.8826 125.944,36.3826 126.5,36C 131.489,35.5007 136.489,35.3341 141.5,35.5 Z"/></g>
<g><path style="opacity:1" fill="#fdeafc" d="M 79.5,27.5 C 73.5548,26.3023 67.5548,25.8023 61.5,26C 59.5612,27.4321 58.2279,29.2654 57.5,31.5C 54.3082,35.5258 50.6415,39.0258 46.5,42C 43.6667,44.8333 40.8333,47.6667 38,50.5C 37.2042,53.0385 37.3709,55.3718 38.5,57.5C 38.5,57.8333 38.5,58.1667 38.5,58.5C 38.5,59.1667 38.5,59.8333 38.5,60.5C 38.7642,64.4925 39.7642,68.1591 41.5,71.5C 41.5,72.8333 41.5,74.1667 41.5,75.5C 40.8485,74.9094 40.1818,74.2427 39.5,73.5C 37.3995,65.6182 36.0662,57.6182 35.5,49.5C 35.8333,48.8333 36.1667,48.1667 36.5,47.5C 40.5286,44.1512 44.8619,41.1512 49.5,38.5C 52.671,33.506 56.0043,28.6726 59.5,24C 65.1727,24.0184 70.8394,24.5184 76.5,25.5C 78.0296,25.6399 79.0296,26.3065 79.5,27.5 Z"/></g>
<g><path style="opacity:1" fill="#dd38b9" d="M 115.5,43.5 C 115.833,43.5 116.167,43.5 116.5,43.5C 116.813,46.8374 115.48,49.1707 112.5,50.5C 112.167,50.5 111.833,50.5 111.5,50.5C 111.5,49.5 111.5,48.5 111.5,47.5C 112.5,47.5 113.5,47.5 114.5,47.5C 114.433,46.0413 114.766,44.7079 115.5,43.5 Z"/></g>
<g><path style="opacity:1" fill="#b144f2" d="M 166.5,51.5 C 168.648,55.2409 170.315,59.2409 171.5,63.5C 172.357,64.4252 173.357,65.0919 174.5,65.5C 174.5,66.8333 174.5,68.1667 174.5,69.5C 168.912,70.4156 163.579,72.0822 158.5,74.5C 157.817,74.1373 157.15,73.8039 156.5,73.5C 157.087,65.6266 156.42,57.96 154.5,50.5C 140.538,50.261 126.538,50.261 112.5,50.5C 115.48,49.1707 116.813,46.8374 116.5,43.5C 117.778,43.2178 118.778,42.5511 119.5,41.5C 121.5,40.1667 123.5,38.8333 125.5,37.5C 129.307,36.0553 132.974,36.222 136.5,38C 134.285,39.0438 131.952,39.7105 129.5,40C 132.84,40.4534 136.174,40.9534 139.5,41.5C 141.994,41.141 144.161,40.141 146,38.5C 150.452,39.7026 154.952,40.7026 159.5,41.5C 161.857,44.9046 164.19,48.2379 166.5,51.5 Z"/></g>
<g><path style="opacity:1" fill="#e3478a" d="M 57.5,31.5 C 55.9632,37.9327 52.1298,42.266 46,44.5C 45.5503,46.519 44.717,48.3523 43.5,50C 43.9574,50.414 44.2907,50.914 44.5,51.5C 40.1989,51.3811 38.1989,53.3811 38.5,57.5C 37.3709,55.3718 37.2042,53.0385 38,50.5C 40.8333,47.6667 43.6667,44.8333 46.5,42C 50.6415,39.0258 54.3082,35.5258 57.5,31.5 Z"/></g>
<g><path style="opacity:1" fill="#540e30" d="M 111.5,51.5 C 111.5,51.8333 111.5,52.1667 111.5,52.5C 97.5,52.5 83.5,52.5 69.5,52.5C 69.0578,56.1545 68.7244,59.8212 68.5,63.5C 68.1667,63.5 67.8333,63.5 67.5,63.5C 67.5,61.5 67.5,59.5 67.5,57.5C 67.3573,55.7376 67.6906,54.0709 68.5,52.5C 82.8179,51.5007 97.1512,51.1674 111.5,51.5 Z"/></g>
<g><path style="opacity:1" fill="#040305" d="M 151.5,51.5 C 153.183,55.205 154.016,59.205 154,63.5C 154.5,74.1615 154.667,84.8281 154.5,95.5C 153.538,110.342 153.372,125.342 154,140.5C 147.924,141.476 141.758,141.81 135.5,141.5C 132.833,141.5 130.167,141.5 127.5,141.5C 111.675,140.504 95.6754,140.17 79.5,140.5C 79.1667,140.5 78.8333,140.5 78.5,140.5C 75.1501,140.665 71.8168,140.498 68.5,140C 66.8588,138.871 65.8588,137.371 65.5,135.5C 65.5,135.167 65.5,134.833 65.5,134.5C 67.5939,111.035 68.5939,87.3684 68.5,63.5C 68.7244,59.8212 69.0578,56.1545 69.5,52.5C 83.5,52.5 97.5,52.5 111.5,52.5C 124.856,52.715 138.189,52.3817 151.5,51.5 Z"/></g>
<g><path style="opacity:1" fill="#e937a0" d="M 67.5,57.5 C 67.5,59.5 67.5,61.5 67.5,63.5C 67.1667,63.5 66.8333,63.5 66.5,63.5C 58.1497,61.8943 49.8164,61.5609 41.5,62.5C 41.0269,61.0937 40.0269,60.427 38.5,60.5C 38.5,59.8333 38.5,59.1667 38.5,58.5C 46.1074,59.2355 53.7741,59.9022 61.5,60.5C 63.6801,59.7274 65.6801,58.7274 67.5,57.5 Z"/></g>
<g><path style="opacity:1" fill="#a65ece" d="M 165.5,43.5 C 166.167,44.5 166.833,45.5 167.5,46.5C 169.637,52.9103 171.97,59.2436 174.5,65.5C 173.357,65.0919 172.357,64.4252 171.5,63.5C 170.315,59.2409 168.648,55.2409 166.5,51.5C 166.167,48.8333 165.833,46.1667 165.5,43.5 Z"/></g>
<g><path style="opacity:1" fill="#633685" d="M 151.5,51.5 C 152.496,51.4142 153.329,51.7476 154,52.5C 155.323,66.7994 155.823,81.1327 155.5,95.5C 155.167,95.5 154.833,95.5 154.5,95.5C 154.667,84.8281 154.5,74.1615 154,63.5C 154.016,59.205 153.183,55.205 151.5,51.5 Z"/></g>
<g><path style="opacity:1" fill="#d13cc7" d="M 66.5,63.5 C 66.5,64.8333 66.5,66.1667 66.5,67.5C 59.15,66.9068 51.8166,66.2402 44.5,65.5C 42.9137,67.1727 42.2471,69.1727 42.5,71.5C 42.1667,71.5 41.8333,71.5 41.5,71.5C 41.5,68.5 41.5,65.5 41.5,62.5C 49.8164,61.5609 58.1497,61.8943 66.5,63.5 Z"/></g>
<g><path style="opacity:1" fill="#b55aab" d="M 38.5,60.5 C 40.0269,60.427 41.0269,61.0937 41.5,62.5C 41.5,65.5 41.5,68.5 41.5,71.5C 39.7642,68.1591 38.7642,64.4925 38.5,60.5 Z"/></g>
<g><path style="opacity:1" fill="#b844e8" d="M 66.5,67.5 C 66.6662,73.8421 66.4995,80.1754 66,86.5C 65.2828,87.0442 64.7828,87.7109 64.5,88.5C 58.8236,88.3339 53.1569,88.5006 47.5,89C 46.9341,89.9947 46.2674,90.828 45.5,91.5C 44.1061,84.8971 43.1061,78.2305 42.5,71.5C 42.2471,69.1727 42.9137,67.1727 44.5,65.5C 51.8166,66.2402 59.15,66.9068 66.5,67.5 Z"/></g>
<g><path style="opacity:1" fill="#a76bd3" d="M 41.5,71.5 C 41.8333,71.5 42.1667,71.5 42.5,71.5C 43.1061,78.2305 44.1061,84.8971 45.5,91.5C 45.5,92.1667 45.5,92.8333 45.5,93.5C 43.3223,87.8041 41.989,81.8041 41.5,75.5C 41.5,74.1667 41.5,72.8333 41.5,71.5 Z"/></g>
<g><path style="opacity:1" fill="#eff0ef" d="M 82.5,63.5 C 95.5298,62.5466 101.03,68.5466 99,81.5C 94.8912,86.1371 89.7245,88.4704 83.5,88.5C 83.7662,92.6049 83.2662,96.6049 82,100.5C 80.6667,101.833 79.3333,101.833 78,100.5C 77.6949,88.8166 77.1949,77.1499 76.5,65.5C 78.7857,65.405 80.7857,64.7384 82.5,63.5 Z"/></g>
<g><path style="opacity:1" fill="#101010" d="M 84.5,68.5 C 92.5661,68.3974 95.5661,72.2307 93.5,80C 90.1781,82.3317 86.5115,83.4984 82.5,83.5C 81.9735,78.193 82.6402,73.193 84.5,68.5 Z"/></g>
<g><path style="opacity:1" fill="#8054f4" d="M 174.5,69.5 C 173.872,74.0385 175.372,77.7051 179,80.5C 179.923,82.0344 180.423,83.701 180.5,85.5C 178.893,88.2731 177.559,91.2731 176.5,94.5C 174.431,97.5725 171.764,99.9059 168.5,101.5C 165.575,101.54 162.909,100.707 160.5,99C 159.663,97.9887 159.33,96.8221 159.5,95.5C 158.5,95.5 157.5,95.5 156.5,95.5C 156.5,88.1667 156.5,80.8333 156.5,73.5C 157.15,73.8039 157.817,74.1373 158.5,74.5C 163.579,72.0822 168.912,70.4156 174.5,69.5 Z"/></g>
<g><path style="opacity:1" fill="#e7e7e7" d="M 113.5,63.5 C 117.182,63.3347 120.848,63.5014 124.5,64C 128.13,64.271 129.13,65.9377 127.5,69C 124.662,69.3695 121.829,69.2029 119,68.5C 113.743,68.9123 112.243,71.579 114.5,76.5C 119.078,78.1845 123.245,80.5179 127,83.5C 131.576,94.6608 127.743,100.661 115.5,101.5C 110.668,101.084 106.668,99.0841 103.5,95.5C 104.167,94.1667 105.167,93.1667 106.5,92.5C 111.865,95.969 117.365,96.3023 123,93.5C 123.667,91.5 123.667,89.5 123,87.5C 119.626,84.5907 115.793,82.424 111.5,81C 105.855,74.4038 106.521,68.5705 113.5,63.5 Z"/></g>
<g><path style="opacity:1" fill="#140e30" d="M 67.5,63.5 C 67.8333,63.5 68.1667,63.5 68.5,63.5C 68.5939,87.3684 67.5939,111.035 65.5,134.5C 66.4081,110.843 67.0748,87.1759 67.5,63.5 Z"/></g>
<g><path style="opacity:1" fill="#785cd0" d="M 174.5,65.5 C 177.437,72.1293 180.104,78.9626 182.5,86C 182.16,88.5113 181.16,90.678 179.5,92.5C 178.5,93.1667 177.5,93.8333 176.5,94.5C 177.559,91.2731 178.893,88.2731 180.5,85.5C 180.423,83.701 179.923,82.0344 179,80.5C 175.372,77.7051 173.872,74.0385 174.5,69.5C 174.5,68.1667 174.5,66.8333 174.5,65.5 Z"/></g>
<g><path style="opacity:1" fill="#7957f5" d="M 64.5,88.5 C 64.6666,103.17 64.4999,117.837 64,132.5C 61.9546,133.926 59.7879,134.926 57.5,135.5C 55.2776,135.822 53.4443,135.155 52,133.5C 51.2706,125.948 50.1039,118.615 48.5,111.5C 48.6299,107.132 48.2965,102.798 47.5,98.5C 47.3601,96.9704 46.6935,95.9704 45.5,95.5C 45.5,94.8333 45.5,94.1667 45.5,93.5C 45.5,92.8333 45.5,92.1667 45.5,91.5C 46.2674,90.828 46.9341,89.9947 47.5,89C 53.1569,88.5006 58.8236,88.3339 64.5,88.5 Z"/></g>
<g><path style="opacity:1" fill="#f8f0fe" d="M 179.5,92.5 C 178.532,95.0439 176.865,97.2105 174.5,99C 174.833,99.3333 175.167,99.6667 175.5,100C 172.821,101.346 170.821,103.346 169.5,106C 171.747,111.757 174.914,116.923 179,121.5C 180.427,125.678 181.927,129.678 183.5,133.5C 181.833,131.5 180.167,129.5 178.5,127.5C 175.523,121.875 172.19,116.542 168.5,111.5C 167.906,109.145 166.906,106.978 165.5,105C 166.544,103.826 167.544,102.659 168.5,101.5C 171.764,99.9059 174.431,97.5725 176.5,94.5C 177.5,93.8333 178.5,93.1667 179.5,92.5 Z"/></g>
<g><path style="opacity:1" fill="#9a4ed3" d="M 156.5,73.5 C 156.5,80.8333 156.5,88.1667 156.5,95.5C 157.5,95.5 158.5,95.5 159.5,95.5C 159.33,96.8221 159.663,97.9887 160.5,99C 162.909,100.707 165.575,101.54 168.5,101.5C 167.544,102.659 166.544,103.826 165.5,105C 166.906,106.978 167.906,109.145 168.5,111.5C 168.167,111.5 167.833,111.5 167.5,111.5C 167.167,111.5 166.833,111.5 166.5,111.5C 165.952,109.468 164.619,108.468 162.5,108.5C 162.808,106.076 162.474,103.743 161.5,101.5C 160.264,100.754 158.93,100.421 157.5,100.5C 157.069,104.337 156.402,108.003 155.5,111.5C 155.5,106.167 155.5,100.833 155.5,95.5C 155.823,81.1327 155.323,66.7994 154,52.5C 153.329,51.7476 152.496,51.4142 151.5,51.5C 138.189,52.3817 124.856,52.715 111.5,52.5C 111.5,52.1667 111.5,51.8333 111.5,51.5C 111.5,51.1667 111.5,50.8333 111.5,50.5C 111.833,50.5 112.167,50.5 112.5,50.5C 126.538,50.261 140.538,50.261 154.5,50.5C 156.42,57.96 157.087,65.6266 156.5,73.5 Z"/></g>
<g><path style="opacity:1" fill="#7c66d4" d="M 45.5,95.5 C 46.6935,95.9704 47.3601,96.9704 47.5,98.5C 48.2965,102.798 48.6299,107.132 48.5,111.5C 47.5075,106.284 46.5075,100.951 45.5,95.5 Z"/></g>
<g><path style="opacity:1" fill="#7154c1" d="M 66.5,63.5 C 66.8333,63.5 67.1667,63.5 67.5,63.5C 67.0748,87.1759 66.4081,110.843 65.5,134.5C 65.5,134.833 65.5,135.167 65.5,135.5C 62.8333,135.5 60.1667,135.5 57.5,135.5C 59.7879,134.926 61.9546,133.926 64,132.5C 64.4999,117.837 64.6666,103.17 64.5,88.5C 64.7828,87.7109 65.2828,87.0442 66,86.5C 66.4995,80.1754 66.6662,73.8421 66.5,67.5C 66.5,66.1667 66.5,64.8333 66.5,63.5 Z"/></g>
<g><path style="opacity:1" fill="#984cf0" d="M 166.5,111.5 C 166.662,113.527 166.495,115.527 166,117.5C 161.59,115.537 158.59,116.87 157,121.5C 156.722,120.584 156.222,119.918 155.5,119.5C 155.5,116.833 155.5,114.167 155.5,111.5C 156.402,108.003 157.069,104.337 157.5,100.5C 158.93,100.421 160.264,100.754 161.5,101.5C 162.474,103.743 162.808,106.076 162.5,108.5C 164.619,108.468 165.952,109.468 166.5,111.5 Z"/></g>
<g><path style="opacity:1" fill="#856ed7" d="M 168.5,111.5 C 172.19,116.542 175.523,121.875 178.5,127.5C 172.794,123.808 169.461,118.475 168.5,111.5 Z"/></g>
<g><path style="opacity:1" fill="#ecebec" d="M 79.5,123.5 C 88.5586,123.154 97.5586,123.654 106.5,125C 109.642,129.139 108.476,130.972 103,130.5C 93.1672,129.522 83.3339,129.355 73.5,130C 72.2528,128.506 72.2528,127.006 73.5,125.5C 75.6568,124.95 77.6568,124.283 79.5,123.5 Z"/></g>
<g><path style="opacity:1" fill="#6041a0" d="M 154.5,95.5 C 154.833,95.5 155.167,95.5 155.5,95.5C 155.5,100.833 155.5,106.167 155.5,111.5C 155.5,114.167 155.5,116.833 155.5,119.5C 156.4,126.902 156.4,134.236 155.5,141.5C 153.616,142.675 151.449,143.342 149,143.5C 144.294,143.269 139.794,142.603 135.5,141.5C 141.758,141.81 147.924,141.476 154,140.5C 153.372,125.342 153.538,110.342 154.5,95.5 Z"/></g>
<g><path style="opacity:1" fill="#7756f5" d="M 166.5,111.5 C 166.833,111.5 167.167,111.5 167.5,111.5C 168.045,114.813 168.545,118.146 169,121.5C 169.333,121.167 169.667,120.833 170,120.5C 172.934,123.122 175.434,126.122 177.5,129.5C 176.5,132.167 175.5,132.167 174.5,129.5C 171.93,130.634 169.264,131.468 166.5,132C 164.963,133.11 164.297,134.61 164.5,136.5C 168.002,135.083 171.669,134.416 175.5,134.5C 175.719,135.675 175.386,136.675 174.5,137.5C 173.069,137.977 171.736,138.643 170.5,139.5C 169.872,141.258 168.872,142.758 167.5,144C 164.322,144.844 161.655,146.511 159.5,149C 156.153,150.206 153.82,149.206 152.5,146C 150.833,145.667 149.167,145.333 147.5,145C 151.567,144.997 155.567,144.83 159.5,144.5C 157.668,143.943 156.335,142.943 155.5,141.5C 156.4,134.236 156.4,126.902 155.5,119.5C 156.222,119.918 156.722,120.584 157,121.5C 158.59,116.87 161.59,115.537 166,117.5C 166.495,115.527 166.662,113.527 166.5,111.5 Z"/></g>
<g><path style="opacity:1" fill="#7c66ca" d="M 48.5,111.5 C 50.1039,118.615 51.2706,125.948 52,133.5C 53.4443,135.155 55.2776,135.822 57.5,135.5C 55.4402,136.811 53.2735,136.811 51,135.5C 49.325,127.591 48.4917,119.591 48.5,111.5 Z"/></g>
<g><path style="opacity:1" fill="#a04cc2" d="M 79.5,140.5 C 95.6754,140.17 111.675,140.504 127.5,141.5C 127.5,141.833 127.5,142.167 127.5,142.5C 126.5,142.5 125.5,142.5 124.5,142.5C 117.5,142.5 110.5,142.5 103.5,142.5C 95.8333,142.5 88.1667,142.5 80.5,142.5C 80.5,145.5 80.5,148.5 80.5,151.5C 84.4872,150.929 87.4872,152.262 89.5,155.5C 86.4496,154.705 83.4496,153.705 80.5,152.5C 79.5091,148.555 79.1758,144.555 79.5,140.5 Z"/></g>
<g><path style="opacity:1" fill="#7b55f3" d="M 124.5,142.5 C 125.5,142.5 126.5,142.5 127.5,142.5C 132.319,143.566 137.319,144.4 142.5,145C 143.891,146.02 145.391,146.853 147,147.5C 147.483,148.448 147.649,149.448 147.5,150.5C 150.523,150.105 151.523,151.105 150.5,153.5C 148.234,154.314 145.9,154.814 143.5,155C 143.966,156.299 143.966,157.799 143.5,159.5C 141.206,161.653 138.54,163.32 135.5,164.5C 128.167,163.5 120.833,162.5 113.5,161.5C 112.833,160.833 112.167,160.167 111.5,159.5C 114.474,157.673 116.641,155.007 118,151.5C 121.226,149.131 123.392,146.131 124.5,142.5 Z"/></g>
<g><path style="opacity:1" fill="#7658e7" d="M 167.5,111.5 C 167.833,111.5 168.167,111.5 168.5,111.5C 169.461,118.475 172.794,123.808 178.5,127.5C 180.167,129.5 181.833,131.5 183.5,133.5C 183.67,134.822 183.337,135.989 182.5,137C 180.385,137.557 178.385,138.391 176.5,139.5C 169.993,143.656 163.659,147.99 157.5,152.5C 152.856,154.793 148.19,157.127 143.5,159.5C 143.966,157.799 143.966,156.299 143.5,155C 145.9,154.814 148.234,154.314 150.5,153.5C 151.523,151.105 150.523,150.105 147.5,150.5C 147.649,149.448 147.483,148.448 147,147.5C 145.391,146.853 143.891,146.02 142.5,145C 137.319,144.4 132.319,143.566 127.5,142.5C 127.5,142.167 127.5,141.833 127.5,141.5C 130.167,141.5 132.833,141.5 135.5,141.5C 139.794,142.603 144.294,143.269 149,143.5C 151.449,143.342 153.616,142.675 155.5,141.5C 156.335,142.943 157.668,143.943 159.5,144.5C 155.567,144.83 151.567,144.997 147.5,145C 149.167,145.333 150.833,145.667 152.5,146C 153.82,149.206 156.153,150.206 159.5,149C 161.655,146.511 164.322,144.844 167.5,144C 168.872,142.758 169.872,141.258 170.5,139.5C 171.736,138.643 173.069,137.977 174.5,137.5C 175.386,136.675 175.719,135.675 175.5,134.5C 171.669,134.416 168.002,135.083 164.5,136.5C 164.297,134.61 164.963,133.11 166.5,132C 169.264,131.468 171.93,130.634 174.5,129.5C 175.5,132.167 176.5,132.167 177.5,129.5C 175.434,126.122 172.934,123.122 170,120.5C 169.667,120.833 169.333,121.167 169,121.5C 168.545,118.146 168.045,114.813 167.5,111.5 Z"/></g>
<g><path style="opacity:1" fill="#ba42ea" d="M 103.5,142.5 C 110.5,142.5 117.5,142.5 124.5,142.5C 123.392,146.131 121.226,149.131 118,151.5C 116.641,155.007 114.474,157.673 111.5,159.5C 111.892,156.278 111.392,153.278 110,150.5C 108.625,152.937 108.125,155.603 108.5,158.5C 106.143,158.663 103.81,158.497 101.5,158C 99.1446,151.485 94.4779,148.318 87.5,148.5C 85.9795,146.379 83.9795,144.879 81.5,144C 84.5,143.333 87.5,143.333 90.5,144C 95.8414,146.497 101.508,147.663 107.5,147.5C 107.719,146.325 107.386,145.325 106.5,144.5C 105.261,144.058 104.261,143.391 103.5,142.5 Z"/></g>
<g><path style="opacity:1" fill="#b746e0" d="M 103.5,142.5 C 104.261,143.391 105.261,144.058 106.5,144.5C 107.386,145.325 107.719,146.325 107.5,147.5C 101.508,147.663 95.8414,146.497 90.5,144C 87.5,143.333 84.5,143.333 81.5,144C 83.9795,144.879 85.9795,146.379 87.5,148.5C 94.4779,148.318 99.1446,151.485 101.5,158C 103.81,158.497 106.143,158.663 108.5,158.5C 108.125,155.603 108.625,152.937 110,150.5C 111.392,153.278 111.892,156.278 111.5,159.5C 112.167,160.167 112.833,160.833 113.5,161.5C 112.5,161.5 111.5,161.5 110.5,161.5C 103.08,160.662 96.0798,158.662 89.5,155.5C 87.4872,152.262 84.4872,150.929 80.5,151.5C 80.5,148.5 80.5,145.5 80.5,142.5C 88.1667,142.5 95.8333,142.5 103.5,142.5 Z"/></g>
<g><path style="opacity:1" fill="#7f5ed7" d="M 110.5,162.5 C 110.5,162.167 110.5,161.833 110.5,161.5C 111.5,161.5 112.5,161.5 113.5,161.5C 120.833,162.5 128.167,163.5 135.5,164.5C 134.5,165.167 133.5,165.833 132.5,166.5C 131.033,166.894 129.533,167.227 128,167.5C 122.284,165.521 116.451,163.855 110.5,162.5 Z"/></g>
<g><path style="opacity:1" fill="#fbeffd" d="M 50.5,170.5 C 49.5,169.833 48.5,169.167 47.5,168.5C 45.1861,165.386 42.1861,164.719 38.5,166.5C 37.1968,169.645 37.1968,172.645 38.5,175.5C 39.0543,182.153 39.3877,188.82 39.5,195.5C 40.8333,195.5 42.1667,195.5 43.5,195.5C 43.5,191.833 43.5,188.167 43.5,184.5C 44.552,184.649 45.552,184.483 46.5,184C 47.3994,182.348 48.3994,180.848 49.5,179.5C 49.9807,183.349 48.314,185.349 44.5,185.5C 44.2108,189.106 44.5442,192.606 45.5,196C 43.1913,200.253 40.6913,200.42 38,196.5C 36.7189,185.85 36.0522,175.183 36,164.5C 39.7189,162.092 43.5522,161.925 47.5,164C 49.4506,165.734 50.4506,167.901 50.5,170.5 Z"/></g>
<g><path style="opacity:1" fill="#a553da" d="M 97.5,176.5 C 99.5,178.167 101.5,179.833 103.5,181.5C 104.793,183.296 106.293,184.963 108,186.5C 109.041,189.636 108.207,192.136 105.5,194C 101.848,194.499 98.1817,194.665 94.5,194.5C 93.5637,193.026 92.2303,192.026 90.5,191.5C 89.7659,190.292 89.4326,188.959 89.5,187.5C 93.8624,189.456 98.5291,190.456 103.5,190.5C 101.875,186.026 98.8754,182.526 94.5,180C 93.1772,179.184 92.5106,178.017 92.5,176.5C 91.7688,171.927 92.7688,167.927 95.5,164.5C 97.2646,163.539 99.2646,163.205 101.5,163.5C 101.67,164.822 101.337,165.989 100.5,167C 98.8988,167.273 97.3988,167.773 96,168.5C 95.3333,170.833 95.3333,173.167 96,175.5C 96.3826,176.056 96.8826,176.389 97.5,176.5 Z"/></g>
<g><path style="opacity:1" fill="#faf8f8" d="M 110.5,162.5 C 116.451,163.855 122.284,165.521 128,167.5C 129.533,167.227 131.033,166.894 132.5,166.5C 133.496,166.414 134.329,166.748 135,167.5C 137.134,165.516 139.634,164.182 142.5,163.5C 143.932,166.419 142.932,167.752 139.5,167.5C 139.38,169.199 139.046,170.865 138.5,172.5C 139.167,174.167 139.833,175.833 140.5,177.5C 140.333,178.167 140.167,178.833 140,179.5C 139.329,178.748 138.496,178.414 137.5,178.5C 135.382,176.067 132.716,174.4 129.5,173.5C 126.229,174.583 124.562,176.916 124.5,180.5C 123.761,180.631 123.094,180.464 122.5,180C 122.085,177.974 121.085,176.474 119.5,175.5C 118.167,175.5 116.833,175.5 115.5,175.5C 115.5,173.167 115.5,170.833 115.5,168.5C 114.167,168.5 112.833,168.5 111.5,168.5C 111.5,171.167 111.5,173.833 111.5,176.5C 109.708,176.366 108.042,176.699 106.5,177.5C 105.978,179.219 104.978,180.552 103.5,181.5C 101.5,179.833 99.5,178.167 97.5,176.5C 96.7814,174.236 96.448,171.903 96.5,169.5C 100.847,169.493 104.18,167.66 106.5,164C 106.167,163.667 105.833,163.333 105.5,163C 107.134,162.506 108.801,162.34 110.5,162.5 Z"/></g>
<g><path style="opacity:1" fill="#b372d2" d="M 47.5,168.5 C 45.9519,168.821 45.2852,169.821 45.5,171.5C 44.8501,171.196 44.1835,170.863 43.5,170.5C 42.5258,172.743 42.1924,175.076 42.5,177.5C 41.834,174.642 41.1674,171.642 40.5,168.5C 39.914,168.709 39.414,169.043 39,169.5C 38.5045,171.473 38.3379,173.473 38.5,175.5C 37.1968,172.645 37.1968,169.645 38.5,166.5C 42.1861,164.719 45.1861,165.386 47.5,168.5 Z"/></g>
<g><path style="opacity:1" fill="#9663bb" d="M 111.5,176.5 C 110.791,177.404 109.791,177.737 108.5,177.5C 108.5,178.5 108.5,179.5 108.5,180.5C 106.952,180.179 106.285,179.179 106.5,177.5C 108.042,176.699 109.708,176.366 111.5,176.5 Z"/></g>
<g><path style="opacity:1" fill="#fceefd" d="M 83.5,188.5 C 84.4869,181.331 81.4869,177.831 74.5,178C 74,178.5 73.5,179 73,179.5C 73.9471,189.774 74.4471,200.108 74.5,210.5C 76.099,210.768 77.4324,210.434 78.5,209.5C 78.2143,203.741 78.5476,198.075 79.5,192.5C 80.391,191.89 81.391,191.557 82.5,191.5C 82.0472,192.458 81.3805,193.292 80.5,194C 80.6231,200.016 80.6231,206.182 80.5,212.5C 76.9661,212.968 73.9661,211.968 71.5,209.5C 72.7791,204.853 72.7791,200.186 71.5,195.5C 69.9763,199.283 68.9763,203.283 68.5,207.5C 68.1667,207.167 67.8333,206.833 67.5,206.5C 66.9645,203.895 66.7978,201.228 67,198.5C 64.2721,197.033 63.4387,195.033 64.5,192.5C 66.0418,193.301 67.7085,193.634 69.5,193.5C 69.665,190.15 69.4983,186.817 69,183.5C 68.7216,182.584 68.2216,181.918 67.5,181.5C 65.373,177.219 62.373,176.552 58.5,179.5C 57.8857,175.865 57.5524,172.198 57.5,168.5C 55.8007,168.527 54.4674,169.194 53.5,170.5C 53.3398,168.801 53.5065,167.134 54,165.5C 54.7175,164.549 55.5509,164.383 56.5,165C 58.3583,168.238 59.6916,171.738 60.5,175.5C 62.3956,175.093 64.729,175.093 67.5,175.5C 68.6236,177.369 69.4569,179.369 70,181.5C 71.0726,179.453 72.2393,177.453 73.5,175.5C 76.9667,175.811 80.4667,175.811 84,175.5C 84.9907,176.43 85.4907,177.596 85.5,179C 85.0542,182.35 84.3875,185.517 83.5,188.5 Z"/></g>
<g><path style="opacity:1" fill="#a347df" d="M 67.5,181.5 C 68.0508,184.807 68.3841,188.14 68.5,191.5C 67.5,191.5 66.5,191.5 65.5,191.5C 65.8016,188.941 65.4682,186.607 64.5,184.5C 64.1667,183.833 63.8333,183.167 63.5,182.5C 64.2107,180.158 65.544,179.825 67.5,181.5 Z"/></g>
<g><path style="opacity:1" fill="#faeafb" d="M 78.5,140.5 C 78.8333,140.5 79.1667,140.5 79.5,140.5C 79.1758,144.555 79.5091,148.555 80.5,152.5C 83.4496,153.705 86.4496,154.705 89.5,155.5C 96.0798,158.662 103.08,160.662 110.5,161.5C 110.5,161.833 110.5,162.167 110.5,162.5C 108.801,162.34 107.134,162.506 105.5,163C 105.833,163.333 106.167,163.667 106.5,164C 104.18,167.66 100.847,169.493 96.5,169.5C 96.448,171.903 96.7814,174.236 97.5,176.5C 96.8826,176.389 96.3826,176.056 96,175.5C 95.3333,173.167 95.3333,170.833 96,168.5C 97.3988,167.773 98.8988,167.273 100.5,167C 101.337,165.989 101.67,164.822 101.5,163.5C 99.2646,163.205 97.2646,163.539 95.5,164.5C 92.8122,165.024 91.3122,166.691 91,169.5C 90.1742,172.212 90.6742,174.545 92.5,176.5C 92.5106,178.017 93.1772,179.184 94.5,180C 98.8754,182.526 101.875,186.026 103.5,190.5C 98.5291,190.456 93.8624,189.456 89.5,187.5C 89.4326,188.959 89.7659,190.292 90.5,191.5C 89.5,191.5 88.5,191.5 87.5,191.5C 87.8541,189.459 87.8541,187.626 87.5,186C 89,185.167 90.1667,184 91,182.5C 93.8001,186.687 95.3001,186.354 95.5,181.5C 94.0222,181.762 92.6888,181.429 91.5,180.5C 90.3732,176.865 89.3732,173.198 88.5,169.5C 89.8242,163.819 93.4909,160.986 99.5,161C 92.3642,159.256 85.3642,157.089 78.5,154.5C 78.5,149.833 78.5,145.167 78.5,140.5 Z"/></g>
<g><path style="opacity:1" fill="#b278d5" d="M 95.5,164.5 C 92.7688,167.927 91.7688,171.927 92.5,176.5C 90.6742,174.545 90.1742,172.212 91,169.5C 91.3122,166.691 92.8122,165.024 95.5,164.5 Z"/></g>
<g><path style="opacity:1" fill="#a64ce7" d="M 119.5,175.5 C 119.5,176.833 119.5,178.167 119.5,179.5C 118.167,179.5 116.833,179.5 115.5,179.5C 115.5,181.833 115.5,184.167 115.5,186.5C 115.785,188.288 115.452,189.955 114.5,191.5C 113.92,188.553 112.92,185.886 111.5,183.5C 111.5,182.5 111.5,181.5 111.5,180.5C 110.5,180.5 109.5,180.5 108.5,180.5C 108.5,179.5 108.5,178.5 108.5,177.5C 109.791,177.737 110.791,177.404 111.5,176.5C 111.5,173.833 111.5,171.167 111.5,168.5C 112.833,168.5 114.167,168.5 115.5,168.5C 115.5,170.833 115.5,173.167 115.5,175.5C 116.833,175.5 118.167,175.5 119.5,175.5 Z"/></g>
<g><path style="opacity:1" fill="#a84fd9" d="M 42.5,177.5 C 43.2789,179.927 44.4455,179.927 46,177.5C 46.6776,175.402 46.5109,173.402 45.5,171.5C 45.2852,169.821 45.9519,168.821 47.5,168.5C 48.5,169.167 49.5,169.833 50.5,170.5C 50.6323,173.57 50.299,176.57 49.5,179.5C 48.3994,180.848 47.3994,182.348 46.5,184C 45.552,184.483 44.552,184.649 43.5,184.5C 43.5,188.167 43.5,191.833 43.5,195.5C 42.1667,195.5 40.8333,195.5 39.5,195.5C 39.3877,188.82 39.0543,182.153 38.5,175.5C 38.3379,173.473 38.5045,171.473 39,169.5C 39.414,169.043 39.914,168.709 40.5,168.5C 41.1674,171.642 41.834,174.642 42.5,177.5 Z"/></g>
<g><path style="opacity:1" fill="#fae4fd" d="M 45.5,171.5 C 46.5109,173.402 46.6776,175.402 46,177.5C 44.4455,179.927 43.2789,179.927 42.5,177.5C 42.1924,175.076 42.5258,172.743 43.5,170.5C 44.1835,170.863 44.8501,171.196 45.5,171.5 Z"/></g>
<g><path style="opacity:1" fill="#a752d8" d="M 137.5,178.5 C 140.73,184.217 140.064,189.217 135.5,193.5C 133.097,193.552 130.764,193.219 128.5,192.5C 127.542,192.047 126.708,191.381 126,190.5C 124.957,187.243 124.457,183.91 124.5,180.5C 124.562,176.916 126.229,174.583 129.5,173.5C 132.716,174.4 135.382,176.067 137.5,178.5 Z"/></g>
<g><path style="opacity:1" fill="#a660d0" d="M 58.5,179.5 C 62.373,176.552 65.373,177.219 67.5,181.5C 65.544,179.825 64.2107,180.158 63.5,182.5C 61.8706,180.94 60.704,181.273 60,183.5C 59.5014,187.152 59.3347,190.818 59.5,194.5C 57.0885,194.863 55.5885,193.863 55,191.5C 54.2286,184.515 53.7286,177.515 53.5,170.5C 54.4674,169.194 55.8007,168.527 57.5,168.5C 57.5524,172.198 57.8857,175.865 58.5,179.5 Z"/></g>
<g><path style="opacity:1" fill="#ab46f3" d="M 58.5,179.5 C 57.7953,192.141 56.7953,192.808 55.5,181.5C 55.8333,180.167 56.1667,178.833 56.5,177.5C 57.1818,178.243 57.8485,178.909 58.5,179.5 Z"/></g>
<g><path style="opacity:1" fill="#a748de" d="M 76.5,182.5 C 76.5,184.5 76.5,186.5 76.5,188.5C 77.5,188.5 78.5,188.5 79.5,188.5C 79.5,186.833 79.5,185.167 79.5,183.5C 79.56,182.957 79.8933,182.624 80.5,182.5C 81.7795,186.03 81.4462,189.363 79.5,192.5C 78.5476,198.075 78.2143,203.741 78.5,209.5C 77.5,209.5 76.5,209.5 75.5,209.5C 75.7549,199.75 75.0882,190.083 73.5,180.5C 75.1992,180.34 76.8659,180.506 78.5,181C 77.5842,181.278 76.9175,181.778 76.5,182.5 Z"/></g>
<g><path style="opacity:1" fill="#faecfd" d="M 157.5,152.5 C 155.691,155.139 153.358,157.306 150.5,159C 151.554,160.388 151.72,161.888 151,163.5C 150.333,162.833 149.667,162.167 149,161.5C 147.899,163.394 146.566,164.061 145,163.5C 144.689,165.556 144.189,167.556 143.5,169.5C 144.391,170.59 145.391,170.59 146.5,169.5C 147.382,170.76 148.382,171.926 149.5,173C 152.924,173.747 156.257,173.58 159.5,172.5C 159.624,177.049 160.291,181.382 161.5,185.5C 161.433,186.959 161.766,188.292 162.5,189.5C 162.5,190.833 162.5,192.167 162.5,193.5C 163.833,193.5 165.167,193.5 166.5,193.5C 166.334,189.154 166.501,184.821 167,180.5C 168.11,178.963 169.61,178.297 171.5,178.5C 171.334,182.846 171.501,187.179 172,191.5C 172.383,192.056 172.883,192.389 173.5,192.5C 173.821,194.048 174.821,194.715 176.5,194.5C 176.5,189.167 176.5,183.833 176.5,178.5C 177.5,178.5 178.5,178.5 179.5,178.5C 180.988,183.348 181.821,188.348 182,193.5C 183.356,194.38 184.856,194.714 186.5,194.5C 185.831,189.153 184.998,183.82 184,178.5C 182.855,175.523 180.688,173.856 177.5,173.5C 173.339,174.04 169.339,174.707 165.5,175.5C 164.655,174.329 163.989,172.995 163.5,171.5C 164.15,171.196 164.817,170.863 165.5,170.5C 166.623,171.544 167.956,172.21 169.5,172.5C 174.241,171.77 178.908,171.604 183.5,172C 184.911,174.378 186.077,176.878 187,179.5C 187.667,184.833 187.667,190.167 187,195.5C 185,198.167 183,198.167 181,195.5C 179.382,183.62 178.382,183.62 178,195.5C 177.333,198.167 176.667,198.167 176,195.5C 175.692,196.308 175.192,196.975 174.5,197.5C 173.139,195.972 171.972,194.305 171,192.5C 170.667,188.833 170.333,185.167 170,181.5C 168.186,185.028 168.019,188.695 169.5,192.5C 168.147,193.524 167.48,194.857 167.5,196.5C 164.956,196.896 162.789,196.229 161,194.5C 159.265,189.132 158.265,183.799 158,178.5C 155.948,179.723 153.781,180.723 151.5,181.5C 151,182.5 150.5,183.5 150,184.5C 149.87,188.111 149.703,191.611 149.5,195C 147.612,197.218 145.445,197.718 143,196.5C 142.517,195.552 142.351,194.552 142.5,193.5C 139.282,194.188 136.116,195.188 133,196.5C 130.077,196.205 127.743,194.871 126,192.5C 125.667,193.5 125.333,194.5 125,195.5C 120.527,198.914 115.86,198.914 111,195.5C 105.344,197.776 99.511,197.943 93.5,196C 94.056,195.617 94.3893,195.117 94.5,194.5C 98.1817,194.665 101.848,194.499 105.5,194C 108.207,192.136 109.041,189.636 108,186.5C 106.293,184.963 104.793,183.296 103.5,181.5C 104.978,180.552 105.978,179.219 106.5,177.5C 106.285,179.179 106.952,180.179 108.5,180.5C 109.5,180.5 110.5,180.5 111.5,180.5C 111.5,181.5 111.5,182.5 111.5,183.5C 111.81,187.546 112.81,191.379 114.5,195C 116.833,195.667 119.167,195.667 121.5,195C 124.287,193.093 124.12,191.593 121,190.5C 119.838,191.187 118.672,191.353 117.5,191C 116.901,189.378 116.234,187.878 115.5,186.5C 115.5,184.167 115.5,181.833 115.5,179.5C 116.833,179.5 118.167,179.5 119.5,179.5C 119.5,178.167 119.5,176.833 119.5,175.5C 121.085,176.474 122.085,177.974 122.5,180C 123.094,180.464 123.761,180.631 124.5,180.5C 124.457,183.91 124.957,187.243 126,190.5C 126.708,191.381 127.542,192.047 128.5,192.5C 129.312,193.993 130.645,194.66 132.5,194.5C 133.726,194.48 134.726,194.147 135.5,193.5C 140.064,189.217 140.73,184.217 137.5,178.5C 138.496,178.414 139.329,178.748 140,179.5C 140.167,178.833 140.333,178.167 140.5,177.5C 139.833,175.833 139.167,174.167 138.5,172.5C 139.046,170.865 139.38,169.199 139.5,167.5C 142.932,167.752 143.932,166.419 142.5,163.5C 139.634,164.182 137.134,165.516 135,167.5C 134.329,166.748 133.496,166.414 132.5,166.5C 133.5,165.833 134.5,165.167 135.5,164.5C 138.54,163.32 141.206,161.653 143.5,159.5C 148.19,157.127 152.856,154.793 157.5,152.5 Z"/></g>
<g><path style="opacity:1" fill="#faeafd" d="M 129.5,178.5 C 131.371,178.859 132.871,179.859 134,181.5C 134.497,184.146 134.664,186.813 134.5,189.5C 128.603,188.004 126.937,184.338 129.5,178.5 Z"/></g>
<g><path style="opacity:1" fill="#a355d3" d="M 173.5,192.5 C 175.446,187.604 176.113,182.271 175.5,176.5C 173.517,176.157 172.183,176.824 171.5,178.5C 169.61,178.297 168.11,178.963 167,180.5C 166.501,184.821 166.334,189.154 166.5,193.5C 165.167,193.5 163.833,193.5 162.5,193.5C 162.5,192.167 162.5,190.833 162.5,189.5C 163.397,190.598 164.23,190.598 165,189.5C 165.261,185.294 165.761,181.127 166.5,177C 166.43,176.235 166.097,175.735 165.5,175.5C 169.339,174.707 173.339,174.04 177.5,173.5C 180.688,173.856 182.855,175.523 184,178.5C 184.998,183.82 185.831,189.153 186.5,194.5C 184.856,194.714 183.356,194.38 182,193.5C 181.821,188.348 180.988,183.348 179.5,178.5C 178.5,178.5 177.5,178.5 176.5,178.5C 176.5,183.833 176.5,189.167 176.5,194.5C 174.821,194.715 173.821,194.048 173.5,192.5 Z"/></g>
<g><path style="opacity:1" fill="#a94ce4" d="M 173.5,192.5 C 172.883,192.389 172.383,192.056 172,191.5C 171.501,187.179 171.334,182.846 171.5,178.5C 172.183,176.824 173.517,176.157 175.5,176.5C 176.113,182.271 175.446,187.604 173.5,192.5 Z"/></g>
<g><path style="opacity:1" fill="#a74ede" d="M 145.5,175.5 C 148.167,175.5 150.833,175.5 153.5,175.5C 153.5,176.5 153.5,177.5 153.5,178.5C 151.302,178.12 149.635,178.787 148.5,180.5C 147.883,180.611 147.383,180.944 147,181.5C 146.501,185.486 146.334,189.486 146.5,193.5C 145.5,193.5 144.5,193.5 143.5,193.5C 142.617,188.897 142.283,184.23 142.5,179.5C 142.5,178.167 142.5,176.833 142.5,175.5C 143.5,175.5 144.5,175.5 145.5,175.5 Z"/></g>
<g><path style="opacity:1" fill="#a84cec" d="M 165.5,175.5 C 166.097,175.735 166.43,176.235 166.5,177C 165.761,181.127 165.261,185.294 165,189.5C 164.23,190.598 163.397,190.598 162.5,189.5C 161.766,188.292 161.433,186.959 161.5,185.5C 161.18,182.102 161.513,178.768 162.5,175.5C 163.687,176.653 164.687,176.653 165.5,175.5 Z"/></g>
<g><path style="opacity:1" fill="#b573d3" d="M 163.5,171.5 C 163.989,172.995 164.655,174.329 165.5,175.5C 164.687,176.653 163.687,176.653 162.5,175.5C 161.513,178.768 161.18,182.102 161.5,185.5C 160.291,181.382 159.624,177.049 159.5,172.5C 160.708,171.766 162.041,171.433 163.5,171.5 Z"/></g>
<g><path style="opacity:1" fill="#9d66c6" d="M 145.5,175.5 C 144.5,175.5 143.5,175.5 142.5,175.5C 142.5,176.833 142.5,178.167 142.5,179.5C 141.532,177.393 141.198,175.059 141.5,172.5C 142.833,172.5 144.167,172.5 145.5,172.5C 145.5,173.5 145.5,174.5 145.5,175.5 Z"/></g>
<g><path style="opacity:1" fill="#b278d4" d="M 148.5,180.5 C 147.781,185.118 147.281,189.785 147,194.5C 145.244,195.985 144.077,195.652 143.5,193.5C 144.5,193.5 145.5,193.5 146.5,193.5C 146.334,189.486 146.501,185.486 147,181.5C 147.383,180.944 147.883,180.611 148.5,180.5 Z"/></g>
<g><path style="opacity:1" fill="#a95cd3" d="M 111.5,183.5 C 112.92,185.886 113.92,188.553 114.5,191.5C 115.452,189.955 115.785,188.288 115.5,186.5C 116.234,187.878 116.901,189.378 117.5,191C 118.672,191.353 119.838,191.187 121,190.5C 124.12,191.593 124.287,193.093 121.5,195C 119.167,195.667 116.833,195.667 114.5,195C 112.81,191.379 111.81,187.546 111.5,183.5 Z"/></g>
<g><path style="opacity:1" fill="#af7ac7" d="M 67.5,181.5 C 68.2216,181.918 68.7216,182.584 69,183.5C 69.4983,186.817 69.665,190.15 69.5,193.5C 67.7085,193.634 66.0418,193.301 64.5,192.5C 64.5,189.833 64.5,187.167 64.5,184.5C 65.4682,186.607 65.8016,188.941 65.5,191.5C 66.5,191.5 67.5,191.5 68.5,191.5C 68.3841,188.14 68.0508,184.807 67.5,181.5 Z"/></g>
<g><path style="opacity:1" fill="#dfb2fc" d="M 128.5,192.5 C 130.764,193.219 133.097,193.552 135.5,193.5C 134.726,194.147 133.726,194.48 132.5,194.5C 130.645,194.66 129.312,193.993 128.5,192.5 Z"/></g>
<g><path style="opacity:1" fill="#a360c9" d="M 83.5,188.5 C 83.4431,189.609 83.1098,190.609 82.5,191.5C 81.391,191.557 80.391,191.89 79.5,192.5C 81.4462,189.363 81.7795,186.03 80.5,182.5C 79.8933,182.624 79.56,182.957 79.5,183.5C 78.609,182.89 77.609,182.557 76.5,182.5C 76.9175,181.778 77.5842,181.278 78.5,181C 76.8659,180.506 75.1992,180.34 73.5,180.5C 75.0882,190.083 75.7549,199.75 75.5,209.5C 76.5,209.5 77.5,209.5 78.5,209.5C 77.4324,210.434 76.099,210.768 74.5,210.5C 74.4471,200.108 73.9471,189.774 73,179.5C 73.5,179 74,178.5 74.5,178C 81.4869,177.831 84.4869,181.331 83.5,188.5 Z"/></g>
<g><path style="opacity:1" fill="#f2cdfc" d="M 76.5,182.5 C 77.609,182.557 78.609,182.89 79.5,183.5C 79.5,185.167 79.5,186.833 79.5,188.5C 78.5,188.5 77.5,188.5 76.5,188.5C 76.5,186.5 76.5,184.5 76.5,182.5 Z"/></g>
</svg>
