<svg width="100" height="95" viewBox="0 0 100 95" fill="none" xmlns="http://www.w3.org/2000/svg">
<g clip-path="url(#clip0_618_1639)">
<path d="M27.7396 46.2212C25.937 44.5414 24.98 42.381 24.9717 40.0722C24.9635 37.7634 25.9081 35.5952 27.6323 33.9662L38.0026 24.7973C38.84 24.0629 40.1394 24.1058 40.919 24.8911C41.6945 25.6802 41.6491 26.9186 40.82 27.6531L30.4992 36.7711C29.6123 37.6149 29.0967 38.7986 29.1008 40.0527C29.1008 41.3106 29.6288 42.4904 30.5735 43.3733L40.7952 52.1163C41.6409 52.8391 41.7069 54.0735 40.9437 54.8744C40.5354 55.3002 39.9744 55.519 39.4134 55.519C38.9184 55.519 38.4234 55.3549 38.0315 55.015L27.7437 46.2134L27.7396 46.2212ZM68.8989 36.7281C69.8394 37.6188 70.355 38.8026 70.3509 40.0605C70.3509 41.3184 69.8229 42.4982 68.9443 43.3225L58.6565 52.1241C57.8109 52.8469 57.7449 54.0814 58.508 54.8822C58.9164 55.308 59.4774 55.5268 60.0384 55.5268C60.5334 55.5268 61.0284 55.3627 61.4203 55.0229L71.774 46.1587C73.5065 44.5375 74.4677 42.3771 74.4759 40.0683C74.4842 37.7595 73.5395 35.5913 71.7658 33.9154L61.445 24.7973C60.6076 24.0629 59.3083 24.1097 58.5286 24.8911C57.7531 25.6802 57.7985 26.9186 58.6276 27.6531L68.8989 36.7281ZM99.2259 73.1066C99.2259 78.4899 94.5977 82.8732 88.9134 82.8732H10.5342C4.84994 82.8732 0.22168 78.4899 0.22168 73.1066C0.22168 68.3913 3.76918 64.4456 8.47169 63.5354V30.1338C8.47169 20.4414 16.8001 12.554 27.0342 12.554H72.4093C82.6434 12.554 90.9718 20.4414 90.9718 30.1338V63.5354C95.6743 64.4417 99.2259 68.3874 99.2259 73.1066ZM12.5967 30.1338V63.3401H35.2842C35.8329 63.3401 36.3567 63.5471 36.7445 63.9104L40.2672 67.2467H59.1845L62.7073 63.9104C63.095 63.5432 63.6189 63.3401 64.1675 63.3401H86.8551V30.1338C86.8551 22.594 80.3788 16.4606 72.4175 16.4606H27.0342C19.073 16.4606 12.5967 22.594 12.5967 30.1338ZM95.0968 73.1066C95.0968 69.8758 92.3207 67.2467 88.9093 67.2467H65.0131L61.4904 70.5829C61.1026 70.9502 60.5788 71.1533 60.0301 71.1533H39.4051C38.8565 71.1533 38.3326 70.9462 37.9449 70.5829L34.4221 67.2467H10.5342C7.12281 67.2467 4.34669 69.8758 4.34669 73.1066C4.34669 76.3374 7.12281 78.9665 10.5342 78.9665H88.9093C92.3207 78.9665 95.0968 76.3374 95.0968 73.1066Z" fill="#323F49"/>
</g>
<defs>
<clipPath id="clip0_618_1639">
<rect width="99.0001" height="93.7589" fill="white" transform="translate(0.22168 0.833984)"/>
</clipPath>
</defs>
</svg>
