<svg width="81" height="82" viewBox="0 0 81 82" fill="none" xmlns="http://www.w3.org/2000/svg">
<path d="M47.7266 44.6754L37.1634 55.2958L26.0749 44.2073L36.6448 33.5802C37.2981 32.9235 37.2981 31.8527 36.6381 31.1995C35.9815 30.5496 34.9141 30.5429 34.2574 31.2062L23.6942 41.8267L18.1214 36.2538C17.4648 35.5972 16.3973 35.5972 15.7407 36.2538C15.0841 36.9104 15.0841 37.9778 15.7407 38.6345L17.5658 40.4595L11.673 46.3523C5.65568 52.3696 5.27854 61.9226 10.5416 68.3878L0.584538 78.3449C-0.0720838 79.0015 -0.0720838 80.069 0.584538 80.7256C0.914532 81.0556 1.34554 81.2172 1.77656 81.2172C2.20757 81.2172 2.63858 81.0522 2.96858 80.7256L12.9223 70.7719C15.936 73.2266 19.6266 74.4557 23.3171 74.4557C27.533 74.4557 31.7488 72.8495 34.9578 69.6405L40.8506 63.7477L42.6757 65.5728C43.0056 65.9028 43.4367 66.0644 43.8677 66.0644C44.2987 66.0644 44.7297 65.8994 45.0597 65.5728C45.7163 64.9162 45.7163 63.8487 45.0597 63.1921L39.5441 57.6765L50.114 47.0493C50.7673 46.3927 50.7673 45.3219 50.1073 44.6687C49.4473 44.0154 48.3798 44.0154 47.7266 44.6754ZM32.5772 67.2598C27.4723 72.3646 19.1652 72.3646 14.0537 67.2598C8.94888 62.1516 8.94552 53.8445 14.0537 48.7363L19.9465 42.8436L38.4699 61.367L32.5772 67.2598ZM80.4162 0.897251C79.7596 0.24063 78.6922 0.24063 78.0356 0.897251L68.0886 10.8442C61.6301 5.59125 52.0805 5.97176 46.0732 11.979L40.1536 17.8785L38.3251 16.0501C37.6685 15.3934 36.6011 15.3934 35.9444 16.0501C35.2878 16.7067 35.2878 17.7741 35.9444 18.4307L62.8828 45.369C63.2128 45.699 63.6438 45.8607 64.0748 45.8607C64.5058 45.8607 64.9368 45.6957 65.2668 45.369C65.9234 44.7124 65.9234 43.645 65.2668 42.9884L63.4417 41.1633L69.3547 35.2672C72.4661 32.1592 74.18 28.0241 74.18 23.6265C74.18 19.7877 72.8769 16.1511 70.476 13.2215L80.4196 3.27793C81.0762 2.6213 81.0729 1.55387 80.4162 0.897251ZM66.9706 32.8831L61.0577 38.7793L42.5376 20.2592L48.4539 14.363C53.5587 9.25823 61.8692 9.25823 66.974 14.363C69.449 16.838 70.8127 20.1278 70.8127 23.6265C70.8127 27.1251 69.449 30.4149 66.9706 32.8831Z" fill="#323F49"/>
</svg>
