<?xml version="1.0" encoding="UTF-8"?>
<!DOCTYPE svg PUBLIC "-//W3C//DTD SVG 1.1//EN" "http://www.w3.org/Graphics/SVG/1.1/DTD/svg11.dtd">
<svg xmlns="http://www.w3.org/2000/svg" version="1.1" width="197px" height="220px" style="shape-rendering:geometricPrecision; text-rendering:geometricPrecision; image-rendering:optimizeQuality; fill-rule:evenodd; clip-rule:evenodd" xmlns:xlink="http://www.w3.org/1999/xlink">
<g><path style="opacity:1" fill="#fbfbfb" d="M -0.5,-0.5 C 65.1667,-0.5 130.833,-0.5 196.5,-0.5C 196.5,72.8333 196.5,146.167 196.5,219.5C 130.833,219.5 65.1667,219.5 -0.5,219.5C -0.5,146.167 -0.5,72.8333 -0.5,-0.5 Z"/></g>
<g><path style="opacity:1" fill="#151413" d="M 113.5,28.5 C 123.881,27.4599 133.548,29.6266 142.5,35C 150.822,40.8161 153.655,48.6494 151,58.5C 148.23,72.9807 143.397,86.6474 136.5,99.5C 141.172,98.9973 145.839,98.8306 150.5,99C 152.699,104.096 151.365,108.429 146.5,112C 140.517,114.985 134.184,116.151 127.5,115.5C 127.141,124.383 125.641,133.049 123,141.5C 116.306,148.843 108.139,151.343 98.5,149C 96.04,147.542 93.8734,145.709 92,143.5C 89.9325,135.296 88.5991,126.963 88,118.5C 80.9006,121.344 74.0673,120.677 67.5,116.5C 61.4099,120.983 56.2432,119.983 52,113.5C 40.0324,92.3033 35.0324,69.6366 37,45.5C 43.6726,32.7514 54.1726,27.9181 68.5,31C 72.4189,31.4585 76.2522,32.2918 80,33.5C 87.9637,30.45 96.1303,29.7834 104.5,31.5C 107.662,30.635 110.662,29.635 113.5,28.5 Z"/></g>
<g><path style="opacity:1" fill="#e7f0f4" d="M 92.5,129.5 C 92.8282,124.125 92.4948,118.792 91.5,113.5C 90.8933,113.624 90.56,113.957 90.5,114.5C 85.9597,117.296 80.9597,118.129 75.5,117C 71.0407,115.488 70.0407,112.988 72.5,109.5C 75.0698,108.366 77.7365,107.532 80.5,107C 81.8333,106.333 82.8333,105.333 83.5,104C 81.6494,103.163 79.8161,102.329 78,101.5C 73.9759,106.104 69.8092,110.604 65.5,115C 59.2601,116.463 54.7601,114.297 52,108.5C 43.5601,90.7435 39.2268,72.0768 39,52.5C 41.405,39.2789 49.405,32.9455 63,33.5C 69.3192,34.1214 75.4859,35.4548 81.5,37.5C 84.0496,36.0584 86.7163,34.8917 89.5,34C 102.135,33.6818 114.802,33.3485 127.5,33C 145.533,36.3658 152.033,46.8658 147,64.5C 144.097,77.3014 139.264,89.3014 132.5,100.5C 137.501,101.421 142.501,101.588 147.5,101C 149.077,104.482 148.077,107.148 144.5,109C 138.554,112.082 132.221,113.249 125.5,112.5C 124.916,122.093 123.083,131.427 120,140.5C 113.809,146.407 106.642,147.907 98.5,145C 94.2517,140.763 92.2517,135.596 92.5,129.5 Z"/></g>
<g><path style="opacity:1" fill="#3a5a7d" d="M 88.5,103.5 C 92.3617,106.134 92.3617,108.968 88.5,112C 84.219,113.628 79.8856,113.795 75.5,112.5C 81.474,111.694 85.8073,108.694 88.5,103.5 Z"/></g>
<g><path style="opacity:1" fill="#365377" d="M 127.5,103.5 C 130.259,104.885 133.259,105.552 136.5,105.5C 145.227,103.851 145.56,104.684 137.5,108C 133.848,108.499 130.182,108.665 126.5,108.5C 126.366,106.708 126.699,105.042 127.5,103.5 Z"/></g>
<g><path style="opacity:1" fill="#305d8f" d="M 87.5,90.5 C 86.5392,93.4261 85.8726,96.4261 85.5,99.5C 80.5473,99.7464 76.8807,97.7464 74.5,93.5C 74.5872,86.0816 74.5872,78.415 74.5,70.5C 78.5164,69.8999 82.0164,70.8999 85,73.5C 85.6054,71.5188 86.6054,71.1854 88,72.5C 88.6667,75.8333 88.6667,79.1667 88,82.5C 86.7554,78.5023 85.922,78.6689 85.5,83C 85.668,85.6649 86.3347,88.1649 87.5,90.5 Z"/></g>
<g><path style="opacity:1" fill="#3b5b7c" d="M 72.5,48.5 C 73.6392,45.9963 74.3059,43.3297 74.5,40.5C 65.3948,37.0266 56.8948,38.0266 49,43.5C 47.4634,47.4432 46.13,51.4432 45,55.5C 45.01,64.9166 46.01,74.2499 48,83.5C 49.1667,84.6667 50.3333,85.8333 51.5,87C 51.0426,87.414 50.7093,87.914 50.5,88.5C 52.4445,92.6105 53.6112,96.9438 54,101.5C 55.2635,103.607 57.0968,104.607 59.5,104.5C 59.5,106.5 59.5,108.5 59.5,110.5C 60.9778,110.762 62.3112,110.429 63.5,109.5C 65.1807,106.074 67.6807,103.407 71,101.5C 71.4935,99.8659 71.6602,98.1992 71.5,96.5C 73.4459,97.2544 74.2793,98.5878 74,100.5C 70.3833,104.239 66.8833,108.072 63.5,112C 60.904,112.458 58.7373,111.625 57,109.5C 45.9937,90.1534 41.6604,69.4867 44,47.5C 48.2212,39.8057 54.7212,36.4724 63.5,37.5C 68.7848,37.1411 73.7848,38.1411 78.5,40.5C 76.4793,43.2347 74.4793,45.9014 72.5,48.5 Z"/></g>
<g><path style="opacity:1" fill="#3a5d86" d="M 121.5,63.5 C 123.833,63.5 126.167,63.5 128.5,63.5C 127.168,70.8251 127.168,78.1584 128.5,85.5C 128.679,88.1312 128.013,90.4645 126.5,92.5C 120.941,84.6564 118.107,75.9897 118,66.5C 119.145,65.3636 120.312,64.3636 121.5,63.5 Z"/></g>
<g><path style="opacity:1" fill="#3b5b7d" d="M 87.5,90.5 C 86.3347,88.1649 85.668,85.6649 85.5,83C 85.922,78.6689 86.7554,78.5023 88,82.5C 88.6667,79.1667 88.6667,75.8333 88,72.5C 86.6054,71.1854 85.6054,71.5188 85,73.5C 82.0164,70.8999 78.5164,69.8999 74.5,70.5C 74.5872,78.415 74.5872,86.0816 74.5,93.5C 74.0133,92.5266 73.5133,91.5266 73,90.5C 72.1685,82.8117 72.3352,75.145 73.5,67.5C 85.9076,61.0559 91.5743,64.8893 90.5,79C 90.6461,83.2549 89.6461,87.0882 87.5,90.5 Z"/></g>
<g><path style="opacity:1" fill="#dbf1fb" d="M 120.5,65.5 C 122.288,65.2148 123.955,65.5481 125.5,66.5C 123.737,68.9361 121.737,69.1027 119.5,67C 120.056,66.6174 120.389,66.1174 120.5,65.5 Z"/></g>
<g><path style="opacity:1" fill="#d8f2fc" d="M 81.5,66.5 C 83.9775,66.0508 85.9775,66.7175 87.5,68.5C 86.2524,70.69 84.5857,71.0234 82.5,69.5C 81.6143,68.675 81.281,67.675 81.5,66.5 Z"/></g>
<g><path style="opacity:1" fill="#385d83" d="M 126.5,49.5 C 126.435,49.0618 126.601,48.7284 127,48.5C 134.302,57.6158 136.469,67.9492 133.5,79.5C 134.833,79.5 136.167,79.5 137.5,79.5C 138.938,72.2503 140.605,65.0836 142.5,58C 142.167,55.8333 141.833,53.6667 141.5,51.5C 141.874,52.771 141.208,53.9377 139.5,55C 138.275,55.5628 137.275,55.2295 136.5,54C 137.218,51.5393 137.885,49.0393 138.5,46.5C 137.91,45.2011 136.91,44.3678 135.5,44C 137.797,42.8403 137.464,41.8403 134.5,41C 128.827,39.7032 123.16,38.5365 117.5,37.5C 117.5,38.5 117.5,39.5 117.5,40.5C 115.388,39.5604 113.388,38.3937 111.5,37C 124.522,33.4783 135.355,36.9783 144,47.5C 144.783,65.3657 140.116,81.6991 130,96.5C 130.989,86.152 131.489,75.652 131.5,65C 131.725,59.1764 130.058,54.0097 126.5,49.5 Z"/></g>
<g><path style="opacity:1" fill="#2f5f91" d="M 126.5,49.5 C 123.833,46.1667 120.833,43.1667 117.5,40.5C 117.5,39.5 117.5,38.5 117.5,37.5C 123.16,38.5365 128.827,39.7032 134.5,41C 137.464,41.8403 137.797,42.8403 135.5,44C 136.91,44.3678 137.91,45.2011 138.5,46.5C 137.885,49.0393 137.218,51.5393 136.5,54C 137.275,55.2295 138.275,55.5628 139.5,55C 141.208,53.9377 141.874,52.771 141.5,51.5C 141.833,53.6667 142.167,55.8333 142.5,58C 140.605,65.0836 138.938,72.2503 137.5,79.5C 136.167,79.5 134.833,79.5 133.5,79.5C 136.469,67.9492 134.302,57.6158 127,48.5C 126.601,48.7284 126.435,49.0618 126.5,49.5 Z"/></g>
<g><path style="opacity:1" fill="#315f8f" d="M 125.5,55.5 C 126.931,56.7804 127.598,58.4471 127.5,60.5C 117.542,59.3688 113.042,63.7021 114,73.5C 116.174,79.1779 118.34,84.8446 120.5,90.5C 122.869,94.871 122.869,99.2043 120.5,103.5C 120.709,104.086 121.043,104.586 121.5,105C 120.354,113.796 119.187,122.629 118,131.5C 117.144,134.188 115.31,135.854 112.5,136.5C 113.428,137.768 113.595,139.101 113,140.5C 110.071,138.659 107.571,136.326 105.5,133.5C 104.573,135.113 103.739,136.779 103,138.5C 101.989,137.663 100.822,137.33 99.5,137.5C 98.391,134.267 97.5576,130.934 97,127.5C 96.829,119.656 96.329,111.989 95.5,104.5C 93.6366,102.295 91.3033,100.961 88.5,100.5C 89.4105,96.0017 90.9105,91.6683 93,87.5C 94.0878,79.6403 93.4211,71.9737 91,64.5C 85.5976,60.8621 79.9309,60.5288 74,63.5C 73.0652,57.7043 74.2318,52.371 77.5,47.5C 81.9805,46.727 85.6472,44.5603 88.5,41C 95.9915,38.7174 103.325,39.0507 110.5,42C 114.003,45.4235 117.336,49.0901 120.5,53C 122.249,53.7848 123.916,54.6182 125.5,55.5 Z"/></g>
<g><path style="opacity:1" fill="#305f91" d="M 72.5,48.5 C 70.0063,57.1025 69.0063,65.9358 69.5,75C 69.6667,80.8333 69.8333,86.6667 70,92.5C 71.1882,93.5634 71.6882,94.8967 71.5,96.5C 71.6602,98.1992 71.4935,99.8659 71,101.5C 67.6807,103.407 65.1807,106.074 63.5,109.5C 62.3112,110.429 60.9778,110.762 59.5,110.5C 59.5,108.5 59.5,106.5 59.5,104.5C 57.0968,104.607 55.2635,103.607 54,101.5C 53.6112,96.9438 52.4445,92.6105 50.5,88.5C 50.7093,87.914 51.0426,87.414 51.5,87C 50.3333,85.8333 49.1667,84.6667 48,83.5C 46.01,74.2499 45.01,64.9166 45,55.5C 46.13,51.4432 47.4634,47.4432 49,43.5C 56.8948,38.0266 65.3948,37.0266 74.5,40.5C 74.3059,43.3297 73.6392,45.9963 72.5,48.5 Z"/></g>
<g><path style="opacity:1" fill="#3d5c7d" d="M 125.5,55.5 C 123.916,54.6182 122.249,53.7848 120.5,53C 117.336,49.0901 114.003,45.4235 110.5,42C 103.325,39.0507 95.9915,38.7174 88.5,41C 85.6472,44.5603 81.9805,46.727 77.5,47.5C 83.8866,37.8127 92.8866,34.646 104.5,38C 114.081,40.7492 121.081,46.5825 125.5,55.5 Z"/></g>
<g><path style="opacity:1" fill="#707376" d="M 90.5,114.5 C 90.56,113.957 90.8933,113.624 91.5,113.5C 92.4948,118.792 92.8282,124.125 92.5,129.5C 91.8333,124.5 91.1667,119.5 90.5,114.5 Z"/></g>
<g><path style="opacity:1" fill="#325981" d="M 120.5,90.5 C 122.725,93.2624 124.725,96.2624 126.5,99.5C 125.52,100.981 124.353,102.315 123,103.5C 121.521,114.148 120.187,124.815 119,135.5C 114.539,142.491 108.373,144.658 100.5,142C 97.1933,138.931 95.6933,135.098 96,130.5C 95.5002,121.84 95.3336,113.173 95.5,104.5C 96.329,111.989 96.829,119.656 97,127.5C 97.5576,130.934 98.391,134.267 99.5,137.5C 100.822,137.33 101.989,137.663 103,138.5C 103.739,136.779 104.573,135.113 105.5,133.5C 107.571,136.326 110.071,138.659 113,140.5C 113.595,139.101 113.428,137.768 112.5,136.5C 115.31,135.854 117.144,134.188 118,131.5C 119.187,122.629 120.354,113.796 121.5,105C 121.043,104.586 120.709,104.086 120.5,103.5C 122.869,99.2043 122.869,94.871 120.5,90.5 Z"/></g>
<g><path style="opacity:1" fill="#ecf4f7" d="M 160.5,168.5 C 145.11,162.256 137.61,167.256 138,183.5C 139.306,186.621 141.14,189.287 143.5,191.5C 141.339,191.174 139.506,190.174 138,188.5C 137.517,189.448 137.351,190.448 137.5,191.5C 136.5,191.5 135.5,191.5 134.5,191.5C 135.048,192.688 135.381,193.855 135.5,195C 131.944,195.685 128.611,195.185 125.5,193.5C 121.576,193.701 121.576,194.201 125.5,195C 119.313,195.577 114.98,193.077 112.5,187.5C 112.44,186.957 112.107,186.624 111.5,186.5C 108.655,190.754 105.155,191.421 101,188.5C 100.51,187.207 100.343,185.873 100.5,184.5C 104.5,184.5 108.5,184.5 112.5,184.5C 112.5,182.833 112.5,181.167 112.5,179.5C 113.028,178.279 113.695,177.113 114.5,176C 113.833,175.667 113.167,175.333 112.5,175C 112.971,168.363 116.304,164.03 122.5,162C 128.387,162.567 134.22,163.733 140,165.5C 143.085,165.043 146.085,164.377 149,163.5C 152.885,164.045 157.052,164.545 161.5,165C 160.663,166.011 160.33,167.178 160.5,168.5 Z"/></g>
<g><path style="opacity:1" fill="#171717" d="M 16.5,169.5 C 20.5138,169.334 24.5138,169.501 28.5,170C 32.2916,172.053 33.4582,175.219 32,179.5C 31.5,180 31,180.5 30.5,181C 26.5138,181.499 22.5138,181.666 18.5,181.5C 18.8204,184.898 18.487,188.232 17.5,191.5C 16.5027,184.197 16.1694,176.863 16.5,169.5 Z"/></g>
<g><path style="opacity:1" fill="#f2f2f2" d="M 18.5,171.5 C 22.1817,171.335 25.8484,171.501 29.5,172C 31.0135,174.916 30.6801,177.582 28.5,180C 25.1832,180.498 21.8499,180.665 18.5,180.5C 18.5,177.5 18.5,174.5 18.5,171.5 Z"/></g>
<g><path style="opacity:1" fill="#2f2f2f" d="M 67.5,172.5 C 69.1765,173.183 69.8432,174.517 69.5,176.5C 73.5,177.167 73.5,177.833 69.5,178.5C 69.5,182.167 69.5,185.833 69.5,189.5C 70.675,189.281 71.675,189.614 72.5,190.5C 70.9936,191.747 69.4936,191.747 68,190.5C 67.5012,186.514 67.3345,182.514 67.5,178.5C 64.2027,178.671 63.8694,178.005 66.5,176.5C 67.4287,175.311 67.762,173.978 67.5,172.5 Z"/></g>
<g><path style="opacity:1" fill="#1e1e1e" d="M 59.5,177.5 C 55.0685,176.53 52.7352,178.197 52.5,182.5C 55.5219,182.804 58.5219,183.304 61.5,184C 63.6015,185.733 63.9348,187.733 62.5,190C 59.2976,191.483 55.9643,191.817 52.5,191C 50.5794,189.759 50.246,188.259 51.5,186.5C 53.5018,190.37 56.5018,191.37 60.5,189.5C 61.8333,188.167 61.8333,186.833 60.5,185.5C 58.2241,184.787 55.8907,184.287 53.5,184C 49.9626,182.174 49.6293,179.84 52.5,177C 55.0385,176.204 57.3718,176.371 59.5,177.5 Z"/></g>
<g><path style="opacity:1" fill="#121212" d="M 59.5,177.5 C 62.0764,177.722 62.9098,179.055 62,181.5C 61.3378,180.016 60.5045,178.683 59.5,177.5 Z"/></g>
<g><path style="opacity:1" fill="#3e5772" d="M 160.5,168.5 C 165.773,175.535 165.773,182.535 160.5,189.5C 161.491,190.665 162.491,191.832 163.5,193C 163.167,193.5 162.833,194 162.5,194.5C 161.126,193.289 159.626,192.289 158,191.5C 153.155,192.801 148.322,192.801 143.5,191.5C 141.14,189.287 139.306,186.621 138,183.5C 137.61,167.256 145.11,162.256 160.5,168.5 Z"/></g>
<g><path style="opacity:1" fill="#f5f9f9" d="M 148.5,167.5 C 159.925,167.653 164.092,173.32 161,184.5C 159.878,186.624 158.378,188.457 156.5,190C 143.553,192.05 138.386,186.55 141,173.5C 142.707,170.41 145.207,168.41 148.5,167.5 Z"/></g>
<g><path style="opacity:1" fill="#171717" d="M 90.5,176.5 C 91.2216,176.918 91.7216,177.584 92,178.5C 93.5553,176.485 95.3886,176.152 97.5,177.5C 95.1851,178.234 93.3518,179.568 92,181.5C 91.6667,184.833 91.3333,188.167 91,191.5C 90.5007,186.511 90.3341,181.511 90.5,176.5 Z"/></g>
<g><path style="opacity:1" fill="#1e1e1e" d="M 77.5,176.5 C 80.3646,176.055 82.8646,176.722 85,178.5C 85.414,178.043 85.914,177.709 86.5,177.5C 87.6623,182.467 87.8289,187.467 87,192.5C 86.5348,193.931 85.7014,195.097 84.5,196C 80.9085,196.789 77.4085,196.622 74,195.5C 73.8073,191.74 74.6407,191.574 76.5,195C 82.979,197.168 85.8123,195.001 85,188.5C 76.2084,193.043 72.2084,190.376 73,180.5C 73.9066,178.391 75.4066,177.058 77.5,176.5 Z"/></g>
<g><path style="opacity:1" fill="#f3f3f3" d="M 76.5,178.5 C 81.7064,177.12 84.7064,178.953 85.5,184C 83.6611,189.776 80.1611,190.943 75,187.5C 74.068,184.177 74.568,181.177 76.5,178.5 Z"/></g>
<g><path style="opacity:1" fill="#181818" d="M 112.5,179.5 C 112.5,181.167 112.5,182.833 112.5,184.5C 108.5,184.5 104.5,184.5 100.5,184.5C 100.343,185.873 100.51,187.207 101,188.5C 105.155,191.421 108.655,190.754 111.5,186.5C 112.107,186.624 112.44,186.957 112.5,187.5C 109.091,192.013 104.924,192.68 100,189.5C 96.3486,180.598 99.1819,176.432 108.5,177C 109.984,177.662 111.317,178.496 112.5,179.5 Z"/></g>
<g><path style="opacity:1" fill="#dddddd" d="M 104.5,177.5 C 108.075,177.452 110.409,179.119 111.5,182.5C 107.5,183.833 103.5,183.833 99.5,182.5C 100.882,180.451 102.548,178.785 104.5,177.5 Z"/></g>
<g><path style="opacity:1" fill="#364e67" d="M 168.5,166.5 C 168.5,174.5 168.5,182.5 168.5,190.5C 174.271,189.887 179.604,190.554 184.5,192.5C 178.5,192.5 172.5,192.5 166.5,192.5C 165.864,183.435 166.53,174.769 168.5,166.5 Z"/></g>
<g><path style="opacity:1" fill="#202020" d="M 37.5,176.5 C 45.6559,175.821 49.1559,179.488 48,187.5C 44.2951,191.982 39.9618,192.649 35,189.5C 32.5673,184.498 33.4006,180.165 37.5,176.5 Z"/></g>
<g><path style="opacity:1" fill="#f4f4f4" d="M 37.5,178.5 C 46.4867,177.665 48.8201,181.165 44.5,189C 35.4297,190.136 33.0963,186.636 37.5,178.5 Z"/></g>
<g><path style="opacity:1" fill="#3d506b" d="M 134.5,191.5 C 129.129,192.937 123.795,192.77 118.5,191C 116.798,188.765 115.798,186.265 115.5,183.5C 116.5,183.5 117.5,183.5 118.5,183.5C 118.549,186.099 119.549,188.266 121.5,190C 125.167,190.667 128.833,190.667 132.5,190C 135.167,187.333 135.167,184.667 132.5,182C 127.721,180.806 123.055,179.306 118.5,177.5C 115.619,173.637 115.952,170.137 119.5,167C 124.042,166.254 128.542,166.421 133,167.5C 134.649,168.786 135.815,170.453 136.5,172.5C 136,172.833 135.5,173.167 135,173.5C 131.557,167.798 126.724,166.298 120.5,169C 119.167,171.333 119.167,173.667 120.5,176C 125.907,177.339 131.073,179.172 136,181.5C 136.963,185.149 136.463,188.482 134.5,191.5 Z"/></g>
<g><path style="opacity:1" fill="#bdcfe4" d="M 168.5,166.5 C 169.492,173.982 169.825,181.648 169.5,189.5C 174.833,189.5 180.167,189.5 185.5,189.5C 185.737,190.791 185.404,191.791 184.5,192.5C 179.604,190.554 174.271,189.887 168.5,190.5C 168.5,182.5 168.5,174.5 168.5,166.5 Z"/></g>
</svg>
