<svg width="82" height="79" viewBox="0 0 82 79" fill="none" xmlns="http://www.w3.org/2000/svg">
<path d="M57.6064 31.3291L42.3399 22.5647C41.9477 22.3392 41.5002 22.2205 41.0444 22.2209C40.5886 22.2214 40.1414 22.341 39.7497 22.5671L24.4832 31.3316C24.1026 31.5494 23.7871 31.8598 23.568 32.2322C23.3489 32.6046 23.2337 33.026 23.2339 33.4548V50.4898C23.2339 51.3638 23.7097 52.1711 24.4832 52.613L39.7497 61.3775C40.1409 61.6053 40.5885 61.7257 41.0448 61.7257C41.501 61.7257 41.9487 61.6053 42.3399 61.3775L57.6064 52.613C57.987 52.3952 58.3025 52.0848 58.5216 51.7124C58.7407 51.34 58.8559 50.9186 58.8557 50.4898V33.4548C58.8558 33.0257 58.7406 32.6039 58.5215 32.2312C58.3025 31.8584 57.987 31.5475 57.6064 31.3291ZM53.7669 49.0826L41.0448 56.3855L28.3227 49.0826V34.862L41.0448 27.5591L53.7669 34.862V49.0826Z" fill="#2190CC"/>
<path d="M15.6005 49.8334V27.3323L31.3759 18.2864L28.7882 14.035L11.761 23.7994C11.3803 24.0178 11.0649 24.3287 10.8458 24.7014C10.6267 25.0742 10.5116 25.4959 10.5117 25.925V49.8334C9.0277 50.3409 7.74194 51.2816 6.83083 52.5264C5.91971 53.7711 5.42789 55.2589 5.42285 56.7857C5.42285 60.8692 8.84763 64.1922 13.0561 64.1922C17.2646 64.1922 20.6893 60.8692 20.6893 56.7857C20.6843 55.2589 20.1925 53.7711 19.2814 52.5264C18.3702 51.2816 17.0845 50.3409 15.6005 49.8334ZM13.0561 59.2545C12.401 59.2261 11.7824 58.9536 11.3291 58.4937C10.8759 58.0338 10.623 57.422 10.623 56.7857C10.623 56.1494 10.8759 55.5376 11.3291 55.0777C11.7824 54.6178 12.401 54.3453 13.0561 54.3168C13.7112 54.3453 14.3298 54.6178 14.783 55.0777C15.2363 55.5376 15.4892 56.1494 15.4892 56.7857C15.4892 57.422 15.2363 58.0338 14.783 58.4937C14.3298 58.9536 13.7112 59.2261 13.0561 59.2545ZM69.0332 49.3791C64.8247 49.3791 61.4 52.7022 61.4 56.7857C61.4 57.6572 61.5832 58.4818 61.8707 59.2595L41.0446 71.1988L24.7502 61.8567L22.1626 66.1081L39.7495 76.1908C40.1412 76.417 40.5885 76.5366 41.0443 76.537C41.5001 76.5375 41.9476 76.4187 42.3398 76.1933L65.1377 63.1208C66.2827 63.7849 67.6058 64.1922 69.0332 64.1922C73.2417 64.1922 76.6664 60.8692 76.6664 56.7857C76.6664 52.7022 73.2417 49.3791 69.0332 49.3791ZM69.0332 59.2545C68.3781 59.2261 67.7595 58.9536 67.3062 58.4937C66.853 58.0338 66.6001 57.422 66.6001 56.7857C66.6001 56.1494 66.853 55.5376 67.3062 55.0777C67.7595 54.6178 68.3781 54.3453 69.0332 54.3168C69.6883 54.3453 70.3069 54.6178 70.7602 55.0777C71.2134 55.5376 71.4663 56.1494 71.4663 56.7857C71.4663 57.422 71.2134 58.0338 70.7602 58.4937C70.3069 58.9536 69.6883 59.2261 69.0332 59.2545ZM41.0446 17.2841C42.9046 17.2841 44.5865 16.6101 45.9121 15.5361L66.4888 27.3347V44.4414H71.5776V25.925C71.5777 25.4959 71.4626 25.0742 71.2435 24.7014C71.0244 24.3287 70.709 24.0178 70.3283 23.7994L48.5303 11.302C48.6219 10.8404 48.6779 10.3663 48.6779 9.8775C48.6779 5.79402 45.2531 2.47095 41.0446 2.47095C36.8362 2.47095 33.4114 5.79402 33.4114 9.8775C33.4114 13.961 36.8362 17.2841 41.0446 17.2841ZM41.0446 7.40865C41.5486 7.40816 42.0414 7.55275 42.4606 7.82411C42.8799 8.09548 43.2067 8.48142 43.3998 8.9331C43.5929 9.38477 43.6435 9.88188 43.5453 10.3615C43.4471 10.8411 43.2045 11.2817 42.8482 11.6275C42.4918 11.9732 42.0378 12.2086 41.5435 12.3039C41.0492 12.3992 40.5368 12.3501 40.0713 12.1627C39.6058 11.9753 39.2081 11.6582 38.9284 11.2514C38.6487 10.8446 38.4997 10.3665 38.5002 9.8775C38.5002 8.5147 39.6427 7.40865 41.0446 7.40865Z" fill="#2190CC"/>
</svg>
