<svg width="108" height="108" viewBox="0 0 108 108" fill="none" xmlns="http://www.w3.org/2000/svg">
<g clip-path="url(#clip0_645_3256)">
<path d="M54.1758 35.9082C59.0933 35.9082 63.0924 31.9091 63.0924 26.9915C63.0924 22.074 59.0933 18.0749 54.1758 18.0749C49.2582 18.0749 45.2591 22.074 45.2591 26.9915C45.2591 31.9091 49.2582 35.9082 54.1758 35.9082ZM54.1758 22.5332C56.6368 22.5332 58.6341 24.5305 58.6341 26.9915C58.6341 29.4525 56.6368 31.4499 54.1758 31.4499C51.7148 31.4499 49.7174 29.4525 49.7174 26.9915C49.7174 24.5305 51.7148 22.5332 54.1758 22.5332ZM89.8425 84.9499C95.9905 84.9499 100.988 79.9521 100.988 73.804C100.988 67.656 95.9905 62.6582 89.8425 62.6582C83.6944 62.6582 78.6966 67.656 78.6966 73.804C78.6966 79.9521 83.6944 84.9499 89.8425 84.9499ZM89.8425 67.1165C93.5295 67.1165 96.53 70.117 96.53 73.804C96.53 77.4911 93.5295 80.4915 89.8425 80.4915C86.1554 80.4915 83.155 77.4911 83.155 73.804C83.155 70.117 86.1554 67.1165 89.8425 67.1165ZM7.36328 73.804C7.36328 79.9521 12.3611 84.9499 18.5091 84.9499C24.6572 84.9499 29.6549 79.9521 29.6549 73.804C29.6549 67.656 24.6572 62.6582 18.5091 62.6582C12.3611 62.6582 7.36328 67.656 7.36328 73.804ZM25.1966 73.804C25.1966 77.4911 22.1962 80.4915 18.5091 80.4915C14.8221 80.4915 11.8216 77.4911 11.8216 73.804C11.8216 70.117 14.8221 67.1165 18.5091 67.1165C22.1962 67.1165 25.1966 70.117 25.1966 73.804ZM107.48 104.674C107.667 105.891 106.659 107.054 105.447 107.242C104.368 107.242 103.244 106.452 103.075 105.351C102.072 98.8019 95.9058 93.8665 88.7279 93.8665C81.5499 93.8665 75.3841 98.8019 74.381 105.351C74.216 106.439 73.0791 107.215 72.0091 107.242C70.9391 107.242 69.8112 106.466 69.6328 105.373C68.5584 98.8108 61.9155 93.8665 54.1758 93.8665C46.4361 93.8665 39.7932 98.8108 38.7187 105.373C38.5404 106.457 37.3812 107.233 36.3424 107.242C35.2635 107.242 34.14 106.452 33.9706 105.351C32.9675 98.8019 26.8016 93.8665 19.6237 93.8665C12.4458 93.8665 6.27991 98.8019 5.27678 105.351C5.08953 106.568 3.97495 107.398 2.73553 107.215C1.52286 107.028 0.684698 105.891 0.871948 104.674C2.20499 95.9709 10.2657 89.4082 19.6237 89.4082C26.815 89.4082 33.2127 93.3048 36.4049 99.0516C39.7887 93.3048 46.561 89.4082 54.1758 89.4082C61.7906 89.4082 68.5628 93.3048 71.9467 99.0516C75.1389 93.3048 81.5366 89.4082 88.7279 89.4082C98.0859 89.4082 106.147 95.9709 107.48 104.674ZM107.676 42.5957V55.9707C107.676 57.2012 106.677 58.1999 105.447 58.1999C104.216 58.1999 103.217 57.2012 103.217 55.9707V42.5957C103.217 36.4476 98.2197 31.4499 92.0716 31.4499H87.6133C86.3828 31.4499 85.3841 30.4512 85.3841 29.2207C85.3841 27.9902 86.3828 26.9915 87.6133 26.9915H92.0716C100.676 26.9915 107.676 33.9911 107.676 42.5957ZM30.4084 35.4757C29.9581 37.21 30.2122 39.0067 31.1128 40.5449C32.0179 42.0874 33.4668 43.1842 35.1967 43.63C36.931 44.0937 38.7277 43.8306 40.2747 42.9211L41.2689 42.3371C43.0834 43.8529 45.1967 45.0389 47.4927 45.8414V47.0496C47.4927 50.7366 50.4932 53.7371 54.1802 53.7371C57.8673 53.7371 60.8677 50.7366 60.8677 47.0496V45.8414C63.1638 45.0389 65.2726 43.8529 67.0916 42.3371L68.0858 42.9211C69.6328 43.8306 71.4295 44.0937 73.1638 43.63C74.8937 43.1797 76.3426 42.083 77.2432 40.5493C78.1482 39.0067 78.4024 37.21 77.9521 35.4757C77.5018 33.7459 76.405 32.2969 74.8669 31.3874L73.8326 30.7766C74.1134 29.4436 74.2517 28.2131 74.2517 26.9871C74.2517 25.761 74.1179 24.5305 73.8281 23.193L74.8669 22.5822C76.4095 21.6772 77.5062 20.2282 77.9521 18.4984C78.4024 16.7641 78.1482 14.9674 77.2477 13.4293C76.3426 11.8867 74.8937 10.7899 73.1638 10.3441C71.4295 9.88489 69.6328 10.1435 68.0858 11.053L67.0916 11.637C65.277 10.1212 63.1638 8.93527 60.8677 8.13277V6.92456C60.8677 3.23752 57.8673 0.237061 54.1802 0.237061C50.4932 0.237061 47.4927 3.23752 47.4927 6.92456V8.13277C45.1967 8.93527 43.0879 10.1212 41.2689 11.637L40.2747 11.053C38.7277 10.1435 36.931 9.88489 35.1967 10.3441C33.4668 10.7944 32.0179 11.8911 31.1173 13.4248C30.2122 14.9674 29.9581 16.7641 30.4084 18.4984C30.8587 20.2282 31.9555 21.6772 33.4891 22.5778L34.5324 23.193C34.247 24.5305 34.1088 25.761 34.1088 26.9871C34.1088 28.2131 34.2426 29.4436 34.5279 30.7766L33.4891 31.3919C31.951 32.2969 30.8542 33.7459 30.4084 35.4757ZM39.2404 31.2492C38.7812 29.6398 38.5716 28.2844 38.5716 26.9915C38.5716 25.6986 38.7856 24.3433 39.2404 22.7338C39.5168 21.7574 39.1066 20.7186 38.2283 20.2059L35.745 18.7436C35.2323 18.4449 34.8667 17.9589 34.7196 17.3838C34.5725 16.8087 34.6527 16.2068 34.9604 15.6941C35.2591 15.1814 35.7406 14.8158 36.3202 14.6687C36.8997 14.5171 37.4972 14.6018 38.0099 14.905L40.4174 16.3227C41.2957 16.8399 42.4147 16.7017 43.1236 15.9794C45.0451 14.0534 47.5106 12.6669 50.2747 11.9536C51.26 11.695 51.9466 10.8078 51.9466 9.79573V6.93348C51.9466 5.70744 52.9497 4.70431 54.1758 4.70431C55.4018 4.70431 56.4049 5.70744 56.4049 6.93348V9.79573C56.4049 10.8122 57.0915 11.6994 58.0768 11.9536C60.8365 12.6669 63.3064 14.0579 65.228 15.9794C65.9413 16.6972 67.0559 16.8354 67.9342 16.3227L70.3417 14.905C70.85 14.6063 71.4518 14.5216 72.0314 14.6687C72.611 14.8158 73.088 15.1814 73.3957 15.6986C73.6944 16.2068 73.7791 16.8087 73.632 17.3838C73.4848 17.9589 73.1192 18.4404 72.6021 18.7481L70.1232 20.2059C69.2494 20.7186 68.8348 21.7619 69.1112 22.7338C69.5704 24.3433 69.78 25.6986 69.78 26.9915C69.78 28.2844 69.5659 29.6398 69.1112 31.2492C68.8348 32.2256 69.2494 33.2644 70.1277 33.7816L72.6021 35.2305C73.1192 35.5337 73.4848 36.0196 73.632 36.5992C73.7791 37.1744 73.6988 37.7762 73.3912 38.2889C73.0925 38.8016 72.611 39.1672 72.0314 39.3144C71.4429 39.4615 70.8544 39.3812 70.3417 39.0781L67.9342 37.6603C67.0604 37.1476 65.9458 37.2858 65.228 38.0036C63.3064 39.9296 60.841 41.3161 58.0768 42.0295C57.0915 42.2881 56.4049 43.1753 56.4049 44.1873V47.0496C56.4049 48.2756 55.4018 49.2787 54.1758 49.2787C52.9497 49.2787 51.9466 48.2756 51.9466 47.0496V44.1873C51.9466 43.1708 51.26 42.2836 50.2747 42.0295C47.515 41.3161 45.0451 39.9251 43.1236 38.0036C42.6956 37.5711 42.1204 37.3527 41.5453 37.3527C41.1574 37.3527 40.7651 37.4508 40.4129 37.6603L38.0054 39.0781C37.5016 39.3768 36.9042 39.4659 36.3157 39.3144C35.7361 39.1672 35.2591 38.8016 34.9515 38.2845C34.6527 37.7762 34.568 37.1744 34.7152 36.5992C34.8623 36.0196 35.2279 35.5381 35.7406 35.235L38.2194 33.7816C39.0932 33.2644 39.5168 32.2211 39.2404 31.2492ZM0.675781 55.9707V42.5957C0.675781 33.9911 7.67536 26.9915 16.2799 26.9915H20.7383C21.9688 26.9915 22.9674 27.9902 22.9674 29.2207C22.9674 30.4512 21.9688 31.4499 20.7383 31.4499H16.2799C10.1319 31.4499 5.13411 36.4476 5.13411 42.5957V55.9707C5.13411 57.2012 4.13545 58.1999 2.90495 58.1999C1.67445 58.1999 0.675781 57.2012 0.675781 55.9707ZM43.0299 73.804C43.0299 79.9521 48.0277 84.9499 54.1758 84.9499C60.3238 84.9499 65.3216 79.9521 65.3216 73.804C65.3216 67.656 60.3238 62.6582 54.1758 62.6582C48.0277 62.6582 43.0299 67.656 43.0299 73.804ZM60.8633 73.804C60.8633 77.4911 57.8628 80.4915 54.1758 80.4915C50.4887 80.4915 47.4883 77.4911 47.4883 73.804C47.4883 70.117 50.4887 67.1165 54.1758 67.1165C57.8628 67.1165 60.8633 70.117 60.8633 73.804Z" fill="black"/>
</g>
<defs>
<clipPath id="clip0_645_3256">
<rect width="107" height="107" fill="white" transform="translate(0.675781 0.245605)"/>
</clipPath>
</defs>
</svg>
