<?xml version="1.0" encoding="UTF-8"?>
<!DOCTYPE svg PUBLIC "-//W3C//DTD SVG 1.1//EN" "http://www.w3.org/Graphics/SVG/1.1/DTD/svg11.dtd">
<svg xmlns="http://www.w3.org/2000/svg" version="1.1" width="220px" height="220px" style="shape-rendering:geometricPrecision; text-rendering:geometricPrecision; image-rendering:optimizeQuality; fill-rule:evenodd; clip-rule:evenodd" xmlns:xlink="http://www.w3.org/1999/xlink">
<g><path style="opacity:1" fill="#fbfbfb" d="M -0.5,-0.5 C 32.1667,-0.5 64.8333,-0.5 97.5,-0.5C 91.4392,2.02849 85.4392,4.86183 79.5,8C 76.3343,10.0001 73.6676,12.5001 71.5,15.5C 70.8333,15.5 70.5,15.8333 70.5,16.5C 65.9295,20.6312 62.5961,25.6312 60.5,31.5C 60.5,31.8333 60.5,32.1667 60.5,32.5C 58.2817,35.7193 57.115,39.386 57,43.5C 56.3333,48.8333 56.3333,54.1667 57,59.5C 57.21,61.0581 57.71,62.3915 58.5,63.5C 58.8333,66.1667 59.1667,68.8333 59.5,71.5C 59.5,74.5 59.5,77.5 59.5,80.5C 60.5,80.5 61.5,80.5 62.5,80.5C 62.5,82.1667 62.5,83.8333 62.5,85.5C 63.8333,85.5 65.1667,85.5 66.5,85.5C 67.5165,89.3559 69.8499,92.1892 73.5,94C 72.1667,94.6667 72.1667,95.3333 73.5,96C 75.1667,96.3333 76.8333,96.6667 78.5,97C 83.2533,101.543 88.92,104.209 95.5,105C 102.643,106.623 109.81,106.79 117,105.5C 124.099,104.186 130.932,102.186 137.5,99.5C 137.5,98.5 137.5,97.5 137.5,96.5C 143.89,91.4434 149.223,85.4434 153.5,78.5C 154.5,78.5 155.5,78.5 156.5,78.5C 155.887,75.0306 157.221,73.0306 160.5,72.5C 160.5,69.8333 160.5,67.1667 160.5,64.5C 162.948,64.9153 164.281,63.9153 164.5,61.5C 163.802,60.1374 163.802,58.9707 164.5,58C 160.918,53.975 160.585,49.6417 163.5,45C 163.406,42.0459 162.906,41.8792 162,44.5C 160.643,37.7402 158.977,31.0736 157,24.5C 156.586,24.9574 156.086,25.2907 155.5,25.5C 151.63,22.1809 151.963,19.1809 156.5,16.5C 152.61,13.3857 151.11,14.0524 152,18.5C 150.304,16.4404 149.137,14.1071 148.5,11.5C 142.893,10.1164 138.393,7.11643 135,2.5C 131.243,1.97066 127.743,0.970665 124.5,-0.5C 156.167,-0.5 187.833,-0.5 219.5,-0.5C 219.5,72.8333 219.5,146.167 219.5,219.5C 207.5,219.5 195.5,219.5 183.5,219.5C 184.504,218.317 185.338,216.984 186,215.5C 186.667,208.5 186.667,201.5 186,194.5C 185.692,195.308 185.192,195.975 184.5,196.5C 179.551,193.317 175.718,194.317 173,199.5C 170.915,208.901 174.415,212.901 183.5,211.5C 185.52,215.698 184.187,218.031 179.5,218.5C 177.595,217.935 175.929,216.935 174.5,215.5C 174.167,215.833 173.833,216.167 173.5,216.5C 174.34,217.735 175.34,218.735 176.5,219.5C 117.5,219.5 58.5,219.5 -0.5,219.5C -0.5,146.167 -0.5,72.8333 -0.5,-0.5 Z"/></g>
<g><path style="opacity:1" fill="#d8593d" d="M 117.5,-0.5 C 118.167,-0.5 118.833,-0.5 119.5,-0.5C 124.807,1.64878 130.141,4.14878 135.5,7C 139.027,9.3622 142.027,12.1955 144.5,15.5C 141.863,14.3697 139.197,14.3697 136.5,15.5C 136.649,14.448 136.483,13.448 136,12.5C 132.255,11.2706 129.421,8.60393 127.5,4.5C 124.784,4.3215 122.117,3.8215 119.5,3C 118.177,2.18405 117.511,1.01739 117.5,-0.5 Z"/></g>
<g><path style="opacity:1" fill="#cb644b" d="M 97.5,-0.5 C 98.8333,-0.5 100.167,-0.5 101.5,-0.5C 101.489,1.01739 100.823,2.18405 99.5,3C 92.8703,3.98732 86.5369,5.98732 80.5,9C 78.578,12.6304 75.578,14.7971 71.5,15.5C 73.6676,12.5001 76.3343,10.0001 79.5,8C 85.4392,4.86183 91.4392,2.02849 97.5,-0.5 Z"/></g>
<g><path style="opacity:1" fill="#fcf3e9" d="M 119.5,-0.5 C 121.167,-0.5 122.833,-0.5 124.5,-0.5C 127.743,0.970665 131.243,1.97066 135,2.5C 138.393,7.11643 142.893,10.1164 148.5,11.5C 149.137,14.1071 150.304,16.4404 152,18.5C 151.11,14.0524 152.61,13.3857 156.5,16.5C 151.963,19.1809 151.63,22.1809 155.5,25.5C 156.086,25.2907 156.586,24.9574 157,24.5C 158.977,31.0736 160.643,37.7402 162,44.5C 162.906,41.8792 163.406,42.0459 163.5,45C 160.585,49.6417 160.918,53.975 164.5,58C 163.802,58.9707 163.802,60.1374 164.5,61.5C 164.281,63.9153 162.948,64.9153 160.5,64.5C 160.5,67.1667 160.5,69.8333 160.5,72.5C 157.221,73.0306 155.887,75.0306 156.5,78.5C 155.5,78.5 154.5,78.5 153.5,78.5C 154.73,76.7028 155.396,74.7028 155.5,72.5C 157.065,70.4907 158.065,68.1573 158.5,65.5C 161.266,55.2538 161.099,44.9204 158,34.5C 156.311,30.4401 154.144,26.7734 151.5,23.5C 150.25,21.0676 148.75,18.7343 147,16.5C 146.329,15.7476 145.496,15.4142 144.5,15.5C 142.027,12.1955 139.027,9.3622 135.5,7C 130.141,4.14878 124.807,1.64878 119.5,-0.5 Z"/></g>
<g><path style="opacity:1" fill="#ca6d5a" d="M 70.5,16.5 C 70.6495,17.552 70.4828,18.552 70,19.5C 66.3883,22.3983 64.0549,26.065 63,30.5C 62.3292,31.2524 61.4959,31.5858 60.5,31.5C 62.5961,25.6312 65.9295,20.6312 70.5,16.5 Z"/></g>
<g><path style="opacity:1" fill="#e6502b" d="M 101.5,-0.5 C 106.833,-0.5 112.167,-0.5 117.5,-0.5C 117.511,1.01739 118.177,2.18405 119.5,3C 122.117,3.8215 124.784,4.3215 127.5,4.5C 129.421,8.60393 132.255,11.2706 136,12.5C 136.483,13.448 136.649,14.448 136.5,15.5C 139.197,14.3697 141.863,14.3697 144.5,15.5C 145.496,15.4142 146.329,15.7476 147,16.5C 148.75,18.7343 150.25,21.0676 151.5,23.5C 153.352,29.9054 155.519,36.2387 158,42.5C 158.5,50.1594 158.666,57.8261 158.5,65.5C 158.065,68.1573 157.065,70.4907 155.5,72.5C 152.208,77.4591 148.541,82.1258 144.5,86.5C 143.707,86.0688 142.873,85.7355 142,85.5C 139.536,86.1608 137.036,86.6608 134.5,87C 135.025,87.6924 135.692,88.1924 136.5,88.5C 138.409,87.6518 140.409,87.3184 142.5,87.5C 142.719,88.675 142.386,89.675 141.5,90.5C 128.924,99.9043 114.591,104.238 98.5,103.5C 97.209,103.737 96.209,103.404 95.5,102.5C 91.5382,100.679 87.5382,98.512 83.5,96C 82.2068,95.51 80.8734,95.3433 79.5,95.5C 78.8611,93.2396 77.6945,91.2396 76,89.5C 71.9542,86.2791 68.1209,82.9457 64.5,79.5C 63.6618,79.1583 63.3284,78.4916 63.5,77.5C 63.6602,75.8008 63.4935,74.1341 63,72.5C 61.5169,69.3092 60.0169,66.3092 58.5,63.5C 58.0316,53.0539 58.6982,42.7205 60.5,32.5C 60.5,32.1667 60.5,31.8333 60.5,31.5C 61.4959,31.5858 62.3292,31.2524 63,30.5C 64.0549,26.065 66.3883,22.3983 70,19.5C 70.4828,18.552 70.6495,17.552 70.5,16.5C 70.5,15.8333 70.8333,15.5 71.5,15.5C 75.578,14.7971 78.578,12.6304 80.5,9C 86.5369,5.98732 92.8703,3.98732 99.5,3C 100.823,2.18405 101.489,1.01739 101.5,-0.5 Z"/></g>
<g><path style="opacity:1" fill="#fbf8f5" d="M 109.5,14.5 C 109.229,16.3797 109.896,17.713 111.5,18.5C 112.742,22.7429 113.742,27.0762 114.5,31.5C 115.668,25.9799 117.334,20.6466 119.5,15.5C 120.396,14.4937 121.062,14.4937 121.5,15.5C 121.336,18.1873 121.503,20.854 122,23.5C 125.561,29.8526 127.728,36.6859 128.5,44C 128.26,48.5516 126.927,52.7183 124.5,56.5C 125,56.8333 125.5,57.1667 126,57.5C 130.373,55.9742 134.873,55.3076 139.5,55.5C 138.815,59.8696 136.815,63.5362 133.5,66.5C 116.833,67.8333 100.167,67.8333 83.5,66.5C 81.3583,64.3817 79.6917,62.0484 78.5,59.5C 78.4606,58.4168 78.1272,57.4168 77.5,56.5C 78.1667,56.1667 78.8333,55.8333 79.5,55.5C 83.4771,56.5536 87.4771,57.0536 91.5,57C 90.2401,54.6987 88.9067,52.5321 87.5,50.5C 86.828,43.8309 87.828,37.4975 90.5,31.5C 92.2927,29.5739 93.2927,27.2406 93.5,24.5C 94.9587,24.4326 96.2921,24.7659 97.5,25.5C 99.0165,32.8156 100.35,32.1489 101.5,23.5C 101.5,22.5 101.5,21.5 101.5,20.5C 101.701,15.5543 103.367,11.0543 106.5,7C 107.167,6.33333 107.833,6.33333 108.5,7C 107.309,9.72591 107.642,12.2259 109.5,14.5 Z"/></g>
<g><path style="opacity:1" fill="#b1543b" d="M 97.5,23.5 C 98.1515,24.0906 98.8182,24.7573 99.5,25.5C 100.182,24.7573 100.849,24.0906 101.5,23.5C 100.35,32.1489 99.0165,32.8156 97.5,25.5C 97.5,24.8333 97.5,24.1667 97.5,23.5 Z"/></g>
<g><path style="opacity:1" fill="#c45340" d="M 119.5,15.5 C 117.334,20.6466 115.668,25.9799 114.5,31.5C 113.742,27.0762 112.742,22.7429 111.5,18.5C 112.474,19.635 113.641,20.635 115,21.5C 116.242,19.1407 117.742,17.1407 119.5,15.5 Z"/></g>
<g><path style="opacity:1" fill="#fcd6c1" d="M 97.5,23.5 C 97.5,24.1667 97.5,24.8333 97.5,25.5C 96.2921,24.7659 94.9587,24.4326 93.5,24.5C 93.2927,27.2406 92.2927,29.5739 90.5,31.5C 91.6616,26.8857 92.6616,22.219 93.5,17.5C 94.8567,19.5654 96.19,21.5654 97.5,23.5 Z"/></g>
<g><path style="opacity:1" fill="#bf583f" d="M 109.5,14.5 C 107.642,12.2259 107.309,9.72591 108.5,7C 107.833,6.33333 107.167,6.33333 106.5,7C 103.367,11.0543 101.701,15.5543 101.5,20.5C 101.334,16.1539 101.501,11.8206 102,7.5C 104.228,5.88664 106.728,5.21997 109.5,5.5C 109.5,8.5 109.5,11.5 109.5,14.5 Z"/></g>
<g><path style="opacity:1" fill="#cb6048" d="M 121.5,15.5 C 124.44,23.342 127.273,31.342 130,39.5C 130.904,44.7314 130.404,49.7314 128.5,54.5C 143.85,52.6302 145.683,57.2968 134,68.5C 133.517,69.448 133.351,70.448 133.5,71.5C 131.5,71.5 129.5,71.5 127.5,71.5C 127.611,70.8826 127.944,70.3826 128.5,70C 123,69.8333 117.5,69.6667 112,69.5C 106.124,69.5048 100.624,70.1714 95.5,71.5C 91.6286,71.185 87.9619,71.5184 84.5,72.5C 83.5233,75.2869 83.19,78.2869 83.5,81.5C 81.7071,76.3253 80.8738,70.992 81,65.5C 79.3007,63.3039 77.4673,61.3039 75.5,59.5C 76.5,59.5 77.5,59.5 78.5,59.5C 79.6917,62.0484 81.3583,64.3817 83.5,66.5C 100.167,67.8333 116.833,67.8333 133.5,66.5C 136.815,63.5362 138.815,59.8696 139.5,55.5C 134.873,55.3076 130.373,55.9742 126,57.5C 125.5,57.1667 125,56.8333 124.5,56.5C 126.927,52.7183 128.26,48.5516 128.5,44C 127.728,36.6859 125.561,29.8526 122,23.5C 121.503,20.854 121.336,18.1873 121.5,15.5 Z"/></g>
<g><path style="opacity:1" fill="#c95d42" d="M 151.5,23.5 C 154.144,26.7734 156.311,30.4401 158,34.5C 161.099,44.9204 161.266,55.2538 158.5,65.5C 158.666,57.8261 158.5,50.1594 158,42.5C 155.519,36.2387 153.352,29.9054 151.5,23.5 Z"/></g>
<g><path style="opacity:1" fill="#c8634c" d="M 60.5,32.5 C 58.6982,42.7205 58.0316,53.0539 58.5,63.5C 57.71,62.3915 57.21,61.0581 57,59.5C 56.3333,54.1667 56.3333,48.8333 57,43.5C 57.115,39.386 58.2817,35.7193 60.5,32.5 Z"/></g>
<g><path style="opacity:1" fill="#cc5636" d="M 97.5,23.5 C 96.19,21.5654 94.8567,19.5654 93.5,17.5C 92.6616,22.219 91.6616,26.8857 90.5,31.5C 87.828,37.4975 86.828,43.8309 87.5,50.5C 87.5,52.1667 87.5,53.8333 87.5,55.5C 85.901,55.7678 84.5676,55.4345 83.5,54.5C 84.5,54.5 85.5,54.5 86.5,54.5C 86.4139,52.323 85.7472,50.323 84.5,48.5C 85.617,47.0506 86.2837,45.3839 86.5,43.5C 86.1153,39.2429 85.4486,35.0763 84.5,31C 85.7932,30.51 87.1266,30.3433 88.5,30.5C 89.8737,25.6821 91.207,20.8487 92.5,16C 93.9961,15.4926 95.1627,15.9926 96,17.5C 96.813,19.4357 97.313,21.4357 97.5,23.5 Z"/></g>
<g><path style="opacity:1" fill="#bf6548" d="M 87.5,50.5 C 88.9067,52.5321 90.2401,54.6987 91.5,57C 87.4771,57.0536 83.4771,56.5536 79.5,55.5C 78.8333,55.8333 78.1667,56.1667 77.5,56.5C 78.1272,57.4168 78.4606,58.4168 78.5,59.5C 77.5,59.5 76.5,59.5 75.5,59.5C 75.8333,57.5 76.1667,55.5 76.5,53.5C 78.9029,53.448 81.2362,53.7814 83.5,54.5C 84.5676,55.4345 85.901,55.7678 87.5,55.5C 87.5,53.8333 87.5,52.1667 87.5,50.5 Z"/></g>
<g><path style="opacity:1" fill="#c0604c" d="M 58.5,63.5 C 60.0169,66.3092 61.5169,69.3092 63,72.5C 63.4935,74.1341 63.6602,75.8008 63.5,77.5C 62.1667,75.5 60.8333,73.5 59.5,71.5C 59.1667,68.8333 58.8333,66.1667 58.5,63.5 Z"/></g>
<g><path style="opacity:1" fill="#d54d21" d="M 127.5,71.5 C 116.833,71.5 106.167,71.5 95.5,71.5C 100.624,70.1714 106.124,69.5048 112,69.5C 117.5,69.6667 123,69.8333 128.5,70C 127.944,70.3826 127.611,70.8826 127.5,71.5 Z"/></g>
<g><path style="opacity:1" fill="#ba6047" d="M 84.5,72.5 C 87.9619,71.5184 91.6286,71.185 95.5,71.5C 106.167,71.5 116.833,71.5 127.5,71.5C 129.5,71.5 131.5,71.5 133.5,71.5C 133.833,71.5 134.167,71.5 134.5,71.5C 134.806,74.3854 134.473,77.0521 133.5,79.5C 133.802,76.9407 133.468,74.6074 132.5,72.5C 116.5,72.5 100.5,72.5 84.5,72.5 Z"/></g>
<g><path style="opacity:1" fill="#f7cab8" d="M 84.5,72.5 C 84.5,75.1667 84.5,77.8333 84.5,80.5C 100.5,80.5 116.5,80.5 132.5,80.5C 132.5,77.8333 132.5,75.1667 132.5,72.5C 133.468,74.6074 133.802,76.9407 133.5,79.5C 117.2,81.4854 100.534,82.1521 83.5,81.5C 83.19,78.2869 83.5233,75.2869 84.5,72.5 Z"/></g>
<g><path style="opacity:1" fill="#fdf8f6" d="M 84.5,72.5 C 100.5,72.5 116.5,72.5 132.5,72.5C 132.5,75.1667 132.5,77.8333 132.5,80.5C 116.5,80.5 100.5,80.5 84.5,80.5C 84.5,77.8333 84.5,75.1667 84.5,72.5 Z"/></g>
<g><path style="opacity:1" fill="#cd563a" d="M 134.5,71.5 C 136.026,72.4919 136.693,73.9919 136.5,76C 136.518,78.3894 135.851,80.556 134.5,82.5C 131.202,83.6226 127.869,83.6226 124.5,82.5C 120.93,82.755 120.597,83.755 123.5,85.5C 113.833,85.5 104.167,85.5 94.5,85.5C 94.4755,89.4362 95.8088,92.7695 98.5,95.5C 95.5894,93.7614 93.0894,91.428 91,88.5C 90.4604,86.8654 90.9604,85.5321 92.5,84.5C 89.0609,84.0935 86.0609,83.0935 83.5,81.5C 100.534,82.1521 117.2,81.4854 133.5,79.5C 134.473,77.0521 134.806,74.3854 134.5,71.5 Z"/></g>
<g><path style="opacity:1" fill="#ce6041" d="M 155.5,72.5 C 155.396,74.7028 154.73,76.7028 153.5,78.5C 149.223,85.4434 143.89,91.4434 137.5,96.5C 131.123,99.6941 124.456,102.194 117.5,104C 110.986,104.82 104.653,104.653 98.5,103.5C 114.591,104.238 128.924,99.9043 141.5,90.5C 142.386,89.675 142.719,88.675 142.5,87.5C 140.409,87.3184 138.409,87.6518 136.5,88.5C 135.692,88.1924 135.025,87.6924 134.5,87C 137.036,86.6608 139.536,86.1608 142,85.5C 142.873,85.7355 143.707,86.0688 144.5,86.5C 148.541,82.1258 152.208,77.4591 155.5,72.5 Z"/></g>
<g><path style="opacity:1" fill="#fbf7f5" d="M 123.5,85.5 C 122.447,88.6071 121.114,91.6071 119.5,94.5C 112.667,98.0827 105.667,98.4161 98.5,95.5C 95.8088,92.7695 94.4755,89.4362 94.5,85.5C 104.167,85.5 113.833,85.5 123.5,85.5 Z"/></g>
<g><path style="opacity:1" fill="#cb664f" d="M 123.5,85.5 C 124.586,85.62 125.253,86.2867 125.5,87.5C 124.531,90.8402 122.531,93.1735 119.5,94.5C 121.114,91.6071 122.447,88.6071 123.5,85.5 Z"/></g>
<g><path style="opacity:1" fill="#c9624f" d="M 64.5,79.5 C 68.1209,82.9457 71.9542,86.2791 76,89.5C 77.6945,91.2396 78.8611,93.2396 79.5,95.5C 73.4845,91.1502 68.4845,85.8169 64.5,79.5 Z"/></g>
<g><path style="opacity:1" fill="#cb6a51" d="M 79.5,95.5 C 80.8734,95.3433 82.2068,95.51 83.5,96C 87.5382,98.512 91.5382,100.679 95.5,102.5C 89.3907,101.775 84.0573,99.4418 79.5,95.5 Z"/></g>
<g><path style="opacity:1" fill="#c36347" d="M 119.5,94.5 C 118.878,96.335 117.544,97.5017 115.5,98C 111.167,98.6667 106.833,98.6667 102.5,98C 100.934,97.3918 99.6002,96.5585 98.5,95.5C 105.667,98.4161 112.667,98.0827 119.5,94.5 Z"/></g>
<g><path style="opacity:1" fill="#fdf3e5" d="M 59.5,71.5 C 60.8333,73.5 62.1667,75.5 63.5,77.5C 63.3284,78.4916 63.6618,79.1583 64.5,79.5C 68.4845,85.8169 73.4845,91.1502 79.5,95.5C 84.0573,99.4418 89.3907,101.775 95.5,102.5C 96.209,103.404 97.209,103.737 98.5,103.5C 104.653,104.653 110.986,104.82 117.5,104C 124.456,102.194 131.123,99.6941 137.5,96.5C 137.5,97.5 137.5,98.5 137.5,99.5C 130.932,102.186 124.099,104.186 117,105.5C 109.81,106.79 102.643,106.623 95.5,105C 88.92,104.209 83.2533,101.543 78.5,97C 76.8333,96.6667 75.1667,96.3333 73.5,96C 72.1667,95.3333 72.1667,94.6667 73.5,94C 69.8499,92.1892 67.5165,89.3559 66.5,85.5C 65.1667,85.5 63.8333,85.5 62.5,85.5C 62.5,83.8333 62.5,82.1667 62.5,80.5C 61.5,80.5 60.5,80.5 59.5,80.5C 59.5,77.5 59.5,74.5 59.5,71.5 Z"/></g>
<g><path style="opacity:1" fill="#575757" d="M 39.5,121.5 C 44.6914,123.927 45.6914,127.593 42.5,132.5C 41.4231,133.705 40.0898,134.372 38.5,134.5C 36.076,134.808 33.7427,134.474 31.5,133.5C 31.8627,132.817 32.1961,132.15 32.5,131.5C 38.6624,132.844 40.6624,130.678 38.5,125C 36.5273,124.505 34.5273,124.338 32.5,124.5C 31.9366,128.947 30.77,132.614 29,135.5C 28.5008,130.845 28.3342,126.179 28.5,121.5C 32.1667,121.5 35.8333,121.5 39.5,121.5 Z"/></g>
<g><path style="opacity:1" fill="#f8f8f8" d="M 32.5,124.5 C 34.5273,124.338 36.5273,124.505 38.5,125C 40.6624,130.678 38.6624,132.844 32.5,131.5C 32.5,129.167 32.5,126.833 32.5,124.5 Z"/></g>
<g><path style="opacity:1" fill="#5d5d5f" d="M 119.5,122.5 C 121.167,122.5 122.833,122.5 124.5,122.5C 124.579,124.666 125.246,126.666 126.5,128.5C 125.488,130.552 124.821,132.719 124.5,135C 125.104,137.887 125.771,140.72 126.5,143.5C 123.632,143.915 121.465,142.915 120,140.5C 119.95,136.141 119.117,131.974 117.5,128C 118.885,126.403 119.551,124.57 119.5,122.5 Z"/></g>
<g><path style="opacity:1" fill="#565656" d="M 183.5,126.5 C 188.06,125.658 191.727,126.991 194.5,130.5C 192.164,131.712 189.997,131.379 188,129.5C 186.72,129.613 185.887,130.28 185.5,131.5C 187.916,133.267 190.583,134.767 193.5,136C 194.862,140.832 192.862,143.332 187.5,143.5C 184.303,143.066 181.97,141.4 180.5,138.5C 181.167,138.167 181.833,137.833 182.5,137.5C 184.902,139.049 187.568,139.716 190.5,139.5C 190.5,138.5 190.5,137.5 190.5,136.5C 182.138,136.962 179.804,133.629 183.5,126.5 Z"/></g>
<g><path style="opacity:1" fill="#565656" d="M 75.5,126.5 C 77.451,126.227 78.951,126.893 80,128.5C 83,125.833 86,125.833 89,128.5C 91.7065,126.114 94.5398,125.948 97.5,128C 98.4714,133.072 98.8047,138.238 98.5,143.5C 97.1667,143.5 95.8333,143.5 94.5,143.5C 94.6657,139.154 94.499,134.821 94,130.5C 92.6667,129.167 91.3333,129.167 90,130.5C 89.501,134.821 89.3343,139.154 89.5,143.5C 88.1667,143.5 86.8333,143.5 85.5,143.5C 85.6655,139.486 85.4988,135.486 85,131.5C 83.3005,130.594 81.4672,130.261 79.5,130.5C 79.5,134.833 79.5,139.167 79.5,143.5C 78.1667,143.5 76.8333,143.5 75.5,143.5C 75.5,137.833 75.5,132.167 75.5,126.5 Z"/></g>
<g><path style="opacity:1" fill="#535355" d="M 130.5,119.5 C 131.833,119.5 133.167,119.5 134.5,119.5C 134.336,122.187 134.503,124.854 135,127.5C 137.833,126.13 140.5,126.464 143,128.5C 143.499,133.489 143.666,138.489 143.5,143.5C 142.167,143.5 140.833,143.5 139.5,143.5C 139.666,139.154 139.499,134.821 139,130.5C 137.51,129.272 136.01,129.272 134.5,130.5C 133.517,134.298 133.183,138.298 133.5,142.5C 132.5,142.5 131.5,142.5 130.5,142.5C 130.5,134.833 130.5,127.167 130.5,119.5 Z"/></g>
<g><path style="opacity:1" fill="#555555" d="M 61.5,126.5 C 69.6577,125.823 73.1577,129.49 72,137.5C 68.2583,144.648 63.5917,145.315 58,139.5C 57.3333,136.5 57.3333,133.5 58,130.5C 58.6897,128.65 59.8564,127.316 61.5,126.5 Z"/></g>
<g><path style="opacity:1" fill="#e8e8e8" d="M 62.5,129.5 C 66.2947,128.959 68.2947,130.625 68.5,134.5C 67.9537,136.135 67.6204,137.801 67.5,139.5C 65.5328,139.739 63.6995,139.406 62,138.5C 61.3658,135.445 61.5325,132.445 62.5,129.5 Z"/></g>
<g><path style="opacity:1" fill="#6f6f6f" d="M 39.5,121.5 C 35.8333,121.5 32.1667,121.5 28.5,121.5C 28.3342,126.179 28.5008,130.845 29,135.5C 30.77,132.614 31.9366,128.947 32.5,124.5C 32.5,126.833 32.5,129.167 32.5,131.5C 32.1961,132.15 31.8627,132.817 31.5,133.5C 33.7427,134.474 36.076,134.808 38.5,134.5C 36.7354,135.461 34.7354,135.795 32.5,135.5C 32.5,138.167 32.5,140.833 32.5,143.5C 30.8333,143.5 29.1667,143.5 27.5,143.5C 27.5,135.833 27.5,128.167 27.5,120.5C 31.7016,120.183 35.7016,120.517 39.5,121.5 Z"/></g>
<g><path style="opacity:1" fill="#565656" d="M 105.5,126.5 C 112.67,125.339 116.003,128.339 115.5,135.5C 112.5,135.5 109.5,135.5 106.5,135.5C 106.33,136.822 106.663,137.989 107.5,139C 110.226,139.182 112.893,139.682 115.5,140.5C 107.89,145.699 103.224,143.699 101.5,134.5C 101.782,131.269 103.115,128.602 105.5,126.5 Z"/></g>
<g><path style="opacity:1" fill="#d8d8d8" d="M 107.5,129.5 C 110.5,129.167 111.833,130.5 111.5,133.5C 109.833,133.5 108.167,133.5 106.5,133.5C 106.433,132.041 106.766,130.708 107.5,129.5 Z"/></g>
<g><path style="opacity:1" fill="#555555" d="M 47.5,126.5 C 49.451,126.227 50.951,126.893 52,128.5C 53.1096,126.963 54.6096,126.297 56.5,126.5C 56.5,127.833 56.5,129.167 56.5,130.5C 54.8561,130.286 53.3561,130.62 52,131.5C 51.5012,135.486 51.3345,139.486 51.5,143.5C 50.1667,143.5 48.8333,143.5 47.5,143.5C 47.5,137.833 47.5,132.167 47.5,126.5 Z"/></g>
<g><path style="opacity:1" fill="#595959" d="M 150.5,126.5 C 157.633,125.387 160.966,128.387 160.5,135.5C 157.102,135.18 153.768,135.513 150.5,136.5C 152.494,139.568 155.161,140.235 158.5,138.5C 160.003,139.59 160.336,140.757 159.5,142C 149.375,144.879 145.208,141.046 147,130.5C 147.69,128.65 148.856,127.316 150.5,126.5 Z"/></g>
<g><path style="opacity:1" fill="#ededed" d="M 152.5,129.5 C 154.346,129.222 155.68,129.889 156.5,131.5C 154.833,132.833 153.167,132.833 151.5,131.5C 151.863,130.817 152.196,130.15 152.5,129.5 Z"/></g>
<g><path style="opacity:1" fill="#565656" d="M 163.5,126.5 C 164.833,126.5 166.167,126.5 167.5,126.5C 167.334,130.514 167.501,134.514 168,138.5C 169.667,139.833 171.333,139.833 173,138.5C 173.499,134.514 173.666,130.514 173.5,126.5C 174.833,126.5 176.167,126.5 177.5,126.5C 177.5,132.167 177.5,137.833 177.5,143.5C 175.549,143.773 174.049,143.107 173,141.5C 169.626,144.405 166.626,144.072 164,140.5C 163.501,135.845 163.334,131.179 163.5,126.5 Z"/></g>
<g><path style="opacity:1" fill="#7b7b7d" d="M 130.5,119.5 C 130.5,127.167 130.5,134.833 130.5,142.5C 131.5,142.5 132.5,142.5 133.5,142.5C 133.183,138.298 133.517,134.298 134.5,130.5C 134.5,134.833 134.5,139.167 134.5,143.5C 132.833,143.5 131.167,143.5 129.5,143.5C 129.174,135.316 129.508,127.316 130.5,119.5 Z"/></g>
<g><path style="opacity:1" fill="#5d5d5d" d="M 99.5,188.5 C 101.337,188.639 101.67,189.306 100.5,190.5C 99.7025,190.043 99.3691,189.376 99.5,188.5 Z"/></g>
<g><path style="opacity:1" fill="#525252" d="M 147.5,188.5 C 149.337,188.639 149.67,189.306 148.5,190.5C 147.702,190.043 147.369,189.376 147.5,188.5 Z"/></g>
<g><path style="opacity:1" fill="#6c6c6c" d="M 107.5,189.5 C 109.256,190.552 109.923,192.219 109.5,194.5C 114.833,195.167 114.833,195.833 109.5,196.5C 109.334,200.846 109.501,205.179 110,209.5C 110.772,210.849 111.939,211.682 113.5,212C 110.783,213.033 108.949,212.2 108,209.5C 107.501,205.179 107.334,200.846 107.5,196.5C 103.5,195.833 103.5,195.167 107.5,194.5C 107.5,192.833 107.5,191.167 107.5,189.5 Z"/></g>
<g><path style="opacity:1" fill="#717171" d="M 154.5,194.5 C 155.931,194.881 156.764,195.881 157,197.5C 160.06,194.064 163.393,193.731 167,196.5C 168.731,201.749 168.897,207.082 167.5,212.5C 166.672,207.868 166.172,203.202 166,198.5C 162.706,195.689 159.706,196.022 157,199.5C 156.828,203.871 156.328,208.204 155.5,212.5C 154.504,206.537 154.171,200.537 154.5,194.5 Z"/></g>
<g><path style="opacity:1" fill="#666666" d="M 99.5,194.5 C 100.816,197.087 101.483,200.087 101.5,203.5C 101.167,206.5 100.833,209.5 100.5,212.5C 99.5041,206.537 99.1707,200.537 99.5,194.5 Z"/></g>
<g><path style="opacity:1" fill="#9b9b9b" d="M 36.5,190.5 C 35.8501,190.196 35.1835,189.863 34.5,189.5C 33.5025,197.138 33.1692,204.804 33.5,212.5C 32.5076,204.684 32.1743,196.684 32.5,188.5C 34.4832,188.157 35.8166,188.824 36.5,190.5 Z"/></g>
<g><path style="opacity:1" fill="#656565" d="M 80.5,194.5 C 81.9311,194.881 82.7645,195.881 83,197.5C 85.8657,194.04 89.0323,193.707 92.5,196.5C 93.6178,201.78 93.7845,207.113 93,212.5C 92.6667,207.833 92.3333,203.167 92,198.5C 88.7065,195.689 85.7065,196.022 83,199.5C 82.8275,203.871 82.3275,208.204 81.5,212.5C 80.5041,206.537 80.1707,200.537 80.5,194.5 Z"/></g>
<g><path style="opacity:1" fill="#6b6b6b" d="M 135.5,194.5 C 136.75,194.577 137.583,195.244 138,196.5C 139.692,194.755 141.525,194.422 143.5,195.5C 141.433,196.134 139.6,197.134 138,198.5C 137.828,203.202 137.328,207.868 136.5,212.5C 135.504,206.537 135.171,200.537 135.5,194.5 Z"/></g>
<g><path style="opacity:1" fill="#595959" d="M 147.5,194.5 C 148.816,197.087 149.483,200.087 149.5,203.5C 149.167,206.5 148.833,209.5 148.5,212.5C 147.504,206.537 147.171,200.537 147.5,194.5 Z"/></g>
<g><path style="opacity:1" fill="#545454" d="M 33.5,212.5 C 33.1692,204.804 33.5025,197.138 34.5,189.5C 35.1835,189.863 35.8501,190.196 36.5,190.5C 38.8955,196.849 41.3955,203.182 44,209.5C 47.9096,202.938 50.7429,195.938 52.5,188.5C 53.5,188.5 54.5,188.5 55.5,188.5C 55.6664,196.507 55.4997,204.507 55,212.5C 54.6667,205.833 54.3333,199.167 54,192.5C 50.9298,199.21 47.7631,205.876 44.5,212.5C 40.8018,205.768 37.6351,198.768 35,191.5C 34.8285,198.679 34.3285,205.679 33.5,212.5 Z"/></g>
<g><path style="opacity:1" fill="#656565" d="M 183.5,219.5 C 181.167,219.5 178.833,219.5 176.5,219.5C 175.34,218.735 174.34,217.735 173.5,216.5C 173.833,216.167 174.167,215.833 174.5,215.5C 175.929,216.935 177.595,217.935 179.5,218.5C 184.187,218.031 185.52,215.698 183.5,211.5C 174.415,212.901 170.915,208.901 173,199.5C 175.718,194.317 179.551,193.317 184.5,196.5C 185.192,195.975 185.692,195.308 186,194.5C 186.667,201.5 186.667,208.5 186,215.5C 185.338,216.984 184.504,218.317 183.5,219.5 Z"/></g>
<g><path style="opacity:1" fill="#f7f7f7" d="M 176.5,196.5 C 179.365,196.055 181.865,196.722 184,198.5C 184.667,202.167 184.667,205.833 184,209.5C 180.626,212.405 177.626,212.072 175,208.5C 174.081,204.269 174.581,200.269 176.5,196.5 Z"/></g>
<g><path style="opacity:1" fill="#686868" d="M 119.5,210.5 C 118.25,210.423 117.417,209.756 117,208.5C 116.333,205.167 116.333,201.833 117,198.5C 122.111,193.115 126.777,193.448 131,199.5C 133.162,208.661 129.662,212.827 120.5,212C 119.944,211.617 119.611,211.117 119.5,210.5 Z"/></g>
<g><path style="opacity:1" fill="#f7f7f7" d="M 119.5,210.5 C 117.343,206.558 117.177,202.558 119,198.5C 122.696,195.575 126.029,195.908 129,199.5C 131.523,208.465 128.357,212.132 119.5,210.5 Z"/></g>
<g><path style="opacity:1" fill="#686868" d="M 65.5,194.5 C 74.6876,194.878 77.8543,199.544 75,208.5C 70.3805,213.823 65.7138,213.823 61,208.5C 59.3085,202.61 60.8085,197.944 65.5,194.5 Z"/></g>
<g><path style="opacity:1" fill="#f6f6f6" d="M 65.5,196.5 C 72.607,196.675 75.4403,200.342 74,207.5C 70.728,212.403 67.0614,212.737 63,208.5C 62.3333,205.5 62.3333,202.5 63,199.5C 63.6979,198.309 64.5313,197.309 65.5,196.5 Z"/></g>
</svg>
