<svg width="48" height="42" viewBox="0 0 48 42" fill="none" xmlns="http://www.w3.org/2000/svg">
<path d="M47.0297 21.0738C47.0297 17.9956 43.1748 15.0784 37.2646 13.2693C38.6285 7.24549 38.0223 2.45292 35.3514 0.918536C34.7357 0.55862 34.0159 0.388133 33.2298 0.388133V2.50027C33.6655 2.50027 34.0159 2.58552 34.3095 2.74653C35.5976 3.48531 36.1565 6.29834 35.7208 9.91644C35.6166 10.8068 35.4461 11.7444 35.2377 12.7011C33.3813 12.2464 31.3544 11.896 29.2233 11.6687C27.9447 9.91644 26.6187 8.32523 25.2832 6.93293C28.3709 4.06307 31.2692 2.4908 33.2392 2.4908V0.378662C30.6346 0.378662 27.2248 2.23507 23.7772 5.45538C20.3296 2.25402 16.9199 0.416548 14.3152 0.416548V2.52869C16.2758 2.52869 19.1836 4.09148 22.2713 6.9424C20.9453 8.33471 19.6192 9.91644 18.3595 11.6687C16.219 11.896 14.1921 12.2464 12.3357 12.7105C12.1178 11.7634 11.9568 10.8446 11.8432 9.9638C11.398 6.34569 11.9473 3.53267 13.226 2.78442C13.5101 2.61393 13.8795 2.53816 14.3152 2.53816V0.42602C13.5196 0.42602 12.7998 0.596506 12.1747 0.956422C9.51317 2.4908 8.91647 7.2739 10.2898 13.2788C4.39857 15.0973 0.562622 18.0051 0.562622 21.0738C0.562622 24.1521 4.41751 27.0693 10.3277 28.8783C8.96383 34.9022 9.57 39.6948 12.241 41.2292C12.8566 41.5891 13.5764 41.7596 14.372 41.7596C16.9767 41.7596 20.3864 39.9031 23.8341 36.6828C27.2817 39.8842 30.6914 41.7217 33.2961 41.7217C34.0917 41.7217 34.8115 41.5512 35.4366 41.1913C38.0981 39.6569 38.6948 34.8738 37.3214 28.8689C43.1938 27.0598 47.0297 24.1426 47.0297 21.0738ZM34.6978 14.7564C34.3474 15.9782 33.9117 17.2379 33.4192 18.4976C33.0309 17.7399 32.6236 16.9822 32.1784 16.2244C31.7427 15.4667 31.2786 14.728 30.8145 14.0081C32.1595 14.207 33.4571 14.4533 34.6978 14.7564ZM30.3599 24.8435C29.6211 26.1221 28.8634 27.3345 28.0773 28.4616C26.666 28.5847 25.2358 28.651 23.7962 28.651C22.366 28.651 20.9358 28.5847 19.534 28.4711C18.7479 27.344 17.9807 26.1411 17.2419 24.8719C16.5221 23.6311 15.8685 22.3714 15.2718 21.1023C15.8591 19.8331 16.5221 18.5639 17.2324 17.3231C17.9712 16.0445 18.7289 14.8321 19.5151 13.705C20.9263 13.5819 22.3565 13.5156 23.7962 13.5156C25.2264 13.5156 26.6566 13.5819 28.0583 13.6956C28.8445 14.8227 29.6117 16.0255 30.3504 17.2947C31.0703 18.5355 31.7238 19.7952 32.3205 21.0644C31.7238 22.3336 31.0703 23.6027 30.3599 24.8435ZM33.4192 23.6122C33.9307 24.8814 34.3663 26.1506 34.7263 27.3819C33.4855 27.6849 32.1784 27.9407 30.824 28.1396C31.2881 27.4103 31.7522 26.662 32.1879 25.8948C32.6236 25.1371 33.0309 24.3699 33.4192 23.6122ZM23.8151 33.7183C22.9343 32.809 22.0534 31.7956 21.182 30.6874C22.0345 30.7253 22.9058 30.7537 23.7867 30.7537C24.677 30.7537 25.5579 30.7348 26.4198 30.6874C25.5673 31.7956 24.6865 32.809 23.8151 33.7183ZM16.7683 28.1396C15.4234 27.9407 14.1258 27.6944 12.885 27.3913C13.2355 26.1695 13.6712 24.9098 14.1637 23.6501C14.552 24.4078 14.9593 25.1655 15.4044 25.9232C15.8496 26.681 16.3042 27.4197 16.7683 28.1396ZM23.7678 8.42942C24.6486 9.33868 25.5294 10.3521 26.4008 11.4603C25.5484 11.4224 24.677 11.394 23.7962 11.394C22.9058 11.394 22.025 11.4129 21.1631 11.4603C22.0155 10.3521 22.8964 9.33868 23.7678 8.42942ZM16.7589 14.0081C16.2948 14.7374 15.8307 15.4857 15.395 16.2529C14.9593 17.0106 14.552 17.7683 14.1637 18.526C13.6522 17.2568 13.2165 15.9877 12.8566 14.7564C14.0974 14.4628 15.4044 14.207 16.7589 14.0081ZM8.18717 25.8664C4.83426 24.4362 2.66529 22.5609 2.66529 21.0738C2.66529 19.5868 4.83426 17.702 8.18717 16.2813C9.00171 15.9308 9.89203 15.6183 10.8108 15.3247C11.3506 17.1811 12.061 19.1133 12.9418 21.0928C12.0705 23.0629 11.3696 24.9856 10.8392 26.8325C9.90151 26.5389 9.01119 26.2169 8.18717 25.8664ZM13.2828 39.4012C11.9947 38.6624 11.4359 35.8494 11.8716 32.2313C11.9758 31.3409 12.1462 30.4033 12.3546 29.4466C14.211 29.9013 16.2379 30.2517 18.369 30.479C19.6477 32.2313 20.9737 33.8225 22.3091 35.2148C19.2214 38.0846 16.3232 39.6569 14.3531 39.6569C13.9269 39.6474 13.567 39.5622 13.2828 39.4012ZM35.7492 32.1839C36.1943 35.802 35.645 38.615 34.3663 39.3633C34.0822 39.5338 33.7128 39.6095 33.2771 39.6095C31.3165 39.6095 28.4088 38.0467 25.3211 35.1958C26.6471 33.8035 27.9731 32.2218 29.2328 30.4696C31.3734 30.2422 33.4003 29.8918 35.2567 29.4277C35.4745 30.3843 35.645 31.303 35.7492 32.1839ZM39.3957 25.8664C38.5812 26.2169 37.6908 26.5294 36.7721 26.823C36.2322 24.9666 35.5219 23.0344 34.641 21.0549C35.5124 19.0848 36.2133 17.1621 36.7437 15.3152C37.6814 15.6088 38.5717 15.9308 39.4052 16.2813C42.7581 17.7115 44.927 19.5868 44.927 21.0738C44.9176 22.5609 42.7486 24.4457 39.3957 25.8664Z" fill="#61DAFB"/>
</svg>
