<?xml version="1.0" encoding="UTF-8"?>
<!DOCTYPE svg PUBLIC "-//W3C//DTD SVG 1.1//EN" "http://www.w3.org/Graphics/SVG/1.1/DTD/svg11.dtd">
<svg xmlns="http://www.w3.org/2000/svg" version="1.1" width="231px" height="220px" style="shape-rendering:geometricPrecision; text-rendering:geometricPrecision; image-rendering:optimizeQuality; fill-rule:evenodd; clip-rule:evenodd" xmlns:xlink="http://www.w3.org/1999/xlink">
<g><path style="opacity:1" fill="#fcfcfc" d="M -0.5,-0.5 C 76.5,-0.5 153.5,-0.5 230.5,-0.5C 230.5,72.8333 230.5,146.167 230.5,219.5C 153.5,219.5 76.5,219.5 -0.5,219.5C -0.5,146.167 -0.5,72.8333 -0.5,-0.5 Z"/></g>
<g><path style="opacity:1" fill="#e9fbfc" d="M 159.5,13.5 C 154.575,10.6676 149.242,9.83431 143.5,11C 140.367,11.8596 137.7,13.3596 135.5,15.5C 134.833,15.5 134.167,15.5 133.5,15.5C 134.028,14.2794 134.695,13.1127 135.5,12C 138.032,11.3811 140.365,10.3811 142.5,9C 145.188,8.60759 147.855,8.10759 150.5,7.5C 153.42,8.58564 156.42,9.25231 159.5,9.5C 159.5,10.8333 159.5,12.1667 159.5,13.5 Z"/></g>
<g><path style="opacity:1" fill="#e7fcfd" d="M 95.5,14.5 C 90.3364,12.5909 85.0031,11.2576 79.5,10.5C 75.2421,10.6284 71.9087,12.2951 69.5,15.5C 68.2719,16.3065 67.2719,17.3065 66.5,18.5C 66.711,11.9417 70.211,8.60838 77,8.5C 81.1445,9.1645 85.3112,9.6645 89.5,10C 91.8157,11.2982 93.8157,12.7982 95.5,14.5 Z"/></g>
<g><path style="opacity:1" fill="#7cbfd1" d="M 159.5,13.5 C 159.833,14.1667 160.167,14.8333 160.5,15.5C 156.879,13.7172 153.045,12.7172 149,12.5C 144.269,12.8073 139.769,13.8073 135.5,15.5C 137.7,13.3596 140.367,11.8596 143.5,11C 149.242,9.83431 154.575,10.6676 159.5,13.5 Z"/></g>
<g><path style="opacity:1" fill="#71bbcc" d="M 95.5,14.5 C 95.5,14.8333 95.5,15.1667 95.5,15.5C 90.4665,14.3272 85.2999,13.3272 80,12.5C 76.3307,13.0021 72.8307,14.0021 69.5,15.5C 71.9087,12.2951 75.2421,10.6284 79.5,10.5C 85.0031,11.2576 90.3364,12.5909 95.5,14.5 Z"/></g>
<g><path style="opacity:1" fill="#6db5cb" d="M 133.5,15.5 C 134.167,15.5 134.833,15.5 135.5,15.5C 130.494,19.826 125.161,23.826 119.5,27.5C 119.167,27.5 118.833,27.5 118.5,27.5C 121.312,24.5985 124.312,21.9319 127.5,19.5C 129.537,18.1535 131.537,16.8202 133.5,15.5 Z"/></g>
<g><path style="opacity:1" fill="#68bacd" d="M 83.5,18.5 C 85.2884,17.3775 87.2884,17.2109 89.5,18C 96.3621,21.6306 102.862,25.7973 109,30.5C 110.595,29.6443 111.428,28.3109 111.5,26.5C 111.833,26.5 112.167,26.5 112.5,26.5C 113.167,27.5 113.833,28.5 114.5,29.5C 112.833,31.1667 111.167,32.8333 109.5,34.5C 102.444,26.6346 93.7777,21.3013 83.5,18.5 Z"/></g>
<g><path style="opacity:1" fill="#58bfdb" d="M 95.5,15.5 C 101.388,18.3932 106.722,22.0599 111.5,26.5C 111.428,28.3109 110.595,29.6443 109,30.5C 102.862,25.7973 96.3621,21.6306 89.5,18C 87.2884,17.2109 85.2884,17.3775 83.5,18.5C 81.5,18.5 79.5,18.5 77.5,18.5C 77.9175,17.7784 78.5842,17.2784 79.5,17C 78.8333,16.8333 78.1667,16.6667 77.5,16.5C 74.7335,17.9669 71.7335,18.8003 68.5,19C 67.4258,19.7387 66.7591,20.7387 66.5,22C 67.2335,23.7659 67.5668,25.5992 67.5,27.5C 66.0413,27.4326 64.7079,27.7659 63.5,28.5C 63.9236,24.9882 64.9236,21.6548 66.5,18.5C 67.2719,17.3065 68.2719,16.3065 69.5,15.5C 72.8307,14.0021 76.3307,13.0021 80,12.5C 85.2999,13.3272 90.4665,14.3272 95.5,15.5 Z"/></g>
<g><path style="opacity:1" fill="#e1fafb" d="M 95.5,15.5 C 95.5,15.1667 95.5,14.8333 95.5,14.5C 97.1992,14.3398 98.8659,14.5065 100.5,15C 101.807,17.3237 103.807,18.657 106.5,19C 108.043,20.8783 109.876,22.3783 112,23.5C 112.483,24.448 112.649,25.448 112.5,26.5C 112.167,26.5 111.833,26.5 111.5,26.5C 106.722,22.0599 101.388,18.3932 95.5,15.5 Z"/></g>
<g><path style="opacity:1" fill="#daf7fa" d="M 127.5,19.5 C 124.312,21.9319 121.312,24.5985 118.5,27.5C 117.395,28.6005 116.062,29.2671 114.5,29.5C 113.833,28.5 113.167,27.5 112.5,26.5C 114.288,26.7852 115.955,26.4519 117.5,25.5C 119.343,20.9862 122.676,18.9862 127.5,19.5 Z"/></g>
<g><path style="opacity:1" fill="#e2fbfd" d="M 77.5,18.5 C 79.5,18.5 81.5,18.5 83.5,18.5C 93.7777,21.3013 102.444,26.6346 109.5,34.5C 109.267,36.0618 108.6,37.3951 107.5,38.5C 103.797,41.8675 100.464,45.5342 97.5,49.5C 96.9717,48.2794 96.305,47.1127 95.5,46C 98.9322,43.5736 102.099,40.7403 105,37.5C 105.667,35.8333 105.667,34.1667 105,32.5C 100.833,29.6667 96.6667,26.8333 92.5,24C 87.4194,21.148 82.0861,20.3147 76.5,21.5C 71.8788,29.4794 70.2121,38.1461 71.5,47.5C 70.5119,42.3595 70.1786,37.0262 70.5,31.5C 70.0374,25.4832 72.3707,21.1499 77.5,18.5 Z"/></g>
<g><path style="opacity:1" fill="#fbfbfb" d="M 97.5,49.5 C 96.8333,50.8333 96.1667,52.1667 95.5,53.5C 91.4659,53.5045 87.4659,53.8379 83.5,54.5C 80.8333,54.8333 78.1667,55.1667 75.5,55.5C 74.5028,55.5299 73.8361,55.0299 73.5,54C 73.0098,51.6539 72.3432,49.4872 71.5,47.5C 70.2121,38.1461 71.8788,29.4794 76.5,21.5C 82.0861,20.3147 87.4194,21.148 92.5,24C 96.6667,26.8333 100.833,29.6667 105,32.5C 105.667,34.1667 105.667,35.8333 105,37.5C 102.099,40.7403 98.9322,43.5736 95.5,46C 96.305,47.1127 96.9717,48.2794 97.5,49.5 Z"/></g>
<g><path style="opacity:1" fill="#fafbfb" d="M 158.5,25.5 C 160.048,29.034 160.714,32.8673 160.5,37C 160.342,41.1919 160.009,45.3586 159.5,49.5C 159.5,49.8333 159.5,50.1667 159.5,50.5C 158.566,51.5676 158.232,52.901 158.5,54.5C 150.438,54.7136 142.772,53.2136 135.5,50C 133.972,44.3062 130.305,40.8062 124.5,39.5C 124.5,39.1667 124.5,38.8333 124.5,38.5C 123.782,36.8632 123.616,35.1966 124,33.5C 126.463,31.2032 129.297,29.5366 132.5,28.5C 133.705,27.4231 134.372,26.0898 134.5,24.5C 139.424,23.5184 144.091,22.1851 148.5,20.5C 150.167,20.6667 151.833,20.8333 153.5,21C 154.39,23.3913 156.057,24.8913 158.5,25.5 Z"/></g>
<g><path style="opacity:1" fill="#e3fbfd" d="M 134.5,24.5 C 134.372,26.0898 133.705,27.4231 132.5,28.5C 129.297,29.5366 126.463,31.2032 124,33.5C 123.616,35.1966 123.782,36.8632 124.5,38.5C 122.738,37.7377 121.738,36.4044 121.5,34.5C 122.167,33.5 122.833,32.5 123.5,31.5C 125.23,30.9744 126.564,29.9744 127.5,28.5C 129.698,26.9019 132.031,25.5686 134.5,24.5 Z"/></g>
<g><path style="opacity:1" fill="#53bed4" d="M 77.5,18.5 C 72.3707,21.1499 70.0374,25.4832 70.5,31.5C 70.0732,37.8688 68.9065,44.2022 67,50.5C 66.3508,43.8029 65.1842,37.4696 63.5,31.5C 63.5,30.5 63.5,29.5 63.5,28.5C 64.7079,27.7659 66.0413,27.4326 67.5,27.5C 67.5668,25.5992 67.2335,23.7659 66.5,22C 66.7591,20.7387 67.4258,19.7387 68.5,19C 71.7335,18.8003 74.7335,17.9669 77.5,16.5C 78.1667,16.6667 78.8333,16.8333 79.5,17C 78.5842,17.2784 77.9175,17.7784 77.5,18.5 Z"/></g>
<g><path style="opacity:1" fill="#5dbace" d="M 159.5,49.5 C 160.009,45.3586 160.342,41.1919 160.5,37C 160.714,32.8673 160.048,29.034 158.5,25.5C 157.66,23.1475 156.326,21.1475 154.5,19.5C 150.888,17.08 147.221,17.08 143.5,19.5C 140.008,20.4097 137.008,22.0764 134.5,24.5C 132.031,25.5686 129.698,26.9019 127.5,28.5C 127.286,26.8561 127.62,25.3561 128.5,24C 133.045,22.4538 137.378,20.4538 141.5,18C 147.595,15.9204 153.595,16.0871 159.5,18.5C 159.443,20.8845 159.777,23.2178 160.5,25.5C 161.366,26.8507 162.366,27.6841 163.5,28C 162.552,35.1218 162.219,42.2885 162.5,49.5C 161.5,49.5 160.5,49.5 159.5,49.5 Z"/></g>
<g><path style="opacity:1" fill="#99daea" d="M 165.5,22.5 C 166.924,24.5145 167.59,26.8478 167.5,29.5C 166.076,27.4855 165.41,25.1522 165.5,22.5 Z"/></g>
<g><path style="opacity:1" fill="#e9fcfd" d="M 66.5,18.5 C 64.9236,21.6548 63.9236,24.9882 63.5,28.5C 63.5,29.5 63.5,30.5 63.5,31.5C 62.5119,36.6405 62.1786,41.9738 62.5,47.5C 61.5,47.5 60.5,47.5 59.5,47.5C 59.8193,38.2653 61.1526,29.2653 63.5,20.5C 64.2652,19.3881 65.2652,18.7214 66.5,18.5 Z"/></g>
<g><path style="opacity:1" fill="#5bbbdf" d="M 118.5,27.5 C 118.833,27.5 119.167,27.5 119.5,27.5C 118.602,30.4652 119.935,31.7985 123.5,31.5C 122.833,32.5 122.167,33.5 121.5,34.5C 120.833,34.5 120.167,34.5 119.5,34.5C 117.958,33.6993 116.292,33.366 114.5,33.5C 114.5,35.8333 114.5,38.1667 114.5,40.5C 114.167,41.5 113.5,42.1667 112.5,42.5C 111.151,41.0475 109.485,40.0475 107.5,39.5C 107.5,39.1667 107.5,38.8333 107.5,38.5C 108.6,37.3951 109.267,36.0618 109.5,34.5C 111.167,32.8333 112.833,31.1667 114.5,29.5C 116.062,29.2671 117.395,28.6005 118.5,27.5 Z"/></g>
<g><path style="opacity:1" fill="#5fb6c9" d="M 162.5,17.5 C 163.89,18.8993 164.89,20.5659 165.5,22.5C 165.41,25.1522 166.076,27.4855 167.5,29.5C 167.58,39.5565 166.913,49.5565 165.5,59.5C 164.307,59.0296 163.64,58.0296 163.5,56.5C 166.379,43.399 166.046,30.399 162.5,17.5 Z"/></g>
<g><path style="opacity:1" fill="#54bfd5" d="M 119.5,34.5 C 119.34,36.1992 119.506,37.8659 120,39.5C 120.414,39.0426 120.914,38.7093 121.5,38.5C 123.62,41.71 125.953,44.71 128.5,47.5C 127.733,48.172 127.066,49.0053 126.5,50C 127.337,51.0113 127.67,52.1779 127.5,53.5C 124.68,53.2475 122.014,53.7475 119.5,55C 120.167,55.6667 120.833,56.3333 121.5,57C 124.167,57.3333 126.833,57.6667 129.5,58C 130.056,58.3826 130.389,58.8826 130.5,59.5C 121.167,59.5 111.833,59.5 102.5,59.5C 103.348,57.9069 104.681,56.7403 106.5,56C 109.131,55.8933 111.631,55.7266 114,55.5C 114.167,55.1667 114.333,54.8333 114.5,54.5C 111.694,53.8324 109.028,53.1657 106.5,52.5C 112.537,52.8293 118.537,52.4959 124.5,51.5C 124.376,50.8933 124.043,50.56 123.5,50.5C 121.183,46.5182 118.183,43.1849 114.5,40.5C 114.5,38.1667 114.5,35.8333 114.5,33.5C 116.292,33.366 117.958,33.6993 119.5,34.5 Z"/></g>
<g><path style="opacity:1" fill="#6ec2dc" d="M 63.5,31.5 C 65.1842,37.4696 66.3508,43.8029 67,50.5C 68.9065,44.2022 70.0732,37.8688 70.5,31.5C 70.1786,37.0262 70.5119,42.3595 71.5,47.5C 71.5,48.8333 71.5,50.1667 71.5,51.5C 70.8826,51.3893 70.3826,51.056 70,50.5C 68.7485,52.0009 67.7485,53.6675 67,55.5C 66.5831,54.244 65.7498,53.5774 64.5,53.5C 63.9518,51.3736 63.2852,49.3736 62.5,47.5C 62.1786,41.9738 62.5119,36.6405 63.5,31.5 Z"/></g>
<g><path style="opacity:1" fill="#dffcfd" d="M 124.5,39.5 C 130.305,40.8062 133.972,44.3062 135.5,50C 142.772,53.2136 150.438,54.7136 158.5,54.5C 158.53,55.4972 158.03,56.1639 157,56.5C 149.834,55.3334 142.667,54.1667 135.5,53C 131.705,48.5611 128.039,44.0611 124.5,39.5 Z"/></g>
<g><path style="opacity:1" fill="#54c0df" d="M 160.5,15.5 C 161.167,15.5 161.833,15.5 162.5,15.5C 162.5,16.1667 162.5,16.8333 162.5,17.5C 166.046,30.399 166.379,43.399 163.5,56.5C 163.64,58.0296 164.307,59.0296 165.5,59.5C 166.791,59.2627 167.791,59.596 168.5,60.5C 167.262,60.81 167.262,61.31 168.5,62C 165.896,62.7911 163.896,64.2911 162.5,66.5C 162.293,69.2406 161.293,71.5739 159.5,73.5C 157.455,74.9228 156.455,76.9228 156.5,79.5C 154.833,79.5 153.167,79.5 151.5,79.5C 151.5,78.5 151.5,77.5 151.5,76.5C 151.557,75.391 151.89,74.391 152.5,73.5C 156.893,71.7034 158.393,68.3701 157,63.5C 156.097,62.2986 154.931,61.4652 153.5,61C 149.21,60.0775 144.877,59.5775 140.5,59.5C 140.5,58.8333 140.5,58.1667 140.5,57.5C 146.678,56.3826 153.011,56.3826 159.5,57.5C 159.5,55.1667 159.5,52.8333 159.5,50.5C 159.5,50.1667 159.5,49.8333 159.5,49.5C 160.5,49.5 161.5,49.5 162.5,49.5C 162.219,42.2885 162.552,35.1218 163.5,28C 162.366,27.6841 161.366,26.8507 160.5,25.5C 159.777,23.2178 159.443,20.8845 159.5,18.5C 153.595,16.0871 147.595,15.9204 141.5,18C 137.378,20.4538 133.045,22.4538 128.5,24C 127.62,25.3561 127.286,26.8561 127.5,28.5C 126.564,29.9744 125.23,30.9744 123.5,31.5C 119.935,31.7985 118.602,30.4652 119.5,27.5C 125.161,23.826 130.494,19.826 135.5,15.5C 139.769,13.8073 144.269,12.8073 149,12.5C 153.045,12.7172 156.879,13.7172 160.5,15.5 Z"/></g>
<g><path style="opacity:1" fill="#e4fcfe" d="M 143.5,19.5 C 147.167,19.5 150.833,19.5 154.5,19.5C 156.326,21.1475 157.66,23.1475 158.5,25.5C 156.057,24.8913 154.39,23.3913 153.5,21C 151.833,20.8333 150.167,20.6667 148.5,20.5C 144.091,22.1851 139.424,23.5184 134.5,24.5C 137.008,22.0764 140.008,20.4097 143.5,19.5 Z"/></g>
<g><path style="opacity:1" fill="#bdeff7" d="M 154.5,19.5 C 150.833,19.5 147.167,19.5 143.5,19.5C 147.221,17.08 150.888,17.08 154.5,19.5 Z"/></g>
<g><path style="opacity:1" fill="#e2fafa" d="M 114.5,40.5 C 118.183,43.1849 121.183,46.5182 123.5,50.5C 118.025,51.4889 112.358,51.8222 106.5,51.5C 108.474,48.5178 110.474,45.5178 112.5,42.5C 113.5,42.1667 114.167,41.5 114.5,40.5 Z"/></g>
<g><path style="opacity:1" fill="#69bcd0" d="M 119.5,34.5 C 120.167,34.5 120.833,34.5 121.5,34.5C 121.738,36.4044 122.738,37.7377 124.5,38.5C 124.5,38.8333 124.5,39.1667 124.5,39.5C 128.039,44.0611 131.705,48.5611 135.5,53C 142.667,54.1667 149.834,55.3334 157,56.5C 158.03,56.1639 158.53,55.4972 158.5,54.5C 158.232,52.901 158.566,51.5676 159.5,50.5C 159.5,52.8333 159.5,55.1667 159.5,57.5C 153.011,56.3826 146.678,56.3826 140.5,57.5C 138.2,55.7982 135.533,55.1315 132.5,55.5C 131.735,52.5289 130.401,49.8623 128.5,47.5C 125.953,44.71 123.62,41.71 121.5,38.5C 120.914,38.7093 120.414,39.0426 120,39.5C 119.506,37.8659 119.34,36.1992 119.5,34.5 Z"/></g>
<g><path style="opacity:1" fill="#cbfafc" d="M 71.5,47.5 C 72.3432,49.4872 73.0098,51.6539 73.5,54C 73.8361,55.0299 74.5028,55.5299 75.5,55.5C 75.5,56.1667 75.1667,56.5 74.5,56.5C 73.5,56.5 72.5,56.5 71.5,56.5C 71.5,54.8333 71.5,53.1667 71.5,51.5C 71.5,50.1667 71.5,48.8333 71.5,47.5 Z"/></g>
<g><path style="opacity:1" fill="#6dbcca" d="M 107.5,38.5 C 107.5,38.8333 107.5,39.1667 107.5,39.5C 105.02,43.1091 102.52,46.7757 100,50.5C 98.871,52.1412 97.371,53.1412 95.5,53.5C 96.1667,52.1667 96.8333,50.8333 97.5,49.5C 100.464,45.5342 103.797,41.8675 107.5,38.5 Z"/></g>
<g><path style="opacity:1" fill="#fcfaf9" d="M 113.5,44.5 C 117.155,44.4722 119.822,46.1389 121.5,49.5C 118.216,50.657 114.882,50.8236 111.5,50C 112.5,49.6667 113.5,49.3333 114.5,49C 112.218,47.9158 111.884,46.4158 113.5,44.5 Z"/></g>
<g><path style="opacity:1" fill="#c0f7fd" d="M 123.5,50.5 C 124.043,50.56 124.376,50.8933 124.5,51.5C 118.537,52.4959 112.537,52.8293 106.5,52.5C 106.167,52.5 105.833,52.5 105.5,52.5C 105.5,51.8333 105.833,51.5 106.5,51.5C 112.358,51.8222 118.025,51.4889 123.5,50.5 Z"/></g>
<g><path style="opacity:1" fill="#53c0e2" d="M 128.5,47.5 C 130.401,49.8623 131.735,52.5289 132.5,55.5C 135.533,55.1315 138.2,55.7982 140.5,57.5C 140.5,58.1667 140.5,58.8333 140.5,59.5C 137.201,60.7475 133.867,60.7475 130.5,59.5C 130.389,58.8826 130.056,58.3826 129.5,58C 126.833,57.6667 124.167,57.3333 121.5,57C 120.833,56.3333 120.167,55.6667 119.5,55C 122.014,53.7475 124.68,53.2475 127.5,53.5C 127.67,52.1779 127.337,51.0113 126.5,50C 127.066,49.0053 127.733,48.172 128.5,47.5 Z"/></g>
<g><path style="opacity:1" fill="#52bde0" d="M 105.5,52.5 C 105.833,52.5 106.167,52.5 106.5,52.5C 109.028,53.1657 111.694,53.8324 114.5,54.5C 114.333,54.8333 114.167,55.1667 114,55.5C 111.631,55.7266 109.131,55.8933 106.5,56C 104.681,56.7403 103.348,57.9069 102.5,59.5C 100.62,59.2291 99.287,59.8958 98.5,61.5C 94.7852,61.577 91.1185,61.2436 87.5,60.5C 87.5,59.5 87.5,58.5 87.5,57.5C 93.5,55.8333 99.5,54.1667 105.5,52.5 Z"/></g>
<g><path style="opacity:1" fill="#d8f9fb" d="M 162.5,15.5 C 164,16.5875 165.333,17.9208 166.5,19.5C 167.298,21.0777 167.798,22.7444 168,24.5C 168.713,35.5221 168.547,46.5221 167.5,57.5C 169.927,57.523 172.26,58.023 174.5,59C 175.337,60.0113 175.67,61.1779 175.5,62.5C 173.167,61.8333 170.833,61.1667 168.5,60.5C 167.791,59.596 166.791,59.2627 165.5,59.5C 166.913,49.5565 167.58,39.5565 167.5,29.5C 167.59,26.8478 166.924,24.5145 165.5,22.5C 164.89,20.5659 163.89,18.8993 162.5,17.5C 162.5,16.8333 162.5,16.1667 162.5,15.5 Z"/></g>
<g><path style="opacity:1" fill="#57c0d4" d="M 107.5,39.5 C 109.485,40.0475 111.151,41.0475 112.5,42.5C 110.474,45.5178 108.474,48.5178 106.5,51.5C 105.833,51.5 105.5,51.8333 105.5,52.5C 99.5,54.1667 93.5,55.8333 87.5,57.5C 87.5,58.5 87.5,59.5 87.5,60.5C 91.1185,61.2436 94.7852,61.577 98.5,61.5C 96.9752,63.2163 95.9752,65.2163 95.5,67.5C 94.8333,67.8333 94.1667,68.1667 93.5,68.5C 92.549,66.528 91.549,64.528 90.5,62.5C 89.8165,62.8627 89.1499,63.1961 88.5,63.5C 88.0296,62.3065 87.0296,61.6399 85.5,61.5C 83.4878,61.8396 81.4878,62.1729 79.5,62.5C 74.3665,62.6369 73.0332,64.9702 75.5,69.5C 74.8423,68.6016 74.1757,67.6016 73.5,66.5C 72.0052,65.2947 70.6719,65.2947 69.5,66.5C 69.1667,66.5 68.8333,66.5 68.5,66.5C 66.3742,66.1501 64.0408,66.1501 61.5,66.5C 58.5178,66.1044 55.8511,66.7711 53.5,68.5C 51.0155,66.6308 51.0155,64.9641 53.5,63.5C 56.4374,61.3445 59.7708,59.8445 63.5,59C 64.4061,57.3005 64.7394,55.4672 64.5,53.5C 65.7498,53.5774 66.5831,54.244 67,55.5C 67.7485,53.6675 68.7485,52.0009 70,50.5C 70.3826,51.056 70.8826,51.3893 71.5,51.5C 71.5,53.1667 71.5,54.8333 71.5,56.5C 72.5,56.5 73.5,56.5 74.5,56.5C 73.7659,57.7079 73.4326,59.0413 73.5,60.5C 75.5,60.5 77.5,60.5 79.5,60.5C 79.5,59.1667 79.5,57.8333 79.5,56.5C 81.3797,56.7709 82.713,56.1042 83.5,54.5C 87.4659,53.8379 91.4659,53.5045 95.5,53.5C 97.371,53.1412 98.871,52.1412 100,50.5C 102.52,46.7757 105.02,43.1091 107.5,39.5 Z"/></g>
<g><path style="opacity:1" fill="#61bcdb" d="M 83.5,54.5 C 82.713,56.1042 81.3797,56.7709 79.5,56.5C 79.5,57.8333 79.5,59.1667 79.5,60.5C 77.5,60.5 75.5,60.5 73.5,60.5C 73.4326,59.0413 73.7659,57.7079 74.5,56.5C 75.1667,56.5 75.5,56.1667 75.5,55.5C 78.1667,55.1667 80.8333,54.8333 83.5,54.5 Z"/></g>
<g><path style="opacity:1" fill="#52bfe2" d="M 70.5,57.5 C 72.2798,58.9899 72.9465,60.9899 72.5,63.5C 62.7744,63.8158 62.1077,61.8158 70.5,57.5 Z"/></g>
<g><path style="opacity:1" fill="#63b4cd" d="M 53.5,63.5 C 51.0155,64.9641 51.0155,66.6308 53.5,68.5C 55.8511,66.7711 58.5178,66.1044 61.5,66.5C 54.2653,70.1235 47.2653,74.2902 40.5,79C 37.6269,81.913 36.2935,85.413 36.5,89.5C 35.7037,89.7231 35.3704,88.8898 35.5,87C 36.3222,83.8594 36.9888,80.6927 37.5,77.5C 38.552,77.6495 39.552,77.4828 40.5,77C 43.8199,74.0055 47.4866,71.5055 51.5,69.5C 51.0814,68.3279 50.4147,67.3279 49.5,66.5C 47.9291,67.3094 46.2624,67.6427 44.5,67.5C 46.8976,65.0257 49.8976,63.6924 53.5,63.5 Z"/></g>
<g><path style="opacity:1" fill="#f4faf9" d="M 88.5,63.5 C 86.5,66.8333 84.5,70.1667 82.5,73.5C 78.9423,72.4253 76.9423,69.9253 76.5,66C 77.0707,64.4009 78.0707,63.2342 79.5,62.5C 81.4878,62.1729 83.4878,61.8396 85.5,61.5C 87.0296,61.6399 88.0296,62.3065 88.5,63.5 Z"/></g>
<g><path style="opacity:1" fill="#5cbed6" d="M 168.5,60.5 C 170.833,61.1667 173.167,61.8333 175.5,62.5C 176.167,62.5 176.833,62.5 177.5,62.5C 182.473,64.9888 187.14,67.9888 191.5,71.5C 188.654,71.0301 186.321,71.8634 184.5,74C 185.056,74.3826 185.389,74.8826 185.5,75.5C 182.054,73.8908 178.721,72.0574 175.5,70C 171.294,68.2226 166.961,67.056 162.5,66.5C 163.896,64.2911 165.896,62.7911 168.5,62C 167.262,61.31 167.262,60.81 168.5,60.5 Z"/></g>
<g><path style="opacity:1" fill="#e3fcfd" d="M 162.5,66.5 C 166.961,67.056 171.294,68.2226 175.5,70C 178.721,72.0574 182.054,73.8908 185.5,75.5C 185.833,76.5 186.5,77.1667 187.5,77.5C 190.29,78.9671 191.956,81.3004 192.5,84.5C 191.163,83.6851 190.163,82.5185 189.5,81C 188.207,80.51 186.873,80.3433 185.5,80.5C 185.719,79.325 185.386,78.325 184.5,77.5C 182.118,76.6493 180.118,75.316 178.5,73.5C 175.372,72.6248 172.372,71.4581 169.5,70C 167.833,69.3333 166.167,69.3333 164.5,70C 163.448,74.7344 161.448,79.0677 158.5,83C 157.744,86.1248 157.411,89.2914 157.5,92.5C 156.609,90.7095 155.609,88.8761 154.5,87C 156.873,82.7559 158.539,78.2559 159.5,73.5C 161.293,71.5739 162.293,69.2406 162.5,66.5 Z"/></g>
<g><path style="opacity:1" fill="#e5fbfc" d="M 102.5,59.5 C 111.833,59.5 121.167,59.5 130.5,59.5C 134.847,66.2032 139.18,72.8699 143.5,79.5C 144.167,81.5 144.833,83.5 145.5,85.5C 143.333,83.708 141.333,81.708 139.5,79.5C 138.494,75.9614 136.66,72.9614 134,70.5C 133.667,68.8333 133.333,67.1667 133,65.5C 131.513,64.8448 130.347,63.8448 129.5,62.5C 120.518,61.3347 111.518,61.168 102.5,62C 100.963,63.1096 100.297,64.6096 100.5,66.5C 102.199,66.3398 103.866,66.5065 105.5,67C 106.098,69.048 107.431,70.2147 109.5,70.5C 118.017,68.1783 125.184,70.1783 131,76.5C 131.686,83.8749 131.353,91.2083 130,98.5C 122.338,105.109 113.838,106.276 104.5,102C 103.086,100.007 102.086,97.8398 101.5,95.5C 104.937,99.8024 109.437,102.136 115,102.5C 119.863,102.485 123.696,100.485 126.5,96.5C 130.38,92.0185 131.38,86.8519 129.5,81C 128.296,79.3007 126.962,77.8007 125.5,76.5C 118.962,70.1695 111.962,69.8362 104.5,75.5C 104.5,73.8333 104.5,72.1667 104.5,70.5C 103.167,70.5 101.833,70.5 100.5,70.5C 100.5,69.5 100.5,68.5 100.5,67.5C 98.8333,67.5 97.1667,67.5 95.5,67.5C 95.9752,65.2163 96.9752,63.2163 98.5,61.5C 99.287,59.8958 100.62,59.2291 102.5,59.5 Z"/></g>
<g><path style="opacity:1" fill="#d3f9fc" d="M 79.5,62.5 C 78.0707,63.2342 77.0707,64.4009 76.5,66C 76.9423,69.9253 78.9423,72.4253 82.5,73.5C 81.928,74.9733 81.0946,76.3066 80,77.5C 78.7258,74.6089 77.2258,71.9422 75.5,69.5C 73.0332,64.9702 74.3665,62.6369 79.5,62.5 Z"/></g>
<g><path style="opacity:1" fill="#e0fafc" d="M 177.5,62.5 C 179.527,62.3379 181.527,62.5045 183.5,63C 188.125,67.2896 193.291,70.7896 199,73.5C 201.266,79.3363 202.266,85.3363 202,91.5C 201.617,92.056 201.117,92.3893 200.5,92.5C 201.918,84.0669 199.251,77.4002 192.5,72.5C 191.833,72.5 191.5,72.1667 191.5,71.5C 187.14,67.9888 182.473,64.9888 177.5,62.5 Z"/></g>
<g><path style="opacity:1" fill="#fbfbfb" d="M 71.5,95.5 C 70.8333,98.1667 70.1667,100.833 69.5,103.5C 68.4625,104.93 67.7959,106.597 67.5,108.5C 58.9102,104.301 50.2436,99.9679 41.5,95.5C 40.7593,92.703 40.0927,89.8697 39.5,87C 40.2992,84.851 41.1325,82.6843 42,80.5C 46.4838,76.683 51.3171,73.5163 56.5,71C 59.9375,69.1648 63.4375,68.6648 67,69.5C 67.3333,71.5 67.6667,73.5 68,75.5C 70.5647,78.9239 72.3981,82.7572 73.5,87C 72.0137,89.5895 71.3471,92.4228 71.5,95.5 Z"/></g>
<g><path style="opacity:1" fill="#fafbfb" d="M 192.5,84.5 C 193.452,89.6335 191.785,93.9668 187.5,97.5C 185.062,99.2672 182.395,100.601 179.5,101.5C 177.143,101.337 174.81,101.503 172.5,102C 170.991,103.924 168.991,105.091 166.5,105.5C 164.931,104.286 164.098,102.619 164,100.5C 162.989,99.6634 161.822,99.33 160.5,99.5C 159.659,97.1879 158.659,94.8546 157.5,92.5C 157.411,89.2914 157.744,86.1248 158.5,83C 161.448,79.0677 163.448,74.7344 164.5,70C 166.167,69.3333 167.833,69.3333 169.5,70C 172.372,71.4581 175.372,72.6248 178.5,73.5C 180.118,75.316 182.118,76.6493 184.5,77.5C 185.386,78.325 185.719,79.325 185.5,80.5C 186.873,80.3433 188.207,80.51 189.5,81C 190.163,82.5185 191.163,83.6851 192.5,84.5 Z"/></g>
<g><path style="opacity:1" fill="#e0fbfd" d="M 68.5,66.5 C 70.529,73.5681 72.8624,80.5681 75.5,87.5C 74.6659,90.5018 73.3325,93.1685 71.5,95.5C 71.3471,92.4228 72.0137,89.5895 73.5,87C 72.3981,82.7572 70.5647,78.9239 68,75.5C 67.6667,73.5 67.3333,71.5 67,69.5C 63.4375,68.6648 59.9375,69.1648 56.5,71C 51.3171,73.5163 46.4838,76.683 42,80.5C 41.1325,82.6843 40.2992,84.851 39.5,87C 40.0927,89.8697 40.7593,92.703 41.5,95.5C 39.8333,93.5 38.1667,91.5 36.5,89.5C 36.2935,85.413 37.6269,81.913 40.5,79C 47.2653,74.2902 54.2653,70.1235 61.5,66.5C 64.0408,66.1501 66.3742,66.1501 68.5,66.5 Z"/></g>
<g><path style="opacity:1" fill="#56bfd8" d="M 93.5,68.5 C 93.5,69.1667 93.1667,69.5 92.5,69.5C 88.3331,74.644 84.9998,80.4773 82.5,87C 83.1856,90.4949 84.8523,93.3282 87.5,95.5C 90.8461,100.866 94.1794,106.2 97.5,111.5C 97.5394,112.583 97.8728,113.583 98.5,114.5C 109.326,115.823 119.993,115.823 130.5,114.5C 132.5,111.833 134.5,109.167 136.5,106.5C 135.614,114.391 131.281,117.724 123.5,116.5C 123.5,118.167 123.5,119.833 123.5,121.5C 122.209,121.263 121.209,121.596 120.5,122.5C 116.167,122.5 111.833,122.5 107.5,122.5C 108.95,120.081 108.284,118.248 105.5,117C 103.5,116.333 101.5,116.333 99.5,117C 101.041,119.916 102.707,122.749 104.5,125.5C 104.145,126.522 103.478,127.189 102.5,127.5C 101.07,125.845 100.236,123.845 100,121.5C 98.5295,120.733 97.0295,120.067 95.5,119.5C 95.7377,116.592 94.7377,114.258 92.5,112.5C 94.037,109.315 93.3704,106.648 90.5,104.5C 89.914,104.709 89.414,105.043 89,105.5C 88.5099,107.545 88.6765,109.545 89.5,111.5C 86.2274,106.694 83.0608,101.694 80,96.5C 77.5897,101.314 75.7564,106.314 74.5,111.5C 73.2321,113.387 71.3987,114.387 69,114.5C 61.5654,113.771 54.7321,111.437 48.5,107.5C 47.5713,106.311 47.238,104.978 47.5,103.5C 53.0161,106.011 58.6828,108.344 64.5,110.5C 65.1067,110.376 65.44,110.043 65.5,109.5C 66.4916,109.672 67.1583,109.338 67.5,108.5C 67.7959,106.597 68.4625,104.93 69.5,103.5C 70.1174,103.611 70.6174,103.944 71,104.5C 73.3426,98.8251 75.1759,92.9917 76.5,87C 74.2631,80.1225 71.9298,73.2892 69.5,66.5C 70.6719,65.2947 72.0052,65.2947 73.5,66.5C 74.1757,67.6016 74.8423,68.6016 75.5,69.5C 77.2258,71.9422 78.7258,74.6089 80,77.5C 81.0946,76.3066 81.928,74.9733 82.5,73.5C 84.5,70.1667 86.5,66.8333 88.5,63.5C 89.1499,63.1961 89.8165,62.8627 90.5,62.5C 91.549,64.528 92.549,66.528 93.5,68.5 Z"/></g>
<g><path style="opacity:1" fill="#55c0db" d="M 36.5,89.5 C 38.1667,91.5 39.8333,93.5 41.5,95.5C 41.5,95.8333 41.5,96.1667 41.5,96.5C 41.7031,98.0443 42.3698,99.3777 43.5,100.5C 42.1866,102.885 40.5199,103.052 38.5,101C 37.1248,97.7007 34.7915,95.534 31.5,94.5C 31.5,94.1667 31.5,93.8333 31.5,93.5C 30.9793,88.7629 31.9793,84.4295 34.5,80.5C 34.2907,79.914 33.9574,79.414 33.5,79C 36.8529,74.7015 40.5196,70.8682 44.5,67.5C 46.2624,67.6427 47.9291,67.3094 49.5,66.5C 50.4147,67.3279 51.0814,68.3279 51.5,69.5C 47.4866,71.5055 43.8199,74.0055 40.5,77C 39.552,77.4828 38.552,77.6495 37.5,77.5C 36.9888,80.6927 36.3222,83.8594 35.5,87C 35.3704,88.8898 35.7037,89.7231 36.5,89.5 Z"/></g>
<g><path style="opacity:1" fill="#68becf" d="M 44.5,67.5 C 40.5196,70.8682 36.8529,74.7015 33.5,79C 33.9574,79.414 34.2907,79.914 34.5,80.5C 31.9793,84.4295 30.9793,88.7629 31.5,93.5C 27.505,84.8742 29.505,77.7075 37.5,72C 39.5506,69.9798 41.8839,68.4798 44.5,67.5 Z"/></g>
<g><path style="opacity:1" fill="#e0f9fc" d="M 88.5,79.5 C 88.722,82.3903 88.0553,85.057 86.5,87.5C 87.5,90.1667 88.5,92.8333 89.5,95.5C 92.1137,98.1663 94.2804,101.166 96,104.5C 96.977,106.74 97.477,109.073 97.5,111.5C 94.1794,106.2 90.8461,100.866 87.5,95.5C 86.3083,92.5917 85.3083,89.5917 84.5,86.5C 85.5914,83.9785 86.9247,81.6451 88.5,79.5 Z"/></g>
<g><path style="opacity:1" fill="#5dbed3" d="M 130.5,59.5 C 133.867,60.7475 137.201,60.7475 140.5,59.5C 144.877,59.5775 149.21,60.0775 153.5,61C 154.931,61.4652 156.097,62.2986 157,63.5C 158.393,68.3701 156.893,71.7034 152.5,73.5C 153.901,70.2964 154.901,66.9631 155.5,63.5C 151.644,63.0291 147.811,62.3624 144,61.5C 143.167,61.8333 142.333,62.1667 141.5,62.5C 144.637,66.8094 147.137,71.476 149,76.5C 149.77,77.5981 150.603,77.5981 151.5,76.5C 151.5,77.5 151.5,78.5 151.5,79.5C 153.167,79.5 154.833,79.5 156.5,79.5C 156.455,76.9228 157.455,74.9228 159.5,73.5C 158.539,78.2559 156.873,82.7559 154.5,87C 155.609,88.8761 156.609,90.7095 157.5,92.5C 158.659,94.8546 159.659,97.1879 160.5,99.5C 160.5,100.167 160.5,100.833 160.5,101.5C 157.196,100.856 155.862,98.8559 156.5,95.5C 155.167,95.5 153.833,95.5 152.5,95.5C 154.086,100.828 156.419,105.828 159.5,110.5C 159.392,111.442 159.059,112.275 158.5,113C 155.305,113.181 152.305,113.681 149.5,114.5C 145.737,115.087 142.071,115.087 138.5,114.5C 140.382,110.406 142.549,106.406 145,102.5C 145.497,100.19 145.663,97.8568 145.5,95.5C 146.833,95.5 148.167,95.5 149.5,95.5C 149.796,92.7375 150.796,90.2375 152.5,88C 151.067,85.3047 150.067,82.4713 149.5,79.5C 148.5,79.5 147.5,79.5 146.5,79.5C 146.164,72.5538 143.164,67.2205 137.5,63.5C 136.833,63.6667 136.167,63.8333 135.5,64C 138.928,68.8856 141.595,74.0523 143.5,79.5C 139.18,72.8699 134.847,66.2032 130.5,59.5 Z"/></g>
<g><path style="opacity:1" fill="#e4fcfd" d="M 152.5,73.5 C 151.89,74.391 151.557,75.391 151.5,76.5C 150.603,77.5981 149.77,77.5981 149,76.5C 147.137,71.476 144.637,66.8094 141.5,62.5C 142.333,62.1667 143.167,61.8333 144,61.5C 147.811,62.3624 151.644,63.0291 155.5,63.5C 154.901,66.9631 153.901,70.2964 152.5,73.5 Z"/></g>
<g><path style="opacity:1" fill="#fcf9fa" d="M 144.5,63.5 C 145.531,64.355 146.697,65.0217 148,65.5C 150.12,64.5411 152.287,64.3744 154.5,65C 153.192,67.7951 151.526,70.2951 149.5,72.5C 147.717,70.9775 147.051,68.9775 147.5,66.5C 146.5,66.5 145.5,66.5 144.5,66.5C 144.5,65.5 144.5,64.5 144.5,63.5 Z"/></g>
<g><path style="opacity:1" fill="#53bfdf" d="M 191.5,71.5 C 191.5,72.1667 191.833,72.5 192.5,72.5C 192.351,73.552 192.517,74.552 193,75.5C 199.515,80.8276 200.848,87.161 197,94.5C 195.989,95.3366 194.822,95.67 193.5,95.5C 195.167,91.6613 195.667,87.6613 195,83.5C 193.497,80.0597 190.997,78.0597 187.5,77.5C 186.5,77.1667 185.833,76.5 185.5,75.5C 185.389,74.8826 185.056,74.3826 184.5,74C 186.321,71.8634 188.654,71.0301 191.5,71.5 Z"/></g>
<g><path style="opacity:1" fill="#71bacb" d="M 68.5,66.5 C 68.8333,66.5 69.1667,66.5 69.5,66.5C 71.9298,73.2892 74.2631,80.1225 76.5,87C 75.1759,92.9917 73.3426,98.8251 71,104.5C 70.6174,103.944 70.1174,103.611 69.5,103.5C 70.1667,100.833 70.8333,98.1667 71.5,95.5C 73.3325,93.1685 74.6659,90.5018 75.5,87.5C 72.8624,80.5681 70.529,73.5681 68.5,66.5 Z"/></g>
<g><path style="opacity:1" fill="#54c0e0" d="M 145.5,95.5 C 145.5,93.5 145.5,91.5 145.5,89.5C 145.5,88.1667 145.5,86.8333 145.5,85.5C 144.833,83.5 144.167,81.5 143.5,79.5C 141.595,74.0523 138.928,68.8856 135.5,64C 136.167,63.8333 136.833,63.6667 137.5,63.5C 143.164,67.2205 146.164,72.5538 146.5,79.5C 147.5,79.5 148.5,79.5 149.5,79.5C 150.067,82.4713 151.067,85.3047 152.5,88C 150.796,90.2375 149.796,92.7375 149.5,95.5C 148.167,95.5 146.833,95.5 145.5,95.5 Z"/></g>
<g><path style="opacity:1" fill="#63bbcc" d="M 192.5,72.5 C 199.251,77.4002 201.918,84.0669 200.5,92.5C 197.908,96.4325 194.908,100.099 191.5,103.5C 191.167,103.5 190.833,103.5 190.5,103.5C 191.038,101.883 191.371,100.216 191.5,98.5C 190.5,98.5 189.5,98.5 188.5,98.5C 188.5,97.8333 188.167,97.5 187.5,97.5C 191.785,93.9668 193.452,89.6335 192.5,84.5C 191.956,81.3004 190.29,78.9671 187.5,77.5C 190.997,78.0597 193.497,80.0597 195,83.5C 195.667,87.6613 195.167,91.6613 193.5,95.5C 194.822,95.67 195.989,95.3366 197,94.5C 200.848,87.161 199.515,80.8276 193,75.5C 192.517,74.552 192.351,73.552 192.5,72.5 Z"/></g>
<g><path style="opacity:1" fill="#6ab3cb" d="M 92.5,69.5 C 91.1667,72.8333 89.8333,76.1667 88.5,79.5C 86.9247,81.6451 85.5914,83.9785 84.5,86.5C 85.3083,89.5917 86.3083,92.5917 87.5,95.5C 84.8523,93.3282 83.1856,90.4949 82.5,87C 84.9998,80.4773 88.3331,74.644 92.5,69.5 Z"/></g>
<g><path style="opacity:1" fill="#d6f6fa" d="M 200.5,92.5 C 200.542,98.7855 197.542,102.452 191.5,103.5C 194.908,100.099 197.908,96.4325 200.5,92.5 Z"/></g>
<g><path style="opacity:1" fill="#fbfbfb" d="M 145.5,85.5 C 145.5,86.8333 145.5,88.1667 145.5,89.5C 143.992,91.1815 142.992,93.1815 142.5,95.5C 136.377,99.6448 132.043,105.311 129.5,112.5C 119.522,113.499 109.522,113.832 99.5,113.5C 99.1667,112.5 98.5,111.833 97.5,111.5C 97.477,109.073 96.977,106.74 96,104.5C 94.2804,101.166 92.1137,98.1663 89.5,95.5C 88.5,92.8333 87.5,90.1667 86.5,87.5C 88.0553,85.057 88.722,82.3903 88.5,79.5C 89.8333,76.1667 91.1667,72.8333 92.5,69.5C 93.1667,69.5 93.5,69.1667 93.5,68.5C 94.1667,68.1667 94.8333,67.8333 95.5,67.5C 97.1667,67.5 98.8333,67.5 100.5,67.5C 100.5,68.5 100.5,69.5 100.5,70.5C 101.833,70.5 103.167,70.5 104.5,70.5C 104.5,72.1667 104.5,73.8333 104.5,75.5C 102.833,75.5 101.167,75.5 99.5,75.5C 98.4696,81.4632 98.3029,87.4632 99,93.5C 99.4169,94.756 100.25,95.4226 101.5,95.5C 102.086,97.8398 103.086,100.007 104.5,102C 113.838,106.276 122.338,105.109 130,98.5C 131.353,91.2083 131.686,83.8749 131,76.5C 125.184,70.1783 118.017,68.1783 109.5,70.5C 107.431,70.2147 106.098,69.048 105.5,67C 103.866,66.5065 102.199,66.3398 100.5,66.5C 100.297,64.6096 100.963,63.1096 102.5,62C 111.518,61.168 120.518,61.3347 129.5,62.5C 130.347,63.8448 131.513,64.8448 133,65.5C 133.333,67.1667 133.667,68.8333 134,70.5C 136.66,72.9614 138.494,75.9614 139.5,79.5C 141.333,81.708 143.333,83.708 145.5,85.5 Z"/></g>
<g><path style="opacity:1" fill="#6bbbcf" d="M 125.5,76.5 C 125.44,77.0431 125.107,77.3764 124.5,77.5C 116.517,71.3876 109.851,72.3876 104.5,80.5C 103.674,82.9589 103.007,85.4589 102.5,88C 103.609,90.0466 104.276,92.2133 104.5,94.5C 107.685,94.7224 108.685,96.2224 107.5,99C 110.311,99.6289 113.144,100.129 116,100.5C 119.798,99.847 123.298,98.5137 126.5,96.5C 123.696,100.485 119.863,102.485 115,102.5C 109.437,102.136 104.937,99.8024 101.5,95.5C 100.839,92.5123 100.172,89.5123 99.5,86.5C 100.364,82.4402 102.031,78.7735 104.5,75.5C 111.962,69.8362 118.962,70.1695 125.5,76.5 Z"/></g>
<g><path style="opacity:1" fill="#dffcfe" d="M 104.5,75.5 C 102.031,78.7735 100.364,82.4402 99.5,86.5C 100.172,89.5123 100.839,92.5123 101.5,95.5C 100.25,95.4226 99.4169,94.756 99,93.5C 98.3029,87.4632 98.4696,81.4632 99.5,75.5C 101.167,75.5 102.833,75.5 104.5,75.5 Z"/></g>
<g><path style="opacity:1" fill="#50c0dd" d="M 125.5,76.5 C 126.962,77.8007 128.296,79.3007 129.5,81C 131.38,86.8519 130.38,92.0185 126.5,96.5C 123.298,98.5137 119.798,99.847 116,100.5C 113.144,100.129 110.311,99.6289 107.5,99C 108.685,96.2224 107.685,94.7224 104.5,94.5C 104.276,92.2133 103.609,90.0466 102.5,88C 103.007,85.4589 103.674,82.9589 104.5,80.5C 109.851,72.3876 116.517,71.3876 124.5,77.5C 125.107,77.3764 125.44,77.0431 125.5,76.5 Z"/></g>
<g><path style="opacity:1" fill="#6bbdcb" d="M 145.5,89.5 C 145.5,91.5 145.5,93.5 145.5,95.5C 144.624,95.3691 143.957,95.7025 143.5,96.5C 142.24,100.678 139.907,104.011 136.5,106.5C 138.234,102.7 140.234,99.0337 142.5,95.5C 142.992,93.1815 143.992,91.1815 145.5,89.5 Z"/></g>
<g><path style="opacity:1" fill="#e6fcfd" d="M 160.5,99.5 C 161.822,99.33 162.989,99.6634 164,100.5C 164.098,102.619 164.931,104.286 166.5,105.5C 168.991,105.091 170.991,103.924 172.5,102C 174.81,101.503 177.143,101.337 179.5,101.5C 174.446,105.19 168.779,107.523 162.5,108.5C 162.768,106.901 162.434,105.568 161.5,104.5C 160.89,103.609 160.557,102.609 160.5,101.5C 160.5,100.833 160.5,100.167 160.5,99.5 Z"/></g>
<g><path style="opacity:1" fill="#dff9fb" d="M 41.5,96.5 C 41.5,96.1667 41.5,95.8333 41.5,95.5C 50.2436,99.9679 58.9102,104.301 67.5,108.5C 67.1583,109.338 66.4916,109.672 65.5,109.5C 56.8929,106.198 48.8929,101.865 41.5,96.5 Z"/></g>
<g><path style="opacity:1" fill="#faf8f8" d="M 143.5,108.5 C 143.5,107.833 143.833,107.5 144.5,107.5C 145.496,107.586 146.329,107.252 147,106.5C 147.26,104.382 148.26,102.716 150,101.5C 151.358,104.381 152.858,107.214 154.5,110C 150.83,110.548 147.163,111.048 143.5,111.5C 143.5,110.5 143.5,109.5 143.5,108.5 Z"/></g>
<g><path style="opacity:1" fill="#70bcd3" d="M 187.5,97.5 C 188.167,97.5 188.5,97.8333 188.5,98.5C 184.347,101.676 180.014,104.676 175.5,107.5C 173.901,107.232 172.568,107.566 171.5,108.5C 168.284,109.03 165.117,109.696 162,110.5C 161.505,108.527 161.338,106.527 161.5,104.5C 162.434,105.568 162.768,106.901 162.5,108.5C 168.779,107.523 174.446,105.19 179.5,101.5C 182.395,100.601 185.062,99.2672 187.5,97.5 Z"/></g>
<g><path style="opacity:1" fill="#4fc2df" d="M 188.5,98.5 C 189.5,98.5 190.5,98.5 191.5,98.5C 191.371,100.216 191.038,101.883 190.5,103.5C 190.5,104.167 190.167,104.5 189.5,104.5C 189.44,103.957 189.107,103.624 188.5,103.5C 185.624,105.437 182.624,107.104 179.5,108.5C 178.151,108.154 176.817,107.821 175.5,107.5C 180.014,104.676 184.347,101.676 188.5,98.5 Z"/></g>
<g><path style="opacity:1" fill="#54bee0" d="M 95.5,119.5 C 93.5,119.5 91.5,119.5 89.5,119.5C 89.2671,117.938 88.6005,116.605 87.5,115.5C 88.8333,115.5 89.5,114.833 89.5,113.5C 89.5,112.833 89.5,112.167 89.5,111.5C 88.6765,109.545 88.5099,107.545 89,105.5C 89.414,105.043 89.914,104.709 90.5,104.5C 93.3704,106.648 94.037,109.315 92.5,112.5C 94.7377,114.258 95.7377,116.592 95.5,119.5 Z"/></g>
<g><path style="opacity:1" fill="#59bdcf" d="M 189.5,104.5 C 185.049,107.72 180.382,110.387 175.5,112.5C 174.167,112.833 172.833,113.167 171.5,113.5C 171.062,113.565 170.728,113.399 170.5,113C 171.061,111.324 172.061,109.991 173.5,109C 172.906,108.536 172.239,108.369 171.5,108.5C 172.568,107.566 173.901,107.232 175.5,107.5C 176.817,107.821 178.151,108.154 179.5,108.5C 182.624,107.104 185.624,105.437 188.5,103.5C 189.107,103.624 189.44,103.957 189.5,104.5 Z"/></g>
<g><path style="opacity:1" fill="#dbfafc" d="M 89.5,111.5 C 89.5,112.167 89.5,112.833 89.5,113.5C 85.9601,113.247 82.6267,112.581 79.5,111.5C 81.9775,111.949 83.9775,111.283 85.5,109.5C 80.8888,99.9433 77.8888,100.61 76.5,111.5C 75.8333,111.5 75.1667,111.5 74.5,111.5C 75.7564,106.314 77.5897,101.314 80,96.5C 83.0608,101.694 86.2274,106.694 89.5,111.5 Z"/></g>
<g><path style="opacity:1" fill="#fafaf9" d="M 79.5,111.5 C 78.5,111.5 77.5,111.5 76.5,111.5C 77.8888,100.61 80.8888,99.9433 85.5,109.5C 83.9775,111.283 81.9775,111.949 79.5,111.5 Z"/></g>
<g><path style="opacity:1" fill="#e4f9fc" d="M 190.5,103.5 C 190.833,103.5 191.167,103.5 191.5,103.5C 188.146,109.824 182.812,112.824 175.5,112.5C 180.382,110.387 185.049,107.72 189.5,104.5C 190.167,104.5 190.5,104.167 190.5,103.5 Z"/></g>
<g><path style="opacity:1" fill="#ddfcfd" d="M 143.5,108.5 C 143.5,109.5 143.5,110.5 143.5,111.5C 147.163,111.048 150.83,110.548 154.5,110C 152.858,107.214 151.358,104.381 150,101.5C 148.26,102.716 147.26,104.382 147,106.5C 146.329,107.252 145.496,107.586 144.5,107.5C 146.128,103.602 148.128,99.935 150.5,96.5C 153.546,101.007 155.213,106.007 155.5,111.5C 150.899,111.467 146.399,112.134 142,113.5C 141.5,113.167 141,112.833 140.5,112.5C 141.521,111.099 142.521,109.765 143.5,108.5 Z"/></g>
<g><path style="opacity:1" fill="#e5fdfd" d="M 142.5,95.5 C 140.234,99.0337 138.234,102.7 136.5,106.5C 134.5,109.167 132.5,111.833 130.5,114.5C 119.986,114.828 109.653,114.494 99.5,113.5C 109.522,113.832 119.522,113.499 129.5,112.5C 132.043,105.311 136.377,99.6448 142.5,95.5 Z"/></g>
<g><path style="opacity:1" fill="#54bedf" d="M 160.5,101.5 C 160.557,102.609 160.89,103.609 161.5,104.5C 161.338,106.527 161.505,108.527 162,110.5C 165.117,109.696 168.284,109.03 171.5,108.5C 172.239,108.369 172.906,108.536 173.5,109C 172.061,109.991 171.061,111.324 170.5,113C 170.728,113.399 171.062,113.565 171.5,113.5C 171.158,114.338 170.492,114.672 169.5,114.5C 165.771,113.266 162.438,113.933 159.5,116.5C 156.572,117.484 153.572,117.817 150.5,117.5C 149.89,116.609 149.557,115.609 149.5,114.5C 152.305,113.681 155.305,113.181 158.5,113C 159.059,112.275 159.392,111.442 159.5,110.5C 156.419,105.828 154.086,100.828 152.5,95.5C 153.833,95.5 155.167,95.5 156.5,95.5C 155.862,98.8559 157.196,100.856 160.5,101.5 Z"/></g>
<g><path style="opacity:1" fill="#eefcfb" d="M 31.5,95.5 C 34.6015,99.1045 37.9349,102.604 41.5,106C 48.7389,110.079 56.2389,113.579 64,116.5C 64.5666,120.417 64.0666,124.083 62.5,127.5C 60.6283,125.938 58.2949,124.938 55.5,124.5C 57.0708,121.907 59.4041,120.907 62.5,121.5C 62.5,120.167 62.5,118.833 62.5,117.5C 58.1243,117.637 53.7909,117.804 49.5,118C 47.5794,116.759 47.246,115.259 48.5,113.5C 49.451,114.326 50.451,114.492 51.5,114C 46.0158,110.946 40.6824,107.779 35.5,104.5C 33.9863,101.477 32.653,98.4769 31.5,95.5 Z"/></g>
<g><path style="opacity:1" fill="#97d4e3" d="M 97.5,111.5 C 98.5,111.833 99.1667,112.5 99.5,113.5C 109.653,114.494 119.986,114.828 130.5,114.5C 119.993,115.823 109.326,115.823 98.5,114.5C 97.8728,113.583 97.5394,112.583 97.5,111.5 Z"/></g>
<g><path style="opacity:1" fill="#a8eef7" d="M 74.5,118.5 C 76.099,118.232 77.4324,118.566 78.5,119.5C 75.812,119.166 73.4786,119.832 71.5,121.5C 71.5,120.833 71.5,120.167 71.5,119.5C 72.209,118.596 73.209,118.263 74.5,118.5 Z"/></g>
<g><path style="opacity:1" fill="#dffcfd" d="M 158.5,121.5 C 150.446,121.641 142.446,122.308 134.5,123.5C 134.197,129.793 131.197,134.126 125.5,136.5C 124.286,138.859 124.286,141.192 125.5,143.5C 124.833,143.5 124.167,143.5 123.5,143.5C 122.833,141.833 122.167,140.167 121.5,138.5C 125.97,133.187 130.303,127.687 134.5,122C 142.461,120.507 150.461,119.341 158.5,118.5C 158.5,119.5 158.5,120.5 158.5,121.5 Z"/></g>
<g><path style="opacity:1" fill="#68bbcb" d="M 89.5,119.5 C 91.5,119.5 93.5,119.5 95.5,119.5C 97.0295,120.067 98.5295,120.733 100,121.5C 100.236,123.845 101.07,125.845 102.5,127.5C 103.11,128.391 103.443,129.391 103.5,130.5C 100.473,128.471 98.1398,125.804 96.5,122.5C 90.4561,121.496 84.4561,120.496 78.5,119.5C 77.4324,118.566 76.099,118.232 74.5,118.5C 74.3691,117.624 74.7025,116.957 75.5,116.5C 79.9046,118.747 84.5712,119.747 89.5,119.5 Z"/></g>
<g><path style="opacity:1" fill="#d3fcfe" d="M 107.5,122.5 C 111.833,122.5 116.167,122.5 120.5,122.5C 125.439,122.632 125.772,123.965 121.5,126.5C 121.586,125.504 121.252,124.671 120.5,124C 116.848,123.501 113.182,123.335 109.5,123.5C 109.629,125.216 109.962,126.883 110.5,128.5C 108.967,126.645 107.3,124.812 105.5,123C 106.094,122.536 106.761,122.369 107.5,122.5 Z"/></g>
<g><path style="opacity:1" fill="#eafefc" d="M 121.5,126.5 C 121.5,126.833 121.5,127.167 121.5,127.5C 120.833,127.833 120.167,128.167 119.5,128.5C 119.5,127.167 119.5,125.833 119.5,124.5C 115.118,124.162 113.451,125.995 114.5,130C 115.793,130.49 117.127,130.657 118.5,130.5C 117.855,131.812 116.855,132.812 115.5,133.5C 113.479,132.145 111.812,130.479 110.5,128.5C 109.962,126.883 109.629,125.216 109.5,123.5C 113.182,123.335 116.848,123.501 120.5,124C 121.252,124.671 121.586,125.504 121.5,126.5 Z"/></g>
<g><path style="opacity:1" fill="#fafbfb" d="M 158.5,121.5 C 159.222,121.918 159.722,122.584 160,123.5C 160.167,127.167 160.333,130.833 160.5,134.5C 160.713,139.767 160.046,144.767 158.5,149.5C 155.993,149.996 153.993,151.33 152.5,153.5C 149.572,154.484 146.572,154.817 143.5,154.5C 143.5,153.167 143.5,151.833 143.5,150.5C 140.813,150.664 138.146,150.497 135.5,150C 133.957,147.298 131.624,146.132 128.5,146.5C 127.167,145.833 126.167,144.833 125.5,143.5C 124.286,141.192 124.286,138.859 125.5,136.5C 131.197,134.126 134.197,129.793 134.5,123.5C 142.446,122.308 150.446,121.641 158.5,121.5 Z"/></g>
<g><path style="opacity:1" fill="#4cc3db" d="M 87.5,115.5 C 88.6005,116.605 89.2671,117.938 89.5,119.5C 84.5712,119.747 79.9046,118.747 75.5,116.5C 74.7025,116.957 74.3691,117.624 74.5,118.5C 73.209,118.263 72.209,118.596 71.5,119.5C 69.9318,121.811 69.0984,124.478 69,127.5C 68.5006,132.823 68.334,138.156 68.5,143.5C 67.5,143.5 66.5,143.5 65.5,143.5C 65.7877,137.771 65.4544,132.104 64.5,126.5C 65.3467,125.155 66.5134,124.155 68,123.5C 68.658,121.892 68.158,120.725 66.5,120C 68.0368,118.89 68.7035,117.39 68.5,115.5C 72.1106,115.956 75.4439,115.289 78.5,113.5C 81.2761,115.13 84.2761,115.797 87.5,115.5 Z"/></g>
<g><path style="opacity:1" fill="#54c1df" d="M 145.5,95.5 C 145.663,97.8568 145.497,100.19 145,102.5C 142.549,106.406 140.382,110.406 138.5,114.5C 142.071,115.087 145.737,115.087 149.5,114.5C 149.557,115.609 149.89,116.609 150.5,117.5C 145.215,118.235 139.882,118.735 134.5,119C 131.442,122.965 128.276,126.799 125,130.5C 123.908,128.069 122.741,128.069 121.5,130.5C 121.5,129.5 121.5,128.5 121.5,127.5C 121.5,127.167 121.5,126.833 121.5,126.5C 125.772,123.965 125.439,122.632 120.5,122.5C 121.209,121.596 122.209,121.263 123.5,121.5C 123.5,119.833 123.5,118.167 123.5,116.5C 131.281,117.724 135.614,114.391 136.5,106.5C 139.907,104.011 142.24,100.678 143.5,96.5C 143.957,95.7025 144.624,95.3691 145.5,95.5 Z"/></g>
<g><path style="opacity:1" fill="#fbfbfb" d="M 107.5,142.5 C 106.71,143.401 105.71,144.068 104.5,144.5C 102.738,144.643 101.071,144.309 99.5,143.5C 98.7087,144.066 98.7087,144.899 99.5,146C 98.6815,147.319 97.6815,148.485 96.5,149.5C 92.0652,150.701 87.7319,152.201 83.5,154C 80.8428,154.175 78.1761,154.008 75.5,153.5C 74.6403,150.089 73.4737,146.756 72,143.5C 71.5006,138.177 71.334,132.844 71.5,127.5C 71.7061,122.842 74.2061,120.842 79,121.5C 84.8753,122.427 90.7086,123.594 96.5,125C 97.8333,126.333 97.8333,127.667 96.5,129C 99.3676,132.366 102.701,135.2 106.5,137.5C 107.452,139.045 107.785,140.712 107.5,142.5 Z"/></g>
<g><path style="opacity:1" fill="#fcf5f8" d="M 119.5,128.5 C 119.672,129.492 119.338,130.158 118.5,130.5C 117.127,130.657 115.793,130.49 114.5,130C 113.451,125.995 115.118,124.162 119.5,124.5C 119.5,125.833 119.5,127.167 119.5,128.5 Z"/></g>
<g><path style="opacity:1" fill="#e5fbfc" d="M 78.5,119.5 C 84.4561,120.496 90.4561,121.496 96.5,122.5C 98.1398,125.804 100.473,128.471 103.5,130.5C 103.5,130.833 103.5,131.167 103.5,131.5C 104.833,133.5 106.5,135.167 108.5,136.5C 110.138,138.955 109.805,140.955 107.5,142.5C 107.785,140.712 107.452,139.045 106.5,137.5C 102.701,135.2 99.3676,132.366 96.5,129C 97.8333,127.667 97.8333,126.333 96.5,125C 90.7086,123.594 84.8753,122.427 79,121.5C 74.2061,120.842 71.7061,122.842 71.5,127.5C 71.5,125.5 71.5,123.5 71.5,121.5C 73.4786,119.832 75.812,119.166 78.5,119.5 Z"/></g>
<g><path style="opacity:1" fill="#52c1e1" d="M 166.5,149.5 C 166.34,151.153 165.674,152.486 164.5,153.5C 164.631,152.761 164.464,152.094 164,151.5C 163.333,152.833 162.333,153.833 161,154.5C 160.833,153.833 160.667,153.167 160.5,152.5C 163.118,141.394 163.118,130.394 160.5,119.5C 162.144,119.286 163.644,119.62 165,120.5C 165.17,130.342 165.67,140.009 166.5,149.5 Z"/></g>
<g><path style="opacity:1" fill="#56c2d2" d="M 108.5,136.5 C 106.5,135.167 104.833,133.5 103.5,131.5C 105.915,131.373 108.249,131.207 110.5,131C 111.961,133.582 111.294,135.415 108.5,136.5 Z"/></g>
<g><path style="opacity:1" fill="#dbf9fc" d="M 71.5,127.5 C 71.334,132.844 71.5006,138.177 72,143.5C 73.4737,146.756 74.6403,150.089 75.5,153.5C 78.1761,154.008 80.8428,154.175 83.5,154C 87.7319,152.201 92.0652,150.701 96.5,149.5C 97.6815,148.485 98.6815,147.319 99.5,146C 98.7087,144.899 98.7087,144.066 99.5,143.5C 101.071,144.309 102.738,144.643 104.5,144.5C 99.1954,149.835 92.8621,153.502 85.5,155.5C 82.1667,156.833 78.8333,156.833 75.5,155.5C 69.9518,147.791 68.1185,139.124 70,129.5C 70.2784,128.584 70.7784,127.918 71.5,127.5 Z"/></g>
<g><path style="opacity:1" fill="#5dbdd9" d="M 107.5,122.5 C 106.761,122.369 106.094,122.536 105.5,123C 107.3,124.812 108.967,126.645 110.5,128.5C 111.812,130.479 113.479,132.145 115.5,133.5C 116.855,132.812 117.855,131.812 118.5,130.5C 119.338,130.158 119.672,129.492 119.5,128.5C 120.167,128.167 120.833,127.833 121.5,127.5C 121.5,128.5 121.5,129.5 121.5,130.5C 118.854,132.479 116.521,134.812 114.5,137.5C 114.556,138.737 115.056,139.737 116,140.5C 117.725,139.536 119.559,138.869 121.5,138.5C 122.167,140.167 122.833,141.833 123.5,143.5C 122.167,143.5 120.833,143.5 119.5,143.5C 119.567,144.959 119.234,146.292 118.5,147.5C 115.007,145.187 112.34,146.187 110.5,150.5C 106.091,153.567 101.424,156.233 96.5,158.5C 96.3893,157.883 96.056,157.383 95.5,157C 91.9748,156.821 88.6414,156.321 85.5,155.5C 92.8621,153.502 99.1954,149.835 104.5,144.5C 105.71,144.068 106.71,143.401 107.5,142.5C 109.805,140.955 110.138,138.955 108.5,136.5C 111.294,135.415 111.961,133.582 110.5,131C 108.249,131.207 105.915,131.373 103.5,131.5C 103.5,131.167 103.5,130.833 103.5,130.5C 103.443,129.391 103.11,128.391 102.5,127.5C 103.478,127.189 104.145,126.522 104.5,125.5C 102.707,122.749 101.041,119.916 99.5,117C 101.5,116.333 103.5,116.333 105.5,117C 108.284,118.248 108.95,120.081 107.5,122.5 Z"/></g>
<g><path style="opacity:1" fill="#5fbed0" d="M 123.5,143.5 C 124.167,143.5 124.833,143.5 125.5,143.5C 126.167,144.833 127.167,145.833 128.5,146.5C 130.833,148.5 133.167,150.5 135.5,152.5C 132.873,151.908 130.206,151.575 127.5,151.5C 127.769,149.571 127.269,147.905 126,146.5C 124.108,147.617 123.275,149.284 123.5,151.5C 121.251,150.92 119.585,149.587 118.5,147.5C 119.234,146.292 119.567,144.959 119.5,143.5C 120.833,143.5 122.167,143.5 123.5,143.5 Z"/></g>
<g><path style="opacity:1" fill="#d5f8fc" d="M 169.5,115.5 C 168.705,128.122 168.205,140.788 168,153.5C 166.726,157.251 164.226,159.584 160.5,160.5C 162.098,158.302 163.431,155.969 164.5,153.5C 165.674,152.486 166.34,151.153 166.5,149.5C 168.082,138.067 167.749,126.734 165.5,115.5C 166.833,115.5 168.167,115.5 169.5,115.5 Z"/></g>
<g><path style="opacity:1" fill="#5fbcd4" d="M 31.5,95.5 C 31.5,95.1667 31.5,94.8333 31.5,94.5C 34.7915,95.534 37.1248,97.7007 38.5,101C 40.5199,103.052 42.1866,102.885 43.5,100.5C 42.3698,99.3777 41.7031,98.0443 41.5,96.5C 48.8929,101.865 56.8929,106.198 65.5,109.5C 65.44,110.043 65.1067,110.376 64.5,110.5C 58.6828,108.344 53.0161,106.011 47.5,103.5C 47.238,104.978 47.5713,106.311 48.5,107.5C 54.7321,111.437 61.5654,113.771 69,114.5C 71.3987,114.387 73.2321,113.387 74.5,111.5C 75.1667,111.5 75.8333,111.5 76.5,111.5C 77.5,111.5 78.5,111.5 79.5,111.5C 82.6267,112.581 85.9601,113.247 89.5,113.5C 89.5,114.833 88.8333,115.5 87.5,115.5C 84.2761,115.797 81.2761,115.13 78.5,113.5C 75.4439,115.289 72.1106,115.956 68.5,115.5C 68.7035,117.39 68.0368,118.89 66.5,120C 68.158,120.725 68.658,121.892 68,123.5C 66.5134,124.155 65.3467,125.155 64.5,126.5C 65.4544,132.104 65.7877,137.771 65.5,143.5C 66.5,143.5 67.5,143.5 68.5,143.5C 68.334,138.156 68.5006,132.823 69,127.5C 69.0984,124.478 69.9318,121.811 71.5,119.5C 71.5,120.167 71.5,120.833 71.5,121.5C 71.5,123.5 71.5,125.5 71.5,127.5C 70.7784,127.918 70.2784,128.584 70,129.5C 68.1185,139.124 69.9518,147.791 75.5,155.5C 76.2341,156.708 76.5674,158.041 76.5,159.5C 78.1986,159.38 79.8653,159.046 81.5,158.5C 83.4466,159.277 85.2799,160.277 87,161.5C 88.6667,160.833 90.3333,160.167 92,159.5C 92.7648,159.57 93.2648,159.903 93.5,160.5C 87.1889,163.361 80.5223,164.194 73.5,163C 69.8972,160.902 67.2305,158.068 65.5,154.5C 62.9695,145.704 61.9695,136.704 62.5,127.5C 64.0666,124.083 64.5666,120.417 64,116.5C 56.2389,113.579 48.7389,110.079 41.5,106C 37.9349,102.604 34.6015,99.1045 31.5,95.5 Z"/></g>
<g><path style="opacity:1" fill="#e6fcfc" d="M 118.5,147.5 C 119.585,149.587 121.251,150.92 123.5,151.5C 133.435,162.317 145.435,165.65 159.5,161.5C 159.5,162.5 159.5,163.5 159.5,164.5C 152.792,165.997 146.125,165.83 139.5,164C 134.252,161.078 128.919,158.245 123.5,155.5C 120.976,153.81 118.976,151.643 117.5,149C 114.905,148.4 112.571,148.9 110.5,150.5C 112.34,146.187 115.007,145.187 118.5,147.5 Z"/></g>
<g><path style="opacity:1" fill="#5fbad0" d="M 169.5,114.5 C 169.5,114.833 169.5,115.167 169.5,115.5C 168.167,115.5 166.833,115.5 165.5,115.5C 167.749,126.734 168.082,138.067 166.5,149.5C 165.67,140.009 165.17,130.342 165,120.5C 163.644,119.62 162.144,119.286 160.5,119.5C 163.118,130.394 163.118,141.394 160.5,152.5C 160.667,153.167 160.833,153.833 161,154.5C 162.333,153.833 163.333,152.833 164,151.5C 164.464,152.094 164.631,152.761 164.5,153.5C 163.431,155.969 162.098,158.302 160.5,160.5C 159.833,160.5 159.5,160.833 159.5,161.5C 145.435,165.65 133.435,162.317 123.5,151.5C 123.275,149.284 124.108,147.617 126,146.5C 127.269,147.905 127.769,149.571 127.5,151.5C 134.638,159.386 143.638,162.886 154.5,162C 156.167,160.833 157.833,159.667 159.5,158.5C 153.907,158.374 148.241,158.208 142.5,158C 140.077,157.303 138.411,155.803 137.5,153.5C 139.435,154.15 141.435,154.483 143.5,154.5C 145.29,155.997 147.456,156.664 150,156.5C 154.505,156.159 157.338,153.826 158.5,149.5C 160.046,144.767 160.713,139.767 160.5,134.5C 160.333,130.833 160.167,127.167 160,123.5C 159.722,122.584 159.222,121.918 158.5,121.5C 158.5,120.5 158.5,119.5 158.5,118.5C 150.461,119.341 142.461,120.507 134.5,122C 130.303,127.687 125.97,133.187 121.5,138.5C 119.559,138.869 117.725,139.536 116,140.5C 115.056,139.737 114.556,138.737 114.5,137.5C 116.521,134.812 118.854,132.479 121.5,130.5C 122.741,128.069 123.908,128.069 125,130.5C 128.276,126.799 131.442,122.965 134.5,119C 139.882,118.735 145.215,118.235 150.5,117.5C 153.572,117.817 156.572,117.484 159.5,116.5C 162.438,113.933 165.771,113.266 169.5,114.5 Z"/></g>
<g><path style="opacity:1" fill="#50c2de" d="M 127.5,151.5 C 130.206,151.575 132.873,151.908 135.5,152.5C 136.492,152.328 137.158,152.662 137.5,153.5C 138.411,155.803 140.077,157.303 142.5,158C 148.241,158.208 153.907,158.374 159.5,158.5C 157.833,159.667 156.167,160.833 154.5,162C 143.638,162.886 134.638,159.386 127.5,151.5 Z"/></g>
<g><path style="opacity:1" fill="#dafbfd" d="M 158.5,149.5 C 157.338,153.826 154.505,156.159 150,156.5C 147.456,156.664 145.29,155.997 143.5,154.5C 146.572,154.817 149.572,154.484 152.5,153.5C 153.993,151.33 155.993,149.996 158.5,149.5 Z"/></g>
<g><path style="opacity:1" fill="#e6f9fb" d="M 128.5,146.5 C 131.624,146.132 133.957,147.298 135.5,150C 138.146,150.497 140.813,150.664 143.5,150.5C 143.5,151.833 143.5,153.167 143.5,154.5C 141.435,154.483 139.435,154.15 137.5,153.5C 137.158,152.662 136.492,152.328 135.5,152.5C 133.167,150.5 130.833,148.5 128.5,146.5 Z"/></g>
<g><path style="opacity:1" fill="#53c3d6" d="M 75.5,155.5 C 78.8333,156.833 82.1667,156.833 85.5,155.5C 88.6414,156.321 91.9748,156.821 95.5,157C 96.056,157.383 96.3893,157.883 96.5,158.5C 96.5,158.833 96.5,159.167 96.5,159.5C 95.391,159.557 94.391,159.89 93.5,160.5C 93.2648,159.903 92.7648,159.57 92,159.5C 90.3333,160.167 88.6667,160.833 87,161.5C 85.2799,160.277 83.4466,159.277 81.5,158.5C 79.8653,159.046 78.1986,159.38 76.5,159.5C 76.5674,158.041 76.2341,156.708 75.5,155.5 Z"/></g>
<g><path style="opacity:1" fill="#e6fbfc" d="M 65.5,154.5 C 67.2305,158.068 69.8972,160.902 73.5,163C 80.5223,164.194 87.1889,163.361 93.5,160.5C 94.391,159.89 95.391,159.557 96.5,159.5C 94.967,162.276 92.6337,164.11 89.5,165C 82.4885,165.272 75.4885,164.939 68.5,164C 66.8753,163.147 66.5419,162.147 67.5,161C 66.6028,158.913 65.9361,156.746 65.5,154.5 Z"/></g>
<g><path style="opacity:1" fill="#d8feff" d="M 162.5,181.5 C 164.265,180.539 166.265,180.205 168.5,180.5C 168.5,182.167 168.5,183.833 168.5,185.5C 170.099,185.232 171.432,185.566 172.5,186.5C 170.833,186.5 169.167,186.5 167.5,186.5C 167.5,184.833 167.5,183.167 167.5,181.5C 165.833,181.5 164.167,181.5 162.5,181.5 Z"/></g>
<g><path style="opacity:1" fill="#e1fcfe" d="M 72.5,179.5 C 67.8333,179.5 63.1667,179.5 58.5,179.5C 58.8269,189.015 58.4936,198.348 57.5,207.5C 57.8205,202.305 57.4872,197.305 56.5,192.5C 56.3481,187.774 56.3481,183.108 56.5,178.5C 57.7722,177.954 59.1055,177.621 60.5,177.5C 64.6776,177.956 68.6776,178.623 72.5,179.5 Z"/></g>
<g><path style="opacity:1" fill="#63bdc9" d="M 162.5,181.5 C 164.167,181.5 165.833,181.5 167.5,181.5C 167.5,183.167 167.5,184.833 167.5,186.5C 169.167,186.5 170.833,186.5 172.5,186.5C 173.434,187.568 173.768,188.901 173.5,190.5C 172.167,190.5 170.833,190.5 169.5,190.5C 167.81,189.897 166.31,188.897 165,187.5C 163.955,188.373 163.122,189.373 162.5,190.5C 161.5,190.5 160.5,190.5 159.5,190.5C 159.5,189.167 159.5,187.833 159.5,186.5C 160.5,186.5 161.5,186.5 162.5,186.5C 162.5,184.833 162.5,183.167 162.5,181.5 Z"/></g>
<g><path style="opacity:1" fill="#6abed2" d="M 72.5,179.5 C 74.4352,180.15 76.4352,180.483 78.5,180.5C 79.1642,182.487 80.3308,184.154 82,185.5C 82.7685,189.075 82.2685,192.408 80.5,195.5C 79.8333,196.833 78.8333,197.833 77.5,198.5C 77.5,197.5 77.5,196.5 77.5,195.5C 75.8333,195.5 74.1667,195.5 72.5,195.5C 76.1684,193.608 77.3351,190.608 76,186.5C 71.8789,184.336 67.7122,184.003 63.5,185.5C 62.5041,185.586 61.6708,185.252 61,184.5C 60.5034,186.81 60.3367,189.143 60.5,191.5C 59.8359,193.978 59.5025,196.645 59.5,199.5C 59.5217,202.59 60.1883,205.257 61.5,207.5C 62.1667,207.5 62.8333,207.5 63.5,207.5C 61.5,208.833 59.5,208.833 57.5,207.5C 58.4936,198.348 58.8269,189.015 58.5,179.5C 63.1667,179.5 67.8333,179.5 72.5,179.5 Z"/></g>
<g><path style="opacity:1" fill="#e4fdff" d="M 72.5,195.5 C 69.5,195.5 66.5,195.5 63.5,195.5C 63.5,192.167 63.5,188.833 63.5,185.5C 67.7122,184.003 71.8789,184.336 76,186.5C 77.3351,190.608 76.1684,193.608 72.5,195.5 Z"/></g>
<g><path style="opacity:1" fill="#f8fdf3" d="M 71.5,186.5 C 72.0671,188.698 72.0671,191.031 71.5,193.5C 69.3926,194.468 67.0593,194.802 64.5,194.5C 64.5,191.5 64.5,188.5 64.5,185.5C 66.9496,185.298 69.283,185.631 71.5,186.5 Z"/></g>
<g><path style="opacity:1" fill="#f9f3f9" d="M 71.5,186.5 C 76.5619,188.928 76.5619,191.262 71.5,193.5C 72.0671,191.031 72.0671,188.698 71.5,186.5 Z"/></g>
<g><path style="opacity:1" fill="#67bbd1" d="M 106.5,191.5 C 104.135,190.406 101.635,189.739 99,189.5C 97.6153,189.514 96.4486,189.848 95.5,190.5C 94.8333,190.5 94.5,190.833 94.5,191.5C 94.1667,191.5 93.8333,191.5 93.5,191.5C 91.4805,192.538 91.1472,193.872 92.5,195.5C 92.5,196.5 92.5,197.5 92.5,198.5C 91.1667,199.167 91.1667,199.833 92.5,200.5C 93.4166,202.511 95.0832,203.511 97.5,203.5C 99.5477,203.328 101.548,202.995 103.5,202.5C 104.643,202.908 105.643,203.575 106.5,204.5C 104.985,206.082 103.319,207.416 101.5,208.5C 97.753,208.608 94.0863,208.108 90.5,207C 89.3636,205.855 88.3636,204.688 87.5,203.5C 86.6758,200.236 86.3424,196.902 86.5,193.5C 87.1103,191.566 88.1103,189.899 89.5,188.5C 93.2686,186.581 97.2686,186.081 101.5,187C 103.66,187.996 105.327,189.496 106.5,191.5 Z"/></g>
<g><path style="opacity:1" fill="#60bae0" d="M 169.5,190.5 C 167.824,191.183 167.157,192.517 167.5,194.5C 166.788,195.739 165.788,196.239 164.5,196C 163.891,194.052 163.224,192.218 162.5,190.5C 163.122,189.373 163.955,188.373 165,187.5C 166.31,188.897 167.81,189.897 169.5,190.5 Z"/></g>
<g><path style="opacity:1" fill="#6cb6d8" d="M 127.5,187.5 C 129.262,188.262 130.262,189.596 130.5,191.5C 129.596,192.209 129.263,193.209 129.5,194.5C 128.391,194.443 127.391,194.11 126.5,193.5C 125.942,192.21 124.942,191.377 123.5,191C 120.961,190.204 118.628,190.371 116.5,191.5C 116.167,191.5 115.833,191.5 115.5,191.5C 114.167,191.5 113.5,190.833 113.5,189.5C 118.619,190.103 123.285,189.436 127.5,187.5 Z"/></g>
<g><path style="opacity:1" fill="#5db9d7" d="M 63.5,185.5 C 63.5,188.833 63.5,192.167 63.5,195.5C 66.5,195.5 69.5,195.5 72.5,195.5C 71.7659,196.708 71.4326,198.041 71.5,199.5C 68.8333,199.5 66.1667,199.5 63.5,199.5C 63.5,202.167 63.5,204.833 63.5,207.5C 62.8333,207.5 62.1667,207.5 61.5,207.5C 61.8214,201.974 61.4881,196.64 60.5,191.5C 60.3367,189.143 60.5034,186.81 61,184.5C 61.6708,185.252 62.5041,185.586 63.5,185.5 Z"/></g>
<g><path style="opacity:1" fill="#d8fafb" d="M 78.5,180.5 C 80.371,180.859 81.871,181.859 83,183.5C 83.4983,186.817 83.665,190.15 83.5,193.5C 84.5,193.5 85.5,193.5 86.5,193.5C 86.3424,196.902 86.6758,200.236 87.5,203.5C 86.2502,203.423 85.4169,202.756 85,201.5C 84.5045,199.527 84.3379,197.527 84.5,195.5C 83.1667,195.5 81.8333,195.5 80.5,195.5C 82.2685,192.408 82.7685,189.075 82,185.5C 80.3308,184.154 79.1642,182.487 78.5,180.5 Z"/></g>
<g><path style="opacity:1" fill="#cbfafd" d="M 169.5,190.5 C 170.833,190.5 172.167,190.5 173.5,190.5C 172.081,191.451 170.415,191.784 168.5,191.5C 168.5,195.167 168.5,198.833 168.5,202.5C 167.527,200.052 167.194,197.385 167.5,194.5C 167.157,192.517 167.824,191.183 169.5,190.5 Z"/></g>
<g><path style="opacity:1" fill="#defcfe" d="M 94.5,191.5 C 94.5,190.833 94.8333,190.5 95.5,190.5C 99.0982,190.135 101.765,191.468 103.5,194.5C 100.914,195.48 98.2469,195.813 95.5,195.5C 94.5,195.5 93.5,195.5 92.5,195.5C 91.1472,193.872 91.4805,192.538 93.5,191.5C 93.5,192.5 93.5,193.5 93.5,194.5C 102.055,194.345 102.389,193.345 94.5,191.5 Z"/></g>
<g><path style="opacity:1" fill="#f7f9f7" d="M 93.5,191.5 C 93.8333,191.5 94.1667,191.5 94.5,191.5C 102.389,193.345 102.055,194.345 93.5,194.5C 93.5,193.5 93.5,192.5 93.5,191.5 Z"/></g>
<g><path style="opacity:1" fill="#6ab7d4" d="M 95.5,190.5 C 96.4486,189.848 97.6153,189.514 99,189.5C 101.635,189.739 104.135,190.406 106.5,191.5C 107.117,191.611 107.617,191.944 108,192.5C 108.495,194.473 108.662,196.473 108.5,198.5C 104.167,198.5 99.8333,198.5 95.5,198.5C 95.5,197.5 95.5,196.5 95.5,195.5C 98.2469,195.813 100.914,195.48 103.5,194.5C 101.765,191.468 99.0982,190.135 95.5,190.5 Z"/></g>
<g><path style="opacity:1" fill="#5bbbb8" d="M 92.5,195.5 C 93.5,195.5 94.5,195.5 95.5,195.5C 95.5,196.5 95.5,197.5 95.5,198.5C 94.5,198.5 93.5,198.5 92.5,198.5C 92.5,197.5 92.5,196.5 92.5,195.5 Z"/></g>
<g><path style="opacity:1" fill="#def9fb" d="M 116.5,191.5 C 118.628,190.371 120.961,190.204 123.5,191C 124.942,191.377 125.942,192.21 126.5,193.5C 126.672,194.492 126.338,195.158 125.5,195.5C 121.958,195.187 118.625,195.521 115.5,196.5C 113.983,196.511 112.816,197.177 112,198.5C 111.503,200.81 111.337,203.143 111.5,205.5C 108.381,207.051 105.048,208.051 101.5,208.5C 103.319,207.416 104.985,206.082 106.5,204.5C 105.643,203.575 104.643,202.908 103.5,202.5C 105.588,202.135 107.921,202.135 110.5,202.5C 110.715,200.821 110.048,199.821 108.5,199.5C 108.5,199.167 108.5,198.833 108.5,198.5C 108.662,196.473 108.495,194.473 108,192.5C 107.617,191.944 107.117,191.611 106.5,191.5C 105.327,189.496 103.66,187.996 101.5,187C 97.2686,186.081 93.2686,186.581 89.5,188.5C 89.5,187.5 89.5,186.5 89.5,185.5C 94.8437,185.334 100.177,185.501 105.5,186C 106.05,187.845 107.05,189.345 108.5,190.5C 109.452,192.045 109.785,193.712 109.5,195.5C 111.57,195.551 113.403,194.885 115,193.5C 118.174,194.71 121.341,194.71 124.5,193.5C 121.988,192.205 119.321,191.539 116.5,191.5 Z"/></g>
<g><path style="opacity:1" fill="#d6f7fa" d="M 130.5,208.5 C 130.5,202.833 130.5,197.167 130.5,191.5C 130.262,189.596 129.262,188.262 127.5,187.5C 122.349,185.916 117.349,186.249 112.5,188.5C 112.624,189.107 112.957,189.44 113.5,189.5C 113.5,190.833 114.167,191.5 115.5,191.5C 114.614,192.776 113.614,192.776 112.5,191.5C 111.652,189.591 111.318,187.591 111.5,185.5C 117.509,185.334 123.509,185.501 129.5,186C 130,186.5 130.5,187 131,187.5C 132.123,193.775 132.956,200.109 133.5,206.5C 132.995,207.919 131.995,208.585 130.5,208.5 Z"/></g>
<g><path style="opacity:1" fill="#5bbdc7" d="M 127.5,187.5 C 123.285,189.436 118.619,190.103 113.5,189.5C 112.957,189.44 112.624,189.107 112.5,188.5C 117.349,186.249 122.349,185.916 127.5,187.5 Z"/></g>
<g><path style="opacity:1" fill="#66b1d7" d="M 125.5,195.5 C 125.5,196.5 125.5,197.5 125.5,198.5C 122.941,198.198 120.607,198.532 118.5,199.5C 117.833,199.5 117.167,199.5 116.5,199.5C 115.596,198.791 115.263,197.791 115.5,196.5C 118.625,195.521 121.958,195.187 125.5,195.5 Z"/></g>
<g><path style="opacity:1" fill="#e5fbfc" d="M 159.5,186.5 C 159.5,187.833 159.5,189.167 159.5,190.5C 160.5,190.5 161.5,190.5 162.5,190.5C 162.5,194.833 162.5,199.167 162.5,203.5C 161.686,201.369 161.186,199.036 161,196.5C 160.481,195.484 159.647,194.818 158.5,194.5C 154.825,195.931 151.325,195.598 148,193.5C 147.115,196 145.948,198.333 144.5,200.5C 147.086,201.48 149.753,201.813 152.5,201.5C 148.012,205.798 144.346,205.131 141.5,199.5C 141.107,196.487 141.774,193.82 143.5,191.5C 146.465,190.266 149.465,190.266 152.5,191.5C 154.089,192.621 155.756,192.454 157.5,191C 153.189,186.576 148.189,185.41 142.5,187.5C 137.032,189.578 135.032,193.578 136.5,199.5C 137.043,202.038 138.043,204.372 139.5,206.5C 134.879,203.422 133.379,199.089 135,193.5C 137.753,184.901 143.586,181.734 152.5,184C 154.306,184.81 155.806,185.976 157,187.5C 157.902,187.257 158.735,186.923 159.5,186.5 Z"/></g>
<g><path style="opacity:1" fill="#68bad3" d="M 142.5,187.5 C 145.293,187.746 148.293,187.913 151.5,188C 153.373,188.953 153.706,190.12 152.5,191.5C 149.465,190.266 146.465,190.266 143.5,191.5C 142.167,191.5 140.833,191.5 139.5,191.5C 139.982,194.831 138.982,197.497 136.5,199.5C 135.032,193.578 137.032,189.578 142.5,187.5 Z"/></g>
<g><path style="opacity:1" fill="#72b6c3" d="M 152.5,191.5 C 153.706,190.12 153.373,188.953 151.5,188C 148.293,187.913 145.293,187.746 142.5,187.5C 148.189,185.41 153.189,186.576 157.5,191C 155.756,192.454 154.089,192.621 152.5,191.5 Z"/></g>
<g><path style="opacity:1" fill="#4ac2ca" d="M 72.5,195.5 C 74.1667,195.5 75.8333,195.5 77.5,195.5C 77.5,196.5 77.5,197.5 77.5,198.5C 76.8333,198.5 76.5,198.833 76.5,199.5C 74.8333,199.5 73.1667,199.5 71.5,199.5C 71.4326,198.041 71.7659,196.708 72.5,195.5 Z"/></g>
<g><path style="opacity:1" fill="#b3f0fd" d="M 92.5,198.5 C 93.5,198.5 94.5,198.5 95.5,198.5C 99.8333,198.5 104.167,198.5 108.5,198.5C 108.5,198.833 108.5,199.167 108.5,199.5C 102.974,199.179 97.6405,199.512 92.5,200.5C 91.1667,199.833 91.1667,199.167 92.5,198.5 Z"/></g>
<g><path style="opacity:1" fill="#b0ecfd" d="M 118.5,199.5 C 120.607,198.532 122.941,198.198 125.5,198.5C 126.167,198.5 126.5,198.833 126.5,199.5C 126.5,200.167 126.167,200.5 125.5,200.5C 123.393,199.532 121.059,199.198 118.5,199.5 Z"/></g>
<g><path style="opacity:1" fill="#f0fbfb" d="M 108.5,199.5 C 110.048,199.821 110.715,200.821 110.5,202.5C 107.921,202.135 105.588,202.135 103.5,202.5C 101.548,202.995 99.5477,203.328 97.5,203.5C 95.0832,203.511 93.4166,202.511 92.5,200.5C 97.6405,199.512 102.974,199.179 108.5,199.5 Z"/></g>
<g><path style="opacity:1" fill="#6abbcc" d="M 71.5,200.5 C 71.5,200.167 71.5,199.833 71.5,199.5C 73.1667,199.5 74.8333,199.5 76.5,199.5C 78.4793,202.099 80.4793,204.765 82.5,207.5C 80.9255,208.631 79.2588,208.798 77.5,208C 76.6266,206.955 75.6266,206.122 74.5,205.5C 73.8897,203.566 72.8897,201.899 71.5,200.5 Z"/></g>
<g><path style="opacity:1" fill="#4bc0cf" d="M 60.5,191.5 C 61.4881,196.64 61.8214,201.974 61.5,207.5C 60.1883,205.257 59.5217,202.59 59.5,199.5C 59.5025,196.645 59.8359,193.978 60.5,191.5 Z"/></g>
<g><path style="opacity:1" fill="#55bfdb" d="M 126.5,193.5 C 127.391,194.11 128.391,194.443 129.5,194.5C 129.5,198.833 129.5,203.167 129.5,207.5C 128.5,207.5 127.5,207.5 126.5,207.5C 126.158,206.662 125.492,206.328 124.5,206.5C 125.473,204.851 126.473,203.184 127.5,201.5C 127.457,200.584 127.124,199.917 126.5,199.5C 126.5,198.833 126.167,198.5 125.5,198.5C 125.5,197.5 125.5,196.5 125.5,195.5C 126.338,195.158 126.672,194.492 126.5,193.5 Z"/></g>
<g><path style="opacity:1" fill="#5ab1be" d="M 130.5,191.5 C 130.5,197.167 130.5,202.833 130.5,208.5C 129.167,208.5 127.833,208.5 126.5,208.5C 126.5,208.167 126.5,207.833 126.5,207.5C 127.5,207.5 128.5,207.5 129.5,207.5C 129.5,203.167 129.5,198.833 129.5,194.5C 129.263,193.209 129.596,192.209 130.5,191.5 Z"/></g>
<g><path style="opacity:1" fill="#d1f8fe" d="M 71.5,199.5 C 71.5,199.833 71.5,200.167 71.5,200.5C 69.4727,200.338 67.4727,200.505 65.5,201C 64.8828,203.277 64.2161,205.444 63.5,207.5C 63.5,204.833 63.5,202.167 63.5,199.5C 66.1667,199.5 68.8333,199.5 71.5,199.5 Z"/></g>
<g><path style="opacity:1" fill="#5bc2cd" d="M 143.5,191.5 C 141.774,193.82 141.107,196.487 141.5,199.5C 141.5,201.833 141.5,204.167 141.5,206.5C 140.833,206.5 140.167,206.5 139.5,206.5C 138.043,204.372 137.043,202.038 136.5,199.5C 138.982,197.497 139.982,194.831 139.5,191.5C 140.833,191.5 142.167,191.5 143.5,191.5 Z"/></g>
<g><path style="opacity:1" fill="#f3fcfb" d="M 56.5,192.5 C 57.4872,197.305 57.8205,202.305 57.5,207.5C 59.5,208.833 61.5,208.833 63.5,207.5C 64.2161,205.444 64.8828,203.277 65.5,201C 67.4727,200.505 69.4727,200.338 71.5,200.5C 72.8897,201.899 73.8897,203.566 74.5,205.5C 72.396,205.201 70.396,205.534 68.5,206.5C 67.4825,207.852 66.1492,208.852 64.5,209.5C 64.0234,210.931 63.3567,212.264 62.5,213.5C 61.1667,212.167 59.8333,212.167 58.5,213.5C 56.7598,212.164 55.0932,210.83 53.5,209.5C 53.8333,208.5 54.5,207.833 55.5,207.5C 56.4941,202.544 56.8275,197.544 56.5,192.5 Z"/></g>
<g><path style="opacity:1" fill="#6bbfd1" d="M 162.5,190.5 C 163.224,192.218 163.891,194.052 164.5,196C 165.788,196.239 166.788,195.739 167.5,194.5C 167.194,197.385 167.527,200.052 168.5,202.5C 170.5,203.167 172.5,203.833 174.5,204.5C 174.845,207.488 173.512,208.821 170.5,208.5C 166.667,208.498 164.001,206.831 162.5,203.5C 162.5,199.167 162.5,194.833 162.5,190.5 Z"/></g>
<g><path style="opacity:1" fill="#65bccf" d="M 115.5,196.5 C 115.263,197.791 115.596,198.791 116.5,199.5C 116.468,204.213 118.801,205.713 123.5,204C 124.823,203.184 125.489,202.017 125.5,200.5C 126.167,200.5 126.5,200.167 126.5,199.5C 127.124,199.917 127.457,200.584 127.5,201.5C 126.473,203.184 125.473,204.851 124.5,206.5C 120.037,209.316 115.703,208.983 111.5,205.5C 111.337,203.143 111.503,200.81 112,198.5C 112.816,197.177 113.983,196.511 115.5,196.5 Z"/></g>
<g><path style="opacity:1" fill="#e6fdfb" d="M 116.5,199.5 C 117.167,199.5 117.833,199.5 118.5,199.5C 121.059,199.198 123.393,199.532 125.5,200.5C 125.489,202.017 124.823,203.184 123.5,204C 118.801,205.713 116.468,204.213 116.5,199.5 Z"/></g>
<g><path style="opacity:1" fill="#69b7cd" d="M 141.5,199.5 C 144.346,205.131 148.012,205.798 152.5,201.5C 156.161,201.35 157.161,202.85 155.5,206C 151.792,208.132 147.792,208.965 143.5,208.5C 142.833,207.833 142.167,207.167 141.5,206.5C 141.5,204.167 141.5,201.833 141.5,199.5 Z"/></g>
<g><path style="opacity:1" fill="#e1fbfe" d="M 152.5,201.5 C 154.364,200.207 156.364,200.207 158.5,201.5C 157.919,207.471 154.586,210.137 148.5,209.5C 146.631,209.493 144.964,209.16 143.5,208.5C 147.792,208.965 151.792,208.132 155.5,206C 157.161,202.85 156.161,201.35 152.5,201.5 Z"/></g>
<g><path style="opacity:1" fill="#e8fcfd" d="M 111.5,205.5 C 115.703,208.983 120.037,209.316 124.5,206.5C 125.492,206.328 126.158,206.662 126.5,207.5C 126.5,207.833 126.5,208.167 126.5,208.5C 125.5,208.5 124.5,208.5 123.5,208.5C 123.5,209.5 123.5,210.5 123.5,211.5C 119.395,211.766 115.395,211.266 111.5,210C 111.966,208.701 111.966,207.201 111.5,205.5 Z"/></g>
<g><path style="opacity:1" fill="#edfcfc" d="M 162.5,203.5 C 164.001,206.831 166.667,208.498 170.5,208.5C 173.512,208.821 174.845,207.488 174.5,204.5C 175.693,204.97 176.36,205.97 176.5,207.5C 176.604,210.891 174.938,212.224 171.5,211.5C 167.534,211.377 163.867,210.377 160.5,208.5C 160.846,207.304 161.346,207.304 162,208.5C 162.494,206.866 162.66,205.199 162.5,203.5 Z"/></g>
</svg>
