<svg width="98" height="87" viewBox="0 0 98 87" fill="none" xmlns="http://www.w3.org/2000/svg">
<path d="M97.2736 43.3243C97.2736 36.9161 89.2487 30.8432 76.9451 27.0772C79.7844 14.537 78.5225 4.56003 72.9622 1.36583C71.6806 0.616572 70.182 0.26166 68.5455 0.26166V4.65862C69.4525 4.65862 70.1821 4.83608 70.7933 5.17127C73.4748 6.70922 74.6382 12.5653 73.7312 20.0973C73.5143 21.9507 73.1594 23.9027 72.7256 25.8942C68.861 24.9477 64.6415 24.2182 60.2051 23.745C57.5433 20.0973 54.7828 16.7848 52.0027 13.8863C58.4305 7.91197 64.464 4.6389 68.5652 4.6389V0.241943C63.143 0.241943 56.0447 4.10654 48.8676 10.8104C41.6905 4.14597 34.5923 0.320813 29.1701 0.320813V4.71777C33.2515 4.71777 39.3047 7.97113 45.7326 13.906C42.9722 16.8045 40.2118 20.0973 37.5893 23.745C33.1332 24.2182 28.9137 24.9477 25.0491 25.9139C24.5956 23.9421 24.2604 22.0296 24.0238 20.1959C23.0971 12.6638 24.2407 6.80781 26.9026 5.25014C27.4941 4.89523 28.2631 4.73749 29.1701 4.73749V0.34053C27.5138 0.34053 26.0153 0.695441 24.7139 1.4447C19.1734 4.6389 17.9312 14.5961 20.7902 27.0969C8.52604 30.8826 0.540527 36.9358 0.540527 43.3243C0.540527 49.7324 8.56547 55.8053 20.8691 59.5713C18.0298 72.1115 19.2917 82.0885 24.852 85.2827C26.1336 86.0319 27.6321 86.3868 29.2884 86.3868C34.7106 86.3868 41.8088 82.5223 48.9859 75.8184C56.163 82.4828 63.2613 86.308 68.6835 86.308C70.3398 86.308 71.8383 85.9531 73.1396 85.2038C78.6802 82.0096 79.9224 72.0524 77.0634 59.5516C89.2881 55.7856 97.2736 49.7127 97.2736 43.3243ZM71.6017 30.1728C70.8721 32.7163 69.9652 35.3387 68.9399 37.9611C68.1314 36.3838 67.2836 34.8064 66.3569 33.229C65.4499 31.6516 64.4838 30.1137 63.5176 28.6151C66.3175 29.0292 69.0187 29.5419 71.6017 30.1728ZM62.5712 51.1717C61.0332 53.8336 59.4558 56.3574 57.8193 58.7038C54.8814 58.9601 51.9041 59.0981 48.9071 59.0981C45.9298 59.0981 42.9525 58.9601 40.0343 58.7235C38.3978 56.3771 36.8007 53.873 35.2627 51.2309C33.7642 48.6479 32.4037 46.0255 31.1615 43.3834C32.384 40.7413 33.7642 38.0992 35.243 35.5162C36.7809 32.8544 38.3583 30.3305 39.9949 27.9842C42.9327 27.7279 45.91 27.5898 48.9071 27.5898C51.8844 27.5898 54.8617 27.7279 57.7799 27.9645C59.4164 30.3108 61.0135 32.8149 62.5515 35.4571C64.05 38.04 65.4105 40.6624 66.6526 43.3045C65.4105 45.9467 64.05 48.5888 62.5712 51.1717ZM68.9399 48.6085C70.0046 51.2506 70.9116 53.8927 71.6609 56.456C69.0779 57.0869 66.3569 57.6193 63.5373 58.0334C64.5035 56.5151 65.4696 54.9575 66.3766 53.3604C67.2836 51.783 68.1314 50.1859 68.9399 48.6085ZM48.9465 69.6469C47.1128 67.754 45.2791 65.6442 43.4651 63.3373C45.2397 63.4162 47.0536 63.4753 48.8874 63.4753C50.7408 63.4753 52.5745 63.4359 54.3688 63.3373C52.5942 65.6442 50.7605 67.754 48.9465 69.6469ZM34.2768 58.0334C31.477 57.6193 28.7757 57.1067 26.1927 56.4757C26.9223 53.9322 27.8293 51.3098 28.8546 48.6874C29.663 50.2647 30.5108 51.8421 31.4375 53.4195C32.3643 54.9969 33.3107 56.5348 34.2768 58.0334ZM48.8479 17.0017C50.6816 18.8945 52.5153 21.0043 54.3293 23.3112C52.5548 23.2323 50.7408 23.1732 48.9071 23.1732C47.0537 23.1732 45.2199 23.2126 43.4257 23.3112C45.2002 21.0043 47.0339 18.8945 48.8479 17.0017ZM34.2571 28.6151C33.291 30.1334 32.3248 31.691 31.4178 33.2881C30.5108 34.8655 29.663 36.4429 28.8546 38.0203C27.7898 35.3782 26.8828 32.7361 26.1336 30.1728C28.7166 29.5616 31.4375 29.0292 34.2571 28.6151ZM16.413 53.3012C9.43303 50.3239 4.91777 46.4199 4.91777 43.3243C4.91777 40.2286 9.43303 36.3049 16.413 33.3473C18.1087 32.6178 19.9621 31.9671 21.8747 31.3559C22.9985 35.2204 24.4773 39.2428 26.311 43.3637C24.4971 47.4649 23.038 51.4675 21.9338 55.3124C19.9818 54.7011 18.1284 54.0308 16.413 53.3012ZM27.0209 81.4772C24.3393 79.9393 23.176 74.0832 24.083 66.5512C24.2999 64.6978 24.6548 62.7458 25.0886 60.7543C28.9532 61.7008 33.1727 62.4303 37.6091 62.9035C40.2709 66.5512 43.0313 69.8637 45.8115 72.7622C39.3836 78.7365 33.3501 82.0096 29.2489 82.0096C28.3616 81.9899 27.6124 81.8124 27.0209 81.4772ZM73.7903 66.4527C74.717 73.9847 73.5734 79.8407 70.9116 81.3984C70.3201 81.7533 69.5511 81.911 68.6441 81.911C64.5626 81.911 58.5094 78.6577 52.0816 72.7228C54.842 69.8243 57.6024 66.5315 60.2248 62.8838C64.6809 62.4106 68.9004 61.6811 72.765 60.7149C73.2185 62.7064 73.5734 64.6189 73.7903 66.4527ZM81.3815 53.3012C79.6858 54.0308 77.8324 54.6814 75.9198 55.2927C74.7959 51.4281 73.3171 47.4057 71.4834 43.2848C73.2974 39.1836 74.7565 35.181 75.8606 31.3361C77.8127 31.9474 79.6661 32.6178 81.4012 33.3473C88.3811 36.3246 92.8964 40.2286 92.8964 43.3243C92.8767 46.4199 88.3614 50.3436 81.3815 53.3012Z" fill="#61DAFB"/>
<path d="M48.8873 52.3358C53.8638 52.3358 57.8981 48.3015 57.8981 43.325C57.8981 38.3485 53.8638 34.3142 48.8873 34.3142C43.9107 34.3142 39.8765 38.3485 39.8765 43.325C39.8765 48.3015 43.9107 52.3358 48.8873 52.3358Z" fill="#61DAFB"/>
</svg>
