<svg width="87" height="86" viewBox="0 0 87 86" fill="none" xmlns="http://www.w3.org/2000/svg">
<path d="M82.7012 69.3583V49.7578C82.7012 41.882 76.3222 35.503 68.4464 35.503H39.9367C32.0609 35.503 25.6818 41.882 25.6818 49.7578V69.3583C23.508 70.9976 22.1181 73.5634 22.1181 76.4857C22.1181 81.4036 26.1095 85.395 31.0274 85.395H77.3557C82.2736 85.395 86.2649 81.4036 86.2649 76.4857C86.2649 73.5634 84.8751 70.9976 82.7012 69.3583ZM29.2455 49.7578C29.2455 43.8777 34.0565 39.0667 39.9367 39.0667H68.4464C74.3265 39.0667 79.1375 43.8777 79.1375 49.7578V67.7546C78.5673 67.6477 77.9615 67.5764 77.3557 67.5764H68.1256C66.7358 67.5764 65.3459 68.1466 64.3481 69.1444L62.887 70.6056C62.5662 70.9263 62.103 71.1401 61.6397 71.1401H46.779C46.3157 71.1401 45.8524 70.9619 45.5317 70.6056L44.0706 69.1444C43.0727 68.1466 41.6829 67.5764 40.293 67.5764H31.063C30.4572 67.5764 29.8514 67.6477 29.2812 67.7546V49.7578H29.2455ZM77.3557 81.8313H31.0274C28.0695 81.8313 25.6818 79.4436 25.6818 76.4857C25.6818 73.5278 28.0695 71.1401 31.0274 71.1401H40.2574C40.7207 71.1401 41.184 71.3183 41.5047 71.6747L42.9658 73.1358C43.9637 74.1336 45.3535 74.7038 46.7434 74.7038H61.604C62.9939 74.7038 64.3837 74.1336 65.3816 73.1358L66.8427 71.6747C67.1634 71.3539 67.6267 71.1401 68.09 71.1401H77.32C80.2779 71.1401 82.6656 73.5278 82.6656 76.4857C82.6656 79.4436 80.2779 81.8313 77.32 81.8313H77.3557ZM18.5544 58.6671C18.5544 59.665 17.7704 60.449 16.7725 60.449H13.2088C6.33087 60.449 0.73584 54.854 0.73584 47.976V27.057C0.73584 22.1034 2.98098 17.4706 6.90106 14.4415L21.1559 3.28704C26.7509 -1.09633 35.3038 -1.09633 40.9345 3.28704L50.6635 10.8777V5.21144C50.6635 4.2136 51.4475 3.42959 52.4453 3.42959C53.4431 3.42959 54.2272 4.2136 54.2272 5.21144V13.6574L55.1894 14.4058C58.9313 17.3281 61.1764 21.7471 61.319 26.5224C61.319 27.5203 60.5706 28.3399 59.6084 28.3756C58.5749 28.4468 57.7909 27.6272 57.7552 26.665C57.6483 22.9587 55.9021 19.5376 52.9799 17.2568L38.725 6.06673C34.3773 2.64557 27.7131 2.64557 23.3654 6.06673L9.07493 17.2212C6.04577 19.6088 4.29955 23.1726 4.29955 27.057V47.976C4.29955 52.8939 8.29091 56.8853 13.2088 56.8853H16.7725C17.7704 56.8853 18.5544 57.6693 18.5544 58.6671Z" fill="#323F49"/>
</svg>
