<svg width="81" height="78" viewBox="0 0 81 78" fill="none" xmlns="http://www.w3.org/2000/svg">
<path d="M40.5004 56.001V69.4701C40.5004 70.413 39.7596 71.1538 38.8168 71.1538H23.664C22.7211 71.1538 21.9803 70.413 21.9803 69.4701C21.9803 68.5273 22.7211 67.7865 23.664 67.7865H37.1331V57.6846H15.2458C6.89488 57.6846 0.0929565 50.8827 0.0929565 42.5318V15.5935C0.0929565 7.2426 6.89488 0.440674 15.2458 0.440674H62.3878C70.7387 0.440674 77.5406 7.2426 77.5406 15.5935V18.9608C77.5406 19.9036 76.7998 20.6444 75.857 20.6444C74.9141 20.6444 74.1733 19.9036 74.1733 18.9608V15.5935C74.1733 9.09461 68.8867 3.80796 62.3878 3.80796H15.2458C8.74689 3.80796 3.46025 9.09461 3.46025 15.5935V42.5318C3.46025 49.0307 8.74689 54.3173 15.2458 54.3173H38.8168C39.7596 54.3173 40.5004 55.0581 40.5004 56.001ZM80.9079 39.1645V66.1028C80.9079 72.6017 75.6213 77.8883 69.1224 77.8883H59.0205C52.5217 77.8883 47.235 72.6017 47.235 66.1028V39.1645C47.235 32.6656 52.5217 27.379 59.0205 27.379H69.1224C75.6213 27.379 80.9079 32.6656 80.9079 39.1645ZM77.5406 39.1645C77.5406 34.5176 73.7693 30.7463 69.1224 30.7463H59.0205C54.3737 30.7463 50.6023 34.5176 50.6023 39.1645V66.1028C50.6023 70.7497 54.3737 74.5211 59.0205 74.5211H69.1224C73.7693 74.5211 77.5406 70.7497 77.5406 66.1028V39.1645Z" fill="#323F49"/>
</svg>
