<svg width="77" height="75" viewBox="0 0 77 75" fill="none" xmlns="http://www.w3.org/2000/svg">
<path d="M76.2559 15.3673V11.9998C76.2559 5.50058 70.8274 0.213623 64.1542 0.213623H12.2897C5.61647 0.213623 0.187988 5.50058 0.187988 11.9998V15.3673C0.187988 19.6777 2.60142 23.4156 6.15586 25.4698C2.60142 27.524 0.187988 31.2619 0.187988 35.5723V38.9398C0.187988 43.2502 2.60142 46.9881 6.15586 49.0422C2.60142 51.0964 0.187988 54.8343 0.187988 59.1447V62.5122C0.187988 69.0115 5.61647 74.2984 12.2897 74.2984H64.1542C70.8274 74.2984 76.2559 69.0115 76.2559 62.5122V59.1447C76.2559 54.8343 73.8425 51.0964 70.288 49.0422C73.8425 46.9881 76.2559 43.2502 76.2559 38.9398V35.5723C76.2559 31.2619 73.8425 27.524 70.288 25.4698C73.8425 23.4156 76.2559 19.6777 76.2559 15.3673ZM72.7983 59.1447V62.5122C72.7983 67.156 68.9223 70.9309 64.1542 70.9309H12.2897C7.52163 70.9309 3.64562 67.156 3.64562 62.5122V59.1447C3.64562 54.5009 7.52163 50.726 12.2897 50.726H14.0185V55.7772C14.0185 56.7066 14.793 57.461 15.7473 57.461C16.7016 57.461 17.4762 56.7066 17.4762 55.7772V50.726H27.8491V55.7772C27.8491 56.7066 28.6236 57.461 29.5779 57.461C30.5322 57.461 31.3067 56.7066 31.3067 55.7772V50.726H64.1542C68.9223 50.726 72.7983 54.5009 72.7983 59.1447ZM72.7983 35.5723V38.9398C72.7983 43.5835 68.9223 47.3585 64.1542 47.3585H12.2897C7.52163 47.3585 3.64562 43.5835 3.64562 38.9398V35.5723C3.64562 30.9285 7.52163 27.1535 12.2897 27.1535H14.0185V32.2048C14.0185 33.1342 14.793 33.8885 15.7473 33.8885C16.7016 33.8885 17.4762 33.1342 17.4762 32.2048V27.1535H27.8491V32.2048C27.8491 33.1342 28.6236 33.8885 29.5779 33.8885C30.5322 33.8885 31.3067 33.1342 31.3067 32.2048V27.1535H64.1542C68.9223 27.1535 72.7983 30.9285 72.7983 35.5723ZM12.2897 23.7861C7.52163 23.7861 3.64562 20.0111 3.64562 15.3673V11.9998C3.64562 7.35607 7.52163 3.58111 12.2897 3.58111H14.0185V8.63235C14.0185 9.56178 14.793 10.3161 15.7473 10.3161C16.7016 10.3161 17.4762 9.56178 17.4762 8.63235V3.58111H27.8491V8.63235C27.8491 9.56178 28.6236 10.3161 29.5779 10.3161C30.5322 10.3161 31.3067 9.56178 31.3067 8.63235V3.58111H64.1542C68.9223 3.58111 72.7983 7.35607 72.7983 11.9998V15.3673C72.7983 20.0111 68.9223 23.7861 64.1542 23.7861H12.2897Z" fill="#323F49"/>
</svg>
