<svg width="72" height="81" viewBox="0 0 72 81" fill="none" xmlns="http://www.w3.org/2000/svg">
<path fill-rule="evenodd" clip-rule="evenodd" d="M50.1967 79.3853L50.0184 10.8367C49.5567 10.375 48.6561 10.5145 48.3041 10.6173L45.9589 11.3442C45.6695 10.3916 45.2938 9.46743 44.8367 8.58303C43.1727 5.40589 40.7407 3.72589 37.7967 3.72132H37.7875C37.5909 3.72132 37.3967 3.7396 37.2001 3.7556L37.1772 3.75789C37.0921 3.65303 37.0037 3.55088 36.9121 3.4516C35.6321 2.08018 33.9864 1.41046 32.0161 1.4676C28.2172 1.57732 24.4344 4.32475 21.3647 9.20475C19.2047 12.6402 17.5658 16.9533 17.0972 20.2927L9.61609 22.6127C7.41495 23.3053 7.34637 23.3739 7.05609 25.4516C6.83895 27.0242 1.07666 71.639 1.07666 71.639L49.3692 80.0002L50.1967 79.3853ZM34.3749 4.60132C33.7327 4.17846 32.9807 3.98189 32.0892 4.00018C26.2241 4.16932 21.1087 13.3419 19.8035 19.4539L25.4218 17.7122L26.4252 17.4013C27.1612 13.5202 29.0081 9.49275 31.4241 6.90075C32.2688 5.97196 33.266 5.1943 34.3727 4.60132H34.3749ZM29.2024 16.5396L37.2664 14.039C37.2915 11.9362 37.0629 8.8276 36.0115 6.63332C34.8915 7.09503 33.9498 7.90418 33.2732 8.62875C31.4607 10.5785 29.9818 13.5522 29.2047 16.5396H29.2024ZM39.7921 13.2573L43.5407 12.0939C42.9418 10.1465 41.5201 6.88246 38.6378 6.33389C39.5338 8.64932 39.7647 11.3305 39.7921 13.2573Z" fill="#95BF47"/>
<path d="M61.0171 15.9362C60.7291 15.9133 55.1474 15.8264 55.1474 15.8264C55.1474 15.8264 50.4777 11.287 50.016 10.823C49.8372 10.658 49.6108 10.554 49.3691 10.5259V79.9887L70.2949 74.7796C70.2949 74.7796 61.7554 16.9716 61.7006 16.5762C61.6742 16.4082 61.5923 16.254 61.468 16.138C61.3437 16.022 61.1865 15.9509 61.0171 15.9362Z" fill="#5E8E3E"/>
<path d="M37.7714 26.7224L35.3394 35.8287C35.3394 35.8287 32.6286 34.5921 29.4126 34.7955C24.6994 35.0927 24.6492 38.071 24.6972 38.8184C24.9532 42.887 35.6526 43.7784 36.2537 53.3167C36.7269 60.8207 32.2789 65.9567 25.8697 66.359C18.1783 66.8458 13.9429 62.3018 13.9429 62.3018L15.5726 55.3578C15.5726 55.3578 19.8354 58.5784 23.2457 58.3613C25.4766 58.2218 26.272 56.407 26.192 55.1224C25.856 49.8127 17.1429 50.1235 16.592 41.3967C16.1303 34.0481 20.9463 26.6081 31.5772 25.9361C35.6732 25.6755 37.7714 26.7247 37.7714 26.7247" fill="white"/>
</svg>
