<svg width="83" height="67" viewBox="0 0 83 67" fill="none" xmlns="http://www.w3.org/2000/svg">
<path d="M17.3562 35.8761L43.2671 9.99281C45.0176 8.25164 47.3862 7.27425 49.8551 7.27425C52.3241 7.27425 54.6927 8.25164 56.4432 9.99281L58.4568 12.0065L62.4933 7.96996L60.4797 5.94711C57.6561 3.1296 53.8302 1.54724 49.8413 1.54724C45.8525 1.54724 42.0266 3.1296 39.203 5.94711L13.3105 31.8396L17.3562 35.8761Z" fill="black"/>
<path d="M51.9469 18.5162L47.9104 14.4797L21.9904 40.3997C20.2395 42.1494 17.8652 43.1319 15.3899 43.131C12.9146 43.1301 10.541 42.146 8.7913 40.3951C7.04161 38.6442 6.05912 36.2699 6.05998 33.7946C6.06084 31.3193 7.04498 28.9457 8.7959 27.196L31.1576 4.83435L27.1211 0.797852L4.7594 23.1595C3.33585 24.5501 2.20236 26.2092 1.42457 28.0409C0.646791 29.8726 0.240181 31.8405 0.228296 33.8304C0.21641 35.8204 0.599486 37.7929 1.35533 39.6338C2.11118 41.4747 3.22477 43.1473 4.63161 44.5547C6.03845 45.9622 7.71057 47.0765 9.55111 47.8331C11.3917 48.5898 13.364 48.9737 15.354 48.9627C17.344 48.9517 19.312 48.5459 21.144 47.7689C22.9761 46.9919 24.6357 45.8591 26.0269 44.4362L51.9469 18.5162ZM77.7474 23.1595C74.9227 20.3442 71.0972 18.7634 67.1091 18.7634C63.121 18.7634 59.2955 20.3442 56.4707 23.1595L30.5507 49.0795L34.5872 53.1161L60.5072 27.196C61.8129 25.8929 63.4755 25.006 65.285 24.6472C67.0945 24.2885 68.9697 24.4741 70.6738 25.1805C72.3779 25.8869 73.8344 27.0825 74.8594 28.6163C75.8844 30.15 76.4318 31.9531 76.4326 33.7979C76.4373 35.0268 76.1956 36.2442 75.7218 37.3781C75.2481 38.512 74.5518 39.5395 73.6741 40.3997L51.3401 62.7614L55.3858 66.7979L77.7474 44.4362C80.5649 41.6126 82.1473 37.7867 82.1473 33.7979C82.1473 29.809 80.5649 25.9831 77.7474 23.1595Z" fill="black"/>
<path d="M65.1504 31.7195L39.2304 57.6303C37.4776 59.3777 35.1035 60.3588 32.6286 60.3588C30.1536 60.3588 27.7795 59.3777 26.0267 57.6303L24.0131 55.6075L19.9766 59.644L21.9902 61.6668C24.815 64.4821 28.6405 66.0629 32.6286 66.0629C36.6167 66.0629 40.4422 64.4821 43.2669 61.6668L69.1869 35.7376L65.1504 31.7195Z" fill="black"/>
</svg>
