<svg width="81" height="82" viewBox="0 0 81 82" fill="none" xmlns="http://www.w3.org/2000/svg">
<path d="M29.7255 58.6515C30.4697 59.2104 30.6212 60.2644 30.0623 61.0086C29.7323 61.4497 29.2272 61.682 28.7154 61.682C28.3652 61.682 28.0116 61.5743 27.7085 61.3453L12.778 50.1491C10.7542 48.627 8.24224 47.792 5.70667 47.792H1.77704C0.847672 47.792 0.093399 47.0377 0.093399 46.1083C0.093399 45.1789 0.847672 44.4247 1.77704 44.4247H5.70667C8.96621 44.4247 12.1954 45.4988 14.7984 47.4552L29.7255 58.6515ZM33.7663 34.3228C33.5373 34.3228 33.9953 34.3396 33.7663 34.3228V34.3228ZM43.9995 27.6556L51.2762 33.1139C51.5793 33.3396 51.9328 33.4507 52.283 33.4507C52.7948 33.4507 53.2999 33.2183 53.6299 32.7772C54.1889 32.033 54.0374 30.9791 53.2932 30.4201L46.461 25.2985L53.5794 18.4864C54.2529 17.8433 54.2765 16.7792 53.6333 16.1058C52.9902 15.4323 51.9227 15.4121 51.2526 16.0519L37.2245 29.4773C36.1739 30.5279 34.7159 31.033 33.2444 30.942C31.7426 30.8208 30.4226 30.0665 29.5235 28.8206C28.1092 26.8575 28.4594 23.9583 30.3014 22.1164L46.1445 7.20265C49.6363 3.90944 55.1048 3.10466 59.4116 5.25299L67.2068 9.15231C69.3013 10.1995 71.6449 10.7518 73.9852 10.7518H79.2247C80.1541 10.7518 80.9083 9.9975 80.9083 9.06813C80.9083 8.13875 80.1541 7.38448 79.2247 7.38448H73.9852C72.1635 7.38448 70.3418 6.95347 68.7154 6.13858L60.9201 2.23926C55.3776 -0.525282 48.3399 0.511843 43.8379 4.74789L40.6221 7.77845L37.1134 4.5829C34.3286 2.04733 30.7223 0.649902 26.8297 0.649902C24.5029 0.649902 22.1693 1.20214 20.085 2.24263L12.2897 6.14195C10.6633 6.95684 8.83825 7.38785 7.01991 7.38785H1.77704C0.847672 7.38785 0.093399 8.14212 0.093399 9.07149C0.093399 10.0009 0.847672 10.7551 1.77704 10.7551H7.01655C9.35681 10.7551 11.7004 10.2029 13.7949 9.15568L21.5868 5.25635C25.6612 3.22251 31.2543 3.80169 34.8438 7.07469L38.164 10.0985L27.9645 19.702C24.9305 22.7326 24.4322 27.4973 26.7994 30.7871C28.2608 32.821 30.4024 34.3262 33.7697 34.3262C35.4533 34.3262 38.0259 33.4507 39.5883 31.8849L44.0062 27.6589L43.9995 27.6556ZM67.9173 54.9677L58.8055 63.7832C57.6707 64.8944 55.8254 64.9079 54.6873 63.7967L50.0976 59.2677C49.4377 58.6144 48.3669 58.6245 47.717 59.2812C47.0637 59.9445 47.0705 61.0119 47.7338 61.6618L52.3268 66.1976C53.5458 67.3896 55.1452 67.9856 56.7447 67.9856C58.3441 67.9856 59.947 67.3862 61.1592 66.1908L70.261 57.3887C70.9277 56.7422 70.9479 55.6748 70.3014 55.0081C69.6582 54.3413 68.5874 54.3245 67.9173 54.9677ZM80.905 59.5775C80.905 71.6458 71.086 81.4649 59.0176 81.4649C46.9492 81.4649 37.1302 71.6458 37.1302 59.5775C37.1302 47.5091 46.9492 37.6901 59.0176 37.6901C71.086 37.6901 80.905 47.5091 80.905 59.5775ZM77.5377 59.5775C77.5377 49.3678 69.2306 41.0574 59.0176 41.0574C48.8046 41.0574 40.4975 49.3678 40.4975 59.5775C40.4975 69.7871 48.8046 78.0976 59.0176 78.0976C69.2306 78.0976 77.5377 69.7871 77.5377 59.5775Z" fill="#323F49"/>
</svg>
