<svg width="83" height="75" viewBox="0 0 83 75" fill="none" xmlns="http://www.w3.org/2000/svg">
<path d="M67.3856 7.61877H43.2211C42.4268 7.61877 41.6257 7.43356 40.914 7.08671L30.0626 1.77281C28.8764 1.19023 27.5458 0.883789 26.2186 0.883789H15.8074C7.28034 0.883789 0.338379 7.68275 0.338379 16.0375V59.8149C0.338379 68.1696 7.28034 74.9686 15.8108 74.9686H29.5641C30.5131 74.9686 31.2832 74.2143 31.2832 73.2848C31.2832 72.3554 30.5131 71.6011 29.5641 71.6011H15.8108C9.17485 71.6011 3.7767 66.3141 3.7767 59.8149V24.4562H79.4197V59.8149C79.4197 66.3141 74.0215 71.6011 67.3856 71.6011H53.6323C52.6833 71.6011 51.9131 72.3554 51.9131 73.2848C51.9131 74.2143 52.6833 74.9686 53.6323 74.9686H67.3856C75.916 74.9686 82.858 68.1696 82.858 59.8149V22.7725C82.858 14.4177 75.916 7.61877 67.3856 7.61877ZM3.7767 16.0375C3.7767 9.53824 9.17485 4.25128 15.8108 4.25128H26.222C27.0163 4.25128 27.8174 4.43649 28.5291 4.78334L39.3805 10.0972C40.5667 10.6798 41.8973 10.9863 43.2245 10.9863H67.389C73.4404 10.9863 78.4638 15.3842 79.2993 21.0887H3.7767V16.0375ZM43.9466 42.2366C43.754 42.048 43.5443 41.8897 43.3173 41.7584V73.2882C43.3173 74.2176 42.5472 74.9719 41.5982 74.9719C40.6492 74.9719 39.879 74.2176 39.879 73.2882V41.7618C39.6521 41.8965 39.4355 42.0581 39.2361 42.2534L30.6024 50.8944C29.9389 51.5612 28.8523 51.5713 28.1716 50.9213C27.4942 50.2714 27.4805 49.2039 28.1441 48.5405L36.7914 39.8861C38.1117 38.5929 39.8378 37.943 41.5638 37.9329H41.6257C43.3517 37.9397 45.0743 38.5862 46.3843 39.8726L55.0454 48.5405C55.709 49.2039 55.6953 50.2714 55.0179 50.9213C54.6844 51.2412 54.2478 51.4029 53.8145 51.4029C53.3675 51.4029 52.924 51.2345 52.587 50.8978L43.9397 42.2433L43.9466 42.2366Z" fill="#323F49"/>
</svg>
