<?xml version="1.0" encoding="UTF-8"?>
<!DOCTYPE svg PUBLIC "-//W3C//DTD SVG 1.1//EN" "http://www.w3.org/Graphics/SVG/1.1/DTD/svg11.dtd">
<svg xmlns="http://www.w3.org/2000/svg" version="1.1" width="220px" height="220px" style="shape-rendering:geometricPrecision; text-rendering:geometricPrecision; image-rendering:optimizeQuality; fill-rule:evenodd; clip-rule:evenodd" xmlns:xlink="http://www.w3.org/1999/xlink">
<g><path style="opacity:1" fill="#fcfcfc" d="M -0.5,-0.5 C 72.8333,-0.5 146.167,-0.5 219.5,-0.5C 219.5,72.8333 219.5,146.167 219.5,219.5C 146.167,219.5 72.8333,219.5 -0.5,219.5C -0.5,146.167 -0.5,72.8333 -0.5,-0.5 Z"/></g>
<g><path style="opacity:1" fill="#87c8e0" d="M 109.5,92.5 C 109.443,93.609 109.11,94.609 108.5,95.5C 106.856,95.8102 105.856,96.8102 105.5,98.5C 96.0754,108.383 85.0754,116.05 72.5,121.5C 78.2411,113.24 83.4078,104.573 88,95.5C 95.1861,76.856 96.3528,57.856 91.5,38.5C 91.8333,38.1667 92.1667,37.8333 92.5,37.5C 102.524,54.5322 108.191,72.8656 109.5,92.5 Z"/></g>
<g><path style="opacity:1" fill="#e1f9fd" d="M 125.5,55.5 C 127.509,59.5476 129.009,63.8809 130,68.5C 130.5,78.1609 130.666,87.8276 130.5,97.5C 131.552,97.3505 132.552,97.5172 133.5,98C 130.927,100.273 128.927,102.939 127.5,106C 127.833,106.5 128.167,107 128.5,107.5C 131.196,106.149 133.53,104.316 135.5,102C 136.448,101.517 137.448,101.351 138.5,101.5C 137.167,102.833 135.833,104.167 134.5,105.5C 130.801,108.35 126.801,110.683 122.5,112.5C 122.5,112.167 122.5,111.833 122.5,111.5C 129.202,99.0496 131.368,85.7163 129,71.5C 127.514,66.2227 126.347,60.8893 125.5,55.5 Z"/></g>
<g><path style="opacity:1" fill="#47a8cd" d="M 125.5,55.5 C 126.347,60.8893 127.514,66.2227 129,71.5C 131.368,85.7163 129.202,99.0496 122.5,111.5C 121.522,111.189 120.855,110.522 120.5,109.5C 121.897,107.018 122.731,104.352 123,101.5C 124.556,100.48 125.722,99.147 126.5,97.5C 128.191,91.9274 128.691,86.2607 128,80.5C 127.567,85.6675 126.733,90.6675 125.5,95.5C 123.5,95.5 121.5,95.5 119.5,95.5C 119.442,89.7437 117.109,88.4104 112.5,91.5C 111.571,92.6888 111.238,94.0222 111.5,95.5C 110.5,95.5 109.5,95.5 108.5,95.5C 109.11,94.609 109.443,93.609 109.5,92.5C 113.332,88.1807 116.165,83.1807 118,77.5C 120.41,69.603 122.41,61.603 124,53.5C 124.278,54.4158 124.778,55.0825 125.5,55.5 Z"/></g>
<g><path style="opacity:1" fill="#3fabd7" d="M 122.5,111.5 C 122.5,111.833 122.5,112.167 122.5,112.5C 115.602,115.935 108.269,118.269 100.5,119.5C 103.071,112.757 105.405,105.923 107.5,99C 106.906,98.5357 106.239,98.369 105.5,98.5C 105.856,96.8102 106.856,95.8102 108.5,95.5C 109.5,95.5 110.5,95.5 111.5,95.5C 111.238,94.0222 111.571,92.6888 112.5,91.5C 117.109,88.4104 119.442,89.7437 119.5,95.5C 121.5,95.5 123.5,95.5 125.5,95.5C 126.733,90.6675 127.567,85.6675 128,80.5C 128.691,86.2607 128.191,91.9274 126.5,97.5C 125.722,99.147 124.556,100.48 123,101.5C 122.731,104.352 121.897,107.018 120.5,109.5C 120.855,110.522 121.522,111.189 122.5,111.5 Z"/></g>
<g><path style="opacity:1" fill="#2a9ece" d="M 105.5,98.5 C 106.239,98.369 106.906,98.5357 107.5,99C 105.405,105.923 103.071,112.757 100.5,119.5C 91.6547,120.524 82.988,121.524 74.5,122.5C 73.5481,124.045 73.2148,125.712 73.5,127.5C 72.0532,126.866 71.3866,125.699 71.5,124C 71.528,122.93 71.8614,122.097 72.5,121.5C 85.0754,116.05 96.0754,108.383 105.5,98.5 Z"/></g>
<g><path style="opacity:1" fill="#1e90c1" d="M 73.5,127.5 C 73.2148,125.712 73.5481,124.045 74.5,122.5C 82.988,121.524 91.6547,120.524 100.5,119.5C 108.269,118.269 115.602,115.935 122.5,112.5C 126.801,110.683 130.801,108.35 134.5,105.5C 135.833,104.167 137.167,102.833 138.5,101.5C 142.183,97.9749 145.35,93.9749 148,89.5C 150.064,103.91 145.897,116.077 135.5,126C 122.882,132.201 109.548,134.201 95.5,132C 90.8333,131.667 86.1667,131.333 81.5,131C 78.4349,130.632 75.7682,129.465 73.5,127.5 Z"/></g>
<g><path style="opacity:1" fill="#0791ce" d="M 134.5,105.5 C 139.608,104.812 142.941,101.978 144.5,97C 145.6,96.5683 146.267,97.0683 146.5,98.5C 145.19,101.632 143.523,104.466 141.5,107C 143.043,109.33 143.543,111.83 143,114.5C 139.221,118.279 135.387,122.113 131.5,126C 125.749,126.521 120.083,127.521 114.5,129C 108.141,129.831 101.807,129.664 95.5,128.5C 102.238,127.716 108.405,125.382 114,121.5C 116.333,121.5 118.667,121.5 121,121.5C 123.463,118.804 125.963,118.471 128.5,120.5C 129.782,118.821 130.782,116.987 131.5,115C 133.577,114.808 135.577,114.308 137.5,113.5C 138.246,112.264 138.579,110.93 138.5,109.5C 137.167,109.5 135.833,109.5 134.5,109.5C 134.5,108.167 134.5,106.833 134.5,105.5 Z"/></g>
<g><path style="opacity:1" fill="#272727" d="M 90.5,142.5 C 91.5,142.5 92.5,142.5 93.5,142.5C 93.5,152.167 93.5,161.833 93.5,171.5C 92.5,171.5 91.5,171.5 90.5,171.5C 90.5,161.833 90.5,152.167 90.5,142.5 Z"/></g>
<g><path style="opacity:1" fill="#878686" d="M 90.5,142.5 C 91.5676,141.566 92.901,141.232 94.5,141.5C 94.8274,151.681 94.494,161.681 93.5,171.5C 93.5,161.833 93.5,152.167 93.5,142.5C 92.5,142.5 91.5,142.5 90.5,142.5 Z"/></g>
<g><path style="opacity:1" fill="#373737" d="M 80.5,145.5 C 81.8333,145.5 83.1667,145.5 84.5,145.5C 84.5,146.833 84.5,148.167 84.5,149.5C 83.1667,149.5 81.8333,149.5 80.5,149.5C 80.5,148.167 80.5,146.833 80.5,145.5 Z"/></g>
<g><path style="opacity:1" fill="#222222" d="M 127.5,145.5 C 128.833,145.5 130.167,145.5 131.5,145.5C 131.5,146.833 131.5,148.167 131.5,149.5C 130.167,149.5 128.833,149.5 127.5,149.5C 127.5,148.167 127.5,146.833 127.5,145.5 Z"/></g>
<g><path style="opacity:1" fill="#848484" d="M 53.5,147.5 C 52.5,147.5 51.5,147.5 50.5,147.5C 50.8016,150.059 50.4682,152.393 49.5,154.5C 49.5,151.833 49.5,149.167 49.5,146.5C 51.099,146.232 52.4324,146.566 53.5,147.5 Z"/></g>
<g><path style="opacity:1" fill="#333333" d="M 97.5,154.5 C 98.8333,154.5 100.167,154.5 101.5,154.5C 103.771,169.101 106.104,169.101 108.5,154.5C 109.978,154.238 111.311,154.571 112.5,155.5C 113.836,158.838 115.17,162.172 116.5,165.5C 118.278,162.054 119.278,158.387 119.5,154.5C 120.833,154.5 122.167,154.5 123.5,154.5C 122.644,160.069 120.977,165.402 118.5,170.5C 117.311,171.429 115.978,171.762 114.5,171.5C 112.436,157.697 109.769,157.364 106.5,170.5C 105.311,171.429 103.978,171.762 102.5,171.5C 100.635,165.903 98.9682,160.237 97.5,154.5 Z"/></g>
<g><path style="opacity:1" fill="#363636" d="M 127.5,153.5 C 128.833,153.5 130.167,153.5 131.5,153.5C 131.5,159.5 131.5,165.5 131.5,171.5C 130.167,171.5 128.833,171.5 127.5,171.5C 127.5,165.5 127.5,159.5 127.5,153.5 Z"/></g>
<g><path style="opacity:1" fill="#5a5a5a" d="M 168.5,142.5 C 169.568,141.566 170.901,141.232 172.5,141.5C 172.5,151.833 172.5,162.167 172.5,172.5C 170.901,172.768 169.568,172.434 168.5,171.5C 169.5,171.5 170.5,171.5 171.5,171.5C 171.5,161.833 171.5,152.167 171.5,142.5C 170.5,142.5 169.5,142.5 168.5,142.5 Z"/></g>
<g><path style="opacity:1" fill="#727272" d="M 84.5,154.5 C 83.5,154.5 82.5,154.5 81.5,154.5C 81.5,160.167 81.5,165.833 81.5,171.5C 80.5104,165.69 80.1771,159.69 80.5,153.5C 82.099,153.232 83.4324,153.566 84.5,154.5 Z"/></g>
<g><path style="opacity:1" fill="#292929" d="M 84.5,154.5 C 84.5,160.167 84.5,165.833 84.5,171.5C 83.5,171.5 82.5,171.5 81.5,171.5C 81.5,165.833 81.5,160.167 81.5,154.5C 82.5,154.5 83.5,154.5 84.5,154.5 Z"/></g>
<g><path style="opacity:1" fill="#343434" d="M 135.5,153.5 C 137.451,153.227 138.951,153.893 140,155.5C 144.018,152.561 147.685,152.895 151,156.5C 151.499,161.489 151.666,166.489 151.5,171.5C 150.167,171.5 148.833,171.5 147.5,171.5C 147.666,167.154 147.499,162.821 147,158.5C 144.667,157.167 142.333,157.167 140,158.5C 139.501,162.821 139.334,167.154 139.5,171.5C 138.167,171.5 136.833,171.5 135.5,171.5C 135.5,165.5 135.5,159.5 135.5,153.5 Z"/></g>
<g><path style="opacity:1" fill="#333333" d="M 168.5,142.5 C 169.5,142.5 170.5,142.5 171.5,142.5C 171.5,152.167 171.5,161.833 171.5,171.5C 170.5,171.5 169.5,171.5 168.5,171.5C 165.403,171.429 162.07,171.262 158.5,171C 153.268,165.632 153.268,160.299 158.5,155C 161.423,153.29 164.423,153.123 167.5,154.5C 168.491,150.555 168.824,146.555 168.5,142.5 Z"/></g>
<g><path style="opacity:1" fill="#f4f4f4" d="M 160.5,157.5 C 168.558,157.145 170.558,160.479 166.5,167.5C 161.376,169.43 158.709,167.596 158.5,162C 158.519,160.167 159.185,158.667 160.5,157.5 Z"/></g>
<g><path style="opacity:1" fill="#363636" d="M 65.5,153.5 C 69.4587,153.071 72.9587,154.071 76,156.5C 76.4993,161.489 76.6659,166.489 76.5,171.5C 73.3232,170.323 70.1565,170.323 67,171.5C 60.5293,170.725 59.0293,167.558 62.5,162C 65.7699,161.005 69.1033,160.172 72.5,159.5C 72.2907,158.914 71.9574,158.414 71.5,158C 68.854,157.503 66.1873,157.336 63.5,157.5C 63.5271,155.801 64.1938,154.467 65.5,153.5 Z"/></g>
<g><path style="opacity:1" fill="#f2f2f2" d="M 65.5,163.5 C 67.8333,163.5 70.1667,163.5 72.5,163.5C 73.2447,166.93 71.9114,168.597 68.5,168.5C 64.7117,168.456 63.7117,166.79 65.5,163.5 Z"/></g>
<g><path style="opacity:1" fill="#313131" d="M 53.5,147.5 C 53.5,149.833 53.5,152.167 53.5,154.5C 54.8333,154.5 56.1667,154.5 57.5,154.5C 57.5,155.5 57.5,156.5 57.5,157.5C 56.1667,157.5 54.8333,157.5 53.5,157.5C 53.335,160.85 53.5017,164.183 54,167.5C 55.0113,168.337 56.1779,168.67 57.5,168.5C 57.5,169.5 57.5,170.5 57.5,171.5C 53.8184,172.275 51.3184,170.941 50,167.5C 49.9278,163.469 49.0944,159.636 47.5,156C 47.8361,154.97 48.5028,154.47 49.5,154.5C 50.4682,152.393 50.8016,150.059 50.5,147.5C 51.5,147.5 52.5,147.5 53.5,147.5 Z"/></g>
</svg>
