<svg width="252" height="10" viewBox="0 0 252 10" fill="none" xmlns="http://www.w3.org/2000/svg">
<path d="M32.216 -0.97448L32.859 -1.094L31.6078 -1.26536L32.2076 -1.3908C32.809 -1.38965 33.5883 -1.2017 34.0124 -1.30156C34.0642 -1.39826 33.4093 -1.42929 33.2421 -1.50633C33.0943 -1.58529 32.9736 -1.66374 32.8815 -1.74073C33.209 -1.7399 33.5691 -1.72128 33.9404 -1.68596C34.4399 -1.62827 34.9297 -1.60022 35.3559 -1.60492C36.2276 -1.58934 37.0696 -1.60488 38.0172 -1.60146L37.7019 -1.83417L38.9232 -1.77973C39.0526 -1.762 39.2069 -1.79051 39.3341 -1.76858C40.3925 -1.58301 40.8404 -1.68413 41.3485 -1.76797C41.4526 -1.78967 41.5781 -1.80587 41.7216 -1.81615C43.1335 -1.77169 44.4067 -1.51159 45.6783 -1.37806C45.9176 -1.34397 46.1471 -1.30021 46.3506 -1.24988C46.7929 -1.15205 47.2849 -1.07216 47.7815 -1.01755C48.2781 -0.962937 48.7636 -0.935338 49.1935 -0.937264C50.1441 -0.939426 51.2182 -0.874711 52.3117 -0.749387C52.6369 -0.708106 52.9622 -0.680876 53.2671 -0.669426C53.572 -0.657976 53.8497 -0.662557 54.0823 -0.682887L54.8216 -0.550047C55.1421 -0.603948 55.5484 -0.633524 56.016 -0.636973C56.4836 -0.640422 57.0027 -0.617677 57.5417 -0.570117C58.1162 -0.518522 58.6996 -0.483742 59.2956 -0.429193C60.5268 -0.324907 61.725 -0.26113 62.853 -0.23984C64.5328 -0.176751 66.174 -0.127972 67.8687 -0.0493158C68.9288 -0.0113496 69.9618 0.00953318 70.9613 0.0132213C72.1587 0.0280715 73.4538 0.0999615 74.7843 0.225423C74.7212 0.343135 74.1378 0.30836 73.7463 0.304376C72.4831 0.284812 71.1903 0.234114 69.8908 0.196028C69.3053 0.181162 68.736 0.17553 68.1861 0.179176C67.2668 0.174296 66.2977 0.142932 65.2953 0.0856178C63.7119 0.0225534 62.179 -0.00776086 60.7124 -0.00501674C60.5975 -0.000354057 60.4921 0.00790749 60.3982 0.0196316C60.3786 0.0297855 60.3747 0.0425906 60.3869 0.0568158C60.3992 0.0710409 60.4271 0.0862168 60.4681 0.100882C60.509 0.115546 60.5616 0.12921 60.6208 0.140571C60.68 0.151931 60.7439 0.160608 60.8062 0.165764C61.3887 0.245537 62.0143 0.331216 62.5636 0.34327C62.5849 0.34417 62.6075 0.346226 62.6299 0.349292C62.6523 0.352358 62.6738 0.356356 62.6931 0.360996C63.9228 0.529406 64.9338 0.500908 65.8918 0.528307C67.4821 0.60236 69.0152 0.636948 70.4679 0.631553C70.6874 0.63192 70.9245 0.641547 71.1704 0.660085C72.6918 0.735232 74.1145 0.743637 75.3717 0.68492C75.8891 0.670044 76.3702 0.63665 76.9262 0.636091C77.2687 0.633792 77.5669 0.612481 77.8027 0.573434C78.0385 0.534387 78.2072 0.47841 78.2985 0.408871C78.5331 0.445483 78.7714 0.478111 79.0104 0.506367C79.1532 0.522523 79.2902 0.526814 79.3935 0.51836C79.4969 0.509906 79.5591 0.489339 79.5675 0.460817C79.6103 0.380941 79.2844 0.340827 79.0017 0.306622C79.1722 0.289492 79.3643 0.279414 79.5736 0.276632C80.7517 0.258381 82.0153 0.279922 83.337 0.340784C84.3632 0.413633 85.1823 0.354338 86.262 0.457071C86.3914 0.474799 86.498 0.44878 86.6171 0.442533C86.9278 0.409633 87.3148 0.402239 87.7445 0.420995C88.1743 0.439752 88.6339 0.484094 89.0836 0.550175C89.6435 0.369638 90.8529 0.575886 91.7461 0.594422C92.0211 0.686233 91.7055 0.670093 91.692 0.695317C91.6785 0.720541 91.692 0.695311 91.5841 0.680538C90.6923 0.81056 89.4706 0.838912 88.0902 0.761609C87.835 0.761929 87.5917 0.767852 87.3629 0.779321C87.0162 0.795554 86.6254 0.793933 86.2076 0.77453C85.751 0.760279 85.3316 0.767048 84.9695 0.794507C84.7613 0.79406 84.5851 0.807817 84.4575 0.83451C84.3298 0.861203 84.2548 0.899969 84.2393 0.947203C84.3784 0.983617 84.5326 1.01694 84.6959 1.04584C85.5486 1.15995 86.399 1.20719 87.0796 1.17825C88.2642 1.12839 89.6739 1.17704 90.9335 1.16002C91.785 1.15313 92.6911 1.17277 93.6346 1.21858C93.6346 1.21858 93.6099 1.26482 93.6076 1.26903C93.7192 1.28905 93.8365 1.30511 93.9528 1.3163C93.9528 1.3163 93.9528 1.3163 93.964 1.29528C93.9123 1.2751 93.8422 1.25611 93.7618 1.24051L93.4814 1.2021C93.672 1.19211 93.8501 1.16235 94.0487 1.18053C94.4673 1.21431 94.8674 1.22857 95.2248 1.22247C95.5823 1.21636 95.8898 1.19001 96.1287 1.145C96.5523 1.08731 97.0792 1.06107 97.6752 1.06798C98.132 1.06169 98.5722 1.04815 98.9938 1.02744C98.9938 1.02744 99.0208 0.976998 99.2204 0.950186C99.0314 0.917118 98.8342 0.890115 98.638 0.870417C97.7844 0.821204 96.9285 0.776194 96.0897 0.742547C95.7808 0.738912 95.4903 0.744549 95.2239 0.759349C94.4859 0.776667 93.6568 0.752088 92.7848 0.687042C92.7848 0.687042 92.6123 0.663407 92.526 0.651589C92.7707 0.540697 93.6142 0.651713 93.9555 0.576614C94.1632 0.577981 94.5287 0.587425 94.5162 0.567654C94.4877 0.541272 94.4843 0.516763 94.5062 0.495885C94.5281 0.475008 94.5748 0.458278 94.6429 0.446897C94.7109 0.435517 94.7987 0.429764 94.8999 0.430056C95.0012 0.430349 95.1133 0.436681 95.2284 0.44859C96.1887 0.513019 97.0931 0.530934 97.8864 0.501242C98.1871 0.501815 98.5243 0.520912 98.8228 0.525689C99.0055 0.531443 99.1723 0.528242 99.3141 0.516264C100.035 0.42805 101.006 0.421608 102.08 0.497905C102.599 0.525336 103.084 0.529004 103.51 0.508723C103.813 0.505092 103.941 0.567811 104.157 0.597356L105.073 0.659638L103.896 0.73768C104.148 0.916526 104.348 0.975497 104.759 0.98664C105.358 1.00347 105.942 1.01107 106.506 1.0094C106.924 1.00793 107.269 0.969411 107.834 1.03782C107.934 1.04898 108.03 1.05259 108.107 1.04805C108.769 0.987317 109.566 0.973379 110.444 1.00719C110.899 0.893458 111.673 1.00403 112.39 1.09312C112.621 1.00746 112.202 0.968132 111.952 0.915861C112.551 0.921212 113.155 0.918156 113.774 0.930665C113.96 0.926111 114.172 0.933901 114.395 0.953422C114.618 0.972942 114.844 1.00366 115.056 1.04317C115.16 1.0687 115.285 1.08791 115.405 1.09682C115.525 1.10573 115.632 1.10365 115.702 1.09102C116.023 1.05376 116.538 1.08808 116.803 1.02513C116.897 1.01066 117.032 1.00864 117.183 1.01943C117.334 1.03021 117.492 1.05311 117.628 1.08401C117.479 1.09365 117.347 1.10884 117.233 1.12923C116.827 1.19546 116.977 1.30613 117.492 1.46703C118.285 1.45818 119.094 1.4607 119.828 1.43037C120.237 1.40315 120.738 1.41166 121.276 1.45494C121.813 1.49823 122.365 1.57457 122.869 1.67539C123.051 1.71416 123.259 1.74101 123.452 1.75061C123.644 1.76022 123.806 1.75187 123.906 1.72722C123.969 1.69871 123.988 1.66264 123.963 1.62212L123.445 1.55121C123.445 1.55121 123.465 1.51338 123.47 1.50497L124.214 1.49861C124.608 1.49839 125.019 1.50954 125.391 1.50636C125.938 1.48525 126.562 1.49702 127.225 1.54094C127.837 1.58598 128.438 1.62002 129.023 1.64277C129.59 1.66619 130 1.59154 130.539 1.57962C130.947 1.57064 131.395 1.58024 131.867 1.60805C132.682 1.65739 133.431 1.65748 134.044 1.60832C134.758 1.87319 135.106 1.91625 135.769 1.84468L136.081 1.82424L136.167 1.88104L136.405 1.86855C136.851 1.85742 137.297 1.8463 137.762 1.84233C138.409 1.86691 139.108 1.93304 139.79 2.03427C139.919 2.052 140.095 2.11223 140.209 2.15938C140.323 2.20654 140.571 2.34879 140.753 2.4414C140.554 2.509 140.334 2.57365 140.177 2.65136C140.161 2.66464 140.163 2.68047 140.181 2.69759C140.2 2.7147 140.236 2.73262 140.285 2.74991C140.334 2.76719 140.396 2.78335 140.465 2.79711C140.535 2.81086 140.609 2.82181 140.684 2.82908C140.829 2.84475 140.972 2.8552 141.107 2.85999C141.774 2.86826 142.412 2.86212 143.016 2.84162C143.237 2.81271 143.538 2.80996 143.874 2.83382C144.209 2.85768 144.559 2.90678 144.867 2.97334C145.657 2.93338 146.576 2.94518 147.558 3.00793C148.598 2.96977 149.853 3.04694 150.824 2.96333C150.802 3.00537 150.902 3.07775 151.042 3.11945C151.263 3.18279 151.513 3.2415 151.782 3.29307L153.835 3.39378C153.912 3.44556 154.008 3.49798 154.122 3.55036C154.2 3.59173 154.336 3.63221 154.501 3.66323C154.666 3.69424 154.847 3.71335 155.006 3.71649C155.414 3.73184 155.757 3.69753 156.244 3.7823C155.494 3.86243 154.482 3.85179 153.389 3.75226C152.362 3.67656 151.374 3.63873 150.461 3.64017C150.161 3.6396 149.765 3.64402 149.671 3.68981C149.462 3.81922 148.918 3.79876 148.282 3.77489C147.783 3.74876 147.327 3.75169 146.951 3.78345C146.576 3.8152 146.292 3.87488 146.123 3.95756C146.08 4.03743 146.183 4.10561 146.621 4.15209L148.443 4.33847C148.712 4.3145 148.966 4.28614 149.206 4.25349C149.611 4.21012 150.11 4.19822 150.665 4.21871C151.221 4.23919 151.817 4.29151 152.408 4.3716C152.71 4.41296 153.012 4.45432 153.231 4.43467C153.423 4.4121 153.6 4.38507 153.761 4.35378C153.793 4.33281 153.806 4.30868 153.799 4.28231C153.915 4.29457 154.032 4.31051 154.144 4.32958C155.044 4.55207 155.741 4.54822 156.374 4.49051C156.545 4.47336 156.676 4.44609 156.849 4.42473C157.023 4.40338 157.084 4.37565 157.242 4.38372C158.499 4.45669 158.862 4.21298 159.922 4.22277C159.973 4.21325 160.005 4.19901 160.015 4.18138C160.024 4.16375 160.011 4.14328 159.976 4.12187C159.901 4.10253 159.814 4.08591 159.724 4.07352C159.633 4.06112 159.542 4.05337 159.458 4.05096C158.97 4.01969 158.539 4.02927 158.239 4.07809C158.027 4.09804 157.802 4.11393 157.565 4.12569L156.504 3.77276C157.532 3.80511 158.505 3.80489 159.399 3.77212C159.594 3.75372 159.924 3.78543 160.199 3.79146L162.219 3.82444C162.635 3.82718 162.988 3.77185 163.568 3.90082C163.568 3.90082 163.95 3.92162 164.052 3.90401C164.154 3.8864 164.607 3.77687 164.877 3.70552C165.19 3.72587 165.624 3.78076 165.819 3.76235C166.16 3.71715 166.455 3.6592 166.699 3.58955L167.919 3.68898C167.918 3.77732 167.873 3.86042 167.786 3.93702C167.691 4.0109 167.694 4.09958 167.796 4.19581C167.897 4.29205 168.093 4.3931 168.369 4.49072L169.574 5.00772C169.771 5.04235 169.98 5.06565 170.175 5.07448C170.369 5.0833 170.538 5.07722 170.659 5.05705C171.178 4.99718 171.759 4.95038 172.277 4.89051C172.946 4.9821 172.774 5.13004 173.26 5.2598L174.835 5.47548C175.075 5.67534 175.32 5.8668 174.589 5.93371C174.444 5.94542 174.542 6.022 174.409 6.05347C174.977 6.20346 175.602 6.24836 176.177 6.34075C176.404 6.40719 176.594 6.47752 176.738 6.54834C176.895 6.65497 177.215 6.7639 177.627 6.85161C178.039 6.93931 178.511 6.99874 178.941 7.01707C179.662 7.07322 180.401 7.15755 181.123 7.26628C181.37 7.30409 181.624 7.33164 181.867 7.34707C182.111 7.3625 182.338 7.36545 182.534 7.35573C183.233 7.33861 183.825 7.27973 184.271 7.18294C184.712 7.10079 185.306 7.0612 186 7.06775C187.187 7.23025 187.426 7.47511 188.144 7.69078L186.904 7.71496C186.859 7.79904 186.941 7.90505 186.432 7.90311C185.924 7.90117 186.182 7.98162 186.347 8.06287C186.405 8.10373 186.518 8.14577 186.668 8.18187C186.817 8.21796 186.993 8.24588 187.167 8.26092L188.223 8.36491C188.597 8.40448 188.959 8.42138 189.27 8.41375C189.58 8.40612 189.827 8.37425 189.983 8.32165C190.161 8.2717 190.408 8.23791 190.707 8.22236C191.089 8.18161 191.403 8.12101 191.637 8.04285L193.128 8.15672C193.191 8.07818 193.396 8.02311 193.708 8.00081C194.019 7.97852 194.418 7.99038 194.838 8.03438L195.842 8.10428C196.959 8.18054 197.204 8.15543 197.531 7.93399L196.192 7.53844C196.387 7.43425 196.575 7.34267 196.763 7.2511C196.429 7.12078 195.984 6.99753 195.472 6.89385C194.995 6.78244 194.504 6.67455 194.001 6.57057C193.456 6.46432 192.88 6.37194 192.203 6.25217C192.085 6.21342 191.914 6.14479 191.694 6.07865C191.475 6.01439 191.246 5.95139 191.008 5.88991C191.053 5.80583 191.094 5.73016 191.007 5.63256C191.424 5.6637 191.855 5.71817 192.26 5.79106C192.666 5.86394 193.034 5.95295 193.331 6.05005C193.381 6.06727 193.442 6.08345 193.51 6.09748C193.579 6.11152 193.653 6.12309 193.727 6.13141C194.459 6.19108 194.809 6.31572 195.167 6.46855C195.408 6.54667 195.719 6.61606 196.057 6.66706C196.704 6.7557 197.338 6.86956 197.957 6.96786C198.146 7.00061 198.343 7.02758 198.539 7.04763C199.186 7.1114 199.837 7.20056 200.459 7.31059C200.662 7.33855 200.857 7.37556 201.027 7.41851C201.198 7.46147 201.339 7.50912 201.438 7.5575C201.284 7.6105 201.201 7.67741 201.194 7.75418C201.167 7.80463 201.621 7.90747 201.836 7.98201C202.051 8.05655 201.63 8.02143 201.487 8.02892C200.9 8.04334 200.791 8.07356 201.142 8.239C201.26 8.29103 201.338 8.34308 201.371 8.39192C201.405 8.44077 201.393 8.48537 201.338 8.52296C201.254 8.67851 201.001 8.80622 200.826 8.95835C201.097 9.05857 201.549 9.16561 201.598 9.28968C201.622 9.31721 201.672 9.34637 201.745 9.37506C201.817 9.40375 201.911 9.43125 202.019 9.45558C202.303 9.50809 202.561 9.57089 202.773 9.63911C202.986 9.70732 203.147 9.77913 203.244 9.84897C203.275 9.87785 203.352 9.90849 203.458 9.93475C203.564 9.96101 203.692 9.98095 203.816 9.99055C203.964 10.0024 204.097 10.0008 204.187 9.98621C204.276 9.97162 204.316 9.9451 204.298 9.91215C204.302 9.85026 204.282 9.78573 204.24 9.71911C204.264 9.67287 204.289 9.62663 204.191 9.55004C204.633 9.57799 205.098 9.634 205.534 9.71199C205.969 9.78999 206.36 9.88697 206.664 9.99241C206.999 10.1015 207.308 10.216 207.68 10.3436C207.603 10.4866 207.603 10.4866 208.394 10.7393L212.589 10.8625L213.448 11.0299C214.25 11.1758 214.441 11.1658 214.944 11.0904L215.283 11.0195C215.995 11.117 216.815 11.2293 217.26 11.0466C217.405 11.1656 217.499 11.2056 217.466 11.2237C217.254 11.3994 216.885 11.5485 216.373 11.6651C216.243 11.6924 216.151 11.734 215.999 11.7583C215.509 11.8955 215.395 12.1075 215.681 12.351C215.823 12.4588 216.029 12.5691 216.293 12.6785C215.907 12.8303 215.396 12.956 214.773 13.0524C214.244 13.127 213.809 13.2268 213.479 13.3491C213.183 13.4723 212.74 13.565 212.175 13.6217C211.888 13.6459 211.679 13.6935 211.568 13.7598C211.535 13.9393 211.611 14.1316 211.794 14.3322C211.829 14.3933 211.927 14.4592 212.08 14.5249C212.234 14.5905 212.439 14.6541 212.68 14.7107C212.68 14.7107 212.796 14.7537 212.851 14.7793C212.898 14.9968 212.724 15.1884 212.342 15.3413C212.279 15.3847 212.151 15.416 211.971 15.432C211.791 15.4479 211.566 15.4478 211.321 15.4316C210.802 15.4057 210.317 15.4025 209.816 15.388C209.275 15.3674 208.799 15.3836 208.437 15.4349C208.076 15.4862 207.842 15.5708 207.761 15.6796C207.755 15.7104 207.739 15.7399 207.713 15.7679C207.698 15.7823 207.69 15.7978 207.688 15.8141L208.841 16.1705L207.537 16.3123C207.461 16.4553 208.086 16.541 208.4 16.6471L208.206 16.7063C207.956 16.7398 207.62 16.6757 207.316 16.6386L207.014 16.5972L206.978 16.6645C206.79 16.756 206.104 16.6531 205.837 16.7202C205.569 16.7874 205.76 16.8632 206.161 16.9361C206.44 16.9903 206.739 17.0336 207.036 17.0626C207.333 17.0916 207.621 17.1056 207.877 17.1035C208.03 17.0963 208.157 17.0799 208.251 17.0553C208.792 16.9506 209.389 16.8605 210.039 16.7859C210.537 16.7188 211.161 16.6903 211.867 16.7023C212.074 16.6972 212.324 16.7131 212.572 16.7471C212.821 16.7812 213.052 16.8312 213.226 16.8884L213.592 16.8978C213.592 16.8978 213.792 16.9568 213.763 16.9665C213.624 17.1412 213.786 17.3548 214.224 17.5756L213.843 17.5956C213.298 17.5751 213.644 17.7082 213.562 17.7738C213.175 17.7614 212.672 17.706 212.489 17.7892L212.214 17.7832L212.322 17.7979L212.452 17.7707L212.965 17.895C212.722 17.9159 212.546 17.9414 212.332 17.9527C212.213 17.9625 212.119 17.9798 212.054 18.0035C211.99 18.0272 211.957 18.057 211.956 18.0908C211.957 18.143 211.893 18.1869 211.771 18.2183C211.649 18.2498 211.472 18.2677 211.258 18.2705C211.003 18.2716 210.857 18.3283 210.707 18.3484L211.357 18.6902C211.357 18.6902 211.034 18.6459 211.21 18.7061L211.232 18.6641L211.627 18.7496C211.911 18.8246 212.109 18.8428 212.277 18.7891C212.445 18.7353 212.406 18.8068 212.487 18.7862C212.458 18.8409 212.275 18.8791 212.119 18.9118C211.938 18.9375 211.733 18.9564 211.509 18.9682C211.913 19.2086 211.933 19.2157 211.343 19.2793C210.753 19.343 210.956 19.4385 210.463 19.4521C209.969 19.4658 210.53 19.6284 210.861 19.6601C211.106 19.6809 211.355 19.7134 211.593 19.7553C211.83 19.7971 212.05 19.8474 212.236 19.9026L212.137 20.0875C211.992 20.0722 211.846 20.0523 211.705 20.0285C211.227 19.9269 210.792 19.8312 210.367 19.8903L210.569 20.0308L209.085 19.9493C209.123 20.0547 209.349 20.1746 209.716 20.284C209.661 20.344 209.627 20.4072 209.614 20.4731C209.59 20.5194 209.443 20.4903 209.348 20.4953C209.008 20.503 208.729 20.5344 208.535 20.5865C208.342 20.6387 208.24 20.7102 208.238 20.7946C208.2 20.866 208.722 21.0143 209.049 21.0094C209.865 21.0237 210.747 21.0787 211.649 21.1714C212.198 21.1834 212.275 20.9955 213.179 21.1238C213.197 21.2106 213.081 21.2808 212.849 21.324C212.617 21.3671 212.282 21.3807 211.893 21.3628C212.114 21.5556 213.338 21.6058 213.392 21.8072C213.087 21.793 212.761 21.7595 212.447 21.7101C212.132 21.6607 211.839 21.597 211.598 21.5254C211.546 21.5078 211.48 21.4915 211.407 21.4781C211.335 21.4648 211.257 21.4547 211.181 21.4489C211.106 21.443 211.035 21.4416 210.976 21.4448C210.917 21.448 210.87 21.4556 210.842 21.467C211.011 21.5398 211.197 21.6241 211.41 21.7028C211.623 21.7815 211.674 21.8156 211.827 21.8321C212.97 21.9887 213.514 22.2707 214.503 22.4558C214.762 22.4913 214.794 22.604 214.57 22.5913C214.356 22.5785 214.162 22.5802 214.01 22.5961C213.859 22.612 213.755 22.6415 213.711 22.6812C213.545 22.7276 213.338 22.7646 213.096 22.7911C214.111 23.0805 215.32 23.3362 216.611 23.5342C216.856 23.5734 217.111 23.5972 217.339 23.6023C218.06 23.6026 218.825 23.6256 219.618 23.6708C219.9 23.6831 220.16 23.6819 220.384 23.6674C221.121 23.6328 221.705 23.7084 222.239 23.9215L223.124 24.2592C223.094 24.3138 222.946 24.3747 222.832 24.4583L223.522 24.6387L228.793 24.2234L229.851 24.6255L231.369 24.6031C231.485 24.6147 231.602 24.6307 231.714 24.6504C232.021 24.7691 232.261 24.8832 232.594 24.9965C232.926 25.1098 233.521 25.1236 233.936 25.2571C234.351 25.3906 234.766 25.3933 235.279 25.4726C235.328 25.576 235.278 25.669 235.133 25.7459C235.086 25.8342 234.825 25.8887 234.78 25.9728C234.785 26.0578 234.688 26.1299 234.498 26.1827C234.308 26.2355 234.03 26.2672 233.691 26.275C232.742 26.4559 231.597 26.5848 230.291 26.6576C230.176 26.6629 230.081 26.6752 230.011 26.6936C229.942 26.712 229.899 26.7362 229.886 26.7647C229.888 26.8471 229.801 26.9184 229.631 26.9733C229.461 27.0281 229.213 27.0651 228.905 27.0816C228.823 27.085 228.762 27.0953 228.727 27.1114C228.611 27.1218 228.525 27.1417 228.48 27.1691C228.435 27.1966 228.432 27.2307 228.47 27.2681C228.508 27.3055 228.587 27.3451 228.698 27.3828C228.81 27.4206 228.951 27.4554 229.107 27.4838C229.334 27.5295 229.565 27.5733 229.801 27.6149C229.787 27.6401 229.553 27.6442 229.588 27.6669C229.68 27.7395 229.701 27.8074 229.65 27.8654C229.599 27.9234 229.477 27.9699 229.293 28.0011L230.552 28.5888C231.317 28.6702 232.067 28.8082 232.66 28.9767C232.661 29.0043 232.627 29.0274 232.561 29.0438C232.496 29.0601 232.401 29.0691 232.286 29.0699C231.979 29.0819 231.688 29.1053 231.357 29.1186C231.154 29.1285 230.986 29.1504 230.861 29.1829C230.736 29.2154 230.658 29.2579 230.63 29.3079L231.37 29.5265C231.133 29.5798 230.957 29.6054 230.8 29.6381C230.889 29.7068 231.042 29.7778 231.246 29.8458C231.451 29.9137 231.702 29.9766 231.98 30.0298C232.055 30.0407 232.131 30.0487 232.204 30.0533C232.277 30.0579 232.346 30.059 232.406 30.0565C232.978 29.9815 233.649 30.1139 234.299 30.2391C234.95 30.3643 235.303 30.4398 235.784 30.5372L236.703 30.5502C236.936 30.5963 237.143 30.6505 237.309 30.7085C237.475 30.7665 237.595 30.8267 237.659 30.8842C237.609 30.9767 237.173 30.926 236.913 30.9355C236.297 30.9931 235.486 30.9808 234.616 30.9007C234.401 30.8712 234.179 30.895 233.969 30.8979C233.517 30.9094 233.081 30.9281 232.666 30.954C232.392 30.9781 232.136 31.0078 231.9 31.0432C231.837 31.1609 232.83 31.2518 232.266 31.31C232.461 31.3365 232.533 31.3736 232.633 31.3602C233.273 31.4366 233.903 31.4744 234.451 31.4692C235.501 31.4529 236.695 31.5066 237.933 31.6257C239.269 31.7491 240.551 31.8009 241.673 31.7769C242.1 31.7755 242.578 31.8007 243.069 31.8507C243.649 31.92 244.226 31.9636 244.76 31.9786C244.937 31.9791 245.135 31.9909 245.336 32.013C245.538 32.0351 245.737 32.0669 245.92 32.1058C245.904 32.1352 245.73 32.1566 245.769 32.1709C246.322 32.3911 246.547 32.6204 247.399 32.8454C247.981 32.9251 248.65 33.0167 249.031 32.911C249.412 32.8052 249.275 32.7143 248.517 32.4435C248.682 32.4396 248.88 32.4523 249.077 32.4793C249.274 32.5063 249.458 32.5459 249.596 32.5912L250.252 32.7938L250.843 32.9876C250.791 33.0843 250.75 33.1599 250.707 33.2398C250.64 33.3246 250.714 33.4279 250.92 33.5351C251.044 33.5936 251.152 33.6522 251.243 33.7102C251.612 33.9423 251.719 34.1616 251.552 34.3437C251.231 34.6054 250.784 34.8462 250.216 35.0633C249.617 35.2745 249.289 35.541 248.795 35.7712C248.543 35.876 248.237 35.9699 247.88 36.052C247.203 36.2346 246.462 36.4083 245.783 36.5951C245.104 36.7819 244.337 36.9161 243.583 37.07C242.46 37.2527 241.247 37.4105 239.949 37.5425C239.146 37.6582 238.321 37.7709 237.578 37.9038C236.701 38.0536 235.67 38.1612 234.512 38.2239C233.489 38.299 232.575 38.41 231.788 38.5547C231.705 38.5704 231.64 38.5903 231.594 38.614C231.452 38.7616 231.055 38.8657 230.462 38.9103C230.498 38.9535 230.544 38.9974 230.6 39.0419C230.682 39.095 230.699 39.1446 230.649 39.1844C230.599 39.2242 230.484 39.2523 230.319 39.2651C229.845 39.3017 229.451 39.3638 229.155 39.4487C229.046 39.47 228.979 39.501 228.958 39.5391C228.938 39.5772 228.965 39.6212 229.038 39.6673C229.102 39.7148 229.107 39.7585 229.051 39.7927C228.996 39.827 228.883 39.8502 228.726 39.8593C228.325 39.9043 227.896 39.9404 227.441 39.9676C226.473 40.0274 225.347 40.0267 224.131 39.9655C224.001 39.9477 223.871 39.975 223.72 39.9543C222.86 39.8857 222.061 39.8751 221.42 39.9237C220.669 39.9427 219.884 39.9389 219.092 39.9478C217.947 39.9418 216.892 39.9779 215.954 40.0551C214.883 39.9805 214.281 40.1102 213.376 40.1127C212.541 40.126 211.75 40.1579 211.009 40.2082C209.816 40.2748 208.627 40.3331 207.45 40.4112C206.346 40.4484 205.33 40.5195 204.419 40.6232C204.069 40.6702 203.437 40.5971 203.199 40.6954C202.961 40.7937 202.481 40.782 202.093 40.8147L200.869 40.8952C200.658 40.9143 200.427 40.9265 200.178 40.9314C199.04 40.938 198.251 41.0692 197.195 41.096L197.087 41.0812C195.211 41.2763 193.065 41.3834 190.71 41.3993C189.335 41.4591 187.832 41.4563 186.372 41.5001C186.024 41.5878 185.202 41.4797 184.766 41.5598C184.329 41.6399 183.616 41.5874 183.053 41.6006C182.49 41.6138 181.94 41.6467 181.339 41.6456C180.816 41.6459 180.375 41.6817 180.056 41.7496C179.326 41.8619 178.436 41.9279 177.427 41.9447C176.091 41.9738 174.829 42.0401 173.47 42.0255C173.489 42.1073 173.406 42.1769 173.229 42.2272C173.051 42.2774 172.786 42.3065 172.46 42.3113C171.007 42.3426 169.69 42.4239 168.218 42.448L167.825 42.4482L163.423 42.4952C162.237 42.5042 161.094 42.5192 159.884 42.5295C159.431 42.4675 159.42 42.5743 159.107 42.5539C159.02 42.5013 158.916 42.4781 158.762 42.5067L158.728 42.5697L153.705 42.6534C151.738 42.7145 149.669 42.7329 147.515 42.7083C147.004 42.7144 146.528 42.7353 146.092 42.7706C145.689 42.7835 145.268 42.7892 144.833 42.7876C144.244 42.7718 143.669 42.7637 143.109 42.7636C141.637 42.7877 140.093 42.7747 138.481 42.7571C136.869 42.7394 135.648 42.7708 134.214 42.7684C133.243 42.7662 132.276 42.7556 131.27 42.7307C130.79 42.7191 130.198 42.6562 129.701 42.6332C129.204 42.6102 129.042 42.6106 128.976 42.6467C128.76 42.7479 128.216 42.6825 127.781 42.6726C126.933 42.6558 126.813 42.6212 126.583 42.3595L127.623 42.2764C127.878 42.2495 128.199 42.2448 128.554 42.2627C128.91 42.2805 129.288 42.3204 129.653 42.3783C129.796 42.4032 129.946 42.4228 130.094 42.4361C130.242 42.4494 130.385 42.4561 130.514 42.4557C131.564 42.4415 132.599 42.4118 133.608 42.3875L133.755 42.3716L133.764 42.1382C133.631 42.1153 133.493 42.0964 133.355 42.0821L128.295 41.9306C127.134 41.8935 125.928 41.8096 124.789 41.7754C123.649 41.7412 123.035 41.7202 122.151 41.6849C121.778 41.6647 121.397 41.6383 121.012 41.6057C121.035 41.5832 121.047 41.5593 121.051 41.5342C121.071 41.4964 121.098 41.4459 120.934 41.4055C120.756 41.3483 120.517 41.2996 120.266 41.2689C120.031 41.2486 119.802 41.2371 119.59 41.2349C118.564 41.2153 117.392 41.0921 116.324 40.8914L115.951 41.0253C114.347 40.9501 112.719 40.8761 111.044 40.8046C110.709 40.7851 110.357 40.7477 110.014 40.6951C109.648 40.6449 109.31 40.54 108.924 40.4826C108.543 40.4413 108.164 40.4091 107.794 40.3866C107.894 40.3521 108.026 40.3246 108.186 40.3048C108.343 40.2979 108.457 40.2764 108.512 40.2433C108.567 40.2103 108.56 40.1676 108.493 40.1212C108.373 40.0417 108.321 39.9668 108.58 39.9572C108.821 39.9391 108.992 39.8998 109.075 39.8441C109.159 39.7883 109.15 39.7184 109.05 39.6425C109.006 39.5982 108.976 39.5548 108.958 39.5125L108.85 39.4978C108.494 39.3407 107.783 39.284 107.273 39.1555C107.033 39.1182 106.783 39.0968 106.565 39.0946C106.001 39.067 105.451 39.0549 104.868 39.0201C104.589 39.0041 104.298 38.975 104.011 38.9343C103.601 38.8782 103.558 38.8723 103.32 38.6682C103.689 38.6718 103.982 38.6413 104.149 38.5819C104.316 38.5225 104.347 38.4379 104.236 38.3424C103.931 38.1336 103.609 37.9135 102.229 37.7652C102.679 37.7579 103.112 37.7434 103.526 37.7217C103.647 37.7171 103.737 37.7017 103.785 37.6778C103.833 37.6538 103.836 37.6224 103.794 37.5877C103.752 37.5531 103.667 37.5168 103.55 37.4837C103.434 37.4507 103.291 37.4224 103.141 37.4028C102.413 37.2847 101.654 37.2057 100.948 37.1746C100.353 37.1609 99.8164 37.1686 99.1218 37.1682L98.302 37.0559C98.3156 37.0307 98.1952 36.9962 98.2257 36.9823C98.434 36.8529 98.6639 36.7264 98.9005 36.5874C98.5225 36.5123 98.1951 36.4216 97.9557 36.3258C97.7163 36.2299 97.5746 36.1328 97.5468 36.0455C97.5264 36.0191 97.5317 35.9951 97.5625 35.9752C97.5932 35.9552 97.6485 35.9398 97.7245 35.9299C97.9403 35.913 98.1069 35.8808 98.2114 35.8356C98.3159 35.7905 98.3555 35.7337 98.3272 35.6695L97.6897 35.4333C95.7702 35.2647 93.8852 35.1443 92.0696 35.0743L90.4307 35.0213C90.233 34.9581 90.2942 34.9304 90.4803 34.9288C90.6664 34.9272 91.1896 34.9447 91.5551 34.9541C91.8707 34.9665 92.151 34.9584 92.3688 34.9305C92.5866 34.9026 92.7345 34.8559 92.7983 34.795L92.248 34.5256C92.275 34.4751 92.3132 34.4037 92.6117 34.4084C92.8157 34.4026 92.966 34.3772 93.0383 34.3363C93.1106 34.2955 93.1008 34.2416 93.0104 34.1832C92.9966 34.1411 93.0172 34.1026 93.0712 34.0697C93.5126 34.067 93.9518 34.0685 94.3524 34.0557C94.5389 34.0514 94.6964 34.0358 94.8142 34.0099C94.932 33.9839 95.0073 33.9483 95.035 33.9055C95.0494 33.8636 95.0142 33.816 94.9322 33.7663C94.8502 33.7167 94.7236 33.6664 94.5628 33.6197C93.9351 33.5619 93.3609 33.5611 92.9661 33.6176C92.8254 33.6619 92.5994 33.6861 92.3178 33.687C92.0361 33.6879 91.7122 33.6655 91.3887 33.6227C91.0183 33.5734 90.6486 33.5517 90.3462 33.5616C90.0437 33.5714 89.8284 33.6122 89.7389 33.6765C89.3586 33.6515 89.0215 33.6325 88.6889 33.6049C88.2965 33.5703 87.9257 33.56 87.6163 33.5754C87.1214 33.5862 86.5882 33.5799 86.0286 33.5565C84.4157 33.4981 82.8006 33.4438 81.239 33.4195C80.8259 33.4126 80.4684 33.4313 80.0598 33.416C79.6512 33.4006 79.328 33.4421 78.817 33.3586C78.7197 33.3456 78.6217 33.3372 78.5309 33.3342C78.4401 33.3312 78.3589 33.3335 78.2937 33.341C77.3964 33.4071 76.3442 33.4164 75.1991 33.3685C73.6307 33.3568 72.0043 33.3236 70.4337 33.316C69.973 33.3225 69.5377 33.3399 69.1322 33.3679C68.8237 33.3849 68.5005 33.3964 68.1643 33.4023C67.9068 33.4077 67.6604 33.392 67.7039 33.4837C67.7473 33.5754 67.3613 33.518 67.1388 33.5011C66.3744 33.4566 65.5931 33.3964 64.8037 33.3212C64.0259 33.2394 63.2638 33.1918 62.563 33.1813C62.0568 33.1751 61.5349 33.1984 60.8841 33.0732C60.9089 33.0269 60.9337 32.9807 61.0753 32.9324C60.5447 32.7995 59.9391 32.6852 59.3089 32.5989C58.6786 32.5126 58.0418 32.4568 57.451 32.436L56.6363 32.1846C56.4357 32.155 56.2309 32.1335 56.0344 32.1214C55.8379 32.1092 55.6538 32.1066 55.4932 32.1138C55.3691 32.1174 55.2179 32.1081 55.0673 32.0874C54.9167 32.0668 54.7769 32.0363 54.6734 32.0015C54.5187 31.9572 54.3298 31.919 54.1302 31.8917C53.9307 31.8644 53.7294 31.8491 53.5516 31.8478C52.9918 31.8205 52.3943 31.7574 51.8202 31.6649C51.6712 31.6107 51.5779 31.5547 51.5517 31.5038C51.5255 31.4529 51.5676 31.4093 51.6728 31.3784C51.8424 31.3239 51.9376 31.2545 51.9527 31.1744C51.9678 31.0942 51.9024 31.005 51.7606 30.9121C51.6879 30.8551 51.6637 30.8011 51.6892 30.7535C51.7148 30.7058 51.7896 30.6654 51.9093 30.6347C52.3559 30.4928 52.2364 30.4132 51.5057 30.1778C51.3871 30.1385 51.244 30.1018 51.0856 30.0701C50.9273 30.0383 50.7571 30.0121 50.5858 29.9931C50.184 29.9548 49.7876 29.9262 49.4041 29.908C49.1884 29.8785 48.9671 29.9023 48.7185 29.8908C47.4757 29.8334 47.2937 29.7408 46.8912 29.5413L46.5978 29.3973C46.0538 29.2807 45.4588 29.1839 44.8557 29.1138C44.2525 29.0436 43.6564 29.002 43.1101 28.9919C42.8929 28.9911 42.6433 28.9712 42.3994 28.9352C41.6057 28.825 40.802 28.7488 40.0414 28.7115C39.5675 28.6905 39.0566 28.6363 38.5701 28.5553C38.0836 28.4742 37.6422 28.3699 37.299 28.2547C36.9906 28.151 36.5872 28.0579 36.1449 27.9884C35.6272 27.9174 35.5792 27.8342 35.8683 27.77C36.1575 27.7058 36.6417 27.6232 37.0716 27.5557C37.2211 27.5328 37.3138 27.4955 37.3393 27.448C37.3647 27.4005 37.322 27.3446 37.2158 27.2866C37.1476 27.1875 37.1357 27.0933 37.1806 27.0066C37.2046 26.9705 37.188 26.9292 37.1321 26.8853C37.0761 26.8415 36.9821 26.7961 36.8563 26.7524C36.7305 26.7087 36.5759 26.6675 36.4029 26.6317C36.2299 26.596 36.0425 26.5664 35.8533 26.545C35.0551 26.4357 34.2784 26.3293 33.4644 26.2494C33.1233 26.2118 32.7825 26.1651 32.4504 26.1106C31.7707 25.9757 31.0435 25.8638 30.3111 25.7815C29.9635 25.7447 29.6236 25.6803 29.3651 25.6023C28.5497 25.3921 27.7983 25.1712 27.1245 24.9434C26.9622 24.8728 26.7497 24.8039 26.5005 24.741C26.2512 24.6782 25.9706 24.6227 25.6762 24.5781C25.4389 24.5456 25.2457 24.474 25.0628 24.4264C24.9299 24.3162 24.9157 24.2142 25.0216 24.13C25.1274 24.0458 25.3499 23.9823 25.6681 23.9453C25.9698 23.9008 26.2521 23.8492 26.5129 23.7947C26.8273 23.7506 27.201 23.7241 27.6203 23.7162C28.1167 23.6926 28.4839 23.6249 28.6738 23.5221C27.3146 23.3359 26.0221 23.0687 24.8308 23.1311L23.9256 22.962C23.9616 22.8948 23.9932 22.8359 24.0225 22.7813C24.2378 22.6818 24.305 22.5563 24.2185 22.4155C24.1472 22.3474 24.1536 22.2854 24.2371 22.2358C24.3207 22.1863 24.4783 22.1508 24.6941 22.1332C25.9723 21.9517 27.4506 21.8293 28.6493 21.6234C29.0251 21.5848 29.4651 21.5672 29.9507 21.5715C30.4205 21.5591 30.4009 21.4662 29.8602 21.3515C29.5568 21.2916 29.2475 21.2342 28.9335 21.1795C27.5489 21.1704 26.9849 21.4451 25.4049 21.3686L24.6726 21.0066C24.4746 21.001 24.2823 20.9988 24.0972 21L21.4479 21.1471C21.2273 21.1545 21.0555 21.1796 20.9521 21.2197C20.8488 21.2598 20.818 21.3132 20.8632 21.3739C20.8812 21.4481 20.8447 21.5162 20.7551 21.5757C20.6973 21.6173 20.7343 21.6727 20.8578 21.7296C21.1364 21.858 20.779 21.8768 20.5533 21.909C20.4956 21.9122 20.4291 21.9119 20.3576 21.9081C20.2861 21.9043 20.211 21.8971 20.1367 21.8869C20.0625 21.8767 19.9905 21.8638 19.925 21.8488C19.8595 21.8339 19.8017 21.8172 19.7551 21.7997C19.3574 21.6776 19.0096 21.5487 18.6187 21.414C18.8962 21.285 18.5697 21.0733 19.0027 20.9566C19.0511 20.9333 19.0705 20.9049 19.0597 20.8732C19.0488 20.8414 19.0079 20.807 18.9396 20.772C18.7632 20.6817 18.6792 20.5936 18.6961 20.5167C18.7129 20.4397 18.83 20.3767 19.0354 20.3339L19.0602 20.2876C18.5183 20.1322 18.6619 19.9939 18.449 19.8294L17.9277 19.7219C16.6307 19.463 16.6284 19.4672 15.5118 19.4768C15.2867 19.3782 15.5727 19.3633 15.7871 19.352L17.5831 19.2415C18.7574 19.1676 19.9658 19.1165 21.2776 19.0886C22.5894 19.0607 24.0518 18.9676 25.4077 18.9006C25.4763 18.8954 25.5287 18.8852 25.5606 18.8707C25.5925 18.8562 25.603 18.838 25.5912 18.8175C25.5373 18.7953 25.4668 18.7739 25.3848 18.7548C25.3028 18.7358 25.2115 18.7196 25.1175 18.7075C24.686 18.6484 24.2433 18.6103 23.7835 18.5609L22.9264 18.4751L22.6627 18.3622C22.491 18.2936 22.3738 18.2099 22.1455 18.1605C21.9573 18.1238 21.7531 18.0958 21.554 18.0797C21.355 18.0635 21.1684 18.0598 21.0137 18.0687C20.5848 18.0912 20.1968 18.1238 19.7873 18.1535C19.3777 18.1831 19.152 18.2154 18.7968 18.2299C18.0753 18.2365 17.3779 18.254 16.7078 18.2823C16.1434 18.3491 15.6213 18.4284 15.1449 18.5195C14.8477 18.5555 14.5698 18.5987 14.0624 18.5517C13.8216 18.5092 13.614 18.4533 13.4762 18.3939C13.3385 18.3346 13.2795 18.2756 13.3098 18.2275C13.3371 18.1899 13.4141 18.16 13.5338 18.1409C13.6535 18.1217 13.8117 18.1139 13.9937 18.1181C14.5031 18.1112 14.9741 18.0879 15.3973 18.0486C15.9863 17.9775 16.7034 17.9469 17.5066 17.9584C17.779 17.9687 17.9616 17.9305 18.1998 17.918C18.4381 17.9055 18.64 17.8745 18.9056 17.8973C19.7309 17.9562 20.1266 17.866 20.6211 17.8074C20.7886 17.7814 20.8923 17.7394 20.9209 17.686C20.9495 17.6326 20.902 17.5698 20.7834 17.5047C20.5551 17.3749 20.2759 17.2444 19.95 17.1153C19.7824 17.0518 19.5675 16.9915 19.3223 16.9392C19.0772 16.8868 18.8084 16.8438 18.5371 16.8135C18.3747 16.734 18.288 16.6559 18.285 16.5861C18.282 16.5164 18.3626 16.4572 18.5197 16.414C18.9199 16.3154 19.2747 16.215 20.1714 16.2702C20.593 16.2912 20.9898 16.2953 21.346 16.2821C22.136 16.2641 23.0474 16.3035 23.9941 16.3966C24.239 16.4204 24.4798 16.4367 24.7092 16.4449C26.3459 16.5021 27.9053 16.5306 29.4692 16.5508C30.2976 16.5604 31.1329 16.5575 31.9978 16.5857C34.026 16.6468 35.8722 16.6154 37.8299 16.6353C38.8552 16.6456 39.773 16.6044 40.535 16.5139C40.6834 16.4836 40.8108 16.4482 40.9158 16.4081C40.4109 16.303 39.8562 16.2198 39.305 16.1664C38.7537 16.1131 38.2244 16.0913 37.7677 16.1033C37.5167 16.1328 37.1921 16.1381 36.8304 16.1189C36.4686 16.0996 36.0838 16.0565 35.7189 15.9942L36.7798 15.959C37.4834 15.9426 38.204 15.9375 38.8882 15.9138C39.9752 15.8732 40.9827 15.8081 42.1083 15.7817C43.0172 15.7575 43.8304 15.6956 44.5226 15.5979C45.0226 15.5267 45.5937 15.4762 46.2243 15.4474C46.6725 15.4321 46.6725 15.4321 46.959 15.2863C46.7317 15.192 46.4377 15.1788 46.1608 15.177C44.5007 15.1177 42.9208 15.1073 41.4533 15.146C40.7129 15.1494 40.0561 15.1894 39.5144 15.264C39.3817 15.2955 39.0423 15.2806 38.7699 15.2704C37.916 15.2548 37.0998 15.2593 36.3312 15.2839C35.2685 15.3248 34.085 15.3151 32.8266 15.2552C32.588 15.1819 32.8627 15.1879 32.8762 15.1627C33.8508 15.1157 34.8062 15.0615 35.8002 15.0216C36.0719 15.0074 36.3623 15.0004 36.6682 15.0006C37.8103 15.0253 38.762 14.9569 39.39 14.8048C39.4215 14.7459 39.8346 14.7529 40.0172 14.7147C40.107 14.6816 40.1668 14.6427 40.1949 14.5991C39.9289 14.4905 39.6282 14.4899 39.3967 14.4898C38.7249 14.5019 38.0786 14.5249 37.4609 14.5586C36.8868 14.5907 36.2512 14.5993 35.5715 14.5842C35.0698 14.5696 34.6409 14.5921 34.1348 14.586C33.8602 14.573 33.576 14.5523 33.2879 14.5241C33.6087 14.4484 34.0447 14.4018 34.5653 14.3877C34.96 14.3425 35.4536 14.3289 35.5167 14.2111C35.3302 14.1269 35.1225 14.1256 34.9558 14.1343C34.6086 14.134 34.2732 14.1393 33.9515 14.1502C33.2692 14.1741 32.5306 14.1745 31.751 14.1512C31.3405 14.1425 30.951 14.1451 30.5889 14.159C29.7685 14.1775 28.9822 14.2187 28.231 14.2377C26.6923 14.2571 25.2888 14.3266 23.8102 14.3633C23.4811 14.3724 23.1862 14.4042 22.7524 14.3493C22.3187 14.2944 22.2994 14.2873 22.2482 14.2532C22.1268 14.1963 22.0901 14.1412 22.1455 14.0992C22.2315 14.06 22.3991 14.0382 22.6184 14.0376C23.9402 13.9753 25.1938 13.8877 26.3715 13.7755C26.8898 13.753 27.3439 13.7071 27.718 13.6395C28.0147 13.5929 28.3667 13.562 28.7629 13.5479C29.3391 13.5142 29.9397 13.4896 30.5625 13.474C30.8522 13.4656 31.0986 13.4407 31.2871 13.4006C31.4756 13.3605 31.6024 13.3062 31.66 13.2407L30.8966 13.0234C30.7767 13.0132 30.6577 13.0045 30.5402 12.9971L24.2038 13.1537L23.5762 13.158C22.8885 13.145 22.7204 13.113 22.068 12.8612C23.5569 12.8019 24.7273 12.6293 25.4627 12.3604C25.2859 12.3315 25.1047 12.3067 24.9233 12.2865C23.7334 12.2229 22.6087 12.206 21.5923 12.2365C20.9886 12.2395 20.3678 12.2312 19.7448 12.2271C19.927 12.1032 20.625 12.1401 21.08 12.1122C22.1671 12.0684 23.1284 11.9781 23.9331 11.8441C24.2106 11.7918 24.5577 11.7584 24.9586 11.7453C25.3598 11.7409 25.6949 11.7092 25.9348 11.6532C26.1747 11.5972 26.3121 11.5185 26.335 11.4239C26.3728 11.3383 26.4543 11.2588 26.5781 11.1865C26.359 11.0839 26.011 10.9856 25.5995 10.9102C25.188 10.8347 24.7413 10.7872 24.3431 10.7766C23.4932 10.7343 22.6116 10.6652 21.7209 10.5709C21.2771 10.5233 20.842 10.496 20.4438 10.4908C20.0927 10.4867 19.6935 10.4524 19.3072 10.3929C18.921 10.3335 18.5688 10.2523 18.3045 10.1617C17.9477 10.0496 17.6147 9.93634 17.2817 9.82305C16.9488 9.70977 16.5624 9.5666 16.1738 9.42763C15.8311 9.4059 15.4974 9.39193 15.1772 9.38592C14.9281 9.39101 14.6374 9.37586 14.3395 9.34225C14.0416 9.30865 13.7488 9.25798 13.4957 9.19625C13.6441 9.13535 13.8119 9.08161 13.9887 9.01105C13.746 8.91788 13.5701 8.82287 13.4716 8.7318C13.3731 8.64073 13.3541 8.55551 13.4158 8.48134C13.4518 8.41407 13.1881 8.30124 13.0969 8.21204C12.9796 8.13515 12.9576 8.06339 13.0337 8.00617C13.1098 7.94895 13.2806 7.90895 13.5235 7.89141C13.8249 7.85903 14.0702 7.81027 14.2493 7.74712C14.3085 7.73073 14.3387 7.70828 14.337 7.68182C14.3353 7.65537 14.3018 7.62576 14.2396 7.5957C14.1774 7.56563 14.0885 7.53607 13.9809 7.50972C13.8734 7.48338 13.7506 7.46108 13.6239 7.44487C13.2359 7.39893 12.8505 7.36915 12.4899 7.35725C11.8686 7.33535 11.2739 7.32159 10.7057 7.31598C10.0773 7.30753 9.37822 7.25538 8.67942 7.16482C8.05378 7.07914 7.49286 7.00232 7.18695 6.83858C6.88103 6.67485 6.39191 6.68007 6.01581 6.56087C6.22708 6.45342 6.6026 6.37877 7.10445 6.34444C7.43284 6.33218 7.70698 6.30002 7.90925 6.25001C8.11152 6.2 8.23747 6.13325 8.27902 6.05404L7.13718 5.72167C6.22528 5.5652 5.72075 5.68563 4.73545 5.62289L5.75067 5.5002C5.77107 5.48807 5.7787 5.47383 5.7732 5.45816C5.67463 5.21001 5.51781 5.15694 4.48002 5.01932L3.89755 4.93956L2.97566 4.84489C2.82801 4.79403 2.72591 4.741 2.67951 4.69109C2.63311 4.64118 2.64405 4.59614 2.71127 4.56049C2.84633 4.50053 2.8874 4.4239 2.83069 4.33767C2.74128 4.28055 2.7339 4.2279 2.80983 4.18884C2.88575 4.14978 3.0402 4.12678 3.24635 4.12385C3.41089 4.1193 3.42311 4.05329 3.51261 4.01591C3.60155 3.96438 3.75377 3.92485 3.9589 3.89999C4.16403 3.87514 4.41722 3.86553 4.70132 3.87185C5.53895 3.87701 6.32582 3.85767 7.04796 3.81417L6.91853 3.79644C7.67122 3.83463 8.37492 3.83926 8.99534 3.81011C9.61709 3.77342 10.415 3.79696 11.0754 3.77459C11.613 3.77972 12.0223 3.72894 12.2165 3.63303C12.4045 3.54145 13.0878 3.56283 13.611 3.58033C13.921 3.59166 14.2205 3.59645 14.5065 3.59467C14.8903 3.57394 15.3703 3.59348 15.8663 3.65003C16.0151 3.66741 16.1617 3.67661 16.2919 3.67674C17.5529 3.70051 18.8115 3.72848 20.0553 3.74088C20.3424 3.73374 20.6791 3.7501 21.0258 3.78805C21.1715 3.80452 21.3133 3.81135 21.4322 3.8076C23.3976 3.76991 25.6154 3.86607 27.5422 3.81407C27.7757 3.80179 28.0343 3.79923 28.3105 3.80647C28.9312 3.83702 29.4702 3.81736 29.8457 3.75048C30.0483 3.71491 30.308 3.6953 30.6084 3.69292C30.9087 3.69054 31.243 3.70543 31.5899 3.73665C32.1673 3.77798 32.7009 3.78246 33.1345 3.74962C33.9798 3.71928 34.8688 3.70681 35.7944 3.71229C36.0781 3.7176 36.3274 3.70581 36.5231 3.67783C36.7188 3.64986 36.8556 3.60644 36.9229 3.55096C36.6956 3.45665 36.447 3.44517 36.211 3.45346C35.2963 3.43197 34.3837 3.40628 33.486 3.39615C32.6825 3.36722 31.9116 3.35838 31.1844 3.36975C30.8234 3.38258 30.3729 3.35333 29.9313 3.28838C29.39 3.20612 28.8325 3.16525 28.3715 3.17404C28.0297 3.17622 27.669 3.16914 27.2945 3.15289C27.0548 3.13329 26.809 3.09964 26.5826 3.05539C26.4927 3.03617 26.3948 3.02001 26.2953 3.00795C26.1958 2.99588 26.0969 2.98818 26.0047 2.98533C25.9125 2.98247 25.8291 2.98452 25.76 2.99136C25.6908 2.9982 25.6374 3.00967 25.6031 3.02504C25.2563 3.15354 24.4809 3.08797 23.817 3.07375C22.822 2.85626 22.0815 2.98499 21.1516 2.86215C21.0781 2.854 21.0056 2.84907 20.9386 2.84766C20.8717 2.84625 20.8117 2.8484 20.7623 2.85396C18.9627 2.92789 16.8653 2.86628 14.9758 2.89181C14.7675 2.89554 14.5256 2.88274 14.2778 2.85487C12.658 2.67039 11.1007 2.61801 9.91028 2.70799C9.76543 2.71609 9.60066 2.71644 9.42345 2.70901C8.60954 2.63569 7.83121 2.60646 7.15342 2.62375C6.09118 2.61817 5.06985 2.6227 3.99054 2.60575C3.24654 2.58163 2.59385 2.6074 2.09787 2.68047C2.08209 2.7099 1.75171 2.67819 1.49862 2.67512C1.35307 2.60103 1.22688 2.53412 1.07683 2.46844C0.942687 2.38719 0.741741 2.30496 0.487682 2.22735C0.233622 2.14973 -0.0675935 2.07854 -0.395677 2.01858C-0.956593 1.94176 -1.01269 1.83029 -0.620194 1.78928C0.391467 1.6536 1.66357 1.59806 3.10262 1.62675C4.30557 1.62905 5.53013 1.6343 6.75014 1.64796C7.46174 1.65967 8.21191 1.68569 8.90419 1.69025C9.13779 1.70026 9.37775 1.71502 9.6216 1.73435C9.9208 1.76239 10.2113 1.77767 10.4775 1.77936C11.3321 1.75575 12.2859 1.77632 13.2933 1.84009C13.6623 1.85399 14.0166 1.85868 14.351 1.85408C15.1421 1.83677 15.9997 1.84951 16.9011 1.89196C17.4614 1.91589 18.0047 1.92841 18.5253 1.92937C18.7091 1.93199 18.8589 1.91188 19.036 1.92711C20.5947 2.08643 21.6985 1.97135 23.1014 2.03262C23.7832 2.0497 24.4347 2.04975 25.0465 2.03276C26.2406 2.03358 27.4679 2.05105 28.7236 2.08509C30.3841 2.14103 31.9229 2.12162 33.5084 2.14471C33.8214 2.14956 34.1236 2.14874 34.4129 2.14223C35.8199 2.09925 37.3481 2.10837 38.9603 2.16935C39.3264 2.17816 39.6551 2.16739 39.9261 2.13772C40.197 2.10804 40.4042 2.0601 40.5348 1.9969C40.59 1.95352 40.5542 1.89717 40.4343 1.83874C40.2353 1.7641 40.0106 1.69098 39.7639 1.62057L30.7897 1.3843C30.4128 1.37196 30.0452 1.36532 29.6888 1.3644C28.6407 1.36235 27.5604 1.34397 26.4532 1.30935C25.359 1.27684 24.3138 1.28261 23.2539 1.27282C22.9416 1.26954 22.6211 1.2618 22.2937 1.24963C20.0805 1.15329 17.9224 1.09444 15.8346 1.07351C14.9562 1.07054 14.0073 1.02633 13.1118 1.012C12.2164 0.997664 10.9918 0.992416 9.9296 0.98683L6.64085 0.987689C5.99398 0.984837 5.36415 0.993345 4.7366 0.997652C3.97505 0.690289 3.71261 0.618248 2.6964 0.483587C2.34874 0.433915 1.99512 0.404271 1.67699 0.398129C0.668203 0.422427 -0.597558 0.321281 -1.55418 0.334672C-2.13142 0.328067 -2.62124 0.362212 -2.97348 0.433612C-3.27925 0.489648 -3.62891 0.533987 -4.01705 0.56596C-5.0803 0.303019 -5.174 0.132247 -4.37419 0.0657914C-4.1575 0.0503425 -3.85902 0.0551208 -3.70254 0.0224001C-3.61275 0.0024729 -3.4901 -0.00892386 -3.34435 -0.0108935C-3.19859 -0.0128631 -3.03378 -0.00535518 -2.86283 0.0110485C-2.32329 0.0540775 -1.81758 0.0641975 -1.39646 0.0403903C-1.00013 0.00888317 -0.514317 0.0101404 0.0141425 0.044047C0.402469 0.0972291 0.743789 0.0221349 1.07962 0.000438674C1.41545 -0.0212575 1.69104 -0.0602309 2.21557 -0.00193346C2.31162 0.0096739 2.40698 0.0166426 2.49433 0.0184364C2.58168 0.0202302 2.65871 0.0168027 2.71949 0.00841599C3.28285 -0.0291302 3.95511 -0.0251845 4.6817 0.019928C5.79607 0.0643212 6.84164 0.0659851 7.78211 0.0248652C8.34509 -0.0111145 8.8251 -0.0749208 9.20335 -0.164063C9.30646 -0.193878 9.45954 -0.211756 9.64799 -0.215983C10.5942 -0.197383 11.6217 -0.127383 12.6641 -0.0104988C13.0568 0.0363352 13.449 0.0733808 13.8323 0.0998486C14.6201 0.158646 15.382 0.191593 16.0956 0.197715C17.1324 0.198686 18.2119 0.221308 19.3245 0.265378C20.0111 0.289915 20.6727 0.298973 21.3015 0.29245C21.9477 0.289375 22.6377 0.308093 23.3558 0.348168C24.0699 0.380824 24.6993 0.362007 25.1679 0.293995C25.3222 0.257346 25.4466 0.213827 25.5385 0.164248C24.4929 0.00291852 23.4115 -0.0790719 22.5121 -0.0652123C22.1704 -0.0758986 21.8868 -0.0651112 21.5268 -0.127951L21.5155 -0.10693C21.4439 -0.0932913 21.3358 -0.0900742 21.2119 -0.0978921C21.0879 -0.10571 20.9569 -0.124013 20.8435 -0.149319C20.8864 -0.229195 20.9269 -0.304869 20.9562 -0.359521C21.6415 -0.349879 22.3069 -0.350659 22.949 -0.361867C23.4903 -0.377992 24.2251 -0.23675 24.6935 -0.289917C25.6074 -0.223432 26.1892 -0.31523 27.0086 -0.288742C27.8281 -0.262254 28.7307 -0.174746 29.5501 -0.148258C30.2652 -0.133722 30.9595 -0.130563 31.6292 -0.138795C31.8603 -0.150348 32.1268 -0.147639 32.4123 -0.130829C32.8135 -0.0992036 33.1867 -0.0939038 33.4891 -0.115541C33.7915 -0.137179 34.0108 -0.184882 34.122 -0.253175C34.0173 -0.317146 33.8763 -0.399632 33.7137 -0.48508C34.0129 -0.55529 34.4672 -0.584854 35.0093 -0.569371L35.7754 -0.572762C35.9783 -0.570908 36.1335 -0.589889 36.2088 -0.625777C36.2841 -0.661665 36.2737 -0.711711 36.1798 -0.765571C34.7272 -1.0367 34.6737 -1.06659 33.6077 -0.892195L32.1922 -0.973234L32.216 -0.97448ZM227.759 28.6168L227.734 28.663L227.761 28.6126L227.998 28.6451L228.014 28.6157L227.759 28.6168ZM193.303 8.34773C192.968 8.29727 192.629 8.25089 192.289 8.20886C192.2 8.20234 192.117 8.20087 192.047 8.20457C191.976 8.20827 191.92 8.21702 191.884 8.2301C191.857 8.28055 192.047 8.31555 192.22 8.33918C192.437 8.371 192.66 8.39121 192.864 8.39775C193.068 8.40428 193.246 8.3969 193.381 8.37636L193.576 8.35796L193.303 8.34773ZM20.5369 20.6433C20.7578 20.6518 20.9672 20.6532 21.16 20.6474C22.0155 20.6066 22.8346 20.5473 23.7117 20.5095C24.8184 20.4135 26.09 20.3744 27.4789 20.3937C28.0216 20.4031 28.48 20.372 28.8007 20.3039C28.9927 20.2674 29.2406 20.2461 29.529 20.2412L33.201 20.1304C33.4279 20.1074 33.6242 20.0751 33.7851 20.0344C33.4615 19.9901 33.2457 19.9605 33.1163 19.9428C32.8477 19.9378 32.6169 19.9513 32.4469 19.982C32.2643 20.0339 31.9557 20.0545 31.5823 20.0396C31.2054 20.0272 30.8378 20.0206 30.4815 20.0197C29.8085 20.0223 29.131 20.0333 28.4558 20.0401C28.1931 20.1846 27.4177 20.119 26.7538 20.1048L26.2408 20.1113C24.5642 20.1862 22.9626 20.2893 21.4439 20.42C21.1504 20.4421 20.8975 20.4774 20.6931 20.5248C20.6161 20.5617 20.5914 20.6078 20.621 20.6593L20.5131 20.6445L20.5369 20.6433ZM95.4082 34.462C95.815 34.4718 96.2386 34.4921 96.6727 34.5224C97.0072 34.5533 97.3335 34.5721 97.6387 34.5779C99.3487 34.6103 101.131 34.6852 102.961 34.8014C103.2 34.819 103.43 34.8276 103.642 34.827L105.14 34.7975C105.612 34.7809 105.621 34.7641 105.277 34.541C104.992 34.4977 104.704 34.4582 104.414 34.4228C104.242 34.3992 103.961 34.3608 103.896 34.3969C103.495 34.4955 102.765 34.4317 102.151 34.4108C100.374 34.3569 98.5408 34.2773 96.7464 34.2121C96.367 34.1961 95.9995 34.188 95.6477 34.1879C95.4294 34.1846 95.2304 34.1909 95.0588 34.2066C95.0087 34.2082 94.9667 34.2128 94.9357 34.2203C94.9047 34.2277 94.8853 34.2377 94.8789 34.2496C94.8725 34.2616 94.8793 34.2751 94.8986 34.2895C94.918 34.3038 94.9495 34.3185 94.9912 34.3327C95.1381 34.3823 95.3077 34.4299 95.4945 34.4738L95.4082 34.462ZM108.429 2.08941L110.179 2.06297C110.389 2.06013 110.567 2.03036 110.792 2.04309C111.991 2.08344 113.101 2.0722 114.075 2.00986C114.407 1.98442 114.795 1.97933 115.218 1.99488C116.513 2.04095 117.735 2.04284 118.851 2.00051C119.572 1.99202 120.246 1.96348 120.865 1.91533C120.912 1.90415 120.942 1.88898 120.952 1.87084C120.961 1.8527 120.951 1.83203 120.921 1.81023C120.913 1.79646 120.892 1.78164 120.859 1.76681C120.826 1.75197 120.781 1.73746 120.729 1.72428C120.677 1.71111 120.618 1.69958 120.556 1.69048C120.494 1.68139 120.43 1.67494 120.37 1.6716C119.589 1.60642 118.847 1.58371 118.206 1.60532C117.611 1.63118 116.97 1.63874 116.295 1.6279C115.648 1.62505 115.209 1.70935 114.41 1.64502C114.072 1.62384 113.773 1.63081 113.565 1.66478C113.147 1.72106 112.563 1.7242 111.917 1.67361C111.53 1.64801 111.161 1.63703 110.822 1.64109C110.002 1.6596 109.218 1.69663 108.458 1.7324C108.218 1.74068 107.962 1.74182 107.692 1.7358L103.885 1.66575C102.97 1.64426 102.058 1.61856 101.16 1.60843C100.426 1.58644 99.7428 1.59333 99.1346 1.62885C98.4861 1.66619 97.7789 1.68135 97.0262 1.67404C95.8574 1.69447 94.6953 1.70229 93.4231 1.69954C92.6117 1.70123 91.781 1.69576 90.9332 1.67893C90.5043 1.65727 90.1402 1.67491 89.9109 1.72846C89.7715 1.77254 89.4434 1.73663 89.171 1.7264C87.718 1.62779 86.3554 1.60443 85.1784 1.65793C85.0281 1.66665 84.863 1.66981 84.687 1.66735C83.5532 1.66551 82.3786 1.65356 81.2903 1.65343C81.0038 1.65758 80.7341 1.66899 80.4847 1.6875C80.5114 1.7177 80.5876 1.75044 80.6973 1.77891C80.8071 1.80739 80.9421 1.82943 81.0743 1.84045C82.1036 1.92483 83.0975 1.9694 84.0141 1.9723C85.5399 1.96155 87.1381 1.98572 88.7921 2.04454C90.0755 2.10384 91.2458 2.09135 92.2158 2.00801C92.974 1.94582 93.9604 1.96922 95.0055 2.07418C95.4527 2.12432 95.8868 2.14436 96.2484 2.13158C96.5964 2.11482 96.9957 2.11888 97.423 2.14354C98.3238 2.19041 99.1902 2.21216 100.005 2.20835C100.802 2.19109 101.545 2.14395 102.363 2.12964C103.181 2.11534 104.427 2.12354 105.436 2.09924C106.445 2.07494 107.442 2.07167 108.429 2.08941ZM35.8749 -0.369602C35.9673 -0.239616 36.2945 -0.158708 36.6464 -0.124047C37.8598 0.0298582 39.0594 0.0953488 40.0437 0.0614368C40.5755 0.0141344 41.2843 0.0323423 42.031 0.112485C42.9005 0.195795 43.7132 0.209611 44.3258 0.151499C44.4759 0.141344 44.5909 0.119878 44.6604 0.0890121C44.6739 0.0637881 44.6987 0.0175454 44.7032 0.00913742C44.6388 -0.0121863 44.5599 -0.0319429 44.4725 -0.048611C44.385 -0.065279 44.2915 -0.07841 44.199 -0.0869932L40.1799 -0.235792L39.4795 -0.268536C38.2003 -0.35432 36.9813 -0.388494 35.8749 -0.369602ZM43.7804 1.68779C44.4076 1.90005 44.4098 1.89583 44.7312 1.94436C46.2815 2.1459 47.8308 2.2547 49.1946 2.2578C49.4978 2.25719 49.755 2.2367 49.9446 2.19806C50.0422 2.19282 50.1042 2.17618 50.1173 2.15177C50.1304 2.12736 50.0934 2.09715 50.0145 2.06774L49.5157 1.9182C48.6098 1.85346 47.717 1.80202 46.8425 1.76419C45.8244 1.71952 44.9221 1.7178 43.8666 1.6996L43.7804 1.68779ZM95.333 33.5221C95.9175 33.8142 95.9198 33.81 96.8983 33.8854C97.5802 33.9388 98.2416 33.9701 98.8631 33.9785C99.6223 33.9877 100.401 34.0041 101.158 34.0175C101.343 34.0268 101.499 34.0191 101.597 33.9958C101.696 33.9726 101.728 33.9354 101.689 33.8916C101.589 33.8441 101.434 33.7981 101.248 33.7611C101.061 33.7241 100.855 33.6984 100.663 33.688L100.25 33.681C99.7482 33.6665 99.2272 33.6448 98.7426 33.6416C98.4281 33.6537 98.0639 33.6443 97.6783 33.6142C97.2926 33.5841 96.8961 33.5341 96.5199 33.468L95.333 33.5221ZM46.9014 0.0123604C47.0575 0.0629519 47.234 0.111408 47.4263 0.156437C48.1707 0.281247 48.9586 0.352134 49.6354 0.355201C49.9555 0.362933 50.2482 0.335328 50.5741 0.375443C51.1585 0.429047 51.7249 0.4576 52.2427 0.459558C52.2427 0.459558 52.3878 0.447853 52.4355 0.445354L52.5346 0.260379C52.2895 0.217527 52.0339 0.18252 51.7795 0.156968C50.9259 0.107755 50.0872 0.0741086 49.2506 0.0362579C48.4141 -0.00159278 48.1224 -0.0189788 47.5753 -0.0352362C47.3313 -0.0262999 47.1056 -0.0103567 46.9014 0.0123604ZM28.4164 23.0085L29.5334 23.3871C29.8949 23.42 30.2326 23.4259 30.4952 23.4041C30.7577 23.3822 30.9307 23.3337 30.9878 23.2659C31.0798 23.2342 31.089 23.1872 31.0135 23.1348C30.9379 23.0824 30.7836 23.0286 30.5827 22.9848C30.3894 22.9328 30.1687 22.8862 29.9343 22.8479C29.6999 22.8096 29.4568 22.7804 29.2201 22.762L28.4164 23.0085ZM37.717 21.1234C36.9864 21.0592 36.2876 21.033 35.674 21.0467C35.2874 21.0842 34.7636 21.0722 34.2099 21.0131C33.2031 20.8954 32.2325 20.8627 31.503 20.9222C31.503 20.9222 31.4759 20.9726 31.3522 20.9873C31.2286 21.002 31.719 21.0375 31.8269 21.0523C32.618 21.0884 33.4136 21.1162 34.1014 21.1291C34.5284 21.1286 34.9801 21.1405 35.4486 21.1647C36.0933 21.2021 36.7046 21.2142 37.2588 21.2006C37.2588 21.2006 37.4733 21.1893 37.7147 21.1276L37.717 21.1234ZM115.743 1.40348C115.394 1.33218 115.016 1.27423 114.636 1.23398C114.257 1.19373 113.886 1.17223 113.552 1.17109C113.296 1.16737 113.089 1.18619 112.964 1.22459C112.838 1.26298 112.802 1.31876 112.86 1.38309C113.118 1.41855 113.464 1.46582 113.658 1.49241C114.331 1.48981 114.905 1.45562 115.743 1.40348ZM181.068 7.41217C180.788 7.35477 180.48 7.31089 180.178 7.28553C179.876 7.26017 179.594 7.25436 179.362 7.26876C179.243 7.275 179.324 7.34022 179.303 7.37806C179.29 7.38664 179.29 7.39731 179.304 7.40895C179.318 7.42059 179.344 7.43279 179.38 7.44424C179.417 7.4557 179.462 7.466 179.511 7.47406C179.561 7.48213 179.612 7.48767 179.66 7.4901C179.964 7.51482 180.251 7.52218 180.495 7.51152C180.739 7.50086 180.933 7.47251 181.059 7.42899L181.068 7.41217ZM185.445 8.23272C185.402 8.19884 185.31 8.16355 185.186 8.13328C185.061 8.10302 184.914 8.07982 184.769 8.06795C184.514 8.06636 184.282 8.07575 184.083 8.09578C183.866 8.11123 184.022 8.20929 184.315 8.26747C184.439 8.29082 184.572 8.30904 184.702 8.32067C184.833 8.3323 184.958 8.33702 185.067 8.33447C185.176 8.33191 185.267 8.32214 185.332 8.30593C185.397 8.28973 185.434 8.26754 185.441 8.24112L185.445 8.23272ZM58.2638 0.372622C57.6108 0.251602 57.1082 0.282048 56.5553 0.233408C56.0025 0.184768 55.8662 0.17965 55.9403 0.257483C56.0144 0.335316 56.3934 0.319531 56.6307 0.352031C56.9513 0.395157 57.2739 0.419919 57.5623 0.423556C57.8507 0.427193 58.0936 0.409558 58.2638 0.372622ZM194.337 20.8493C193.992 20.8222 193.653 20.803 193.326 20.792C193.283 20.8033 193.256 20.818 193.247 20.8353C193.238 20.8527 193.246 20.8722 193.272 20.8929C193.272 20.8929 193.493 20.9548 193.623 20.9726C194.1 21.0334 194.123 20.9463 194.337 20.8493ZM243.223 32.1246C243.457 32.2063 243.566 32.2618 243.754 32.301C243.84 32.3147 243.929 32.3245 244.014 32.33C244.1 32.3354 244.179 32.3362 244.246 32.3324C244.329 32.3089 244.348 32.2729 244.301 32.2315C244.301 32.2315 244.062 32.1582 243.971 32.1548C243.712 32.1375 243.461 32.1274 243.223 32.1246ZM47.1487 -0.3193C46.6525 -0.387255 46.1778 -0.452261 45.8343 -0.372959C46.6222 -0.287615 46.6222 -0.287609 47.1487 -0.3193ZM55.1853 0.456423C54.6842 0.311091 54.3902 0.297902 54.1497 0.314601C54.0986 0.318807 54.0648 0.328181 54.0534 0.3413C54.0419 0.354419 54.0535 0.37057 54.0864 0.387313C54.1193 0.404055 54.1717 0.420474 54.2356 0.434089C54.2996 0.447704 54.3716 0.457773 54.4408 0.462772C54.7021 0.466955 54.9513 0.464831 55.1853 0.456423ZM80.9727 0.517878C80.9839 0.496858 80.9974 0.471635 80.868 0.453908C80.8341 0.444908 80.7943 0.437169 80.7527 0.431464C80.711 0.425759 80.669 0.422294 80.6307 0.421412C80.6307 0.421412 80.6172 0.446637 80.6082 0.463453L80.9727 0.517878ZM98.88 35.4158L98.5919 35.435L98.7213 35.4527L99.0629 35.4634L98.88 35.4158ZM200.349 7.90472C200.241 7.88994 200.133 7.87517 200.118 7.9046C200.095 7.90916 200.081 7.91574 200.076 7.92378C200.072 7.93183 200.078 7.9411 200.093 7.95084C200.093 7.95084 200.244 7.97153 200.308 7.98039L200.349 7.90472ZM183.55 8.14008C183.479 8.13839 183.415 8.14037 183.361 8.14588C183.361 8.14588 183.348 8.1711 183.348 8.1711L183.564 8.20065L183.55 8.14008ZM37.1472 14.1502C37.0639 14.1348 36.9756 14.1227 36.8884 14.1147L36.7805 14.0999C36.7805 14.0999 36.8964 14.1429 36.9611 14.1517C37.0258 14.1606 37.078 14.1497 37.1472 14.1502Z" fill="#34A1D3"/>
</svg>
