<svg width="87" height="87" viewBox="0 0 87 87" fill="none" xmlns="http://www.w3.org/2000/svg">
<path d="M85.9664 31.0792V55.9907C85.9664 64.82 78.7813 72.0052 69.9519 72.0052H45.0404V82.6815H57.4962C58.4784 82.6815 59.2756 83.4787 59.2756 84.4609C59.2756 85.4432 58.4784 86.2403 57.4962 86.2403H29.0259C28.0437 86.2403 27.2465 85.4432 27.2465 84.4609C27.2465 83.4787 28.0437 82.6815 29.0259 82.6815H41.4817V72.0052H16.5702C7.74085 72.0052 0.555664 64.82 0.555664 55.9907V23.9616C0.555664 15.1323 7.74085 7.9471 16.5702 7.9471H52.158C53.1402 7.9471 53.9374 8.74427 53.9374 9.72649C53.9374 10.7087 53.1402 11.5059 52.158 11.5059H16.5702C9.70174 11.5059 4.11445 17.0932 4.11445 23.9616V55.9907C4.11445 62.8591 9.70174 68.4464 16.5702 68.4464H69.9519C76.8204 68.4464 82.4077 62.8591 82.4077 55.9907V31.0792C82.4077 30.097 83.2048 29.2998 84.187 29.2998C85.1693 29.2998 85.9664 30.097 85.9664 31.0792ZM40.5635 36.5206C68.5106 4.00042 68.6316 3.8723 68.6921 3.8118C72.6744 -0.159805 79.1443 -0.159805 83.1123 3.81891C87.0768 7.79407 87.0768 14.2675 83.1123 18.2391L53.8555 49.6489C53.6847 52.4817 52.6171 55.1472 50.6633 57.2825C48.311 59.8555 44.9586 61.3324 41.4745 61.3324H27.2394C25.5134 61.3324 23.9369 60.5352 22.9191 59.1544C21.8977 57.7665 21.6059 56.0263 22.1183 54.375C23.8977 48.6453 29.3747 38.4708 38.6026 36.6878C39.2503 36.5633 39.9051 36.549 40.5564 36.5241L40.5635 36.5206ZM44.7984 37.0544C46.2967 37.5028 47.738 38.1612 49.0192 39.122C51.0761 40.6737 52.5281 42.72 53.2968 45.0225L60.6457 37.1362C59.4784 32.9226 55.7737 29.7838 51.4071 29.3639C49.0761 32.0792 46.8127 34.7091 44.7984 37.0544ZM50.3395 48.051C50.1259 45.6524 48.8982 43.4922 46.8732 41.9655C44.6917 40.3178 41.9229 39.663 39.2823 40.179C31.7021 41.6417 27.065 50.4496 25.5205 55.4248C25.3461 55.9835 25.4458 56.5707 25.7874 57.0369C26.1291 57.4996 26.6629 57.7665 27.243 57.7665H41.4781C43.9692 57.7665 46.3608 56.7131 48.0441 54.8768C49.7487 53.0155 50.5637 50.5884 50.3395 48.051ZM54.0762 26.257C58.1901 27.3816 61.6208 30.3247 63.3646 34.218L80.55 15.7693C83.1728 13.1358 83.1728 8.92221 80.5927 6.33141C78.0054 3.74418 73.7954 3.74062 71.2082 6.33141C70.9626 6.61256 62.5105 16.4419 54.0762 26.257Z" fill="#323F49"/>
</svg>
