<?xml version="1.0" encoding="UTF-8"?>
<!DOCTYPE svg PUBLIC "-//W3C//DTD SVG 1.1//EN" "http://www.w3.org/Graphics/SVG/1.1/DTD/svg11.dtd">
<svg xmlns="http://www.w3.org/2000/svg" version="1.1" width="276px" height="220px" style="shape-rendering:geometricPrecision; text-rendering:geometricPrecision; image-rendering:optimizeQuality; fill-rule:evenodd; clip-rule:evenodd" xmlns:xlink="http://www.w3.org/1999/xlink">
<g><path style="opacity:1" fill="#fcfcfb" d="M -0.5,-0.5 C 54.1667,-0.5 108.833,-0.5 163.5,-0.5C 163.5,0.166667 163.5,0.833333 163.5,1.5C 160.705,2.06299 158.372,3.39632 156.5,5.5C 155.325,5.28099 154.325,5.61432 153.5,6.5C 152.289,8.94978 150.622,10.9498 148.5,12.5C 147.452,11.6171 146.285,10.9504 145,10.5C 139.76,10.8248 134.927,12.1581 130.5,14.5C 129.209,14.2627 128.209,14.596 127.5,15.5C 125.102,15.2594 123.102,15.9261 121.5,17.5C 120.167,17.5 118.833,17.5 117.5,17.5C 114.423,17.6529 111.589,16.9863 109,15.5C 103.345,16.3649 103.178,17.3649 108.5,18.5C 108.345,21.6092 107.678,24.6092 106.5,27.5C 102.59,25.7836 100.923,22.7836 101.5,18.5C 98.5701,17.2125 96.2368,17.7125 94.5,20C 96.2077,21.5095 97.8744,23.0095 99.5,24.5C 95.7267,27.5996 92.7267,31.2662 90.5,35.5C 89.5,35.8333 88.8333,36.5 88.5,37.5C 85.5908,40.0646 82.5908,42.7313 79.5,45.5C 79.0051,48.4703 77.5051,50.8037 75,52.5C 74.5065,54.1341 74.3398,55.8008 74.5,57.5C 70.6125,57.6459 66.9458,58.3126 63.5,59.5C 60.5152,60.3257 57.8485,61.659 55.5,63.5C 51.5867,65.7436 49.2534,69.077 48.5,73.5C 46.3135,78.66 47.6468,82.66 52.5,85.5C 53.4151,87.7541 54.7484,89.7541 56.5,91.5C 56.5394,92.5832 56.8728,93.5832 57.5,94.5C 59.396,95.4656 61.396,95.7989 63.5,95.5C 63.5,97.5 63.5,99.5 63.5,101.5C 64.5,101.5 65.5,101.5 66.5,101.5C 66.5,99.5 66.5,97.5 66.5,95.5C 67.8333,95.5 69.1667,95.5 70.5,95.5C 70.5,98.1667 70.5,100.833 70.5,103.5C 73.5406,103.406 75.2072,104.906 75.5,108C 76.448,108.483 77.448,108.649 78.5,108.5C 78.6079,110.783 79.4412,112.783 81,114.5C 83.6985,115.895 86.1985,117.562 88.5,119.5C 89.1667,119.833 89.8333,120.167 90.5,120.5C 92.3122,122.461 93.3122,124.794 93.5,127.5C 106.324,132.145 119.324,133.812 132.5,132.5C 133.038,134.117 133.371,135.784 133.5,137.5C 131.396,137.201 129.396,137.534 127.5,138.5C 129.149,139.648 130.649,140.981 132,142.5C 133.205,141.929 134.372,141.262 135.5,140.5C 134.046,138.737 134.38,137.403 136.5,136.5C 141.335,137.726 144.669,140.56 146.5,145C 151.972,147.285 157.638,147.952 163.5,147C 164.942,146.623 165.942,145.79 166.5,144.5C 170.524,143.076 173.357,140.409 175,136.5C 176.667,139.167 178.333,139.167 180,136.5C 180.933,131.641 181.766,126.808 182.5,122C 181.747,120.513 180.914,120.346 180,121.5C 178.246,119.75 176.079,119.083 173.5,119.5C 171.997,116.511 169.997,113.844 167.5,111.5C 166.5,111.167 165.833,110.5 165.5,109.5C 167.167,109.5 168.833,109.5 170.5,109.5C 173.928,112.494 176.095,111.827 177,107.5C 177.414,107.957 177.914,108.291 178.5,108.5C 180.194,106.446 181.361,104.112 182,101.5C 182.741,100.359 183.575,100.359 184.5,101.5C 185.474,99.2573 185.808,96.924 185.5,94.5C 188.674,88.3056 191.007,81.8056 192.5,75C 192.395,73.4085 192.061,71.9085 191.5,70.5C 192.496,70.4142 193.329,70.7476 194,71.5C 196.199,66.7091 196.866,61.7091 196,56.5C 195.176,50.8494 193.51,45.5161 191,40.5C 190.667,40.8333 190.333,41.1667 190,41.5C 188.887,40.695 187.721,40.0283 186.5,39.5C 184.963,36.3984 182.963,33.7317 180.5,31.5C 180.833,30.8333 181.167,30.1667 181.5,29.5C 183.326,27.8525 184.66,25.8525 185.5,23.5C 188.315,19.2402 187.982,15.2402 184.5,11.5C 183.833,8.15605 182.166,5.48938 179.5,3.5C 178.211,2.36339 177.211,1.03005 176.5,-0.5C 209.5,-0.5 242.5,-0.5 275.5,-0.5C 275.5,57.8333 275.5,116.167 275.5,174.5C 271.952,172.061 268.452,172.061 265,174.5C 263.718,184.067 263.051,193.734 263,203.5C 261.931,207.286 259.431,208.953 255.5,208.5C 251.165,208.669 248.331,206.669 247,202.5C 246.807,193.119 246.307,183.786 245.5,174.5C 242.872,172.367 240.039,172.034 237,173.5C 235.099,184.781 235.099,196.114 237,207.5C 238.08,209.996 239.414,212.33 241,214.5C 243.406,216.087 245.572,217.753 247.5,219.5C 239.833,219.5 232.167,219.5 224.5,219.5C 226.14,217.831 227.474,215.831 228.5,213.5C 228,212.5 227.5,211.5 227,210.5C 223.898,209.778 220.732,209.611 217.5,210C 216.619,209.292 215.953,208.458 215.5,207.5C 215.5,198.5 215.5,189.5 215.5,180.5C 217.735,180.795 219.735,180.461 221.5,179.5C 224.139,178.294 224.972,176.294 224,173.5C 221.096,171.773 217.93,171.107 214.5,171.5C 214.666,166.489 214.499,161.489 214,156.5C 210.26,153.587 206.926,153.92 204,157.5C 203.501,162.155 203.334,166.821 203.5,171.5C 196.711,171.258 195.045,173.925 198.5,179.5C 200.071,180.309 201.738,180.643 203.5,180.5C 203.334,190.839 203.5,201.172 204,211.5C 205.332,214.639 207.165,217.306 209.5,219.5C 202.5,219.5 195.5,219.5 188.5,219.5C 190.067,213.836 190.733,208.003 190.5,202C 192.243,191.9 189.576,183.233 182.5,176C 171.02,169.91 161.186,171.744 153,181.5C 150.974,188.141 150.141,194.975 150.5,202C 150.667,206.833 150.833,211.667 151,216.5C 152.039,217.244 152.539,218.244 152.5,219.5C 144.167,219.5 135.833,219.5 127.5,219.5C 133.478,215.938 137.312,210.605 139,203.5C 139.667,193.833 139.667,184.167 139,174.5C 135.304,171.575 131.971,171.908 129,175.5C 128.921,185.24 128.255,194.907 127,204.5C 125.471,207.516 122.971,208.849 119.5,208.5C 115.823,208.664 113.323,206.997 112,203.5C 111.667,194.167 111.333,184.833 111,175.5C 107.254,171.607 103.588,171.607 100,175.5C 99.3333,184.5 99.3333,193.5 100,202.5C 100.942,205.993 102.275,209.326 104,212.5C 106.553,214.982 109.053,217.315 111.5,219.5C 100.167,219.5 88.8333,219.5 77.5,219.5C 86.4371,214.312 90.7704,206.312 90.5,195.5C 89.4478,176.481 79.7811,169.481 61.5,174.5C 61.6661,168.824 61.4994,163.157 61,157.5C 57.9946,154.084 54.6612,153.751 51,156.5C 50.0719,173.878 50.4052,191.211 52,208.5C 54.3661,213.021 57.5327,216.687 61.5,219.5C 50.1667,219.5 38.8333,219.5 27.5,219.5C 29.0762,217.269 31.2428,215.603 34,214.5C 35.3333,212.5 36.6667,210.5 38,208.5C 39.5499,197.217 39.8833,185.883 39,174.5C 35.7963,171.887 32.6296,171.887 29.5,174.5C 28.668,183.482 28.168,192.482 28,201.5C 26.244,207.964 22.0773,210.13 15.5,208C 13.5125,206.681 12.3459,204.848 12,202.5C 11.918,193.092 11.2514,183.759 10,174.5C 8.87395,173.056 7.37395,172.39 5.5,172.5C 3.30692,172.719 1.30692,173.385 -0.5,174.5C -0.5,116.167 -0.5,57.8333 -0.5,-0.5 Z"/></g>
<g><path style="opacity:1" fill="#da7b46" d="M 146.5,15.5 C 140.167,15.5 133.833,15.5 127.5,15.5C 128.209,14.596 129.209,14.2627 130.5,14.5C 133.989,14.1373 137.489,13.804 141,13.5C 143.295,13.5465 145.129,14.2132 146.5,15.5 Z"/></g>
<g><path style="opacity:1" fill="#b4362e" d="M 163.5,1.5 C 159.845,3.99971 157.011,7.33304 155,11.5C 152.649,16.7568 153.482,21.4235 157.5,25.5C 158.942,26.8195 159.608,28.4862 159.5,30.5C 159.167,30.5 158.833,30.5 158.5,30.5C 156.56,26.7203 154.393,23.0536 152,19.5C 150.924,13.9893 152.424,9.32268 156.5,5.5C 158.372,3.39632 160.705,2.06299 163.5,1.5 Z"/></g>
<g><path style="opacity:1" fill="#c4403f" d="M 179.5,3.5 C 182.166,5.48938 183.833,8.15605 184.5,11.5C 185.36,15.4338 185.693,19.4338 185.5,23.5C 184.66,25.8525 183.326,27.8525 181.5,29.5C 181.167,29.5 180.833,29.5 180.5,29.5C 180.795,27.5767 181.628,25.9101 183,24.5C 183.167,22.3333 183.333,20.1667 183.5,18C 183.467,15.3897 182.8,13.223 181.5,11.5C 181.713,8.54915 181.046,5.88248 179.5,3.5 Z"/></g>
<g><path style="opacity:1" fill="#d40303" d="M 163.5,-0.5 C 167.833,-0.5 172.167,-0.5 176.5,-0.5C 177.211,1.03005 178.211,2.36339 179.5,3.5C 181.046,5.88248 181.713,8.54915 181.5,11.5C 181.405,17.0986 178.739,20.9319 173.5,23C 168.329,24.8643 162.996,25.6977 157.5,25.5C 153.482,21.4235 152.649,16.7568 155,11.5C 157.011,7.33304 159.845,3.99971 163.5,1.5C 163.5,0.833333 163.5,0.166667 163.5,-0.5 Z"/></g>
<g><path style="opacity:1" fill="#cb6b70" d="M 184.5,11.5 C 187.982,15.2402 188.315,19.2402 185.5,23.5C 185.693,19.4338 185.36,15.4338 184.5,11.5 Z"/></g>
<g><path style="opacity:1" fill="#e49569" d="M 117.5,17.5 C 118.833,17.5 120.167,17.5 121.5,17.5C 118.482,19.3999 115.149,20.7333 111.5,21.5C 113.364,19.9862 115.364,18.6528 117.5,17.5 Z"/></g>
<g><path style="opacity:1" fill="#f4a57f" d="M 146.5,15.5 C 150.293,18.4402 151.96,22.4402 151.5,27.5C 149.589,27.4257 148.422,26.4257 148,24.5C 146.851,21.6074 146.351,18.6074 146.5,15.5 Z"/></g>
<g><path style="opacity:1" fill="#f1671a" d="M 127.5,15.5 C 133.833,15.5 140.167,15.5 146.5,15.5C 146.351,18.6074 146.851,21.6074 148,24.5C 148.422,26.4257 149.589,27.4257 151.5,27.5C 152.926,31.0548 155.259,32.0548 158.5,30.5C 158.833,30.5 159.167,30.5 159.5,30.5C 159.5,30.8333 159.5,31.1667 159.5,31.5C 157.712,32.6225 155.712,32.7891 153.5,32C 147.192,28.84 143.859,23.6734 143.5,16.5C 139.774,16.1774 136.107,16.5108 132.5,17.5C 131.754,18.7362 131.421,20.0695 131.5,21.5C 128.15,21.5056 125.15,22.5056 122.5,24.5C 123.833,25.8333 123.833,27.1667 122.5,28.5C 123.025,29.1924 123.692,29.6924 124.5,30C 121.678,30.6987 120.012,29.5321 119.5,26.5C 118.675,25.6143 117.675,25.281 116.5,25.5C 116.5,26.8333 116.5,28.1667 116.5,29.5C 115.363,28.2112 114.03,27.2112 112.5,26.5C 111.699,24.9582 111.366,23.2915 111.5,21.5C 115.149,20.7333 118.482,19.3999 121.5,17.5C 123.102,15.9261 125.102,15.2594 127.5,15.5 Z"/></g>
<g><path style="opacity:1" fill="#d41714" d="M 181.5,11.5 C 182.8,13.223 183.467,15.3897 183.5,18C 183.333,20.1667 183.167,22.3333 183,24.5C 181.628,25.9101 180.795,27.5767 180.5,29.5C 179.469,28.645 178.303,27.9783 177,27.5C 171.667,30.9518 165.834,32.2852 159.5,31.5C 159.5,31.1667 159.5,30.8333 159.5,30.5C 159.608,28.4862 158.942,26.8195 157.5,25.5C 162.996,25.6977 168.329,24.8643 173.5,23C 178.739,20.9319 181.405,17.0986 181.5,11.5 Z"/></g>
<g><path style="opacity:1" fill="#fdefda" d="M 156.5,5.5 C 152.424,9.32268 150.924,13.9893 152,19.5C 154.393,23.0536 156.56,26.7203 158.5,30.5C 155.259,32.0548 152.926,31.0548 151.5,27.5C 151.96,22.4402 150.293,18.4402 146.5,15.5C 145.129,14.2132 143.295,13.5465 141,13.5C 137.489,13.804 133.989,14.1373 130.5,14.5C 134.927,12.1581 139.76,10.8248 145,10.5C 146.285,10.9504 147.452,11.6171 148.5,12.5C 150.622,10.9498 152.289,8.94978 153.5,6.5C 154.325,5.61432 155.325,5.28099 156.5,5.5 Z"/></g>
<g><path style="opacity:1" fill="#fb620c" d="M 159.5,31.5 C 165.834,32.2852 171.667,30.9518 177,27.5C 178.303,27.9783 179.469,28.645 180.5,29.5C 180.833,29.5 181.167,29.5 181.5,29.5C 181.167,30.1667 180.833,30.8333 180.5,31.5C 180.5,33.5 180.5,35.5 180.5,37.5C 181.833,37.5 183.167,37.5 184.5,37.5C 184.988,40.7107 184.321,43.544 182.5,46C 183.416,46.3742 184.25,46.8742 185,47.5C 185.308,46.6919 185.808,46.0253 186.5,45.5C 187.958,51.4098 188.624,57.4098 188.5,63.5C 187.022,63.762 185.689,63.4287 184.5,62.5C 183.383,59.6867 181.55,59.02 179,60.5C 178.51,61.7932 178.343,63.1266 178.5,64.5C 177.5,64.5 176.5,64.5 175.5,64.5C 175.5,63.5 175.5,62.5 175.5,61.5C 172.246,61.7931 169.246,61.1264 166.5,59.5C 165.167,56.8333 163.833,54.1667 162.5,51.5C 162.5,51.1667 162.5,50.8333 162.5,50.5C 161.214,47.883 159.547,45.5496 157.5,43.5C 153.255,40.3023 153.922,38.6356 159.5,38.5C 159.5,37.1667 159.5,35.8333 159.5,34.5C 146.055,34.5468 132.388,34.8801 118.5,35.5C 117.833,33.5 117.167,31.5 116.5,29.5C 116.5,28.1667 116.5,26.8333 116.5,25.5C 117.675,25.281 118.675,25.6143 119.5,26.5C 120.012,29.5321 121.678,30.6987 124.5,30C 123.692,29.6924 123.025,29.1924 122.5,28.5C 123.833,27.1667 123.833,25.8333 122.5,24.5C 125.15,22.5056 128.15,21.5056 131.5,21.5C 131.421,20.0695 131.754,18.7362 132.5,17.5C 136.107,16.5108 139.774,16.1774 143.5,16.5C 143.859,23.6734 147.192,28.84 153.5,32C 155.712,32.7891 157.712,32.6225 159.5,31.5 Z"/></g>
<g><path style="opacity:1" fill="#f96e1b" d="M 157.5,43.5 C 152.617,42.1307 147.617,41.464 142.5,41.5C 135.798,42.0554 129.131,42.5554 122.5,43C 121.751,41.2663 121.251,39.433 121,37.5C 120.005,36.9341 119.172,36.2674 118.5,35.5C 132.388,34.8801 146.055,34.5468 159.5,34.5C 159.5,35.8333 159.5,37.1667 159.5,38.5C 153.922,38.6356 153.255,40.3023 157.5,43.5 Z"/></g>
<g><path style="opacity:1" fill="#ebca64" d="M 95.5,31.5 C 90.6535,37.8037 85.3202,43.8037 79.5,49.5C 82.4756,45.5185 85.4756,41.5185 88.5,37.5C 88.8333,36.5 89.5,35.8333 90.5,35.5C 92.1667,34.1667 93.8333,32.8333 95.5,31.5 Z"/></g>
<g><path style="opacity:1" fill="#e08348" d="M 112.5,26.5 C 114.03,27.2112 115.363,28.2112 116.5,29.5C 117.167,31.5 117.833,33.5 118.5,35.5C 119.172,36.2674 120.005,36.9341 121,37.5C 121.251,39.433 121.751,41.2663 122.5,43C 129.131,42.5554 135.798,42.0554 142.5,41.5C 147.617,41.464 152.617,42.1307 157.5,43.5C 159.547,45.5496 161.214,47.883 162.5,50.5C 160.436,50.2381 159.103,49.0714 158.5,47C 149.433,43.7174 140.1,42.7174 130.5,44C 128.385,44.5573 126.385,45.3906 124.5,46.5C 123.186,45.6872 122.019,44.6872 121,43.5C 118.584,38.7184 116.084,34.0517 113.5,29.5C 113.443,28.391 113.11,27.391 112.5,26.5 Z"/></g>
<g><path style="opacity:1" fill="#fdeed5" d="M 113.5,29.5 C 116.084,34.0517 118.584,38.7184 121,43.5C 122.019,44.6872 123.186,45.6872 124.5,46.5C 126.385,45.3906 128.385,44.5573 130.5,44C 140.1,42.7174 149.433,43.7174 158.5,47C 159.103,49.0714 160.436,50.2381 162.5,50.5C 162.5,50.8333 162.5,51.1667 162.5,51.5C 162.504,56.1571 164.004,60.1571 167,63.5C 167.483,64.448 167.649,65.448 167.5,66.5C 165.833,66.5 164.167,66.5 162.5,66.5C 161.851,61.8642 161.351,57.1976 161,52.5C 155.122,47.4338 148.122,45.1005 140,45.5C 135.132,46.0223 130.299,46.6889 125.5,47.5C 123.801,47.6602 122.134,47.4935 120.5,47C 119.378,44.8762 117.878,43.0429 116,41.5C 114.775,37.8862 113.942,33.8862 113.5,29.5 Z"/></g>
<g><path style="opacity:1" fill="#fcfbfb" d="M 162.5,66.5 C 162.037,69.221 161.371,71.8877 160.5,74.5C 159.662,74.8417 159.328,75.5084 159.5,76.5C 147.136,95.0084 129.803,102.675 107.5,99.5C 107.649,98.448 107.483,97.448 107,96.5C 105.333,94.1667 103.667,91.8333 102,89.5C 101.501,83.8431 101.334,78.1764 101.5,72.5C 104.507,67.3053 108.173,62.472 112.5,58C 112.833,57.8333 113.167,57.6667 113.5,57.5C 114.466,59.396 114.799,61.396 114.5,63.5C 115.833,63.5 117.167,63.5 118.5,63.5C 118.111,58.2122 120.444,55.5455 125.5,55.5C 124.908,58.1272 124.575,60.7938 124.5,63.5C 125.5,63.5 126.5,63.5 127.5,63.5C 127.665,59.8183 127.499,56.1516 127,52.5C 123.837,50.9888 123.337,49.3221 125.5,47.5C 130.299,46.6889 135.132,46.0223 140,45.5C 148.122,45.1005 155.122,47.4338 161,52.5C 161.351,57.1976 161.851,61.8642 162.5,66.5 Z"/></g>
<g><path style="opacity:1" fill="#ef9b65" d="M 188.5,45.5 C 192.589,51.4555 194.255,58.1222 193.5,65.5C 192.167,65.5 190.833,65.5 189.5,65.5C 190.815,64.333 191.481,62.833 191.5,61C 189.421,56.1021 188.421,50.9354 188.5,45.5 Z"/></g>
<g><path style="opacity:1" fill="#fafbf0" d="M 117.5,17.5 C 115.364,18.6528 113.364,19.9862 111.5,21.5C 111.366,23.2915 111.699,24.9582 112.5,26.5C 113.11,27.391 113.443,28.391 113.5,29.5C 113.942,33.8862 114.775,37.8862 116,41.5C 117.878,43.0429 119.378,44.8762 120.5,47C 122.134,47.4935 123.801,47.6602 125.5,47.5C 123.337,49.3221 123.837,50.9888 127,52.5C 127.499,56.1516 127.665,59.8183 127.5,63.5C 126.5,63.5 125.5,63.5 124.5,63.5C 124.575,60.7938 124.908,58.1272 125.5,55.5C 120.444,55.5455 118.111,58.2122 118.5,63.5C 117.167,63.5 115.833,63.5 114.5,63.5C 114.799,61.396 114.466,59.396 113.5,57.5C 113.167,57.6667 112.833,57.8333 112.5,58C 108.173,62.472 104.507,67.3053 101.5,72.5C 102.912,70.0024 104.079,67.3358 105,64.5C 107.41,61.6032 109.577,58.6032 111.5,55.5C 113.017,55.4894 114.184,54.8228 115,53.5C 115.856,47.4975 113.689,42.8309 108.5,39.5C 108.771,37.6203 108.104,36.287 106.5,35.5C 105.828,32.6572 104.495,30.1572 102.5,28C 99.1871,27.1358 96.8537,28.3024 95.5,31.5C 93.8333,32.8333 92.1667,34.1667 90.5,35.5C 92.7267,31.2662 95.7267,27.5996 99.5,24.5C 97.8744,23.0095 96.2077,21.5095 94.5,20C 96.2368,17.7125 98.5701,17.2125 101.5,18.5C 100.923,22.7836 102.59,25.7836 106.5,27.5C 107.678,24.6092 108.345,21.6092 108.5,18.5C 103.178,17.3649 103.345,16.3649 109,15.5C 111.589,16.9863 114.423,17.6529 117.5,17.5 Z"/></g>
<g><path style="opacity:1" fill="#fcc03f" d="M 106.5,35.5 C 108.104,36.287 108.771,37.6203 108.5,39.5C 110.462,42.1853 111.962,45.1853 113,48.5C 113.667,49.5 113.667,50.5 113,51.5C 110,53.8333 107,56.1667 104,58.5C 103.218,61.0758 101.718,63.0758 99.5,64.5C 98.0392,67.3819 96.8725,70.3819 96,73.5C 95.9252,71.065 95.0919,70.3984 93.5,71.5C 93.446,61.7715 97.446,54.2715 105.5,49C 104.978,48.4387 104.645,47.772 104.5,47C 107.589,43.6644 108.256,39.8311 106.5,35.5 Z"/></g>
<g><path style="opacity:1" fill="#fdf1de" d="M 186.5,39.5 C 187.721,40.0283 188.887,40.695 190,41.5C 190.333,41.1667 190.667,40.8333 191,40.5C 193.51,45.5161 195.176,50.8494 196,56.5C 196.866,61.7091 196.199,66.7091 194,71.5C 193.329,70.7476 192.496,70.4142 191.5,70.5C 191.068,69.2905 190.401,68.2905 189.5,67.5C 189.5,66.8333 189.5,66.1667 189.5,65.5C 190.833,65.5 192.167,65.5 193.5,65.5C 194.255,58.1222 192.589,51.4555 188.5,45.5C 187.833,43.5 187.167,41.5 186.5,39.5 Z"/></g>
<g><path style="opacity:1" fill="#eebd3a" d="M 106.5,35.5 C 105.5,35.5 104.5,35.5 103.5,35.5C 103.22,31.7747 101.22,30.608 97.5,32C 96.283,33.6477 95.4497,35.481 95,37.5C 90.1364,39.1907 87.303,42.524 86.5,47.5C 82.4004,48.4319 79.7337,50.9319 78.5,55C 78.8983,56.8988 79.8983,58.3988 81.5,59.5C 82.4255,60.6405 83.2588,60.6405 84,59.5C 84.6667,63.5 84.6667,67.5 84,71.5C 83.2917,72.3805 82.4584,73.0472 81.5,73.5C 81.5,72.8333 81.5,72.1667 81.5,71.5C 82.8003,68.9759 82.8003,66.3092 81.5,63.5C 75.7581,59.4729 75.0914,54.8062 79.5,49.5C 85.3202,43.8037 90.6535,37.8037 95.5,31.5C 96.8537,28.3024 99.1871,27.1358 102.5,28C 104.495,30.1572 105.828,32.6572 106.5,35.5 Z"/></g>
<g><path style="opacity:1" fill="#db7f47" d="M 162.5,51.5 C 163.833,54.1667 165.167,56.8333 166.5,59.5C 168.284,61.4105 169.284,63.7438 169.5,66.5C 168.833,66.5 168.167,66.5 167.5,66.5C 167.649,65.448 167.483,64.448 167,63.5C 164.004,60.1571 162.504,56.1571 162.5,51.5 Z"/></g>
<g><path style="opacity:1" fill="#f46f2a" d="M 180.5,31.5 C 182.963,33.7317 184.963,36.3984 186.5,39.5C 187.167,41.5 187.833,43.5 188.5,45.5C 188.421,50.9354 189.421,56.1021 191.5,61C 191.481,62.833 190.815,64.333 189.5,65.5C 189.5,66.1667 189.5,66.8333 189.5,67.5C 189.167,67.5 188.833,67.5 188.5,67.5C 187.306,66.2227 185.64,65.5561 183.5,65.5C 178.851,66.1278 174.184,66.4611 169.5,66.5C 169.284,63.7438 168.284,61.4105 166.5,59.5C 169.246,61.1264 172.246,61.7931 175.5,61.5C 175.5,62.5 175.5,63.5 175.5,64.5C 176.5,64.5 177.5,64.5 178.5,64.5C 178.343,63.1266 178.51,61.7932 179,60.5C 181.55,59.02 183.383,59.6867 184.5,62.5C 185.689,63.4287 187.022,63.762 188.5,63.5C 188.624,57.4098 187.958,51.4098 186.5,45.5C 185.808,46.0253 185.308,46.6919 185,47.5C 184.25,46.8742 183.416,46.3742 182.5,46C 184.321,43.544 184.988,40.7107 184.5,37.5C 183.167,37.5 181.833,37.5 180.5,37.5C 180.5,35.5 180.5,33.5 180.5,31.5 Z"/></g>
<g><path style="opacity:1" fill="#eb8949" d="M 63.5,59.5 C 67.1309,59.1604 70.4642,59.9937 73.5,62C 76.0914,65.4084 78.7581,68.575 81.5,71.5C 81.5,72.1667 81.5,72.8333 81.5,73.5C 80.5386,75.2646 80.2053,77.2646 80.5,79.5C 79.5,79.5 78.5,79.5 77.5,79.5C 76.2334,80.087 75.2334,80.087 74.5,79.5C 76.6324,76.5955 76.9657,73.5955 75.5,70.5C 75.7852,68.712 75.4519,67.0453 74.5,65.5C 72.336,65.0024 70.6694,63.8358 69.5,62C 65.3105,61.1903 61.3105,61.6903 57.5,63.5C 56.8333,63.5 56.1667,63.5 55.5,63.5C 57.8485,61.659 60.5152,60.3257 63.5,59.5 Z"/></g>
<g><path style="opacity:1" fill="#fdf4d8" d="M 88.5,37.5 C 85.4756,41.5185 82.4756,45.5185 79.5,49.5C 75.0914,54.8062 75.7581,59.4729 81.5,63.5C 82.8003,66.3092 82.8003,68.9759 81.5,71.5C 78.7581,68.575 76.0914,65.4084 73.5,62C 70.4642,59.9937 67.1309,59.1604 63.5,59.5C 66.9458,58.3126 70.6125,57.6459 74.5,57.5C 74.3398,55.8008 74.5065,54.1341 75,52.5C 77.5051,50.8037 79.0051,48.4703 79.5,45.5C 82.5908,42.7313 85.5908,40.0646 88.5,37.5 Z"/></g>
<g><path style="opacity:1" fill="#d99a65" d="M 55.5,63.5 C 53.1298,66.8597 50.7965,70.193 48.5,73.5C 49.2534,69.077 51.5867,65.7436 55.5,63.5 Z"/></g>
<g><path style="opacity:1" fill="#fb610b" d="M 75.5,70.5 C 73.8842,73.8536 72.7176,77.5202 72,81.5C 69.2809,82.4438 66.4475,82.7771 63.5,82.5C 63.4326,85.766 65.0992,87.266 68.5,87C 67.1667,87.6667 67.1667,88.3333 68.5,89C 67.2161,89.6838 66.0495,89.5171 65,88.5C 64.6667,89.1667 64.3333,89.8333 64,90.5C 60.8948,88.3383 57.7281,86.1716 54.5,84C 52.9861,82.561 52.6527,81.061 53.5,79.5C 55.3461,82.5906 58.0128,83.7573 61.5,83C 60.6422,81.43 59.9755,79.7633 59.5,78C 60.3479,75.2305 60.6813,72.3971 60.5,69.5C 59.5,69.5 58.5,69.5 57.5,69.5C 56.9084,72.1272 56.5751,74.7938 56.5,77.5C 51.7871,77.5324 50.2871,75.1991 52,70.5C 54.4295,68.5779 56.2628,66.2446 57.5,63.5C 61.3105,61.6903 65.3105,61.1903 69.5,62C 70.6694,63.8358 72.336,65.0024 74.5,65.5C 75.4519,67.0453 75.7852,68.712 75.5,70.5 Z"/></g>
<g><path style="opacity:1" fill="#f4cd64" d="M 108.5,39.5 C 113.689,42.8309 115.856,47.4975 115,53.5C 114.184,54.8228 113.017,55.4894 111.5,55.5C 105.804,60.537 101.304,66.537 98,73.5C 97.2665,78.8851 97.4332,84.2185 98.5,89.5C 97.2502,89.4226 96.4169,88.756 96,87.5C 94.2154,82.3137 93.3821,76.9804 93.5,71.5C 95.0919,70.3984 95.9252,71.065 96,73.5C 96.8725,70.3819 98.0392,67.3819 99.5,64.5C 101.718,63.0758 103.218,61.0758 104,58.5C 107,56.1667 110,53.8333 113,51.5C 113.667,50.5 113.667,49.5 113,48.5C 111.962,45.1853 110.462,42.1853 108.5,39.5 Z"/></g>
<g><path style="opacity:1" fill="#d40202" d="M 188.5,67.5 C 186.59,70.4525 185.59,73.7858 185.5,77.5C 184.662,77.8417 184.328,78.5084 184.5,79.5C 181.902,84.4302 178.902,89.0968 175.5,93.5C 173.55,96.4379 170.883,98.7713 167.5,100.5C 159.385,101.181 151.385,102.514 143.5,104.5C 141.179,105.966 139.179,107.799 137.5,110C 136.552,110.483 135.552,110.649 134.5,110.5C 132.854,113.791 131.188,117.125 129.5,120.5C 128.335,121.584 127.002,122.417 125.5,123C 120.249,123.804 115.082,123.637 110,122.5C 109.667,123.167 109.333,123.833 109,124.5C 106.564,123.645 104.064,122.979 101.5,122.5C 100.365,120.787 98.698,120.12 96.5,120.5C 96.3505,119.448 96.5172,118.448 97,117.5C 99.8777,113.051 103.211,109.051 107,105.5C 107.41,104.099 107.91,102.766 108.5,101.5C 117.716,100.887 127.049,100.054 136.5,99C 145.578,94.2504 153.078,87.7504 159,79.5C 159.483,78.552 159.649,77.552 159.5,76.5C 159.328,75.5084 159.662,74.8417 160.5,74.5C 162.41,73.0254 163.576,71.0254 164,68.5C 165.302,67.9152 166.469,67.2485 167.5,66.5C 168.167,66.5 168.833,66.5 169.5,66.5C 174.184,66.4611 178.851,66.1278 183.5,65.5C 185.64,65.5561 187.306,66.2227 188.5,67.5 Z"/></g>
<g><path style="opacity:1" fill="#b64d45" d="M 162.5,66.5 C 164.167,66.5 165.833,66.5 167.5,66.5C 166.469,67.2485 165.302,67.9152 164,68.5C 163.576,71.0254 162.41,73.0254 160.5,74.5C 161.371,71.8877 162.037,69.221 162.5,66.5 Z"/></g>
<g><path style="opacity:1" fill="#df363c" d="M 188.5,67.5 C 188.558,70.6644 189.224,73.6644 190.5,76.5C 188.784,76.6287 187.117,76.962 185.5,77.5C 185.59,73.7858 186.59,70.4525 188.5,67.5 Z"/></g>
<g><path style="opacity:1" fill="#f36a18" d="M 55.5,63.5 C 56.1667,63.5 56.8333,63.5 57.5,63.5C 56.2628,66.2446 54.4295,68.5779 52,70.5C 50.2871,75.1991 51.7871,77.5324 56.5,77.5C 56.5751,74.7938 56.9084,72.1272 57.5,69.5C 58.5,69.5 59.5,69.5 60.5,69.5C 60.6813,72.3971 60.3479,75.2305 59.5,78C 59.9755,79.7633 60.6422,81.43 61.5,83C 58.0128,83.7573 55.3461,82.5906 53.5,79.5C 52.6527,81.061 52.9861,82.561 54.5,84C 57.7281,86.1716 60.8948,88.3383 64,90.5C 64.3333,89.8333 64.6667,89.1667 65,88.5C 66.0495,89.5171 67.2161,89.6838 68.5,89C 67.1667,88.3333 67.1667,87.6667 68.5,87C 65.0992,87.266 63.4326,85.766 63.5,82.5C 66.4475,82.7771 69.2809,82.4438 72,81.5C 72.7176,77.5202 73.8842,73.8536 75.5,70.5C 76.9657,73.5955 76.6324,76.5955 74.5,79.5C 75.2334,80.087 76.2334,80.087 77.5,79.5C 74.2973,83.026 71.964,87.026 70.5,91.5C 68.1806,92.167 65.8473,92.3336 63.5,92C 59.7542,89.8004 56.0875,87.6337 52.5,85.5C 52.2623,83.3551 51.2623,81.6885 49.5,80.5C 48.5258,78.2573 48.1924,75.924 48.5,73.5C 50.7965,70.193 53.1298,66.8597 55.5,63.5 Z"/></g>
<g><path style="opacity:1" fill="#fbb318" d="M 106.5,35.5 C 108.256,39.8311 107.589,43.6644 104.5,47C 104.645,47.772 104.978,48.4387 105.5,49C 97.446,54.2715 93.446,61.7715 93.5,71.5C 93.3821,76.9804 94.2154,82.3137 96,87.5C 96.4169,88.756 97.2502,89.4226 98.5,89.5C 99.4633,93.1007 100.13,96.7674 100.5,100.5C 96.9558,100.239 95.1225,101.905 95,105.5C 92.0899,106.45 90.9232,108.45 91.5,111.5C 89.3502,111.905 87.3502,112.405 85.5,113C 83.4845,109.724 80.9845,106.891 78,104.5C 77.502,101.518 77.3354,98.5184 77.5,95.5C 74.7615,96.0352 72.9282,95.0352 72,92.5C 71.6012,92.7284 71.4346,93.0618 71.5,93.5C 71.1667,93.5 70.8333,93.5 70.5,93.5C 70.5,92.8333 70.5,92.1667 70.5,91.5C 71.964,87.026 74.2973,83.026 77.5,79.5C 78.5,79.5 79.5,79.5 80.5,79.5C 80.2053,77.2646 80.5386,75.2646 81.5,73.5C 82.4584,73.0472 83.2917,72.3805 84,71.5C 84.6667,67.5 84.6667,63.5 84,59.5C 83.2588,60.6405 82.4255,60.6405 81.5,59.5C 79.8983,58.3988 78.8983,56.8988 78.5,55C 79.7337,50.9319 82.4004,48.4319 86.5,47.5C 87.303,42.524 90.1364,39.1907 95,37.5C 95.4497,35.481 96.283,33.6477 97.5,32C 101.22,30.608 103.22,31.7747 103.5,35.5C 104.5,35.5 105.5,35.5 106.5,35.5 Z"/></g>
<g><path style="opacity:1" fill="#fefadc" d="M 101.5,72.5 C 101.334,78.1764 101.501,83.8431 102,89.5C 103.667,91.8333 105.333,94.1667 107,96.5C 107.483,97.448 107.649,98.448 107.5,99.5C 107.5,99.8333 107.5,100.167 107.5,100.5C 105.167,97.5 102.833,94.5 100.5,91.5C 100.057,88.188 99.7238,84.8547 99.5,81.5C 99.3425,78.1864 100.009,75.1864 101.5,72.5 Z"/></g>
<g><path style="opacity:1" fill="#c23f41" d="M 188.5,67.5 C 188.833,67.5 189.167,67.5 189.5,67.5C 190.401,68.2905 191.068,69.2905 191.5,70.5C 192.061,71.9085 192.395,73.4085 192.5,75C 191.007,81.8056 188.674,88.3056 185.5,94.5C 182.514,98.817 179.18,102.817 175.5,106.5C 176.783,103.99 177.783,101.323 178.5,98.5C 179.5,98.5 180.5,98.5 181.5,98.5C 181.992,94.0211 183.325,89.8545 185.5,86C 184.923,83.863 184.59,81.6963 184.5,79.5C 184.328,78.5084 184.662,77.8417 185.5,77.5C 187.117,76.962 188.784,76.6287 190.5,76.5C 189.224,73.6644 188.558,70.6644 188.5,67.5 Z"/></g>
<g><path style="opacity:1" fill="#e08c54" d="M 48.5,73.5 C 48.1924,75.924 48.5258,78.2573 49.5,80.5C 51.2623,81.6885 52.2623,83.3551 52.5,85.5C 47.6468,82.66 46.3135,78.66 48.5,73.5 Z"/></g>
<g><path style="opacity:1" fill="#fae19c" d="M 111.5,55.5 C 109.577,58.6032 107.41,61.6032 105,64.5C 104.079,67.3358 102.912,70.0024 101.5,72.5C 100.009,75.1864 99.3425,78.1864 99.5,81.5C 99.7238,84.8547 100.057,88.188 100.5,91.5C 99.8333,90.8333 99.1667,90.1667 98.5,89.5C 97.4332,84.2185 97.2665,78.8851 98,73.5C 101.304,66.537 105.804,60.537 111.5,55.5 Z"/></g>
<g><path style="opacity:1" fill="#b53b36" d="M 159.5,76.5 C 159.649,77.552 159.483,78.552 159,79.5C 153.078,87.7504 145.578,94.2504 136.5,99C 127.049,100.054 117.716,100.887 108.5,101.5C 108.167,101.5 107.833,101.5 107.5,101.5C 107.5,101.167 107.5,100.833 107.5,100.5C 107.5,100.167 107.5,99.8333 107.5,99.5C 129.803,102.675 147.136,95.0084 159.5,76.5 Z"/></g>
<g><path style="opacity:1" fill="#e17e41" d="M 52.5,85.5 C 56.0875,87.6337 59.7542,89.8004 63.5,92C 65.8473,92.3336 68.1806,92.167 70.5,91.5C 70.5,92.1667 70.5,92.8333 70.5,93.5C 65.4846,95.2864 60.8179,94.6197 56.5,91.5C 54.7484,89.7541 53.4151,87.7541 52.5,85.5 Z"/></g>
<g><path style="opacity:1" fill="#f6dd92" d="M 71.5,95.5 C 74.2309,98.2951 75.8975,101.628 76.5,105.5C 73.2586,103.017 71.5919,99.6841 71.5,95.5 Z"/></g>
<g><path style="opacity:1" fill="#f5c247" d="M 98.5,89.5 C 99.1667,90.1667 99.8333,90.8333 100.5,91.5C 101.633,94.2709 102.633,97.1042 103.5,100C 103.642,102.912 102.309,104.412 99.5,104.5C 99.0074,106.806 98.6741,109.139 98.5,111.5C 97.1667,111.5 95.8333,111.5 94.5,111.5C 94.8942,114.712 93.7276,117.046 91,118.5C 89.8767,116.9 88.3767,115.9 86.5,115.5C 82.6456,112.728 79.3122,109.395 76.5,105.5C 75.8975,101.628 74.2309,98.2951 71.5,95.5C 71.5,94.8333 71.5,94.1667 71.5,93.5C 71.4346,93.0618 71.6012,92.7284 72,92.5C 72.9282,95.0352 74.7615,96.0352 77.5,95.5C 77.3354,98.5184 77.502,101.518 78,104.5C 80.9845,106.891 83.4845,109.724 85.5,113C 87.3502,112.405 89.3502,111.905 91.5,111.5C 90.9232,108.45 92.0899,106.45 95,105.5C 95.1225,101.905 96.9558,100.239 100.5,100.5C 100.13,96.7674 99.4633,93.1007 98.5,89.5 Z"/></g>
<g><path style="opacity:1" fill="#fae0de" d="M 185.5,94.5 C 185.808,96.924 185.474,99.2573 184.5,101.5C 183.575,100.359 182.741,100.359 182,101.5C 181.361,104.112 180.194,106.446 178.5,108.5C 177.914,108.291 177.414,107.957 177,107.5C 176.095,111.827 173.928,112.494 170.5,109.5C 172.933,109.727 174.599,108.727 175.5,106.5C 179.18,102.817 182.514,98.817 185.5,94.5 Z"/></g>
<g><path style="opacity:1" fill="#d02928" d="M 184.5,79.5 C 184.59,81.6963 184.923,83.863 185.5,86C 183.325,89.8545 181.992,94.0211 181.5,98.5C 180.5,98.5 179.5,98.5 178.5,98.5C 177.783,101.323 176.783,103.99 175.5,106.5C 174.599,108.727 172.933,109.727 170.5,109.5C 168.833,109.5 167.167,109.5 165.5,109.5C 165.5,109.167 165.5,108.833 165.5,108.5C 168.313,108.452 170.979,107.785 173.5,106.5C 174.386,105.675 174.719,104.675 174.5,103.5C 172.833,103.5 171.167,103.5 169.5,103.5C 169.808,99.9909 171.808,98.3243 175.5,98.5C 175.5,96.8333 175.5,95.1667 175.5,93.5C 178.902,89.0968 181.902,84.4302 184.5,79.5 Z"/></g>
<g><path style="opacity:1" fill="#fdf5d9" d="M 56.5,91.5 C 60.8179,94.6197 65.4846,95.2864 70.5,93.5C 70.8333,93.5 71.1667,93.5 71.5,93.5C 71.5,94.1667 71.5,94.8333 71.5,95.5C 71.5919,99.6841 73.2586,103.017 76.5,105.5C 79.3122,109.395 82.6456,112.728 86.5,115.5C 87.6005,116.605 88.2671,117.938 88.5,119.5C 86.1985,117.562 83.6985,115.895 81,114.5C 79.4412,112.783 78.6079,110.783 78.5,108.5C 77.448,108.649 76.448,108.483 75.5,108C 75.2072,104.906 73.5406,103.406 70.5,103.5C 70.5,100.833 70.5,98.1667 70.5,95.5C 69.1667,95.5 67.8333,95.5 66.5,95.5C 66.5,97.5 66.5,99.5 66.5,101.5C 65.5,101.5 64.5,101.5 63.5,101.5C 63.5,99.5 63.5,97.5 63.5,95.5C 61.396,95.7989 59.396,95.4656 57.5,94.5C 56.8728,93.5832 56.5394,92.5832 56.5,91.5 Z"/></g>
<g><path style="opacity:1" fill="#f7c869" d="M 100.5,91.5 C 102.833,94.5 105.167,97.5 107.5,100.5C 107.5,100.833 107.5,101.167 107.5,101.5C 102.814,106.858 98.4811,112.525 94.5,118.5C 93.5326,119.806 92.1993,120.473 90.5,120.5C 89.8333,120.167 89.1667,119.833 88.5,119.5C 88.2671,117.938 87.6005,116.605 86.5,115.5C 88.3767,115.9 89.8767,116.9 91,118.5C 93.7276,117.046 94.8942,114.712 94.5,111.5C 95.8333,111.5 97.1667,111.5 98.5,111.5C 98.6741,109.139 99.0074,106.806 99.5,104.5C 102.309,104.412 103.642,102.912 103.5,100C 102.633,97.1042 101.633,94.2709 100.5,91.5 Z"/></g>
<g><path style="opacity:1" fill="#d31510" d="M 175.5,93.5 C 175.5,95.1667 175.5,96.8333 175.5,98.5C 171.808,98.3243 169.808,99.9909 169.5,103.5C 171.167,103.5 172.833,103.5 174.5,103.5C 174.719,104.675 174.386,105.675 173.5,106.5C 170.979,107.785 168.313,108.452 165.5,108.5C 161.865,107.886 158.198,107.552 154.5,107.5C 153.054,106.387 151.387,106.22 149.5,107C 146.259,108.789 142.926,110.289 139.5,111.5C 133.973,113.547 131.807,117.547 133,123.5C 133.708,124.381 134.542,125.047 135.5,125.5C 135.414,126.496 135.748,127.329 136.5,128C 132.587,129.052 128.587,129.552 124.5,129.5C 117.097,128.919 109.764,127.919 102.5,126.5C 102.567,125.041 102.234,123.708 101.5,122.5C 104.064,122.979 106.564,123.645 109,124.5C 109.333,123.833 109.667,123.167 110,122.5C 115.082,123.637 120.249,123.804 125.5,123C 127.002,122.417 128.335,121.584 129.5,120.5C 131.188,117.125 132.854,113.791 134.5,110.5C 135.552,110.649 136.552,110.483 137.5,110C 139.179,107.799 141.179,105.966 143.5,104.5C 151.385,102.514 159.385,101.181 167.5,100.5C 170.883,98.7713 173.55,96.4379 175.5,93.5 Z"/></g>
<g><path style="opacity:1" fill="#fca139" d="M 154.5,107.5 C 158.198,107.552 161.865,107.886 165.5,108.5C 165.5,108.833 165.5,109.167 165.5,109.5C 158.681,109.129 152.014,109.795 145.5,111.5C 147.835,108.835 150.835,107.502 154.5,107.5 Z"/></g>
<g><path style="opacity:1" fill="#fcf9e9" d="M 173.5,119.5 C 176.079,119.083 178.246,119.75 180,121.5C 180.914,120.346 181.747,120.513 182.5,122C 181.766,126.808 180.933,131.641 180,136.5C 178.333,139.167 176.667,139.167 175,136.5C 173.357,140.409 170.524,143.076 166.5,144.5C 167.833,142.833 169.167,141.167 170.5,139.5C 175.864,133.58 176.864,126.914 173.5,119.5 Z"/></g>
<g><path style="opacity:1" fill="#b92a1e" d="M 107.5,101.5 C 107.833,101.5 108.167,101.5 108.5,101.5C 107.91,102.766 107.41,104.099 107,105.5C 103.211,109.051 99.8777,113.051 97,117.5C 96.5172,118.448 96.3505,119.448 96.5,120.5C 98.698,120.12 100.365,120.787 101.5,122.5C 102.234,123.708 102.567,125.041 102.5,126.5C 109.764,127.919 117.097,128.919 124.5,129.5C 128.587,129.552 132.587,129.052 136.5,128C 135.748,127.329 135.414,126.496 135.5,125.5C 136.445,120.402 137.778,115.735 139.5,111.5C 142.926,110.289 146.259,108.789 149.5,107C 151.387,106.22 153.054,106.387 154.5,107.5C 150.835,107.502 147.835,108.835 145.5,111.5C 139.195,115.705 136.528,121.705 137.5,129.5C 126.486,132.223 115.486,132.056 104.5,129C 99.6166,126.951 96.2832,123.451 94.5,118.5C 98.4811,112.525 102.814,106.858 107.5,101.5 Z"/></g>
<g><path style="opacity:1" fill="#df3337" d="M 139.5,111.5 C 137.778,115.735 136.445,120.402 135.5,125.5C 134.542,125.047 133.708,124.381 133,123.5C 131.807,117.547 133.973,113.547 139.5,111.5 Z"/></g>
<g><path style="opacity:1" fill="#fcb219" d="M 165.5,109.5 C 165.833,110.5 166.5,111.167 167.5,111.5C 167.5,112.833 167.5,114.167 167.5,115.5C 169.527,120.209 168.527,124.043 164.5,127C 165.516,127.519 166.182,128.353 166.5,129.5C 164.624,131.048 163.624,133.048 163.5,135.5C 162.178,135.33 161.011,135.663 160,136.5C 159.517,135.552 159.351,134.552 159.5,133.5C 156.306,133.176 155.306,134.342 156.5,137C 155.667,137.167 154.833,137.333 154,137.5C 149.266,136.271 145.433,133.771 142.5,130C 141.207,129.51 139.873,129.343 138.5,129.5C 138.167,129.5 137.833,129.5 137.5,129.5C 136.528,121.705 139.195,115.705 145.5,111.5C 152.014,109.795 158.681,109.129 165.5,109.5 Z"/></g>
<g><path style="opacity:1" fill="#feebe6" d="M 94.5,118.5 C 96.2832,123.451 99.6166,126.951 104.5,129C 115.486,132.056 126.486,132.223 137.5,129.5C 136.656,131.759 134.989,132.759 132.5,132.5C 119.324,133.812 106.324,132.145 93.5,127.5C 93.3122,124.794 92.3122,122.461 90.5,120.5C 92.1993,120.473 93.5326,119.806 94.5,118.5 Z"/></g>
<g><path style="opacity:1" fill="#f5cc61" d="M 167.5,111.5 C 169.997,113.844 171.997,116.511 173.5,119.5C 176.864,126.914 175.864,133.58 170.5,139.5C 170.167,139.5 169.833,139.5 169.5,139.5C 169.357,137.738 169.691,136.071 170.5,134.5C 168.988,133.751 167.988,132.584 167.5,131C 169.663,128.006 170.997,124.672 171.5,121C 171.463,118.167 170.129,116.333 167.5,115.5C 167.5,114.167 167.5,112.833 167.5,111.5 Z"/></g>
<g><path style="opacity:1" fill="#fcfae8" d="M 137.5,129.5 C 137.833,129.5 138.167,129.5 138.5,129.5C 141.204,134.901 144.871,139.568 149.5,143.5C 151.607,145.652 154.274,146.652 157.5,146.5C 160.607,146.24 163.607,145.574 166.5,144.5C 165.942,145.79 164.942,146.623 163.5,147C 157.638,147.952 151.972,147.285 146.5,145C 144.669,140.56 141.335,137.726 136.5,136.5C 134.38,137.403 134.046,138.737 135.5,140.5C 134.372,141.262 133.205,141.929 132,142.5C 130.649,140.981 129.149,139.648 127.5,138.5C 129.396,137.534 131.396,137.201 133.5,137.5C 133.371,135.784 133.038,134.117 132.5,132.5C 134.989,132.759 136.656,131.759 137.5,129.5 Z"/></g>
<g><path style="opacity:1" fill="#f8bb2e" d="M 167.5,115.5 C 170.129,116.333 171.463,118.167 171.5,121C 170.997,124.672 169.663,128.006 167.5,131C 167.988,132.584 168.988,133.751 170.5,134.5C 169.691,136.071 169.357,137.738 169.5,139.5C 163.712,145.207 157.046,146.54 149.5,143.5C 144.871,139.568 141.204,134.901 138.5,129.5C 139.873,129.343 141.207,129.51 142.5,130C 145.433,133.771 149.266,136.271 154,137.5C 154.833,137.333 155.667,137.167 156.5,137C 155.306,134.342 156.306,133.176 159.5,133.5C 159.351,134.552 159.517,135.552 160,136.5C 161.011,135.663 162.178,135.33 163.5,135.5C 163.624,133.048 164.624,131.048 166.5,129.5C 166.182,128.353 165.516,127.519 164.5,127C 168.527,124.043 169.527,120.209 167.5,115.5 Z"/></g>
<g><path style="opacity:1" fill="#fae49d" d="M 169.5,139.5 C 169.833,139.5 170.167,139.5 170.5,139.5C 169.167,141.167 167.833,142.833 166.5,144.5C 163.607,145.574 160.607,146.24 157.5,146.5C 154.274,146.652 151.607,145.652 149.5,143.5C 157.046,146.54 163.712,145.207 169.5,139.5 Z"/></g>
<g><path style="opacity:1" fill="#292828" d="M 77.5,219.5 C 72.1667,219.5 66.8333,219.5 61.5,219.5C 57.5327,216.687 54.3661,213.021 52,208.5C 50.4052,191.211 50.0719,173.878 51,156.5C 54.6612,153.751 57.9946,154.084 61,157.5C 61.4994,163.157 61.6661,168.824 61.5,174.5C 79.7811,169.481 89.4478,176.481 90.5,195.5C 90.7704,206.312 86.4371,214.312 77.5,219.5 Z"/></g>
<g><path style="opacity:1" fill="#f6f6f5" d="M 67.5,181.5 C 76.3426,181.794 80.676,186.46 80.5,195.5C 80.2639,199.779 79.0973,203.779 77,207.5C 72.294,211.486 67.6273,211.486 63,207.5C 60.2127,200.624 59.8794,193.624 62,186.5C 63.1065,183.887 64.9399,182.22 67.5,181.5 Z"/></g>
<g><path style="opacity:1" fill="#7b7b79" d="M 221.5,179.5 C 219.735,180.461 217.735,180.795 215.5,180.5C 215.5,189.5 215.5,198.5 215.5,207.5C 214.506,198.348 214.173,189.015 214.5,179.5C 216.833,179.5 219.167,179.5 221.5,179.5 Z"/></g>
<g><path style="opacity:1" fill="#2a2a28" d="M 27.5,219.5 C 22.1667,219.5 16.8333,219.5 11.5,219.5C 9.57569,217.417 7.40902,215.417 5,213.5C 3.3649,210.517 1.53157,207.851 -0.5,205.5C -0.5,195.167 -0.5,184.833 -0.5,174.5C 1.30692,173.385 3.30692,172.719 5.5,172.5C 7.37395,172.39 8.87395,173.056 10,174.5C 11.2514,183.759 11.918,193.092 12,202.5C 12.3459,204.848 13.5125,206.681 15.5,208C 22.0773,210.13 26.244,207.964 28,201.5C 28.168,192.482 28.668,183.482 29.5,174.5C 32.6296,171.887 35.7963,171.887 39,174.5C 39.8833,185.883 39.5499,197.217 38,208.5C 36.6667,210.5 35.3333,212.5 34,214.5C 31.2428,215.603 29.0762,217.269 27.5,219.5 Z"/></g>
<g><path style="opacity:1" fill="#2b2a28" d="M 188.5,219.5 C 185.833,219.5 183.167,219.5 180.5,219.5C 180.688,217.897 180.188,216.563 179,215.5C 178.667,206.5 178.333,197.5 178,188.5C 176.601,184.762 173.934,183.096 170,183.5C 165.212,183.282 162.546,185.615 162,190.5C 161.667,198.833 161.333,207.167 161,215.5C 160.209,216.745 159.709,218.078 159.5,219.5C 157.167,219.5 154.833,219.5 152.5,219.5C 152.539,218.244 152.039,217.244 151,216.5C 150.833,211.667 150.667,206.833 150.5,202C 150.141,194.975 150.974,188.141 153,181.5C 161.186,171.744 171.02,169.91 182.5,176C 189.576,183.233 192.243,191.9 190.5,202C 190.733,208.003 190.067,213.836 188.5,219.5 Z"/></g>
<g><path style="opacity:1" fill="#faf9f9" d="M 180.5,219.5 C 173.5,219.5 166.5,219.5 159.5,219.5C 159.709,218.078 160.209,216.745 161,215.5C 161.333,207.167 161.667,198.833 162,190.5C 162.546,185.615 165.212,183.282 170,183.5C 173.934,183.096 176.601,184.762 178,188.5C 178.333,197.5 178.667,206.5 179,215.5C 180.188,216.563 180.688,217.897 180.5,219.5 Z"/></g>
<g><path style="opacity:1" fill="#2a2a28" d="M 221.5,179.5 C 219.167,179.5 216.833,179.5 214.5,179.5C 214.173,189.015 214.506,198.348 215.5,207.5C 215.953,208.458 216.619,209.292 217.5,210C 220.732,209.611 223.898,209.778 227,210.5C 227.5,211.5 228,212.5 228.5,213.5C 227.474,215.831 226.14,217.831 224.5,219.5C 219.5,219.5 214.5,219.5 209.5,219.5C 207.165,217.306 205.332,214.639 204,211.5C 203.5,201.172 203.334,190.839 203.5,180.5C 201.738,180.643 200.071,180.309 198.5,179.5C 195.045,173.925 196.711,171.258 203.5,171.5C 203.334,166.821 203.501,162.155 204,157.5C 206.926,153.92 210.26,153.587 214,156.5C 214.499,161.489 214.666,166.489 214.5,171.5C 217.93,171.107 221.096,171.773 224,173.5C 224.972,176.294 224.139,178.294 221.5,179.5 Z"/></g>
<g><path style="opacity:1" fill="#f1f1f1" d="M 275.5,205.5 C 275.5,210.167 275.5,214.833 275.5,219.5C 271.5,219.5 267.5,219.5 263.5,219.5C 266.021,217.299 268.521,214.966 271,212.5C 272.054,209.686 273.554,207.353 275.5,205.5 Z"/></g>
<g><path style="opacity:1" fill="#2c2c2b" d="M 275.5,174.5 C 275.5,184.833 275.5,195.167 275.5,205.5C 273.554,207.353 272.054,209.686 271,212.5C 268.521,214.966 266.021,217.299 263.5,219.5C 258.167,219.5 252.833,219.5 247.5,219.5C 245.572,217.753 243.406,216.087 241,214.5C 239.414,212.33 238.08,209.996 237,207.5C 235.099,196.114 235.099,184.781 237,173.5C 240.039,172.034 242.872,172.367 245.5,174.5C 246.307,183.786 246.807,193.119 247,202.5C 248.331,206.669 251.165,208.669 255.5,208.5C 259.431,208.953 261.931,207.286 263,203.5C 263.051,193.734 263.718,184.067 265,174.5C 268.452,172.061 271.952,172.061 275.5,174.5 Z"/></g>
<g><path style="opacity:1" fill="#2a2a2a" d="M 127.5,219.5 C 122.167,219.5 116.833,219.5 111.5,219.5C 109.053,217.315 106.553,214.982 104,212.5C 102.275,209.326 100.942,205.993 100,202.5C 99.3333,193.5 99.3333,184.5 100,175.5C 103.588,171.607 107.254,171.607 111,175.5C 111.333,184.833 111.667,194.167 112,203.5C 113.323,206.997 115.823,208.664 119.5,208.5C 122.971,208.849 125.471,207.516 127,204.5C 128.255,194.907 128.921,185.24 129,175.5C 131.971,171.908 135.304,171.575 139,174.5C 139.667,184.167 139.667,193.833 139,203.5C 137.312,210.605 133.478,215.938 127.5,219.5 Z"/></g>
<g><path style="opacity:1" fill="#f6f5f3" d="M -0.5,205.5 C 1.53157,207.851 3.3649,210.517 5,213.5C 7.40902,215.417 9.57569,217.417 11.5,219.5C 7.5,219.5 3.5,219.5 -0.5,219.5C -0.5,214.833 -0.5,210.167 -0.5,205.5 Z"/></g>
</svg>
