<svg width="84" height="82" viewBox="0 0 84 82" fill="none" xmlns="http://www.w3.org/2000/svg">
<path d="M76.2923 67.6863C73.0801 67.6863 70.397 69.8415 69.6225 72.7375H64.1906C61.3311 72.7375 59.0041 70.4712 59.0041 67.6863V49.1651C59.0041 48.2356 58.2296 47.4813 57.2753 47.4813C56.321 47.4813 55.5465 48.2356 55.5465 49.1651V67.6863C55.5465 72.33 59.426 76.105 64.1906 76.105H69.6225C70.397 79.001 73.0801 81.1562 76.2923 81.1562C80.1061 81.1562 83.2076 78.1356 83.2076 74.4212C83.2076 70.7069 80.1061 67.6863 76.2923 67.6863ZM76.2923 77.7887C74.3871 77.7887 72.8347 76.2801 72.8347 74.4212C72.8347 72.5624 74.3871 71.0537 76.2923 71.0537C78.1974 71.0537 79.7499 72.5624 79.7499 74.4212C79.7499 76.2801 78.1974 77.7887 76.2923 77.7887ZM43.4448 67.9253V49.1651C43.4448 48.2356 42.6703 47.4813 41.716 47.4813C40.7617 47.4813 39.9871 48.2356 39.9871 49.1651V67.9253C37.0136 68.6797 34.8007 71.2928 34.8007 74.4212C34.8007 78.1356 37.9022 81.1562 41.716 81.1562C45.5297 81.1562 48.6312 78.1356 48.6312 74.4212C48.6312 71.2928 46.4183 68.6797 43.4448 67.9253ZM41.716 77.7887C39.8108 77.7887 38.2583 76.2801 38.2583 74.4212C38.2583 72.5624 39.8108 71.0537 41.716 71.0537C43.6211 71.0537 45.1736 72.5624 45.1736 74.4212C45.1736 76.2801 43.6211 77.7887 41.716 77.7887ZM26.1566 47.4813C25.2023 47.4813 24.4278 48.2356 24.4278 49.1651V67.6863C24.4278 70.4712 22.1008 72.7375 19.2413 72.7375H13.8094C13.0349 69.8415 10.3518 67.6863 7.13963 67.6863C3.32586 67.6863 0.224365 70.7069 0.224365 74.4212C0.224365 78.1356 3.32586 81.1562 7.13963 81.1562C10.3518 81.1562 13.0349 79.001 13.8094 76.105H19.2413C24.006 76.105 27.8854 72.33 27.8854 67.6863V49.1651C27.8854 48.2356 27.1109 47.4813 26.1566 47.4813ZM7.13963 77.7887C5.23448 77.7887 3.682 76.2801 3.682 74.4212C3.682 72.5624 5.23448 71.0537 7.13963 71.0537C9.04479 71.0537 10.5973 72.5624 10.5973 74.4212C10.5973 76.2801 9.04479 77.7887 7.13963 77.7887ZM58.0879 15.9683C53.5964 7.55298 44.3922 2.81492 34.7212 3.84874C27.2389 4.65694 20.3132 9.47918 16.6447 16.4263C14.5666 20.3595 13.7541 24.2827 14.1517 28.4213C14.4249 31.2769 13.4464 33.8969 11.4686 35.6109C8.71631 37.9985 7.13963 41.403 7.13963 44.9523C7.13963 50.5356 10.8186 55.3882 16.292 57.0281C17.2048 57.3009 17.7165 58.2404 17.4365 59.1295C17.2083 59.8568 16.5236 60.3216 15.7837 60.3216C15.6177 60.3216 15.4449 60.298 15.2754 60.2475C8.34289 58.1731 3.682 52.0274 3.682 44.9557C3.682 40.4466 5.68397 36.1228 9.16926 33.0988C10.3172 32.102 10.8773 30.5092 10.7079 28.7345C10.255 24.0065 11.2127 19.3459 13.5674 14.8874C17.7615 6.94683 25.7209 1.43088 34.3408 0.501452C45.5055 -0.673802 56.0029 4.76133 61.1548 14.4126C61.7218 15.4699 62.7072 16.2984 63.8586 16.6755C73.215 19.7433 79.7499 28.2563 79.7499 37.3788C79.7499 45.5181 75.5247 52.9737 68.4504 57.3245C67.6413 57.8161 66.5763 57.5872 66.0646 56.7992C65.5563 56.0145 65.7949 54.974 66.604 54.479C72.6687 50.7511 76.2923 44.3563 76.2923 37.3822C76.2923 29.6841 70.7255 22.4811 62.7557 19.8679C60.7399 19.2112 59.0802 17.8272 58.0844 15.9717L58.0879 15.9683Z" fill="#323F49"/>
</svg>
