<svg width="20" height="15" viewBox="0 0 20 15" fill="none" xmlns="http://www.w3.org/2000/svg">
<path fill-rule="evenodd" clip-rule="evenodd" d="M0.25 7.36035C0.25 3.63243 3.27208 0.610352 7 0.610352H15C17.6234 0.610352 19.75 2.737 19.75 5.36035C19.75 7.9837 17.6234 10.1104 15 10.1104H6.85714C5.33836 10.1104 4.10714 8.87914 4.10714 7.36035C4.10714 5.84157 5.33836 4.61035 6.85714 4.61035H14.7143C15.1285 4.61035 15.4643 4.94614 15.4643 5.36035C15.4643 5.77457 15.1285 6.11035 14.7143 6.11035H6.85714C6.16679 6.11035 5.60714 6.67 5.60714 7.36035C5.60714 8.05071 6.16679 8.61035 6.85714 8.61035H15C16.7949 8.61035 18.25 7.15528 18.25 5.36035C18.25 3.56543 16.7949 2.11035 15 2.11035H7C4.1005 2.11035 1.75 4.46086 1.75 7.36035C1.75 10.2598 4.10051 12.6104 7 12.6104H14.7143C15.1285 12.6104 15.4643 12.9461 15.4643 13.3604C15.4643 13.7746 15.1285 14.1104 14.7143 14.1104H7C3.27208 14.1104 0.25 11.0883 0.25 7.36035Z" fill="#1C7BAE"/>
</svg>
