<svg width="541" height="445" viewBox="0 0 541 445" fill="none" xmlns="http://www.w3.org/2000/svg">
<g clip-path="url(#clip0_618_115)">
<path d="M523.156 206.919C463.603 103.714 302.062 140.469 269.072 90.276C252.174 64.6108 233.272 34.7793 205.854 19.2886C179.718 4.45324 149.417 -0.751516 123 1.20181C28.661 8.18681 -11.3302 93.5892 6.78981 187.374C30.9825 312.473 140.583 440.268 270.783 441.158C338.889 441.677 403.965 416.951 454.916 382.175L456.052 381.396C507.004 346.298 568.634 285.708 523.156 206.919Z" fill="#34A1D3"/>
<path opacity="0.7" d="M523.156 206.919C463.603 103.714 302.062 140.469 269.072 90.276C252.174 64.6108 233.272 34.7793 205.854 19.2886C179.718 4.45324 149.417 -0.751516 123 1.20181C28.661 8.18681 -11.3302 93.5892 6.78981 187.374C30.9825 312.473 140.583 440.268 270.783 441.158C338.889 441.677 403.965 416.951 454.916 382.175L456.052 381.396C507.004 346.298 568.634 285.708 523.156 206.919Z" fill="white"/>
<path d="M60.8571 214.421H54.2347C47.1281 214.421 40.3127 217.277 35.2876 222.362C30.2625 227.446 27.4395 234.342 27.4395 241.533V390.307C27.4395 397.497 30.2625 404.393 35.2876 409.478C40.3127 414.562 47.1281 417.419 54.2347 417.419H145.092C152.198 417.419 159.014 414.562 164.039 409.478C169.064 404.393 171.887 397.497 171.887 390.307" stroke="#263238" stroke-width="1.36376" stroke-linecap="round" stroke-linejoin="round" stroke-dasharray="5.45 5.45"/>
<path d="M164.482 74.042V44.6555C164.482 40.2585 166.206 36.041 169.276 32.9283C172.345 29.8157 176.51 28.0621 180.855 28.0522H299.008C303.36 28.0522 307.534 29.8015 310.612 32.9152C313.689 36.029 315.418 40.2521 315.418 44.6555" stroke="#263238" stroke-width="1.36376" stroke-linecap="round" stroke-linejoin="round" stroke-dasharray="5.45 5.45"/>
<path d="M491.377 113.468V336.073C491.377 343.35 488.52 350.329 483.436 355.476C478.352 360.623 471.456 363.516 464.264 363.519H77.3033C70.1114 363.516 63.2152 360.623 58.1309 355.476C53.0466 350.329 50.1904 343.35 50.1904 336.073V113.468C50.1904 112.813 50.1904 112.232 50.276 111.54C50.7523 104.615 53.8065 98.1308 58.8225 93.3952C63.8385 88.6596 70.4429 86.025 77.3033 86.0229H464.264C471.132 86.0258 477.743 88.6673 482.76 93.4133C487.777 98.1593 490.827 104.656 491.291 111.589C491.352 112.183 491.377 112.826 491.377 113.468Z" fill="white" stroke="#263238" stroke-width="1.36376" stroke-linecap="round" stroke-linejoin="round"/>
<path d="M63.387 121.826H479.562V327.457C479.562 334.277 476.884 340.818 472.118 345.64C467.352 350.463 460.888 353.172 454.147 353.172H88.8137C82.0733 353.172 75.6091 350.463 70.8429 345.64C66.0768 340.818 63.3992 334.277 63.3992 327.457V121.826H63.387Z" fill="#263238"/>
<path opacity="0.2" d="M479.573 121.826V327.457C479.609 334.239 476.982 340.757 472.268 345.58C467.555 350.402 461.142 353.133 454.44 353.172H88.5198C81.8172 353.133 75.4044 350.402 70.6913 345.58C65.9781 340.757 63.3506 334.239 63.3863 327.457V121.826H479.573Z" fill="white"/>
<path d="M491.292 111.59H50.2771C50.7534 104.665 53.8077 98.1811 58.8236 93.4455C63.8396 88.7098 70.444 86.0753 77.3045 86.0732H464.265C471.125 86.0753 477.73 88.7098 482.746 93.4455C487.762 98.1811 490.816 104.665 491.292 111.59Z" fill="#34A1D3" stroke="#263238" stroke-width="1.36376" stroke-miterlimit="10"/>
<path d="M104.465 98.7829C104.465 99.7438 104.183 100.683 103.656 101.482C103.128 102.281 102.378 102.904 101.501 103.272C100.623 103.639 99.6576 103.736 98.7262 103.548C97.7947 103.361 96.9391 102.898 96.2675 102.218C95.596 101.539 95.1386 100.673 94.9534 99.7308C94.7681 98.7883 94.8632 97.8114 95.2266 96.9236C95.5901 96.0358 96.2055 95.277 96.9952 94.7431C97.7848 94.2093 98.7132 93.9243 99.663 93.9243C100.936 93.9243 102.158 94.4362 103.058 95.3474C103.959 96.2585 104.465 97.4943 104.465 98.7829Z" fill="#263238"/>
<path d="M124.772 98.7829C124.772 99.7438 124.49 100.683 123.962 101.482C123.435 102.281 122.685 102.904 121.807 103.272C120.93 103.639 119.965 103.736 119.033 103.548C118.102 103.361 117.246 102.898 116.574 102.218C115.903 101.539 115.446 100.673 115.26 99.7308C115.075 98.7883 115.17 97.8114 115.533 96.9236C115.897 96.0358 116.512 95.277 117.302 94.7431C118.092 94.2093 119.02 93.9243 119.97 93.9243C121.243 93.9243 122.465 94.4362 123.365 95.3474C124.266 96.2585 124.772 97.4943 124.772 98.7829Z" fill="#263238"/>
<path d="M140.278 103.642C142.93 103.642 145.08 101.466 145.08 98.7829C145.08 96.0996 142.93 93.9243 140.278 93.9243C137.626 93.9243 135.476 96.0996 135.476 98.7829C135.476 101.466 137.626 103.642 140.278 103.642Z" fill="#263238"/>
<path d="M479.561 121.826V327.457C479.561 334.277 476.884 340.818 472.118 345.64C467.351 350.463 460.887 353.172 454.147 353.172H88.8132C82.9304 353.171 77.2302 351.105 72.6847 347.326C68.1392 343.548 65.03 338.291 63.8874 332.452V332.377C63.5768 330.748 63.4213 329.092 63.4231 327.432V121.826H479.561Z" stroke="#263238" stroke-width="1.36376" stroke-miterlimit="10"/>
<path d="M479.171 153.622C477.389 152.609 475.494 151.817 473.526 151.26L471.241 140.938H461.539L459.279 151.26C457.3 151.807 455.395 152.6 453.609 153.622L444.849 147.947L437.994 154.858L443.505 163.722C442.496 165.53 441.712 167.456 441.171 169.459L430.969 171.746V181.562L441.171 183.874C441.706 185.886 442.49 187.821 443.505 189.635L437.896 198.561L444.763 205.496L453.573 199.822C455.355 200.845 457.255 201.642 459.23 202.195L461.503 212.506H471.167L473.44 202.195C475.409 201.637 477.305 200.84 479.085 199.822L479.537 200.118V153.375L479.171 153.622ZM466.414 189.474C463.934 189.474 461.51 188.73 459.448 187.335C457.387 185.941 455.78 183.959 454.831 181.641C453.883 179.322 453.635 176.771 454.12 174.311C454.605 171.85 455.8 169.59 457.554 167.816C459.309 166.043 461.544 164.836 463.976 164.348C466.409 163.86 468.93 164.113 471.22 165.075C473.511 166.036 475.468 167.664 476.844 169.752C478.22 171.839 478.953 174.293 478.951 176.802C478.951 178.467 478.626 180.116 477.996 181.654C477.366 183.192 476.442 184.59 475.278 185.767C474.114 186.944 472.732 187.877 471.211 188.513C469.69 189.149 468.06 189.476 466.414 189.474Z" fill="#263238"/>
<path d="M304.324 163.575V142.88L282.819 138.046C281.658 133.842 280.018 129.788 277.932 125.968L280.534 121.826H178.998L181.503 125.856C179.391 129.66 177.749 133.713 176.616 137.923L155.099 142.769V163.514L176.616 168.372C177.749 172.613 179.391 176.699 181.503 180.537L169.688 199.341L184.167 213.979L202.739 202.011C206.507 204.156 210.514 205.837 214.676 207.018L219.466 228.715H239.871L244.685 206.969C248.834 205.782 252.828 204.101 256.586 201.962L275.17 213.929L289.637 199.292L277.895 180.488C279.976 176.673 281.616 172.629 282.782 168.434L304.324 163.575ZM229.791 179.969C224.564 179.969 219.454 178.4 215.108 175.462C210.762 172.524 207.374 168.347 205.374 163.461C203.373 158.575 202.85 153.198 203.87 148.011C204.89 142.824 207.407 138.059 211.103 134.319C214.799 130.579 219.508 128.033 224.635 127.001C229.761 125.969 235.075 126.499 239.904 128.522C244.734 130.546 248.861 133.974 251.765 138.371C254.669 142.769 256.219 147.939 256.219 153.228C256.221 156.74 255.538 160.218 254.211 163.463C252.883 166.708 250.937 169.657 248.482 172.14C246.028 174.623 243.114 176.593 239.906 177.936C236.699 179.28 233.262 179.97 229.791 179.969Z" fill="#263238"/>
<path d="M168.613 305.684L169.48 289.254L152.655 284.457C151.874 281.08 150.718 277.804 149.21 274.69L159.376 260.251L148.477 248.024L133.252 256.678C130.342 254.825 127.23 253.319 123.979 252.19L121.071 234.734L104.844 233.979L100.152 251.053C96.8095 251.811 93.5687 252.973 90.4998 254.514L76.2408 244.241L64.1323 255.256L72.7586 270.672C70.9092 273.604 69.416 276.75 68.311 280.043L63.4236 280.859V303.112L66.9914 304.126C67.7316 307.514 68.8763 310.797 70.4004 313.905L63.387 323.857L63.8513 332.375V332.449L71.0968 340.572L86.3456 331.856C89.2505 333.746 92.3731 335.27 95.6438 336.393L98.503 353.157L98.6374 353.862L114.864 354.727L115.291 353.157L119.555 337.667C122.913 336.906 126.17 335.744 129.257 334.205L143.492 344.466L155.588 333.463L147.035 318.034C148.867 315.106 150.34 311.964 151.421 308.676L168.613 305.684ZM125.518 280.031C122.739 276.903 119.105 274.679 115.076 273.641C111.047 272.603 106.805 272.797 102.885 274.199C98.9654 275.601 95.5448 278.148 93.056 281.518C90.5671 284.887 89.1219 288.928 88.903 293.128C88.6842 297.329 89.7015 301.501 91.8264 305.116C93.9513 308.732 97.0883 311.628 100.84 313.439C104.593 315.251 108.791 315.895 112.906 315.292C117.02 314.688 120.865 312.863 123.954 310.048C128.079 306.278 130.559 301.007 130.852 295.391C131.145 289.775 129.227 284.269 125.518 280.08V280.031Z" fill="#263238"/>
<path d="M298.397 281.196C299.025 278.652 299.357 276.042 299.387 273.42L311.055 267.238L307.83 255.259L294.658 255.877C293.324 253.638 291.737 251.563 289.93 249.696L293.827 236.949L283.197 230.768L274.302 240.584C271.792 239.971 269.223 239.639 266.641 239.595L260.532 227.789L248.704 231.04L249.328 244.379C247.115 245.729 245.064 247.335 243.218 249.164L230.609 245.22L224.5 255.963L234.274 264.951C233.642 267.486 233.318 270.089 233.309 272.703L221.616 278.884L224.842 290.851L238.038 290.221C239.346 292.471 240.926 294.548 242.742 296.402L238.82 309.087L249.462 315.268L258.308 305.526C260.821 306.166 263.402 306.494 265.994 306.503L272.103 318.322L283.93 315.07L283.405 303.672L283.319 301.718C285.564 300.382 287.64 298.775 289.502 296.934L302.099 300.89L307.304 291.692L308.184 290.134L298.397 281.196ZM270.453 288.465C267.42 289.312 264.207 289.228 261.221 288.224C258.235 287.22 255.612 285.341 253.682 282.826C251.753 280.311 250.606 277.274 250.385 274.098C250.165 270.922 250.882 267.752 252.445 264.989C254.007 262.226 256.346 259.995 259.164 258.578C261.982 257.162 265.152 256.625 268.272 257.034C271.392 257.443 274.322 258.78 276.69 260.877C279.058 262.973 280.757 265.734 281.572 268.808C282.659 272.906 282.099 277.273 280.016 280.955C277.933 284.638 274.496 287.337 270.453 288.465Z" fill="#263238"/>
<path d="M433.681 302.26L436.369 285.817L419.923 279.129C419.55 275.624 418.758 272.179 417.565 268.868L429.405 255.528L419.825 241.929L403.501 248.939C400.791 246.741 397.83 244.881 394.68 243.4L393.727 225.486L377.476 222.767L370.817 239.333C367.369 239.743 363.978 240.552 360.712 241.744L347.492 229.764L334.113 239.456L341.053 255.961C339.142 258.373 337.484 260.979 336.104 263.737C335.921 264.12 335.725 264.504 335.554 264.887L317.862 265.876L315.162 282.294L317.825 283.382L331.608 289.007C331.984 292.494 332.776 295.923 333.966 299.218L322.102 312.644L331.693 326.243L348.005 319.197C350.706 321.414 353.665 323.291 356.815 324.785L357.731 342.612L373.969 345.332L380.616 328.889C384.072 328.507 387.469 327.702 390.733 326.491L403.929 338.47L417.369 328.766L410.429 312.249C412.64 309.504 414.507 306.494 415.989 303.286L433.681 302.26ZM388.106 301.518C384.687 304 380.618 305.4 376.413 305.542C372.208 305.683 368.055 304.56 364.481 302.313C360.907 300.067 358.071 296.799 356.333 292.922C354.595 289.045 354.032 284.733 354.716 280.532C355.399 276.332 357.299 272.43 360.174 269.322C363.049 266.214 366.771 264.038 370.868 263.07C374.965 262.102 379.255 262.385 383.193 263.883C387.131 265.382 390.542 268.029 392.994 271.489C396.278 276.13 397.605 281.901 396.684 287.532C395.763 293.164 392.669 298.195 388.082 301.518H388.106Z" fill="#263238"/>
<path d="M213.454 180.535H85.673C76.8263 180.535 69.6545 187.791 69.6545 196.742V375.744C69.6545 384.695 76.8263 391.951 85.673 391.951H213.454C222.301 391.951 229.473 384.695 229.473 375.744V196.742C229.473 187.791 222.301 180.535 213.454 180.535Z" fill="#34A1D3" stroke="#263238" stroke-width="1.36376" stroke-miterlimit="10"/>
<path opacity="0.2" d="M213.454 180.535H85.673C76.8263 180.535 69.6545 187.791 69.6545 196.742V375.744C69.6545 384.695 76.8263 391.951 85.673 391.951H213.454C222.301 391.951 229.473 384.695 229.473 375.744V196.742C229.473 187.791 222.301 180.535 213.454 180.535Z" fill="black"/>
<path d="M244.343 212.717V391.719C244.344 393.848 243.931 395.957 243.127 397.925C242.323 399.893 241.143 401.681 239.655 403.187C238.168 404.694 236.401 405.889 234.457 406.704C232.513 407.519 230.429 407.939 228.324 407.939H100.543C98.4395 407.937 96.3569 407.516 94.414 406.7C92.4712 405.884 90.7062 404.689 89.2199 403.183C87.7336 401.677 86.555 399.889 85.7515 397.922C84.948 395.955 84.5353 393.847 84.5369 391.719V212.717C84.5369 208.421 86.2228 204.3 89.2243 201.261C92.2257 198.222 96.2969 196.513 100.543 196.51H228.324C232.573 196.51 236.647 198.217 239.651 201.257C242.655 204.296 244.343 208.419 244.343 212.717Z" fill="white" stroke="#263238" stroke-width="1.36376" stroke-linecap="round" stroke-linejoin="round"/>
<path d="M244.343 212.717V222.299H84.5369V212.717C84.5369 208.421 86.2228 204.3 89.2242 201.261C92.2257 198.222 96.2969 196.513 100.543 196.51H228.324C232.573 196.51 236.647 198.217 239.651 201.257C242.655 204.296 244.343 208.419 244.343 212.717Z" fill="#34A1D3" stroke="#263238" stroke-width="1.36376" stroke-miterlimit="10"/>
<path d="M138.884 233.4H99.5652V240.076H138.884V233.4Z" fill="#34A1D3"/>
<path d="M138.884 293.223H99.5652V299.899H138.884V293.223Z" fill="#34A1D3"/>
<path d="M138.884 347.47H99.5652V354.146H138.884V347.47Z" fill="#34A1D3"/>
<path d="M211.23 249.927H99.5652V254.823H211.23V249.927Z" fill="#263238"/>
<path d="M191.094 259.288H99.5652V264.06H191.094V259.288Z" fill="#263238"/>
<path d="M203.08 268.497H99.5652V273.269H203.08V268.497Z" fill="#263238"/>
<path d="M203.08 277.695H99.5652V282.467H203.08V277.695Z" fill="#263238"/>
<path d="M211.23 304.175H99.5652V309.07H211.23V304.175Z" fill="#263238"/>
<path d="M191.094 313.536H99.5652V318.308H191.094V313.536Z" fill="#263238"/>
<path d="M203.08 322.744H99.5652V327.516H203.08V322.744Z" fill="#263238"/>
<path d="M211.23 363.739H99.5652V368.635H211.23V363.739Z" fill="#263238"/>
<path d="M191.094 373.11H99.5652V377.882H191.094V373.11Z" fill="#263238"/>
<path d="M203.08 382.322H99.5652V387.094H203.08V382.322Z" fill="#263238"/>
<path d="M424.456 72.3853V144.733C424.456 147.271 423.962 149.785 423.001 152.13C422.041 154.475 420.633 156.606 418.858 158.4C417.084 160.195 414.977 161.618 412.658 162.588C410.34 163.559 407.855 164.057 405.346 164.056H240.665C238.156 164.057 235.672 163.559 233.353 162.588C231.035 161.618 228.928 160.195 227.153 158.4C225.379 156.606 223.971 154.475 223.01 152.13C222.05 149.785 221.555 147.271 221.555 144.733V72.3853C221.559 67.2582 223.573 62.342 227.156 58.7166C230.739 55.0912 235.598 53.0531 240.665 53.0498H405.346C410.415 53.0498 415.275 55.0869 418.859 58.713C422.443 62.3391 424.456 67.2572 424.456 72.3853Z" fill="white" stroke="#222221" stroke-width="1.36376" stroke-miterlimit="10"/>
<path d="M424.456 72.3853V74.0419H221.555V72.3853C221.559 67.2582 223.573 62.342 227.156 58.7166C230.739 55.0912 235.598 53.0531 240.665 53.0498H405.346C410.415 53.0498 415.275 55.0869 418.859 58.713C422.443 62.3391 424.456 67.2572 424.456 72.3853Z" fill="#34A1D3" stroke="#263238" stroke-width="1.36376" stroke-miterlimit="10"/>
<path d="M251.369 67.0055C250.959 67.4211 250.436 67.7044 249.867 67.8195C249.298 67.9346 248.708 67.8762 248.172 67.6519C247.636 67.4275 247.177 67.0472 246.855 66.5591C246.532 66.071 246.36 65.4971 246.36 64.91C246.36 64.3228 246.532 63.7489 246.855 63.2608C247.177 62.7727 247.636 62.3924 248.172 62.168C248.708 61.9437 249.298 61.8853 249.867 62.0004C250.436 62.1155 250.959 62.3988 251.369 62.8145C251.914 63.3723 252.22 64.1253 252.22 64.91C252.22 65.6946 251.914 66.4476 251.369 67.0055Z" fill="#263238"/>
<path d="M264.956 67.0055C264.546 67.4211 264.023 67.7044 263.454 67.8195C262.885 67.9346 262.295 67.8762 261.759 67.6519C261.223 67.4275 260.764 67.0472 260.442 66.5591C260.119 66.071 259.947 65.4971 259.947 64.91C259.947 64.3228 260.119 63.7489 260.442 63.2608C260.764 62.7727 261.223 62.3924 261.759 62.168C262.295 61.9437 262.885 61.8853 263.454 62.0004C264.023 62.1155 264.546 62.3988 264.956 62.8145C265.501 63.3723 265.807 64.1253 265.807 64.91C265.807 65.6946 265.501 66.4476 264.956 67.0055Z" fill="#263238"/>
<path d="M278.542 67.0055C278.133 67.4211 277.61 67.7044 277.041 67.8195C276.472 67.9346 275.882 67.8762 275.346 67.6519C274.81 67.4275 274.351 67.0472 274.029 66.5591C273.706 66.071 273.534 65.4971 273.534 64.91C273.534 64.3228 273.706 63.7489 274.029 63.2608C274.351 62.7727 274.81 62.3924 275.346 62.168C275.882 61.9437 276.472 61.8853 277.041 62.0004C277.61 62.1155 278.133 62.3988 278.542 62.8145C279.088 63.3723 279.394 64.1253 279.394 64.91C279.394 65.6946 279.088 66.4476 278.542 67.0055Z" fill="#263238"/>
<path d="M300.816 87.3438H234.494V145.35H300.816V87.3438Z" stroke="#263238" stroke-width="1.36376" stroke-linecap="round" stroke-linejoin="round" stroke-dasharray="5.45 5.45"/>
<path d="M387.385 87.3438H311.056V91.4235H387.385V87.3438Z" fill="#263238"/>
<path d="M369.607 95.7896H311.056V99.8569H369.607V95.7896Z" fill="#263238"/>
<path d="M398.235 104.195H311.056V108.312H398.235V104.195Z" fill="#263238"/>
<path d="M385.295 112.392H311.056V116.508H385.295V112.392Z" fill="#263238"/>
<path d="M430.003 251.942H392.675C388.269 251.942 384.697 255.557 384.697 260.015V282.182C384.697 286.64 388.269 290.255 392.675 290.255H430.003C434.41 290.255 437.982 286.64 437.982 282.182V260.015C437.982 255.557 434.41 251.942 430.003 251.942Z" fill="white" stroke="#263238" stroke-width="1.36376" stroke-linecap="round" stroke-linejoin="round"/>
<path d="M401.889 263.468L391.637 269.97L401.156 278.501" stroke="#263238" stroke-width="1.36376" stroke-linecap="round" stroke-linejoin="round"/>
<path d="M420.558 279.118L429.771 271.181L419.141 264.135" stroke="#263238" stroke-width="1.36376" stroke-linecap="round" stroke-linejoin="round"/>
<path d="M406.874 284.011L414.437 260.002" stroke="#263238" stroke-width="1.36376" stroke-linecap="round" stroke-linejoin="round"/>
</g>
<defs>
<clipPath id="clip0_618_115">
<rect width="541" height="443.897" fill="white" transform="translate(0 0.417969)"/>
</clipPath>
</defs>
</svg>
