<svg width="205" height="130" viewBox="0 0 205 130" fill="none" xmlns="http://www.w3.org/2000/svg">
<g clip-path="url(#clip0_618_3114)">
<path d="M0.607422 128.977L26.0382 128.901L51.4721 128.873L102.334 128.819L153.198 128.873L178.629 128.898L204.06 128.977L178.629 129.052L153.198 129.081L102.334 129.134L51.4721 129.081L26.0382 129.052L0.607422 128.977Z" fill="#263238"/>
<path d="M173.39 13.8552H31.2764V103.839H173.39V13.8552Z" fill="#263238"/>
<path d="M173.39 13.8552H31.2764V17.3182H173.39V13.8552Z" fill="#34A1D3"/>
<path d="M34.5347 15.5742C34.5398 15.7047 34.5057 15.8337 34.4368 15.9446C34.368 16.0556 34.2676 16.1434 34.1484 16.1968C34.0293 16.2503 33.8969 16.2669 33.7683 16.2445C33.6397 16.2222 33.5207 16.1619 33.4265 16.0714C33.3324 15.9809 33.2675 15.8644 33.2401 15.7367C33.2128 15.609 33.2242 15.4761 33.2729 15.355C33.3216 15.2338 33.4055 15.1301 33.5136 15.0569C33.6218 14.9838 33.7494 14.9447 33.8799 14.9446C34.0493 14.9445 34.2122 15.01 34.3343 15.1274C34.4564 15.2448 34.5282 15.4049 34.5347 15.5742Z" fill="#C7C7C7"/>
<path d="M37.2105 15.5742C37.2155 15.7047 37.1814 15.8337 37.1126 15.9446C37.0438 16.0556 36.9434 16.1434 36.8242 16.1968C36.7051 16.2503 36.5727 16.2669 36.4441 16.2445C36.3155 16.2222 36.1964 16.1619 36.1023 16.0714C36.0082 15.9809 35.9433 15.8644 35.9159 15.7367C35.8885 15.609 35.9 15.4761 35.9487 15.355C35.9974 15.2338 36.0813 15.1301 36.1894 15.0569C36.2976 14.9838 36.4251 14.9447 36.5557 14.9446C36.7251 14.9445 36.8879 15.01 37.01 15.1274C37.1321 15.2448 37.204 15.4049 37.2105 15.5742Z" fill="white"/>
<path d="M39.8863 15.5742C39.8913 15.7047 39.8572 15.8337 39.7884 15.9446C39.7196 16.0556 39.6191 16.1434 39.5 16.1968C39.3809 16.2503 39.2485 16.2669 39.1199 16.2445C38.9912 16.2222 38.8722 16.1619 38.7781 16.0714C38.684 15.9809 38.6191 15.8644 38.5917 15.7367C38.5643 15.609 38.5757 15.4761 38.6245 15.355C38.6732 15.2338 38.757 15.1301 38.8652 15.0569C38.9734 14.9838 39.1009 14.9447 39.2315 14.9446C39.4009 14.9445 39.5637 15.01 39.6858 15.1274C39.8079 15.2448 39.8798 15.4049 39.8863 15.5742Z" fill="#455A64"/>
<path d="M164.251 41.8988H163.7V41.7414H164.094V41.3479H164.251V41.8988Z" fill="#34A1D3"/>
<path d="M162.749 41.8989H161.805V41.7415H162.749V41.8989ZM160.86 41.8989H159.916V41.7415H160.86V41.8989ZM158.972 41.8989H158.027V41.7415H158.972V41.8989ZM157.083 41.8989H156.138V41.7415H157.083V41.8989ZM155.194 41.8989H154.249V41.7415H155.194V41.8989ZM153.305 41.8989H152.36V41.7415H153.305V41.8989ZM151.4 41.8989H150.456V41.7415H151.4V41.8989ZM149.511 41.8989H148.567V41.7415H149.511V41.8989ZM147.607 41.8989H146.662V41.7415H147.607V41.8989ZM145.718 41.8989H144.773V41.7415H145.718V41.8989ZM143.813 41.8989H142.869V41.7415H143.813V41.8989ZM141.924 41.8989H140.98V41.7415H141.924V41.8989ZM140.035 41.8989H139.091V41.7415H140.035V41.8989ZM138.131 41.8989H137.186V41.7415H138.131V41.8989ZM136.242 41.8989H135.298V41.7415H136.242V41.8989ZM134.337 41.8989H133.393V41.7415H134.337V41.8989ZM132.448 41.8989H131.504V41.7415H132.448V41.8989ZM130.544 41.8989H129.599V41.7415H130.544V41.8989ZM128.655 41.8989H127.71V41.7415H128.655V41.8989ZM126.766 41.8989H125.822V41.7415H126.766V41.8989ZM124.861 41.8989H123.917V41.7415H124.861V41.8989ZM122.973 41.8989H122.028V41.7415H122.973V41.8989ZM121.068 41.8989H120.123V41.7415H121.068V41.8989ZM119.179 41.8989H118.235V41.7415H119.179V41.8989ZM117.274 41.8989H116.33V41.7415H117.274V41.8989ZM115.385 41.8989H114.441V41.7415H115.385V41.8989ZM113.481 41.8989H112.536V41.7415H113.481V41.8989ZM111.592 41.8989H110.648V41.7415H111.592V41.8989ZM109.703 41.8989H108.759V41.7415H109.703V41.8989ZM107.798 41.8989H106.854V41.7415H107.798V41.8989ZM105.91 41.8989H104.965V41.7415H105.91V41.8989ZM104.005 41.8989H103.06V41.7415H104.005V41.8989ZM102.116 41.8989H101.172V41.7415H102.116V41.8989ZM100.211 41.8989H99.267V41.7415H100.211V41.8989ZM98.3225 41.8989H97.3781V41.7415H98.3225V41.8989ZM96.4336 41.8989H95.4892V41.7415H96.4336V41.8989ZM94.529 41.8989H93.5846V41.7415H94.529V41.8989ZM92.6401 41.8989H91.6957V41.7415H92.6401V41.8989ZM90.7512 41.8989H89.8068V41.7415H90.7512V41.8989ZM88.8623 41.8989H87.9179V41.7415H88.8623V41.8989ZM86.9577 41.8989H86.0133V41.7415H86.9577V41.8989ZM85.0688 41.8989H84.1244V41.7415H85.0688V41.8989ZM83.1799 41.8989H82.2355V41.7415H83.1799V41.8989ZM81.291 41.8989H80.3466V41.7415H81.291V41.8989ZM79.4022 41.8989H78.4577V41.7415H79.4022V41.8989ZM77.5133 41.8989H76.5688V41.7415H77.5133V41.8989ZM75.6244 41.8989H74.6799V41.7415H75.6244V41.8989ZM73.7197 41.8989H72.7753V41.7415H73.7197V41.8989ZM71.8309 41.8989H70.8864V41.7415H71.8309V41.8989ZM69.942 41.8989H68.9975V41.7415H69.942V41.8989ZM68.0531 41.8989H67.1086V41.7415H68.0531V41.8989ZM66.1642 41.8989H65.2197V41.7415H66.1642V41.8989ZM64.2753 41.8989H63.3309V41.7415H64.2753V41.8989ZM62.3864 41.8989H61.442V41.7415H62.3864V41.8989ZM60.4818 41.8989H59.5373V41.7415H60.4818V41.8989ZM58.5929 41.8989H57.6484V41.7415H58.5929V41.8989ZM56.6883 41.8989H55.7438V41.7415H56.6883V41.8989ZM54.7994 41.8989H53.8549V41.7415H54.7994V41.8989ZM52.9105 41.8989H51.966V41.7415H52.9105V41.8989ZM51.0216 41.8989H50.0772V41.7415H51.0216V41.8989ZM49.1327 41.8989H48.1883V41.7415H49.1327V41.8989ZM47.2281 41.8989H46.2836V41.7415H47.2281V41.8989ZM45.3392 41.8989H44.3947V41.7415H45.3392V41.8989ZM43.4503 41.8989H42.5059V41.7415H43.4503V41.8989Z" fill="#34A1D3"/>
<path d="M40.966 41.8988H40.415V41.3479H40.5724V41.7414H40.966V41.8988Z" fill="#34A1D3"/>
<path d="M40.5724 40.3437H40.415V39.3426H40.5724V40.3437ZM40.5724 38.3415H40.415V37.3404H40.5724V38.3415ZM40.5724 36.3361H40.415V35.335H40.5724V36.3361ZM40.5724 34.3339H40.415V33.3328H40.5724V34.3339Z" fill="#34A1D3"/>
<path d="M40.5724 32.3285H40.415V31.7776H40.966V31.935H40.5724V32.3285Z" fill="#34A1D3"/>
<path d="M162.749 31.9445H161.805V31.7871H162.749V31.9445ZM160.861 31.9445H159.916V31.7871H160.861V31.9445ZM158.972 31.9445H158.027V31.7871H158.972V31.9445ZM157.083 31.9445H156.138V31.7871H157.083V31.9445ZM155.194 31.9445H154.249V31.7871H155.194V31.9445ZM153.305 31.9445H152.361V31.7871H153.305V31.9445ZM151.4 31.9445H150.456V31.7871H151.4V31.9445ZM149.511 31.9445H148.567V31.7871H149.511V31.9445ZM147.607 31.9445H146.662V31.7871H147.607V31.9445ZM145.718 31.9445H144.774V31.7871H145.718V31.9445ZM143.813 31.9445H142.869V31.7871H143.813V31.9445ZM141.924 31.9445H140.98V31.7871H141.924V31.9445ZM140.036 31.9445H139.091V31.7871H140.036V31.9445ZM138.131 31.9445H137.186V31.7871H138.131V31.9445ZM136.242 31.9445H135.298V31.7871H136.242V31.9445ZM134.337 31.9445H133.393V31.7871H134.337V31.9445ZM132.449 31.9445H131.504V31.7871H132.449V31.9445ZM130.544 31.9445H129.599V31.7871H130.544V31.9445ZM128.655 31.9445H127.711V31.7871H128.655V31.9445ZM126.766 31.9445H125.822V31.7871H126.766V31.9445ZM124.685 31.9445H123.741V31.7871H124.685V31.9445ZM122.796 31.9445H121.852V31.7871H122.796V31.9445ZM120.892 31.9445H119.947V31.7871H120.892V31.9445ZM119.003 31.9445H118.058V31.7871H119.003V31.9445ZM117.098 31.9445H116.154V31.7871H117.098V31.9445ZM115.209 31.9445H114.265V31.7871H115.209V31.9445ZM113.305 31.9445H112.36V31.7871H113.305V31.9445ZM111.416 31.9445H110.471V31.7871H111.416V31.9445ZM109.527 31.9445H108.582V31.7871H109.527V31.9445ZM107.622 31.9445H106.678V31.7871H107.622V31.9445ZM105.733 31.9445H104.789V31.7871H105.733V31.9445ZM103.829 31.9445H102.884V31.7871H103.829V31.9445ZM101.94 31.9445H100.995V31.7871H101.94V31.9445ZM100.035 31.9445H99.0907V31.7871H100.035V31.9445ZM98.1463 31.9445H97.2019V31.7871H98.1463V31.9445ZM96.2574 31.9445H95.313V31.7871H96.2574V31.9445ZM94.3528 31.9445H93.4083V31.7871H94.3528V31.9445ZM92.4639 31.9445H91.5194V31.7871H92.4639V31.9445ZM90.575 31.9445H89.6306V31.7871H90.575V31.9445ZM88.6861 31.9445H87.7417V31.7871H88.6861V31.9445ZM86.7815 31.9445H85.837V31.7871H86.7815V31.9445ZM84.8926 31.9445H83.9482V31.7871H84.8926V31.9445ZM83.0037 31.9445H82.0593V31.7871H83.0037V31.9445ZM80.9259 31.9445H79.9815V31.7871H80.9259V31.9445ZM79.037 31.9445H78.0926V31.7871H79.037V31.9445ZM77.1482 31.9445H76.2037V31.7871H77.1482V31.9445ZM75.2593 31.9445H74.3148V31.7871H75.2593V31.9445ZM73.3546 31.9445H72.4102V31.7871H73.3546V31.9445ZM71.4657 31.9445H70.5213V31.7871H71.4657V31.9445ZM69.5769 31.9445H68.6324V31.7871H69.5769V31.9445ZM67.688 31.9445H66.7435V31.7871H67.688V31.9445ZM65.7991 31.9445H64.8546V31.7871H65.7991V31.9445ZM63.9102 31.9445H62.9657V31.7871H63.9102V31.9445ZM62.0213 31.9445H61.0769V31.7871H62.0213V31.9445ZM60.1167 31.9445H59.1722V31.7871H60.1167V31.9445ZM58.2278 31.9445H57.2833V31.7871H58.2278V31.9445ZM56.3232 31.9445H55.3787V31.7871H56.3232V31.9445ZM54.4343 31.9445H53.4898V31.7871H54.4343V31.9445ZM52.5454 31.9445H51.6009V31.7871H52.5454V31.9445ZM50.6407 31.9445H49.6963V31.7871H50.6407V31.9445ZM48.7519 31.9445H47.8074V31.7871H48.7519V31.9445ZM46.8472 31.9445H45.9028V31.7871H46.8472V31.9445ZM44.9583 31.9445H44.0139V31.7871H44.9583V31.9445ZM43.0694 31.9445H42.125V31.7871H43.0694V31.9445Z" fill="#34A1D3"/>
<path d="M164.251 32.3285H164.094V31.935H163.7V31.7776H164.251V32.3285Z" fill="#34A1D3"/>
<path d="M164.251 40.3437H164.094V39.3426H164.251V40.3437ZM164.251 38.3415H164.094V37.3404H164.251V38.3415ZM164.251 36.3361H164.094V35.335H164.251V36.3361ZM164.251 34.3339H164.094V33.3328H164.251V34.3339Z" fill="#34A1D3"/>
<path d="M164.251 76.7362H163.7V76.5788H164.094V76.1853H164.251V76.7362Z" fill="#34A1D3"/>
<path d="M162.749 76.7363H161.805V76.5789H162.749V76.7363ZM160.86 76.7363H159.916V76.5789H160.86V76.7363ZM158.972 76.7363H158.027V76.5789H158.972V76.7363ZM157.083 76.7363H156.138V76.5789H157.083V76.7363ZM155.194 76.7363H154.249V76.5789H155.194V76.7363ZM153.305 76.7363H152.36V76.5789H153.305V76.7363ZM151.4 76.7363H150.456V76.5789H151.4V76.7363ZM149.511 76.7363H148.567V76.5789H149.511V76.7363ZM147.607 76.7363H146.662V76.5789H147.607V76.7363ZM145.718 76.7363H144.773V76.5789H145.718V76.7363ZM143.813 76.7363H142.869V76.5789H143.813V76.7363ZM141.924 76.7363H140.98V76.5789H141.924V76.7363ZM140.035 76.7363H139.091V76.5789H140.035V76.7363ZM138.131 76.7363H137.186V76.5789H138.131V76.7363ZM136.242 76.7363H135.298V76.5789H136.242V76.7363ZM134.337 76.7363H133.393V76.5789H134.337V76.7363ZM132.448 76.7363H131.504V76.5789H132.448V76.7363ZM130.544 76.7363H129.599V76.5789H130.544V76.7363ZM128.655 76.7363H127.71V76.5789H128.655V76.7363ZM126.766 76.7363H125.822V76.5789H126.766V76.7363ZM124.861 76.7363H123.917V76.5789H124.861V76.7363ZM122.973 76.7363H122.028V76.5789H122.973V76.7363ZM121.068 76.7363H120.123V76.5789H121.068V76.7363ZM119.179 76.7363H118.235V76.5789H119.179V76.7363ZM117.274 76.7363H116.33V76.5789H117.274V76.7363ZM115.385 76.7363H114.441V76.5789H115.385V76.7363ZM113.481 76.7363H112.536V76.5789H113.481V76.7363ZM111.592 76.7363H110.648V76.5789H111.592V76.7363ZM109.703 76.7363H108.759V76.5789H109.703V76.7363ZM107.798 76.7363H106.854V76.5789H107.798V76.7363ZM105.91 76.7363H104.965V76.5789H105.91V76.7363ZM104.005 76.7363H103.06V76.5789H104.005V76.7363ZM102.116 76.7363H101.172V76.5789H102.116V76.7363ZM100.211 76.7363H99.267V76.5789H100.211V76.7363ZM98.3225 76.7363H97.3781V76.5789H98.3225V76.7363ZM96.4336 76.7363H95.4892V76.5789H96.4336V76.7363ZM94.529 76.7363H93.5846V76.5789H94.529V76.7363ZM92.6401 76.7363H91.6957V76.5789H92.6401V76.7363ZM90.7512 76.7363H89.8068V76.5789H90.7512V76.7363ZM88.8623 76.7363H87.9179V76.5789H88.8623V76.7363ZM86.9577 76.7363H86.0133V76.5789H86.9577V76.7363ZM85.0688 76.7363H84.1244V76.5789H85.0688V76.7363ZM83.1799 76.7363H82.2355V76.5789H83.1799V76.7363ZM81.291 76.7363H80.3466V76.5789H81.291V76.7363ZM79.4022 76.7363H78.4577V76.5789H79.4022V76.7363ZM77.5133 76.7363H76.5688V76.5789H77.5133V76.7363ZM75.6244 76.7363H74.6799V76.5789H75.6244V76.7363ZM73.7197 76.7363H72.7753V76.5789H73.7197V76.7363ZM71.8309 76.7363H70.8864V76.5789H71.8309V76.7363ZM69.942 76.7363H68.9975V76.5789H69.942V76.7363ZM68.0531 76.7363H67.1086V76.5789H68.0531V76.7363ZM66.1642 76.7363H65.2197V76.5789H66.1642V76.7363ZM64.2753 76.7363H63.3309V76.5789H64.2753V76.7363ZM62.3864 76.7363H61.442V76.5789H62.3864V76.7363ZM60.4818 76.7363H59.5373V76.5789H60.4818V76.7363ZM58.5929 76.7363H57.6484V76.5789H58.5929V76.7363ZM56.6883 76.7363H55.7438V76.5789H56.6883V76.7363ZM54.7994 76.7363H53.8549V76.5789H54.7994V76.7363ZM52.9105 76.7363H51.966V76.5789H52.9105V76.7363ZM51.0216 76.7363H50.0772V76.5789H51.0216V76.7363ZM49.1327 76.7363H48.1883V76.5789H49.1327V76.7363ZM47.2281 76.7363H46.2836V76.5789H47.2281V76.7363ZM45.3392 76.7363H44.3947V76.5789H45.3392V76.7363ZM43.4503 76.7363H42.5059V76.5789H43.4503V76.7363Z" fill="#34A1D3"/>
<path d="M40.966 76.7362H40.415V76.1853H40.5724V76.5788H40.966V76.7362Z" fill="#34A1D3"/>
<path d="M40.5724 75.1842H40.415V74.18H40.5724V75.1842ZM40.5724 73.1789H40.415V72.1778H40.5724V73.1789ZM40.5724 71.1766H40.415V70.1724H40.5724V71.1766ZM40.5724 69.1713H40.415V68.1702H40.5724V69.1713Z" fill="#34A1D3"/>
<path d="M40.5724 67.1691H40.415V66.6182H40.966V66.7756H40.5724V67.1691Z" fill="#34A1D3"/>
<path d="M162.75 66.7756H161.805V66.6182H162.75V66.7756ZM160.861 66.7756H159.916V66.6182H160.861V66.7756ZM158.972 66.7756H158.027V66.6182H158.972V66.7756ZM157.083 66.7756H156.138V66.6182H157.083V66.7756ZM155.194 66.7756H154.25V66.6182H155.194V66.7756ZM153.305 66.7756H152.361V66.6182H153.305V66.7756ZM151.401 66.7756H150.456V66.6182H151.401V66.7756ZM149.512 66.7756H148.567V66.6182H149.512V66.7756ZM147.607 66.7756H146.663V66.6182H147.607V66.7756ZM145.718 66.7756H144.774V66.6182H145.718V66.7756ZM143.813 66.7756H142.869V66.6182H143.813V66.7756ZM141.925 66.7756H140.98V66.6182H141.925V66.7756ZM140.036 66.7756H139.091V66.6182H140.036V66.7756ZM138.131 66.7756H137.187V66.6182H138.131V66.7756ZM136.242 66.7756H135.298V66.6182H136.242V66.7756ZM134.338 66.7756H133.393V66.6182H134.338V66.7756ZM132.449 66.7756H131.504V66.6182H132.449V66.7756ZM130.544 66.7756H129.6V66.6182H130.544V66.7756ZM128.655 66.7756H127.711V66.6182H128.655V66.7756ZM126.766 66.7756H125.822V66.6182H126.766V66.7756ZM124.862 66.7756H123.917V66.6182H124.862V66.7756ZM122.973 66.7756H122.028V66.6182H122.973V66.7756ZM121.068 66.7756H120.124V66.6182H121.068V66.7756ZM119.179 66.7756H118.235V66.6182H119.179V66.7756ZM117.275 66.7756H116.33V66.6182H117.275V66.7756ZM115.386 66.7756H114.441V66.6182H115.386V66.7756ZM113.481 66.7756H112.537V66.6182H113.481V66.7756ZM111.592 66.7756H110.648V66.6182H111.592V66.7756ZM109.703 66.7756H108.759V66.6182H109.703V66.7756ZM107.799 66.7756H106.854V66.6182H107.799V66.7756ZM105.91 66.7756H104.965V66.6182H105.91V66.7756ZM104.005 66.7756H103.061V66.6182H104.005V66.7756ZM102.116 66.7756H101.172V66.6182H102.116V66.7756ZM100.212 66.7756H99.2672V66.6182H100.212V66.7756ZM98.3228 66.7756H97.3783V66.6182H98.3228V66.7756ZM96.4339 66.7756H95.4894V66.6182H96.4339V66.7756ZM94.5292 66.7756H93.5848V66.6182H94.5292V66.7756ZM92.6403 66.7756H91.6959V66.6182H92.6403V66.7756ZM90.7515 66.7756H89.807V66.6182H90.7515V66.7756ZM88.8626 66.7756H87.9181V66.6182H88.8626V66.7756ZM86.9579 66.7756H86.0135V66.6182H86.9579V66.7756ZM85.0691 66.7756H84.1246V66.6182H85.0691V66.7756ZM83.1802 66.7756H82.2357V66.6182H83.1802V66.7756ZM81.2755 66.7756H80.3311V66.6182H81.2755V66.7756ZM79.3866 66.7756H78.4422V66.6182H79.3866V66.7756ZM77.4978 66.7756H76.5533V66.6182H77.4978V66.7756ZM75.6089 66.7756H74.6644V66.6182H75.6089V66.7756ZM73.7042 66.7756H72.7598V66.6182H73.7042V66.7756ZM71.8153 66.7756H70.8709V66.6182H71.8153V66.7756ZM69.9265 66.7756H68.982V66.6182H69.9265V66.7756ZM68.0376 66.7756H67.0931V66.6182H68.0376V66.7756ZM66.1487 66.7756H65.2042V66.6182H66.1487V66.7756ZM64.2598 66.7756H63.3153V66.6182H64.2598V66.7756ZM62.3709 66.7756H61.4265V66.6182H62.3709V66.7756ZM60.4663 66.7756H59.5218V66.6182H60.4663V66.7756ZM58.5774 66.7756H57.6329V66.6182H58.5774V66.7756ZM56.6728 66.7756H55.7283V66.6182H56.6728V66.7756ZM54.7839 66.7756H53.8394V66.6182H54.7839V66.7756ZM52.895 66.7756H51.9505V66.6182H52.895V66.7756ZM50.9904 66.7756H50.0459V66.6182H50.9904V66.7756ZM49.1015 66.7756H48.157V66.6182H49.1015V66.7756ZM47.1968 66.7756H46.2524V66.6182H47.1968V66.7756ZM45.3079 66.7756H44.3635V66.6182H45.3079V66.7756ZM43.4191 66.7756H42.4746V66.6182H43.4191V66.7756Z" fill="#34A1D3"/>
<path d="M164.251 67.1691H164.094V66.7756H163.7V66.6182H164.251V67.1691Z" fill="#34A1D3"/>
<path d="M164.251 75.1842H164.094V74.18H164.251V75.1842ZM164.251 73.1789H164.094V72.1778H164.251V73.1789ZM164.251 71.1766H164.094V70.1724H164.251V71.1766ZM164.251 69.1713H164.094V68.1702H164.251V69.1713Z" fill="#34A1D3"/>
<path d="M164.251 92.7133H163.7V92.5559H164.094V92.1624H164.251V92.7133Z" fill="#34A1D3"/>
<path d="M162.749 92.7038H161.804V92.5464H162.749V92.7038ZM160.86 92.7038H159.916V92.5464H160.86V92.7038ZM158.971 92.7038H158.027V92.5464H158.971V92.7038ZM157.082 92.7038H156.138V92.5464H157.082V92.7038ZM155.193 92.7038H154.249V92.5464H155.193V92.7038ZM153.304 92.7038H152.36V92.5464H153.304V92.7038ZM151.4 92.7038H150.455V92.5464H151.4V92.7038ZM149.511 92.7038H148.567V92.5464H149.511V92.7038ZM147.606 92.7038H146.662V92.5464H147.606V92.7038ZM145.717 92.7038H144.773V92.5464H145.717V92.7038ZM143.813 92.7038H142.868V92.5464H143.813V92.7038ZM141.924 92.7038H140.979V92.5464H141.924V92.7038ZM140.035 92.7038H139.091V92.5464H140.035V92.7038ZM138.13 92.7038H137.186V92.5464H138.13V92.7038ZM136.242 92.7038H135.297V92.5464H136.242V92.7038ZM134.337 92.7038H133.392V92.5464H134.337V92.7038ZM132.448 92.7038H131.504V92.5464H132.448V92.7038ZM130.543 92.7038H129.599V92.5464H130.543V92.7038ZM128.654 92.7038H127.71V92.5464H128.654V92.7038ZM126.766 92.7038H125.821V92.5464H126.766V92.7038ZM124.685 92.7038H123.74V92.5464H124.685V92.7038ZM122.796 92.7038H121.851V92.5464H122.796V92.7038ZM120.891 92.7038H119.947V92.5464H120.891V92.7038ZM119.002 92.7038H118.058V92.5464H119.002V92.7038ZM117.098 92.7038H116.153V92.5464H117.098V92.7038ZM115.209 92.7038H114.264V92.5464H115.209V92.7038ZM113.304 92.7038H112.36V92.5464H113.304V92.7038ZM111.415 92.7038H110.471V92.5464H111.415V92.7038ZM109.526 92.7038H108.582V92.5464H109.526V92.7038ZM107.622 92.7038H106.677V92.5464H107.622V92.7038ZM105.733 92.7038H104.788V92.5464H105.733V92.7038ZM103.828 92.7038H102.884V92.5464H103.828V92.7038ZM101.939 92.7038H100.995V92.5464H101.939V92.7038ZM100.035 92.7038H99.0902V92.5464H100.035V92.7038ZM98.1458 92.7038H97.2013V92.5464H98.1458V92.7038ZM96.2569 92.7038H95.3124V92.5464H96.2569V92.7038ZM94.3523 92.7038H93.4078V92.5464H94.3523V92.7038ZM92.4634 92.7038H91.5189V92.5464H92.4634V92.7038ZM90.5745 92.7038H89.63V92.5464H90.5745V92.7038ZM88.6856 92.7038H87.7411V92.5464H88.6856V92.7038ZM86.781 92.7038H85.8365V92.5464H86.781V92.7038ZM84.8921 92.7038H83.9476V92.5464H84.8921V92.7038ZM83.0032 92.7038H82.0587V92.5464H83.0032V92.7038ZM81.1143 92.7038H80.1698V92.5464H81.1143V92.7038ZM79.2254 92.7038H78.281V92.5464H79.2254V92.7038ZM77.3365 92.7038H76.3921V92.5464H77.3365V92.7038ZM75.4476 92.7038H74.5032V92.5464H75.4476V92.7038ZM73.543 92.7038H72.5985V92.5464H73.543V92.7038ZM71.6541 92.7038H70.7097V92.5464H71.6541V92.7038ZM69.7652 92.7038H68.8208V92.5464H69.7652V92.7038ZM67.8763 92.7038H66.9319V92.5464H67.8763V92.7038ZM65.9874 92.7038H65.043V92.5464H65.9874V92.7038ZM64.0986 92.7038H63.1541V92.5464H64.0986V92.7038ZM62.2097 92.7038H61.2652V92.5464H62.2097V92.7038ZM60.305 92.7038H59.3606V92.5464H60.305V92.7038ZM58.4161 92.7038H57.4717V92.5464H58.4161V92.7038ZM56.5115 92.7038H55.5671V92.5464H56.5115V92.7038ZM54.6226 92.7038H53.6782V92.5464H54.6226V92.7038ZM52.7337 92.7038H51.7893V92.5464H52.7337V92.7038ZM50.8448 92.7038H49.9004V92.5464H50.8448V92.7038ZM48.956 92.7038H48.0115V92.5464H48.956V92.7038ZM47.0513 92.7038H46.1069V92.5464H47.0513V92.7038ZM45.1624 92.7038H44.218V92.5464H45.1624V92.7038ZM43.2735 92.7038H42.3291V92.5464H43.2735V92.7038Z" fill="#34A1D3"/>
<path d="M40.966 92.7133H40.415V92.1624H40.5724V92.5559H40.966V92.7133Z" fill="#34A1D3"/>
<path d="M40.5724 91.161H40.415V90.1599H40.5724V91.161ZM40.5724 89.1557H40.415V88.1546H40.5724V89.1557ZM40.5724 87.1535H40.415V86.1523H40.5724V87.1535ZM40.5724 85.1481H40.415V84.147H40.5724V85.1481Z" fill="#34A1D3"/>
<path d="M40.5724 83.1459H40.415V82.595H40.966V82.7524H40.5724V83.1459Z" fill="#34A1D3"/>
<path d="M162.75 82.7524H161.805V82.595H162.75V82.7524ZM160.861 82.7524H159.916V82.595H160.861V82.7524ZM158.972 82.7524H158.027V82.595H158.972V82.7524ZM157.083 82.7524H156.138V82.595H157.083V82.7524ZM155.194 82.7524H154.25V82.595H155.194V82.7524ZM153.305 82.7524H152.361V82.595H153.305V82.7524ZM151.401 82.7524H150.456V82.595H151.401V82.7524ZM149.512 82.7524H148.567V82.595H149.512V82.7524ZM147.607 82.7524H146.663V82.595H147.607V82.7524ZM145.718 82.7524H144.774V82.595H145.718V82.7524ZM143.813 82.7524H142.869V82.595H143.813V82.7524ZM141.925 82.7524H140.98V82.595H141.925V82.7524ZM140.036 82.7524H139.091V82.595H140.036V82.7524ZM138.131 82.7524H137.187V82.595H138.131V82.7524ZM136.242 82.7524H135.298V82.595H136.242V82.7524ZM134.338 82.7524H133.393V82.595H134.338V82.7524ZM132.449 82.7524H131.504V82.595H132.449V82.7524ZM130.544 82.7524H129.6V82.595H130.544V82.7524ZM128.655 82.7524H127.711V82.595H128.655V82.7524ZM126.766 82.7524H125.822V82.595H126.766V82.7524ZM124.862 82.7524H123.917V82.595H124.862V82.7524ZM122.973 82.7524H122.028V82.595H122.973V82.7524ZM121.068 82.7524H120.124V82.595H121.068V82.7524ZM119.179 82.7524H118.235V82.595H119.179V82.7524ZM117.275 82.7524H116.33V82.595H117.275V82.7524ZM115.386 82.7524H114.441V82.595H115.386V82.7524ZM113.481 82.7524H112.537V82.595H113.481V82.7524ZM111.592 82.7524H110.648V82.595H111.592V82.7524ZM109.703 82.7524H108.759V82.595H109.703V82.7524ZM107.799 82.7524H106.854V82.595H107.799V82.7524ZM105.91 82.7524H104.965V82.595H105.91V82.7524ZM104.005 82.7524H103.061V82.595H104.005V82.7524ZM102.116 82.7524H101.172V82.595H102.116V82.7524ZM100.212 82.7524H99.2672V82.595H100.212V82.7524ZM98.3228 82.7524H97.3783V82.595H98.3228V82.7524ZM96.4339 82.7524H95.4894V82.595H96.4339V82.7524ZM94.5292 82.7524H93.5848V82.595H94.5292V82.7524ZM92.6403 82.7524H91.6959V82.595H92.6403V82.7524ZM90.7515 82.7524H89.807V82.595H90.7515V82.7524ZM88.8626 82.7524H87.9181V82.595H88.8626V82.7524ZM86.9579 82.7524H86.0135V82.595H86.9579V82.7524ZM85.0691 82.7524H84.1246V82.595H85.0691V82.7524ZM83.1802 82.7524H82.2357V82.595H83.1802V82.7524ZM81.2755 82.7524H80.3311V82.595H81.2755V82.7524ZM79.3866 82.7524H78.4422V82.595H79.3866V82.7524ZM77.4978 82.7524H76.5533V82.595H77.4978V82.7524ZM75.6089 82.7524H74.6644V82.595H75.6089V82.7524ZM73.7042 82.7524H72.7598V82.595H73.7042V82.7524ZM71.8153 82.7524H70.8709V82.595H71.8153V82.7524ZM69.9265 82.7524H68.982V82.595H69.9265V82.7524ZM68.0376 82.7524H67.0931V82.595H68.0376V82.7524ZM66.1487 82.7524H65.2042V82.595H66.1487V82.7524ZM64.2598 82.7524H63.3153V82.595H64.2598V82.7524ZM62.3709 82.7524H61.4265V82.595H62.3709V82.7524ZM60.4663 82.7524H59.5218V82.595H60.4663V82.7524ZM58.5774 82.7524H57.6329V82.595H58.5774V82.7524ZM56.6728 82.7524H55.7283V82.595H56.6728V82.7524ZM54.7839 82.7524H53.8394V82.595H54.7839V82.7524ZM52.895 82.7524H51.9505V82.595H52.895V82.7524ZM50.9904 82.7524H50.0459V82.595H50.9904V82.7524ZM49.1015 82.7524H48.157V82.595H49.1015V82.7524ZM47.1968 82.7524H46.2524V82.595H47.1968V82.7524ZM45.3079 82.7524H44.3635V82.595H45.3079V82.7524ZM43.4191 82.7524H42.4746V82.595H43.4191V82.7524Z" fill="#34A1D3"/>
<path d="M164.251 83.1459H164.094V82.7524H163.7V82.595H164.251V83.1459Z" fill="#34A1D3"/>
<path d="M164.251 91.161H164.094V90.1599H164.251V91.161ZM164.251 89.1557H164.094V88.1546H164.251V89.1557ZM164.251 87.1535H164.094V86.1523H164.251V87.1535ZM164.251 85.1481H164.094V84.147H164.251V85.1481Z" fill="#34A1D3"/>
<path d="M137.388 49.2625H119.721V49.9393H137.388V49.2625Z" fill="#EBEBEB"/>
<path d="M118.48 49.2625H110.632V49.9393H118.48V49.2625Z" fill="#A6A6A6"/>
<path d="M68.3808 46.0671H48.5664V46.744H68.3808V46.0671Z" fill="#A6A6A6"/>
<path d="M141.178 42.8718H114.844V43.5487H141.178V42.8718Z" fill="#A6A6A6"/>
<path d="M109.653 58.5559H83.3184V59.2328H109.653V58.5559Z" fill="#A6A6A6"/>
<path d="M108.838 49.2625H48.5664V49.9393H108.838V49.2625Z" fill="#34A1D3"/>
<path d="M45.3142 42.8718H42.5596V43.5487H45.3142V42.8718Z" fill="#A6A6A6"/>
<path d="M64.8518 42.8718H48.5664V43.5487H64.8518V42.8718Z" fill="#EBEBEB"/>
<path d="M67.5403 52.4578H51.2549V53.1346H67.5403V52.4578Z" fill="#EBEBEB"/>
<path d="M133.834 55.6533H111.098V56.3302H133.834V55.6533Z" fill="#34A1D3"/>
<path d="M109.671 55.6533H65.9814V56.3302H109.671V55.6533Z" fill="#EBEBEB"/>
<path d="M63.498 55.6533H51.2549V56.3302H63.498V55.6533Z" fill="#A6A6A6"/>
<path d="M116.578 46.0671H69.501V46.744H116.578V46.0671Z" fill="#EBEBEB"/>
<path d="M145.806 46.0671H117.718V46.744H145.806V46.0671Z" fill="#34A1D3"/>
<path d="M113.562 42.8718H66.5068V43.5487H113.562V42.8718Z" fill="#34A1D3"/>
<path d="M45.3142 46.0671H42.5596V46.744H45.3142V46.0671Z" fill="#EBEBEB"/>
<path d="M45.3142 49.2625H42.5596V49.9393H45.3142V49.2625Z" fill="#EBEBEB"/>
<path d="M45.3142 52.4578H42.5596V53.1346H45.3142V52.4578Z" fill="#A6A6A6"/>
<path d="M45.3142 55.6533H42.5596V56.3302H45.3142V55.6533Z" fill="#EBEBEB"/>
<path d="M45.3142 58.5559H42.5596V59.2328H45.3142V58.5559Z" fill="#EBEBEB"/>
<path d="M80.879 58.5559H48.5664V59.2328H80.879V58.5559Z" fill="#EBEBEB"/>
<path d="M45.3142 61.7512H42.5596V62.4281H45.3142V61.7512Z" fill="#EBEBEB"/>
<path d="M71.998 61.7512H51.2549V62.4281H71.998V61.7512Z" fill="#A6A6A6"/>
<path d="M68.3808 71.3374H48.5664V72.0143H68.3808V71.3374Z" fill="#A6A6A6"/>
<path d="M65.154 64.9465H51.2549V65.6234H65.154V64.9465Z" fill="#34A1D3"/>
<path d="M96.984 77.728H83.085V78.4049H96.984V77.728Z" fill="#34A1D3"/>
<path d="M118.37 64.9465H66.6963V65.6234H118.37V64.9465Z" fill="#A6A6A6"/>
<path d="M108.838 74.5327H48.5664V75.2096H108.838V74.5327Z" fill="#34A1D3"/>
<path d="M115.996 61.7512H73.3008V62.4281H115.996V61.7512Z" fill="#EBEBEB"/>
<path d="M125.038 68.1418H116.116V68.8187H125.038V68.1418Z" fill="#EBEBEB"/>
<path d="M45.3142 64.9465H42.5596V65.6234H45.3142V64.9465Z" fill="#EBEBEB"/>
<path d="M45.3142 68.1418H42.5596V68.8187H45.3142V68.1418Z" fill="#A6A6A6"/>
<path d="M64.8518 68.1418H48.5664V68.8187H64.8518V68.1418Z" fill="#EBEBEB"/>
<path d="M116.578 71.3374H69.501V72.0143H116.578V71.3374Z" fill="#EBEBEB"/>
<path d="M113.562 68.1418H66.5068V68.8187H113.562V68.1418Z" fill="#34A1D3"/>
<path d="M45.3142 71.3374H42.5596V72.0143H45.3142V71.3374Z" fill="#EBEBEB"/>
<path d="M45.3142 77.728H42.5596V78.4049H45.3142V77.728Z" fill="#EBEBEB"/>
<path d="M80.879 77.728H48.5664V78.4049H80.879V77.728Z" fill="#EBEBEB"/>
<path d="M45.3142 80.9233H42.5596V81.6002H45.3142V80.9233Z" fill="#EBEBEB"/>
<path d="M71.998 80.9233H51.2549V81.6002H71.998V80.9233Z" fill="#A6A6A6"/>
<path d="M44.2629 27.112C44.2853 27.1343 44.3032 27.1607 44.3153 27.1899C44.3275 27.2191 44.3338 27.2504 44.3338 27.282C44.3338 27.3136 44.3275 27.3449 44.3153 27.3741C44.3032 27.4033 44.2853 27.4298 44.2629 27.452C44.2176 27.4947 44.1582 27.5193 44.096 27.5213C44.0317 27.5206 43.9699 27.4959 43.9229 27.452L42.8588 26.3754C42.8537 26.3732 42.8493 26.3697 42.846 26.3653C42.8427 26.3609 42.8406 26.3557 42.8399 26.3502C42.8385 26.3397 42.8385 26.3291 42.8399 26.3187C42.8399 26.3187 42.8399 26.2998 42.8399 26.2967C42.8399 26.2935 42.8399 26.2967 42.8399 26.2778V26.2526C42.8399 26.2526 42.8399 26.2526 42.8399 26.2305C42.8399 26.2085 42.8399 26.2305 42.8399 26.2117V26.1833C42.8399 26.1833 42.8399 26.1644 42.8399 26.155C42.8399 26.155 42.8399 26.1298 42.8588 26.1235C42.8633 26.113 42.871 26.1041 42.8808 26.0983L43.9449 25.0185C43.9915 24.9796 44.051 24.9596 44.1117 24.9624C44.1724 24.9653 44.2297 24.9908 44.2725 25.0339C44.3152 25.0771 44.3402 25.1347 44.3425 25.1954C44.3448 25.2561 44.3243 25.3154 44.2849 25.3617L43.3877 26.2652L44.2629 27.112Z" fill="#34A1D3"/>
<path d="M45.2255 27.2222L46.151 25.0185C46.1616 24.9928 46.1773 24.9695 46.1971 24.95C46.2169 24.9305 46.2404 24.9151 46.2662 24.9048C46.2921 24.8946 46.3197 24.8896 46.3475 24.8902C46.3753 24.8908 46.4027 24.897 46.4281 24.9083C46.4776 24.9298 46.5166 24.97 46.5367 25.0201C46.5567 25.0702 46.5562 25.1262 46.5351 25.1759L45.6064 27.3796C45.59 27.4169 45.5631 27.4487 45.529 27.471C45.4949 27.4934 45.4551 27.5054 45.4144 27.5056C45.3894 27.51 45.3638 27.51 45.3388 27.5056C45.3117 27.4957 45.287 27.4803 45.2664 27.4602C45.2457 27.4402 45.2294 27.416 45.2187 27.3892C45.208 27.3625 45.2031 27.3338 45.2043 27.305C45.2054 27.2762 45.2127 27.248 45.2255 27.2222Z" fill="#34A1D3"/>
<path d="M48.3642 26.344C48.3642 26.344 48.3484 26.3628 48.3358 26.3723L47.2749 27.449C47.2278 27.4928 47.1661 27.5175 47.1018 27.5182C47.0393 27.5175 46.9795 27.4927 46.9349 27.449C46.9117 27.4272 46.8931 27.4008 46.8804 27.3716C46.8678 27.3424 46.8612 27.3108 46.8612 27.279C46.8612 27.2471 46.8678 27.2156 46.8804 27.1863C46.8931 27.1571 46.9117 27.1307 46.9349 27.109L47.829 26.2054L46.9255 25.3051C46.9021 25.283 46.8835 25.2564 46.8708 25.2269C46.8581 25.1974 46.8516 25.1656 46.8516 25.1335C46.8516 25.1014 46.8581 25.0696 46.8708 25.0401C46.8835 25.0106 46.9021 24.984 46.9255 24.9619C46.9712 24.918 47.0321 24.8936 47.0955 24.8936C47.1588 24.8936 47.2197 24.918 47.2655 24.9619L48.3264 26.0417C48.3264 26.0417 48.3453 26.0606 48.3547 26.0669C48.3547 26.0669 48.3705 26.089 48.3736 26.0984C48.3719 26.1099 48.3719 26.1215 48.3736 26.133V26.1614C48.3736 26.1614 48.3736 26.1614 48.3736 26.1803C48.3736 26.1991 48.3736 26.1802 48.3736 26.1991V26.2275C48.3721 26.2379 48.3721 26.2485 48.3736 26.259C48.3736 26.259 48.3705 26.3282 48.3642 26.344Z" fill="#34A1D3"/>
<path d="M57.4785 112.002C57.4785 112.002 62.1441 110.944 64.7035 108.586C67.263 106.228 68.6922 102.007 68.6922 102.007C66.918 102.345 65.1689 102.804 63.4568 103.379C62.8178 104.039 62.2866 104.796 61.8828 105.621C61.843 105.087 61.843 104.552 61.8828 104.018C61.2846 104.277 60.7252 104.617 60.2205 105.029C58.0767 106.87 57.4785 112.002 57.4785 112.002Z" fill="#34A1D3"/>
<path d="M65.7768 104.059C66.4065 103.618 67.0613 103.193 67.6941 102.749C67.7318 102.721 67.6941 102.661 67.6563 102.686C66.4537 103.404 65.2668 104.172 64.1209 104.975C63.72 105.259 63.3255 105.549 62.9372 105.847L63.0191 105.709C63.1607 105.473 63.3087 105.243 63.4567 105.013C63.7495 104.546 64.0802 104.104 64.4452 103.691C64.4452 103.691 64.4452 103.653 64.4231 103.669C64.0611 104.087 63.6959 104.503 63.3654 104.947C63.208 105.158 63.0505 105.378 62.9215 105.602C62.8491 105.718 62.7798 105.835 62.7105 105.954L62.6413 106.074C62.04 106.549 61.4513 107.044 60.8909 107.566C60.5446 107.881 60.2109 108.224 59.8867 108.567C60.0661 108.004 60.2267 107.431 60.4344 106.874C60.4344 106.855 60.4092 106.848 60.4029 106.874C60.2015 107.456 59.978 108.045 59.8205 108.643C59.4617 109.029 59.1217 109.43 58.8005 109.845C58.8042 109.82 58.8095 109.795 58.8163 109.77C58.8698 109.549 58.9233 109.329 58.9831 109.112C59.0965 108.69 59.2192 108.271 59.3641 107.853C59.6331 106.992 60.0601 106.189 60.6233 105.485C60.6233 105.485 60.6233 105.447 60.6013 105.463C59.7256 106.553 59.1136 107.831 58.8131 109.197C58.7628 109.395 58.7155 109.594 58.6715 109.795C58.6463 109.899 58.618 110.009 58.5991 110.11C58.4605 110.302 58.322 110.494 58.1867 110.692C57.3914 111.908 56.7296 113.206 56.2128 114.564C55.6284 116.09 55.1292 117.646 54.7174 119.227C54.716 119.231 54.7155 119.235 54.716 119.239C54.7165 119.243 54.718 119.247 54.7203 119.25C54.7226 119.253 54.7257 119.256 54.7293 119.258C54.7329 119.26 54.7369 119.261 54.741 119.261C54.7451 119.261 54.7491 119.26 54.7527 119.258C54.7563 119.256 54.7594 119.253 54.7617 119.25C54.764 119.247 54.7655 119.243 54.766 119.239C54.7665 119.235 54.766 119.231 54.7646 119.227C55.6776 116.497 56.6094 113.727 58.1741 111.284C58.5029 110.769 58.8581 110.271 59.2381 109.792C60.0114 109.743 60.7747 109.592 61.508 109.342C62.3096 109.072 63.0742 108.703 63.7841 108.243C64.1933 107.975 64.568 107.667 64.9489 107.361C64.9678 107.346 64.9489 107.321 64.93 107.336C64.2777 107.862 63.5577 108.297 62.7892 108.63C62.0351 108.978 61.2456 109.243 60.4344 109.42C60.0913 109.496 59.7418 109.553 59.3924 109.6C59.8242 109.067 60.2834 108.558 60.7681 108.073C60.9255 107.916 61.083 107.758 61.2498 107.613C61.795 107.234 62.3723 106.904 62.975 106.625C63.74 106.256 64.4955 105.866 65.2511 105.479C65.6792 105.262 66.1011 105.041 66.5324 104.83C66.5513 104.83 66.5324 104.793 66.5167 104.802C65.7485 105.174 64.9709 105.52 64.1965 105.876C63.422 106.231 62.7294 106.543 62.0305 106.936C62.0001 106.952 61.9706 106.97 61.9424 106.99C62.572 106.439 63.2268 105.913 63.8974 105.416C64.5113 104.956 65.1378 104.5 65.7768 104.059Z" fill="#263238"/>
<path d="M65.4998 106.464C65.1189 106.631 64.7317 106.779 64.3571 106.952C63.9824 107.126 63.6047 107.346 63.2363 107.563C63.2363 107.563 63.2363 107.595 63.2521 107.588C63.6236 107.409 64.0013 107.242 64.3697 107.056C64.738 106.871 65.1221 106.666 65.5061 106.496C65.5376 106.486 65.5313 106.455 65.4998 106.464Z" fill="#263238"/>
<path d="M42.3135 88.4758C43.1755 89.5894 43.6636 90.9468 43.7081 92.3544C43.7238 92.7731 43.6577 93.3555 43.6074 94.0418C44.7731 94.717 45.8058 95.5993 46.6548 96.6453C45.7227 96.1036 44.6522 95.8475 43.5759 95.9086C43.6 96.3774 43.66 96.8436 43.7553 97.3032C44.4344 97.3043 45.1068 97.4369 45.7355 97.6936C45.1223 97.6873 44.5144 97.8084 43.9505 98.0493C44.7816 100.697 47.2561 103.401 54.0844 104.572C54.8099 101.325 54.3824 97.9272 52.8755 94.961C50.8292 90.9345 42.3135 88.4758 42.3135 88.4758Z" fill="#34A1D3"/>
<path d="M56.4487 115.899C56.3291 114.768 56.1822 113.64 56.008 112.515C55.6605 110.266 55.2003 108.035 54.6291 105.832C54.362 104.797 54.033 103.779 53.6437 102.784C53.6632 102.602 53.6716 102.419 53.6689 102.236C53.6689 102.019 53.6689 101.799 53.6689 101.582C53.6689 101.144 53.6437 100.706 53.606 100.272C53.5376 99.4076 53.3976 98.5504 53.1873 97.7093C53.0613 97.2245 52.9165 96.746 52.7748 96.2643C52.7748 96.2601 52.7732 96.2561 52.7702 96.2532C52.7673 96.2502 52.7633 96.2486 52.7591 96.2486C52.7549 96.2486 52.7509 96.2502 52.748 96.2532C52.745 96.2561 52.7434 96.2601 52.7434 96.2643C52.9713 97.1035 53.1396 97.9577 53.2471 98.8206C53.3695 99.6701 53.4462 100.525 53.4769 101.383C53.4769 101.616 53.4769 101.852 53.4769 102.085C53.4769 102.186 53.4769 102.287 53.4769 102.4C53.1407 101.584 52.7559 100.79 52.3247 100.02C51.6309 98.7989 50.8492 97.63 49.9856 96.5224C49.9852 96.3926 49.9672 96.2634 49.9321 96.1384C49.8974 95.9873 49.866 95.8236 49.8313 95.6819C49.7621 95.3671 49.6834 95.0523 49.5984 94.7532C49.4284 94.1236 49.2048 93.5349 49.0128 92.9241C49.0128 92.9052 48.975 92.9241 48.9813 92.9241C49.1608 93.5286 49.2804 94.155 49.4189 94.7721C49.4882 95.0869 49.5543 95.3797 49.6204 95.685C49.655 95.8361 49.6865 95.9999 49.718 96.1415C49.7192 96.153 49.7192 96.1646 49.718 96.1761C49.4441 95.8299 49.1608 95.4836 48.8743 95.1467C47.5678 93.6167 46.1385 92.2063 44.6998 90.8054C44.5235 90.6323 44.341 90.4654 44.1615 90.2954C44.1615 90.2954 44.1269 90.2954 44.1395 90.3206C45.5152 91.753 46.8689 93.2043 48.1534 94.728C48.4577 95.089 48.7578 95.4542 49.0537 95.8236L48.5878 95.5087C48.188 95.2506 47.785 94.9956 47.3726 94.7626C46.9602 94.5297 46.5415 94.3062 46.1134 94.0952C45.6852 93.8843 45.2067 93.7017 44.7848 93.4656C44.7691 93.4656 44.7502 93.4876 44.7691 93.4939C45.2052 93.6937 45.6261 93.9252 46.0284 94.1865C46.4439 94.4321 46.8595 94.6808 47.2687 94.9389C47.678 95.1971 48.0715 95.4458 48.4713 95.7039C48.805 95.918 49.1324 96.1541 49.4756 96.3556C50.2669 97.3726 50.9975 98.4353 51.6636 99.5384C52.078 100.234 52.4552 100.95 52.7937 101.685L52.5513 101.578L51.9217 101.301L50.7128 100.772C49.9478 100.439 49.1702 100.143 48.4178 99.7682C47.9946 99.5696 47.5855 99.3424 47.1932 99.0882C47.1743 99.0882 47.1586 99.1039 47.1774 99.1165C48.5752 100.08 50.1461 100.76 51.695 101.446L52.3687 101.745C52.5545 101.827 52.7371 101.918 52.9291 101.988C53.3873 103.015 53.7733 104.073 54.0845 105.155C54.6944 107.331 55.1904 109.538 55.5704 111.766C55.9608 113.998 56.2252 116.242 56.4298 118.5C56.455 118.78 56.4834 119.06 56.5148 119.343C56.5148 119.367 56.5241 119.389 56.5407 119.406C56.5572 119.422 56.5796 119.432 56.603 119.432C56.6264 119.432 56.6488 119.422 56.6653 119.406C56.6819 119.389 56.6911 119.367 56.6911 119.343C56.6848 118.185 56.5684 117.036 56.4487 115.899Z" fill="#263238"/>
<path d="M52.2928 97.0387C52.1668 96.343 51.978 95.663 51.7954 94.983C51.7954 94.9641 51.7607 94.983 51.7639 94.983C51.937 95.6504 52.063 96.3304 52.1857 97.0073C52.3085 97.6841 52.4281 98.3925 52.5257 99.0882H52.5446C52.4999 98.4008 52.4158 97.7165 52.2928 97.0387Z" fill="#263238"/>
<path d="M49.3494 98.9213C48.8738 98.6086 48.3773 98.3288 47.8635 98.0839C47.6148 97.9548 47.363 97.832 47.1111 97.7124C46.8593 97.5927 46.5822 97.4794 46.3241 97.3503C46.3052 97.3503 46.2894 97.3692 46.3083 97.3787C46.557 97.5046 46.7931 97.6557 47.0387 97.7879L47.7974 98.2035C48.298 98.4711 48.7891 98.7702 49.3117 98.9874C49.316 98.9899 49.3208 98.9915 49.3258 98.9921C49.3307 98.9927 49.3357 98.9924 49.3406 98.9911C49.3454 98.9897 49.3499 98.9875 49.3539 98.9844C49.3578 98.9814 49.3611 98.9776 49.3636 98.9732C49.3661 98.9689 49.3677 98.9641 49.3683 98.9591C49.369 98.9542 49.3686 98.9491 49.3673 98.9443C49.366 98.9395 49.3637 98.935 49.3607 98.931C49.3576 98.9271 49.3538 98.9237 49.3494 98.9213Z" fill="#263238"/>
<path opacity="0.1" d="M57.5596 103.914C57.5596 103.914 61.882 102.885 63.8559 99.9854C65.7448 97.2182 66.3744 92.5022 66.409 92.0867C66.3303 92.4676 65.4394 96.5885 62.499 98.5089C60.2575 99.9822 58.0822 101.204 57.5596 103.914Z" fill="#263238"/>
<path d="M61.549 96.4533C60.7796 97.1583 60.227 98.068 59.9561 99.0757C60.2742 98.0922 60.8237 97.1993 61.5585 96.4722C61.5585 96.4722 61.5648 96.4376 61.549 96.4533Z" fill="#263238"/>
<path d="M57.56 103.914C57.56 103.914 61.8824 102.885 63.8563 99.9854C65.7452 97.2182 66.3748 92.5022 66.4095 92.0867C66.4088 92.0772 66.4088 92.0678 66.4095 92.0583C66.4095 92.0583 64.338 95.0019 62.1595 95.7543C59.9809 96.5067 56.9367 99.1007 57.56 103.914Z" fill="#34A1D3"/>
<path d="M65.6599 93.6829C65.2711 94.4758 64.8239 95.2387 64.3219 95.9653C63.8176 96.6542 63.22 97.2698 62.5463 97.7944C61.9608 98.2603 61.3375 98.6821 60.7456 99.1386V99.1166C60.8589 98.9529 60.9754 98.8018 61.0982 98.6349C61.3469 98.3201 61.6176 98.0053 61.8884 97.7251C62.4267 97.1427 62.9745 96.5697 63.4625 95.9401C63.7288 95.5919 63.9607 95.2186 64.155 94.8257C64.155 94.8068 64.133 94.7973 64.1236 94.8257C63.4247 96.2864 62.0238 97.2214 61.0258 98.4555C60.8827 98.6296 60.7493 98.8114 60.626 99.0001C60.5279 99.1368 60.4445 99.2835 60.3773 99.4377C59.8308 99.8772 59.3364 100.378 58.9039 100.93C58.9422 100.646 59.0001 100.365 59.0771 100.089C59.1775 99.7052 59.3323 99.3374 59.5367 98.997C59.5367 98.9781 59.5178 98.9623 59.5084 98.9781C59.2989 99.3193 59.1298 99.6838 59.0047 100.064C58.9141 100.371 58.8613 100.689 58.8473 101.009C58.6321 101.292 58.4354 101.588 58.2586 101.896C58.2775 101.805 58.2932 101.711 58.3121 101.619C58.3971 101.188 58.4915 100.76 58.6049 100.335C58.8085 99.47 59.1599 98.6467 59.6438 97.9014C59.6438 97.8857 59.628 97.8668 59.6186 97.8825C59.1218 98.6173 58.7337 99.4199 58.4663 100.266C58.3278 100.688 58.2176 101.119 58.12 101.553C58.0728 101.767 58.0319 101.981 57.991 102.183C57.9689 102.293 57.9438 102.406 57.928 102.52C57.4991 103.46 57.1648 104.441 56.93 105.448C56.5058 107.246 56.1987 109.071 56.0108 110.91C55.7868 112.834 55.6869 114.771 55.7117 116.708C55.7117 116.951 55.7306 117.193 55.7432 117.436C55.7432 117.499 55.8408 117.508 55.8439 117.436C55.8849 116.491 55.91 115.518 55.9667 114.561C56.0234 113.604 56.1084 112.644 56.2091 111.69C56.4068 109.814 56.7074 107.949 57.1095 106.105C57.4621 104.531 57.9154 102.938 58.778 101.553C59.2075 100.865 59.7322 100.241 60.3363 99.699C60.9408 99.1575 61.5956 98.679 62.2441 98.1753C62.8894 97.6842 63.4757 97.1201 63.9913 96.4942C64.5199 95.7967 64.9805 95.0504 65.3671 94.2653C65.4678 94.0701 65.5717 93.8749 65.6819 93.6797C65.6945 93.6797 65.6662 93.664 65.6599 93.6829Z" fill="#263238"/>
<path d="M64.9145 94.3156C64.6317 94.8971 64.3099 95.4587 63.9512 95.9967C63.9512 95.9967 63.9512 96.0219 63.9701 95.9967C64.3414 95.4638 64.6668 94.9004 64.9428 94.3125C64.9523 94.3062 64.9208 94.2967 64.9145 94.3156Z" fill="#263238"/>
<path d="M41.7091 102.007C41.7091 102.007 41.643 108.142 45.3137 109.915C48.9844 111.687 50.952 110.211 53.4454 110.806C53.3509 110.658 51.5565 108.101 48.7389 107.396C45.8205 106.666 42.5937 104.563 41.7091 102.007Z" fill="#34A1D3"/>
<path opacity="0.1" d="M41.7091 102.007C41.7091 102.007 41.643 108.142 45.3137 109.915C48.9844 111.687 50.952 110.211 53.4454 110.806C52.1287 110.178 50.7208 109.762 49.2741 109.575C46.9539 109.291 42.5181 107.783 41.7091 102.007Z" fill="black"/>
<path d="M53.6843 110.916C53.2496 110.517 52.7585 110.183 52.2267 109.927C52.148 109.889 52.0662 109.858 51.9874 109.823L51.8615 109.682C51.7545 109.568 51.638 109.458 51.5184 109.367C51.2875 109.169 51.04 108.991 50.7786 108.835C50.171 108.476 49.5036 108.227 48.8897 107.89C48.8708 107.89 48.855 107.909 48.8739 107.919C49.1887 108.079 49.4784 108.256 49.7774 108.429C50.0765 108.602 50.3662 108.762 50.6495 108.945C50.9051 109.108 51.1482 109.29 51.3767 109.49L51.5656 109.669C51.1587 109.532 50.7433 109.422 50.3221 109.339C49.6515 109.203 48.9715 109.109 48.301 108.964C47.9723 108.894 47.6476 108.807 47.3282 108.703C47.0134 108.457 46.7206 108.212 46.431 107.947C46.083 107.628 45.7667 107.276 45.4865 106.896C45.4865 106.877 45.4456 106.896 45.4582 106.911C45.9023 107.514 46.4065 108.07 46.963 108.57C46.8056 108.511 46.6482 108.448 46.4939 108.378C45.2331 107.812 44.151 106.912 43.3647 105.775C43.3647 105.759 43.3269 105.775 43.3395 105.791C44.0024 106.766 44.8598 107.593 45.858 108.221C46.3594 108.533 46.8949 108.787 47.4541 108.977C48.1044 109.18 48.7682 109.336 49.4406 109.446C50.0992 109.554 50.7493 109.709 51.3862 109.908C51.9714 110.108 52.5216 110.398 53.0169 110.768C53.9541 111.492 54.7087 112.426 55.2206 113.494C55.8772 114.911 56.2871 116.429 56.4326 117.983C56.4326 118.049 56.5428 118.049 56.5365 117.983C56.3697 115.392 55.6739 112.707 53.6843 110.916Z" fill="#263238"/>
<path d="M49.4255 108.914C49.2339 108.627 48.9757 108.392 48.6731 108.227C48.326 108.051 48.0203 107.803 47.7759 107.5C47.7759 107.481 47.7349 107.5 47.7475 107.516C47.9683 107.797 48.2369 108.036 48.5409 108.224C48.8738 108.402 49.1672 108.645 49.4034 108.939C49.4129 108.942 49.4444 108.926 49.4255 108.914Z" fill="#263238"/>
<path d="M51.374 115.446L51.5409 118.821L52.054 129.134H59.7544L60.2644 118.821L60.4312 115.446H51.374Z" fill="#37474F"/>
<path d="M51.374 115.446L51.5409 118.821H60.2644L60.4312 115.446H51.374Z" fill="#263238"/>
<path d="M50.8327 117.256H60.9697V114.036H50.8327V117.256Z" fill="#37474F"/>
<path d="M101.946 1.14307H69.4883V21.8484H101.946V1.14307Z" fill="white"/>
<path d="M102.147 22.0499H69.2773V0.935303H102.144L102.147 22.0499ZM69.6929 21.6407H101.738V1.34771H69.6929V21.6407Z" fill="#EBEBEB"/>
<path d="M101.946 1.14307H69.4883V5.05936H101.946V1.14307Z" fill="#34A1D3"/>
<path d="M102.147 5.26086H69.2773V0.935303H102.144L102.147 5.26086ZM69.6929 4.8516H101.738V1.34771H69.6929V4.8516Z" fill="#EBEBEB"/>
<path d="M75.0889 12.7974C75.1095 11.7496 75.54 10.7516 76.2881 10.0177C77.0362 9.28372 78.0422 8.87228 79.0902 8.87166C80.0015 8.86609 80.8884 9.16651 81.6087 9.72481C81.7191 9.83245 81.7861 9.97685 81.7971 10.1306C81.8081 10.2844 81.7623 10.4369 81.6684 10.5591C81.5744 10.6814 81.4389 10.7649 81.2875 10.7939C81.1361 10.8229 80.9793 10.7954 80.8468 10.7165C80.3499 10.3162 79.7281 10.1034 79.0902 10.1152C78.3601 10.1186 77.6588 10.4001 77.1289 10.9022C76.624 11.4018 76.3377 12.0809 76.3324 12.7911C76.3329 13.1431 76.4036 13.4914 76.5404 13.8158C76.6772 14.1401 76.8772 14.4339 77.1289 14.68C77.6588 15.1822 78.3601 15.4636 79.0902 15.467C79.7279 15.4772 80.3491 15.2646 80.8468 14.8657C80.9815 14.7751 81.1448 14.7373 81.3057 14.7593C81.4665 14.7814 81.6135 14.8618 81.7189 14.9854C81.8178 15.1164 81.8617 15.2809 81.8411 15.4438C81.8205 15.6067 81.7371 15.7551 81.6087 15.8574C80.8879 16.4146 80.0011 16.7139 79.0902 16.7074C78.0434 16.7117 77.0369 16.304 76.2882 15.5724C75.5395 14.8408 75.1087 13.844 75.0889 12.7974Z" fill="#EBEBEB"/>
<path d="M83.5949 14.8281C83.6902 14.7122 83.8276 14.6388 83.9769 14.6241C84.1262 14.6093 84.2753 14.6544 84.3914 14.7494C84.9752 15.2483 85.7058 15.5434 86.4723 15.5899C86.9627 15.6023 87.4447 15.4614 87.8512 15.1869C87.9871 15.1041 88.1007 14.9894 88.1824 14.8529C88.2642 14.7163 88.3115 14.5619 88.3203 14.4031C88.3228 14.2795 88.2888 14.158 88.2227 14.0536C88.1426 13.9264 88.0351 13.8189 87.9079 13.7388C87.445 13.4779 86.9381 13.3039 86.4125 13.2257H86.3905C85.9066 13.1428 85.435 13.0001 84.9864 12.8007C84.5735 12.6212 84.2214 12.326 83.9727 11.9507C83.8045 11.683 83.7171 11.3726 83.7209 11.0566C83.7316 10.7414 83.8161 10.4331 83.9676 10.1565C84.119 9.87982 84.3332 9.64252 84.5929 9.46362C85.1463 9.0774 85.807 8.87478 86.4818 8.88436C87.5301 8.88436 88.3046 9.3975 88.8586 9.75639C88.9807 9.83952 89.0652 9.96724 89.0941 10.1121C89.1229 10.2569 89.0938 10.4073 89.0129 10.5308C88.9739 10.5937 88.9226 10.648 88.8621 10.6905C88.8015 10.733 88.733 10.7628 88.6606 10.7781C88.5883 10.7934 88.5136 10.7939 88.441 10.7795C88.3684 10.7652 88.2995 10.7363 88.2385 10.6945C87.6812 10.3262 87.146 9.9988 86.4818 9.9988C86.0462 9.99129 85.6191 10.1201 85.2603 10.3671C85.1415 10.4408 85.0421 10.5418 84.9703 10.6617C84.8986 10.7817 84.8566 10.9171 84.8479 11.0566C84.8406 11.1668 84.8669 11.2765 84.9235 11.3714C85.0016 11.484 85.1011 11.5803 85.2162 11.6547C85.6273 11.8897 86.0791 12.0446 86.5479 12.1112H86.5699C87.0885 12.2019 87.594 12.3563 88.0747 12.5708C88.5169 12.7629 88.8956 13.0761 89.1672 13.4744C89.3416 13.7582 89.4322 14.0856 89.4285 14.4188C89.4167 14.7554 89.3249 15.0843 89.1607 15.3783C88.9964 15.6723 88.7645 15.9229 88.484 16.1094C87.8945 16.5265 87.1882 16.7469 86.466 16.739C85.4417 16.6888 84.4615 16.3064 83.6736 15.6497C83.6144 15.601 83.5653 15.5411 83.5293 15.4734C83.4932 15.4057 83.4709 15.3316 83.4636 15.2552C83.4563 15.1789 83.4641 15.1019 83.4866 15.0286C83.5092 14.9552 83.546 14.8871 83.5949 14.8281Z" fill="#EBEBEB"/>
<path d="M90.7568 14.8281C90.8525 14.7129 90.9898 14.6401 91.1388 14.6254C91.2879 14.6106 91.4368 14.6552 91.5532 14.7494C92.1385 15.248 92.8699 15.543 93.6373 15.5899C94.1223 15.599 94.5983 15.4583 95.0005 15.187C95.1363 15.1041 95.25 14.9894 95.3317 14.8529C95.4134 14.7163 95.4607 14.562 95.4695 14.4031C95.472 14.2796 95.4381 14.158 95.3719 14.0536C95.2919 13.9265 95.1843 13.8189 95.0571 13.7388C94.5942 13.4779 94.0874 13.304 93.5618 13.2257H93.5177C93.0328 13.1429 92.5601 13.0001 92.1105 12.8007C91.6981 12.6203 91.3462 12.3253 91.0967 11.9507C90.931 11.6822 90.8447 11.3722 90.848 11.0566C90.8583 10.7413 90.9426 10.4328 91.0941 10.1561C91.2456 9.87941 91.46 9.64219 91.7201 9.46364C92.2733 9.07704 92.9341 8.87438 93.609 8.88439C94.6542 8.88439 95.4286 9.39753 95.9858 9.75642C96.1079 9.83955 96.1924 9.96727 96.2213 10.1121C96.2501 10.2569 96.221 10.4073 96.1401 10.5309C96.1011 10.5937 96.0498 10.648 95.9893 10.6905C95.9287 10.733 95.8602 10.7628 95.7878 10.7781C95.7155 10.7934 95.6407 10.7939 95.5682 10.7796C95.4956 10.7652 95.4267 10.7363 95.3656 10.6946C94.8084 10.3262 94.2732 9.99883 93.609 9.99883C93.1733 9.9909 92.7461 10.1197 92.3875 10.3672C92.2679 10.4402 92.1677 10.5411 92.0954 10.6611C92.0231 10.7811 91.9807 10.9168 91.9719 11.0566C91.9639 11.1673 91.9915 11.2776 92.0506 11.3714C92.1288 11.4841 92.2283 11.5803 92.3434 11.6548C92.766 11.8943 93.2311 12.0494 93.7129 12.1112H93.7349C94.2535 12.202 94.7589 12.3563 95.2397 12.5709C95.6817 12.7617 96.0597 13.0753 96.329 13.4744C96.5044 13.758 96.596 14.0854 96.5934 14.4188C96.5817 14.7554 96.4899 15.0843 96.3256 15.3783C96.1614 15.6723 95.9294 15.9229 95.649 16.1094C95.0594 16.5266 94.3532 16.7469 93.631 16.739C92.6066 16.6888 91.6264 16.3065 90.8386 15.6498C90.7791 15.6013 90.7298 15.5416 90.6935 15.474C90.6571 15.4064 90.6345 15.3323 90.6269 15.2559C90.6193 15.1796 90.6268 15.1025 90.6491 15.0291C90.6714 14.9556 90.708 14.8873 90.7568 14.8281Z" fill="#EBEBEB"/>
<path d="M72.501 3.12649C72.501 3.256 72.4626 3.38261 72.3907 3.49029C72.3187 3.59797 72.2165 3.6819 72.0968 3.73146C71.9772 3.78103 71.8455 3.79399 71.7185 3.76873C71.5915 3.74346 71.4748 3.6811 71.3832 3.58952C71.2916 3.49794 71.2293 3.38126 71.204 3.25424C71.1787 3.12722 71.1917 2.99556 71.2413 2.87591C71.2908 2.75626 71.3747 2.65399 71.4824 2.58204C71.5901 2.51008 71.7167 2.47168 71.8462 2.47168C72.0196 2.47251 72.1857 2.54176 72.3083 2.66438C72.431 2.78701 72.5002 2.95308 72.501 3.12649Z" fill="#C7C7C7"/>
<path d="M75.1768 3.12649C75.1768 3.256 75.1384 3.38261 75.0665 3.49029C74.9945 3.59797 74.8922 3.6819 74.7726 3.73146C74.6529 3.78103 74.5213 3.79399 74.3943 3.76873C74.2672 3.74346 74.1506 3.6811 74.059 3.58952C73.9674 3.49794 73.905 3.38126 73.8798 3.25424C73.8545 3.12722 73.8675 2.99556 73.917 2.87591C73.9666 2.75626 74.0505 2.65399 74.1582 2.58204C74.2659 2.51008 74.3925 2.47168 74.522 2.47168C74.6954 2.47251 74.8615 2.54176 74.9841 2.66438C75.1067 2.78701 75.176 2.95308 75.1768 3.12649Z" fill="white"/>
<path d="M77.8526 3.12649C77.8526 3.256 77.8142 3.38261 77.7422 3.49029C77.6703 3.59797 77.568 3.6819 77.4484 3.73146C77.3287 3.78103 77.1971 3.79399 77.07 3.76873C76.943 3.74346 76.8263 3.6811 76.7348 3.58952C76.6432 3.49794 76.5808 3.38126 76.5556 3.25424C76.5303 3.12722 76.5433 2.99556 76.5928 2.87591C76.6424 2.75626 76.7263 2.65399 76.834 2.58204C76.9417 2.51008 77.0683 2.47168 77.1978 2.47168C77.3712 2.47251 77.5373 2.54176 77.6599 2.66438C77.7825 2.78701 77.8518 2.95308 77.8526 3.12649Z" fill="#455A64"/>
<path d="M199.352 74.0039H166.895V94.7093H199.352V74.0039Z" fill="white"/>
<path d="M199.557 94.9075H166.69V73.8149H199.557V94.9075ZM167.103 94.4983H199.148V74.2085H167.103V94.4983Z" fill="#EBEBEB"/>
<path d="M199.352 74.0039H166.895V77.9202H199.352V74.0039Z" fill="#34A1D3"/>
<path d="M199.557 78.1248H166.69V73.8149H199.557V78.1248ZM167.103 77.7155H199.148V74.2085H167.103V77.7155Z" fill="#EBEBEB"/>
<path d="M172.955 85.6614C172.976 84.616 173.405 83.6204 174.151 82.887C174.896 82.1535 175.898 81.7404 176.944 81.7357C177.854 81.7309 178.741 82.03 179.462 82.5856C179.579 82.692 179.652 82.8383 179.666 82.9957C179.68 83.153 179.634 83.3099 179.538 83.4351C179.441 83.5603 179.301 83.6448 179.146 83.6717C178.99 83.6986 178.83 83.6661 178.697 83.5805C178.201 83.1797 177.579 82.9668 176.941 82.9792C176.211 82.9836 175.511 83.2637 174.979 83.7631C174.476 84.2634 174.189 84.9421 174.183 85.6519C174.184 86.0039 174.255 86.3521 174.391 86.6764C174.528 87.0007 174.728 87.2945 174.979 87.5408C175.511 88.0402 176.211 88.3202 176.941 88.3247C177.578 88.3361 178.199 88.1245 178.697 87.7266C178.832 87.636 178.995 87.5981 179.156 87.6202C179.317 87.6422 179.464 87.7227 179.569 87.8462C179.669 87.9768 179.713 88.1411 179.693 88.304C179.673 88.4669 179.59 88.6155 179.462 88.7182C178.741 89.2739 177.854 89.573 176.944 89.5682C175.9 89.5685 174.898 89.1595 174.152 88.4291C173.406 87.6987 172.976 86.705 172.955 85.6614Z" fill="#EBEBEB"/>
<path d="M183.414 86.3477H181.865C181.786 86.3481 181.708 86.333 181.635 86.303C181.563 86.2731 181.497 86.2291 181.441 86.1735C181.385 86.1178 181.341 86.0517 181.311 85.979C181.281 85.9062 181.266 85.8282 181.267 85.7496C181.267 85.5909 181.331 85.4389 181.443 85.3264C181.554 85.2139 181.706 85.1499 181.865 85.1483H183.414V83.634C183.414 83.467 183.48 83.3069 183.598 83.1888C183.716 83.0707 183.876 83.0044 184.043 83.0044C184.21 83.0044 184.37 83.0707 184.489 83.1888C184.607 83.3069 184.673 83.467 184.673 83.634V85.1483H186.222C186.38 85.1499 186.532 85.2139 186.644 85.3264C186.756 85.4389 186.819 85.5909 186.82 85.7496C186.82 85.8282 186.805 85.9062 186.775 85.979C186.745 86.0517 186.701 86.1178 186.646 86.1735C186.59 86.2291 186.524 86.2731 186.451 86.303C186.378 86.333 186.3 86.3481 186.222 86.3477H184.657V87.8651C184.657 88.0321 184.591 88.1923 184.473 88.3104C184.355 88.4284 184.195 88.4948 184.028 88.4948C183.861 88.4948 183.7 88.4284 183.582 88.3104C183.464 88.1923 183.398 88.0321 183.398 87.8651L183.414 86.3477Z" fill="#EBEBEB"/>
<path d="M190.166 86.3477H188.617C188.538 86.3481 188.46 86.333 188.387 86.3031C188.314 86.2732 188.248 86.2292 188.192 86.1737C188.136 86.1181 188.092 86.052 188.061 85.9792C188.031 85.9064 188.016 85.8284 188.016 85.7496C188.017 85.5906 188.081 85.4386 188.194 85.3262C188.306 85.2138 188.458 85.1499 188.617 85.1483H190.166V83.634C190.166 83.467 190.232 83.3069 190.35 83.1888C190.468 83.0707 190.628 83.0044 190.795 83.0044C190.962 83.0044 191.123 83.0707 191.241 83.1888C191.359 83.3069 191.425 83.467 191.425 83.634V85.1483H192.974C193.133 85.1499 193.285 85.2138 193.397 85.3262C193.51 85.4386 193.574 85.5906 193.575 85.7496C193.575 85.8284 193.56 85.9064 193.529 85.9792C193.499 86.052 193.455 86.1181 193.399 86.1737C193.343 86.2292 193.277 86.2732 193.204 86.3031C193.131 86.333 193.053 86.3481 192.974 86.3477H191.425V87.8651C191.425 88.0321 191.359 88.1923 191.241 88.3104C191.123 88.4284 190.962 88.4948 190.795 88.4948C190.712 88.4974 190.629 88.4829 190.551 88.4522C190.474 88.4215 190.403 88.3752 190.344 88.3162C190.285 88.2572 190.239 88.1867 190.208 88.1092C190.178 88.0316 190.163 87.9485 190.166 87.8651V86.3477Z" fill="#EBEBEB"/>
<path d="M169.911 75.9903C169.911 76.1198 169.873 76.2464 169.801 76.3541C169.729 76.4617 169.627 76.5457 169.507 76.5952C169.387 76.6448 169.256 76.6578 169.129 76.6325C169.002 76.6072 168.885 76.5449 168.793 76.4533C168.702 76.3617 168.639 76.245 168.614 76.118C168.589 75.991 168.602 75.8593 168.651 75.7397C168.701 75.62 168.785 75.5178 168.893 75.4458C169 75.3739 169.127 75.3354 169.256 75.3354C169.43 75.3354 169.597 75.4044 169.719 75.5272C169.842 75.65 169.911 75.8166 169.911 75.9903Z" fill="#C7C7C7"/>
<path d="M172.587 75.9903C172.587 76.1198 172.549 76.2464 172.477 76.3541C172.405 76.4617 172.302 76.5457 172.183 76.5952C172.063 76.6448 171.931 76.6578 171.804 76.6325C171.677 76.6072 171.561 76.5449 171.469 76.4533C171.378 76.3617 171.315 76.245 171.29 76.118C171.265 75.991 171.278 75.8593 171.327 75.7397C171.377 75.62 171.461 75.5178 171.568 75.4458C171.676 75.3739 171.803 75.3354 171.932 75.3354C172.106 75.3354 172.272 75.4044 172.395 75.5272C172.518 75.65 172.587 75.8166 172.587 75.9903Z" fill="white"/>
<path d="M175.263 75.9903C175.264 76.1205 175.226 76.2481 175.154 76.3567C175.082 76.4653 174.979 76.5501 174.859 76.6004C174.739 76.6507 174.607 76.6641 174.479 76.6391C174.351 76.6141 174.233 76.5517 174.141 76.4598C174.049 76.3679 173.986 76.2507 173.96 76.1229C173.934 75.9952 173.947 75.8628 173.997 75.7424C174.047 75.6219 174.131 75.519 174.239 75.4466C174.348 75.3741 174.475 75.3355 174.605 75.3354C174.779 75.3354 174.946 75.4043 175.069 75.527C175.193 75.6498 175.262 75.8163 175.263 75.9903Z" fill="#455A64"/>
<path d="M96.7696 100.731H74.6602V108.917H96.7696V100.731Z" fill="#455A64"/>
<path d="M77.8496 106.524V102.891C77.8492 102.846 77.8577 102.802 77.8747 102.761C77.8917 102.72 77.9167 102.682 77.9484 102.651C77.9801 102.619 78.0178 102.595 78.0592 102.578C78.1007 102.562 78.145 102.553 78.1896 102.554C78.2343 102.554 78.2786 102.562 78.32 102.579C78.3614 102.596 78.3991 102.62 78.431 102.652C78.4628 102.683 78.4882 102.72 78.5057 102.761C78.5232 102.802 78.5324 102.846 78.5328 102.891V104.371H80.1257V102.891C80.1253 102.846 80.1338 102.802 80.1508 102.761C80.1678 102.72 80.1929 102.682 80.2246 102.651C80.2563 102.619 80.2939 102.595 80.3354 102.578C80.3768 102.562 80.4211 102.553 80.4657 102.554C80.5104 102.554 80.5547 102.562 80.5961 102.579C80.6375 102.596 80.6752 102.62 80.7071 102.652C80.7389 102.683 80.7643 102.72 80.7818 102.761C80.7993 102.802 80.8085 102.846 80.8089 102.891V106.524C80.8085 106.569 80.7993 106.613 80.7818 106.654C80.7643 106.695 80.7389 106.732 80.7071 106.764C80.6752 106.795 80.6375 106.82 80.5961 106.836C80.5547 106.853 80.5104 106.861 80.4657 106.861C80.4211 106.862 80.3768 106.854 80.3354 106.837C80.2939 106.82 80.2563 106.796 80.2246 106.764C80.1929 106.733 80.1678 106.695 80.1508 106.654C80.1338 106.613 80.1253 106.569 80.1257 106.524V105.048H78.5328V106.524C78.5324 106.569 78.5232 106.613 78.5057 106.654C78.4882 106.695 78.4628 106.732 78.431 106.764C78.3991 106.795 78.3614 106.82 78.32 106.836C78.2786 106.853 78.2343 106.861 78.1896 106.861C78.145 106.862 78.1007 106.854 78.0592 106.837C78.0178 106.82 77.9801 106.796 77.9484 106.764C77.9167 106.733 77.8917 106.695 77.8747 106.654C77.8577 106.613 77.8492 106.569 77.8496 106.524Z" fill="white"/>
<path d="M84.8476 103.237H83.8686V106.524C83.8604 106.608 83.8213 106.686 83.7587 106.743C83.6961 106.8 83.6146 106.831 83.5301 106.831C83.4456 106.831 83.3641 106.8 83.3016 106.743C83.239 106.686 83.1998 106.608 83.1917 106.524V103.237H82.2189C82.1739 103.237 82.1293 103.228 82.0878 103.21C82.0464 103.192 82.0088 103.167 81.9772 103.135C81.9456 103.103 81.9207 103.064 81.9038 103.023C81.887 102.981 81.8785 102.936 81.8789 102.891C81.8785 102.846 81.887 102.802 81.904 102.761C81.921 102.72 81.946 102.682 81.9777 102.651C82.0094 102.619 82.0471 102.595 82.0885 102.578C82.13 102.562 82.1743 102.553 82.2189 102.554H84.8476C84.937 102.554 85.0226 102.59 85.0858 102.653C85.149 102.716 85.1845 102.802 85.1845 102.891C85.1845 102.981 85.1493 103.068 85.0864 103.133C85.0235 103.197 84.9378 103.235 84.8476 103.237Z" fill="white"/>
<path d="M89.9035 102.891V106.524C89.9011 106.614 89.8639 106.699 89.7999 106.762C89.7359 106.825 89.65 106.86 89.5604 106.861C89.5158 106.862 89.4717 106.853 89.4305 106.836C89.3892 106.82 89.3517 106.795 89.3201 106.764C89.2885 106.732 89.2634 106.695 89.2463 106.654C89.2292 106.613 89.2204 106.569 89.2204 106.524V103.933L88.3357 105.164C88.304 105.208 88.2623 105.244 88.2142 105.268C88.166 105.293 88.1128 105.306 88.0587 105.306C88.0037 105.306 87.9494 105.293 87.9002 105.269C87.851 105.244 87.8083 105.208 87.7754 105.164L86.897 103.933V106.524C86.8954 106.615 86.858 106.701 86.7932 106.764C86.7283 106.827 86.6412 106.862 86.5507 106.861C86.4616 106.86 86.3764 106.825 86.3134 106.762C86.2504 106.699 86.2147 106.613 86.2139 106.524V102.891C86.2147 102.802 86.2504 102.717 86.3134 102.654C86.3764 102.591 86.4616 102.555 86.5507 102.554H86.5696C86.6227 102.555 86.6748 102.569 86.7218 102.593C86.7688 102.618 86.8094 102.653 86.8404 102.696L88.065 104.393L89.2896 102.696C89.3214 102.652 89.363 102.617 89.4111 102.592C89.4593 102.567 89.5126 102.555 89.5667 102.554C89.655 102.558 89.7389 102.594 89.8014 102.657C89.8639 102.719 89.9004 102.803 89.9035 102.891Z" fill="white"/>
<path d="M91.3926 106.524V102.891C91.4007 102.806 91.4403 102.727 91.5034 102.67C91.5666 102.613 91.6488 102.581 91.7341 102.581C91.8195 102.581 91.9017 102.613 91.9649 102.67C92.0281 102.727 92.0676 102.806 92.0757 102.891V106.178H93.7442C93.8292 106.186 93.908 106.225 93.9654 106.289C94.0228 106.352 94.0546 106.434 94.0546 106.519C94.0546 106.605 94.0228 106.687 93.9654 106.75C93.908 106.813 93.8292 106.853 93.7442 106.861H91.7326C91.6881 106.861 91.6439 106.853 91.6027 106.836C91.5615 106.819 91.524 106.795 91.4924 106.763C91.4607 106.732 91.4356 106.695 91.4185 106.654C91.4014 106.613 91.3926 106.569 91.3926 106.524Z" fill="white"/>
<path d="M23.3299 33.0559H5.1084V41.2411H23.3299V33.0559Z" fill="#455A64"/>
<path d="M10.5293 37.5135H9.7769V38.8483C9.76873 38.9333 9.72922 39.0121 9.66607 39.0695C9.60291 39.1269 9.52065 39.1587 9.43532 39.1587C9.35 39.1587 9.26773 39.1269 9.20458 39.0695C9.14143 39.0121 9.10191 38.9333 9.09375 38.8483V35.2154C9.09375 35.1709 9.10256 35.1268 9.11969 35.0857C9.13681 35.0447 9.16191 35.0074 9.19352 34.9761C9.22513 34.9447 9.26264 34.92 9.30388 34.9033C9.34511 34.8865 9.38925 34.8781 9.43375 34.8785H10.5356C10.714 34.8698 10.8924 34.8974 11.0598 34.9597C11.2273 35.022 11.3803 35.1176 11.5097 35.2408C11.6391 35.364 11.7421 35.5122 11.8124 35.6764C11.8828 35.8406 11.9191 36.0174 11.9191 36.196C11.9191 36.3747 11.8828 36.5515 11.8124 36.7157C11.7421 36.8799 11.6391 37.0281 11.5097 37.1513C11.3803 37.2745 11.2273 37.3701 11.0598 37.4324C10.8924 37.4946 10.714 37.5223 10.5356 37.5135H10.5293ZM9.7769 36.8304H10.5356C10.7026 36.8304 10.8627 36.764 10.9808 36.646C11.0989 36.5279 11.1652 36.3677 11.1652 36.2007C11.1652 36.0338 11.0989 35.8736 10.9808 35.7555C10.8627 35.6375 10.7026 35.5711 10.5356 35.5711H9.7769V36.8304Z" fill="white"/>
<path d="M12.6768 38.8485V35.2156C12.6763 35.1709 12.6849 35.1267 12.7018 35.0854C12.7188 35.0442 12.7439 35.0067 12.7756 34.9753C12.8073 34.9439 12.845 34.9192 12.8864 34.9026C12.9278 34.886 12.9722 34.8779 13.0168 34.8787C13.0614 34.8783 13.1057 34.8867 13.1471 34.9034C13.1885 34.9201 13.2263 34.9448 13.2581 34.9761C13.29 35.0074 13.3154 35.0446 13.3328 35.0857C13.3503 35.1268 13.3595 35.1709 13.3599 35.2156V36.6952H14.9529V35.2156C14.9525 35.1709 14.961 35.1267 14.978 35.0854C14.9949 35.0442 15.02 35.0067 15.0517 34.9753C15.0834 34.9439 15.1211 34.9192 15.1625 34.9026C15.2039 34.886 15.2483 34.8779 15.2929 34.8787C15.3375 34.8783 15.3818 34.8867 15.4232 34.9034C15.4646 34.9201 15.5024 34.9448 15.5342 34.9761C15.5661 35.0074 15.5915 35.0446 15.609 35.0857C15.6264 35.1268 15.6356 35.1709 15.636 35.2156V38.8485C15.6356 38.8932 15.6264 38.9373 15.609 38.9784C15.5915 39.0195 15.5661 39.0568 15.5342 39.088C15.5024 39.1193 15.4646 39.144 15.4232 39.1607C15.3818 39.1774 15.3375 39.1858 15.2929 39.1854C15.2483 39.1862 15.2039 39.1781 15.1625 39.1615C15.1211 39.1449 15.0834 39.1202 15.0517 39.0888C15.02 39.0574 14.9949 39.0199 14.978 38.9787C14.961 38.9374 14.9525 38.8932 14.9529 38.8485V37.3721H13.3599V38.8485C13.3595 38.8932 13.3503 38.9373 13.3328 38.9784C13.3154 39.0195 13.29 39.0568 13.2581 39.088C13.2263 39.1193 13.1885 39.144 13.1471 39.1607C13.1057 39.1774 13.0614 39.1858 13.0168 39.1854C12.9722 39.1862 12.9278 39.1781 12.8864 39.1615C12.845 39.1449 12.8073 39.1202 12.7756 39.0888C12.7439 39.0574 12.7188 39.0199 12.7018 38.9787C12.6849 38.9374 12.6763 38.8932 12.6768 38.8485Z" fill="white"/>
<path d="M18.4787 37.5135H17.7232V38.8483C17.715 38.9333 17.6755 39.0121 17.6124 39.0695C17.5492 39.1269 17.4669 39.1587 17.3816 39.1587C17.2963 39.1587 17.214 39.1269 17.1509 39.0695C17.0877 39.0121 17.0482 38.9333 17.04 38.8483V35.2154C17.04 35.126 17.0755 35.0404 17.1387 34.9772C17.2019 34.914 17.2876 34.8785 17.3769 34.8785H18.4787C18.6572 34.8698 18.8355 34.8974 19.003 34.9597C19.1704 35.022 19.3235 35.1176 19.4528 35.2408C19.5822 35.364 19.6852 35.5122 19.7556 35.6764C19.826 35.8406 19.8622 36.0174 19.8622 36.196C19.8622 36.3747 19.826 36.5515 19.7556 36.7157C19.6852 36.8799 19.5822 37.0281 19.4528 37.1513C19.3235 37.2745 19.1704 37.3701 19.003 37.4324C18.8355 37.4946 18.6572 37.5223 18.4787 37.5135ZM17.7232 36.8304H18.4787C18.6457 36.8304 18.8059 36.764 18.924 36.646C19.042 36.5279 19.1084 36.3677 19.1084 36.2007C19.1084 36.0338 19.042 35.8736 18.924 35.7555C18.8059 35.6375 18.6457 35.5711 18.4787 35.5711H17.7232V36.8304Z" fill="white"/>
</g>
<defs>
<clipPath id="clip0_618_3114">
<rect width="204" height="128.444" fill="white" transform="translate(0.333008 0.777832)"/>
</clipPath>
</defs>
</svg>
