<svg width="157" height="129" viewBox="0 0 157 129" fill="none" xmlns="http://www.w3.org/2000/svg">
<g clip-path="url(#clip0_618_3246)">
<path d="M151.188 60.3231C134.015 30.5634 87.4343 41.1618 77.9215 26.6884C73.0488 19.2877 67.5983 10.6856 59.6921 6.21884C52.1558 1.94098 43.4181 0.440168 35.8008 1.00342C8.59767 3.01758 -2.93399 27.6438 2.29102 54.687C9.26709 90.76 40.8708 127.61 78.4148 127.867C98.0535 128.017 116.818 120.887 131.51 110.859L131.838 110.634C146.53 100.514 164.301 83.042 151.188 60.3231Z" fill="#34A1D3"/>
<path opacity="0.7" d="M151.188 60.3231C134.015 30.5634 87.4343 41.1618 77.9215 26.6884C73.0488 19.2877 67.5983 10.6856 59.6921 6.21884C52.1558 1.94098 43.4181 0.440168 35.8008 1.00342C8.59767 3.01758 -2.93399 27.6438 2.29102 54.687C9.26709 90.76 40.8708 127.61 78.4148 127.867C98.0535 128.017 116.818 120.887 131.51 110.859L131.838 110.634C146.53 100.514 164.301 83.042 151.188 60.3231Z" fill="white"/>
<path d="M17.8813 62.4868H15.9716C13.9224 62.4868 11.9572 63.3105 10.5082 64.7766C9.05916 66.2427 8.24512 68.2312 8.24512 70.3046V113.204C8.24512 115.278 9.05916 117.266 10.5082 118.732C11.9572 120.199 13.9224 121.022 15.9716 121.022H42.1707C44.2199 121.022 46.1851 120.199 47.6342 118.732C49.0832 117.266 49.8972 115.278 49.8972 113.204" stroke="#263238" stroke-width="0.393246" stroke-linecap="round" stroke-linejoin="round" stroke-dasharray="1.57 1.57"/>
<path d="M47.7622 22.0077V13.534C47.7622 12.2661 48.2593 11.0499 49.1444 10.1524C50.0295 9.25483 51.2303 8.74917 52.4834 8.74634H86.5534C87.8083 8.74634 89.0119 9.25075 89.8992 10.1486C90.7866 11.0465 91.2851 12.2642 91.2851 13.534" stroke="#263238" stroke-width="0.393246" stroke-linecap="round" stroke-linejoin="round" stroke-dasharray="1.57 1.57"/>
<path d="M142.024 33.3762V97.5654C142.024 99.6638 141.2 101.676 139.734 103.16C138.268 104.644 136.28 105.479 134.206 105.479H22.6238C20.55 105.479 18.5614 104.644 17.0953 103.16C15.6292 101.676 14.8057 99.6638 14.8057 97.5654V33.3762C14.8057 33.1873 14.8057 33.0197 14.8303 32.8201C14.9677 30.8233 15.8484 28.9535 17.2948 27.588C18.7411 26.2224 20.6456 25.4627 22.6238 25.4622H134.206C136.186 25.463 138.093 26.2247 139.539 27.5932C140.986 28.9617 141.865 30.835 141.999 32.8343C142.017 33.0054 142.024 33.1908 142.024 33.3762Z" fill="white" stroke="#263238" stroke-width="0.393246" stroke-linecap="round" stroke-linejoin="round"/>
<path d="M18.6108 35.7861H138.617V95.0808C138.617 97.0474 137.845 98.9334 136.47 100.324C135.096 101.715 133.232 102.496 131.289 102.496H25.9428C23.9991 102.496 22.1351 101.715 20.7608 100.324C19.3865 98.9334 18.6144 97.0474 18.6144 95.0808V35.7861H18.6108Z" fill="#263238"/>
<path opacity="0.2" d="M138.621 35.7861V95.0808C138.631 97.0364 137.873 98.916 136.514 100.307C135.155 101.697 133.306 102.484 131.373 102.496H25.8583C23.9256 102.484 22.0764 101.697 20.7173 100.307C19.3583 98.916 18.6006 97.0364 18.6109 95.0808V35.7861H138.621Z" fill="white"/>
<path d="M141.999 32.8345H14.8306C14.9679 30.8377 15.8486 28.9679 17.295 27.6024C18.7414 26.2368 20.6458 25.4771 22.624 25.4766H134.206C136.184 25.4771 138.089 26.2368 139.535 27.6024C140.981 28.9679 141.862 30.8377 141.999 32.8345Z" fill="#34A1D3" stroke="#263238" stroke-width="0.393246" stroke-miterlimit="10"/>
<path d="M30.4558 29.141C30.4558 29.4181 30.3746 29.689 30.2225 29.9193C30.0703 30.1497 29.8541 30.3293 29.6011 30.4353C29.348 30.5414 29.0696 30.5691 28.801 30.5151C28.5324 30.461 28.2857 30.3276 28.0921 30.1316C27.8984 29.9357 27.7666 29.6861 27.7131 29.4143C27.6597 29.1425 27.6871 28.8608 27.7919 28.6049C27.8967 28.3489 28.0742 28.13 28.3019 27.9761C28.5296 27.8222 28.7973 27.74 29.0712 27.74C29.4384 27.74 29.7906 27.8876 30.0503 28.1503C30.3099 28.4131 30.4558 28.7694 30.4558 29.141Z" fill="#263238"/>
<path d="M36.3113 29.141C36.3113 29.4181 36.2301 29.689 36.0779 29.9193C35.9258 30.1497 35.7095 30.3293 35.4565 30.4353C35.2035 30.5414 34.9251 30.5691 34.6565 30.5151C34.3879 30.461 34.1412 30.3276 33.9475 30.1316C33.7539 29.9357 33.622 29.6861 33.5686 29.4143C33.5152 29.1425 33.5426 28.8608 33.6474 28.6049C33.7522 28.3489 33.9297 28.13 34.1574 27.9761C34.3851 27.8222 34.6528 27.74 34.9266 27.74C35.2939 27.74 35.6461 27.8876 35.9057 28.1503C36.1654 28.4131 36.3113 28.7694 36.3113 29.141Z" fill="#263238"/>
<path d="M40.7826 30.542C41.5473 30.542 42.1672 29.9147 42.1672 29.141C42.1672 28.3672 41.5473 27.74 40.7826 27.74C40.0179 27.74 39.3979 28.3672 39.3979 29.141C39.3979 29.9147 40.0179 30.542 40.7826 30.542Z" fill="#263238"/>
<path d="M138.617 35.7861V95.0808C138.617 97.0474 137.845 98.9334 136.471 100.324C135.096 101.715 133.232 102.496 131.289 102.496H25.9429C24.2466 102.495 22.6029 101.9 21.2922 100.81C19.9815 99.7206 19.0849 98.2047 18.7555 96.521V96.4996C18.6659 96.0297 18.6211 95.5522 18.6216 95.0737V35.7861H138.617Z" stroke="#263238" stroke-width="0.393246" stroke-miterlimit="10"/>
<path d="M138.504 44.9549C137.991 44.663 137.444 44.4344 136.877 44.274L136.218 41.2974H133.42L132.768 44.274C132.198 44.4315 131.649 44.6603 131.134 44.9549L128.607 43.3187L126.631 45.3114L128.22 47.8674C127.929 48.3886 127.703 48.9442 127.547 49.5215L124.605 50.181V53.0116L127.547 53.6782C127.701 54.2584 127.927 54.8166 128.22 55.3394L126.603 57.9133L128.583 59.9132L131.123 58.2769C131.637 58.5721 132.185 58.8019 132.754 58.9613L133.41 61.9345H136.197L136.852 58.9613C137.42 58.8004 137.966 58.5705 138.48 58.2769L138.61 58.3624V44.8836L138.504 44.9549ZM134.826 55.2931C134.111 55.2931 133.412 55.0785 132.817 54.6764C132.223 54.2744 131.759 53.7029 131.486 53.0344C131.212 52.3658 131.141 51.6302 131.281 50.9207C131.421 50.2111 131.765 49.5593 132.271 49.048C132.777 48.5366 133.421 48.1885 134.123 48.0478C134.824 47.9071 135.551 47.98 136.212 48.2574C136.872 48.5348 137.437 49.0041 137.833 49.6061C138.23 50.208 138.442 50.9155 138.441 51.6391C138.441 52.1192 138.347 52.5947 138.166 53.0382C137.984 53.4818 137.718 53.8848 137.382 54.2241C137.046 54.5635 136.648 54.8325 136.209 55.016C135.771 55.1994 135.301 55.2936 134.826 55.2931Z" fill="#263238"/>
<path d="M88.0863 47.8247V41.8571L81.8854 40.4633C81.5507 39.2509 81.0778 38.0821 80.4761 36.9804L81.2265 35.7861H51.9482L52.6704 36.9483C52.0613 38.0451 51.588 39.2137 51.2611 40.4276L45.0566 41.825V47.8069L51.2611 49.2079C51.588 50.4309 52.0613 51.6089 52.6704 52.7158L49.2634 58.1379L53.4385 62.3588L58.7939 58.908C59.8803 59.5263 61.0359 60.011 62.2361 60.3517L63.6172 66.6081H69.5011L70.8892 60.3375C72.0855 59.9951 73.2374 59.5105 74.3209 58.8937L79.6798 62.3445L83.8513 58.1237L80.4655 52.7015C81.0657 51.6015 81.5386 50.4353 81.8748 49.2257L88.0863 47.8247ZM66.5944 52.5518C65.0871 52.5518 63.6137 52.0995 62.3605 51.2523C61.1072 50.405 60.1305 49.2007 59.5537 47.7917C58.9769 46.3828 58.8259 44.8324 59.12 43.3366C59.414 41.8409 60.1398 40.4669 61.2056 39.3885C62.2714 38.3102 63.6293 37.5758 65.1076 37.2783C66.5859 36.9807 68.1182 37.1334 69.5107 37.717C70.9033 38.3007 72.0935 39.289 72.9309 40.557C73.7683 41.8251 74.2152 43.3159 74.2152 44.8409C74.2157 45.8537 74.0189 46.8566 73.6361 47.7923C73.2532 48.728 72.6919 49.5783 71.9842 50.2944C71.2764 51.0105 70.4361 51.5784 69.5113 51.9658C68.5865 52.3531 67.5953 52.5522 66.5944 52.5518Z" fill="#263238"/>
<path d="M48.9532 88.803L49.2034 84.0653L44.3518 82.6821C44.1266 81.7085 43.7933 80.7637 43.3583 79.8659L46.2896 75.7021L43.1469 72.1764L38.7569 74.6718C37.9178 74.1377 37.0204 73.7034 36.0827 73.3778L35.2442 68.3442L30.5653 68.1267L29.2124 73.0498C28.2484 73.2685 27.3139 73.6036 26.429 74.048L22.3173 71.0856L18.8258 74.2619L21.3132 78.7073C20.7799 79.5526 20.3493 80.4599 20.0307 81.4095L18.6214 81.6447V88.0615L19.6502 88.3538C19.8636 89.3306 20.1937 90.2775 20.6332 91.1737L18.6108 94.0434L18.7447 96.4996V96.521L20.834 98.8631L25.2311 96.3499C26.0687 96.895 26.9691 97.3343 27.9123 97.6582L28.7367 102.492L28.7755 102.695L33.4544 102.945L33.5777 102.492L34.8073 98.0254C35.7756 97.806 36.7147 97.4709 37.6048 97.0272L41.7094 99.9861L45.1974 96.8133L42.7311 92.3643C43.2594 91.5201 43.6842 90.6139 43.996 89.6657L48.9532 88.803ZM36.5267 81.4059C35.7252 80.5039 34.6773 79.8627 33.5156 79.5633C32.3539 79.264 31.1305 79.32 30.0003 79.7243C28.8701 80.1286 27.8837 80.863 27.166 81.8346C26.4484 82.8061 26.0316 83.9712 25.9685 85.1825C25.9054 86.3938 26.1988 87.5968 26.8115 88.6393C27.4242 89.6818 28.3288 90.5171 29.4107 91.0394C30.4927 91.5616 31.7035 91.7475 32.8898 91.5734C34.0762 91.3994 35.1849 90.8732 36.0757 90.0614C37.265 88.9742 37.9802 87.4545 38.0647 85.835C38.1493 84.2155 37.5962 82.6281 36.5267 81.4202V81.4059Z" fill="#263238"/>
<path d="M86.377 81.7409C86.5581 81.0072 86.6539 80.2547 86.6624 79.4986L90.0271 77.7161L89.097 74.2617L85.2989 74.44C84.9143 73.7944 84.4567 73.1962 83.9354 72.6575L85.0593 68.9821L81.9941 67.1997L79.4292 70.0302C78.7054 69.8534 77.9645 69.7578 77.2201 69.745L75.4584 66.3406L72.0479 67.2781L72.2276 71.1246C71.5894 71.5138 70.9983 71.9768 70.466 72.5043L66.8299 71.3671L65.0683 74.4649L67.8869 77.0566C67.7047 77.7874 67.6112 78.5381 67.6086 79.2918L64.2368 81.0742L65.167 84.525L68.9721 84.3432C69.3492 84.9921 69.8049 85.5909 70.3286 86.1257L69.1976 89.7832L72.2663 91.5657L74.8172 88.7565C75.5419 88.9411 76.2861 89.0357 77.0333 89.0382L78.795 92.4462L82.2055 91.5086L82.054 88.2218L82.0293 87.6586C82.6764 87.2732 83.275 86.8099 83.8121 86.279L87.4446 87.4197L88.9455 84.7674L89.1992 84.3183L86.377 81.7409ZM78.3193 83.837C77.4447 84.0811 76.5182 84.0568 75.6572 83.7673C74.7962 83.4778 74.0396 82.9361 73.4834 82.211C72.9271 81.4858 72.5962 80.6098 72.5326 79.6941C72.4691 78.7784 72.6757 77.8642 73.1264 77.0675C73.577 76.2707 74.2514 75.6274 75.0639 75.219C75.8765 74.8106 76.7906 74.6556 77.6903 74.7735C78.59 74.8915 79.4349 75.2772 80.1177 75.8817C80.8005 76.4862 81.2905 77.2822 81.5255 78.1689C81.8387 79.3505 81.6775 80.6096 81.0768 81.6715C80.4762 82.7333 79.485 83.5117 78.3193 83.837Z" fill="#263238"/>
<path d="M125.387 87.8155L126.162 83.0742L121.42 81.1456C121.312 80.1351 121.084 79.1416 120.74 78.1868L124.154 74.3402L121.392 70.4189L116.685 72.4402C115.903 71.8063 115.049 71.2701 114.141 70.8431L113.866 65.6776L109.18 64.8933L107.26 69.6703C106.266 69.7885 105.288 70.0217 104.346 70.3654L100.534 66.911L96.676 69.7059L98.6772 74.465C98.1264 75.1606 97.6482 75.9121 97.2503 76.7073C97.1975 76.8178 97.1411 76.9284 97.0918 77.0389L91.9901 77.3241L91.2114 82.0582L91.9795 82.3719L95.9537 83.994C96.0622 84.9996 96.2905 85.9883 96.6337 86.9385L93.2126 90.81L95.9784 94.7314L100.682 92.6994C101.461 93.3389 102.314 93.88 103.222 94.3107L103.486 99.4513L108.169 100.236L110.086 95.4943C111.082 95.3841 112.062 95.1519 113.003 94.8027L116.808 98.257L120.684 95.4586L118.682 90.6959C119.32 89.9045 119.858 89.0364 120.285 88.1114L125.387 87.8155ZM112.245 87.6016C111.26 88.3173 110.086 88.721 108.874 88.7619C107.661 88.8027 106.464 88.4788 105.433 87.831C104.402 87.1833 103.585 86.2408 103.083 85.1229C102.582 84.0049 102.42 82.7617 102.617 81.5504C102.814 80.3391 103.362 79.2141 104.191 78.3178C105.02 77.4215 106.093 76.7941 107.275 76.515C108.456 76.2358 109.693 76.3175 110.829 76.7496C111.964 77.1817 112.948 77.9448 113.655 78.9425C114.602 80.2808 114.984 81.945 114.719 83.5688C114.453 85.1927 113.561 86.6433 112.238 87.6016H112.245Z" fill="#263238"/>
<path d="M61.8838 52.7156H25.0375C22.4865 52.7156 20.4185 54.808 20.4185 57.3891V109.005C20.4185 111.586 22.4865 113.679 25.0375 113.679H61.8838C64.4348 113.679 66.5028 111.586 66.5028 109.005V57.3891C66.5028 54.808 64.4348 52.7156 61.8838 52.7156Z" fill="#34A1D3" stroke="#263238" stroke-width="0.393246" stroke-miterlimit="10"/>
<path opacity="0.2" d="M61.8838 52.7156H25.0375C22.4865 52.7156 20.4185 54.808 20.4185 57.3891V109.005C20.4185 111.586 22.4865 113.679 25.0375 113.679H61.8838C64.4348 113.679 66.5028 111.586 66.5028 109.005V57.3891C66.5028 54.808 64.4348 52.7156 61.8838 52.7156Z" fill="black"/>
<path d="M70.7908 61.9951V113.611C70.7913 114.225 70.6721 114.833 70.4402 115.401C70.2083 115.968 69.8681 116.484 69.4392 116.918C69.0102 117.352 68.5009 117.697 67.9402 117.932C67.3796 118.167 66.7787 118.288 66.1718 118.288H29.3254C28.7189 118.288 28.1183 118.166 27.5581 117.931C26.9979 117.696 26.4889 117.351 26.0603 116.917C25.6318 116.482 25.2919 115.967 25.0602 115.4C24.8285 114.833 24.7095 114.225 24.71 113.611V61.9951C24.71 60.7562 25.1961 59.568 26.0616 58.6916C26.9271 57.8153 28.101 57.3225 29.3254 57.3215H66.1718C67.3968 57.3215 68.5717 57.8139 69.4379 58.6904C70.3041 59.5668 70.7908 60.7556 70.7908 61.9951Z" fill="white" stroke="#263238" stroke-width="0.393246" stroke-linecap="round" stroke-linejoin="round"/>
<path d="M70.7908 61.9951V64.7579H24.71V61.9951C24.71 60.7562 25.1961 59.568 26.0616 58.6916C26.9271 57.8153 28.101 57.3225 29.3254 57.3215H66.1718C67.3968 57.3215 68.5717 57.8139 69.4379 58.6904C70.3041 59.5668 70.7908 60.7556 70.7908 61.9951Z" fill="#34A1D3" stroke="#263238" stroke-width="0.393246" stroke-miterlimit="10"/>
<path d="M40.3813 67.959H29.0435V69.884H40.3813V67.959Z" fill="#34A1D3"/>
<path d="M40.3813 85.2095H29.0435V87.1345H40.3813V85.2095Z" fill="#34A1D3"/>
<path d="M40.3813 100.852H29.0435V102.777H40.3813V100.852Z" fill="#34A1D3"/>
<path d="M61.2426 72.7253H29.0435V74.137H61.2426V72.7253Z" fill="#263238"/>
<path d="M55.4363 75.4241H29.0435V76.8001H55.4363V75.4241Z" fill="#263238"/>
<path d="M58.8926 78.0798H29.0435V79.4559H58.8926V78.0798Z" fill="#263238"/>
<path d="M58.8926 80.7319H29.0435V82.108H58.8926V80.7319Z" fill="#263238"/>
<path d="M61.2426 88.3682H29.0435V89.7799H61.2426V88.3682Z" fill="#263238"/>
<path d="M55.4363 91.0667H29.0435V92.4427H55.4363V91.0667Z" fill="#263238"/>
<path d="M58.8926 93.7224H29.0435V95.0985H58.8926V93.7224Z" fill="#263238"/>
<path d="M61.2426 105.544H29.0435V106.955H61.2426V105.544Z" fill="#263238"/>
<path d="M55.4363 108.246H29.0435V109.622H55.4363V108.246Z" fill="#263238"/>
<path d="M58.8926 110.902H29.0435V112.278H58.8926V110.902Z" fill="#263238"/>
<path d="M122.727 21.5301V42.3918C122.727 43.1238 122.585 43.8486 122.308 44.5249C122.031 45.2011 121.625 45.8155 121.113 46.333C120.601 46.8504 119.994 47.2607 119.325 47.5406C118.657 47.8204 117.94 47.9641 117.217 47.9637H69.7301C69.0066 47.9641 68.2902 47.8204 67.6216 47.5406C66.9531 47.2607 66.3456 46.8504 65.8339 46.333C65.3222 45.8155 64.9162 45.2011 64.6392 44.5249C64.3623 43.8486 64.2197 43.1238 64.2197 42.3918V21.5301C64.2207 20.0516 64.8015 18.634 65.8347 17.5886C66.8679 16.5433 68.269 15.9555 69.7301 15.9546H117.217C118.678 15.9546 120.08 16.542 121.113 17.5876C122.147 18.6332 122.727 20.0514 122.727 21.5301Z" fill="white" stroke="#222221" stroke-width="0.393246" stroke-miterlimit="10"/>
<path d="M122.727 21.5301V22.0078H64.2197V21.5301C64.2207 20.0516 64.8015 18.634 65.8347 17.5886C66.8679 16.5433 68.269 15.9555 69.7301 15.9546H117.217C118.678 15.9546 120.08 16.542 121.113 17.5876C122.147 18.6332 122.727 20.0514 122.727 21.5301Z" fill="#34A1D3" stroke="#263238" stroke-width="0.393246" stroke-miterlimit="10"/>
<path d="M72.8168 19.9794C72.6986 20.0992 72.5479 20.1809 72.3839 20.2141C72.2198 20.2473 72.0497 20.2304 71.895 20.1657C71.7404 20.1011 71.6082 19.9914 71.5152 19.8506C71.4222 19.7099 71.3726 19.5444 71.3726 19.3751C71.3726 19.2058 71.4222 19.0403 71.5152 18.8996C71.6082 18.7588 71.7404 18.6492 71.895 18.5845C72.0497 18.5198 72.2198 18.5029 72.3839 18.5361C72.5479 18.5693 72.6986 18.651 72.8168 18.7709C72.9741 18.9317 73.0623 19.1488 73.0623 19.3751C73.0623 19.6014 72.9741 19.8185 72.8168 19.9794Z" fill="#263238"/>
<path d="M76.7343 19.9794C76.6161 20.0992 76.4654 20.1809 76.3013 20.2141C76.1373 20.2473 75.9671 20.2304 75.8125 20.1657C75.6579 20.1011 75.5257 19.9914 75.4327 19.8506C75.3397 19.7099 75.29 19.5444 75.29 19.3751C75.29 19.2058 75.3397 19.0403 75.4327 18.8996C75.5257 18.7588 75.6579 18.6492 75.8125 18.5845C75.9671 18.5198 76.1373 18.5029 76.3013 18.5361C76.4654 18.5693 76.6161 18.651 76.7343 18.7709C76.8915 18.9317 76.9798 19.1488 76.9798 19.3751C76.9798 19.6014 76.8915 19.8185 76.7343 19.9794Z" fill="#263238"/>
<path d="M80.6522 19.9794C80.5341 20.0992 80.3834 20.1809 80.2193 20.2141C80.0552 20.2473 79.8851 20.2304 79.7305 20.1657C79.5758 20.1011 79.4437 19.9914 79.3507 19.8506C79.2577 19.7099 79.208 19.5444 79.208 19.3751C79.208 19.2058 79.2577 19.0403 79.3507 18.8996C79.4437 18.7588 79.5758 18.6492 79.7305 18.5845C79.8851 18.5198 80.0552 18.5029 80.2193 18.5361C80.3834 18.5693 80.5341 18.651 80.6522 18.7709C80.8095 18.9317 80.8977 19.1488 80.8977 19.3751C80.8977 19.6014 80.8095 19.8185 80.6522 19.9794Z" fill="#263238"/>
<path d="M87.075 25.8435H67.9507V42.5699H87.075V25.8435Z" stroke="#263238" stroke-width="0.393246" stroke-linecap="round" stroke-linejoin="round" stroke-dasharray="1.57 1.57"/>
<path d="M112.038 25.8435H90.0278V27.0199H112.038V25.8435Z" fill="#263238"/>
<path d="M106.911 28.2783H90.0278V29.4512H106.911V28.2783Z" fill="#263238"/>
<path d="M115.166 30.7026H90.0278V31.8897H115.166V30.7026Z" fill="#263238"/>
<path d="M111.435 33.0662H90.0278V34.2533H111.435V33.0662Z" fill="#263238"/>
<path d="M124.327 73.3064H113.563C112.293 73.3064 111.263 74.3486 111.263 75.6343V82.0261C111.263 83.3117 112.293 84.354 113.563 84.354H124.327C125.598 84.354 126.628 83.3117 126.628 82.0261V75.6343C126.628 74.3486 125.598 73.3064 124.327 73.3064Z" fill="white" stroke="#263238" stroke-width="0.393246" stroke-linecap="round" stroke-linejoin="round"/>
<path d="M116.22 76.6289L113.264 78.504L116.008 80.9638" stroke="#263238" stroke-width="0.393246" stroke-linecap="round" stroke-linejoin="round"/>
<path d="M121.603 81.1419L124.26 78.8533L121.194 76.8213" stroke="#263238" stroke-width="0.393246" stroke-linecap="round" stroke-linejoin="round"/>
<path d="M117.657 82.5539L119.838 75.6309" stroke="#263238" stroke-width="0.393246" stroke-linecap="round" stroke-linejoin="round"/>
</g>
<defs>
<clipPath id="clip0_618_3246">
<rect width="156" height="128" fill="white" transform="translate(0.333008 0.777832)"/>
</clipPath>
</defs>
</svg>
