<svg width="568" height="358" viewBox="0 0 568 358" fill="none" xmlns="http://www.w3.org/2000/svg">
<g clip-path="url(#clip0_618_1504)">
<path d="M0.762695 356.998L71.5699 356.788L142.386 356.709L284 356.56L425.623 356.709L496.43 356.779L567.238 356.998L496.43 357.208L425.623 357.287L284 357.436L142.386 357.287L71.5699 357.208L0.762695 356.998Z" fill="#263238"/>
<path d="M481.844 36.4639H86.1553V287.006H481.844V36.4639Z" fill="#263238"/>
<path d="M481.844 36.4639H86.1553V46.1058H481.844V36.4639Z" fill="#34A1D3"/>
<path d="M95.2271 41.2497C95.2411 41.6129 95.1462 41.9721 94.9545 42.281C94.7629 42.5899 94.4832 42.8344 94.1516 42.9832C93.8199 43.1321 93.4513 43.1783 93.0932 43.1161C92.735 43.0539 92.4036 42.886 92.1416 42.634C91.8795 42.3821 91.6988 42.0575 91.6226 41.7021C91.5463 41.3466 91.5781 40.9765 91.7138 40.6392C91.8495 40.302 92.0829 40.013 92.3841 39.8094C92.6852 39.6058 93.0404 39.4969 93.4039 39.4966C93.8755 39.4962 94.329 39.6787 94.6689 40.0056C95.0089 40.3325 95.209 40.7784 95.2271 41.2497Z" fill="#C7C7C7"/>
<path d="M102.678 41.2497C102.692 41.6129 102.597 41.9721 102.405 42.281C102.214 42.5899 101.934 42.8344 101.602 42.9832C101.271 43.1321 100.902 43.1783 100.544 43.1161C100.186 43.0539 99.8543 42.886 99.5922 42.634C99.3302 42.3821 99.1495 42.0575 99.0732 41.7021C98.997 41.3466 99.0288 40.9765 99.1645 40.6392C99.3002 40.302 99.5336 40.013 99.8347 39.8094C100.136 39.6058 100.491 39.4969 100.855 39.4966C101.326 39.4962 101.78 39.6787 102.12 40.0056C102.46 40.3325 102.66 40.7784 102.678 41.2497Z" fill="white"/>
<path d="M110.129 41.2497C110.143 41.6129 110.048 41.9721 109.856 42.281C109.665 42.5899 109.385 42.8344 109.053 42.9832C108.722 43.1321 108.353 43.1783 107.995 43.1161C107.637 43.0539 107.305 42.886 107.043 42.634C106.781 42.3821 106.601 42.0575 106.524 41.7021C106.448 41.3466 106.48 40.9765 106.616 40.6392C106.751 40.302 106.985 40.013 107.286 39.8094C107.587 39.6058 107.942 39.4969 108.306 39.4966C108.777 39.4962 109.231 39.6787 109.571 40.0056C109.911 40.3325 110.111 40.7784 110.129 41.2497Z" fill="#455A64"/>
<path d="M456.398 114.546H454.864V114.108H455.96V113.012H456.398V114.546Z" fill="#34A1D3"/>
<path d="M452.217 114.547H449.587V114.108H452.217V114.547ZM446.958 114.547H444.328V114.108H446.958V114.547ZM441.698 114.547H439.069V114.108H441.698V114.547ZM436.439 114.547H433.81V114.108H436.439V114.547ZM431.18 114.547H428.55V114.108H431.18V114.547ZM425.921 114.547H423.291V114.108H425.921V114.547ZM420.618 114.547H417.988V114.108H420.618V114.547ZM415.358 114.547H412.729V114.108H415.358V114.547ZM410.055 114.547H407.426V114.108H410.055V114.547ZM404.796 114.547H402.166V114.108H404.796V114.547ZM399.493 114.547H396.863V114.108H399.493V114.547ZM394.234 114.547H391.604V114.108H394.234V114.547ZM388.974 114.547H386.345V114.108H388.974V114.547ZM383.671 114.547H381.042V114.108H383.671V114.547ZM378.412 114.547H375.782V114.108H378.412V114.547ZM373.109 114.547H370.479V114.108H373.109V114.547ZM367.85 114.547H365.22V114.108H367.85V114.547ZM362.547 114.547H359.917V114.108H362.547V114.547ZM357.287 114.547H354.658V114.108H357.287V114.547ZM352.028 114.547H349.398V114.108H352.028V114.547ZM346.725 114.547H344.095V114.108H346.725V114.547ZM341.466 114.547H338.836V114.108H341.466V114.547ZM336.163 114.547H333.533V114.108H336.163V114.547ZM330.903 114.547H328.274V114.108H330.903V114.547ZM325.6 114.547H322.971V114.108H325.6V114.547ZM320.341 114.547H317.711V114.108H320.341V114.547ZM315.038 114.547H312.408V114.108H315.038V114.547ZM309.779 114.547H307.149V114.108H309.779V114.547ZM304.52 114.547H301.89V114.108H304.52V114.547ZM299.216 114.547H296.587V114.108H299.216V114.547ZM293.957 114.547H291.328V114.108H293.957V114.547ZM288.654 114.547H286.024V114.108H288.654V114.547ZM283.395 114.547H280.765V114.108H283.395V114.547ZM278.092 114.547H275.462V114.108H278.092V114.547ZM272.832 114.547H270.203V114.108H272.832V114.547ZM267.573 114.547H264.944V114.108H267.573V114.547ZM262.27 114.547H259.641V114.108H262.27V114.547ZM257.011 114.547H254.381V114.108H257.011V114.547ZM251.752 114.547H249.122V114.108H251.752V114.547ZM246.492 114.547H243.863V114.108H246.492V114.547ZM241.189 114.547H238.56V114.108H241.189V114.547ZM235.93 114.547H233.3V114.108H235.93V114.547ZM230.671 114.547H228.041V114.108H230.671V114.547ZM225.411 114.547H222.782V114.108H225.411V114.547ZM220.152 114.547H217.523V114.108H220.152V114.547ZM214.893 114.547H212.263V114.108H214.893V114.547ZM209.634 114.547H207.004V114.108H209.634V114.547ZM204.331 114.547H201.701V114.108H204.331V114.547ZM199.071 114.547H196.442V114.108H199.071V114.547ZM193.812 114.547H191.182V114.108H193.812V114.547ZM188.553 114.547H185.923V114.108H188.553V114.547ZM183.294 114.547H180.664V114.108H183.294V114.547ZM178.034 114.547H175.405V114.108H178.034V114.547ZM172.775 114.547H170.145V114.108H172.775V114.547ZM167.472 114.547H164.842V114.108H167.472V114.547ZM162.213 114.547H159.583V114.108H162.213V114.547ZM156.91 114.547H154.28V114.108H156.91V114.547ZM151.65 114.547H149.021V114.108H151.65V114.547ZM146.391 114.547H143.761V114.108H146.391V114.547ZM141.132 114.547H138.502V114.108H141.132V114.547ZM135.873 114.547H133.243V114.108H135.873V114.547ZM130.57 114.547H127.94V114.108H130.57V114.547ZM125.31 114.547H122.681V114.108H125.31V114.547ZM120.051 114.547H117.421V114.108H120.051V114.547Z" fill="#34A1D3"/>
<path d="M113.136 114.546H111.602V113.012H112.04V114.108H113.136V114.546Z" fill="#34A1D3"/>
<path d="M112.04 110.216H111.602V107.429H112.04V110.216ZM112.04 104.641H111.602V101.854H112.04V104.641ZM112.04 99.0575H111.602V96.2701H112.04V99.0575ZM112.04 93.4827H111.602V90.6953H112.04V93.4827Z" fill="#34A1D3"/>
<path d="M112.04 87.8992H111.602V86.3652H113.136V86.8035H112.04V87.8992Z" fill="#34A1D3"/>
<path d="M452.217 86.8299H449.587V86.3916H452.217V86.8299ZM446.957 86.8299H444.328V86.3916H446.957V86.8299ZM441.698 86.8299H439.069V86.3916H441.698V86.8299ZM436.439 86.8299H433.809V86.3916H436.439V86.8299ZM431.18 86.8299H428.55V86.3916H431.18V86.8299ZM425.92 86.8299H423.291V86.3916H425.92V86.8299ZM420.617 86.8299H417.988V86.3916H420.617V86.8299ZM415.358 86.8299H412.728V86.3916H415.358V86.8299ZM410.055 86.8299H407.425V86.3916H410.055V86.8299ZM404.796 86.8299H402.166V86.3916H404.796V86.8299ZM399.493 86.8299H396.863V86.3916H399.493V86.8299ZM394.233 86.8299H391.604V86.3916H394.233V86.8299ZM388.974 86.8299H386.344V86.3916H388.974V86.8299ZM383.671 86.8299H381.041V86.3916H383.671V86.8299ZM378.412 86.8299H375.782V86.3916H378.412V86.8299ZM373.109 86.8299H370.479V86.3916H373.109V86.8299ZM367.849 86.8299H365.22V86.3916H367.849V86.8299ZM362.546 86.8299H359.917V86.3916H362.546V86.8299ZM357.287 86.8299H354.657V86.3916H357.287V86.8299ZM352.028 86.8299H349.398V86.3916H352.028V86.8299ZM346.234 86.8299H343.604V86.3916H346.234V86.8299ZM340.975 86.8299H338.345V86.3916H340.975V86.8299ZM335.671 86.8299H333.042V86.3916H335.671V86.8299ZM330.412 86.8299H327.783V86.3916H330.412V86.8299ZM325.109 86.8299H322.479V86.3916H325.109V86.8299ZM319.85 86.8299H317.22V86.3916H319.85V86.8299ZM314.547 86.8299H311.917V86.3916H314.547V86.8299ZM309.288 86.8299H306.658V86.3916H309.288V86.8299ZM304.028 86.8299H301.399V86.3916H304.028V86.8299ZM298.725 86.8299H296.096V86.3916H298.725V86.8299ZM293.466 86.8299H290.836V86.3916H293.466V86.8299ZM288.163 86.8299H285.533V86.3916H288.163V86.8299ZM282.904 86.8299H280.274V86.3916H282.904V86.8299ZM277.6 86.8299H274.971V86.3916H277.6V86.8299ZM272.341 86.8299H269.712V86.3916H272.341V86.8299ZM267.082 86.8299H264.452V86.3916H267.082V86.8299ZM261.779 86.8299H259.149V86.3916H261.779V86.8299ZM256.52 86.8299H253.89V86.3916H256.52V86.8299ZM251.26 86.8299H248.631V86.3916H251.26V86.8299ZM246.001 86.8299H243.371V86.3916H246.001V86.8299ZM240.698 86.8299H238.068V86.3916H240.698V86.8299ZM235.439 86.8299H232.809V86.3916H235.439V86.8299ZM230.18 86.8299H227.55V86.3916H230.18V86.8299ZM224.394 86.8299H221.765V86.3916H224.394V86.8299ZM219.135 86.8299H216.505V86.3916H219.135V86.8299ZM213.876 86.8299H211.246V86.3916H213.876V86.8299ZM208.617 86.8299H205.987V86.3916H208.617V86.8299ZM203.313 86.8299H200.684V86.3916H203.313V86.8299ZM198.054 86.8299H195.425V86.3916H198.054V86.8299ZM192.795 86.8299H190.165V86.3916H192.795V86.8299ZM187.536 86.8299H184.906V86.3916H187.536V86.8299ZM182.276 86.8299H179.647V86.3916H182.276V86.8299ZM177.017 86.8299H174.388V86.3916H177.017V86.8299ZM171.758 86.8299H169.128V86.3916H171.758V86.8299ZM166.455 86.8299H163.825V86.3916H166.455V86.8299ZM161.196 86.8299H158.566V86.3916H161.196V86.8299ZM155.892 86.8299H153.263V86.3916H155.892V86.8299ZM150.633 86.8299H148.004V86.3916H150.633V86.8299ZM145.374 86.8299H142.744V86.3916H145.374V86.8299ZM140.071 86.8299H137.441V86.3916H140.071V86.8299ZM134.812 86.8299H132.182V86.3916H134.812V86.8299ZM129.509 86.8299H126.879V86.3916H129.509V86.8299ZM124.249 86.8299H121.62V86.3916H124.249V86.8299ZM118.99 86.8299H116.36V86.3916H118.99V86.8299Z" fill="#34A1D3"/>
<path d="M456.398 87.8992H455.96V86.8035H454.864V86.3652H456.398V87.8992Z" fill="#34A1D3"/>
<path d="M456.398 110.216H455.96V107.429H456.398V110.216ZM456.398 104.641H455.96V101.854H456.398V104.641ZM456.398 99.0575H455.96V96.2701H456.398V99.0575ZM456.398 93.4827H455.96V90.6953H456.398V93.4827Z" fill="#34A1D3"/>
<path d="M456.398 211.545H454.864V211.106H455.96V210.011H456.398V211.545Z" fill="#34A1D3"/>
<path d="M452.217 211.545H449.587V211.106H452.217V211.545ZM446.958 211.545H444.328V211.106H446.958V211.545ZM441.698 211.545H439.069V211.106H441.698V211.545ZM436.439 211.545H433.81V211.106H436.439V211.545ZM431.18 211.545H428.55V211.106H431.18V211.545ZM425.921 211.545H423.291V211.106H425.921V211.545ZM420.618 211.545H417.988V211.106H420.618V211.545ZM415.358 211.545H412.729V211.106H415.358V211.545ZM410.055 211.545H407.426V211.106H410.055V211.545ZM404.796 211.545H402.166V211.106H404.796V211.545ZM399.493 211.545H396.863V211.106H399.493V211.545ZM394.234 211.545H391.604V211.106H394.234V211.545ZM388.974 211.545H386.345V211.106H388.974V211.545ZM383.671 211.545H381.042V211.106H383.671V211.545ZM378.412 211.545H375.782V211.106H378.412V211.545ZM373.109 211.545H370.479V211.106H373.109V211.545ZM367.85 211.545H365.22V211.106H367.85V211.545ZM362.547 211.545H359.917V211.106H362.547V211.545ZM357.287 211.545H354.658V211.106H357.287V211.545ZM352.028 211.545H349.398V211.106H352.028V211.545ZM346.725 211.545H344.095V211.106H346.725V211.545ZM341.466 211.545H338.836V211.106H341.466V211.545ZM336.163 211.545H333.533V211.106H336.163V211.545ZM330.903 211.545H328.274V211.106H330.903V211.545ZM325.6 211.545H322.971V211.106H325.6V211.545ZM320.341 211.545H317.711V211.106H320.341V211.545ZM315.038 211.545H312.408V211.106H315.038V211.545ZM309.779 211.545H307.149V211.106H309.779V211.545ZM304.52 211.545H301.89V211.106H304.52V211.545ZM299.216 211.545H296.587V211.106H299.216V211.545ZM293.957 211.545H291.328V211.106H293.957V211.545ZM288.654 211.545H286.024V211.106H288.654V211.545ZM283.395 211.545H280.765V211.106H283.395V211.545ZM278.092 211.545H275.462V211.106H278.092V211.545ZM272.832 211.545H270.203V211.106H272.832V211.545ZM267.573 211.545H264.944V211.106H267.573V211.545ZM262.27 211.545H259.641V211.106H262.27V211.545ZM257.011 211.545H254.381V211.106H257.011V211.545ZM251.752 211.545H249.122V211.106H251.752V211.545ZM246.492 211.545H243.863V211.106H246.492V211.545ZM241.189 211.545H238.56V211.106H241.189V211.545ZM235.93 211.545H233.3V211.106H235.93V211.545ZM230.671 211.545H228.041V211.106H230.671V211.545ZM225.411 211.545H222.782V211.106H225.411V211.545ZM220.152 211.545H217.523V211.106H220.152V211.545ZM214.893 211.545H212.263V211.106H214.893V211.545ZM209.634 211.545H207.004V211.106H209.634V211.545ZM204.331 211.545H201.701V211.106H204.331V211.545ZM199.071 211.545H196.442V211.106H199.071V211.545ZM193.812 211.545H191.182V211.106H193.812V211.545ZM188.553 211.545H185.923V211.106H188.553V211.545ZM183.294 211.545H180.664V211.106H183.294V211.545ZM178.034 211.545H175.405V211.106H178.034V211.545ZM172.775 211.545H170.145V211.106H172.775V211.545ZM167.472 211.545H164.842V211.106H167.472V211.545ZM162.213 211.545H159.583V211.106H162.213V211.545ZM156.91 211.545H154.28V211.106H156.91V211.545ZM151.65 211.545H149.021V211.106H151.65V211.545ZM146.391 211.545H143.761V211.106H146.391V211.545ZM141.132 211.545H138.502V211.106H141.132V211.545ZM135.873 211.545H133.243V211.106H135.873V211.545ZM130.57 211.545H127.94V211.106H130.57V211.545ZM125.31 211.545H122.681V211.106H125.31V211.545ZM120.051 211.545H117.421V211.106H120.051V211.545Z" fill="#34A1D3"/>
<path d="M113.136 211.545H111.602V210.011H112.04V211.106H113.136V211.545Z" fill="#34A1D3"/>
<path d="M112.04 207.223H111.602V204.427H112.04V207.223ZM112.04 201.64H111.602V198.852H112.04V201.64ZM112.04 196.065H111.602V193.269H112.04V196.065ZM112.04 190.481H111.602V187.694H112.04V190.481Z" fill="#34A1D3"/>
<path d="M112.04 184.906H111.602V183.372H113.136V183.811H112.04V184.906Z" fill="#34A1D3"/>
<path d="M452.217 183.811H449.587V183.372H452.217V183.811ZM446.958 183.811H444.328V183.372H446.958V183.811ZM441.698 183.811H439.069V183.372H441.698V183.811ZM436.439 183.811H433.809V183.372H436.439V183.811ZM431.18 183.811H428.55V183.372H431.18V183.811ZM425.921 183.811H423.291V183.372H425.921V183.811ZM420.617 183.811H417.988V183.372H420.617V183.811ZM415.358 183.811H412.729V183.372H415.358V183.811ZM410.055 183.811H407.425V183.372H410.055V183.811ZM404.796 183.811H402.166V183.372H404.796V183.811ZM399.493 183.811H396.863V183.372H399.493V183.811ZM394.234 183.811H391.604V183.372H394.234V183.811ZM388.974 183.811H386.345V183.372H388.974V183.811ZM383.671 183.811H381.042V183.372H383.671V183.811ZM378.412 183.811H375.782V183.372H378.412V183.811ZM373.109 183.811H370.479V183.372H373.109V183.811ZM367.85 183.811H365.22V183.372H367.85V183.811ZM362.546 183.811H359.917V183.372H362.546V183.811ZM357.287 183.811H354.658V183.372H357.287V183.811ZM352.028 183.811H349.398V183.372H352.028V183.811ZM346.725 183.811H344.095V183.372H346.725V183.811ZM341.466 183.811H338.836V183.372H341.466V183.811ZM336.163 183.811H333.533V183.372H336.163V183.811ZM330.903 183.811H328.274V183.372H330.903V183.811ZM325.6 183.811H322.971V183.372H325.6V183.811ZM320.341 183.811H317.711V183.372H320.341V183.811ZM315.038 183.811H312.408V183.372H315.038V183.811ZM309.779 183.811H307.149V183.372H309.779V183.811ZM304.519 183.811H301.89V183.372H304.519V183.811ZM299.216 183.811H296.587V183.372H299.216V183.811ZM293.957 183.811H291.327V183.372H293.957V183.811ZM288.654 183.811H286.024V183.372H288.654V183.811ZM283.395 183.811H280.765V183.372H283.395V183.811ZM278.092 183.811H275.462V183.372H278.092V183.811ZM272.832 183.811H270.203V183.372H272.832V183.811ZM267.573 183.811H264.943V183.372H267.573V183.811ZM262.27 183.811H259.64V183.372H262.27V183.811ZM257.011 183.811H254.381V183.372H257.011V183.811ZM251.751 183.811H249.122V183.372H251.751V183.811ZM246.492 183.811H243.863V183.372H246.492V183.811ZM241.189 183.811H238.559V183.372H241.189V183.811ZM235.93 183.811H233.3V183.372H235.93V183.811ZM230.671 183.811H228.041V183.372H230.671V183.811ZM225.367 183.811H222.738V183.372H225.367V183.811ZM220.108 183.811H217.479V183.372H220.108V183.811ZM214.849 183.811H212.219V183.372H214.849V183.811ZM209.59 183.811H206.96V183.372H209.59V183.811ZM204.287 183.811H201.657V183.372H204.287V183.811ZM199.027 183.811H196.398V183.372H199.027V183.811ZM193.768 183.811H191.138V183.372H193.768V183.811ZM188.509 183.811H185.879V183.372H188.509V183.811ZM183.25 183.811H180.62V183.372H183.25V183.811ZM177.99 183.811H175.361V183.372H177.99V183.811ZM172.731 183.811H170.101V183.372H172.731V183.811ZM167.428 183.811H164.798V183.372H167.428V183.811ZM162.169 183.811H159.539V183.372H162.169V183.811ZM156.866 183.811H154.236V183.372H156.866V183.811ZM151.606 183.811H148.977V183.372H151.606V183.811ZM146.347 183.811H143.717V183.372H146.347V183.811ZM141.044 183.811H138.414V183.372H141.044V183.811ZM135.785 183.811H133.155V183.372H135.785V183.811ZM130.482 183.811H127.852V183.372H130.482V183.811ZM125.222 183.811H122.593V183.372H125.222V183.811ZM119.963 183.811H117.333V183.372H119.963V183.811Z" fill="#34A1D3"/>
<path d="M456.398 184.906H455.96V183.811H454.864V183.372H456.398V184.906Z" fill="#34A1D3"/>
<path d="M456.398 207.223H455.96V204.427H456.398V207.223ZM456.398 201.64H455.96V198.852H456.398V201.64ZM456.398 196.065H455.96V193.269H456.398V196.065ZM456.398 190.481H455.96V187.694H456.398V190.481Z" fill="#34A1D3"/>
<path d="M456.398 256.029H454.864V255.591H455.96V254.495H456.398V256.029Z" fill="#34A1D3"/>
<path d="M452.217 256.003H449.588V255.565H452.217V256.003ZM446.958 256.003H444.328V255.565H446.958V256.003ZM441.699 256.003H439.069V255.565H441.699V256.003ZM436.439 256.003H433.81V255.565H436.439V256.003ZM431.18 256.003H428.551V255.565H431.18V256.003ZM425.921 256.003H423.291V255.565H425.921V256.003ZM420.618 256.003H417.988V255.565H420.618V256.003ZM415.359 256.003H412.729V255.565H415.359V256.003ZM410.055 256.003H407.426V255.565H410.055V256.003ZM404.796 256.003H402.167V255.565H404.796V256.003ZM399.493 256.003H396.864V255.565H399.493V256.003ZM394.234 256.003H391.604V255.565H394.234V256.003ZM388.975 256.003H386.345V255.565H388.975V256.003ZM383.672 256.003H381.042V255.565H383.672V256.003ZM378.412 256.003H375.783V255.565H378.412V256.003ZM373.109 256.003H370.48V255.565H373.109V256.003ZM367.85 256.003H365.22V255.565H367.85V256.003ZM362.547 256.003H359.917V255.565H362.547V256.003ZM357.288 256.003H354.658V255.565H357.288V256.003ZM352.028 256.003H349.399V255.565H352.028V256.003ZM346.234 256.003H343.605V255.565H346.234V256.003ZM340.975 256.003H338.345V255.565H340.975V256.003ZM335.672 256.003H333.042V255.565H335.672V256.003ZM330.413 256.003H327.783V255.565H330.413V256.003ZM325.11 256.003H322.48V255.565H325.11V256.003ZM319.85 256.003H317.221V255.565H319.85V256.003ZM314.547 256.003H311.918V255.565H314.547V256.003ZM309.288 256.003H306.658V255.565H309.288V256.003ZM304.029 256.003H301.399V255.565H304.029V256.003ZM298.726 256.003H296.096V255.565H298.726V256.003ZM293.466 256.003H290.837V255.565H293.466V256.003ZM288.163 256.003H285.534V255.565H288.163V256.003ZM282.904 256.003H280.275V255.565H282.904V256.003ZM277.601 256.003H274.971V255.565H277.601V256.003ZM272.342 256.003H269.712V255.565H272.342V256.003ZM267.083 256.003H264.453V255.565H267.083V256.003ZM261.779 256.003H259.15V255.565H261.779V256.003ZM256.52 256.003H253.891V255.565H256.52V256.003ZM251.261 256.003H248.631V255.565H251.261V256.003ZM246.002 256.003H243.372V255.565H246.002V256.003ZM240.699 256.003H238.069V255.565H240.699V256.003ZM235.439 256.003H232.81V255.565H235.439V256.003ZM230.18 256.003H227.55V255.565H230.18V256.003ZM224.921 256.003H222.291V255.565H224.921V256.003ZM219.662 256.003H217.032V255.565H219.662V256.003ZM214.402 256.003H211.773V255.565H214.402V256.003ZM209.143 256.003H206.513V255.565H209.143V256.003ZM203.84 256.003H201.21V255.565H203.84V256.003ZM198.581 256.003H195.951V255.565H198.581V256.003ZM193.321 256.003H190.692V255.565H193.321V256.003ZM188.062 256.003H185.433V255.565H188.062V256.003ZM182.803 256.003H180.173V255.565H182.803V256.003ZM177.544 256.003H174.914V255.565H177.544V256.003ZM172.284 256.003H169.655V255.565H172.284V256.003ZM166.981 256.003H164.352V255.565H166.981V256.003ZM161.722 256.003H159.092V255.565H161.722V256.003ZM156.419 256.003H153.789V255.565H156.419V256.003ZM151.16 256.003H148.53V255.565H151.16V256.003ZM145.9 256.003H143.271V255.565H145.9V256.003ZM140.641 256.003H138.012V255.565H140.641V256.003ZM135.382 256.003H132.752V255.565H135.382V256.003ZM130.079 256.003H127.449V255.565H130.079V256.003ZM124.82 256.003H122.19V255.565H124.82V256.003ZM119.56 256.003H116.931V255.565H119.56V256.003Z" fill="#34A1D3"/>
<path d="M113.136 256.029H111.602V254.495H112.04V255.591H113.136V256.029Z" fill="#34A1D3"/>
<path d="M112.04 251.708H111.602V248.92H112.04V251.708ZM112.04 246.124H111.602V243.337H112.04V246.124ZM112.04 240.549H111.602V237.762H112.04V240.549ZM112.04 234.966H111.602V232.178H112.04V234.966Z" fill="#34A1D3"/>
<path d="M112.04 229.391H111.602V227.857H113.136V228.295H112.04V229.391Z" fill="#34A1D3"/>
<path d="M452.217 228.295H449.587V227.857H452.217V228.295ZM446.958 228.295H444.328V227.857H446.958V228.295ZM441.698 228.295H439.069V227.857H441.698V228.295ZM436.439 228.295H433.809V227.857H436.439V228.295ZM431.18 228.295H428.55V227.857H431.18V228.295ZM425.921 228.295H423.291V227.857H425.921V228.295ZM420.617 228.295H417.988V227.857H420.617V228.295ZM415.358 228.295H412.729V227.857H415.358V228.295ZM410.055 228.295H407.425V227.857H410.055V228.295ZM404.796 228.295H402.166V227.857H404.796V228.295ZM399.493 228.295H396.863V227.857H399.493V228.295ZM394.234 228.295H391.604V227.857H394.234V228.295ZM388.974 228.295H386.345V227.857H388.974V228.295ZM383.671 228.295H381.042V227.857H383.671V228.295ZM378.412 228.295H375.782V227.857H378.412V228.295ZM373.109 228.295H370.479V227.857H373.109V228.295ZM367.85 228.295H365.22V227.857H367.85V228.295ZM362.546 228.295H359.917V227.857H362.546V228.295ZM357.287 228.295H354.658V227.857H357.287V228.295ZM352.028 228.295H349.398V227.857H352.028V228.295ZM346.725 228.295H344.095V227.857H346.725V228.295ZM341.466 228.295H338.836V227.857H341.466V228.295ZM336.163 228.295H333.533V227.857H336.163V228.295ZM330.903 228.295H328.274V227.857H330.903V228.295ZM325.6 228.295H322.971V227.857H325.6V228.295ZM320.341 228.295H317.711V227.857H320.341V228.295ZM315.038 228.295H312.408V227.857H315.038V228.295ZM309.779 228.295H307.149V227.857H309.779V228.295ZM304.519 228.295H301.89V227.857H304.519V228.295ZM299.216 228.295H296.587V227.857H299.216V228.295ZM293.957 228.295H291.327V227.857H293.957V228.295ZM288.654 228.295H286.024V227.857H288.654V228.295ZM283.395 228.295H280.765V227.857H283.395V228.295ZM278.092 228.295H275.462V227.857H278.092V228.295ZM272.832 228.295H270.203V227.857H272.832V228.295ZM267.573 228.295H264.943V227.857H267.573V228.295ZM262.27 228.295H259.64V227.857H262.27V228.295ZM257.011 228.295H254.381V227.857H257.011V228.295ZM251.751 228.295H249.122V227.857H251.751V228.295ZM246.492 228.295H243.863V227.857H246.492V228.295ZM241.189 228.295H238.559V227.857H241.189V228.295ZM235.93 228.295H233.3V227.857H235.93V228.295ZM230.671 228.295H228.041V227.857H230.671V228.295ZM225.367 228.295H222.738V227.857H225.367V228.295ZM220.108 228.295H217.479V227.857H220.108V228.295ZM214.849 228.295H212.219V227.857H214.849V228.295ZM209.59 228.295H206.96V227.857H209.59V228.295ZM204.287 228.295H201.657V227.857H204.287V228.295ZM199.027 228.295H196.398V227.857H199.027V228.295ZM193.768 228.295H191.138V227.857H193.768V228.295ZM188.509 228.295H185.879V227.857H188.509V228.295ZM183.25 228.295H180.62V227.857H183.25V228.295ZM177.99 228.295H175.361V227.857H177.99V228.295ZM172.731 228.295H170.101V227.857H172.731V228.295ZM167.428 228.295H164.798V227.857H167.428V228.295ZM162.169 228.295H159.539V227.857H162.169V228.295ZM156.866 228.295H154.236V227.857H156.866V228.295ZM151.606 228.295H148.977V227.857H151.606V228.295ZM146.347 228.295H143.717V227.857H146.347V228.295ZM141.044 228.295H138.414V227.857H141.044V228.295ZM135.785 228.295H133.155V227.857H135.785V228.295ZM130.482 228.295H127.852V227.857H130.482V228.295ZM125.222 228.295H122.593V227.857H125.222V228.295ZM119.963 228.295H117.333V227.857H119.963V228.295Z" fill="#34A1D3"/>
<path d="M456.398 229.391H455.96V228.295H454.864V227.857H456.398V229.391Z" fill="#34A1D3"/>
<path d="M456.398 251.708H455.96V248.92H456.398V251.708ZM456.398 246.124H455.96V243.337H456.398V246.124ZM456.398 240.549H455.96V237.762H456.398V240.549ZM456.398 234.966H455.96V232.178H456.398V234.966Z" fill="#34A1D3"/>
<path d="M381.603 135.049H332.411V136.933H381.603V135.049Z" fill="#EBEBEB"/>
<path d="M328.958 135.049H307.106V136.933H328.958V135.049Z" fill="#A6A6A6"/>
<path d="M189.465 126.152H134.295V128.036H189.465V126.152Z" fill="#A6A6A6"/>
<path d="M392.156 117.255H318.833V119.139H392.156V117.255Z" fill="#A6A6A6"/>
<path d="M304.379 160.924H231.057V162.809H304.379V160.924Z" fill="#A6A6A6"/>
<path d="M302.109 135.049H134.295V136.933H302.109V135.049Z" fill="#34A1D3"/>
<path d="M125.24 117.255H117.57V119.139H125.24V117.255Z" fill="#A6A6A6"/>
<path d="M179.639 117.255H134.295V119.139H179.639V117.255Z" fill="#EBEBEB"/>
<path d="M187.124 143.946H141.781V145.83H187.124V143.946Z" fill="#EBEBEB"/>
<path d="M371.706 152.842H308.402V154.727H371.706V152.842Z" fill="#34A1D3"/>
<path d="M304.432 152.842H182.785V154.727H304.432V152.842Z" fill="#EBEBEB"/>
<path d="M175.87 152.842H141.781V154.727H175.87V152.842Z" fill="#A6A6A6"/>
<path d="M323.663 126.152H192.585V128.036H323.663V126.152Z" fill="#EBEBEB"/>
<path d="M405.042 126.152H326.836V128.036H405.042V126.152Z" fill="#34A1D3"/>
<path d="M315.266 117.255H184.249V119.139H315.266V117.255Z" fill="#34A1D3"/>
<path d="M125.24 126.152H117.57V128.036H125.24V126.152Z" fill="#EBEBEB"/>
<path d="M125.24 135.049H117.57V136.933H125.24V135.049Z" fill="#EBEBEB"/>
<path d="M125.24 143.946H117.57V145.83H125.24V143.946Z" fill="#A6A6A6"/>
<path d="M125.24 152.842H117.57V154.727H125.24V152.842Z" fill="#EBEBEB"/>
<path d="M125.24 160.924H117.57V162.809H125.24V160.924Z" fill="#EBEBEB"/>
<path d="M224.263 160.924H134.295V162.809H224.263V160.924Z" fill="#EBEBEB"/>
<path d="M125.24 169.821H117.57V171.705H125.24V169.821Z" fill="#EBEBEB"/>
<path d="M199.536 169.821H141.781V171.705H199.536V169.821Z" fill="#A6A6A6"/>
<path d="M189.465 196.512H134.295V198.397H189.465V196.512Z" fill="#A6A6A6"/>
<path d="M180.48 178.718H141.781V180.603H180.48V178.718Z" fill="#34A1D3"/>
<path d="M269.108 214.306H230.408V216.19H269.108V214.306Z" fill="#34A1D3"/>
<path d="M328.651 178.718H184.775V180.603H328.651V178.718Z" fill="#A6A6A6"/>
<path d="M302.109 205.409H134.295V207.293H302.109V205.409Z" fill="#34A1D3"/>
<path d="M322.042 169.821H203.165V171.705H322.042V169.821Z" fill="#EBEBEB"/>
<path d="M347.216 187.615H322.375V189.5H347.216V187.615Z" fill="#EBEBEB"/>
<path d="M125.24 178.718H117.57V180.603H125.24V178.718Z" fill="#EBEBEB"/>
<path d="M125.24 187.615H117.57V189.5H125.24V187.615Z" fill="#A6A6A6"/>
<path d="M179.639 187.615H134.295V189.5H179.639V187.615Z" fill="#EBEBEB"/>
<path d="M323.663 196.512H192.585V198.397H323.663V196.512Z" fill="#EBEBEB"/>
<path d="M315.266 187.615H184.249V189.5H315.266V187.615Z" fill="#34A1D3"/>
<path d="M125.24 196.512H117.57V198.397H125.24V196.512Z" fill="#EBEBEB"/>
<path d="M125.24 214.306H117.57V216.19H125.24V214.306Z" fill="#EBEBEB"/>
<path d="M224.263 214.306H134.295V216.19H224.263V214.306Z" fill="#EBEBEB"/>
<path d="M125.24 223.203H117.57V225.087H125.24V223.203Z" fill="#EBEBEB"/>
<path d="M199.536 223.203H141.781V225.087H199.536V223.203Z" fill="#A6A6A6"/>
<path d="M122.313 73.3751C122.375 73.437 122.425 73.5107 122.459 73.592C122.492 73.6732 122.51 73.7604 122.51 73.8484C122.51 73.9364 122.492 74.0236 122.459 74.1048C122.425 74.1861 122.375 74.2598 122.313 74.3217C122.186 74.4405 122.021 74.5091 121.848 74.5146C121.669 74.5126 121.497 74.4438 121.366 74.3217L118.403 71.3239C118.389 71.3179 118.377 71.3082 118.367 71.2959C118.358 71.2836 118.352 71.2691 118.351 71.2538C118.347 71.2247 118.347 71.1953 118.351 71.1662C118.351 71.1662 118.351 71.1136 118.351 71.1048C118.351 71.096 118.351 71.1048 118.351 71.0522V70.9821C118.351 70.9821 118.351 70.9821 118.351 70.9207C118.351 70.8594 118.351 70.9207 118.351 70.8681V70.7892C118.351 70.7892 118.351 70.7367 118.351 70.7104C118.351 70.7104 118.351 70.6402 118.403 70.6227C118.416 70.5934 118.437 70.5688 118.464 70.5526L121.427 67.546C121.557 67.4377 121.723 67.3819 121.892 67.3899C122.061 67.3979 122.22 67.4689 122.339 67.589C122.458 67.7092 122.528 67.8696 122.534 68.0385C122.541 68.2075 122.483 68.3727 122.374 68.5015L119.876 71.0172L122.313 73.3751Z" fill="#34A1D3"/>
<path d="M124.995 73.6822L127.572 67.5464C127.601 67.4749 127.645 67.41 127.7 67.3556C127.755 67.3013 127.82 67.2585 127.892 67.2299C127.964 67.2013 128.041 67.1874 128.119 67.1891C128.196 67.1908 128.272 67.2079 128.343 67.2396C128.481 67.2994 128.59 67.4112 128.645 67.5508C128.701 67.6903 128.7 67.8463 128.641 67.9847L126.055 74.1205C126.009 74.2243 125.935 74.3127 125.84 74.3749C125.745 74.4372 125.634 74.4706 125.52 74.4711C125.451 74.4834 125.38 74.4834 125.31 74.4711C125.235 74.4437 125.166 74.4007 125.108 74.3449C125.051 74.2891 125.006 74.2217 124.976 74.1473C124.946 74.0728 124.932 73.9929 124.936 73.9127C124.939 73.8326 124.959 73.754 124.995 73.6822Z" fill="#34A1D3"/>
<path d="M133.734 71.2366C133.734 71.2366 133.69 71.2892 133.655 71.3155L130.701 74.3133C130.57 74.4354 130.398 74.5042 130.219 74.5061C130.045 74.5041 129.878 74.435 129.754 74.3133C129.689 74.2526 129.638 74.1793 129.602 74.0979C129.567 74.0165 129.549 73.9287 129.549 73.8399C129.549 73.7512 129.567 73.6634 129.602 73.582C129.638 73.5006 129.689 73.4273 129.754 73.3666L132.243 70.8509L129.728 68.344C129.663 68.2826 129.611 68.2085 129.576 68.1264C129.54 68.0442 129.522 67.9557 129.522 67.8663C129.522 67.7769 129.54 67.6884 129.576 67.6062C129.611 67.5241 129.663 67.45 129.728 67.3886C129.855 67.2664 130.025 67.1982 130.201 67.1982C130.378 67.1982 130.547 67.2664 130.674 67.3886L133.628 70.3951C133.628 70.3951 133.681 70.4477 133.707 70.4653C133.707 70.4653 133.751 70.5266 133.76 70.5529C133.755 70.5849 133.755 70.6174 133.76 70.6493V70.7282C133.76 70.7282 133.76 70.7282 133.76 70.7808C133.76 70.8334 133.76 70.7808 133.76 70.8334V70.9123C133.756 70.9413 133.756 70.9709 133.76 70.9999C133.76 70.9999 133.751 71.1928 133.734 71.2366Z" fill="#34A1D3"/>
<path d="M159.11 309.735C159.11 309.735 172.101 306.789 179.227 300.224C186.353 293.659 190.333 281.904 190.333 281.904C185.393 282.846 180.523 284.123 175.756 285.726C173.977 287.564 172.498 289.67 171.373 291.967C171.263 290.482 171.263 288.991 171.373 287.505C169.708 288.225 168.15 289.171 166.745 290.319C160.776 295.447 159.11 309.735 159.11 309.735Z" fill="#34A1D3"/>
<path d="M182.216 287.619C183.969 286.392 185.792 285.209 187.554 283.973C187.659 283.894 187.554 283.727 187.449 283.798C184.1 285.796 180.796 287.935 177.605 290.17C176.489 290.959 175.39 291.768 174.309 292.598L174.537 292.212C174.932 291.555 175.344 290.915 175.756 290.275C176.571 288.975 177.492 287.744 178.508 286.594C178.508 286.594 178.508 286.489 178.447 286.532C177.439 287.698 176.422 288.855 175.501 290.091C175.063 290.678 174.625 291.292 174.266 291.914C174.064 292.239 173.871 292.563 173.678 292.896L173.485 293.229C171.811 294.553 170.172 295.929 168.612 297.384C167.648 298.261 166.719 299.216 165.816 300.171C166.315 298.602 166.762 297.007 167.341 295.456C167.341 295.403 167.271 295.386 167.253 295.456C166.692 297.077 166.07 298.716 165.632 300.382C164.632 301.457 163.686 302.573 162.792 303.73C162.802 303.659 162.817 303.589 162.835 303.52C162.984 302.906 163.133 302.293 163.3 301.688C163.616 300.513 163.957 299.347 164.361 298.182C165.11 295.786 166.299 293.55 167.867 291.59C167.867 291.59 167.867 291.485 167.805 291.529C165.367 294.564 163.663 298.122 162.827 301.925C162.686 302.477 162.555 303.029 162.432 303.59C162.362 303.879 162.283 304.186 162.231 304.467C161.845 305.001 161.459 305.536 161.082 306.088C158.868 309.474 157.025 313.089 155.586 316.87C153.959 321.116 152.569 325.45 151.423 329.851C151.419 329.862 151.418 329.873 151.419 329.884C151.42 329.896 151.425 329.906 151.431 329.916C151.437 329.925 151.446 329.933 151.456 329.938C151.466 329.943 151.477 329.946 151.489 329.946C151.5 329.946 151.511 329.943 151.521 329.938C151.531 329.933 151.54 329.925 151.546 329.916C151.553 329.906 151.557 329.896 151.558 329.884C151.56 329.873 151.558 329.862 151.554 329.851C154.096 322.252 156.691 314.538 161.047 307.736C161.963 306.301 162.952 304.914 164.01 303.581C166.163 303.446 168.288 303.024 170.33 302.328C172.562 301.577 174.691 300.549 176.667 299.269C177.807 298.524 178.85 297.665 179.91 296.814C179.963 296.77 179.91 296.7 179.858 296.744C178.042 298.207 176.037 299.419 173.897 300.347C171.798 301.314 169.599 302.052 167.341 302.547C166.385 302.757 165.412 302.915 164.44 303.047C165.642 301.564 166.92 300.145 168.27 298.795C168.708 298.357 169.147 297.919 169.611 297.515C171.129 296.46 172.736 295.539 174.415 294.763C176.545 293.738 178.648 292.651 180.752 291.573C181.944 290.968 183.119 290.354 184.32 289.767C184.372 289.767 184.32 289.662 184.276 289.688C182.137 290.722 179.972 291.686 177.816 292.677C175.659 293.667 173.731 294.535 171.785 295.631C171.7 295.675 171.618 295.725 171.54 295.78C173.293 294.246 175.116 292.782 176.983 291.397C178.692 290.117 180.436 288.847 182.216 287.619Z" fill="#263238"/>
<path d="M181.444 294.316C180.384 294.781 179.306 295.193 178.263 295.675C177.219 296.157 176.168 296.77 175.142 297.375C175.142 297.375 175.142 297.463 175.186 297.445C176.22 296.946 177.272 296.481 178.298 295.964C179.323 295.447 180.393 294.877 181.462 294.404C181.55 294.378 181.532 294.29 181.444 294.316Z" fill="#263238"/>
<path d="M116.887 244.23C119.287 247.331 120.646 251.111 120.77 255.029C120.814 256.195 120.63 257.817 120.49 259.728C123.736 261.608 126.611 264.064 128.975 266.977C126.38 265.469 123.399 264.755 120.402 264.926C120.469 266.231 120.636 267.529 120.902 268.809C122.793 268.812 124.665 269.181 126.415 269.896C124.708 269.878 123.015 270.215 121.445 270.886C123.759 278.258 130.649 285.787 149.661 289.048C151.681 280.008 150.491 270.546 146.295 262.287C140.598 251.076 116.887 244.23 116.887 244.23Z" fill="#34A1D3"/>
<path d="M156.244 320.586C155.911 317.436 155.502 314.295 155.017 311.163C154.049 304.9 152.768 298.689 151.177 292.554C150.434 289.673 149.518 286.84 148.434 284.069C148.488 283.563 148.511 283.053 148.504 282.544C148.504 281.939 148.504 281.326 148.504 280.721C148.504 279.502 148.434 278.284 148.329 277.074C148.138 274.668 147.749 272.281 147.163 269.939C146.812 268.589 146.409 267.257 146.015 265.916C146.015 265.904 146.01 265.893 146.002 265.885C145.994 265.877 145.982 265.872 145.971 265.872C145.959 265.872 145.948 265.877 145.94 265.885C145.932 265.893 145.927 265.904 145.927 265.916C146.562 268.252 147.03 270.631 147.329 273.033C147.67 275.399 147.884 277.78 147.969 280.168C147.969 280.817 147.969 281.475 147.969 282.123C147.969 282.404 147.969 282.684 147.969 283C147.033 280.729 145.962 278.516 144.761 276.373C142.83 272.973 140.653 269.718 138.248 266.635C138.247 266.273 138.197 265.913 138.099 265.565C138.003 265.145 137.915 264.689 137.819 264.294C137.626 263.418 137.407 262.541 137.17 261.708C136.697 259.955 136.075 258.316 135.54 256.616C135.54 256.563 135.435 256.616 135.452 256.616C135.952 258.299 136.285 260.043 136.671 261.761C136.864 262.638 137.048 263.453 137.232 264.303C137.328 264.724 137.416 265.18 137.503 265.574C137.507 265.606 137.507 265.638 137.503 265.67C136.741 264.706 135.952 263.742 135.154 262.804C131.517 258.544 127.537 254.617 123.531 250.717C123.04 250.235 122.532 249.77 122.032 249.297C122.032 249.297 121.936 249.297 121.971 249.367C125.802 253.355 129.571 257.396 133.147 261.638C133.994 262.643 134.83 263.66 135.654 264.689L134.357 263.812C133.243 263.093 132.121 262.383 130.973 261.735C129.825 261.086 128.659 260.464 127.467 259.877C126.275 259.289 124.943 258.781 123.768 258.123C123.724 258.123 123.672 258.185 123.724 258.202C124.938 258.759 126.11 259.403 127.23 260.131C128.387 260.814 129.544 261.507 130.684 262.226C131.823 262.944 132.919 263.637 134.032 264.356C134.961 264.952 135.873 265.609 136.828 266.17C139.032 269.002 141.066 271.961 142.92 275.032C144.074 276.968 145.125 278.963 146.067 281.01L145.392 280.712L143.639 279.941L140.273 278.468C138.143 277.539 135.978 276.715 133.883 275.672C132.705 275.119 131.566 274.486 130.474 273.778C130.421 273.778 130.377 273.822 130.43 273.857C134.322 276.54 138.695 278.433 143.008 280.344L144.884 281.177C145.401 281.404 145.909 281.659 146.444 281.851C147.72 284.713 148.795 287.659 149.661 290.669C151.359 296.729 152.74 302.873 153.798 309.077C154.885 315.292 155.622 321.541 156.191 327.826C156.261 328.606 156.34 329.386 156.428 330.175C156.428 330.24 156.454 330.303 156.5 330.349C156.546 330.395 156.608 330.421 156.673 330.421C156.739 330.421 156.801 330.395 156.847 330.349C156.893 330.303 156.919 330.24 156.919 330.175C156.901 326.95 156.577 323.75 156.244 320.586Z" fill="#263238"/>
<path d="M144.673 268.072C144.323 266.135 143.797 264.242 143.288 262.349C143.288 262.296 143.192 262.349 143.201 262.349C143.683 264.207 144.033 266.1 144.375 267.985C144.717 269.869 145.05 271.842 145.322 273.779H145.375C145.25 271.865 145.016 269.96 144.673 268.072Z" fill="#263238"/>
<path d="M136.477 273.314C135.153 272.444 133.77 271.665 132.34 270.983C131.647 270.623 130.946 270.281 130.245 269.948C129.544 269.615 128.772 269.3 128.053 268.94C128.001 268.94 127.957 268.993 128.01 269.019C128.702 269.37 129.359 269.79 130.043 270.159L132.156 271.316C133.549 272.061 134.917 272.893 136.372 273.498C136.384 273.505 136.397 273.51 136.411 273.511C136.425 273.513 136.439 273.512 136.452 273.508C136.466 273.505 136.478 273.499 136.489 273.49C136.5 273.481 136.51 273.471 136.516 273.459C136.523 273.447 136.528 273.433 136.53 273.42C136.531 273.406 136.53 273.392 136.527 273.378C136.523 273.365 136.517 273.352 136.508 273.341C136.5 273.33 136.489 273.321 136.477 273.314Z" fill="#263238"/>
<path opacity="0.1" d="M159.337 287.216C159.337 287.216 171.372 284.35 176.868 276.277C182.128 268.572 183.881 255.441 183.977 254.284C183.758 255.345 181.277 266.819 173.09 272.166C166.849 276.268 160.792 279.669 159.337 287.216Z" fill="#263238"/>
<path d="M170.444 266.442C168.301 268.405 166.763 270.938 166.008 273.743C166.894 271.005 168.424 268.519 170.47 266.494C170.47 266.494 170.487 266.398 170.444 266.442Z" fill="#263238"/>
<path d="M159.338 287.216C159.338 287.216 171.373 284.35 176.869 276.277C182.128 268.572 183.881 255.441 183.978 254.284C183.976 254.258 183.976 254.232 183.978 254.206C183.978 254.206 178.21 262.401 172.144 264.496C166.079 266.591 157.602 273.814 159.338 287.216Z" fill="#34A1D3"/>
<path d="M181.891 258.729C180.809 260.936 179.564 263.06 178.166 265.083C176.762 267.002 175.098 268.716 173.222 270.176C171.592 271.473 169.856 272.648 168.208 273.919V273.858C168.524 273.402 168.848 272.981 169.19 272.517C169.883 271.64 170.636 270.763 171.39 269.983C172.889 268.362 174.414 266.766 175.773 265.013C176.514 264.044 177.16 263.005 177.701 261.91C177.701 261.858 177.64 261.831 177.614 261.91C175.668 265.978 171.767 268.581 168.988 272.017C168.59 272.502 168.219 273.008 167.875 273.533C167.602 273.914 167.37 274.322 167.183 274.752C165.661 275.975 164.285 277.369 163.081 278.907C163.187 278.116 163.348 277.334 163.563 276.566C163.842 275.497 164.273 274.472 164.842 273.525C164.842 273.472 164.79 273.428 164.764 273.472C164.18 274.422 163.71 275.437 163.361 276.496C163.109 277.352 162.962 278.235 162.923 279.126C162.324 279.913 161.776 280.739 161.284 281.598C161.336 281.343 161.38 281.08 161.433 280.826C161.669 279.625 161.932 278.433 162.248 277.25C162.815 274.842 163.793 272.549 165.14 270.474C165.14 270.43 165.097 270.378 165.07 270.422C163.687 272.467 162.607 274.702 161.862 277.057C161.477 278.232 161.17 279.432 160.898 280.642C160.767 281.238 160.653 281.834 160.539 282.395C160.477 282.702 160.407 283.018 160.363 283.333C159.169 285.952 158.238 288.682 157.585 291.485C156.403 296.494 155.548 301.574 155.025 306.693C154.401 312.051 154.123 317.445 154.192 322.839C154.192 323.514 154.245 324.189 154.28 324.864C154.28 325.039 154.552 325.065 154.561 324.864C154.675 322.234 154.745 319.526 154.902 316.861C155.06 314.196 155.297 311.523 155.577 308.867C156.128 303.642 156.965 298.45 158.084 293.317C159.066 288.934 160.328 284.499 162.73 280.642C163.926 278.725 165.387 276.987 167.069 275.479C168.752 273.972 170.575 272.639 172.381 271.237C174.177 269.869 175.81 268.299 177.246 266.556C178.717 264.614 180 262.536 181.076 260.35C181.357 259.807 181.646 259.263 181.953 258.72C181.988 258.72 181.909 258.676 181.891 258.729Z" fill="#263238"/>
<path d="M179.814 260.49C179.026 262.109 178.13 263.673 177.131 265.171C177.131 265.171 177.131 265.241 177.184 265.171C178.218 263.687 179.124 262.119 179.892 260.482C179.919 260.464 179.831 260.438 179.814 260.49Z" fill="#263238"/>
<path d="M115.204 281.904C115.204 281.904 115.02 298.988 125.24 303.923C135.461 308.858 140.939 304.747 147.881 306.404C147.618 305.992 142.622 298.874 134.777 296.911C126.651 294.877 117.667 289.022 115.204 281.904Z" fill="#34A1D3"/>
<path opacity="0.1" d="M115.204 281.904C115.204 281.904 115.02 298.988 125.24 303.923C135.461 308.858 140.939 304.747 147.881 306.404C144.215 304.655 140.295 303.498 136.267 302.976C129.807 302.188 117.457 297.989 115.204 281.904Z" fill="black"/>
<path d="M148.548 306.711C147.337 305.599 145.97 304.671 144.489 303.958C144.27 303.853 144.042 303.765 143.823 303.669L143.472 303.274C143.174 302.959 142.85 302.652 142.517 302.398C141.874 301.846 141.185 301.35 140.457 300.917C138.765 299.917 136.907 299.225 135.198 298.287C135.145 298.287 135.101 298.34 135.154 298.366C136.031 298.813 136.837 299.304 137.67 299.786C138.502 300.268 139.309 300.715 140.098 301.223C140.81 301.678 141.486 302.185 142.123 302.74L142.649 303.239C141.516 302.858 140.359 302.55 139.186 302.319C137.319 301.942 135.426 301.679 133.559 301.276C132.644 301.082 131.74 300.839 130.85 300.548C129.974 299.865 129.159 299.181 128.352 298.445C127.383 297.556 126.502 296.576 125.722 295.517C125.722 295.464 125.609 295.517 125.644 295.561C126.88 297.239 128.284 298.786 129.833 300.18C129.395 300.014 128.957 299.838 128.527 299.646C125.017 298.068 122.004 295.562 119.815 292.397C119.815 292.353 119.709 292.397 119.744 292.44C121.59 295.156 123.978 297.46 126.757 299.207C128.153 300.076 129.644 300.782 131.201 301.311C133.011 301.876 134.86 302.313 136.732 302.617C138.566 302.919 140.376 303.349 142.149 303.906C143.778 304.461 145.31 305.268 146.689 306.299C149.299 308.316 151.4 310.915 152.825 313.889C154.653 317.833 155.795 322.061 156.2 326.389C156.2 326.573 156.507 326.573 156.489 326.389C156.025 319.175 154.087 311.698 148.548 306.711Z" fill="#263238"/>
<path d="M136.688 301.136C136.155 300.339 135.436 299.683 134.593 299.225C133.627 298.734 132.775 298.044 132.095 297.2C132.095 297.147 131.981 297.2 132.016 297.244C132.631 298.026 133.378 298.693 134.225 299.216C135.152 299.71 135.969 300.387 136.627 301.206C136.653 301.215 136.741 301.171 136.688 301.136Z" fill="#263238"/>
<path d="M142.114 319.324L142.579 328.721L144.008 357.436H165.448L166.868 328.721L167.332 319.324H142.114Z" fill="#37474F"/>
<path d="M142.114 319.324L142.579 328.721H166.868L167.332 319.324H142.114Z" fill="#263238"/>
<path d="M140.606 324.364H168.831V315.397H140.606V324.364Z" fill="#37474F"/>
<path d="M282.921 1.06885H192.55V58.7191H282.921V1.06885Z" fill="white"/>
<path d="M283.483 59.28H191.963V0.490234H283.474L283.483 59.28ZM193.12 58.1405H282.343V1.63851H193.12V58.1405Z" fill="#EBEBEB"/>
<path d="M282.921 1.06885H192.55V11.973H282.921V1.06885Z" fill="#34A1D3"/>
<path d="M283.483 12.5339H191.963V0.490234H283.474L283.483 12.5339ZM193.12 11.3944H282.343V1.63851H193.12V11.3944Z" fill="#EBEBEB"/>
<path d="M208.144 33.5186C208.201 30.6012 209.4 27.8225 211.483 25.779C213.565 23.7354 216.366 22.5898 219.284 22.5881C221.822 22.5726 224.291 23.4091 226.297 24.9635C226.604 25.2633 226.791 25.6653 226.821 26.0935C226.852 26.5216 226.724 26.9462 226.463 27.2866C226.201 27.627 225.824 27.8596 225.403 27.9403C224.981 28.0211 224.544 27.9443 224.176 27.7246C222.792 26.6102 221.061 26.0176 219.284 26.0505C217.252 26.0601 215.299 26.8436 213.824 28.2418C212.418 29.6327 211.621 31.5237 211.606 33.5011C211.607 34.4811 211.804 35.451 212.185 36.354C212.566 37.2571 213.123 38.0751 213.824 38.7603C215.299 40.1585 217.252 40.9421 219.284 40.9517C221.06 40.9801 222.79 40.388 224.176 39.2775C224.551 39.0252 225.005 38.9198 225.453 38.9812C225.901 39.0426 226.31 39.2667 226.604 39.6106C226.879 39.9754 227.001 40.4334 226.944 40.887C226.887 41.3406 226.654 41.7538 226.297 42.0386C224.29 43.5899 221.821 44.4233 219.284 44.4053C216.37 44.4173 213.567 43.2822 211.483 41.2451C209.398 39.2081 208.199 36.4327 208.144 33.5186Z" fill="#EBEBEB"/>
<path d="M231.828 39.1721C232.093 38.8494 232.475 38.6452 232.891 38.6041C233.307 38.563 233.722 38.6885 234.045 38.953C235.671 40.3422 237.705 41.1638 239.839 41.2933C241.205 41.3278 242.547 40.9356 243.679 40.1714C244.057 39.9406 244.373 39.6213 244.601 39.2411C244.828 38.8609 244.96 38.4312 244.985 37.9888C244.991 37.6448 244.897 37.3064 244.713 37.0158C244.49 36.6617 244.19 36.3622 243.836 36.1393C242.547 35.4127 241.136 34.9285 239.673 34.7105H239.611C238.264 34.4799 236.951 34.0824 235.702 33.5272C234.552 33.0276 233.572 32.2056 232.88 31.1605C232.411 30.4154 232.168 29.5511 232.178 28.6711C232.208 27.7935 232.444 26.9352 232.865 26.1649C233.287 25.3947 233.883 24.7339 234.606 24.2358C236.147 23.1605 237.987 22.5963 239.866 22.623C242.784 22.623 244.941 24.0517 246.483 25.051C246.823 25.2824 247.059 25.6381 247.139 26.0413C247.219 26.4446 247.138 26.8633 246.913 27.2073C246.804 27.3823 246.662 27.5336 246.493 27.6519C246.324 27.7702 246.134 27.8532 245.932 27.8958C245.731 27.9384 245.523 27.9397 245.321 27.8997C245.119 27.8597 244.927 27.7792 244.757 27.6631C243.205 26.6375 241.715 25.7259 239.866 25.7259C238.653 25.705 237.464 26.0636 236.465 26.7515C236.134 26.9565 235.857 27.2378 235.657 27.5718C235.457 27.9057 235.341 28.2827 235.316 28.6711C235.296 28.9779 235.369 29.2836 235.527 29.5477C235.744 29.8613 236.021 30.1293 236.342 30.3366C237.486 30.9909 238.744 31.4222 240.05 31.6075H240.111C241.555 31.8602 242.962 32.29 244.301 32.8873C245.532 33.4219 246.586 34.2941 247.342 35.403C247.828 36.1933 248.08 37.105 248.07 38.0326C248.037 38.9697 247.782 39.8855 247.324 40.7041C246.867 41.5227 246.221 42.2205 245.44 42.7396C243.799 43.9012 241.833 44.5148 239.822 44.4927C236.97 44.3529 234.24 43.2883 232.047 41.4599C231.882 41.3243 231.745 41.1575 231.645 40.969C231.544 40.7805 231.482 40.5741 231.462 40.3615C231.442 40.149 231.463 39.9345 231.526 39.7303C231.589 39.5262 231.691 39.3365 231.828 39.1721Z" fill="#EBEBEB"/>
<path d="M251.77 39.1722C252.037 38.8515 252.419 38.6487 252.834 38.6077C253.249 38.5667 253.663 38.6908 253.988 38.9531C255.617 40.3413 257.654 41.1626 259.79 41.2934C261.141 41.3188 262.466 40.9269 263.586 40.1714C263.964 39.9407 264.28 39.6214 264.508 39.2412C264.735 38.861 264.867 38.4312 264.892 37.9889C264.899 37.6449 264.804 37.3065 264.62 37.0159C264.397 36.6618 264.098 36.3623 263.744 36.1393C262.455 35.4128 261.043 34.9286 259.58 34.7106H259.457C258.107 34.48 256.791 34.0825 255.539 33.5273C254.391 33.0251 253.411 32.2036 252.717 31.1606C252.255 30.413 252.015 29.5498 252.024 28.6712C252.053 27.7933 252.287 26.9344 252.709 26.164C253.131 25.3935 253.728 24.733 254.452 24.2359C255.992 23.1595 257.832 22.5952 259.711 22.6231C262.622 22.6231 264.778 24.0518 266.329 25.0511C266.669 25.2825 266.905 25.6381 266.985 26.0414C267.065 26.4447 266.984 26.8634 266.759 27.2074C266.65 27.3824 266.507 27.5336 266.339 27.652C266.17 27.7703 265.98 27.8533 265.778 27.8958C265.577 27.9384 265.369 27.9398 265.166 27.8998C264.964 27.8598 264.773 27.7793 264.603 27.6632C263.051 26.6376 261.561 25.726 259.711 25.726C258.498 25.7039 257.309 26.0626 256.31 26.7516C255.978 26.955 255.699 27.2357 255.497 27.5699C255.296 27.904 255.178 28.2818 255.153 28.6712C255.131 28.9793 255.208 29.2865 255.373 29.5477C255.59 29.8613 255.867 30.1293 256.188 30.3366C257.364 31.0037 258.659 31.4354 260.001 31.6076H260.062C261.506 31.8603 262.913 32.2901 264.252 32.8874C265.483 33.4188 266.535 34.2919 267.285 35.4031C267.773 36.1927 268.028 37.1043 268.021 38.0327C267.988 38.9698 267.733 39.8856 267.275 40.7042C266.818 41.5228 266.172 42.2206 265.391 42.7397C263.75 43.9013 261.784 44.5149 259.773 44.4928C256.921 44.353 254.191 43.2884 251.998 41.46C251.832 41.325 251.695 41.1587 251.594 40.9705C251.493 40.7824 251.43 40.576 251.408 40.3635C251.387 40.1509 251.408 39.9362 251.47 39.7317C251.532 39.5273 251.634 39.3371 251.77 39.1722Z" fill="#EBEBEB"/>
<path d="M200.939 6.59079C200.939 6.95138 200.832 7.30388 200.632 7.60371C200.431 7.90353 200.147 8.13722 199.813 8.27521C199.48 8.41321 199.114 8.44931 198.76 8.37897C198.406 8.30862 198.081 8.13497 197.826 7.87999C197.571 7.62501 197.398 7.30015 197.328 6.94648C197.257 6.59281 197.293 6.22622 197.431 5.89307C197.569 5.55993 197.803 5.27518 198.103 5.07485C198.403 4.87451 198.755 4.76758 199.116 4.76758C199.599 4.76988 200.061 4.96271 200.402 5.30413C200.744 5.64555 200.937 6.10795 200.939 6.59079Z" fill="#C7C7C7"/>
<path d="M208.389 6.59079C208.389 6.95138 208.282 7.30388 208.082 7.60371C207.881 7.90353 207.597 8.13722 207.264 8.27521C206.93 8.41321 206.564 8.44931 206.21 8.37897C205.857 8.30862 205.532 8.13497 205.277 7.87999C205.022 7.62501 204.848 7.30015 204.778 6.94648C204.707 6.59281 204.743 6.22622 204.881 5.89307C205.019 5.55993 205.253 5.27518 205.553 5.07485C205.853 4.87451 206.205 4.76758 206.566 4.76758C207.049 4.76988 207.511 4.96271 207.853 5.30413C208.194 5.64555 208.387 6.10795 208.389 6.59079Z" fill="white"/>
<path d="M215.84 6.59079C215.84 6.95138 215.733 7.30388 215.533 7.60371C215.332 7.90353 215.047 8.13722 214.714 8.27521C214.381 8.41321 214.015 8.44931 213.661 8.37897C213.307 8.30862 212.982 8.13497 212.727 7.87999C212.472 7.62501 212.299 7.30015 212.228 6.94648C212.158 6.59281 212.194 6.22622 212.332 5.89307C212.47 5.55993 212.704 5.27518 213.004 5.07485C213.303 4.87451 213.656 4.76758 214.017 4.76758C214.499 4.76988 214.962 4.96271 215.303 5.30413C215.645 5.64555 215.837 6.10795 215.84 6.59079Z" fill="#455A64"/>
<path d="M554.133 203.936H463.761V261.586H554.133V203.936Z" fill="white"/>
<path d="M554.703 262.139H463.192V203.41H554.703V262.139ZM464.34 260.999H553.564V204.506H464.34V260.999Z" fill="#EBEBEB"/>
<path d="M554.133 203.936H463.761V214.84H554.133V203.936Z" fill="#34A1D3"/>
<path d="M554.703 215.41H463.192V203.41H554.703V215.41ZM464.34 214.271H553.564V204.506H464.34V214.271Z" fill="#EBEBEB"/>
<path d="M480.635 236.394C480.694 233.484 481.889 230.711 483.964 228.669C486.039 226.627 488.829 225.477 491.741 225.464C494.276 225.45 496.744 226.283 498.753 227.83C499.078 228.126 499.28 228.534 499.319 228.972C499.358 229.41 499.231 229.847 498.963 230.196C498.694 230.544 498.305 230.779 497.872 230.854C497.438 230.929 496.993 230.839 496.623 230.6C495.24 229.485 493.508 228.892 491.732 228.926C489.701 228.939 487.751 229.718 486.271 231.109C484.869 232.502 484.072 234.391 484.053 236.368C484.056 237.348 484.253 238.317 484.634 239.22C485.015 240.123 485.571 240.941 486.271 241.627C487.751 243.018 489.701 243.797 491.732 243.81C493.506 243.841 495.236 243.252 496.623 242.144C496.998 241.892 497.453 241.787 497.9 241.848C498.348 241.91 498.758 242.134 499.051 242.477C499.327 242.841 499.451 243.299 499.395 243.752C499.34 244.206 499.109 244.619 498.753 244.906C496.744 246.453 494.276 247.285 491.741 247.272C488.834 247.273 486.043 246.134 483.967 244.1C481.891 242.067 480.694 239.3 480.635 236.394Z" fill="#EBEBEB"/>
<path d="M509.753 238.305H505.441C505.222 238.306 505.005 238.264 504.802 238.181C504.6 238.098 504.416 237.975 504.261 237.82C504.106 237.665 503.983 237.481 503.9 237.279C503.817 237.076 503.774 236.859 503.775 236.64C503.778 236.198 503.954 235.775 504.265 235.462C504.577 235.148 504.999 234.97 505.441 234.966H509.753V230.749C509.753 230.284 509.938 229.839 510.267 229.51C510.596 229.181 511.042 228.996 511.507 228.996C511.971 228.996 512.417 229.181 512.746 229.51C513.075 229.839 513.26 230.284 513.26 230.749V234.966H517.572C518.014 234.97 518.436 235.148 518.748 235.462C519.059 235.775 519.235 236.198 519.238 236.64C519.239 236.859 519.197 237.076 519.113 237.279C519.03 237.481 518.907 237.665 518.752 237.82C518.598 237.975 518.414 238.098 518.211 238.181C518.008 238.264 517.791 238.306 517.572 238.305H513.216V242.53C513.216 242.995 513.031 243.441 512.702 243.77C512.374 244.099 511.928 244.283 511.463 244.283C510.998 244.283 510.552 244.099 510.223 243.77C509.894 243.441 509.71 242.995 509.71 242.53L509.753 238.305Z" fill="#EBEBEB"/>
<path d="M528.555 238.305H524.243C524.023 238.306 523.806 238.264 523.603 238.181C523.399 238.098 523.215 237.975 523.059 237.821C522.904 237.666 522.78 237.482 522.696 237.279C522.612 237.077 522.568 236.859 522.568 236.64C522.573 236.197 522.751 235.774 523.064 235.461C523.377 235.148 523.8 234.97 524.243 234.966H528.555V230.749C528.555 230.284 528.74 229.839 529.069 229.51C529.397 229.181 529.843 228.996 530.308 228.996C530.773 228.996 531.219 229.181 531.548 229.51C531.877 229.839 532.061 230.284 532.061 230.749V234.966H536.374C536.817 234.97 537.24 235.148 537.553 235.461C537.866 235.774 538.044 236.197 538.048 236.64C538.048 236.859 538.005 237.077 537.921 237.279C537.836 237.482 537.713 237.666 537.557 237.821C537.402 237.975 537.217 238.098 537.014 238.181C536.811 238.264 536.593 238.306 536.374 238.305H532.061V242.53C532.061 242.995 531.877 243.441 531.548 243.77C531.219 244.099 530.773 244.283 530.308 244.283C530.076 244.291 529.845 244.25 529.629 244.165C529.413 244.079 529.217 243.95 529.052 243.786C528.888 243.622 528.759 243.426 528.674 243.21C528.588 242.994 528.548 242.762 528.555 242.53V238.305Z" fill="#EBEBEB"/>
<path d="M472.159 209.467C472.159 209.827 472.052 210.18 471.852 210.48C471.651 210.78 471.367 211.013 471.034 211.151C470.7 211.289 470.334 211.325 469.98 211.255C469.627 211.185 469.302 211.011 469.047 210.756C468.792 210.501 468.618 210.176 468.548 209.822C468.477 209.469 468.513 209.102 468.651 208.769C468.789 208.436 469.023 208.151 469.323 207.951C469.623 207.75 469.975 207.644 470.336 207.644C470.819 207.644 471.283 207.836 471.625 208.178C471.967 208.519 472.159 208.983 472.159 209.467Z" fill="#C7C7C7"/>
<path d="M479.609 209.467C479.609 209.827 479.502 210.18 479.302 210.48C479.102 210.78 478.817 211.013 478.484 211.151C478.151 211.289 477.784 211.325 477.43 211.255C477.077 211.185 476.752 211.011 476.497 210.756C476.242 210.501 476.068 210.176 475.998 209.822C475.928 209.469 475.964 209.102 476.102 208.769C476.24 208.436 476.473 208.151 476.773 207.951C477.073 207.75 477.426 207.644 477.786 207.644C478.27 207.644 478.733 207.836 479.075 208.178C479.417 208.519 479.609 208.983 479.609 209.467Z" fill="white"/>
<path d="M487.06 209.467C487.062 209.829 486.956 210.185 486.755 210.487C486.555 210.789 486.27 211.026 485.935 211.166C485.601 211.306 485.232 211.343 484.876 211.273C484.52 211.204 484.193 211.03 483.936 210.774C483.679 210.518 483.503 210.192 483.432 209.836C483.36 209.481 483.396 209.112 483.535 208.777C483.673 208.441 483.908 208.155 484.209 207.953C484.511 207.751 484.865 207.644 485.228 207.644C485.712 207.644 486.177 207.835 486.52 208.177C486.864 208.519 487.058 208.982 487.06 209.467Z" fill="#455A64"/>
<path d="M268.511 278.354H206.952V301.145H268.511V278.354Z" fill="#455A64"/>
<path d="M215.831 294.483V284.367C215.83 284.243 215.854 284.12 215.901 284.005C215.948 283.89 216.018 283.786 216.106 283.699C216.195 283.611 216.299 283.542 216.415 283.496C216.53 283.45 216.654 283.427 216.778 283.43C216.902 283.428 217.025 283.452 217.141 283.498C217.256 283.545 217.361 283.614 217.45 283.701C217.538 283.788 217.609 283.891 217.658 284.006C217.706 284.12 217.732 284.243 217.733 284.367V288.487H222.168V284.367C222.167 284.243 222.191 284.12 222.238 284.005C222.286 283.89 222.355 283.786 222.444 283.699C222.532 283.611 222.637 283.542 222.752 283.496C222.868 283.45 222.991 283.427 223.115 283.43C223.239 283.428 223.363 283.452 223.478 283.498C223.593 283.545 223.698 283.614 223.787 283.701C223.876 283.788 223.947 283.891 223.995 284.006C224.044 284.12 224.069 284.243 224.071 284.367V294.483C224.069 294.607 224.044 294.73 223.995 294.844C223.947 294.959 223.876 295.063 223.787 295.15C223.698 295.237 223.593 295.306 223.478 295.352C223.363 295.399 223.239 295.422 223.115 295.421C222.991 295.423 222.868 295.4 222.752 295.354C222.637 295.308 222.532 295.239 222.444 295.152C222.355 295.064 222.286 294.96 222.238 294.845C222.191 294.73 222.167 294.607 222.168 294.483V290.372H217.733V294.483C217.732 294.607 217.706 294.73 217.658 294.844C217.609 294.959 217.538 295.063 217.45 295.15C217.361 295.237 217.256 295.306 217.141 295.352C217.025 295.399 216.902 295.422 216.778 295.421C216.654 295.423 216.53 295.4 216.415 295.354C216.299 295.308 216.195 295.239 216.106 295.152C216.018 295.064 215.948 294.96 215.901 294.845C215.854 294.73 215.83 294.607 215.831 294.483Z" fill="white"/>
<path d="M235.317 285.332H232.591V294.483C232.568 294.717 232.459 294.934 232.285 295.093C232.111 295.251 231.884 295.338 231.649 295.338C231.413 295.338 231.187 295.251 231.012 295.093C230.838 294.934 230.729 294.717 230.707 294.483V285.332H227.998C227.872 285.331 227.748 285.305 227.633 285.256C227.518 285.207 227.413 285.135 227.325 285.046C227.237 284.956 227.168 284.85 227.121 284.734C227.074 284.617 227.05 284.493 227.051 284.367C227.05 284.243 227.074 284.12 227.121 284.005C227.168 283.89 227.238 283.786 227.326 283.699C227.415 283.611 227.52 283.542 227.635 283.496C227.75 283.45 227.874 283.427 227.998 283.43H235.317C235.566 283.43 235.804 283.528 235.98 283.704C236.156 283.88 236.255 284.119 236.255 284.367C236.255 284.619 236.157 284.86 235.982 285.04C235.807 285.22 235.568 285.325 235.317 285.332Z" fill="white"/>
<path d="M249.394 284.367V294.483C249.387 294.732 249.284 294.97 249.105 295.144C248.927 295.319 248.688 295.418 248.438 295.421C248.314 295.422 248.191 295.398 248.077 295.352C247.962 295.305 247.857 295.236 247.769 295.149C247.681 295.062 247.612 294.958 247.564 294.844C247.516 294.729 247.492 294.607 247.492 294.483V287.269L245.029 290.696C244.94 290.818 244.824 290.917 244.69 290.986C244.556 291.054 244.408 291.09 244.257 291.09C244.104 291.091 243.953 291.055 243.816 290.987C243.679 290.918 243.56 290.819 243.468 290.696L241.023 287.269V294.483C241.018 294.735 240.914 294.974 240.734 295.15C240.553 295.326 240.31 295.423 240.059 295.421C239.81 295.418 239.573 295.319 239.398 295.143C239.222 294.968 239.123 294.731 239.121 294.483V284.367C239.123 284.119 239.222 283.882 239.398 283.707C239.573 283.531 239.81 283.432 240.059 283.429H240.111C240.259 283.432 240.404 283.469 240.535 283.537C240.666 283.606 240.779 283.704 240.865 283.824L244.275 288.548L247.684 283.824C247.773 283.702 247.889 283.603 248.023 283.534C248.157 283.466 248.305 283.43 248.456 283.429C248.702 283.438 248.935 283.54 249.109 283.714C249.283 283.888 249.385 284.121 249.394 284.367Z" fill="white"/>
<path d="M253.54 294.483V284.368C253.562 284.131 253.672 283.912 253.848 283.752C254.024 283.592 254.253 283.504 254.491 283.504C254.728 283.504 254.957 283.592 255.133 283.752C255.309 283.912 255.419 284.131 255.442 284.368V293.519H260.087C260.324 293.542 260.543 293.652 260.703 293.827C260.863 294.003 260.951 294.232 260.951 294.47C260.951 294.707 260.863 294.936 260.703 295.112C260.543 295.288 260.324 295.398 260.087 295.421H254.486C254.362 295.422 254.239 295.399 254.125 295.352C254.01 295.305 253.905 295.236 253.817 295.149C253.729 295.062 253.659 294.958 253.612 294.844C253.564 294.73 253.54 294.607 253.54 294.483Z" fill="white"/>
<path d="M64.0312 89.9243H13.2969V112.714H64.0312V89.9243Z" fill="#455A64"/>
<path d="M28.3916 102.336H26.2966V106.052C26.2739 106.289 26.1639 106.508 25.988 106.668C25.8122 106.828 25.5832 106.916 25.3456 106.916C25.108 106.916 24.879 106.828 24.7031 106.668C24.5273 106.508 24.4173 106.289 24.3945 106.052V95.9369C24.3945 95.813 24.4191 95.6903 24.4667 95.576C24.5144 95.4616 24.5843 95.3578 24.6723 95.2706C24.7603 95.1834 24.8648 95.1145 24.9796 95.0679C25.0944 95.0213 25.2173 94.9979 25.3412 94.999H28.4091C28.9059 94.9747 29.4025 95.0516 29.8687 95.225C30.3349 95.3984 30.7611 95.6646 31.1213 96.0077C31.4815 96.3507 31.7682 96.7633 31.9642 97.2205C32.1601 97.6777 32.2612 98.1699 32.2612 98.6673C32.2612 99.1648 32.1601 99.657 31.9642 100.114C31.7682 100.571 31.4815 100.984 31.1213 101.327C30.7611 101.67 30.3349 101.936 29.8687 102.11C29.4025 102.283 28.9059 102.36 28.4091 102.336H28.3916ZM26.2966 100.434H28.4091C28.874 100.434 29.3199 100.249 29.6487 99.9201C29.9775 99.5913 30.1622 99.1454 30.1622 98.6805C30.1622 98.2155 29.9775 97.7696 29.6487 97.4409C29.3199 97.1121 28.874 96.9274 28.4091 96.9274H26.2966V100.434Z" fill="white"/>
<path d="M34.3687 106.052V95.9371C34.3675 95.8128 34.3912 95.6896 34.4385 95.5747C34.4858 95.4598 34.5556 95.3556 34.6439 95.2681C34.7321 95.1807 34.837 95.1118 34.9524 95.0656C35.0677 95.0194 35.1911 94.9968 35.3154 94.9992C35.4397 94.998 35.563 95.0214 35.6783 95.0679C35.7936 95.1144 35.8986 95.1832 35.9873 95.2702C36.0761 95.3573 36.1468 95.4611 36.1954 95.5755C36.244 95.6899 36.2696 95.8128 36.2708 95.9371V100.057H40.7061V95.9371C40.7049 95.8128 40.7286 95.6896 40.7759 95.5747C40.8232 95.4598 40.893 95.3556 40.9813 95.2681C41.0695 95.1807 41.1744 95.1118 41.2898 95.0656C41.4051 95.0194 41.5285 94.9968 41.6528 94.9992C41.7771 94.998 41.9004 95.0214 42.0157 95.0679C42.131 95.1144 42.236 95.1832 42.3247 95.2702C42.4135 95.3573 42.4842 95.4611 42.5328 95.5755C42.5814 95.6899 42.6071 95.8128 42.6082 95.9371V106.052C42.6071 106.177 42.5814 106.3 42.5328 106.414C42.4842 106.528 42.4135 106.632 42.3247 106.719C42.236 106.806 42.131 106.875 42.0157 106.922C41.9004 106.968 41.7771 106.991 41.6528 106.99C41.5285 106.993 41.4051 106.97 41.2898 106.924C41.1744 106.878 41.0695 106.809 40.9813 106.721C40.893 106.634 40.8232 106.53 40.7759 106.415C40.7286 106.3 40.7049 106.177 40.7061 106.052V101.941H36.2708V106.052C36.2696 106.177 36.244 106.3 36.1954 106.414C36.1468 106.528 36.0761 106.632 35.9873 106.719C35.8986 106.806 35.7936 106.875 35.6783 106.922C35.563 106.968 35.4397 106.991 35.3154 106.99C35.1911 106.993 35.0677 106.97 34.9524 106.924C34.837 106.878 34.7321 106.809 34.6439 106.721C34.5556 106.634 34.4858 106.53 34.4385 106.415C34.3912 106.3 34.3675 106.177 34.3687 106.052Z" fill="white"/>
<path d="M50.5239 102.336H48.4202V106.052C48.3974 106.289 48.2874 106.508 48.1116 106.668C47.9357 106.828 47.7067 106.916 47.4691 106.916C47.2315 106.916 47.0025 106.828 46.8267 106.668C46.6508 106.508 46.5408 106.289 46.5181 106.052V95.9369C46.5181 95.6882 46.6169 95.4496 46.7928 95.2737C46.9687 95.0978 47.2072 94.999 47.456 94.999H50.5239C51.0207 94.9747 51.5173 95.0516 51.9835 95.225C52.4497 95.3984 52.8758 95.6646 53.236 96.0077C53.5962 96.3507 53.883 96.7633 54.079 97.2205C54.2749 97.6777 54.376 98.1699 54.376 98.6673C54.376 99.1648 54.2749 99.657 54.079 100.114C53.883 100.571 53.5962 100.984 53.236 101.327C52.8758 101.67 52.4497 101.936 51.9835 102.11C51.5173 102.283 51.0207 102.36 50.5239 102.336ZM48.4202 100.434H50.5239C50.9888 100.434 51.4347 100.249 51.7635 99.9201C52.0923 99.5913 52.277 99.1454 52.277 98.6805C52.277 98.2155 52.0923 97.7696 51.7635 97.4409C51.4347 97.1121 50.9888 96.9274 50.5239 96.9274H48.4202V100.434Z" fill="white"/>
</g>
<defs>
<clipPath id="clip0_618_1504">
<rect width="568" height="357.63" fill="white" transform="translate(0 0.0517578)"/>
</clipPath>
</defs>
</svg>
