<?xml version="1.0" encoding="UTF-8"?>
<!DOCTYPE svg PUBLIC "-//W3C//DTD SVG 1.1//EN" "http://www.w3.org/Graphics/SVG/1.1/DTD/svg11.dtd">
<svg xmlns="http://www.w3.org/2000/svg" version="1.1" width="317px" height="220px" style="shape-rendering:geometricPrecision; text-rendering:geometricPrecision; image-rendering:optimizeQuality; fill-rule:evenodd; clip-rule:evenodd" xmlns:xlink="http://www.w3.org/1999/xlink">
<g><path style="opacity:1" fill="#fcfcfc" d="M -0.5,-0.5 C 105.167,-0.5 210.833,-0.5 316.5,-0.5C 316.5,72.8333 316.5,146.167 316.5,219.5C 210.833,219.5 105.167,219.5 -0.5,219.5C -0.5,146.167 -0.5,72.8333 -0.5,-0.5 Z"/></g>
<g><path style="opacity:1" fill="#9fbceb" d="M 183.5,32.5 C 194.066,36.9003 204.066,42.2336 213.5,48.5C 210.348,48.0471 207.848,49.0471 206,51.5C 205.667,51.1667 205.333,50.8333 205,50.5C 202.645,55.8619 198.812,60.0285 193.5,63C 190.959,63.3809 188.626,64.2143 186.5,65.5C 184.423,64.0629 182.09,63.3962 179.5,63.5C 171.736,59.0797 163.736,55.0797 155.5,51.5C 146.005,56.7483 136.338,61.7483 126.5,66.5C 125.25,66.4226 124.417,65.756 124,64.5C 120.391,68.9521 119.891,73.6188 122.5,78.5C 121.861,87.3702 121.528,96.2035 121.5,105C 124.902,110.462 123.235,112.629 116.5,111.5C 116.703,109.362 117.703,107.695 119.5,106.5C 116.119,103.415 112.619,100.415 109,97.5C 108.211,93.9085 108.378,90.4085 109.5,87C 107.2,84.995 107.2,82.8283 109.5,80.5C 108.934,77.5826 108.934,74.5826 109.5,71.5C 115.674,72.8271 117.841,70.4938 116,64.5C 113.17,61.8115 110.004,59.8115 106.5,58.5C 106.5,57.5 106.5,56.5 106.5,55.5C 105.448,55.6495 104.448,55.4828 103.5,55C 101.681,54.2597 100.348,53.0931 99.5,51.5C 100.186,50.1516 101.186,48.985 102.5,48C 105.224,47.7305 107.891,47.2305 110.5,46.5C 113.447,47.4226 116.447,48.0893 119.5,48.5C 119.109,45.162 120.276,44.162 123,45.5C 125.036,45.0464 126.87,44.2131 128.5,43C 126.495,41.1286 124.161,39.7953 121.5,39C 122.803,35.956 125.136,34.7893 128.5,35.5C 128.5,34.5 128.5,33.5 128.5,32.5C 133.626,32.1244 138.626,31.1244 143.5,29.5C 143.5,30.5 143.5,31.5 143.5,32.5C 149.038,32.3134 154.371,31.3134 159.5,29.5C 159.5,30.5 159.5,31.5 159.5,32.5C 162.745,32.7066 164.745,31.2066 165.5,28C 166.333,27.8333 167.167,27.6667 168,27.5C 173.553,28.2048 178.719,29.8715 183.5,32.5 Z"/></g>
<g><path style="opacity:1" fill="#9ab4da" d="M 183.5,32.5 C 178.719,29.8715 173.553,28.2048 168,27.5C 167.167,27.6667 166.333,27.8333 165.5,28C 164.745,31.2066 162.745,32.7066 159.5,32.5C 159.5,31.5 159.5,30.5 159.5,29.5C 154.371,31.3134 149.038,32.3134 143.5,32.5C 143.5,31.5 143.5,30.5 143.5,29.5C 138.626,31.1244 133.626,32.1244 128.5,32.5C 128.5,33.5 128.5,34.5 128.5,35.5C 125.136,34.7893 122.803,35.956 121.5,39C 124.161,39.7953 126.495,41.1286 128.5,43C 126.87,44.2131 125.036,45.0464 123,45.5C 120.276,44.162 119.109,45.162 119.5,48.5C 116.447,48.0893 113.447,47.4226 110.5,46.5C 107.891,47.2305 105.224,47.7305 102.5,48C 101.186,48.985 100.186,50.1516 99.5,51.5C 98.5,51.5 97.5,51.5 96.5,51.5C 96.5,54.1667 96.5,56.8333 96.5,59.5C 96.5,79.8333 96.5,100.167 96.5,120.5C 102.286,122.065 107.286,124.732 111.5,128.5C 110.391,128.443 109.391,128.11 108.5,127.5C 105.794,127.312 103.461,126.312 101.5,124.5C 99.8516,123.223 98.0183,122.223 96,121.5C 95.51,120.207 95.3433,118.873 95.5,117.5C 95.1669,94.4903 95.5003,71.4903 96.5,48.5C 116.397,37.9678 136.23,27.3012 156,16.5C 165.427,21.4609 174.594,26.7942 183.5,32.5 Z"/></g>
<g><path style="opacity:1" fill="#90b1e6" d="M 213.5,48.5 C 214.492,48.3284 215.158,48.6618 215.5,49.5C 214.503,69.9933 214.169,90.6599 214.5,111.5C 213.167,111.5 211.833,111.5 210.5,111.5C 210.247,113.827 210.914,115.827 212.5,117.5C 210.481,120.692 207.481,122.192 203.5,122C 202.167,123 200.833,124 199.5,125C 200.833,125.667 200.833,126.333 199.5,127C 197.473,128.879 195.14,130.046 192.5,130.5C 193.955,128.108 195.955,126.275 198.5,125C 190.811,125.149 183.144,124.316 175.5,122.5C 175.034,120.799 175.034,119.299 175.5,118C 171.755,118.035 171.088,117.035 173.5,115C 171.061,114.467 170.395,113.3 171.5,111.5C 174.906,109.619 178.239,107.452 181.5,105C 183.025,103.991 184.692,103.491 186.5,103.5C 186.828,91.3217 186.495,79.3217 185.5,67.5C 183.249,66.5894 181.249,65.256 179.5,63.5C 182.09,63.3962 184.423,64.0629 186.5,65.5C 188.626,64.2143 190.959,63.3809 193.5,63C 198.812,60.0285 202.645,55.8619 205,50.5C 205.333,50.8333 205.667,51.1667 206,51.5C 207.848,49.0471 210.348,48.0471 213.5,48.5 Z"/></g>
<g><path style="opacity:1" fill="#91b1e8" d="M 99.5,51.5 C 100.348,53.0931 101.681,54.2597 103.5,55C 104.448,55.4828 105.448,55.6495 106.5,55.5C 106.5,56.5 106.5,57.5 106.5,58.5C 110.004,59.8115 113.17,61.8115 116,64.5C 117.841,70.4938 115.674,72.8271 109.5,71.5C 108.934,74.5826 108.934,77.5826 109.5,80.5C 107.2,82.8283 107.2,84.995 109.5,87C 108.378,90.4085 108.211,93.9085 109,97.5C 112.619,100.415 116.119,103.415 119.5,106.5C 117.703,107.695 116.703,109.362 116.5,111.5C 123.235,112.629 124.902,110.462 121.5,105C 121.528,96.2035 121.861,87.3702 122.5,78.5C 119.891,73.6188 120.391,68.9521 124,64.5C 124.417,65.756 125.25,66.4226 126.5,66.5C 126.5,66.8333 126.5,67.1667 126.5,67.5C 125.175,79.3398 125.175,91.3398 126.5,103.5C 131.703,106.326 136.703,109.326 141.5,112.5C 137.389,112.478 133.389,111.811 129.5,110.5C 128.605,112.307 127.272,113.64 125.5,114.5C 120.968,114.682 116.468,115.015 112,115.5C 111.51,114.207 111.343,112.873 111.5,111.5C 108.007,111.998 104.674,111.998 101.5,111.5C 98.8335,94.1637 98.8335,76.8303 101.5,59.5C 99.8123,59.542 98.1457,59.542 96.5,59.5C 96.5,56.8333 96.5,54.1667 96.5,51.5C 97.5,51.5 98.5,51.5 99.5,51.5 Z"/></g>
<g><path style="opacity:1" fill="#759bde" d="M 179.5,63.5 C 181.249,65.256 183.249,66.5894 185.5,67.5C 183.692,67.4914 182.025,67.9914 180.5,69C 176.341,72.8606 171.675,75.8606 166.5,78C 162.278,78.5684 158.444,80.0684 155,82.5C 146.851,78.5681 139.018,74.0681 131.5,69C 129.975,67.9914 128.308,67.4914 126.5,67.5C 126.5,67.1667 126.5,66.8333 126.5,66.5C 136.338,61.7483 146.005,56.7483 155.5,51.5C 163.736,55.0797 171.736,59.0797 179.5,63.5 Z"/></g>
<g><path style="opacity:1" fill="#698fd5" d="M 126.5,67.5 C 128.308,67.4914 129.975,67.9914 131.5,69C 139.018,74.0681 146.851,78.5681 155,82.5C 158.444,80.0684 162.278,78.5684 166.5,78C 171.675,75.8606 176.341,72.8606 180.5,69C 182.025,67.9914 183.692,67.4914 185.5,67.5C 186.495,79.3217 186.828,91.3217 186.5,103.5C 184.692,103.491 183.025,103.991 181.5,105C 178.239,107.452 174.906,109.619 171.5,111.5C 166.184,114.158 160.85,116.825 155.5,119.5C 150.809,117.123 146.142,114.79 141.5,112.5C 136.703,109.326 131.703,106.326 126.5,103.5C 125.175,91.3398 125.175,79.3398 126.5,67.5 Z"/></g>
<g><path style="opacity:1" fill="#89a4cb" d="M 215.5,49.5 C 216.663,72.9964 216.83,96.6631 216,120.5C 212.89,122.636 209.723,124.636 206.5,126.5C 198.852,129.662 191.852,133.829 185.5,139C 181.885,139.47 178.551,140.637 175.5,142.5C 175.338,140.473 175.505,138.473 176,136.5C 178.154,137.226 180.654,137.393 183.5,137C 185.099,135.934 186.099,134.434 186.5,132.5C 183.167,131.833 179.833,131.167 176.5,130.5C 177,129.5 177.5,128.5 178,127.5C 180.719,126.556 183.552,126.223 186.5,126.5C 186.579,130.867 188.579,132.201 192.5,130.5C 195.14,130.046 197.473,128.879 199.5,127C 200.833,126.333 200.833,125.667 199.5,125C 200.833,124 202.167,123 203.5,122C 207.481,122.192 210.481,120.692 212.5,117.5C 210.914,115.827 210.247,113.827 210.5,111.5C 211.833,111.5 213.167,111.5 214.5,111.5C 214.169,90.6599 214.503,69.9933 215.5,49.5 Z"/></g>
<g><path style="opacity:1" fill="#eeeeee" d="M 159.5,175.5 C 157.833,175.5 156.167,175.5 154.5,175.5C 154.103,174.475 153.437,174.308 152.5,175C 153.928,178.474 153.428,178.974 151,176.5C 149.878,178.407 149.045,180.407 148.5,182.5C 146.981,179.979 145.314,177.479 143.5,175C 139.26,173.63 134.926,173.464 130.5,174.5C 130.5,170.833 130.5,167.167 130.5,163.5C 130.989,162.005 131.655,160.671 132.5,159.5C 132.771,160.552 132.938,161.885 133,163.5C 133.333,162.833 133.667,162.167 134,161.5C 142.474,165.418 151.474,167.418 161,167.5C 164.001,166.082 167.168,165.249 170.5,165C 178.09,161.349 185.757,157.682 193.5,154C 195.768,151.032 198.768,149.366 202.5,149C 207.775,145.322 212.942,141.488 218,137.5C 221.037,133.296 221.203,128.962 218.5,124.5C 222.328,121.985 225.661,122.652 228.5,126.5C 227.975,127.192 227.308,127.692 226.5,128C 227.804,128.804 228.471,129.971 228.5,131.5C 227.214,133.626 226.381,135.959 226,138.5C 223.06,140.883 220.226,143.383 217.5,146C 213.919,146.741 211.085,148.574 209,151.5C 206.467,150.01 204.633,150.677 203.5,153.5C 200.068,155.48 196.402,156.98 192.5,158C 190.415,159.041 188.748,160.541 187.5,162.5C 185.556,163.189 183.556,163.689 181.5,164C 179.893,166.515 177.56,167.849 174.5,168C 175.696,168.654 175.696,169.154 174.5,169.5C 172.902,168.515 171.235,168.349 169.5,169C 169.833,169.333 170.167,169.667 170.5,170C 167.833,170.333 165.167,170.667 162.5,171C 164.167,171.333 165.833,171.667 167.5,172C 163.386,171.58 159.386,171.913 155.5,173C 157.066,173.608 158.4,174.442 159.5,175.5 Z"/></g>
<g><path style="opacity:1" fill="#85a4d7" d="M 141.5,112.5 C 146.142,114.79 150.809,117.123 155.5,119.5C 160.85,116.825 166.184,114.158 171.5,111.5C 170.395,113.3 171.061,114.467 173.5,115C 171.088,117.035 171.755,118.035 175.5,118C 175.034,119.299 175.034,120.799 175.5,122.5C 183.144,124.316 190.811,125.149 198.5,125C 195.955,126.275 193.955,128.108 192.5,130.5C 188.579,132.201 186.579,130.867 186.5,126.5C 183.552,126.223 180.719,126.556 178,127.5C 177.5,128.5 177,129.5 176.5,130.5C 179.833,131.167 183.167,131.833 186.5,132.5C 186.099,134.434 185.099,135.934 183.5,137C 180.654,137.393 178.154,137.226 176,136.5C 175.505,138.473 175.338,140.473 175.5,142.5C 169.819,147.823 163.152,151.49 155.5,153.5C 152.086,151.462 148.42,149.962 144.5,149C 133.439,142.025 122.439,135.191 111.5,128.5C 107.286,124.732 102.286,122.065 96.5,120.5C 96.5,100.167 96.5,79.8333 96.5,59.5C 98.1457,59.542 99.8123,59.542 101.5,59.5C 98.8335,76.8303 98.8335,94.1637 101.5,111.5C 104.674,111.998 108.007,111.998 111.5,111.5C 111.343,112.873 111.51,114.207 112,115.5C 116.468,115.015 120.968,114.682 125.5,114.5C 127.272,113.64 128.605,112.307 129.5,110.5C 133.389,111.811 137.389,112.478 141.5,112.5 Z"/></g>
<g><path style="opacity:1" fill="#e6e6e6" d="M 95.5,117.5 C 95.3433,118.873 95.51,120.207 96,121.5C 98.0183,122.223 99.8516,123.223 101.5,124.5C 98.8749,125.441 98.8749,126.607 101.5,128C 97.8689,130.407 97.5356,133.241 100.5,136.5C 103.785,136.698 105.452,138.365 105.5,141.5C 108.787,142.264 111.454,144.097 113.5,147C 116.513,148.2 119.347,149.034 122,149.5C 122.333,150.5 122.667,151.5 123,152.5C 126.022,154.688 128.522,157.355 130.5,160.5C 128.369,161.169 126.369,161.835 124.5,162.5C 124.5,162.833 124.5,163.167 124.5,163.5C 121.663,165.172 120.996,164.506 122.5,161.5C 118.61,157.719 113.944,155.219 108.5,154C 107.184,151.167 105.184,150.334 102.5,151.5C 101.738,150.372 101.071,149.205 100.5,148C 97.8333,147 95.1667,146 92.5,145C 89.8253,142.001 87.3253,138.835 85,135.5C 84.3333,132.167 84.3333,128.833 85,125.5C 87.3858,124.237 89.2192,122.403 90.5,120C 91.549,119.508 92.549,119.674 93.5,120.5C 94.1757,119.398 94.8423,118.398 95.5,117.5 Z"/></g>
<g><path style="opacity:1" fill="#e1e1e1" d="M 218.5,124.5 C 221.203,128.962 221.037,133.296 218,137.5C 212.942,141.488 207.775,145.322 202.5,149C 198.768,149.366 195.768,151.032 193.5,154C 185.757,157.682 178.09,161.349 170.5,165C 167.168,165.249 164.001,166.082 161,167.5C 151.474,167.418 142.474,165.418 134,161.5C 133.667,162.167 133.333,162.833 133,163.5C 132.938,161.885 132.771,160.552 132.5,159.5C 131.165,157.156 131.831,155.49 134.5,154.5C 136.187,154.76 137.687,155.427 139,156.5C 139.617,157.449 139.451,158.282 138.5,159C 149.337,164.245 160.337,164.745 171.5,160.5C 171.5,159.167 171.5,157.833 171.5,156.5C 173.262,156.357 174.929,156.691 176.5,157.5C 188.258,151.786 199.592,145.286 210.5,138C 213.487,134.617 214.154,130.783 212.5,126.5C 211.264,127.246 209.93,127.579 208.5,127.5C 211.555,124.91 214.889,123.91 218.5,124.5 Z"/></g>
<g><path style="opacity:1" fill="#ccccca" d="M 101.5,124.5 C 103.461,126.312 105.794,127.312 108.5,127.5C 109.252,129.1 110.252,130.6 111.5,132C 117.372,135.098 123.039,138.432 128.5,142C 132.715,142.378 135.715,144.378 137.5,148C 142.956,149.783 147.956,152.45 152.5,156C 155.167,156.667 157.833,156.667 160.5,156C 165.553,151.014 171.22,149.348 177.5,151C 178.817,149.341 180.483,148.174 182.5,147.5C 183.291,144.683 184.624,142.183 186.5,140C 194.048,137.601 200.715,133.767 206.5,128.5C 207.167,128.167 207.833,127.833 208.5,127.5C 209.93,127.579 211.264,127.246 212.5,126.5C 214.154,130.783 213.487,134.617 210.5,138C 199.592,145.286 188.258,151.786 176.5,157.5C 174.929,156.691 173.262,156.357 171.5,156.5C 171.5,157.833 171.5,159.167 171.5,160.5C 160.337,164.745 149.337,164.245 138.5,159C 139.451,158.282 139.617,157.449 139,156.5C 137.687,155.427 136.187,154.76 134.5,154.5C 131.831,155.49 131.165,157.156 132.5,159.5C 131.655,160.671 130.989,162.005 130.5,163.5C 128.621,162.659 126.621,162.325 124.5,162.5C 126.369,161.835 128.369,161.169 130.5,160.5C 128.522,157.355 126.022,154.688 123,152.5C 122.667,151.5 122.333,150.5 122,149.5C 119.347,149.034 116.513,148.2 113.5,147C 111.454,144.097 108.787,142.264 105.5,141.5C 105.452,138.365 103.785,136.698 100.5,136.5C 97.5356,133.241 97.8689,130.407 101.5,128C 98.8749,126.607 98.8749,125.441 101.5,124.5 Z"/></g>
<g><path style="opacity:1" fill="#b7bec9" d="M 206.5,126.5 C 206.5,127.167 206.5,127.833 206.5,128.5C 200.715,133.767 194.048,137.601 186.5,140C 184.624,142.183 183.291,144.683 182.5,147.5C 180.483,148.174 178.817,149.341 177.5,151C 171.22,149.348 165.553,151.014 160.5,156C 157.833,156.667 155.167,156.667 152.5,156C 147.956,152.45 142.956,149.783 137.5,148C 135.715,144.378 132.715,142.378 128.5,142C 123.039,138.432 117.372,135.098 111.5,132C 110.252,130.6 109.252,129.1 108.5,127.5C 109.391,128.11 110.391,128.443 111.5,128.5C 122.439,135.191 133.439,142.025 144.5,149C 148.42,149.962 152.086,151.462 155.5,153.5C 163.152,151.49 169.819,147.823 175.5,142.5C 178.551,140.637 181.885,139.47 185.5,139C 191.852,133.829 198.852,129.662 206.5,126.5 Z"/></g>
<g><path style="opacity:1" fill="#2f2f2f" d="M 124.5,162.5 C 126.621,162.325 128.621,162.659 130.5,163.5C 130.5,167.167 130.5,170.833 130.5,174.5C 134.926,173.464 139.26,173.63 143.5,175C 145.314,177.479 146.981,179.979 148.5,182.5C 150.187,192.145 146.52,198.479 137.5,201.5C 135.167,200.833 132.833,200.167 130.5,199.5C 128.845,200.228 127.179,200.395 125.5,200C 124.512,187.914 124.178,175.747 124.5,163.5C 124.5,163.167 124.5,162.833 124.5,162.5 Z"/></g>
<g><path style="opacity:1" fill="#2e2e2e" d="M 220.5,174.5 C 224.605,174.234 228.605,174.734 232.5,176C 233.38,177.356 233.714,178.856 233.5,180.5C 229.51,179.81 225.51,179.643 221.5,180C 221,180.5 220.5,181 220,181.5C 218.99,186.558 219.49,191.391 221.5,196C 224.869,196.663 228.203,196.496 231.5,195.5C 233.704,195.527 234.538,196.527 234,198.5C 227.058,202.983 220.725,202.316 215,196.5C 213.051,190.807 213.051,185.14 215,179.5C 216.73,177.598 218.563,175.931 220.5,174.5 Z"/></g>
<g><path style="opacity:1" fill="#f5f5f5" d="M 132.5,178.5 C 134.857,178.337 137.19,178.503 139.5,179C 140.701,179.903 141.535,181.069 142,182.5C 142.667,185.833 142.667,189.167 142,192.5C 140.982,195.683 138.815,197.016 135.5,196.5C 133.68,196.351 132.18,195.684 131,194.5C 130.003,188.95 130.503,183.617 132.5,178.5 Z"/></g>
<g><path style="opacity:1" fill="#2c2c2c" d="M 241.5,162.5 C 243.144,162.286 244.644,162.62 246,163.5C 246.333,169.167 246.667,174.833 247,180.5C 247.308,181.308 247.808,181.975 248.5,182.5C 251.022,180.144 253.688,177.977 256.5,176C 258.167,175.333 259.833,175.333 261.5,176C 259.291,179.586 256.957,183.086 254.5,186.5C 257.304,191.136 260.304,195.636 263.5,200C 261.432,200.687 259.432,200.52 257.5,199.5C 255.303,195.762 252.636,192.429 249.5,189.5C 248.522,189.977 247.689,190.643 247,191.5C 246.667,194.167 246.333,196.833 246,199.5C 244.644,200.38 243.144,200.714 241.5,200.5C 241.5,187.833 241.5,175.167 241.5,162.5 Z"/></g>
<g><path style="opacity:1" fill="#2e2e2e" d="M 54.5,175.5 C 56.3904,175.297 57.8904,175.963 59,177.5C 60.1514,182.791 61.9848,187.791 64.5,192.5C 66.1666,187.167 67.8332,181.834 69.5,176.5C 71.0453,175.548 72.712,175.215 74.5,175.5C 75.8796,181.257 77.5463,186.924 79.5,192.5C 81.3333,187.167 83.1667,181.833 85,176.5C 86.0113,175.663 87.1779,175.33 88.5,175.5C 87.5841,183.329 85.9174,190.995 83.5,198.5C 81.5787,199.641 79.5787,199.808 77.5,199C 76.1449,194.459 74.1449,190.292 71.5,186.5C 69.5774,190.423 67.7441,194.423 66,198.5C 62.8412,201.341 60.5078,200.674 59,196.5C 56.7661,189.638 55.2661,182.638 54.5,175.5 Z"/></g>
<g><path style="opacity:1" fill="#2d2d2d" d="M 154.5,175.5 C 156.167,175.5 157.833,175.5 159.5,175.5C 160.15,175.804 160.817,176.137 161.5,176.5C 172.196,172.349 177.863,176.016 178.5,187.5C 177.849,199.164 171.849,203.497 160.5,200.5C 160.751,203.909 160.417,207.242 159.5,210.5C 157.955,211.452 156.288,211.785 154.5,211.5C 154.5,199.5 154.5,187.5 154.5,175.5 Z"/></g>
<g><path style="opacity:1" fill="#f6f6f6" d="M 163.5,178.5 C 167.355,177.845 170.188,179.179 172,182.5C 173.472,188.076 172.305,192.909 168.5,197C 165.32,198.036 162.82,197.203 161,194.5C 160.333,190.167 160.333,185.833 161,181.5C 162.045,180.627 162.878,179.627 163.5,178.5 Z"/></g>
<g><path style="opacity:1" fill="#2c2c2c" d="M 189.5,173.5 C 194.883,173.053 199.717,174.386 204,177.5C 205.34,185.071 206.173,192.738 206.5,200.5C 203.781,200.603 201.115,200.269 198.5,199.5C 188.083,203.89 183.249,200.556 184,189.5C 188.377,185.61 193.544,183.943 199.5,184.5C 199.859,182.234 199.192,180.401 197.5,179C 193.49,178.643 189.49,178.81 185.5,179.5C 185.238,178.022 185.571,176.689 186.5,175.5C 187.739,175.058 188.739,174.391 189.5,173.5 Z"/></g>
<g><path style="opacity:1" fill="#f6f6f6" d="M 191.5,188.5 C 194.167,188.5 196.833,188.5 199.5,188.5C 199.663,190.857 199.497,193.19 199,195.5C 195.76,197.036 192.76,196.703 190,194.5C 189.252,192.16 189.752,190.16 191.5,188.5 Z"/></g>
<g><path style="opacity:1" fill="#2c2c2c" d="M 101.5,174.5 C 105.637,174.146 109.637,174.646 113.5,176C 117.352,179.308 118.352,183.308 116.5,188C 111.584,189.161 106.584,189.827 101.5,190C 100.228,192.044 100.561,193.878 102.5,195.5C 107.156,196.569 111.822,196.569 116.5,195.5C 116.67,196.822 116.337,197.989 115.5,199C 100.308,204.804 93.475,199.637 95,183.5C 95.8727,179.475 98.0393,176.475 101.5,174.5 Z"/></g>
<g><path style="opacity:1" fill="#f1f1f1" d="M 103.5,178.5 C 108.093,177.418 111.093,179.085 112.5,183.5C 112.291,184.086 111.957,184.586 111.5,185C 107.848,185.499 104.182,185.665 100.5,185.5C 100.15,182.547 101.15,180.213 103.5,178.5 Z"/></g>
</svg>
