<svg width="90" height="37" viewBox="0 0 90 37" fill="none" xmlns="http://www.w3.org/2000/svg">
<g clip-path="url(#clip0_618_2029)">
<path fill-rule="evenodd" clip-rule="evenodd" d="M51.737 1.88808C49.9668 2.81539 49.3076 4.38201 49.3076 8.70822C49.3076 8.70822 50.2039 7.84174 51.5334 7.35884C52.5029 7.00877 53.331 6.47373 53.8089 6.12367C55.3047 5.02753 55.5369 3.61732 55.5369 1.24132C55.5369 1.24132 53.0976 1.17553 51.737 1.88808ZM41.2387 2.90154C39.795 4.17396 39.3729 6.20237 39.3729 6.20237L34.5936 24.72L30.6187 9.56402C30.2314 7.95271 29.5337 5.96154 28.4289 4.61464C27.0224 2.89906 24.1635 2.79106 23.8594 2.79106C23.554 2.79106 20.6951 2.89906 19.2874 4.61464C18.1838 5.96154 17.4861 7.95271 17.0988 9.56402L13.1239 24.72L8.34337 6.20237C8.34337 6.20237 7.92254 4.17396 6.47882 2.90154C4.13757 0.838369 0.626953 1.27906 0.626953 1.27906L9.77964 35.885C9.77964 35.885 12.7987 36.1035 14.3107 35.3326C16.2944 34.3221 17.2391 33.5413 18.4407 28.8327C19.5108 24.6344 22.5038 12.3037 22.7831 11.4261C22.9221 10.9929 23.0972 9.9563 23.8594 9.9563C24.6365 9.9563 24.7978 10.9916 24.9332 11.4261C25.2075 12.305 28.2054 24.6344 29.2767 28.8327C30.4784 33.5413 31.4218 34.3221 33.4068 35.3326C34.9176 36.1035 37.9366 35.885 37.9366 35.885L47.0893 1.27906C47.0893 1.27906 43.5799 0.838369 41.2387 2.90154ZM55.5339 6.9287C55.5339 6.9287 54.9616 7.81504 53.6545 8.54498C52.8165 9.01422 52.0109 9.33201 51.1469 9.74663C49.6994 10.4406 49.3071 11.2139 49.3071 12.3933V12.788V14.6104V14.66V15.0709V35.8851C49.3071 35.8851 51.6173 36.1781 53.1281 35.4072C55.0721 34.4166 55.519 33.4607 55.5364 29.1568V8.18249L55.5339 8.18373V6.9287ZM78.3478 18.6661L89.961 1.39351C89.961 1.39351 85.06 0.559307 82.6331 2.76772C81.0801 4.18165 79.3434 6.724 79.3434 6.724L75.0706 12.8837C74.8633 13.204 74.5914 13.5528 74.1582 13.5528C73.7249 13.5528 73.4543 13.204 73.247 12.8837L68.9742 6.724C68.9742 6.724 67.2375 4.18165 65.6845 2.76772C63.2576 0.559307 58.3567 1.39351 58.3567 1.39351L69.9685 18.6661L58.3865 35.8852C58.3865 35.8852 63.491 36.5308 65.9179 34.3199C67.4709 32.9072 68.9742 30.6081 68.9742 30.6081L73.247 24.4497C73.4543 24.1281 73.7249 23.7806 74.1582 23.7806C74.5914 23.7806 74.8633 24.1281 75.0706 24.4497L79.3434 30.6081C79.3434 30.6081 80.9336 32.9072 82.4866 34.3199C84.9147 36.5308 89.9299 35.8852 89.9299 35.8852L78.3478 18.6661Z" fill="black"/>
</g>
<defs>
<clipPath id="clip0_618_2029">
<rect width="89.3793" height="36" fill="white" transform="translate(0.626953 0.797852)"/>
</clipPath>
</defs>
</svg>
