<svg width="87" height="87" viewBox="0 0 87 87" fill="none" xmlns="http://www.w3.org/2000/svg">
<g clip-path="url(#clip0_618_1666)">
<path d="M84.7517 22.0978C84.5379 22.1797 84.3205 22.2189 84.1031 22.2189C83.3904 22.2189 82.7168 21.7877 82.4424 21.0857L76.9043 6.89124C64.2922 36.6414 39.3068 56.185 2.55025 64.934C2.41126 64.9697 2.27228 64.9839 2.13686 64.9839C1.33145 64.9839 0.600879 64.4351 0.404873 63.6154C0.176793 62.6568 0.768375 61.6946 1.72702 61.4665C37.5498 52.9385 61.8012 33.9116 73.8716 4.9383L58.9288 10.7686C58.02 11.1285 56.9794 10.6724 56.623 9.75649C56.2667 8.84061 56.7192 7.80712 57.6351 7.45075L73.3121 1.33179C74.5273 0.857808 75.853 0.879191 77.0504 1.40663C78.2479 1.93406 79.1709 2.89271 79.6449 4.11151L85.7638 19.792C86.1237 20.7079 85.6676 21.7414 84.7517 22.0978ZM76.9756 29.3464C75.992 29.3464 75.1937 30.1447 75.1937 31.1283V84.5845C75.1937 85.5681 75.992 86.3664 76.9756 86.3664C77.9592 86.3664 78.7575 85.5681 78.7575 84.5845V31.1283C78.7575 30.1447 77.9592 29.3464 76.9756 29.3464ZM59.1569 47.1652C58.1733 47.1652 57.375 47.9635 57.375 48.9471V84.5845C57.375 85.5681 58.1733 86.3664 59.1569 86.3664C60.1404 86.3664 60.9387 85.5681 60.9387 84.5845V48.9471C60.9387 47.9635 60.1404 47.1652 59.1569 47.1652ZM23.5194 64.9839C22.5358 64.9839 21.7375 65.7822 21.7375 66.7658V84.5845C21.7375 85.5681 22.5358 86.3664 23.5194 86.3664C24.5029 86.3664 25.3012 85.5681 25.3012 84.5845V66.7658C25.3012 65.7822 24.5029 64.9839 23.5194 64.9839ZM5.70061 72.1114C4.71701 72.1114 3.91873 72.9097 3.91873 73.8933V84.5845C3.91873 85.5681 4.71701 86.3664 5.70061 86.3664C6.6842 86.3664 7.48248 85.5681 7.48248 84.5845V73.8933C7.48248 72.9097 6.6842 72.1114 5.70061 72.1114ZM41.3381 57.8564C40.3545 57.8564 39.5562 58.6547 39.5562 59.6383V84.5845C39.5562 85.5681 40.3545 86.3664 41.3381 86.3664C42.3217 86.3664 43.12 85.5681 43.12 84.5845V59.6383C43.12 58.6547 42.3217 57.8564 41.3381 57.8564ZM0.35498 22.2189C0.35498 10.4265 9.94503 0.836426 21.7375 0.836426C33.5299 0.836426 43.12 10.4265 43.12 22.2189C43.12 34.0114 33.5299 43.6014 21.7375 43.6014C9.94503 43.6014 0.35498 34.0114 0.35498 22.2189ZM21.7375 40.0377C24.2927 40.0377 26.7125 39.4746 28.9149 38.5017C28.9042 38.4197 28.865 38.3449 28.865 38.2558V36.4739C28.865 32.5431 25.6683 29.3464 21.7375 29.3464C17.8067 29.3464 14.61 32.5431 14.61 36.4739V38.2558C14.61 38.3413 14.5743 38.4162 14.5601 38.5017C16.7589 39.4746 19.1787 40.0377 21.7375 40.0377ZM3.91873 22.2189C3.91873 28.0207 6.74835 33.1347 11.0534 36.3884C11.0997 30.5332 15.868 25.7827 21.7375 25.7827C27.607 25.7827 32.3753 30.5332 32.4216 36.3884C36.7266 33.1311 39.5562 28.0207 39.5562 22.2189C39.5562 12.3937 31.5627 4.40018 21.7375 4.40018C11.9122 4.40018 3.91873 12.3937 3.91873 22.2189ZM14.61 15.0914C14.61 11.1606 17.8067 7.96393 21.7375 7.96393C25.6683 7.96393 28.865 11.1606 28.865 15.0914C28.865 19.0222 25.6683 22.2189 21.7375 22.2189C17.8067 22.2189 14.61 19.0222 14.61 15.0914ZM18.1737 15.0914C18.1737 17.0586 19.7739 18.6552 21.7375 18.6552C23.7011 18.6552 25.3012 17.0586 25.3012 15.0914C25.3012 13.1242 23.7011 11.5277 21.7375 11.5277C19.7739 11.5277 18.1737 13.1242 18.1737 15.0914Z" fill="#323F49"/>
</g>
<defs>
<clipPath id="clip0_618_1666">
<rect width="86" height="86" fill="white" transform="translate(0.22168 0.5)"/>
</clipPath>
</defs>
</svg>
